<?xml version="1.0" encoding="UTF-8" standalone="no"?>
<!-- Created with Inkscape (http://www.inkscape.org/) -->

<svg
   width="200"
   height="100"
   viewBox="0 0 200 100"
   version="1.1"
   id="svg1"
   inkscape:version="1.3 (0e150ed, 2023-07-21)"
   sodipodi:docname="a-shape.svg"
   xmlns:inkscape="http://www.inkscape.org/namespaces/inkscape"
   xmlns:sodipodi="http://sodipodi.sourceforge.net/DTD/sodipodi-0.dtd"
   xmlns="http://www.w3.org/2000/svg"
   xmlns:svg="http://www.w3.org/2000/svg">
  <sodipodi:namedview
     id="namedview1"
     pagecolor="#ffffff"
     bordercolor="#000000"
     borderopacity="0.25"
     inkscape:showpageshadow="2"
     inkscape:pageopacity="0.0"
     inkscape:pagecheckerboard="0"
     inkscape:deskcolor="#d1d1d1"
     inkscape:document-units="px"
     inkscape:zoom="1.9890627"
     inkscape:cx="101.30399"
     inkscape:cy="143.03219"
     inkscape:window-width="1800"
     inkscape:window-height="1097"
     inkscape:window-x="0"
     inkscape:window-y="44"
     inkscape:window-maximized="1"
     inkscape:current-layer="layer1" />
  <defs
     id="defs1">
    <rect
       x="42.133591"
       y="45.848282"
       width="16.552526"
       height="18.44821"
       id="rect3" />
  </defs>
  <g
     inkscape:label="Layer 1"
     inkscape:groupmode="layer"
     id="layer1">
    <text
       xml:space="preserve"
       transform="scale(0.26458333)"
       id="text3"
       style="font-style:normal;font-variant:normal;font-weight:normal;font-stretch:normal;font-size:15px;line-height:0.8;font-family:'Univers LT Std';-inkscape-font-specification:'Univers LT Std';text-align:center;letter-spacing:4px;white-space:pre;shape-inside:url(#rect3);display:inline;fill:#000000;stroke-width:7.55906;stroke-linejoin:bevel;paint-order:markers stroke fill" />
    <path
       d="m 123.71317,86.594197 v -7.02461 c 0,0 -1.44953,0.334505 -2.45304,0.334505 -1.89553,0 -3.12205,-0.780512 -3.12205,-3.791062 V 48.795104 c 0,-3.233552 -0.55751,-6.132597 -1.67253,-8.697137 -2.67604,-6.132597 -8.92014,-10.81567 -19.847311,-10.81567 -6.913107,0 -13.603212,2.007032 -17.394272,6.021095 -2.899045,3.010547 -4.794575,6.690104 -4.906077,11.819185 h 9.254646 c 0,-2.787544 1.003515,-5.017579 2.787544,-6.801607 1.895529,-1.895529 5.129081,-3.345052 10.258159,-3.345052 4.571571,0 7.359111,1.115017 9.254641,2.899045 2.56454,2.341537 2.89905,5.798091 2.89905,8.585635 v 4.125564 L 91.600662,53.589679 C 76.21342,54.481691 71.530347,63.959342 71.530347,71.206954 c 0,8.697139 6.467101,17.394273 19.401303,17.394273 7.916623,0 14.94123,-3.568058 18.17478,-9.254645 h 0.22302 c 0,4.794576 3.12205,8.585635 8.13963,8.585635 2.34154,0 4.23707,-0.334506 6.2441,-1.33802 z M 108.77193,63.290331 c 0,4.683071 -1.44953,9.366146 -4.79458,12.822699 -3.01054,3.122052 -7.247607,4.571575 -11.596176,4.571575 -8.028127,0 -11.150175,-4.683075 -11.150175,-9.700652 0,-7.136115 6.690104,-9.812156 12.376693,-10.146662 l 15.164238,-0.892012 z"
       id="text4"
       style="font-size:30.3633px;line-height:0.8;font-family:'Akkurat Pro';-inkscape-font-specification:'Akkurat Pro';text-align:center;letter-spacing:8.09686px;text-anchor:middle;stroke-width:2;stroke-linejoin:bevel;paint-order:markers stroke fill"
       aria-label="a" />
    <path
       d="m 157.76246,38.132401 c 11.83984,0 18.89591,9.089172 18.89591,20.331043 0,11.361465 -6.4581,21.287799 -18.77632,21.287799 -11.95944,0 -18.41752,-10.404711 -18.41752,-21.407393 0,-10.524305 7.17565,-20.211449 18.29793,-20.211449 z m 27.98508,-7.295257 h -9.56755 v 8.012823 h -0.23919 c -4.66418,-5.979719 -11.60065,-9.56755 -19.25469,-9.56755 -16.8628,0 -27.02833,13.753353 -27.02833,29.778999 0,15.547269 10.40472,29.539811 26.90873,29.539811 7.89323,0 14.47092,-3.109454 19.37429,-9.328361 h 0.23919 V 87.0465 h 9.56755 z"
       id="text1"
       style="font-size:161.29px;line-height:0.8;font-family:'Futura Std';-inkscape-font-specification:'Futura Std';text-align:center;letter-spacing:43.0106px;text-anchor:middle;stroke-width:7.55909;stroke-linejoin:bevel;paint-order:markers stroke fill"
       aria-label="a" />
    <path
       d="M 61.585743,86.823448 C 60.807966,81.156787 60.696855,73.71235 60.696855,72.823462 l 0.444444,-26.66664 c 0,-2.555553 -0.111111,-5.222217 -1.888887,-8.555547 -2.999997,-5.666661 -11.666655,-8.222214 -19.777758,-8.222214 -5.888883,0 -13.777764,1.333332 -17.999982,5.999994 -3.222219,3.777774 -3.555552,7.666659 -3.888885,10.555545 h 10.444434 c 0.111111,-2.22222 0.666666,-9.444435 11.222211,-9.444435 2.999997,0 7.555548,0.888888 9.666657,3.666663 1.999998,2.444442 1.999998,5.444439 1.999998,12.333321 -3.222219,-0.222222 -4.888884,-0.333333 -7.555548,-0.333333 -4.44444,0 -13.33332,0.333333 -19.333314,3.666663 -8.222214,4.777773 -9.777768,11.888877 -9.777768,16.333317 0,9.222213 6.888882,16.444428 19.666647,16.444428 4.666662,0 12.22221,-0.888888 17.222205,-10.111101 0,2.888886 0.222222,5.55555 0.999999,8.333325 z M 50.919087,59.712364 c -0.222222,7.77777 -0.333333,10.888878 -2.666664,14.666652 -2.555553,3.888885 -6.555549,5.999994 -11.888877,5.999994 -9.333324,0 -11.555544,-6.111105 -11.555544,-9.666657 0,-11.333322 15.888873,-11.333322 20.111091,-11.333322 2.555553,0 4.111107,0.111111 5.999994,0.333333 z"
       id="text2"
       style="font-size:111.111px;line-height:0.8;font-family:'Univers LT Std';-inkscape-font-specification:'Univers LT Std';text-align:center;letter-spacing:29.6297px;text-anchor:middle;stroke-width:7.55903;stroke-linejoin:bevel;paint-order:markers stroke fill"
       aria-label="a" />
  </g>
</svg>
