<?xml version="1.0" encoding="UTF-8" standalone="no"?>
<!-- Created with Inkscape (http://www.inkscape.org/) -->

<svg
   width="26.458334mm"
   height="26.458334mm"
   viewBox="0 0 26.458334 26.458334"
   version="1.1"
   id="svg1"
   inkscape:version="1.3 (0e150ed, 2023-07-21)"
   sodipodi:docname="e-angle-vertical.svg"
   xmlns:inkscape="http://www.inkscape.org/namespaces/inkscape"
   xmlns:sodipodi="http://sodipodi.sourceforge.net/DTD/sodipodi-0.dtd"
   xmlns="http://www.w3.org/2000/svg"
   xmlns:svg="http://www.w3.org/2000/svg">
  <sodipodi:namedview
     id="namedview1"
     pagecolor="#ffffff"
     bordercolor="#000000"
     borderopacity="0.25"
     inkscape:showpageshadow="2"
     inkscape:pageopacity="0.0"
     inkscape:pagecheckerboard="0"
     inkscape:deskcolor="#d1d1d1"
     inkscape:document-units="mm"
     inkscape:zoom="2.5738286"
     inkscape:cx="89.555303"
     inkscape:cy="22.728786"
     inkscape:window-width="1800"
     inkscape:window-height="1097"
     inkscape:window-x="0"
     inkscape:window-y="44"
     inkscape:window-maximized="1"
     inkscape:current-layer="layer1"
     showgrid="false" />
  <defs
     id="defs1" />
  <g
     inkscape:label="Layer 1"
     inkscape:groupmode="layer"
     id="layer1">
    <path
       style="font-weight:bold;font-size:40.7871px;line-height:0.8;font-family:'Gill Sans';-inkscape-font-specification:'Gill Sans Bold';text-align:center;letter-spacing:10.8765px;text-anchor:middle;fill-rule:evenodd;stroke-width:0.800002;stroke-linejoin:bevel;paint-order:markers stroke fill"
       d="M 24.053282,14.961813 H 9.7738134 q 0.4182276,1.852148 2.0513046,3.027167 1.633077,1.175019 3.704297,1.175019 3.624635,0 8.006062,-2.031388 v 4.441173 q -1.57333,0.816539 -3.823791,1.493668 -2.230544,0.657215 -5.695855,0.657215 -3.744128,0 -6.3729843,-1.394091 -2.6288562,-1.39409 -3.9432843,-3.783959 -1.2945125,-2.38987 -1.2945125,-5.417037 0,-2.987337 1.2945125,-5.3373751 1.3144281,-2.3699537 3.9432843,-3.7042973 2.6288563,-1.3542593 6.3729843,-1.3542593 2.469532,0 4.759823,1.0754412 2.310207,1.0555256 3.78396,3.485226 1.493668,2.4097848 1.493668,6.2335755 z M 17.321817,11.41684 q 0,-1.9517266 -0.975863,-3.1068301 -0.955948,-1.175019 -2.768265,-1.175019 -1.792402,0 -2.907675,1.1949346 -1.0953564,1.175019 -1.0953564,3.0869145 z"
       id="text1"
       aria-label="e" />
    <path
       d="m 22.652344,15.21875 v 8.505859 h 2 V 15.21875 Z"
       id="path1"
       class="f-accent" />
  </g>
</svg>
