<?xml version="1.0" encoding="UTF-8" standalone="no"?>
<!-- Created with Inkscape (http://www.inkscape.org/) -->

<svg
   width="26.458334mm"
   height="26.458334mm"
   viewBox="0 0 26.458334 26.458334"
   version="1.1"
   id="svg1"
   inkscape:version="1.3 (0e150ed, 2023-07-21)"
   sodipodi:docname="e-angle-~vertical.svg"
   xmlns:inkscape="http://www.inkscape.org/namespaces/inkscape"
   xmlns:sodipodi="http://sodipodi.sourceforge.net/DTD/sodipodi-0.dtd"
   xmlns="http://www.w3.org/2000/svg"
   xmlns:svg="http://www.w3.org/2000/svg">
  <sodipodi:namedview
     id="namedview1"
     pagecolor="#ffffff"
     bordercolor="#000000"
     borderopacity="0.25"
     inkscape:showpageshadow="2"
     inkscape:pageopacity="0.0"
     inkscape:pagecheckerboard="0"
     inkscape:deskcolor="#d1d1d1"
     inkscape:document-units="mm"
     inkscape:zoom="2.5738286"
     inkscape:cx="89.555303"
     inkscape:cy="22.923049"
     inkscape:window-width="1512"
     inkscape:window-height="916"
     inkscape:window-x="0"
     inkscape:window-y="38"
     inkscape:window-maximized="1"
     inkscape:current-layer="layer1" />
  <defs
     id="defs1" />
  <g
     inkscape:label="Layer 1"
     inkscape:groupmode="layer"
     id="layer1">
    <path
       d="M 22.521715,15.557459 H 9.4585572 v 0.164834 q 0,2.348896 1.6483478,3.50274 1.648348,1.153843 4.244496,1.153843 1.648348,0 2.884609,-0.329669 1.27747,-0.32967 2.307687,-0.782965 l 0.989009,3.832408 q -1.112635,0.535714 -2.802192,0.906592 -1.689556,0.412087 -3.997243,0.412087 -2.22527,0 -4.203288,-0.576922 Q 8.5931746,23.222277 7.1096614,21.986016 5.667357,20.749755 4.8019743,18.854155 3.9365916,16.958554 3.9365916,14.321198 q 0,-2.348896 0.7005479,-4.244496 Q 5.3376874,8.139893 6.615157,6.7800059 7.9338354,5.4201189 9.7470181,4.6783623 11.560201,3.8953971 13.785471,3.8953971 q 3.997243,0 6.346139,2.4313132 2.390105,2.4313132 2.390105,6.7994347 z m -5.604383,-3.749992 q 0,-0.782965 -0.206044,-1.524722 Q 16.546453,9.5409887 16.134366,9.0052757 15.722279,8.4283539 15.104149,8.0986843 14.486018,7.7690147 13.579427,7.7690147 q -1.648348,0 -2.719774,1.1126349 -1.0714262,1.1126348 -1.2774697,3.0082354 z"
       id="text1"
       style="font-weight:bold;font-size:41.2087px;line-height:0.8;font-family:'Mukta Mahee';-inkscape-font-specification:'Mukta Mahee Bold';text-align:center;letter-spacing:10.9889px;text-anchor:middle;stroke-width:2;stroke-linejoin:bevel;paint-order:markers stroke fill"
       aria-label="e" />
    <path
       style="fill:none;fill-rule:evenodd;stroke:#ff0000;stroke-width:2;stroke-linejoin:bevel;stroke-dasharray:none;stroke-opacity:1;paint-order:markers stroke fill"
       d="m 19.187519,12.789158 2.712356,12.954167"
       id="path1" />
  </g>
</svg>
