<?xml version="1.0" encoding="UTF-8" standalone="no"?>
<!-- Created with Inkscape (http://www.inkscape.org/) -->

<svg
   width="26.458334mm"
   height="26.458334mm"
   viewBox="0 0 26.458334 26.458334"
   version="1.1"
   id="svg1"
   inkscape:version="1.3 (0e150ed, 2023-07-21)"
   sodipodi:docname="g-shape-other.svg"
   xmlns:inkscape="http://www.inkscape.org/namespaces/inkscape"
   xmlns:sodipodi="http://sodipodi.sourceforge.net/DTD/sodipodi-0.dtd"
   xmlns="http://www.w3.org/2000/svg"
   xmlns:svg="http://www.w3.org/2000/svg">
  <sodipodi:namedview
     id="namedview1"
     pagecolor="#ffffff"
     bordercolor="#000000"
     borderopacity="0.25"
     inkscape:showpageshadow="2"
     inkscape:pageopacity="0.0"
     inkscape:pagecheckerboard="0"
     inkscape:deskcolor="#d1d1d1"
     inkscape:document-units="mm"
     inkscape:zoom="2.7702942"
     inkscape:cx="86.452912"
     inkscape:cy="58.477544"
     inkscape:window-width="1512"
     inkscape:window-height="916"
     inkscape:window-x="0"
     inkscape:window-y="38"
     inkscape:window-maximized="1"
     inkscape:current-layer="layer1" />
  <defs
     id="defs1" />
  <g
     inkscape:label="Layer 1"
     inkscape:groupmode="layer"
     id="layer1">
    <path
       d="m 16.752669,14.804065 -0.213545,1.601592 q -0.05339,0.320318 -0.320319,0.640637 -0.240239,0.320318 -0.694023,0.58725 -0.427091,0.266932 -1.041035,0.453785 -0.58725,0.160159 -1.307966,0.160159 -0.82749,0 -1.548206,-0.186853 -0.720716,-0.186852 -1.281274,-0.66733 -0.5338636,-0.50717 -0.854182,-1.414739 -0.2936252,-0.907569 -0.2936252,-2.349002 0,-1.281273 0.5071708,-2.696013 0.5071704,-1.4414326 1.3880464,-2.6426265 0.880876,-1.201194 2.028683,-1.9752968 1.174501,-0.8007959 2.482468,-0.8007959 0.347011,0 0.58725,0.08008 0.240239,0.053386 0.507171,0.2936252 0.58725,0.5338639 0.774103,0.6940231 0.213545,0.1601592 0.400398,0.1601592 0.133466,0 0.347011,-0.08008 0.213546,-0.1067728 0.427091,-0.2402388 0.213546,-0.1601592 0.373705,-0.3470116 0.160159,-0.2135455 0.160159,-0.4003979 0,-0.7207164 -0.800796,-1.0410348 -0.800796,-0.3470116 -2.322308,-0.3470116 -2.295615,0 -3.950593,0.800796 -1.654979,0.7741028 -2.7494,2.0286831 -1.0677279,1.2545804 -1.5748987,2.8561723 -0.5071708,1.601592 -0.5071708,3.25657 0,0.827489 0.266932,1.921911 0.2936252,1.094421 0.9876484,2.108762 0.6940231,0.987649 1.8685241,1.681672 1.201194,0.694023 3.043025,0.694023 0.373704,0 0.800795,-0.05339 0.427092,-0.05339 0.800796,-0.106773 0.373705,-0.05339 0.640637,-0.106773 0.293625,-0.05339 0.400398,-0.05339 0.694023,0 0.800796,0.694023 0.106773,0.694023 0.186853,1.121114 0.106772,0.427091 0.213545,0.640637 0.106773,0.240239 0.213546,0.320318 0.106773,0.08008 0.266932,0.08008 0.480477,0 0.613943,-0.160159 0.16016,-0.160159 0.16016,-0.533864 0,-0.774103 -0.133466,-1.868524 -0.106773,-1.121114 -0.106773,-2.909559 0,-0.854182 -0.02669,-1.307967 0,-0.480477 -0.08008,-0.694023 -0.05339,-0.240239 -0.160159,-0.293625 -0.106773,-0.05339 -0.266932,-0.05339 -0.587251,0 -0.774103,0.106772 -0.186852,0.106773 -0.240239,0.347012 z"
       id="text2"
       style="font-weight:bold;font-size:26.6932px;line-height:0.8;font-family:Herculanum;-inkscape-font-specification:'Herculanum Bold';text-align:center;letter-spacing:7.11817px;text-anchor:middle;stroke-width:2.00001;stroke-linejoin:bevel;paint-order:markers stroke fill"
       aria-label="g" />
  </g>
</svg>
