<?xml version="1.0" encoding="UTF-8" standalone="no"?>
<!-- Created with Inkscape (http://www.inkscape.org/) -->

<svg
   width="200"
   height="100"
   viewBox="0 0 200 100"
   version="1.1"
   id="svg1"
   inkscape:version="1.3 (0e150ed, 2023-07-21)"
   sodipodi:docname="g-shape.svg"
   xmlns:inkscape="http://www.inkscape.org/namespaces/inkscape"
   xmlns:sodipodi="http://sodipodi.sourceforge.net/DTD/sodipodi-0.dtd"
   xmlns="http://www.w3.org/2000/svg"
   xmlns:svg="http://www.w3.org/2000/svg">
  <sodipodi:namedview
     id="namedview1"
     pagecolor="#ffffff"
     bordercolor="#000000"
     borderopacity="0.25"
     inkscape:showpageshadow="2"
     inkscape:pageopacity="0.0"
     inkscape:pagecheckerboard="0"
     inkscape:deskcolor="#d1d1d1"
     inkscape:document-units="px"
     inkscape:zoom="3.4036135"
     inkscape:cx="150.86907"
     inkscape:cy="112.67437"
     inkscape:window-width="1800"
     inkscape:window-height="1097"
     inkscape:window-x="0"
     inkscape:window-y="44"
     inkscape:window-maximized="1"
     inkscape:current-layer="layer1" />
  <defs
     id="defs1">
    <rect
       x="42.133591"
       y="45.848282"
       width="16.552526"
       height="18.44821"
       id="rect3" />
  </defs>
  <g
     inkscape:label="Layer 1"
     inkscape:groupmode="layer"
     id="layer1">
    <text
       xml:space="preserve"
       transform="scale(0.26458333)"
       id="text3"
       style="font-style:normal;font-variant:normal;font-weight:normal;font-stretch:normal;font-size:15px;line-height:0.8;font-family:'Univers LT Std';-inkscape-font-specification:'Univers LT Std';text-align:center;letter-spacing:4px;white-space:pre;shape-inside:url(#rect3);display:inline;fill:#000000;stroke-width:7.55906;stroke-linejoin:bevel;paint-order:markers stroke fill" />
    <path
       d="m 37.632759,77.152448 c 0.444,7.548 1.11,17.982002 23.421,17.982002 7.659,0 18.537002,-1.11 23.199002,-9.990002 2.22,-4.218 2.664,-9.657 2.664,-23.088 l 0.111,-34.854 0.222,-10.101 h -10.101 l -0.111,7.659 c -2.22,-2.886 -6.327,-8.436 -17.538002,-8.436 -13.653,0 -24.753,9.213 -24.753,28.083 0,7.437 1.554,14.874 6.327,20.535 4.662,5.772 11.988,6.882 17.094,6.882 3.33,0 13.875002,-0.222 18.315002,-9.435 0,15.096 -0.222,25.641002 -14.763002,25.641002 -9.879,0 -12.543,-4.662002 -12.987,-10.878002 z m 23.199,-13.098 c -12.765,0 -15.318,-11.322 -15.318,-19.869 0,-7.104 1.776,-20.424 14.985,-20.424 4.773,0 9.213,1.887 11.988002,4.884 2.775,2.886 4.329,6.882 4.329,13.875 0,10.101 -1.554,13.098 -3.774,15.984 -2.553,3.33 -6.105002,5.55 -12.210002,5.55 z"
       id="text5"
       style="font-size:111px;line-height:0.8;font-family:'Univers LT Std';-inkscape-font-specification:'Univers LT Std';text-align:center;letter-spacing:4px;text-anchor:middle;stroke-width:7.55906;stroke-linejoin:bevel;paint-order:markers stroke fill"
       aria-label="ag"
       sodipodi:nodetypes="csccccccsscscsccssscscs" />
    <path
       d="m 169.25324,81.148448 c 0,-4.662 -1.776,-8.325 -4.44,-10.989 -4.44,-4.551 -11.877,-5.883 -18.537,-5.883 0,0 -7.437,0.111 -11.1,0 -3.552,-0.111 -8.769,-0.666 -8.436,-5.55 0.222,-2.664 2.664,-4.329 4.773,-4.995 3.552,1.221 5.661,1.554 9.435,1.554 7.437,0 13.098,-2.664 16.761,-6.66 3.108,-3.441 5.106,-8.103 5.106,-13.431 0,-4.995 -1.332,-8.658 -3.663,-11.655 0.555,-3.108 3.219,-5.106 6.882,-5.106 0.777,0 1.554,0 2.109,0.111 v -7.659 c -0.888,-0.111 -1.887,-0.222 -2.775,-0.222 -5.328,0 -9.657,2.886 -11.544,7.881 -3.441,-2.109 -7.548,-3.33 -12.876,-3.33 -7.437,0 -12.765,2.331 -16.65,6.327 -3.219,3.33 -5.328,7.548 -5.328,13.653 0,5.328 2.331,10.878 6.438,14.541 -4.218,1.998 -7.437,5.883 -7.437,10.878 0,4.329 2.775,7.992 6.549,9.435 -4.44,2.22 -7.992,6.549 -7.992,12.432 0,4.440002 1.665,7.659002 3.996,9.990002 5.439,5.439 13.875,6.549 21.312,6.549 7.881,0 17.205,-1.221 22.644,-6.549 2.664,-2.664 4.773,-6.438 4.773,-11.322002 z m -15.651,-45.954 c 0,7.104 -5.106,12.543 -12.765,12.543 -7.992,0 -12.765,-5.439 -12.765,-12.543 0,-7.104 5.106,-12.321 12.765,-12.321 7.992,0 12.765,5.217 12.765,12.321 z m 6.438,45.954 c 0,2.442 -0.888,4.329 -2.331,5.772002 -3.552,3.552 -10.545,3.996 -15.318,3.996 -4.884,0 -11.322,-0.222 -14.985,-3.885 -1.443,-1.443002 -2.331,-3.330002 -2.331,-5.883002 0,-4.329 3.33,-7.659 7.104,-8.88 h 10.212 c 7.104,0 17.649,-0.666 17.649,8.88 z"
       id="text6"
       style="font-size:111px;line-height:0.8;font-family:'Akkurat Pro';-inkscape-font-specification:'Akkurat Pro';text-align:center;letter-spacing:4px;text-anchor:middle;stroke-width:7.55906;stroke-linejoin:bevel;paint-order:markers stroke fill"
       aria-label="ag"
       sodipodi:nodetypes="scccccscscsccscscscscssscssssssssssscss" />
    <path
       d="m 149.22387,43.297145 h -14.97798 v -0.384051 q 0.86767,-0.839223 1.90603,-2.005599 1.03836,-1.166377 2.67413,-3.086631 0.75388,-0.867671 1.40819,-1.706893 0.66853,-0.839222 1.13793,-1.621548 0.46939,-0.79655 0.79655,-1.749565 0.32716,-0.953015 0.32716,-1.948702 0,-1.365515 -0.79656,-2.204737 -0.78233,-0.853446 -2.0056,-0.853446 -2.4181,0 -4.80775,2.503443 v -4.651283 q 0.83923,-0.540516 1.37974,-0.867671 0.54052,-0.327152 1.2375,-0.640085 0.71121,-0.312927 1.67845,-0.540516 0.96723,-0.227585 2.09094,-0.227585 1.80646,0 3.28577,0.739654 1.47931,0.725429 2.31853,2.119391 0.85344,1.379738 0.85344,3.228873 0,1.308617 -0.38405,2.446546 -0.38405,1.137928 -0.79655,1.834909 -0.4125,0.696981 -1.09525,1.721117 -1.22327,1.820685 -2.61725,3.470682 h 6.38663 z"
       id="path1"
       class="f-accent"
       style="stroke-width:0.999998" />
    <path
       d="m 63.859458,53.019295 h -5.4752 V 32.996529 h 5.4752 z"
       id="text1"
       class="f-accent"
       style="stroke-width:1" />
    <path
       d="m 151.22387,91.29715 h -14.97798 v -0.38406 q 0.86767,-0.83922 1.90603,-2.0056 1.03836,-1.166372 2.67413,-3.086626 0.75388,-0.867671 1.40819,-1.706893 0.66853,-0.839222 1.13793,-1.621548 0.46939,-0.79655 0.79655,-1.749565 0.32716,-0.953015 0.32716,-1.948702 0,-1.365515 -0.79656,-2.204737 -0.78233,-0.853446 -2.0056,-0.853446 -2.4181,0 -4.80775,2.503443 v -4.651283 q 0.83923,-0.540516 1.37974,-0.867671 0.54052,-0.327152 1.2375,-0.640085 0.71121,-0.312927 1.67845,-0.540516 0.96723,-0.227585 2.09094,-0.227585 1.80646,0 3.28577,0.739654 1.47931,0.725429 2.31853,2.119391 0.85344,1.379738 0.85344,3.228873 0,1.308617 -0.38405,2.446546 -0.38405,1.137928 -0.79655,1.834909 -0.4125,0.696981 -1.09525,1.721117 -1.22327,1.820685 -2.61725,3.470682 h 6.38663 z"
       id="path2"
       class="f-accent"
       style="stroke-width:0.999998" />
  </g>
</svg>
