<?xml version="1.0" encoding="UTF-8" standalone="no"?>
<!-- Created with Inkscape (http://www.inkscape.org/) -->

<svg
   width="26.458334mm"
   height="26.458334mm"
   viewBox="0 0 26.458334 26.458334"
   version="1.1"
   id="svg1"
   inkscape:version="1.3 (0e150ed, 2023-07-21)"
   sodipodi:docname="g-shape-both.svg"
   xmlns:inkscape="http://www.inkscape.org/namespaces/inkscape"
   xmlns:sodipodi="http://sodipodi.sourceforge.net/DTD/sodipodi-0.dtd"
   xmlns="http://www.w3.org/2000/svg"
   xmlns:svg="http://www.w3.org/2000/svg">
  <sodipodi:namedview
     id="namedview1"
     pagecolor="#ffffff"
     bordercolor="#000000"
     borderopacity="0.25"
     inkscape:showpageshadow="2"
     inkscape:pageopacity="0.0"
     inkscape:pagecheckerboard="0"
     inkscape:deskcolor="#d1d1d1"
     inkscape:document-units="mm"
     inkscape:zoom="2.7702942"
     inkscape:cx="86.452912"
     inkscape:cy="58.477544"
     inkscape:window-width="1248"
     inkscape:window-height="406"
     inkscape:window-x="0"
     inkscape:window-y="38"
     inkscape:window-maximized="0"
     inkscape:current-layer="layer1" />
  <defs
     id="defs1" />
  <g
     inkscape:label="Layer 1"
     inkscape:groupmode="layer"
     id="layer1">
    <path
       d="m 13.685167,7.680097 h -1.854903 q 0.979556,0.8545057 0.979556,2.0945811 0,0.6565109 -0.281362,1.2609169 -0.270941,0.604406 -0.812822,1.073343 -0.531461,0.468936 -1.323442,0.771139 -0.7815603,0.291782 -1.792378,0.354307 -1.3026002,0.0521 -1.3026002,0.698194 0,0.250099 0.1667329,0.364728 0.1667328,0.114629 0.52104,0.177153 0.3647281,0.0521 1.2192337,0.12505 0.9691346,0.08337 1.8027986,0.291782 0.833664,0.208416 1.552699,0.875348 0.719036,0.666931 0.719036,1.907006 0,0.989976 -0.541882,1.750695 -0.531461,0.760718 -1.729853,1.187971 -1.1983921,0.427253 -3.1679235,0.427253 -2.8344579,0 -4.1683204,-0.760718 -1.3234418,-0.760719 -1.3234418,-2.032057 0,-0.343886 0.1667328,-0.791981 0.1771537,-0.448094 0.7294561,-0.864926 0.5627233,-0.416832 1.625645,-0.562723 -0.3751489,-0.135471 -0.6460897,-0.52104 -0.2709408,-0.395991 -0.2709408,-0.823244 0,-0.552302 0.3751488,-1.094184 Q 4.7128572,13.04681 5.5673629,12.890498 4.3793915,12.577874 3.514465,11.712947 2.6495385,10.848021 2.6495385,9.4724748 q 0,-1.0420801 0.3959905,-1.8236402 Q 3.4519402,6.8672746 4.1605547,6.3774969 4.8691692,5.8877192 5.8070413,5.6584616 6.7449134,5.4187832 7.8599391,5.4187832 H 13.685167 Z M 9.5376881,9.4724748 q 0,-0.8024017 -0.5523025,-1.2817585 Q 8.443504,7.7009386 7.7661519,7.7009386 q -0.8649265,0 -1.365125,0.5835649 -0.4897776,0.5835649 -0.4897776,1.2296545 0,0.4480945 0.208416,0.833664 0.2188368,0.38557 0.6044065,0.625248 0.3959904,0.229258 0.9378721,0.229258 0.8128225,0 1.3442833,-0.510619 0.5314609,-0.51062 0.5314609,-1.2192342 z m 0.7502979,8.5346362 q 0,-0.698194 -0.7502979,-0.90661 -0.7398769,-0.197995 -1.5318578,-0.197995 -1.3026001,0 -1.886165,0.270941 -0.573144,0.281361 -0.573144,0.885768 0,1.187971 2.3967842,1.187971 1.0733425,0 1.7090114,-0.312624 0.6356691,-0.302203 0.6356691,-0.927451 z"
       id="text1"
       style="font-weight:bold;font-size:21.3418px;line-height:0.8;font-family:'Gill Sans';-inkscape-font-specification:'Gill Sans Bold';text-align:center;letter-spacing:5.69114px;text-anchor:middle;stroke-width:2;stroke-linejoin:bevel;paint-order:markers stroke fill"
       aria-label="g" />
    <path
       d="m 19.170035,14.274215 q -0.70428,0 -1.173799,-0.298785 -0.46952,-0.298786 -0.768305,-0.768305 -0.277443,-0.46952 -0.405494,-1.045749 -0.106709,-0.59757 -0.106709,-1.19514 0,-0.618913 0.128051,-1.1737994 0.149392,-0.5762286 0.448177,-1.0030646 0.320127,-0.4481778 0.768305,-0.7042795 0.46952,-0.2561016 1.109774,-0.2561016 0.746963,0 1.237824,0.2774434 0.490862,0.2774435 0.789647,0.7469631 0.298785,0.4695196 0.426836,1.0884318 0.128051,0.5975708 0.128051,1.2805078 0,0.597571 -0.170735,1.152457 -0.149392,0.533546 -0.469519,0.960382 -0.320127,0.426836 -0.810989,0.682937 -0.490861,0.256102 -1.131115,0.256102 z m 5.463501,1.89942 V 5.8442035 h -2.881143 v 1.4725842 h -0.04268 q -0.554887,-0.960381 -1.387217,-1.3658752 -0.810988,-0.4054942 -1.89942,-0.4054942 -1.152457,0 -2.048813,0.4481778 -0.875014,0.4481778 -1.472584,1.2164826 -0.597571,0.746963 -0.917698,1.7500277 -0.298785,0.9817228 -0.298785,2.0488126 0,1.131116 0.256102,2.155522 0.277443,1.003065 0.853672,1.77137 0.576228,0.746963 1.472584,1.19514 0.896356,0.426836 2.13418,0.426836 1.003065,0 1.89942,-0.405494 0.917698,-0.426836 1.408559,-1.30185 h 0.04268 v 1.451243 q 0.02134,1.173799 -0.576229,1.942104 -0.576229,0.768304 -1.856737,0.768304 -0.810988,0 -1.4299,-0.341468 -0.618912,-0.320127 -0.83233,-1.173799 h -3.009194 q 0.06403,0.939039 0.512203,1.600635 0.469519,0.682937 1.152457,1.109773 0.70428,0.426836 1.53661,0.618913 0.853672,0.213418 1.66466,0.213418 1.89942,0 3.030536,-0.512204 1.131115,-0.512203 1.728686,-1.259166 0.59757,-0.725621 0.768305,-1.579293 0.192076,-0.853672 0.192076,-1.515268 z"
       id="text2"
       style="font-weight:bold;font-size:21.3418px;line-height:0.8;font-family:'Helvetica Neue';-inkscape-font-specification:'Helvetica Neue Bold';text-align:center;letter-spacing:5.69114px;text-anchor:middle;stroke-width:2;stroke-linejoin:bevel;paint-order:markers stroke fill"
       aria-label="g" />
  </g>
</svg>
