<?xml version="1.0" encoding="UTF-8" standalone="no"?>
<!-- Created with Inkscape (http://www.inkscape.org/) -->

<svg
   width="26.458334mm"
   height="26.458334mm"
   viewBox="0 0 26.458334 26.458334"
   version="1.1"
   id="svg1"
   inkscape:version="1.3 (0e150ed, 2023-07-21)"
   sodipodi:docname="g-up-shape-helvetica.svg"
   xmlns:inkscape="http://www.inkscape.org/namespaces/inkscape"
   xmlns:sodipodi="http://sodipodi.sourceforge.net/DTD/sodipodi-0.dtd"
   xmlns="http://www.w3.org/2000/svg"
   xmlns:svg="http://www.w3.org/2000/svg">
  <sodipodi:namedview
     id="namedview1"
     pagecolor="#ffffff"
     bordercolor="#000000"
     borderopacity="0.25"
     inkscape:showpageshadow="2"
     inkscape:pageopacity="0.0"
     inkscape:pagecheckerboard="0"
     inkscape:deskcolor="#d1d1d1"
     inkscape:document-units="mm"
     inkscape:zoom="5.6891475"
     inkscape:cx="44.558521"
     inkscape:cy="54.75337"
     inkscape:window-width="1800"
     inkscape:window-height="1097"
     inkscape:window-x="0"
     inkscape:window-y="44"
     inkscape:window-maximized="1"
     inkscape:current-layer="layer1"
     showgrid="false" />
  <defs
     id="defs1">
    <rect
       x="42.133591"
       y="45.848281"
       width="16.552527"
       height="18.44821"
       id="rect3" />
  </defs>
  <g
     inkscape:label="Layer 1"
     inkscape:groupmode="layer"
     id="layer1">
    <text
       xml:space="preserve"
       transform="scale(0.26458333)"
       id="text3"
       style="font-style:normal;font-variant:normal;font-weight:normal;font-stretch:normal;font-size:15px;line-height:0.8;font-family:'Univers LT Std';-inkscape-font-specification:'Univers LT Std';text-align:center;letter-spacing:4px;white-space:pre;shape-inside:url(#rect3);display:inline;fill:#000000;stroke-width:7.55906;stroke-linejoin:bevel;paint-order:markers stroke fill" />
    <path
       d="m 19.646629,20.349382 0.66297,2.360149 h 1.59111 v -9.970958 h -8.300291 v 2.121481 h 6.046217 q 0.05278,1.299407 -0.344715,2.439702 -0.39777,1.113781 -1.193328,1.962373 -0.769037,0.822072 -1.90933,1.299403 -1.1403,0.477349 -2.625338,0.477349 -1.59111,0 -2.810959,-0.609918 Q 9.5696316,19.79252 8.7475593,18.758292 7.9254874,17.697553 7.5011912,16.345111 q -0.424296,-1.378962 -0.424296,-2.863999 0,-1.511555 0.3712422,-2.943554 Q 7.8193799,9.0790401 8.5884316,7.9652633 9.3839907,6.824967 10.603838,6.1354858 q 1.246375,-0.6894814 2.970073,-0.6894814 1.060741,0 1.988893,0.2651884 0.954667,0.2386682 1.697184,0.7425184 0.742517,0.5038498 1.246367,1.2994069 0.503877,0.7690365 0.689476,1.8562953 h 2.519265 Q 21.449887,7.9387235 20.707369,6.7719092 19.991371,5.5785771 18.90411,4.8095402 17.84337,4.0405037 16.46441,3.6957629 15.111967,3.3245071 13.57389,3.3245071 q -2.254067,0 -3.9512511,0.8485923 Q 7.9519675,4.9951735 6.8116733,6.4006534 5.6978993,7.8061349 5.114489,9.6889482 4.5576254,11.545243 4.5576254,13.613687 q 0,1.856296 0.6099174,3.58 0.6099172,1.7237 1.776738,3.049622 1.1668144,1.325929 2.8374782,2.121488 1.670665,0.769031 3.792145,0.769031 1.670671,0 3.314816,-0.636445 1.644147,-0.662971 2.757922,-2.148001 z"
       id="text1"
       style="font-size:3.96875px;line-height:0.8;font-family:'Helvetica Neue';-inkscape-font-specification:'Helvetica Neue';text-align:center;letter-spacing:1.05833px;text-anchor:middle;stroke-width:2;stroke-linejoin:bevel;paint-order:markers stroke fill"
       aria-label="G" />
  </g>
</svg>
