<?xml version="1.0" encoding="UTF-8" standalone="no"?>
<!-- Created with Inkscape (http://www.inkscape.org/) -->

<svg
   width="26.458334mm"
   height="26.458334mm"
   viewBox="0 0 26.458334 26.458334"
   version="1.1"
   id="svg1"
   inkscape:version="1.3 (0e150ed, 2023-07-21)"
   sodipodi:docname="g-up-shape.svg"
   xmlns:inkscape="http://www.inkscape.org/namespaces/inkscape"
   xmlns:sodipodi="http://sodipodi.sourceforge.net/DTD/sodipodi-0.dtd"
   xmlns="http://www.w3.org/2000/svg"
   xmlns:svg="http://www.w3.org/2000/svg">
  <sodipodi:namedview
     id="namedview1"
     pagecolor="#ffffff"
     bordercolor="#000000"
     borderopacity="0.25"
     inkscape:showpageshadow="2"
     inkscape:pageopacity="0.0"
     inkscape:pagecheckerboard="0"
     inkscape:deskcolor="#d1d1d1"
     inkscape:document-units="mm"
     inkscape:zoom="5.6891475"
     inkscape:cx="44.558521"
     inkscape:cy="54.75337"
     inkscape:window-width="1800"
     inkscape:window-height="1097"
     inkscape:window-x="0"
     inkscape:window-y="44"
     inkscape:window-maximized="1"
     inkscape:current-layer="layer1"
     showgrid="false" />
  <defs
     id="defs1">
    <rect
       x="42.133591"
       y="45.848281"
       width="16.552527"
       height="18.44821"
       id="rect3" />
  </defs>
  <g
     inkscape:label="Layer 1"
     inkscape:groupmode="layer"
     id="layer1">
    <text
       xml:space="preserve"
       transform="scale(0.26458333)"
       id="text3"
       style="font-style:normal;font-variant:normal;font-weight:normal;font-stretch:normal;font-size:15px;line-height:0.8;font-family:'Univers LT Std';-inkscape-font-specification:'Univers LT Std';text-align:center;letter-spacing:4px;white-space:pre;shape-inside:url(#rect3);display:inline;fill:#000000;stroke-width:7.55906;stroke-linejoin:bevel;paint-order:markers stroke fill" />
    <path
       d="m 11.346999,17.12669 0.48519,1.727259 h 1.164443 V 11.556772 H 6.9221209 v 1.552591 h 4.4248821 q 0.03863,0.950962 -0.252277,1.785479 -0.291105,0.815113 -0.873329,1.436149 -0.5628139,0.601628 -1.3973303,0.950959 -0.8345212,0.349345 -1.9213349,0.349345 -1.1644431,0 -2.0571805,-0.446364 Q 3.9722178,16.719154 3.37059,15.962262 2.7689623,15.185967 2.4584441,14.196192 2.147926,13.187008 2.147926,12.100194 q 0,-1.106221 0.2716911,-2.1542198 0.2716912,-1.0674061 0.8345164,-1.8825161 0.582224,-0.834518 1.4749613,-1.33911 0.9121508,-0.5045923 2.1736273,-0.5045923 0.7762954,0 1.4555576,0.1940763 0.6986659,0.1746677 1.2420727,0.543407 0.5434056,0.368739 0.9121446,0.950962 0.368759,0.562814 0.504589,1.3585171 h 1.843706 Q 12.666701,8.0440351 12.123294,7.1901101 11.599296,6.3167783 10.803592,5.7539639 10.027296,5.1911499 9.0181137,4.9388537 8.0283382,4.6671527 6.9027074,4.6671527 q -1.6496241,0 -2.8916969,0.6210364 -1.2226689,0.6016292 -2.0571853,1.63022 -0.8151078,1.028592 -1.24207257,2.4065161 -0.4075368,1.3585168 -0.4075368,2.8722928 0,1.358517 0.4463638,2.619998 0.44636367,1.261478 1.30029347,2.231845 0.853925,0.970372 2.0765891,1.552596 1.2226641,0.56281 2.775255,0.56281 1.222669,0 2.4259244,-0.465777 1.2032584,-0.485191 2.0183664,-1.572 z"
       id="text1"
       style="font-size:3.96875px;line-height:0.8;font-family:'Helvetica Neue';-inkscape-font-specification:'Helvetica Neue';text-align:center;letter-spacing:1.05833px;text-anchor:middle;stroke-width:2;stroke-linejoin:bevel;paint-order:markers stroke fill"
       aria-label="G" />
    <path
       d="m 25.964992,8.3177515 c -0.03863,-0.543406 -0.09702,-1.358517 -0.931555,-2.2318493 -1.33911,-1.358517 -3.027552,-1.4943684 -4.133774,-1.4943684 -0.698666,0 -2.522958,0.058221 -3.900881,0.9897764 -2.658813,1.7854793 -3.008148,5.0847348 -3.008148,6.4820668 0,1.979553 0.582224,3.939701 1.960147,5.337033 0.989775,1.009184 2.503554,1.746662 5.084737,1.746662 2.387108,0 4.172587,-0.582219 4.987695,-0.853925 v -6.909029 h -5.142954 v 1.610813 h 3.202215 v 4.153182 c -0.446363,0.135845 -1.455552,0.446363 -3.046956,0.446363 -1.397331,0 -2.814072,-0.329931 -3.726218,-1.377923 -1.028592,-1.222664 -1.28089,-3.221627 -1.28089,-4.405477 0,-1.319702 0.271692,-3.1439964 1.49437,-4.5025134 0.737479,-0.8345174 1.843701,-1.1838504 3.163403,-1.1838504 1.901926,0 2.949923,0.8927394 3.163403,2.1930344 z"
       id="text1-2"
       style="font-size:3.96875px;line-height:0.8;font-family:'Univers LT Std';-inkscape-font-specification:'Univers LT Std';text-align:center;letter-spacing:1.05833px;text-anchor:middle;stroke-width:2;stroke-linejoin:bevel;paint-order:markers stroke fill"
       aria-label="G" />
  </g>
</svg>
