<?xml version="1.0" encoding="UTF-8" standalone="no"?>
<!-- Created with Inkscape (http://www.inkscape.org/) -->

<svg
   width="26.458334mm"
   height="26.458334mm"
   viewBox="0 0 26.458334 26.458334"
   version="1.1"
   id="svg1"
   inkscape:version="1.3 (0e150ed, 2023-07-21)"
   sodipodi:docname="g-up-shape-univers.svg"
   xmlns:inkscape="http://www.inkscape.org/namespaces/inkscape"
   xmlns:sodipodi="http://sodipodi.sourceforge.net/DTD/sodipodi-0.dtd"
   xmlns="http://www.w3.org/2000/svg"
   xmlns:svg="http://www.w3.org/2000/svg">
  <sodipodi:namedview
     id="namedview1"
     pagecolor="#ffffff"
     bordercolor="#000000"
     borderopacity="0.25"
     inkscape:showpageshadow="2"
     inkscape:pageopacity="0.0"
     inkscape:pagecheckerboard="0"
     inkscape:deskcolor="#d1d1d1"
     inkscape:document-units="mm"
     inkscape:zoom="5.6891475"
     inkscape:cx="44.558521"
     inkscape:cy="54.75337"
     inkscape:window-width="1800"
     inkscape:window-height="1097"
     inkscape:window-x="0"
     inkscape:window-y="44"
     inkscape:window-maximized="1"
     inkscape:current-layer="layer1"
     showgrid="false" />
  <defs
     id="defs1">
    <rect
       x="42.133591"
       y="45.848281"
       width="16.552527"
       height="18.44821"
       id="rect3" />
  </defs>
  <g
     inkscape:label="Layer 1"
     inkscape:groupmode="layer"
     id="layer1">
    <text
       xml:space="preserve"
       transform="scale(0.26458333)"
       id="text3"
       style="font-style:normal;font-variant:normal;font-weight:normal;font-stretch:normal;font-size:15px;line-height:0.8;font-family:'Univers LT Std';-inkscape-font-specification:'Univers LT Std';text-align:center;letter-spacing:4px;white-space:pre;shape-inside:url(#rect3);display:inline;fill:#000000;stroke-width:7.55906;stroke-linejoin:bevel;paint-order:markers stroke fill" />
    <path
       d="M 21.585864,8.2478146 C 21.531682,7.4856415 21.449785,6.342379 20.279279,5.1174562 18.401063,3.2120207 16.03288,3.0214775 14.48131,3.0214775 c -0.979939,0 -3.538663,0.08166 -5.4713176,1.3882456 -3.7292105,2.5042864 -4.2191825,7.1317729 -4.2191825,9.0916499 0,2.776491 0.8166186,5.525765 2.7492728,7.485642 1.3882428,1.415466 3.5114463,2.449842 7.1317753,2.449842 3.348122,0 5.852408,-0.816612 6.995666,-1.197702 v -9.690501 h -7.21343 v 2.259302 h 4.491379 v 5.825191 c -0.626062,0.190534 -2.041536,0.626062 -4.273615,0.626062 -1.959876,0 -3.946975,-0.462756 -5.2263377,-1.932654 -1.442687,-1.71489 -1.7965564,-4.518606 -1.7965564,-6.179056 0,-1.850994 0.3810712,-4.4097216 2.0959803,-6.3151576 1.0343768,-1.1704816 2.5859478,-1.6604509 4.4369418,-1.6604509 2.667613,0 4.137518,1.2521429 4.436941,3.0759172 z"
       id="text1-2"
       style="font-size:3.96875px;line-height:0.8;font-family:'Univers LT Std';-inkscape-font-specification:'Univers LT Std';text-align:center;letter-spacing:1.05833px;text-anchor:middle;stroke-width:2;stroke-linejoin:bevel;paint-order:markers stroke fill"
       aria-label="G" />
  </g>
</svg>
