<?xml version="1.0" encoding="UTF-8" standalone="no"?>
<!-- Created with Inkscape (http://www.inkscape.org/) -->

<svg
   width="26.458334mm"
   height="26.458334mm"
   viewBox="0 0 26.458334 26.458334"
   version="1.1"
   id="svg1"
   inkscape:version="1.3 (0e150ed, 2023-07-21)"
   sodipodi:docname="g-up-shape-other.svg"
   xmlns:inkscape="http://www.inkscape.org/namespaces/inkscape"
   xmlns:sodipodi="http://sodipodi.sourceforge.net/DTD/sodipodi-0.dtd"
   xmlns="http://www.w3.org/2000/svg"
   xmlns:svg="http://www.w3.org/2000/svg">
  <sodipodi:namedview
     id="namedview1"
     pagecolor="#ffffff"
     bordercolor="#000000"
     borderopacity="0.25"
     inkscape:showpageshadow="2"
     inkscape:pageopacity="0.0"
     inkscape:pagecheckerboard="0"
     inkscape:deskcolor="#d1d1d1"
     inkscape:document-units="mm"
     inkscape:zoom="5.6891475"
     inkscape:cx="44.558521"
     inkscape:cy="54.75337"
     inkscape:window-width="1800"
     inkscape:window-height="1097"
     inkscape:window-x="0"
     inkscape:window-y="44"
     inkscape:window-maximized="1"
     inkscape:current-layer="layer1"
     showgrid="false" />
  <defs
     id="defs1">
    <rect
       x="42.133591"
       y="45.848281"
       width="16.552527"
       height="18.44821"
       id="rect3" />
  </defs>
  <g
     inkscape:label="Layer 1"
     inkscape:groupmode="layer"
     id="layer1">
    <text
       xml:space="preserve"
       transform="scale(0.26458333)"
       id="text3"
       style="font-style:normal;font-variant:normal;font-weight:normal;font-stretch:normal;font-size:15px;line-height:0.8;font-family:'Univers LT Std';-inkscape-font-specification:'Univers LT Std';text-align:center;letter-spacing:4px;white-space:pre;shape-inside:url(#rect3);display:inline;fill:#000000;stroke-width:7.55906;stroke-linejoin:bevel;paint-order:markers stroke fill" />
    <path
       d="m 12.82015,13.186429 q -0.02152,0.769587 -0.04302,1.806392 -0.02152,1.026122 -0.02152,1.69951 0,1.079564 0.02152,2.415654 0.02152,1.3254 0.02152,1.47504 -0.09619,0.01052 -0.641324,0.04302 -0.545118,0.04302 -1.05818,0.04302 -2.5439162,0 -4.499956,-0.545119 Q 4.6538281,19.578834 3.2215389,18.22136 2.334374,17.387637 1.7892499,16.158437 1.2548316,14.918542 1.2548316,13.33661 q 0,-1.945344 1.0261171,-3.4738336 1.0368064,-1.539178 2.8431992,-2.479785 1.2292059,-0.641323 2.7897631,-0.961986 1.5712408,-0.3313297 3.27075,-0.3313297 0.267237,0 0.491672,0.01052 0.235135,0 0.416878,0 l 0.128293,1.5391787 q -0.04302,0 -0.342031,0 -0.299283,-0.01052 -0.48097,-0.01052 -1.6353778,0 -2.9928463,0.277938 -1.3574684,0.277881 -2.3728959,0.812337 -1.3788473,0.726835 -2.1698127,1.9774206 -0.7802758,1.250585 -0.7802758,2.661495 0,1.78502 0.8123443,2.960778 0.8230336,1.165069 2.1163652,1.827772 1.1543851,0.587881 2.4370328,0.833722 1.293337,0.235136 2.6614954,0.235136 0,-0.171043 -0.01052,-1.656757 -0.01052,-1.49642 -0.04302,-4.371688 z"
       id="text1"
       style="font-size:3.96875px;line-height:0.8;font-family:Skia;-inkscape-font-specification:Skia;text-align:center;letter-spacing:1.05833px;text-anchor:middle;stroke-width:2;stroke-linejoin:bevel;paint-order:markers stroke fill"
       aria-label="G" />
    <path
       d="m 22.51297,7.0959734 q -0.744275,-0.153226 -1.816912,-0.153226 -0.919403,0 -1.773133,0.328351 -0.831837,0.306453 -1.488555,1.050744 -0.634827,0.744275 -1.028853,1.9482516 -0.372145,1.203984 -0.372145,2.977111 0,3.239796 1.182091,4.772134 1.203977,1.532334 3.458698,1.532334 1.400993,0 2.386068,-0.547269 v -4.268655 h -3.152235 v -1.466663 h 4.706459 v 6.742278 q -0.350247,0.262714 -0.853729,0.481578 -0.481576,0.218919 -1.050745,0.372146 -0.547269,0.153226 -1.160198,0.218919 -0.591042,0.08753 -1.160199,0.08753 -1.466662,0 -2.62686,-0.459679 -1.160194,-0.481578 -1.970144,-1.444772 -0.80995,-0.985075 -1.247762,-2.473629 -0.437837,-1.510448 -0.437837,-3.546267 0,-2.123375 0.547269,-3.6338226 0.54727,-1.510447 1.444772,-2.451737 0.897512,-0.9631827 2.057711,-1.4009947 1.160198,-0.437837 2.386068,-0.437837 1.31343,0 2.167159,0.153227 0.853729,0.131334 1.444772,0.372146 l -0.02206,0.08753 v 3.6557147 h -1.619901 z"
       id="text1-3"
       style="font-size:3.96875px;line-height:0.8;font-family:'PT Mono';-inkscape-font-specification:'PT Mono';text-align:center;letter-spacing:1.05833px;text-anchor:middle;stroke-width:2;stroke-linejoin:bevel;paint-order:markers stroke fill"
       aria-label="G" />
  </g>
</svg>
