<?xml version="1.0" encoding="UTF-8" standalone="no"?>
<!-- Created with Inkscape (http://www.inkscape.org/) -->

<svg
   width="26.458334mm"
   height="26.458334mm"
   viewBox="0 0 26.458334 26.458334"
   version="1.1"
   id="svg1"
   inkscape:version="1.3 (0e150ed, 2023-07-21)"
   sodipodi:docname="italic.svg"
   xmlns:inkscape="http://www.inkscape.org/namespaces/inkscape"
   xmlns:sodipodi="http://sodipodi.sourceforge.net/DTD/sodipodi-0.dtd"
   xmlns="http://www.w3.org/2000/svg"
   xmlns:svg="http://www.w3.org/2000/svg">
  <sodipodi:namedview
     id="namedview1"
     pagecolor="#ffffff"
     bordercolor="#000000"
     borderopacity="0.25"
     inkscape:showpageshadow="2"
     inkscape:pageopacity="0.0"
     inkscape:pagecheckerboard="0"
     inkscape:deskcolor="#d1d1d1"
     inkscape:document-units="mm"
     inkscape:zoom="2.5738286"
     inkscape:cx="89.555303"
     inkscape:cy="22.728786"
     inkscape:window-width="1800"
     inkscape:window-height="1097"
     inkscape:window-x="0"
     inkscape:window-y="44"
     inkscape:window-maximized="1"
     inkscape:current-layer="layer1" />
  <defs
     id="defs1" />
  <g
     inkscape:label="Layer 1"
     inkscape:groupmode="layer"
     id="layer1">
    <path
       d="m 12.610067,4.8098258 q 0,0.659778 -0.473319,1.133097 -0.473319,0.473319 -1.133097,0.473319 -0.688464,0 -1.1617834,-0.473319 -0.473319,-0.473319 -0.473319,-1.133097 0,-0.674121 0.473319,-1.1474401 0.4733194,-0.487662 1.1617834,-0.487662 0.659778,0 1.133097,0.487662 0.473319,0.4733191 0.473319,1.1474401 z m -1.692474,6.5834372 q 0,0.889266 -0.602406,2.122764 l -3.1267744,6.339606 q -0.4876621,0.975324 -0.4876621,1.405614 0,0.344232 0.229488,0.344232 0.4733191,0 1.9506481,-1.706817 0.688464,-0.817551 0.803208,-0.817551 0.186459,0 0.315546,0.172116 0.1434304,0.157773 0.1434304,0.315546 0,0.200802 -1.1187544,1.376928 -1.104411,1.161783 -2.0940781,1.835904 -0.975324,0.659778 -1.635102,0.659778 -1.376928,0 -1.376928,-1.262184 0,-0.731493 0.631092,-2.094078 l 3.1267741,-6.31092 q 0.487662,-0.975324 0.487662,-1.462986 0,-0.28686 -0.258174,-0.28686 -0.487662,0 -2.0367061,1.792875 -0.631092,0.731493 -0.71715,0.731493 -0.186459,0 -0.315546,-0.14343 -0.114744,-0.157773 -0.114744,-0.344232 0,-0.215145 1.090068,-1.376928 1.104411,-1.161783 2.0940781,-1.821561 0.989667,-0.674121 1.663788,-0.674121 1.3482424,0 1.3482424,1.204812 z m 12.607499,-0.946638 -4.073413,9.409008 q -0.43029,0.975324 -0.43029,1.405614 0,0.344232 0.28686,0.344232 0.415947,0 1.864591,-1.735503 0.659778,-0.788865 0.745836,-0.788865 0.172116,0 0.315546,0.172116 0.14343,0.157773 0.14343,0.315546 0,0.200802 -1.047039,1.376928 -1.04704,1.176126 -1.993678,1.835904 -0.932295,0.659778 -1.57773,0.659778 -1.4343,0 -1.4343,-1.348242 0,-1.262184 1.204812,-3.499692 -1.047039,1.950648 -2.796885,3.399291 -1.735503,1.448643 -3.026373,1.448643 -0.731493,0 -1.161783,-0.559377 -0.415947,-0.559377 -0.415947,-1.534701 0,-1.878933 1.57773,-4.3029 1.57773,-2.43831 3.87261,-4.259871 2.29488,-1.821561 3.843924,-1.821561 0.760179,0 1.233499,0.315546 l 0.344232,-0.831894 q 0.215145,-0.4876621 1.491672,-0.4876621 1.047039,0 1.047039,0.4016041 z m -3.557065,2.266194 q 0,-0.86058 -0.631092,-0.86058 -1.219155,0 -2.796885,1.362585 -1.57773,1.348242 -2.768199,3.327576 -1.176126,1.979334 -1.176126,3.284547 0,0.774522 0.243831,1.104411 0.243831,0.329889 0.817551,0.329889 0.731493,0 2.251851,-1.663788 1.534701,-1.678131 2.796885,-3.800895 1.262184,-2.122764 1.262184,-3.083745 z"
       id="text1"
       aria-label="ia" />
  </g>
</svg>
