<?xml version="1.0" encoding="UTF-8" standalone="no"?>
<svg
   width="200"
   height="100"
   viewBox="0 0 200 100"
   version="1.1"
   id="svg1"
   sodipodi:docname="ital.svg"
   inkscape:version="1.3 (0e150ed, 2023-07-21)"
   xmlns:inkscape="http://www.inkscape.org/namespaces/inkscape"
   xmlns:sodipodi="http://sodipodi.sourceforge.net/DTD/sodipodi-0.dtd"
   xmlns="http://www.w3.org/2000/svg"
   xmlns:svg="http://www.w3.org/2000/svg">
  <defs
     id="defs1" />
  <sodipodi:namedview
     id="namedview1"
     pagecolor="#ffffff"
     bordercolor="#000000"
     borderopacity="0.25"
     inkscape:showpageshadow="2"
     inkscape:pageopacity="0.0"
     inkscape:pagecheckerboard="0"
     inkscape:deskcolor="#d1d1d1"
     inkscape:zoom="1.3820817"
     inkscape:cx="-19.897522"
     inkscape:cy="33.283127"
     inkscape:window-width="1800"
     inkscape:window-height="634"
     inkscape:window-x="0"
     inkscape:window-y="44"
     inkscape:window-maximized="0"
     inkscape:current-layer="svg1"
     showgrid="false" />
  <path
     d="m 70.822551,61.473716 q -14.208,0 -18.981,1.554 -4.773,1.443 -6.66,3.552 -1.887,1.998 -1.887,5.994 0,7.659 11.655,7.659 6.216,0 10.989,-4.329 4.884,-4.551 4.884,-12.21 z m 0.444,16.872 q -6.771,10.212 -19.869,10.212 -12.876,0 -16.983,-7.992 -1.554,-3.219 -1.554,-8.88 0,-5.661 2.775,-9.324 2.775,-3.774 7.77,-5.772 7.992,-3.219 27.417,-3.219 v -5.217 q 0,-4.329 -1.554,-6.216 -3.441,-3.996 -11.433,-3.996 -7.77,0 -10.878,3.774 -1.776,2.22 -1.776,5.106 v 1.332 h -10.212 q -0.222,-1.11 -0.222,-3.663 0,-2.442 1.776,-5.439 1.776,-2.997 4.884,-5.106 6.66,-4.329 16.65,-4.329 h 0.999 q 11.322,0 16.761,4.551 5.439,4.44 5.439,12.765 v 29.415 q 0,2.109 0.888,2.997 0.999,0.888 2.22,0.888 2.664,0 5.106,-1.554 v 7.659 q -3.663,2.22 -8.547,2.22 -4.995,0 -7.215,-2.886 -2.22,-2.886 -2.442,-7.326 z"
     id="text1"
     style="font-size:111px;line-height:0.8;font-family:Chivo;-inkscape-font-specification:Chivo;text-align:center;letter-spacing:4px;text-anchor:middle;stroke-width:7.55906;stroke-linejoin:bevel;paint-order:markers stroke fill"
     aria-label="a" />
  <path
     d="m 108.23669,66.357716 q 0,-17.205 7.659,-26.973 7.77,-9.768 19.092,-9.768 11.433,0 15.984,8.325 h 0.777 l 3.441,-7.215 h 7.215 q -1.776,10.989 -4.107,28.638 -2.331,17.649 -2.331,17.871 0,2.997 2.664,2.997 2.775,0 5.217,-1.554 l -0.999,7.659 q -3.552,2.22 -8.547,2.22 -8.436,0 -8.436,-8.325 -7.659,8.325 -18.315,8.325 -8.769,0 -14.097,-5.55 -5.217,-5.661 -5.217,-16.65 z m 10.323,-1.332 q 0,8.658 3.108,11.988 3.108,3.219 8.991,3.219 8.88,0 13.431,-7.881 4.551,-7.881 4.551,-20.202 0,-14.208 -12.099,-14.208 -5.106,0 -8.88,2.775 -3.774,2.664 -5.661,7.104 -3.441,8.436 -3.441,17.205 z"
     id="text8"
     style="font-style:italic;font-size:111px;line-height:0.8;font-family:Chivo;-inkscape-font-specification:'Chivo Italic';text-align:center;letter-spacing:4px;text-anchor:middle;stroke-width:7.55906;stroke-linejoin:bevel;paint-order:markers stroke fill"
     aria-label="a" />
</svg>
