<?xml version="1.0" encoding="UTF-8" standalone="no"?>
<!-- Created with Inkscape (http://www.inkscape.org/) -->

<svg
   width="200"
   height="100"
   viewBox="0 0 200 100"
   version="1.1"
   id="svg1"
   inkscape:version="1.3 (0e150ed, 2023-07-21)"
   sodipodi:docname="Kk-shape.svg"
   xmlns:inkscape="http://www.inkscape.org/namespaces/inkscape"
   xmlns:sodipodi="http://sodipodi.sourceforge.net/DTD/sodipodi-0.dtd"
   xmlns="http://www.w3.org/2000/svg"
   xmlns:svg="http://www.w3.org/2000/svg">
  <sodipodi:namedview
     id="namedview1"
     pagecolor="#ffffff"
     bordercolor="#000000"
     borderopacity="0.25"
     inkscape:showpageshadow="2"
     inkscape:pageopacity="0.0"
     inkscape:pagecheckerboard="0"
     inkscape:deskcolor="#d1d1d1"
     inkscape:document-units="px"
     inkscape:zoom="7.4691418"
     inkscape:cx="152.8288"
     inkscape:cy="63.126395"
     inkscape:window-width="1800"
     inkscape:window-height="1097"
     inkscape:window-x="0"
     inkscape:window-y="44"
     inkscape:window-maximized="1"
     inkscape:current-layer="layer1" />
  <defs
     id="defs1" />
  <g
     inkscape:label="Layer 1"
     inkscape:groupmode="layer"
     id="layer1"
     transform="translate(-2.7359723,-5.7029302)">
    <path
       d="M 24.79395,15.702867 V 95.702995 H 35.438224 V 67.691746 L 48.771579,55.254751 77.679189,95.702995 H 91.124588 L 56.054504,47.971826 89.780048,15.702867 H 75.998514 L 35.438224,55.590886 V 15.702867 Z"
       id="text1"
       style="font-size:112.045px;line-height:0.8;font-family:'Helvetica Neue';-inkscape-font-specification:'Helvetica Neue';text-align:center;letter-spacing:29.8786px;text-anchor:middle;stroke-width:7.55907;stroke-linejoin:bevel;paint-order:markers stroke fill"
       aria-label="K" />
    <path
       d="m 127.58649,95.70293 h 10.96953 V 53.265256 l 36.8975,42.437674 h 15.51247 L 151.2984,51.492399 187.08787,15.70293 H 171.90781 L 138.55602,50.716779 V 15.70293 h -10.96953 z"
       id="text2"
       style="font-size:20.8483px;line-height:0.8;font-family:'Univers LT Std';-inkscape-font-specification:'Univers LT Std';text-align:center;letter-spacing:5.5595px;text-anchor:middle;stroke-width:2.00001;stroke-linejoin:bevel;paint-order:markers stroke fill"
       aria-label="K" />
    <path
       d="m 42.917969,25.576172 c -16.45973,0 -29.884766,13.425036 -29.884766,29.884765 0,16.45973 13.425036,29.882813 29.884766,29.882813 16.45973,0 29.882812,-13.423083 29.882812,-29.882813 0,-16.459729 -13.423082,-29.884765 -29.882812,-29.884765 z m 0,7.558594 c 12.374547,0 22.324218,9.951624 22.324218,22.326171 0,12.374548 -9.949671,22.324219 -22.324218,22.324219 -12.374547,0 -22.326172,-9.949671 -22.326172,-22.324219 0,-12.374547 9.951625,-22.326171 22.326172,-22.326171 z"
       id="path1"
       class="f-accent" />
    <path
       d="m 140.55602,27.314805 c -13.22853,0 -24.01811,10.789573 -24.01811,24.0181 0,13.228528 10.78958,24.016532 24.01811,24.016532 13.22853,0 24.01653,-10.788004 24.01653,-24.016532 0,-13.228527 -10.788,-24.0181 -24.01653,-24.0181 z m 0,6.07477 c 9.9453,0 17.94176,7.998025 17.94176,17.94333 0,9.945306 -7.99646,17.941762 -17.94176,17.941762 -9.94531,0 -17.94333,-7.996456 -17.94333,-17.941762 0,-9.945305 7.99802,-17.94333 17.94333,-17.94333 z"
       id="path2"
       class="f-accent" />
  </g>
</svg>
