<?xml version="1.0" encoding="UTF-8" standalone="no"?>
            <svg
               xmlns="http://www.w3.org/2000/svg"
               xmlns:svg="http://www.w3.org/2000/svg"
               width="100"
               height="100"
               version="1.1"
               id="svg1"
               viewBox="0 0 100 100"
               >
               <path fill="black" d="M49.82 75.53L48.05 76.05Q45.70 69.43 43.35 62.82Q41.00 56.21 38.65 49.63Q36.30 43.06 33.95 36.44L33.95 36.44L33.58 36.44Q33.58 36.44 33.39 38.68Q33.21 40.93 32.92 44.49Q32.62 48.05 32.26 52.09Q31.89 56.14 31.59 59.85Q31.30 63.56 31.12 66.09Q30.93 68.63 30.93 69.14L30.93 69.14Q30.93 71.42 33.21 71.42L33.21 71.42Q33.80 71.42 35.01 71.38Q36.22 71.34 36.22 71.34L36.22 71.34L36.37 71.64L35.71 74.94Q35.71 74.94 34.42 74.87Q33.14 74.80 31.48 74.72Q29.83 74.65 28.58 74.65L28.58 74.65Q27.48 74.65 26.38 74.72Q25.28 74.80 24.32 74.94Q23.37 75.09 22.81 75.17Q22.26 75.24 22.26 75.24L22.26 75.24L22.63 71.86Q24.98 71.57 26.01 70.35Q27.04 69.14 27.33 66.20L27.33 66.20Q27.48 64.88 27.77 62.20Q28.07 59.52 28.43 56.10Q28.80 52.68 29.13 49.16Q29.46 45.63 29.79 42.47Q30.12 39.31 30.31 37.14Q30.49 34.97 30.49 34.46L30.49 34.46Q30.49 33.14 29.83 32.33Q29.17 31.52 27.77 31.04Q26.38 30.57 24.17 30.42L24.17 30.42L23.95 30.05L24.54 27.48Q24.54 27.48 26.05 27.55Q27.55 27.63 29.46 27.74Q31.37 27.85 32.55 27.85L32.55 27.85Q33.65 27.85 34.79 27.77Q35.93 27.70 36.74 27.63Q37.55 27.55 37.55 27.55L37.55 27.55Q40.04 35.56 42.29 42.25Q44.53 48.93 46.25 53.78Q47.98 58.63 48.97 61.32Q49.96 64.00 49.96 64.00L49.96 64.00L50.33 64.00Q50.33 64.00 51.32 61.32Q52.31 58.63 54.08 53.75Q55.84 48.86 58.12 42.25Q60.40 35.64 63.04 27.70L63.04 27.70Q63.04 27.63 63.96 27.70Q64.88 27.77 66.02 27.81Q67.16 27.85 67.89 27.85L67.89 27.85Q68.99 27.85 70.90 27.74Q72.81 27.63 74.32 27.52Q75.83 27.41 75.83 27.41L75.83 27.41L75.97 27.70L75.61 30.42Q72.45 30.79 71.12 31.70Q69.80 32.62 69.80 34.46L69.80 34.46Q69.80 35.12 69.91 37.40Q70.02 39.68 70.24 42.98Q70.46 46.29 70.72 50.07Q70.98 53.86 71.23 57.60Q71.49 61.35 71.71 64.44L71.71 64.44Q72.23 68.70 72.89 70.06Q73.55 71.42 75.31 71.42L75.31 71.42Q75.97 71.42 76.67 71.34Q77.37 71.27 77.37 71.27L77.37 71.27L77.52 71.57L76.86 74.87Q76.86 74.87 75.68 74.80Q74.50 74.72 72.85 74.69Q71.20 74.65 69.88 74.65L69.88 74.65Q68.70 74.65 67.38 74.72Q66.05 74.80 64.88 74.94Q63.70 75.09 62.97 75.17Q62.23 75.24 62.23 75.24L62.23 75.24L62.53 71.86Q64.81 71.57 65.83 70.68Q66.86 69.80 66.86 68.19L66.86 68.19Q66.86 67.52 66.68 64.99Q66.50 62.45 66.20 58.85Q65.91 55.25 65.61 51.36Q65.32 47.47 65.03 44.09Q64.73 40.71 64.55 38.57Q64.36 36.44 64.36 36.44L64.36 36.44L64.00 36.44Q62.23 41.29 60.47 46.18Q58.71 51.07 56.91 55.99Q55.11 60.91 53.34 65.80Q51.58 70.68 49.82 75.53L49.82 75.53Z"/>
               </svg>