<?xml version="1.0" encoding="UTF-8" standalone="no"?>
            <svg
               xmlns="http://www.w3.org/2000/svg"
               xmlns:svg="http://www.w3.org/2000/svg"
               width="200"
               height="100"
               version="1.1"
               id="svg1"
               viewBox="0 0 200 100"
               >
               <path d="M56.40 68.16L79.77 14.15L92.84 14.15L92.84 93.13L79.77 93.13L79.77 38.80L62.08 82.74L50.72 82.74L32.93 38.80L32.93 93.13L19.86 93.13L19.86 14.15L32.93 14.15L56.40 68.16Z"/><path d="M146.09 85.82L143.62 86.54Q140.32 77.26 137.02 67.99Q133.72 58.71 130.42 49.48Q127.13 40.26 123.83 30.98L123.83 30.98L123.31 30.98Q123.31 30.98 123.06 34.13Q122.80 37.27 122.39 42.27Q121.97 47.27 121.46 52.94Q120.94 58.61 120.53 63.81Q120.12 69.02 119.86 72.57Q119.60 76.13 119.60 76.85L119.60 76.85Q119.60 80.05 122.80 80.05L122.80 80.05Q123.62 80.05 125.32 79.99Q127.02 79.94 127.02 79.94L127.02 79.94L127.23 80.35L126.30 84.99Q126.30 84.99 124.50 84.89Q122.69 84.79 120.38 84.68Q118.06 84.58 116.30 84.58L116.30 84.58Q114.76 84.58 113.21 84.68Q111.67 84.79 110.33 84.99Q108.99 85.20 108.21 85.30Q107.44 85.41 107.44 85.41L107.44 85.41L107.96 80.66Q111.25 80.25 112.70 78.55Q114.14 76.85 114.55 72.73L114.55 72.73Q114.76 70.87 115.17 67.11Q115.58 63.35 116.10 58.55Q116.61 53.76 117.08 48.81Q117.54 43.87 118.00 39.44Q118.47 35.00 118.73 31.96Q118.98 28.92 118.98 28.20L118.98 28.20Q118.98 26.35 118.06 25.21Q117.13 24.08 115.17 23.41Q113.21 22.74 110.12 22.53L110.12 22.53L109.81 22.02L110.64 18.41Q110.64 18.41 112.75 18.51Q114.86 18.61 117.54 18.77Q120.22 18.92 121.87 18.92L121.87 18.92Q123.42 18.92 125.01 18.82Q126.61 18.72 127.74 18.61Q128.88 18.51 128.88 18.51L128.88 18.51Q132.38 29.75 135.53 39.13Q138.67 48.51 141.09 55.31Q143.51 62.11 144.91 65.87Q146.30 69.64 146.30 69.64L146.30 69.64L146.81 69.64Q146.81 69.64 148.20 65.87Q149.60 62.11 152.07 55.26Q154.54 48.40 157.74 39.13Q160.93 29.85 164.64 18.72L164.64 18.72Q164.64 18.61 165.93 18.72Q167.22 18.82 168.82 18.87Q170.42 18.92 171.45 18.92L171.45 18.92Q172.99 18.92 175.67 18.77Q178.35 18.61 180.47 18.46Q182.58 18.31 182.58 18.31L182.58 18.31L182.79 18.72L182.27 22.53Q177.84 23.05 175.98 24.34Q174.13 25.62 174.13 28.20L174.13 28.20Q174.13 29.13 174.28 32.32Q174.44 35.52 174.75 40.16Q175.05 44.79 175.42 50.10Q175.78 55.41 176.14 60.67Q176.50 65.92 176.81 70.25L176.81 70.25Q177.53 76.23 178.46 78.14Q179.38 80.05 181.86 80.05L181.86 80.05Q182.79 80.05 183.76 79.94Q184.74 79.84 184.74 79.84L184.74 79.84L184.95 80.25L184.02 84.89Q184.02 84.89 182.37 84.79Q180.72 84.68 178.40 84.63Q176.09 84.58 174.23 84.58L174.23 84.58Q172.58 84.58 170.73 84.68Q168.87 84.79 167.22 84.99Q165.57 85.20 164.54 85.30Q163.51 85.41 163.51 85.41L163.51 85.41L163.92 80.66Q167.12 80.25 168.56 79.01Q170.00 77.78 170.00 75.51L170.00 75.51Q170.00 74.58 169.75 71.03Q169.49 67.47 169.08 62.42Q168.66 57.37 168.25 51.91Q167.84 46.44 167.43 41.70Q167.02 36.96 166.76 33.97Q166.50 30.98 166.50 30.98L166.50 30.98L165.98 30.98Q163.51 37.79 161.04 44.64Q158.56 51.49 156.04 58.40Q153.51 65.31 151.04 72.16Q148.57 79.01 146.09 85.82L146.09 85.82Z"/>
            </svg>