<?xml version="1.0" encoding="UTF-8" standalone="no"?>
<svg
   width="200"
   height="100"
   version="1.1"
   id="svg1"
   viewBox="0 0 200 100"
   sodipodi:docname="M-tip.svg"
   inkscape:version="1.3 (0e150ed, 2023-07-21)"
   xmlns:inkscape="http://www.inkscape.org/namespaces/inkscape"
   xmlns:sodipodi="http://sodipodi.sourceforge.net/DTD/sodipodi-0.dtd"
   xmlns="http://www.w3.org/2000/svg"
   xmlns:svg="http://www.w3.org/2000/svg">
  <defs
     id="defs2" />
  <sodipodi:namedview
     id="namedview2"
     pagecolor="#ffffff"
     bordercolor="#000000"
     borderopacity="0.25"
     inkscape:showpageshadow="2"
     inkscape:pageopacity="0.0"
     inkscape:pagecheckerboard="0"
     inkscape:deskcolor="#d1d1d1"
     inkscape:zoom="3.1361741"
     inkscape:cx="129.61653"
     inkscape:cy="98.049404"
     inkscape:window-width="1800"
     inkscape:window-height="1097"
     inkscape:window-x="0"
     inkscape:window-y="44"
     inkscape:window-maximized="1"
     inkscape:current-layer="svg1" />
  <path
     d="M 15.6,90.94 V 4.01 h 21.42 l 9.55,62.215054 h 0.28 L 56.4,4.01 H 77.82 V 90.94 H 63.63 V 25.121441 H 63.36 L 52.44,90.94 H 39.89 L 28.97,25.121441 H 28.7 V 90.94 Z"
     id="path1"
     style="stroke-width:1" />
  <path
     d="M170.35 4.01L179.63 90.94L176.76 90.94L174.03 64.33L168.03 10.56L167.35 10.56L138.14 79.89L134.73 79.89L106.07 10.56L105.39 10.56L99.52 64.33L96.66 90.94L93.79 90.94L103.34 4.01L106.48 4.01L111.94 17.52L136.10 75.93L136.64 75.93L162.16 16.02L167.21 4.01L170.35 4.01Z"
     id="path2" />
  <path
     d="m 45.452314,51.475 c -13.22853,0 -24.01811,10.789573 -24.01811,24.0181 0,13.22853 10.78958,24.01653 24.01811,24.01653 13.22853,0 24.01653,-10.788 24.01653,-24.01653 0,-13.228527 -10.788,-24.0181 -24.01653,-24.0181 z m 0,6.07477 c 9.9453,0 17.94176,7.998025 17.94176,17.94333 0,9.94531 -7.99646,17.94176 -17.94176,17.94176 -9.94531,0 -17.94333,-7.99645 -17.94333,-17.94176 0,-9.945305 7.99802,-17.94333 17.94333,-17.94333 z"
     id="path2-0"
     class="f-accent" />
  <path
     d="m 135.63992,47.475 c -13.22853,0 -24.01811,10.789573 -24.01811,24.0181 0,13.22853 10.78958,24.01653 24.01811,24.01653 13.22853,0 24.01653,-10.788 24.01653,-24.01653 0,-13.228527 -10.788,-24.0181 -24.01653,-24.0181 z m 0,6.07477 c 9.9453,0 17.94176,7.998025 17.94176,17.94333 0,9.94531 -7.99646,17.94176 -17.94176,17.94176 -9.94531,0 -17.94333,-7.99645 -17.94333,-17.94176 0,-9.945305 7.99802,-17.94333 17.94333,-17.94333 z"
     id="path3"
     class="f-accent" />
</svg>
