<?xml version="1.0" encoding="UTF-8" standalone="no"?>
            <svg
               xmlns="http://www.w3.org/2000/svg"
               xmlns:svg="http://www.w3.org/2000/svg"
               width="200"
               height="100"
               version="1.1"
               id="svg1"
               viewBox="0 0 200 100"
               >
               <path d="M15.60 90.94L15.60-4.59L37.02-4.59L46.57 63.78L46.85 63.78L56.40-4.59L77.82-4.59L77.82 90.94L63.63 90.94L63.63 18.61L63.36 18.61L52.44 90.94L39.89 90.94L28.97 18.61L28.70 18.61L28.70 90.94L15.60 90.94Z"/><path d="M170.35 4.01L179.63 90.94L176.76 90.94L174.03 64.33L168.03 10.56L167.35 10.56L138.14 79.89L134.73 79.89L106.07 10.56L105.39 10.56L99.52 64.33L96.66 90.94L93.79 90.94L103.34 4.01L106.48 4.01L111.94 17.52L136.10 75.93L136.64 75.93L162.16 16.02L167.21 4.01L170.35 4.01Z"/>
            </svg>