<?xml version="1.0" encoding="UTF-8" standalone="no"?>
<svg
   width="200"
   height="100"
   viewBox="0 0 200 100"
   version="1.1"
   id="svg1"
   sodipodi:docname="opsz.svg"
   inkscape:version="1.3 (0e150ed, 2023-07-21)"
   xmlns:inkscape="http://www.inkscape.org/namespaces/inkscape"
   xmlns:sodipodi="http://sodipodi.sourceforge.net/DTD/sodipodi-0.dtd"
   xmlns="http://www.w3.org/2000/svg"
   xmlns:svg="http://www.w3.org/2000/svg">
  <defs
     id="defs1" />
  <sodipodi:namedview
     id="namedview1"
     pagecolor="#ffffff"
     bordercolor="#000000"
     borderopacity="0.25"
     inkscape:showpageshadow="2"
     inkscape:pageopacity="0.0"
     inkscape:pagecheckerboard="0"
     inkscape:deskcolor="#d1d1d1"
     inkscape:zoom="2.1652561"
     inkscape:cx="64.426559"
     inkscape:cy="23.322876"
     inkscape:window-width="1800"
     inkscape:window-height="1097"
     inkscape:window-x="0"
     inkscape:window-y="44"
     inkscape:window-maximized="1"
     inkscape:current-layer="svg1"
     showgrid="false" />
  <path
     d="m 51.828446,88.299375 q -4.683744,0 -8.391708,-1.756404 -3.707964,-1.853982 -6.732882,-5.074056 -2.927341,-3.317652 -5.366791,-7.708662 l 0.585468,-4.098277 q 2.829762,4.000698 5.659525,6.732883 2.92734,2.732184 6.147414,4.098276 3.317652,1.366092 7.415928,1.366092 4.098276,0 7.123194,-1.366092 3.122496,-1.366092 5.171634,-4.098276 2.049138,-2.829763 3.024918,-7.123195 1.073358,-4.293432 1.073358,-10.050534 0,-5.464368 -0.878202,-9.562644 -0.878202,-4.098276 -2.732184,-6.83046 -1.853982,-2.732185 -4.8789,-4.098277 -2.92734,-1.366092 -7.123194,-1.366092 -4.293432,0 -7.80624,1.268514 -3.41523,1.170936 -6.440148,3.805543 -3.024919,2.537028 -6.049837,6.635304 l -0.292734,-3.805542 q 2.537028,-4.39101 5.561947,-7.611085 3.122496,-3.220074 7.025616,-4.976478 4.000698,-1.756404 9.074754,-1.756404 7.903818,0 13.17303,3.610386 5.269213,3.610386 7.903819,9.952957 2.634606,6.34257 2.634606,14.734278 0,8.29413 -2.829762,14.929435 -2.829762,6.537726 -8.391709,10.343268 -5.561946,3.805542 -13.66092,3.805542 z M 24.604183,21.165709 q 0,-1.46367 -0.878202,-2.146716 -0.878202,-0.780624 -2.634606,-1.268514 -1.756404,-0.48789 -4.39101,-0.97578 l -0.97578,-0.195156 v -5.659524 h 17.56404 v 64.303904 0 l -2.829762,13.856076 h -5.85468 z"
     id="text12"
     style="font-size:97.578px;line-height:0.8;font-family:'Roboto Serif';-inkscape-font-specification:'Roboto Serif, @opsz=8';font-variation-settings:'opsz' 8;text-align:center;letter-spacing:3.51632px;text-anchor:middle;stroke-width:7.55906;stroke-linejoin:bevel;paint-order:markers stroke fill"
     aria-label="b" />
  <path
     d="m 108.61469,87.967762 q -4.44893,0 -7.98785,-1.415568 -3.437806,-1.415568 -6.370054,-4.448928 -2.831136,-3.03336 -5.662272,-7.785624 l 1.01112,-5.662272 q 2.325576,4.954488 5.0556,8.190072 2.730024,3.134472 6.066716,4.651152 3.3367,1.51668 7.17896,1.51668 3.84225,0 6.7745,-1.51668 2.93225,-1.617792 4.85338,-4.55004 1.92112,-2.932248 2.93224,-7.07784 1.01112,-4.145592 1.01112,-9.201192 0,-4.954488 -1.01112,-8.897856 -1.01112,-3.943368 -2.93224,-6.774504 -1.82002,-2.932248 -4.65116,-4.448928 -2.73002,-1.51668 -6.37005,-1.51668 -4.24671,0 -7.68451,1.820016 -3.3367,1.820016 -6.066724,5.257824 -2.730024,3.336696 -5.0556,8.392296 l -0.910008,-5.460048 q 2.932248,-4.954488 5.864496,-8.291184 2.932248,-3.336696 6.471166,-4.954488 3.64003,-1.617792 8.3923,-1.617792 6.87561,0 12.13344,3.336696 5.25782,3.235584 8.29118,9.201192 3.03336,5.965608 3.03336,13.953456 0,8.08896 -3.13447,14.256792 -3.03336,6.167832 -8.49341,9.60564 -5.46005,3.437808 -12.74011,3.437808 z M 82.932242,20.728282 q 0,-1.51668 -0.808896,-2.325576 Q 81.415562,17.59381 79.79777,17.08825 78.179978,16.58269 75.652178,16.178242 L 74.539946,15.976018 V 12.032651 H 91.93121 v 63.599447 l -0.808896,0.707784 -3.235584,11.12232 h -4.954488 z"
     id="text1"
     style="font-size:101.112px;line-height:0.8;font-family:'Roboto Serif';-inkscape-font-specification:'Roboto Serif, @opsz=72';font-variation-settings:'opsz' 72;text-align:center;letter-spacing:3.64369px;text-anchor:middle;stroke-width:7.55906;stroke-linejoin:bevel;paint-order:markers stroke fill"
     aria-label="b" />
  <path
     d="m 161.85725,87.967762 q -5.0556,0 -8.99897,-1.718904 -3.84226,-1.820016 -7.07784,-5.662272 -3.13447,-3.943368 -6.26895,-10.212312 l 2.42669,-1.213344 q 2.32558,5.257824 5.0556,8.59452 2.73003,3.336696 6.06672,4.954488 3.43781,1.51668 7.5834,1.51668 4.04448,0 7.07784,-1.617792 3.13447,-1.718904 5.15671,-4.853376 2.02224,-3.134472 3.03336,-7.482288 1.11224,-4.448928 1.11224,-9.908976 0,-5.257824 -1.01112,-9.504528 -1.01112,-4.246704 -3.03336,-7.280064 -1.92113,-3.03336 -4.85338,-4.651152 -2.83114,-1.617792 -6.67339,-1.617792 -4.65115,0 -8.19007,1.921128 -3.43781,1.921128 -6.16784,5.662272 -2.62891,3.640032 -5.0556,8.796744 l -2.12335,-1.213344 q 3.13447,-6.370056 6.26895,-10.515648 3.23558,-4.246704 7.28006,-6.268944 4.04448,-2.123352 9.50453,-2.123352 6.67339,0 12.03233,3.336696 5.35893,3.336696 8.39229,9.403416 3.13447,5.965608 3.13447,14.054568 0,8.08896 -3.13447,14.357904 -3.13447,6.268944 -8.69563,9.807864 -5.56116,3.437808 -12.84122,3.437808 z M 136.07369,18.908266 q 0,-1.51668 -0.8089,-2.325576 -0.70778,-0.808896 -2.32558,-1.314456 -1.51668,-0.50556 -4.04448,-0.910007 l -1.11223,-0.202224 v -3.03336 h 17.29015 v 65.722799 l -0.60667,-0.303336 -4.95449,11.12232 h -3.4378 z"
     id="text2"
     style="font-size:101.112px;line-height:0.8;font-family:'roboto serif';-inkscape-font-specification:'roboto serif';text-align:center;letter-spacing:3.64369px;text-anchor:middle;stroke-width:7.55906;stroke-linejoin:bevel;paint-order:markers stroke fill"
     aria-label="b" />
  <text
     xml:space="preserve"
     style="font-style:normal;font-variant:normal;font-weight:normal;font-stretch:normal;font-size:111px;line-height:0.8;font-family:'Roboto Serif';-inkscape-font-specification:'Roboto Serif, @opsz=8';font-variant-ligatures:normal;font-variant-caps:normal;font-variant-numeric:normal;font-variant-east-asian:normal;font-variation-settings:'opsz' 8;text-align:center;letter-spacing:4px;text-anchor:middle;fill:#000000;stroke-width:7.55906;stroke-linejoin:bevel;paint-order:markers stroke fill"
     x="30.815849"
     y="154.58443"
     id="text3"><tspan
       sodipodi:role="line"
       id="tspan3"
       x="30.815849"
       y="154.58443" /></text>
</svg>
