<?xml version="1.0" encoding="UTF-8" standalone="no"?>
<!-- Created with Inkscape (http://www.inkscape.org/) -->

<svg
   width="26.458334mm"
   height="26.458334mm"
   viewBox="0 0 26.458334 26.458334"
   version="1.1"
   id="svg1"
   inkscape:version="1.3 (0e150ed, 2023-07-21)"
   sodipodi:docname="R-shape-curved.svg"
   xmlns:inkscape="http://www.inkscape.org/namespaces/inkscape"
   xmlns:sodipodi="http://sodipodi.sourceforge.net/DTD/sodipodi-0.dtd"
   xmlns="http://www.w3.org/2000/svg"
   xmlns:svg="http://www.w3.org/2000/svg">
  <sodipodi:namedview
     id="namedview1"
     pagecolor="#ffffff"
     bordercolor="#000000"
     borderopacity="0.25"
     inkscape:showpageshadow="2"
     inkscape:pageopacity="0.0"
     inkscape:pagecheckerboard="0"
     inkscape:deskcolor="#d1d1d1"
     inkscape:document-units="mm"
     inkscape:zoom="5.6891475"
     inkscape:cx="44.558521"
     inkscape:cy="54.75337"
     inkscape:window-width="1800"
     inkscape:window-height="1097"
     inkscape:window-x="0"
     inkscape:window-y="44"
     inkscape:window-maximized="1"
     inkscape:current-layer="layer1"
     showgrid="false" />
  <defs
     id="defs1">
    <rect
       x="42.133591"
       y="45.848281"
       width="16.552527"
       height="18.44821"
       id="rect3" />
  </defs>
  <g
     inkscape:label="Layer 1"
     inkscape:groupmode="layer"
     id="layer1">
    <text
       xml:space="preserve"
       transform="scale(0.26458333)"
       id="text3"
       style="font-style:normal;font-variant:normal;font-weight:normal;font-stretch:normal;font-size:15px;line-height:0.8;font-family:'Univers LT Std';-inkscape-font-specification:'Univers LT Std';text-align:center;letter-spacing:4px;white-space:pre;shape-inside:url(#rect3);display:inline;fill:#000000;stroke-width:7.55906;stroke-linejoin:bevel;paint-order:markers stroke fill" />
    <path
       d="M 4.8974838,2.9370966 V 23.521216 h 2.7387837 v -8.79294 h 6.6883985 q 1.009026,0 1.614442,0.31715 0.605416,0.288311 0.980196,0.807221 0.374783,0.490108 0.547754,1.181995 0.17298,0.663066 0.288298,1.412639 0.144145,0.749565 0.172979,1.527955 0.02884,0.778389 0.05768,1.470292 0.02884,0.663065 0.115323,1.210835 0.115324,0.547783 0.403607,0.864876 h 3.055907 q -0.432438,-0.518946 -0.663072,-1.182005 -0.201804,-0.691903 -0.317122,-1.441461 -0.115323,-0.749566 -0.144145,-1.527955 -0.02884,-0.77839 -0.08648,-1.527955 -0.08648,-0.749557 -0.259465,-1.44146 -0.144146,-0.691905 -0.4901,-1.239659 -0.317121,-0.576551 -0.893708,-0.980201 -0.547756,-0.403592 -1.441466,-0.576549 v -0.05739 q 1.873906,-0.518946 2.709954,-1.931569 0.864879,-1.412631 0.864879,-3.2865372 0,-2.5081471 -1.672098,-3.9496166 -1.643272,-1.4414626 -4.58386,-1.4414626 z M 13.34447,12.421933 H 7.6362675 V 5.2434402 h 6.8037165 q 1.931564,0 2.796443,0.9801939 0.864879,0.980199 0.864879,2.5369779 0,1.124341 -0.403607,1.845077 -0.374783,0.691903 -1.037855,1.124341 -0.634249,0.403591 -1.499125,0.547783 -0.864879,0.144128 -1.816249,0.144128 z"
       id="text1"
       style="font-size:3.96875px;line-height:0.8;font-family:'Helvetica Neue';-inkscape-font-specification:'Helvetica Neue';text-align:center;letter-spacing:1.05833px;text-anchor:middle;stroke-width:1.99999;stroke-linejoin:bevel;paint-order:markers stroke fill"
       aria-label="R" />
  </g>
</svg>
