<?xml version="1.0" encoding="UTF-8" standalone="no"?>
<!-- Created with Inkscape (http://www.inkscape.org/) -->

<svg
   width="26.458334mm"
   height="26.458334mm"
   viewBox="0 0 26.458334 26.458334"
   version="1.1"
   id="svg1"
   inkscape:version="1.3 (0e150ed, 2023-07-21)"
   sodipodi:docname="R-shape-straight.svg"
   xmlns:inkscape="http://www.inkscape.org/namespaces/inkscape"
   xmlns:sodipodi="http://sodipodi.sourceforge.net/DTD/sodipodi-0.dtd"
   xmlns="http://www.w3.org/2000/svg"
   xmlns:svg="http://www.w3.org/2000/svg">
  <sodipodi:namedview
     id="namedview1"
     pagecolor="#ffffff"
     bordercolor="#000000"
     borderopacity="0.25"
     inkscape:showpageshadow="2"
     inkscape:pageopacity="0.0"
     inkscape:pagecheckerboard="0"
     inkscape:deskcolor="#d1d1d1"
     inkscape:document-units="mm"
     inkscape:zoom="5.6891475"
     inkscape:cx="44.558521"
     inkscape:cy="54.75337"
     inkscape:window-width="1800"
     inkscape:window-height="1097"
     inkscape:window-x="0"
     inkscape:window-y="44"
     inkscape:window-maximized="1"
     inkscape:current-layer="layer1"
     showgrid="false" />
  <defs
     id="defs1">
    <rect
       x="42.133591"
       y="45.848281"
       width="16.552527"
       height="18.44821"
       id="rect3" />
  </defs>
  <g
     inkscape:label="Layer 1"
     inkscape:groupmode="layer"
     id="layer1">
    <text
       xml:space="preserve"
       transform="scale(0.26458333)"
       id="text3"
       style="font-style:normal;font-variant:normal;font-weight:normal;font-stretch:normal;font-size:15px;line-height:0.8;font-family:'Univers LT Std';-inkscape-font-specification:'Univers LT Std';text-align:center;letter-spacing:4px;white-space:pre;shape-inside:url(#rect3);display:inline;fill:#000000;stroke-width:7.55906;stroke-linejoin:bevel;paint-order:markers stroke fill" />
    <path
       d="M 5.1139176,23.859855 V 2.5984774 h 9.1034644 q 1.407447,0 2.575323,0.5988734 1.167877,0.5689944 2.036302,1.5571721 0.868425,0.9582592 1.347555,2.1860232 0.479129,1.197824 0.479129,2.4555441 0,1.4673378 -0.568994,2.7849428 -0.53904,1.317608 -1.557172,2.24592 -0.988199,0.928312 -2.335754,1.28766 l 5.150644,8.145205 H 18.28996 L 13.438777,16.22369 H 7.8090032 v 7.636128 z M 7.8090265,13.828077 h 6.4383045 q 1.107986,0 1.916514,-0.598873 0.838478,-0.62883 1.287661,-1.647006 0.479129,-1.018156 0.479129,-2.1860326 0,-1.1978239 -0.53904,-2.1860303 Q 16.852555,6.1919869 15.984153,5.5930758 15.115729,4.9941253 14.067637,4.9941253 H 7.8090032 Z"
       id="text1-3"
       style="font-weight:500;font-size:3.96875px;line-height:0.8;font-family:Raleway;-inkscape-font-specification:'Raleway Medium';text-align:center;letter-spacing:1.05833px;text-anchor:middle;stroke-width:2;stroke-linejoin:bevel;paint-order:markers stroke fill"
       aria-label="R" />
  </g>
</svg>
