<?xml version="1.0" encoding="UTF-8" standalone="no"?>
<!-- Created with Inkscape (http://www.inkscape.org/) -->

<svg
   width="26.458334mm"
   height="26.458334mm"
   viewBox="0 0 26.458334 26.458334"
   version="1.1"
   id="svg1"
   inkscape:version="1.3 (0e150ed, 2023-07-21)"
   sodipodi:docname="R-shape.svg"
   xmlns:inkscape="http://www.inkscape.org/namespaces/inkscape"
   xmlns:sodipodi="http://sodipodi.sourceforge.net/DTD/sodipodi-0.dtd"
   xmlns="http://www.w3.org/2000/svg"
   xmlns:svg="http://www.w3.org/2000/svg">
  <sodipodi:namedview
     id="namedview1"
     pagecolor="#ffffff"
     bordercolor="#000000"
     borderopacity="0.25"
     inkscape:showpageshadow="2"
     inkscape:pageopacity="0.0"
     inkscape:pagecheckerboard="0"
     inkscape:deskcolor="#d1d1d1"
     inkscape:document-units="mm"
     inkscape:zoom="5.6891475"
     inkscape:cx="44.558521"
     inkscape:cy="54.75337"
     inkscape:window-width="1800"
     inkscape:window-height="1097"
     inkscape:window-x="0"
     inkscape:window-y="44"
     inkscape:window-maximized="1"
     inkscape:current-layer="layer1"
     showgrid="false" />
  <defs
     id="defs1">
    <rect
       x="42.133591"
       y="45.848281"
       width="16.552527"
       height="18.44821"
       id="rect3" />
  </defs>
  <g
     inkscape:label="Layer 1"
     inkscape:groupmode="layer"
     id="layer1">
    <text
       xml:space="preserve"
       transform="scale(0.26458333)"
       id="text3"
       style="font-style:normal;font-variant:normal;font-weight:normal;font-stretch:normal;font-size:15px;line-height:0.8;font-family:'Univers LT Std';-inkscape-font-specification:'Univers LT Std';text-align:center;letter-spacing:4px;white-space:pre;shape-inside:url(#rect3);display:inline;fill:#000000;stroke-width:7.55906;stroke-linejoin:bevel;paint-order:markers stroke fill" />
    <path
       d="m 3.7152183,7.262217 v 11.933887 h 1.5878423 v -5.097811 h 3.877678 q 0.584995,0 0.9359924,0.183871 0.350997,0.167152 0.56828,0.467996 0.217285,0.284146 0.317567,0.685276 0.100287,0.38442 0.167144,0.818994 0.08357,0.434569 0.100287,0.88585 0.01672,0.45128 0.03344,0.852419 0.01672,0.38442 0.06686,0.701996 0.06686,0.317584 0.233996,0.501422 h 1.771698 q -0.250711,-0.300865 -0.384424,-0.685281 -0.116998,-0.401139 -0.183855,-0.835704 -0.06686,-0.43457 -0.08357,-0.88585 -0.01672,-0.451281 -0.05014,-0.88585 -0.05014,-0.434565 -0.150428,-0.835704 -0.08357,-0.40114 -0.284141,-0.718707 Q 12.05559,14.014759 11.721307,13.780738 11.403739,13.546751 10.8856,13.446477 v -0.03327 q 1.086419,-0.300865 1.571128,-1.11985 0.501424,-0.81899 0.501424,-1.905409 0,-1.454128 -0.969419,-2.289837 Q 11.036027,7.262406 9.3311856,7.262406 Z m 4.8972403,5.498946 H 5.3030606 V 8.599347 h 3.944535 q 1.1198474,0 1.6212714,0.568279 0.501424,0.568282 0.501424,1.470843 0,0.65185 -0.233996,1.069705 -0.217285,0.401139 -0.601709,0.65185 -0.367713,0.233987 -0.8691354,0.317584 -0.501424,0.08356 -1.052992,0.08356 z"
       id="text1"
       style="font-size:3.96875px;line-height:0.8;font-family:'Helvetica Neue';-inkscape-font-specification:'Helvetica Neue';text-align:center;letter-spacing:1.05833px;text-anchor:middle;stroke-width:2;stroke-linejoin:bevel;paint-order:markers stroke fill"
       aria-label="R" />
    <path
       d="M 15.027448,19.162682 V 7.295652 h 5.081095 q 0.785566,0 1.437416,0.334261 0.65185,0.317584 1.136561,0.869135 0.484711,0.534852 0.752137,1.220128 0.267426,0.668565 0.267426,1.370561 0,0.818994 -0.317584,1.554415 -0.300865,0.735422 -0.869135,1.253559 -0.551563,0.518137 -1.3037,0.718707 l 2.87483,4.546243 h -1.704843 l -2.707686,-4.262102 h -3.142256 v 4.262102 z m 1.504274,-5.599233 h 3.593537 q 0.618422,0 1.069702,-0.334261 0.467996,-0.350981 0.718707,-0.919276 0.267426,-0.568283 0.267426,-1.220133 0,-0.668565 -0.300865,-1.220132 Q 21.579364,9.301368 21.094666,8.967086 20.609955,8.632782 20.024963,8.632782 h -3.493254 z"
       id="text1-3"
       style="font-weight:500;font-size:3.96875px;line-height:0.8;font-family:Raleway;-inkscape-font-specification:'Raleway Medium';text-align:center;letter-spacing:1.05833px;text-anchor:middle;stroke-width:2;stroke-linejoin:bevel;paint-order:markers stroke fill"
       aria-label="R" />
  </g>
</svg>
