<?xml version="1.0" encoding="UTF-8" standalone="no"?>
<svg
   width="200"
   height="100"
   viewBox="0 0 200 100"
   version="1.1"
   id="svg1"
   sodipodi:docname="slnt.svg"
   inkscape:version="1.3 (0e150ed, 2023-07-21)"
   xmlns:inkscape="http://www.inkscape.org/namespaces/inkscape"
   xmlns:sodipodi="http://sodipodi.sourceforge.net/DTD/sodipodi-0.dtd"
   xmlns="http://www.w3.org/2000/svg"
   xmlns:svg="http://www.w3.org/2000/svg">
  <defs
     id="defs1" />
  <sodipodi:namedview
     id="namedview1"
     pagecolor="#ffffff"
     bordercolor="#000000"
     borderopacity="0.25"
     inkscape:showpageshadow="2"
     inkscape:pageopacity="0.0"
     inkscape:pagecheckerboard="0"
     inkscape:deskcolor="#d1d1d1"
     inkscape:zoom="1.9795008"
     inkscape:cx="29.047727"
     inkscape:cy="15.660514"
     inkscape:window-width="1800"
     inkscape:window-height="634"
     inkscape:window-x="0"
     inkscape:window-y="44"
     inkscape:window-maximized="0"
     inkscape:current-layer="svg1"
     showgrid="false" />
  <path
     d="m 49.673698,61.473716 q -14.208,0 -18.981,1.554 -4.773,1.443 -6.66,3.552 -1.887,1.998 -1.887,5.994 0,7.659 11.655,7.659 6.216,0 10.989,-4.329 4.884,-4.551 4.884,-12.21 z m 0.444,16.872 q -6.771,10.212 -19.869,10.212 -12.876,0 -16.983,-7.992 -1.554,-3.219 -1.554,-8.88 0,-5.661 2.775,-9.324 2.775,-3.774 7.77,-5.772 7.992,-3.219 27.417,-3.219 v -5.217 q 0,-4.329 -1.554,-6.216 -3.441,-3.996 -11.433,-3.996 -7.77,0 -10.878,3.774 -1.776,2.22 -1.776,5.106 v 1.332 h -10.212 q -0.222,-1.11 -0.222,-3.663 0,-2.442 1.776,-5.439 1.776,-2.997 4.884,-5.106 6.66,-4.329 16.65,-4.329 h 0.999 q 11.322,0 16.761,4.551 5.439,4.44 5.439,12.765 v 29.415 q 0,2.109 0.888,2.997 0.999,0.888 2.22,0.888 2.664,0 5.106,-1.554 v 7.659 q -3.663,2.22 -8.547,2.22 -4.995,0 -7.215,-2.886 -2.22,-2.886 -2.442,-7.326 z"
     id="text1"
     style="font-size:111px;line-height:0.8;font-family:Chivo;-inkscape-font-specification:Chivo;text-align:center;letter-spacing:4px;text-anchor:middle;stroke-width:7.55906;stroke-linejoin:bevel;paint-order:markers stroke fill"
     aria-label="a" />
  <path
     d="m 175.26205,61.473716 q -14.208,0 -19.39739,1.554 -5.15965,1.443 -7.61176,3.552 -2.42236,1.998 -3.49309,5.994 -2.05222,7.659 9.60278,7.659 6.216,0 12.14895,-4.329 6.10344,-4.551 8.15566,-12.21 z m -4.07684,16.872 q -9.5073,10.212 -22.6053,10.212 -12.876,0 -14.84155,-7.992 -0.69147,-3.219 0.82539,-8.88 1.51686,-5.661 5.27336,-9.324 3.78624,-3.774 9.3166,-5.772 8.85453,-3.219 28.27953,-3.219 l 1.39789,-5.217 q 1.15995,-4.329 0.11157,-6.216 -2.37027,-3.996 -10.36227,-3.996 -7.77,0 -11.88924,3.774 -2.37085,2.22 -3.14415,5.106 l -0.35691,1.332 h -10.212 q 0.0754,-1.11 0.7595,-3.663 0.65433,-2.442 3.23338,-5.439 2.57904,-2.997 6.25214,-5.106 7.81996,-4.329 17.80996,-4.329 h 0.999 q 11.322,0 15.54156,4.551 4.24931,4.44 2.01863,12.765 l -7.88173,29.415 q -0.5651,2.109 0.085,2.997 0.76106,0.888 1.98206,0.888 2.664,0 5.52239,-1.554 l -2.05222,7.659 q -4.25785,2.22 -9.14185,2.22 -4.995,0 -6.4417,-2.886 -1.44669,-2.886 -0.479,-7.326 z"
     id="path11"
     style="font-size:111px;line-height:0.8;font-family:Chivo;-inkscape-font-specification:Chivo;text-align:center;letter-spacing:4px;text-anchor:middle;stroke-width:7.55906;stroke-linejoin:bevel;paint-order:markers stroke fill"
     aria-label="a" />
  <path
     d="m 112.53161,61.473716 q -14.208,0 -19.185586,1.554 -4.962974,1.443 -7.127629,3.552 -2.150042,1.998 -2.676125,5.994 -1.008327,7.659 10.646673,7.659 6.215997,0 11.558927,-4.329 5.48315,-4.551 6.49147,-12.21 z m -1.77724,16.872 q -8.11543,10.212 -21.213434,10.212 -12.876,0 -15.930833,-7.992 -1.130211,-3.219 -0.384926,-8.88 0.745285,-5.661 4.002528,-9.324 3.271856,-3.774 8.529898,-5.772 8.41579,-3.219 27.840787,-3.219 l 0.68683,-5.217 q 0.56993,-4.329 -0.73564,-6.216 -2.91492,-3.996 -10.90692,-3.996 -7.770001,0 -11.374858,3.774 -2.068268,2.22 -2.448217,5.106 l -0.175361,1.332 h -10.212 q -0.07587,-1.11 0.260243,-3.663 0.321495,-2.442 2.492058,-5.439 2.170562,-2.997 5.556217,-5.106 7.229924,-4.329 17.219928,-4.329 h 0.999 q 11.322,0 16.16184,4.551 4.85447,4.44 3.75846,12.765 l -3.87256,29.415 q -0.27765,2.109 0.49344,2.997 0.88209,0.888 2.10309,0.888 2.664,0 5.31059,-1.554 l -1.00833,7.659 q -3.95527,2.22 -8.83926,2.22 -4.995,0 -6.83506,-2.886 -1.84005,-2.886 -1.47751,-7.326 z"
     id="path12"
     style="font-size:111px;line-height:0.8;font-family:Chivo;-inkscape-font-specification:Chivo;text-align:center;letter-spacing:4px;text-anchor:middle;stroke-width:7.55906;stroke-linejoin:bevel;paint-order:markers stroke fill"
     aria-label="a" />
</svg>
