<?xml version="1.0" encoding="UTF-8" standalone="no"?>
<svg
   width="100"
   height="100"
   version="1.1"
   id="svg1"
   viewBox="0 0 100 100"
   sodipodi:docname="Vox-ATypI-grotesque.svg"
   inkscape:version="1.3 (0e150ed, 2023-07-21)"
   xmlns:inkscape="http://www.inkscape.org/namespaces/inkscape"
   xmlns:sodipodi="http://sodipodi.sourceforge.net/DTD/sodipodi-0.dtd"
   xmlns="http://www.w3.org/2000/svg"
   xmlns:svg="http://www.w3.org/2000/svg">
  <defs
     id="defs1" />
  <sodipodi:namedview
     id="namedview1"
     pagecolor="#ffffff"
     bordercolor="#000000"
     borderopacity="0.25"
     inkscape:showpageshadow="2"
     inkscape:pageopacity="0.0"
     inkscape:pagecheckerboard="0"
     inkscape:deskcolor="#d1d1d1"
     inkscape:zoom="1.9436554"
     inkscape:cx="134.79756"
     inkscape:cy="61.224846"
     inkscape:window-width="1248"
     inkscape:window-height="426"
     inkscape:window-x="0"
     inkscape:window-y="44"
     inkscape:window-maximized="0"
     inkscape:current-layer="svg1" />
  <path
     id="path7"
     style="stroke-width:0.999997"
     d="M 84.95118,79.534774 H 61.22131 c 0.27563,2.69886 1.12835,4.921113 2.55818,6.666758 1.42408,1.739903 3.48555,2.609855 6.18441,2.609855 v 0 c 2.06147,0 3.66643,-0.416314 4.81488,-1.248941 1.15419,-0.832627 2.1878,-2.259577 3.10081,-4.280851 v 0 l 5.94324,1.903558 c -0.98767,2.658664 -2.61273,4.840721 -4.87518,6.546171 -2.26245,1.705449 -5.25703,2.558174 -8.98375,2.558174 v 0 c -3.84731,0 -6.8821,-0.901534 -9.10435,-2.704602 -2.21651,-1.80881 -3.75257,-3.950671 -4.60816,-6.425583 -0.84985,-2.480655 -1.27478,-4.889531 -1.27478,-7.226629 v 0 c 0,-2.34284 0.42493,-4.751716 1.27478,-7.226628 0.85559,-2.480654 2.39165,-4.622515 4.60816,-6.425584 2.22225,-1.80881 5.25704,-2.713215 9.10435,-2.713215 v 0 c 3.84731,0 6.8907,0.904405 9.13018,2.713215 2.23948,1.803069 3.78702,3.94493 4.64261,6.425584 0.84986,2.474912 1.27479,4.883788 1.27479,7.226628 v 0 c 0,0.671844 -0.0201,1.205874 -0.0603,1.60209 z M 69.9639,67.045368 c -2.3773,0 -4.26937,0.694813 -5.67622,2.084439 -1.4126,1.383883 -2.3371,3.186951 -2.77351,5.409204 v 0 H 78.47392 C 78.03751,72.316758 77.11587,70.51369 75.70902,69.129807 74.29643,67.740181 72.38139,67.045368 69.9639,67.045368 Z" />
  <path
     id="path5"
     style="stroke-width:0.999997"
     d="M 98.153115,48.823357 94.113438,54 c -1.34943,-0.476607 -2.578273,-1.131224 -3.686528,-1.963851 -1.113997,-0.832627 -2.305515,-1.863362 -3.574554,-3.092205 v 0 c -3.491291,2.497881 -7.754915,3.746822 -12.790873,3.746822 v 0 c -4.519155,0 -8.383693,-0.970441 -11.593614,-2.911324 -3.215663,-1.946624 -5.656121,-4.625386 -7.321375,-8.036286 -1.665254,-3.410899 -2.497881,-7.275437 -2.497881,-11.593613 v 0 c 0,-4.323919 0.832627,-8.182714 2.497881,-11.576387 1.665254,-3.387931 4.114326,-6.055208 7.347216,-8.001833 C 65.726599,8.6304411 69.582524,7.66 74.061483,7.66 v 0 c 4.484701,0 8.332012,0.9704411 11.541933,2.911323 3.215663,1.946625 5.656121,4.613902 7.321375,8.001833 1.665254,3.393673 2.497881,7.252468 2.497881,11.576387 v 0 c 0,5.587214 -1.369528,10.36477 -4.108583,14.332669 v 0 c 1.113997,1.027863 2.205026,1.909299 3.273085,2.644308 1.06806,0.735009 2.256707,1.300621 3.565941,1.696837 z M 59.547933,30.149543 c 0,2.968746 0.516803,5.713544 1.550409,8.234394 1.027863,2.52085 2.62421,4.553608 4.78904,6.098275 2.159088,1.544667 4.883788,2.317 8.174101,2.317 v 0 c 3.135271,0 5.854229,-0.772333 8.156873,-2.317 v 0 c -1.670996,-1.34943 -3.356348,-2.182057 -5.056055,-2.497881 v 0 l 3.858795,-4.702907 c 1.826037,0.476607 3.571683,1.34943 5.236937,2.618468 v 0 c 1.510213,-2.773509 2.26532,-6.023626 2.26532,-9.750349 v 0 c 0,-2.940035 -0.50819,-5.667606 -1.524569,-8.182714 -1.010637,-2.52085 -2.604113,-4.553608 -4.780428,-6.098275 -2.182057,-1.544667 -4.901014,-2.317 -8.156873,-2.317 v 0 c -3.290313,0 -6.015013,0.772333 -8.174101,2.317 -2.16483,1.544667 -3.761177,3.577425 -4.78904,6.098275 -1.033606,2.515108 -1.550409,5.242679 -1.550409,8.182714 z" />
  <path
     style="stroke-width:0.999997"
     d="M 45.034382,28.599134 V 51.975855 H 39.091148 V 46.38577 c -3.255859,4.203331 -7.955895,6.304996 -14.100108,6.304996 v 0 c -4.519155,0 -8.406661,-0.970441 -11.66252,-2.911324 C 10.078404,47.832818 7.6092338,45.165541 5.9210107,41.77761 4.2385299,38.383937 3.3972895,34.525141 3.3972895,30.201223 v 0 c 0,-4.318176 0.8412404,-8.182714 2.5237212,-11.593613 C 7.6092338,15.19671 10.078404,12.517948 13.32852,10.571323 16.584379,8.6304411 20.471885,7.66 24.99104,7.66 v 0 c 4.519155,0 8.403791,0.9704411 11.653908,2.911323 3.255859,1.946625 5.736513,4.645485 7.441962,8.09658 v 0 l -7.0802,2.015532 C 34.508829,15.928848 30.503605,13.551554 24.99104,13.551554 v 0 c -3.290312,0 -6.006399,0.772333 -8.14826,2.317 -2.141861,1.544667 -3.709497,3.577425 -4.702907,6.098275 -0.987668,2.515108 -1.481502,5.259906 -1.481502,8.234394 v 0 c 0,2.974488 0.493834,5.710673 1.481502,8.208554 0.99341,2.503623 2.561046,4.527768 4.702907,6.072435 2.141861,1.544667 4.857948,2.317 8.14826,2.317 v 0 c 3.726724,0 6.810315,-1.079544 9.250774,-3.238632 2.440458,-2.16483 4.056903,-4.949824 4.849334,-8.354981 v 0 -0.895792 H 24.155542 v -5.710673 z"
     id="path4" />
  <path
     id="path1"
     style="stroke-width:0.999997"
     d="m 46.413531,84.117093 c 0.04019,0.913019 0.149296,1.645156 0.327309,2.196413 0.17801,0.556999 0.554128,1.053704 1.128353,1.490115 0.574225,0.436411 1.438435,0.755107 2.592628,0.956086 v 0 l -2.799349,5.529791 c -1.785841,-0.241175 -3.184081,-0.766591 -4.194718,-1.576249 -1.010637,-0.8154 -1.714063,-1.897815 -2.110279,-3.247245 v 0 c -1.940882,3.215663 -5.549889,4.823494 -10.827022,4.823494 v 0 c -2.813705,0 -5.084767,-0.496705 -6.813186,-1.490115 -1.722677,-0.987668 -2.940035,-2.187799 -3.652074,-3.600394 -0.717782,-1.406853 -1.076673,-2.764896 -1.076673,-4.07413 v 0 c 0,-2.141861 0.666102,-4.065517 1.998305,-5.770966 1.326461,-1.70545 3.319023,-2.894097 5.977688,-3.565941 v 0 c 1.34943,-0.35602 2.845287,-0.602937 4.487572,-0.740751 1.648027,-0.137814 2.650051,-0.226819 3.006071,-0.267015 v 0 c 2.578273,-0.160783 4.599546,-0.399087 6.063821,-0.714911 v 0 c -0.07465,-2.101665 -0.579968,-3.8186 -1.515955,-5.150803 -0.930245,-1.326461 -2.644309,-1.989691 -5.14219,-1.989691 v 0 c -1.665254,0 -3.221405,0.387602 -4.668453,1.162807 -1.447049,0.769462 -2.449072,2.127505 -3.006071,4.07413 v 0 l -6.003528,-1.73129 c 0.792431,-2.612726 2.317,-4.723005 4.573707,-6.330837 2.262448,-1.607831 5.277132,-2.411747 9.044052,-2.411747 v 0 c 3.410899,0 6.304996,0.884307 8.68229,2.652922 2.383035,1.762873 3.652074,4.309563 3.807115,7.640071 v 0 c 0.04019,1.584862 0.07178,3.706625 0.09475,6.36529 0.01723,2.658664 0.02584,4.582319 0.02584,5.770966 z m -5.770966,-4.995762 v -0.06029 h -0.120588 z m -9.095733,10.051818 c 1.187898,0 2.456085,-0.298221 3.804562,-0.894662 8.52e-4,-3.77e-4 0.0017,-7.53e-4 0.0026,-0.0011 1.343687,-0.591452 2.532334,-1.642285 3.56594,-3.152498 1.033606,-1.504471 1.550409,-3.525744 1.550409,-6.063821 v 0 c -0.798173,0.120587 -2.029887,0.258401 -3.695141,0.413442 v 0 c -2.497881,0.200979 -4.559351,0.450767 -6.184409,0.749364 -1.625059,0.292855 -3.011813,0.818272 -4.160264,1.576249 -1.154193,0.752235 -1.73129,1.803068 -1.73129,3.152498 v 0 c 0,1.625059 0.714911,2.733314 2.144732,3.324766 1.429822,0.597195 2.997458,0.895792 4.702907,0.895792 z" />
</svg>
