<?xml version="1.0" encoding="UTF-8" standalone="no"?>
<svg
   width="100"
   height="100"
   version="1.1"
   id="svg1"
   viewBox="0 0 100 100"
   sodipodi:docname="Vox-ATypI-other.svg"
   inkscape:version="1.3 (0e150ed, 2023-07-21)"
   xmlns:inkscape="http://www.inkscape.org/namespaces/inkscape"
   xmlns:sodipodi="http://sodipodi.sourceforge.net/DTD/sodipodi-0.dtd"
   xmlns="http://www.w3.org/2000/svg"
   xmlns:svg="http://www.w3.org/2000/svg">
  <defs
     id="defs1" />
  <sodipodi:namedview
     id="namedview1"
     pagecolor="#ffffff"
     bordercolor="#000000"
     borderopacity="0.25"
     inkscape:showpageshadow="2"
     inkscape:pageopacity="0.0"
     inkscape:pagecheckerboard="0"
     inkscape:deskcolor="#d1d1d1"
     inkscape:zoom="3.5239496"
     inkscape:cx="45.545486"
     inkscape:cy="51.788481"
     inkscape:window-width="1800"
     inkscape:window-height="1097"
     inkscape:window-x="0"
     inkscape:window-y="44"
     inkscape:window-maximized="0"
     inkscape:current-layer="svg1" />
  <path
     d="M 6.5295342,95.000736 C 7.0249775,93.415317 7.5534504,91.862928 8.1149529,90.343569 H 5.8854578 v -0.544988 h 2.9726601 v 0.34681 C 8.1644972,91.862928 7.6029948,93.481377 7.1736105,95.000736 Z M 11.781233,92.176709 V -11.967293 h 0.594532 V 92.176709 Z m 1.189064,0 V -11.967293 h 0.594532 V 92.176709 Z m 3.017294,-2.97266 V -11.967293 h 0.594532 V 89.204049 Z m 1.189064,0 V -11.967293 h 2.378128 V 89.204049 Z m 0.396355,5.846231 c -0.528473,0 -0.924827,-0.214692 -1.189064,-0.644076 -0.297266,-0.429384 -0.445899,-1.023916 -0.445899,-1.783596 0,-0.627561 0.08257,-1.156034 0.247722,-1.585419 0.132118,-0.429384 0.34681,-0.743165 0.644076,-0.941342 0.264237,-0.231207 0.578017,-0.34681 0.941342,-0.34681 0.429385,0 0.809225,0.148633 1.13952,0.445899 l -0.396355,0.495443 -0.04954,-0.04954 c 0,-0.03303 -0.01651,-0.08257 -0.04954,-0.148633 -0.03303,-0.03303 -0.08257,-0.06606 -0.148633,-0.09909 -0.09909,-0.09909 -0.247722,-0.148633 -0.445899,-0.148633 -0.198177,0 -0.396355,0.06606 -0.594532,0.198177 -0.165148,0.09909 -0.330296,0.297266 -0.495444,0.594532 -0.132118,0.297266 -0.198177,0.710136 -0.198177,1.238609 0.09909,-0.198177 0.247722,-0.363325 0.445899,-0.495444 0.198177,-0.09909 0.412869,-0.148633 0.644076,-0.148633 0.264237,0 0.495444,0.06606 0.693621,0.198178 0.231207,0.165147 0.412869,0.379839 0.544988,0.644076 0.132118,0.231207 0.198177,0.511958 0.198177,0.842254 0,0.363325 -0.06606,0.677105 -0.198177,0.941342 -0.132119,0.231207 -0.313781,0.429384 -0.544988,0.594532 -0.231207,0.132118 -0.478928,0.198177 -0.743165,0.198177 z m 0,-0.495443 c 0.264237,0 0.478929,-0.115603 0.644076,-0.34681 0.165148,-0.198177 0.247722,-0.478929 0.247722,-0.842254 0,-0.264237 -0.03303,-0.495444 -0.09909,-0.693621 -0.09909,-0.165147 -0.214692,-0.297265 -0.34681,-0.396354 -0.132118,-0.09909 -0.280751,-0.148633 -0.445899,-0.148633 -0.198177,0 -0.37984,0.06606 -0.544988,0.198177 -0.198177,0.132118 -0.34681,0.297266 -0.445899,0.495443 -0.03303,0.09909 -0.04954,0.181663 -0.04954,0.247722 0,0.231207 0.04954,0.462414 0.148633,0.693621 0.06606,0.231207 0.181663,0.412869 0.34681,0.544987 0.165148,0.165148 0.346811,0.247722 0.544988,0.247722 z m 4.354991,-5.350788 V -11.967293 h 1.238608 V 89.204049 Z m 2.378128,0 V -11.967293 h 1.238608 V 89.204049 Z m -0.990887,1.288153 -1.089975,0.34681 -0.09909,-0.34681 1.337697,-0.693621 h 0.396355 v 5.202155 h -0.544988 z m 5.296334,-1.288153 V -11.967293 h 1.139519 V 89.204049 Z m 2.378128,0 V -11.967293 h 0.544987 V 89.204049 Z m -1.684508,1.288153 -1.089975,0.34681 -0.09909,-0.34681 1.337697,-0.693621 h 0.396355 v 5.202155 h -0.544988 z m 4.602713,-1.288153 V -11.967293 h 1.238608 V 89.204049 Z m 2.378128,0 V -11.967293 h 1.238608 V 89.204049 Z m -0.990887,1.288153 -1.089975,0.34681 -0.09909,-0.34681 1.337697,-0.693621 h 0.396355 v 5.202155 h -0.544988 z m 5.841323,-1.288153 V -11.967293 h 1.189064 V 89.204049 Z m 1.783596,0 V -11.967293 h 0.594532 V 89.204049 Z m -1.48633,0.544988 c 0.495443,0 0.891798,0.247722 1.189064,0.743165 0.264237,0.462413 0.396355,1.10649 0.396355,1.932229 0,0.858768 -0.132118,1.519359 -0.396355,1.981773 -0.264236,0.462414 -0.660591,0.693621 -1.189064,0.693621 -0.528473,0 -0.924827,-0.231207 -1.189064,-0.693621 -0.264236,-0.462414 -0.396354,-1.123005 -0.396354,-1.981773 0,-0.825739 0.132118,-1.469816 0.396354,-1.932229 0.297266,-0.495443 0.693621,-0.743165 1.189064,-0.743165 z m 0,0.544987 c -0.330295,0 -0.578017,0.181663 -0.743165,0.544988 -0.165147,0.396355 -0.247721,0.924828 -0.247721,1.585419 0,0.363325 0.01651,0.677105 0.04954,0.941342 l 1.783596,-2.279039 C 42.1769,90.822497 42.061297,90.62432 41.929179,90.492202 41.79706,90.360083 41.631912,90.294024 41.433735,90.294024 Z m 0,4.260813 c 0.330296,0 0.578018,-0.181663 0.743165,-0.544988 0.165148,-0.363325 0.247722,-0.891797 0.247722,-1.585418 0,-0.330296 -0.01651,-0.611047 -0.04954,-0.842254 l -1.734052,2.229495 c 0.165148,0.495443 0.429384,0.743165 0.792709,0.743165 z m 4.503622,-5.350788 V -11.967293 h 0.594532 V 89.204049 Z m 1.783596,0 V -11.967293 h 1.783596 V 89.204049 Z m -0.297266,0.544988 c 0.495443,0 0.891798,0.247722 1.189064,0.743165 0.264237,0.462413 0.396355,1.10649 0.396355,1.932229 0,0.858768 -0.132118,1.519359 -0.396355,1.981773 -0.264236,0.462414 -0.660591,0.693621 -1.189064,0.693621 -0.528473,0 -0.924827,-0.231207 -1.189064,-0.693621 -0.264236,-0.462414 -0.396354,-1.123005 -0.396354,-1.981773 0,-0.825739 0.132118,-1.469816 0.396354,-1.932229 0.297266,-0.495443 0.693621,-0.743165 1.189064,-0.743165 z m 0,0.544987 c -0.330295,0 -0.578017,0.181663 -0.743165,0.544988 -0.165147,0.396355 -0.247721,0.924828 -0.247721,1.585419 0,0.363325 0.01651,0.677105 0.04954,0.941342 l 1.783596,-2.279039 c -0.09909,-0.264237 -0.214688,-0.462414 -0.346806,-0.594532 -0.132119,-0.132119 -0.297267,-0.198178 -0.495444,-0.198178 z m 0,4.260813 c 0.330296,0 0.578018,-0.181663 0.743165,-0.544988 0.165148,-0.363325 0.247722,-0.891797 0.247722,-1.585418 0,-0.330296 -0.01651,-0.611047 -0.04954,-0.842254 l -1.734052,2.229495 c 0.165148,0.495443 0.429384,0.743165 0.792709,0.743165 z m 2.675394,-2.378128 V -11.967293 h 0.594532 V 92.176709 Z m 1.189064,0 V -11.967293 h 0.594532 V 92.176709 Z m 3.017296,-2.97266 V -11.967293 h 0.594532 V 89.204049 Z m 2.97266,0 V -11.967293 h 0.594532 V 89.204049 Z m -0.990886,5.895776 c -0.264237,0 -0.528473,-0.06606 -0.79271,-0.198178 -0.231207,-0.09909 -0.429384,-0.231207 -0.594532,-0.396354 l 0.346811,-0.495444 0.04954,-0.04954 0.04954,0.04954 c 0.03303,0.06606 0.04955,0.115604 0.04955,0.148633 0.03303,0.03303 0.06606,0.08258 0.09909,0.148633 0.132119,0.06606 0.247722,0.132119 0.346811,0.198178 0.132118,0.03303 0.280751,0.04954 0.445899,0.04954 0.330295,0 0.578017,-0.08257 0.743165,-0.247722 0.165147,-0.198177 0.247721,-0.462414 0.247721,-0.792709 0,-0.330295 -0.115603,-0.578017 -0.34681,-0.743165 -0.198177,-0.165148 -0.478929,-0.247722 -0.842254,-0.247722 h -0.297266 v -0.445899 c 0.495443,0 0.842254,-0.09909 1.040431,-0.297266 0.165148,-0.198177 0.247722,-0.445899 0.247722,-0.743165 0,-0.231207 -0.06606,-0.412869 -0.198177,-0.544987 -0.132119,-0.165148 -0.313781,-0.247722 -0.544988,-0.247722 -0.363325,0 -0.677106,0.132118 -0.941342,0.396355 L 55.048609,90.29402 c 0.330296,-0.363325 0.75968,-0.544987 1.288153,-0.544987 0.429384,0 0.75968,0.115603 0.990887,0.34681 0.231207,0.264237 0.34681,0.578017 0.34681,0.941342 0,0.297266 -0.06606,0.544988 -0.198177,0.743165 -0.132119,0.231207 -0.330296,0.37984 -0.594532,0.445899 0.297266,0.09909 0.528473,0.264237 0.69362,0.495444 0.198177,0.231207 0.297266,0.511958 0.297266,0.842253 0,0.264237 -0.06606,0.511958 -0.198177,0.743165 -0.132118,0.231207 -0.313781,0.41287 -0.544988,0.544988 -0.231207,0.165148 -0.511958,0.247722 -0.842253,0.247722 z m 4.008178,-5.895776 V -11.967293 h 0.594532 V 89.204049 Z m 1.783596,0 V -11.967293 h 1.783596 V 89.204049 Z m 0.297266,5.895776 c -0.330295,0 -0.627561,-0.08257 -0.891798,-0.247722 -0.264236,-0.132118 -0.478928,-0.330295 -0.644076,-0.594532 l 0.544988,-0.396355 v 0.04954 c 0,0.06606 0.01651,0.115604 0.04954,0.148633 0,0.03303 0.03303,0.08257 0.09909,0.148633 0.09909,0.132118 0.214692,0.214692 0.34681,0.247721 0.165148,0.06606 0.346811,0.09909 0.544988,0.09909 0.165147,0 0.330295,-0.04954 0.495443,-0.148633 0.132118,-0.09909 0.247721,-0.247722 0.34681,-0.445899 0.09909,-0.165148 0.148633,-0.37984 0.148633,-0.644076 0,-0.363325 -0.09909,-0.660591 -0.297266,-0.891798 -0.198177,-0.231207 -0.462414,-0.346811 -0.792709,-0.346811 -0.165148,0 -0.330296,0.04954 -0.495443,0.148633 -0.165148,0.09909 -0.313781,0.214692 -0.445899,0.346811 l -0.396355,-0.148633 0.198177,-2.62585 h 2.62585 v 0.544988 h -2.130406 l -0.09909,1.48633 c 0.264237,-0.132119 0.544988,-0.198178 0.842254,-0.198178 0.297266,0 0.561502,0.06606 0.792709,0.198178 0.264237,0.132118 0.462414,0.330295 0.594532,0.594532 0.132118,0.264236 0.198177,0.578017 0.198177,0.941342 0,0.330295 -0.08257,0.627561 -0.247721,0.891798 -0.132119,0.264237 -0.313781,0.462414 -0.544988,0.594532 -0.264237,0.165148 -0.544988,0.247722 -0.842254,0.247722 z m 3.909094,-5.895776 V -11.967293 h 0.594532 V 89.204049 Z m 1.189064,0 V -11.967293 h 0.594532 V 89.204049 Z m 0.990887,5.846231 c -0.528473,0 -0.924827,-0.214692 -1.189064,-0.644076 -0.297266,-0.429384 -0.445899,-1.023916 -0.445899,-1.783596 0,-0.627561 0.08257,-1.156034 0.247722,-1.585419 0.132118,-0.429384 0.34681,-0.743165 0.644076,-0.941342 0.264237,-0.231207 0.578017,-0.34681 0.941342,-0.34681 0.429385,0 0.809225,0.148633 1.13952,0.445899 l -0.396355,0.495443 -0.04954,-0.04954 c 0,-0.03303 -0.01651,-0.08257 -0.04954,-0.148633 -0.03303,-0.03303 -0.08258,-0.06606 -0.148633,-0.09909 -0.09909,-0.09909 -0.247722,-0.148633 -0.445899,-0.148633 -0.198177,0 -0.396355,0.06606 -0.594532,0.198177 -0.165148,0.09909 -0.330296,0.297266 -0.495444,0.594532 -0.132118,0.297266 -0.198177,0.710136 -0.198177,1.238609 0.09909,-0.198177 0.247722,-0.363325 0.445899,-0.495444 0.198177,-0.09909 0.412869,-0.148633 0.644076,-0.148633 0.264237,0 0.495444,0.06606 0.693621,0.198178 0.231207,0.165147 0.412869,0.379839 0.544988,0.644076 0.132118,0.231207 0.198177,0.511958 0.198177,0.842254 0,0.363325 -0.06606,0.677105 -0.198177,0.941342 -0.132119,0.231207 -0.313781,0.429384 -0.544988,0.594532 -0.231207,0.132118 -0.478928,0.198177 -0.743165,0.198177 z m 0,-0.495443 c 0.264237,0 0.478929,-0.115603 0.644076,-0.34681 0.165148,-0.198177 0.247722,-0.478929 0.247722,-0.842254 0,-0.264237 -0.03303,-0.495444 -0.09909,-0.693621 -0.09909,-0.165147 -0.214692,-0.297265 -0.34681,-0.396354 -0.132118,-0.09909 -0.280751,-0.148633 -0.445899,-0.148633 -0.198177,0 -0.37984,0.06606 -0.544988,0.198177 -0.198177,0.132118 -0.34681,0.297266 -0.445899,0.495443 -0.03303,0.09909 -0.04954,0.181663 -0.04954,0.247722 0,0.231207 0.04954,0.462414 0.148633,0.693621 0.06606,0.231207 0.181663,0.412869 0.34681,0.544987 0.165148,0.165148 0.346811,0.247722 0.544988,0.247722 z m 3.85955,-5.350788 V -11.967293 h 0.544987 V 89.204049 Z m 2.378128,0 V -11.967293 h 0.544987 V 89.204049 Z m -1.13952,5.796687 c 0.495443,-1.585419 1.023916,-3.137808 1.585419,-4.657167 h -2.229495 v -0.544988 h 2.97266 v 0.34681 c -0.693621,1.717537 -1.255123,3.335986 -1.684508,4.855345 z m 4.751345,-5.796687 V -11.967293 h 0.594532 V 89.204049 Z m 1.189064,0 V -11.967293 h 1.783596 V 89.204049 Z m 1.436785,4.508534 h -2.229495 v -0.445899 l 2.378128,-3.468103 h 0.495444 v 3.418559 h 0.644076 v 0.495443 h -0.644076 v 1.288153 h -0.644077 z m 0,-0.495443 v -2.378128 l -1.535874,2.378128 z m 3.364103,-4.013091 V -11.967293 h 1.783596 V 89.204049 Z m 2.378128,0 V -11.967293 h 0.594532 V 89.204049 Z m -0.346811,0.544988 c 0.330296,0 0.627562,0.09909 0.891798,0.297266 0.231207,0.198177 0.41287,0.462414 0.544988,0.792709 0.132118,0.330295 0.198177,0.710135 0.198177,1.13952 0,1.023916 -0.148633,1.783596 -0.445899,2.279039 -0.330295,0.528473 -0.776194,0.792709 -1.337697,0.792709 -0.495443,0 -0.908313,-0.148633 -1.238608,-0.445899 l 0.445899,-0.495443 0.04954,0.04954 v 0.148633 c 0.03303,0.03303 0.08257,0.06606 0.148633,0.09909 0.165148,0.09909 0.346811,0.148633 0.544988,0.148633 0.396355,0 0.693621,-0.181663 0.891798,-0.544988 0.198177,-0.363325 0.313781,-0.825738 0.34681,-1.387241 -0.132118,0.132118 -0.280751,0.231207 -0.445899,0.297266 -0.165147,0.06606 -0.34681,0.09909 -0.544987,0.09909 -0.297266,0 -0.561503,-0.06606 -0.79271,-0.198178 -0.231207,-0.132118 -0.412869,-0.31378 -0.544987,-0.544987 -0.132119,-0.231207 -0.198178,-0.511959 -0.198178,-0.842254 0,-0.297266 0.06606,-0.578017 0.198178,-0.842254 0.132118,-0.264236 0.31378,-0.462413 0.544987,-0.594532 0.231207,-0.165147 0.478929,-0.247721 0.743165,-0.247721 z m 0.04955,2.774482 c 0.231207,0 0.429384,-0.03303 0.594532,-0.09909 0.165147,-0.06606 0.297265,-0.181664 0.396354,-0.346811 0,-0.594532 -0.08257,-1.040431 -0.247721,-1.337697 -0.165148,-0.297266 -0.41287,-0.445899 -0.743165,-0.445899 -0.297266,0 -0.528473,0.09909 -0.693621,0.297266 -0.165148,0.198177 -0.247722,0.478929 -0.247722,0.842254 0,0.330295 0.08257,0.594532 0.247722,0.792709 0.198177,0.198177 0.429384,0.297266 0.693621,0.297266 z m 2.080866,-0.34681 V -11.967293 h 0.594532 V 92.176709 Z m 1.189064,0 V -11.967293 h 0.594532 V 92.176709 Z m 0.941338,1.783596 2.873572,-1.634963 -2.873572,-1.48633 V 90.24448 l 3.517648,1.882685 v 0.396354 l -3.517648,2.080862 z"
     id="text1"
     style="font-size:50.7334px;line-height:0.8;font-family:'Libre Barcode EAN13 Text';-inkscape-font-specification:'Libre Barcode EAN13 Text';text-align:center;letter-spacing:1.82823px;text-anchor:middle;stroke-width:7.55906;stroke-linejoin:bevel;paint-order:markers stroke fill"
     aria-label="7611100356749"
     sodipodi:nodetypes="ccccccccccccccccccccccccccccscsccscccccsccccsccsccssscscssccsccssccccccccccccccccccccccccccccccccccccccccccccccccccccccccccccccccscssssscsscsccssssssccssccccccccccscssssscsscsccsssssccssccccccccccccccccccccsccccccccscscscccscsccscscccsscssccccccccccscccscccsccsssscccccccscssccssccccccccccscsccscccccsccccsccsccssscscssccsccssccccccccccccccccccccccccccccccccccccccccccccccccccccccscsscscccccsscsssssscsssscsssscsscccccccccccccccccc" />
</svg>
