<?xml version="1.0" encoding="UTF-8" standalone="no"?>
<svg
   width="100"
   height="100"
   version="1.1"
   id="svg1"
   viewBox="0 0 100 100"
   sodipodi:docname="Vox-ATypI-transitional.svg"
   inkscape:version="1.3 (0e150ed, 2023-07-21)"
   xmlns:inkscape="http://www.inkscape.org/namespaces/inkscape"
   xmlns:sodipodi="http://sodipodi.sourceforge.net/DTD/sodipodi-0.dtd"
   xmlns="http://www.w3.org/2000/svg"
   xmlns:svg="http://www.w3.org/2000/svg">
  <defs
     id="defs1" />
  <sodipodi:namedview
     id="namedview1"
     pagecolor="#ffffff"
     bordercolor="#000000"
     borderopacity="0.25"
     inkscape:showpageshadow="2"
     inkscape:pageopacity="0.0"
     inkscape:pagecheckerboard="0"
     inkscape:deskcolor="#d1d1d1"
     inkscape:zoom="2.36"
     inkscape:cx="49.788136"
     inkscape:cy="49.788136"
     inkscape:window-width="1800"
     inkscape:window-height="1097"
     inkscape:window-x="0"
     inkscape:window-y="44"
     inkscape:window-maximized="1"
     inkscape:current-layer="svg1" />
  <path
     style="stroke-width:1"
     d="m 86.98282,80.028591 v 0 l 0.41421,1.812142 q -3.05476,0.698969 -4.99634,1.413471 -1.94158,0.709324 -3.02886,1.460068 -1.08729,0.750745 -1.51703,1.594685 -0.42456,0.838763 -0.42456,1.848385 v 0 q 0,1.760367 1.04587,2.692326 1.05104,0.931958 2.55253,0.931958 v 0 q 1.21673,0 2.22635,-0.621305 1.00962,-0.621306 1.61539,-1.630928 0.61095,-1.009622 0.61095,-2.174571 v 0 -9.319587 q 0,-1.863918 -0.95784,-2.977091 -0.95785,-1.113173 -3.15831,-1.113173 v 0 q -0.77663,0 -1.78625,0.243345 -1.00962,0.248522 -1.96747,0.740389 v 0 l 1.32027,-1.190836 q -0.0777,0.724857 -0.22263,1.449714 -0.13979,0.724857 -0.33654,1.294387 -0.19157,0.56953 -0.47634,0.880183 v 0 q -0.4142,0.440092 -1.03551,0.647194 -0.6213,0.207102 -1.24261,0.207102 v 0 q -0.80252,0 -1.2685,-0.372784 -0.46598,-0.377961 -0.46598,-0.947491 v 0 q 0,-0.80252 0.78699,-1.698236 0.79217,-0.890538 2.09691,-1.682703 1.30992,-0.786988 2.91496,-1.278855 1.60504,-0.491867 3.26185,-0.491867 v 0 q 2.25224,0 3.65018,0.683436 1.39793,0.688614 2.0296,2.019244 0.63683,1.335808 0.63683,3.277389 v 0 11.830698 q 0,0.80252 0.23299,1.335808 0.23299,0.52811 0.68344,0.80252 0.45562,0.269233 1.12871,0.269233 v 0 q 0.59541,0 1.27885,-0.23299 0.68861,-0.23299 1.33581,-0.621306 v 0 1.190836 q -1.0614,1.164949 -2.24188,1.708591 -1.1753,0.543643 -2.18493,0.543643 v 0 q -1.24261,0 -2.13832,-0.553998 -0.89054,-0.559175 -1.35652,-1.610217 -0.46598,-1.045865 -0.46598,-2.469691 v 0 l 0.15532,-0.258878 q -0.33654,1.449714 -1.25814,2.562887 -0.91643,1.113173 -2.20046,1.750011 -1.27885,0.631661 -2.72857,0.631661 v 0 q -2.58877,0 -4.27147,-1.449713 -1.68271,-1.449714 -1.68271,-4.167927 v 0 q 0,-1.449714 0.57989,-2.64055 0.58506,-1.190836 2.06066,-2.241878 1.4756,-1.045865 4.10062,-2.045132 2.6302,-0.994089 6.69457,-2.029599 z"
     id="path9" />
  <path
     style="stroke-width:1"
     d="m 60.91386,71.511523 v 0 q 2.51112,0 4.34915,1.113173 1.83803,1.113173 2.93567,3.246323 1.10281,2.138328 1.36169,5.218969 v 0 h -15.8433 l 0.0518,-1.734479 13.3063,-0.621305 -1.76037,1.087285 q -0.18121,-1.863918 -0.74039,-3.272211 -0.554,-1.413471 -1.53773,-2.200458 -0.98373,-0.792165 -2.51111,-0.792165 v 0 q -1.81214,0 -3.18419,0.994089 -1.37205,0.999267 -2.13833,2.91496 -0.7611,1.915693 -0.7611,4.685682 v 0 q 0,2.873539 1.12353,4.970447 1.1287,2.096907 3.14795,3.235967 2.01924,1.139061 4.71157,1.139061 v 0 q 0.98373,0 1.92604,-0.258877 0.9475,-0.258878 1.87945,-0.776633 0.93196,-0.517754 1.81215,-1.268499 v 0 l 0.64719,0.698969 q -1.29439,1.60504 -2.64055,2.656083 -1.34616,1.045864 -2.84765,1.553264 -1.50151,0.502222 -3.23599,0.502222 v 0 q -3.00298,0 -5.34841,-1.465246 -2.34025,-1.460069 -3.68641,-3.997067 -1.34617,-2.536999 -1.34617,-5.772967 v 0 q 0,-3.261856 1.24262,-5.954181 1.24261,-2.692326 3.55697,-4.297366 2.31954,-1.60504 5.52962,-1.60504 z"
     id="path8" />
  <path
     style="stroke-width:1"
     d="m 28.560638,64.366506 1.65681,-0.880183 -12.08957,31.117067 h -1.21673 L 8.678848,61.803619 4.8474576,60.405681 V 59.396059 H 17.403018 v 1.009622 l -4.47858,1.346163 6.5496,26.509049 h -1.00962 l 11.10584,-29.382589 h 1.2685 l 12.16724,30.418099 -2.07102,0.957847 6.42016,-28.502406 -4.42681,-1.346163 v -1.009622 h 10.63987 v 1.009622 l -3.75373,1.346163 -7.86987,32.851546 h -1.21672 z"
     id="path7" />
  <path
     id="path5"
     style="stroke-width:1"
     d="m 45.204048,53.396059 v -0.957847 l 4.0126,-1.242612 V 38.950698 q 0,-1.397938 -0.59542,-2.423093 -0.59542,-1.019977 -1.76036,-1.573975 -1.16495,-0.559175 -2.84766,-0.559175 v 0 q -2.04513,0 -3.79514,0.761099 -1.74483,0.766278 -2.417909,1.827675 v 0 l -1.009631,-0.828408 q 1.372051,-1.475601 2.599131,-2.495578 1.232259,-1.025155 2.407559,-1.646461 1.180481,-0.621305 2.4231,-0.906071 1.24261,-0.284765 2.61466,-0.284765 v 0 q 3.132421,0 4.64426,2.003712 1.517021,2.008888 1.517021,6.358029 v 0 12.011913 l 3.98671,1.242612 v 0.957847 z m -3.13242,-0.957847 v 0.957847 H 30.344488 V 52.438212 L 34.279418,51.1956 V 21.864787 q -0.33654,-0.414204 -0.88018,-0.828408 -0.54364,-0.414204 -1.32028,-0.838763 -0.77663,-0.429736 -1.78625,-0.84394 v 0 -0.517755 l 7.50745,-2.17457 h 0.51775 l -0.25888,4.142038 V 51.1956 Z" />
  <path
     id="path3"
     style="stroke-width:1"
     d="m 68.464889,59.223714 v -45.77053 h 6.164382 v 45.77053 l 6.087325,2.003425 v 1.502568 H 62.377564 v -1.502568 z m 19.456328,-45.231147 3.54452,0.73202 H 51.628423 l 3.544519,-0.73202 -5.201196,11.018832 -1.77226,-0.346747 1.541096,-16.1815 h 0.693492 l 5.432361,3.236299 -3.351882,-0.616438 h 38.065054 l -3.351882,0.616438 5.432361,-3.236299 h 0.693499 l 1.541096,16.1815 -1.772265,0.346747 z" />
  <path
     id="path1"
     style="stroke-width:1"
     d="m 19.105308,22.822633 v 0 q -1.37205,0 -2.241878,-0.895715 -0.864651,-0.890539 -0.864651,-2.184926 v 0 q 0,-1.294387 0.864651,-2.190103 0.869828,-0.890538 2.241878,-0.890538 v 0 q 1.372051,0 2.236701,0.890538 0.869829,0.895716 0.869829,2.190103 v 0 q 0,1.294387 -0.869829,2.184926 -0.86465,0.895715 -2.236701,0.895715 z m 1.83803,7.999313 h 0.46598 l -0.155327,4.193815 V 51.1956 l 4.012601,1.242612 v 0.957847 H 13.539445 V 52.438212 L 17.474382,51.1956 V 35.637066 Q 17.189616,35.326414 16.578666,34.95363 15.972892,34.575669 15.206615,34.213241 14.445516,33.850812 13.642996,33.617823 v 0 -0.802521 z" />
</svg>
