<?xml version="1.0" encoding="UTF-8" standalone="no"?>
            <svg
               xmlns="http://www.w3.org/2000/svg"
               xmlns:svg="http://www.w3.org/2000/svg"
               width="100"
               height="100"
               version="1.1"
               id="svg1"
               viewBox="0 0 100 100"
               >
               <path fill="black" d="M-84.83 69.17L-84.83 44.17L-29.67 44.17L-29.67 69.17L-84.83 69.17ZM-37.17 69.17L-37.17 44.17L18 44.17L18 69.17L-37.17 69.17ZM10.50 69.17L10.50 44.17L65.67 44.17L65.67 69.17L10.50 69.17ZM58.17 69.17L58.17 44.17L113.33 44.17L113.33 69.17L58.17 69.17ZM105.83 69.17L105.83 44.17L161 44.17L161 69.17L105.83 69.17ZM153.50 69.17L153.50 44.17L184.83 44.17L184.83 69.17L153.50 69.17Z"/>
            </svg>