<?xml version="1.0" encoding="UTF-8" standalone="no"?>
<svg
   width="100"
   height="100"
   version="1.1"
   id="svg1"
   viewBox="0 0 100 100"
   sodipodi:docname="Vox-ATypI-neo-grotesque.svg"
   inkscape:version="1.3 (0e150ed, 2023-07-21)"
   xmlns:inkscape="http://www.inkscape.org/namespaces/inkscape"
   xmlns:sodipodi="http://sodipodi.sourceforge.net/DTD/sodipodi-0.dtd"
   xmlns="http://www.w3.org/2000/svg"
   xmlns:svg="http://www.w3.org/2000/svg">
  <defs
     id="defs1" />
  <sodipodi:namedview
     id="namedview1"
     pagecolor="#ffffff"
     bordercolor="#000000"
     borderopacity="0.25"
     inkscape:showpageshadow="2"
     inkscape:pageopacity="0.0"
     inkscape:pagecheckerboard="0"
     inkscape:deskcolor="#d1d1d1"
     inkscape:zoom="1.417366"
     inkscape:cx="135.46254"
     inkscape:cy="45.154179"
     inkscape:window-width="1248"
     inkscape:window-height="426"
     inkscape:window-x="54"
     inkscape:window-y="403"
     inkscape:window-maximized="0"
     inkscape:current-layer="svg1" />
  <path
     id="path4"
     d="m 29.896079,95.018658 v 0 q -5.177008,0 -8.374572,-2.845451 -3.197563,-2.835935 -3.197563,-7.460982 v 0 q 0,-5.605253 5.433955,-8.802817 5.433955,-3.197564 17.577084,-4.615531 v 0 -2.198325 q 0,-3.768557 -2.169776,-5.61477 -2.160258,-1.846212 -5.928816,-1.846212 v 0 q -3.901789,0 -6.214313,1.884278 -2.303007,1.884279 -2.445755,4.862962 v 0 h -6.252379 q 0.142748,-3.406928 1.98896,-6.033498 1.846213,-2.626571 5.148459,-4.158737 3.302246,-1.522649 7.63228,-1.522649 v 0 q 6.889988,0 10.582413,3.51161 3.692425,3.521127 3.692425,10.049486 v 0 24.076894 H 41.62048 v -5.186524 q -1.703464,2.845451 -4.75828,4.3681 -3.054815,1.532166 -6.966121,1.532166 z M 24.576323,84.436245 v 0 q 0,2.62657 1.846212,4.111153 1.846213,1.4941 5.110392,1.4941 v 0 q 4.548915,0 7.175486,-2.874001 2.62657,-2.874001 2.62657,-7.851161 v 0 -3.549676 q -8.736201,0.923106 -12.752189,3.016749 -4.006471,2.093643 -4.006471,5.652836 z m 48.715264,10.582413 v 0 q -5.329273,0 -9.269128,-2.35059 -3.939855,-2.341073 -6.071565,-6.671108 -2.131709,-4.330034 -2.131709,-10.154168 v 0 q 0,-5.900266 2.131709,-10.192234 2.13171,-4.301485 5.966883,-6.642558 3.835173,-2.341074 8.945565,-2.341074 v 0 q 7.603731,0 11.791016,4.758279 4.187286,4.75828 4.187286,13.208984 v 0 2.341074 H 62.357061 q 0.285497,6.318995 3.083365,9.697373 2.807385,3.368862 7.851161,3.368862 v 0 q 3.835173,0 6.109631,-2.055577 2.274458,-2.065093 2.550438,-5.757518 v 0 h 6.395127 q -0.06662,3.692425 -2.093643,6.575942 -2.027027,2.874001 -5.357822,4.539399 -3.340312,1.674914 -7.603731,1.674914 z M 72.863342,61.63457 v 0 q -4.187286,0 -6.851922,2.664636 -2.664637,2.664637 -3.368862,7.708413 v 0 H 82.456033 Q 82.170537,67.173207 79.715264,64.403888 77.269509,61.63457 72.863342,61.63457 Z"
     style="stroke-width:1" />
  <path
     id="path1"
     d="m 26.219642,53.971987 v 0 q -11.648268,0 -17.9387132,-6.74724 Q 2,40.477507 2,28.400993 v 0 Q 2,20.730647 4.9501332,14.982646 7.8907499,9.2251275 13.220023,6.0275638 18.549296,2.83 25.582033,2.83 v 0 q 5.824134,0 10.192234,1.9604111 4.368101,1.9508946 6.813856,5.6052529 2.445756,3.663875 2.588504,8.774267 v 0 H 38.50552 Q 38.286639,15.19201 36.411877,12.774804 34.527598,10.357598 31.653597,9.2631937 28.77008,8.1592729 25.582033,8.1592729 v 0 q -7.746479,0 -12.219262,5.3958891 -4.4727824,5.395889 -4.4727824,14.845831 v 0 q 0,20.241721 17.7578984,20.241721 v 0 q 6.033499,0 10.858394,-2.483822 v 0 -12.790255 H 25.296536 v -5.25314 h 18.604872 v 21.516939 q -8.384088,4.339551 -17.681766,4.339551 z m 49.495622,-5.329273 v 0 q 7.813095,0 12.257328,-5.395889 4.434717,-5.395889 4.434717,-14.845832 v 0 q 0,-9.449942 -4.434717,-14.845831 Q 83.528359,8.1592729 75.715264,8.1592729 v 0 q -7.736962,0 -12.209744,5.3958891 -4.472783,5.395889 -4.472783,14.845831 v 0 q 0,9.449943 4.472783,14.845832 4.472782,5.395889 12.209744,5.395889 z m 0,5.329273 v 0 q -7.02322,0 -12.352493,-3.197564 -5.329273,-3.197564 -8.279406,-8.955082 -2.940617,-5.748001 -2.940617,-13.418348 v 0 q 0,-7.670346 2.940617,-13.418347 Q 58.033498,9.2251275 63.362771,6.0275638 68.692044,2.83 75.715264,2.83 v 0 q 7.10887,0 12.400077,3.1975638 5.291206,3.1975637 8.231823,8.9550822 2.950133,5.748001 2.950133,13.418347 v 0 q 0,6.395128 -2.274457,11.543586 -2.274458,5.148459 -6.395128,8.698135 v 0 q 1.712981,-0.142748 3.625809,-0.24743 1.922345,-0.104683 4.330034,-0.104683 v 0 H 102 v 4.967644 h -4.12067 q -5.61477,0 -9.164446,0.104682 -3.549677,0.104682 -5.824134,0.247431 -2.274458,0.142748 -3.87324,0.24743 -1.598782,0.114199 -3.302246,0.114199 z"
     style="stroke-width:1" />
</svg>
