<?xml version="1.0" encoding="UTF-8" standalone="no"?>
<svg
   width="100"
   height="100"
   version="1.1"
   id="svg1"
   viewBox="0 0 100 100"
   sodipodi:docname="Vox-ATypI-graphic.svg"
   inkscape:version="1.3 (0e150ed, 2023-07-21)"
   xmlns:inkscape="http://www.inkscape.org/namespaces/inkscape"
   xmlns:sodipodi="http://sodipodi.sourceforge.net/DTD/sodipodi-0.dtd"
   xmlns="http://www.w3.org/2000/svg"
   xmlns:svg="http://www.w3.org/2000/svg">
  <sodipodi:namedview
     id="namedview1"
     pagecolor="#ffffff"
     bordercolor="#000000"
     borderopacity="0.25"
     inkscape:showpageshadow="2"
     inkscape:pageopacity="0.0"
     inkscape:pagecheckerboard="0"
     inkscape:deskcolor="#d1d1d1"
     inkscape:zoom="3.5320646"
     inkscape:cx="43.317441"
     inkscape:cy="85.927082"
     inkscape:window-width="1800"
     inkscape:window-height="1097"
     inkscape:window-x="0"
     inkscape:window-y="44"
     inkscape:window-maximized="1"
     inkscape:current-layer="svg1" />
  <defs
     id="defs1"
     class="f-primary" />
  <path
     id="path36"
     d="m -32.365874,15.437422 -7.38688,-8.276032 q 4.676411,-1.642579 9.240304,-3.254863 4.566637,-1.622533 9.113049,-3.190056 v 0 q 5.565441,-2.069193 10.463589,-3.883125 4.908399,-1.811184 9.741544,-3.587587 4.843393,-1.773656 10.090533,-3.823746 v 0 l 6.38782,9.502849 Q 10.406575,0.35421 5.183815,2.026216 -0.045439,3.701977 -4.931124,5.387378 v 0 l 4.159643,5.658546 Q 1.614737,10.240249 3.949685,9.420837 6.284645,8.601425 8.541055,7.706023 v 0 q 2.19141,-0.857872 4.56014,-1.618783 2.37898,-0.758163 4.8365,-1.440337 v 0 q 1.63247,1.986873 3.15296,4.125063 1.51673,2.131689 2.48965,3.606672 0.97291,1.474982 0.97291,1.474982 v 0 q -2.90188,0.618053 -6.65527,1.727727 -3.75989,1.113426 -7.85002,2.495513 -4.09012,1.382085 -8.110213,2.810408 -4.023846,1.421822 -7.45913,2.677175 v 0 q -4.296849,1.57944 -8.588671,3.242647 -4.291831,1.66321 -8.735897,3.422982 v 0 l -6.603922,-8.901409 q 2.080716,-0.629293 4.076391,-1.330823 1.995666,-0.701525 3.881575,-1.383016 v 0 q 3.280561,-1.088021 6.830638,-2.279647 3.550069,-1.19162 6.022268,-2.133605 v 0 L -12.61038,8.598981 q -1.306122,0.424751 -2.768987,0.983334 -1.469362,0.562331 -3.173266,1.138742 v 0 q -1.703905,0.57641 -3.298043,1.132782 -1.594139,0.55637 -3.140764,1.119977 v 0 q -1.827409,0.647716 -3.682098,1.23318 -1.864928,0.58271 -3.692336,1.230426 z m 13.809254,25.74971 -6.486403,-9.6886 q 9.733539,-2.040277 18.905715,-4.077121 v 0 q 3.772505,-0.79137 8.014283,-1.775674 4.23528,-0.980552 8.50306,-1.979869 4.27428,-1.003069 8.20151,-1.961769 3.92347,-0.9652 6.9398,-1.805333 v 0 q 1.93647,3.354049 4.03053,6.140433 v 0 q 1.06391,1.422443 2.18037,2.935888 1.12296,1.50969 2.22696,3.151669 v 0 l -3.20021,1.362293 q -0.92931,0.371871 -1.88463,0.758754 -0.95532,0.386884 -1.93938,0.799031 v 0 q -0.98782,0.405648 -2.04191,0.771558 -1.05785,0.359411 -2.10041,0.805334 v 0 q -2.03414,0.84507 -5.70865,2.316541 -3.66801,1.467718 -8.02986,3.084688 v 0 l 0.4616,0.799512 q 5.66183,-0.911496 9.42114,-1.530572 3.74905,-0.621823 6.12964,-1.016923 v 0 q 3.4735,-0.618733 7.11057,-1.089238 3.63708,-0.470512 5.68094,-0.593192 v 0 q 0.96789,1.391213 2.42304,3.28113 1.46164,1.886154 3.04157,3.782031 1.58367,1.902372 2.71259,3.287286 v 0 q -5.62395,2.102969 -11.25533,4.418237 -5.63138,2.315267 -10.66368,4.527314 -5.03229,2.212058 -9.03201,4.03595 v 0 q -4.00346,1.817397 -7.87189,3.643491 -3.87494,1.82987 -7.658879,3.60718 v 0 l -8.02741,-9.535579 q 0.123504,-0.0713 2.854624,-1.405446 2.731121,-1.334141 6.89186,-3.16433 v 0 q 4.154245,-1.826452 7.918485,-3.427729 3.75774,-1.597518 6.2637,-2.481004 v 0 l -0.31523,-0.546003 q -5.52949,1.155754 -12.275508,2.155863 -6.748774,1.010362 -14.612282,2.776986 v 0 q -1.293225,-2.104731 -2.266098,-3.579737 -0.972918,-1.474983 -2.259799,-3.418707 v 0 L 7.521235,35.421878 6.992085,34.505365 q -0.71354,0.325292 -2.91903,0.948628 -2.205488,0.623327 -5.062064,1.379893 -2.866833,0.75382 -5.734939,1.430374 v 0 q -11.181589,2.78964 -11.832672,2.922872 z m 24.043665,39.393149 -8.175636,-9.372 q 9.306926,-2.92931 18.138256,-5.82672 v 0 q 3.56509,-1.165625 7.60394,-2.561446 4.03886,-1.395824 8.18748,-2.811686 4.15513,-1.419614 7.83595,-2.730048 3.68081,-1.310443 6.39351,-2.391275 v 0 q 2.14557,2.019966 4.39656,4.507738 2.251,2.487771 3.55699,4.749812 v 0 q 2.11659,3.666055 1.79775,6.701505 -0.32534,3.03921 -2.42223,5.47187 -2.09689,2.43265 -5.21693,4.23401 v 0 q -3.41905,1.97399 -7.28939,2.53585 -3.87034,0.56185 -7.5888,-0.0993 -3.72495,-0.65743 -6.75616,-2.53009 -3.04145,-1.8754 -4.73398,-4.80695 v 0 l -0.38654,-0.6695 q -2.355,0.70964 -5.04672,1.6917 -2.69172,0.98206 -4.94814,1.87746 v 0 q -1.36462,0.45853 -2.69171,0.98206 -1.3271,0.52353 -2.6542,1.04705 z m 22.46189,-8.08031 v 0 q 1.17462,1.19387 3.48675,1.73099 2.30563,0.54086 5.15532,0.11762 2.84968,-0.42325 5.59922,-2.0107 v 0 q 2.26203,-1.30598 2.83736,-2.9815 0.58183,-1.67927 -0.1237,-2.90129 v 0 q -4.4166,1.65725 -8.41445,3.06406 -3.9876,1.40955 -8.5405,2.98082 z m -17.02225,22.29066 v 0 q 3.42316,-0.84101 7.64181,-2.21065 4.21491,-1.37611 8.52677,-2.92955 4.31836,-1.5572 8.03167,-2.88641 3.71332,-1.32921 6.12051,-2.23365 v 0 q 4.48535,-1.68828 9.03919,-3.46809 4.55109,-1.76957 9.24592,-3.66544 v 0 l 12.84743,19.86559 -8.53488,2.57025 -5.53918,-9.59414 -11.96673,4.38696 q 0.62792,0.93748 1.14206,1.828 0.51039,0.88401 1.00201,1.73552 v 0 l 1.65875,2.873049 q 0.42407,0.73451 0.74306,1.28702 0.31524,0.546 0.62143,0.94123 v 0 q -0.88526,0.43317 -1.78211,0.78624 -0.89681,0.3531 -1.82613,0.72497 v 0 l -3.61078,1.35668 q -0.74306,-1.28702 -2.04436,-3.75109 -1.3013,-2.464089 -2.79647,-5.188899 v 0 l -19.63949,7.594809 q -0.78246,-0.93493 -1.55265,-1.83362 -0.76369,-0.90243 -1.60464,-1.80359 v 0 q -1.29251,-1.533139 -2.88489,-3.300489 -1.59238,-1.76734 -2.8383,-3.0847 z m 29.0877,17.656699 v 0 q 4.35624,-1.20638 8.60994,-2.44024 4.26021,-1.23761 8.51391,-2.47148 v 0 q 4.21618,-1.29885 8.52114,-2.51898 4.30497,-1.22012 8.59245,-2.39548 v 0 q 2.56402,3.16506 4.58303,5.82144 2.02925,2.65913 3.39306,4.31578 v 0 q -9.5988,1.1478 -18.96485,2.92391 -9.3558,1.77885 -18.78383,3.64274 v 0 q -1.02452,-1.77453 -2.17255,-3.47775 -1.14427,-1.69672 -2.2923,-3.39994 z m -15.58327,8.841 v 0 q -1.05829,-1.83302 -0.86481,-3.53943 0.20375,-1.70364 1.18277,-3.04023 0.97526,-1.34308 2.31428,-2.11616 v 0 q 2.44404,-1.41107 5.18927,-0.82933 2.73498,0.57899 4.38998,3.44554 v 0 q 2.04529,3.54254 1.38629,6.28906 -0.6525,2.74275 -2.79103,3.97743 v 0 q -2.44404,1.41106 -5.5352,0.50037 -3.0874,-0.90419 -5.27155,-4.68725 z"
     style="stroke-width:1"
     class="f-primary" />
  <path
     id="path16"
     d="m 10.13989,-6.9778338 -5.2126243,-0.30718 q 1.014314,-2.101043 2.001163,-4.1546142 0.984356,-2.057903 1.980235,-4.090731 v 0 q 1.1691703,-2.538618 2.2005373,-4.770464 1.035704,-2.234333 2.057848,-4.432071 1.026484,-2.200229 2.095823,-4.626756 v 0 l 5.286841,1.048206 q -1.152217,2.096713 -2.338994,4.389029 -1.1877,2.295725 -2.257596,4.480557 v 0 l 3.266821,0.505938 q 0.528357,-1.061261 1.035055,-2.110077 0.506695,-1.048814 0.961956,-2.096893 v 0 q 0.446042,-1.013971 0.986849,-2.053571 0.538314,-1.043931 1.131474,-2.087678 v 0 q 1.20441,0.120556 2.421726,0.328777 1.217316,0.20822 2.031716,0.377082 0.810994,0.167945 0.810994,0.167945 v 0 q -0.762677,1.169942 -1.646104,2.786676 -0.884346,1.620144 -1.789618,3.43958 -0.905268,1.819432 -1.771826,3.631033 -0.866553,1.8116 -1.5989,3.370354 v 0 q -0.905268,1.954845 -1.784453,3.9350402 -0.879183,1.980194 -1.780485,4.042244 v 0 l -5.155756,-0.774894 q 0.481627,-0.901884 0.914304,-1.798698 0.432678,-0.89681 0.835402,-1.750482 v 0 q 0.736308,-1.4515502 1.521284,-3.0290152 0.78839,-1.57654 1.300157,-2.71182 v 0 l -3.185426,-0.549818 q -0.294599,0.575478 -0.597031,1.247647 -0.303354,0.675581 -0.680264,1.433758 v 0 q -0.376916,0.758175 -0.723868,1.47321 -0.346957,0.715034 -0.675659,1.416703 v 0 q -0.394423,0.8229792 -0.818626,1.6342482 -0.428532,0.81376 -0.822955,1.636735 z m 17.005123,5.55831 v 0 q 0.212283,-0.52819 0.411936,-1.023193 0.203066,-0.494078 0.407053,-0.991572 v 0 l 0.675836,-1.742371 q 0.15578,-0.440985 0.290635,-0.818089 0.137341,-0.372772 0.254682,-0.685078 v 0 l -2.789895,-0.753992 -2.529528,4.267998 q -0.7284,-0.09438 -1.720612,-0.241769 -0.992216,-0.147382 -1.853628,-0.277714 v 0 q -0.529109,-0.07346 -1.044573,-0.143238 -0.512054,-0.06885 -1.043651,-0.146644 v 0 l 4.803456,-7.7121012 q 0.854206,-1.386748 1.953885,-3.153645 1.095343,-1.764406 2.235392,-3.626521 1.135718,-1.859627 2.144599,-3.493694 1.013211,-1.636551 1.662878,-2.767503 v 0 q 2.222713,0.428703 4.541385,0.813802 2.322082,0.386022 4.574012,0.584738 v 0 q -0.645141,1.750667 -1.401999,3.968868 -0.754371,2.222532 -1.516758,4.596605 -0.762387,2.374073 -1.520906,4.679659 v 0 q -0.662096,2.1925732 -1.394527,4.5235082 -0.73584,2.330013 -1.498687,4.77349901 v 0 q -0.498412,-0.06517 -0.995903,-0.133745 -0.498413,-0.06516 -0.996822,-0.13032801 v 0 q -0.835605,-0.09042 -1.840723,-0.190054 -1.005121,-0.09964 -1.807537,-0.177426 z m 5.050316,-16.5202562 -4.162815,7.508287 q 0.190993,0.05162 0.728859,0.160383 0.536944,0.112176 1.026136,0.21145 0.490117,0.09586 0.589026,0.1225912 v 0 q 0.112452,-0.4160982 0.585226,-1.6643882 0.476183,-1.247371 0.983061,-2.621852 v 0 q 0.290631,-0.818091 0.610299,-1.675912 0.317178,-0.862151 0.663393,-1.764031 v 0 l 0.948402,-2.737353 -0.490117,-0.09586 z m 6.183998,18.21696921 -5.554144,-0.0591 3.919642,-7.88142601 q 1.006019,-2.205758 2.114352,-4.5192762 1.105847,-2.317844 2.148923,-4.579466 1.040583,-2.26595 1.827954,-4.285597 v 0 q 1.984794,-0.08575 4.173124,0.212891 2.190817,0.302971 4.271302,0.865239 v 0 q 2.438598,0.659054 3.032798,1.954163 0.59761,1.296027 0.11276,3.090019 v 0 q -0.44244,1.637098 -1.65937,3.079526 -1.216932,1.442427 -2.807653,2.4398182 -1.59413,0.996469 -3.278327,1.364741 v 0 q 0.233226,1.439096 0.476045,3.140622 0.247147,1.699039 0.451156,3.232709 v 0 q 0.103987,0.88814101 0.225027,1.78088701 0.12104,0.89274999 0.221614,1.77997999 v 0 l -5.433204,0.38711 -0.117383,-4.15625 q -0.04767,-1.732963 -0.04391,-3.331251 3.53e-4,-1.599211 0.103955,-2.226306 v 0 l -0.454533,0.01621 q -0.23376,0.485786 -0.506698,1.048817 -0.272934,0.563031 -0.589931,1.234928 v 0 q -0.319485,0.667562 -0.623576,1.291707 -0.307505,0.623226 -0.606986,1.230317 v 0 z m 8.140055,-16.75386621 -2.403697,4.818028 q 0.596397,0.09531 1.562705,-0.108325 0.966311,-0.20363 1.988846,-0.615312 1.022535,-0.411682 1.781439,-0.931211 0.757982,-0.516117 0.896245,-1.027711 v 0 q 0.17329,-0.641199 -0.524232,-1.052955 -0.697522,-0.411755 -1.915117,-0.740821 v 0 l -0.702588,-0.189881 q -0.202701,-0.02183 -0.363,-0.06517 -0.160298,-0.04333 -0.320601,-0.08665 z m 6.092496,20.6003462 -5.55415,-0.0591 3.916233,-7.882343 q 1.009428,-2.204833 2.117767,-4.51835 1.10585,-2.3178462 2.14892,-4.5794682 1.04058,-2.265949 1.82795,-4.285596 v 0 q 1.9848,-0.08575 4.17313,0.212891 2.1874,0.302049 4.2713,0.86524 v 0 q 2.4386,0.659054 3.03279,1.954162 0.59761,1.296028 0.11277,3.09002 v 0 q -0.44244,1.6370982 -1.65937,3.0795262 -1.21693,1.442427 -2.80765,2.439818 -1.59414,0.996469 -3.27833,1.364741 v 0 q 0.23323,1.439096 0.47604,3.140622 0.24715,1.69903701 0.45116,3.232707 v 0 q 0.10398,0.88814 0.22502,1.78089 0.11763,0.89183 0.22162,1.77998 v 0 l -5.4332,0.38711 -0.11739,-4.15625 q -0.0477,-1.73295999 -0.0439,-3.331253 3.5e-4,-1.59921 0.10396,-2.226305 v 0 l -0.45454,0.01621 q -0.23376,0.485786 -0.50669,1.048817 -0.27294,0.563032 -0.58993,1.234928 v 0 q -0.31949,0.66756201 -0.62358,1.29170301 -0.3075,0.62323 -0.6104,1.22939999 v 0 z m 8.14005,-16.7538652 -2.4037,4.8180292 q 0.5964,0.09531 1.56271,-0.108325 0.96631,-0.203635 1.98884,-0.615313 1.02254,-0.411681 1.78144,-0.931211 0.75799,-0.516116 0.89625,-1.0277112 v 0 q 0.17329,-0.641199 -0.52423,-1.052954 -0.69752,-0.411756 -1.91512,-0.740822 v 0 l -0.706,-0.190802 q -0.19929,-0.02092 -0.35959,-0.06424 -0.1603,-0.04333 -0.3206,-0.08665 z m 5.87136,20.9175352 -5.21604,-0.3081 q 2.14414,-4.23675 4.09783,-8.28341699 v 0 q 1.14824,-2.47473801 2.33447,-5.00874601 1.18373,-2.53834 2.22727,-4.8693702 1.04012,-2.331953 1.75439,-4.203006 v 0 q 0.85801,0.264822 1.40445,0.463737 0.54892,0.203249 1.03517,0.3676 0.48965,0.165273 1.10919,0.351006 0.61954,0.185733 1.58133,0.445669 v 0 q -1.1571,2.128329 -2.30055,4.2603462 -1.14779,2.134505 -2.21769,4.31934 v 0 l 3.26682,0.505935 q 0.52836,-1.061261 1.03506,-2.110074 0.50669,-1.048817 0.96196,-2.096896 v 0 q 0.44604,-1.013971 0.98684,-2.053571 0.53832,-1.0439312 1.13148,-2.0876782 v 0 q 1.20441,0.12056 2.42172,0.328776 1.21732,0.20822 2.03172,0.377087 0.8144,0.168862 0.8144,0.168862 v 0 q -0.76609,1.1690212 -1.64951,2.7857552 -0.88435,1.620144 -1.78962,3.43958 -0.90186,1.820355 -1.77183,3.631032 -0.86655,1.81160301 -1.5989,3.370353 v 0 q -0.90526,1.95485 -1.78445,3.93504 -0.87918,1.9802 -1.78048,4.0422498 v 0 l -5.15576,-0.7748998 q 0.48163,-0.90188 0.9143,-1.79869 0.43268,-0.89682 0.8354,-1.75049 v 0 q 0.73631,-1.45155 1.5247,-3.02809 0.78499,-1.57746 1.30016,-2.71181999 v 0 l -3.18884,-0.550741 q -0.2946,0.575481 -0.59703,1.247651 -0.29994,0.67649999 -0.67685,1.43466999 v 0 q -0.37692,0.75818 -0.72728,1.47229 -0.34696,0.71504 -0.67566,1.41671 v 0 q -0.39442,0.82297 -0.81862,1.63424 -0.42512,0.81469 -0.81955,1.63766 z m 17.00171,5.5573898 v 0 q 0.21228,-0.52819 0.41535,-1.02227 0.19965,-0.495 0.40364,-0.99249 v 0 l 0.67925,-1.74145 q 0.15237,-0.4419098 0.28722,-0.8190198 0.13734,-0.37277 0.25468,-0.68507 v 0 l -2.78648,-0.75307 -2.52953,4.2679998 q -0.73181,-0.0953 -1.72402,-0.2427 -0.99222,-0.14738 -1.85022,-0.27679 v 0 q -0.53252,-0.0744 -1.04798,-0.14416 -0.51206,-0.0688 -1.04365,-0.14664 v 0 l 4.80345,-7.7120998 q 0.85421,-1.38675 1.95389,-3.15364999 1.09534,-1.76440401 2.23539,-3.62651901 1.13913,-1.858705 2.14801,-3.492773 1.0098,-1.637472 1.65947,-2.768421 v 0 q 2.22271,0.4287 4.541377,0.813799 2.32208,0.386022 4.57402,0.584738 v 0 q -0.64515,1.750666 -1.402,3.968868 -0.75438,2.222532 -1.51676,4.59660801 -0.76239,2.37406999 -1.52091,4.67965999 v 0 q -0.6621,2.19257 -1.39453,4.5235 -0.732427,2.3309398 -1.498677,4.7734998 v 0 q -0.49842,-0.0652 -0.99591,-0.13374 -0.49841,-0.0652 -0.99682,-0.13033 v 0 q -0.8356,-0.0904 -1.83731,-0.18913 -1.00512,-0.0996 -1.81095,-0.17835 z m 5.05032,-16.5202558 -4.16282,7.508286 q 0.191,0.0516 0.73227,0.16131 0.53694,0.11217 1.02614,0.21145 0.49011,0.0959 0.58561,0.12166 v 0 q 0.11246,-0.41609 0.58523,-1.66438 0.47618,-1.24737 0.98647,-2.62093 v 0 q 0.28722,-0.81901999 0.60689,-1.67683699 0.31718,-0.86215101 0.66681,-1.76311001 v 0 l 0.94498,-2.738274 -0.49011,-0.09586 z m 6.183997,18.2169658 -5.554147,-0.0591 3.919637,-7.8814198 q 1.00602,-2.20576 2.11436,-4.51927 1.10925,-2.31692999 2.14892,-4.579475 1.04399,-2.265027 1.82795,-4.285596 v 0 q 1.984795,-0.08575 4.173125,0.21289 2.19081,0.302972 4.27471,0.866162 v 0 q 2.43519,0.658132 3.02939,1.953241 0.5976,1.296028 0.11276,3.09001801 v 0 q -0.44244,1.63709999 -1.65937,3.07952999 -1.21352,1.44335 -2.80766,2.43982 -1.59413,0.99647 -3.27491,1.36566 v 0 q 0.22981,1.43817 0.47263,3.1396998 0.24715,1.69904 0.45116,3.23271 v 0 q 0.10398,0.88814 0.22502,1.78089 0.12104,0.89275 0.22503,1.78089 v 0 l -5.436615,0.38619 -0.11397,-4.15532 q -0.0477,-1.73297 -0.0473,-3.33218 0.004,-1.5982898 0.10395,-2.2262998 v 0 l -0.45111,0.0171 q -0.23718,0.48486 -0.5067,1.04881 -0.27294,0.56303 -0.59334,1.2340098 v 0 q -0.31949,0.66756 -0.62358,1.29171 -0.30751,0.62322 -0.60699,1.23031 v 0 z m 8.140045,-16.7538628 -2.40029,4.818953 q 0.59299,0.0944 1.5593,-0.10925 0.96631,-0.20363 1.98885,-0.61531 1.02253,-0.41168 1.78143,-0.93121 0.75799,-0.51612 0.89625,-1.02770999 v 0 q 0.17329,-0.6412 -0.52424,-1.05296 -0.69411,-0.410832 -1.91511,-0.74082 v 0 l -0.70259,-0.18988101 q -0.2027,-0.02183 -0.363,-0.06517 -0.1603,-0.04332 -0.3206,-0.08665 z m 6.09249,20.6003428 -5.55414,-0.0591 3.91964,-7.88142 q 1.00602,-2.2057598 2.11435,-4.5192698 1.10926,-2.31693 2.14892,-4.57947 1.04059,-2.26594999 1.82796,-4.285601 v 0 q 1.98479,-0.08575 4.17312,0.212891 2.19082,0.302972 4.27131,0.86524001 v 0 q 2.43859,0.65905 3.03279,1.95415999 0.59761,1.29603 0.11277,3.09002 v 0 q -0.44244,1.6371 -1.65938,3.07953 -1.21352,1.44335 -2.80765,2.43982 -1.59413,0.9964698 -3.27491,1.3656598 v 0 q 0.22981,1.43817 0.47263,3.1397 0.24715,1.69904 0.45115,3.23271 v 0 q 0.10399,0.88814 0.22503,1.78089 0.12104,0.89275 0.22502,1.78089 v 0 l -5.43661,0.3862 -0.11739,-4.15626 q -0.0477,-1.73296 -0.0439,-3.33125 0.004,-1.59829 0.10396,-2.2263 v 0 l -0.45112,0.0171 q -0.23718,0.48486 -0.51011,1.04789 -0.26952,0.56396 -0.58993,1.23493 v 0 q -0.31949,0.66756 -0.62358,1.29171 -0.3075,0.62322 -0.60698,1.23031 v 0 z m 8.14006,-16.7538598 -2.40029,4.81895 q 0.59299,0.0944 1.5593,-0.10925 0.9663,-0.20363 1.98884,-0.61531 1.02254,-0.41168 1.78144,-0.93121 0.75798,-0.51612 0.89624,-1.02771 v 0 q 0.17329,-0.6412 -0.52423,-1.05295 -0.69411,-0.41084 -1.91511,-0.74083 v 0 l -0.70259,-0.18988 q -0.20271,-0.0218 -0.36301,-0.0652 -0.16029,-0.0433 -0.32059,-0.0866 z m 5.17395,13.8158098 v 0 q 1.05239,-1.84921 2.06146,-3.67353 1.00998,-1.82774 2.01904,-3.6520598 v 0 q 0.97496,-1.83354 2.00569,-3.67031 1.03072,-1.83676 2.07048,-3.65279 v 0 q 1.90644,0.20416 3.46556,0.42058 1.55663,0.21209 2.56175,0.31172 v 0 q -2.82055,3.57086 -5.35479,7.27398 -2.5299,3.7006398 -5.05565,7.4536398 v 0 q -0.9311,-0.25164 -1.87631,-0.43756 -0.94861,-0.18684 -1.89723,-0.37367 z m -2.26162,8.12457 v 0 q -0.96179,-0.25993 -1.46399,-0.89338 -0.49786,-0.63594 -0.61522,-1.40692 -0.11735,-0.77099 0.0725,-1.47357 v 0 q 0.34658,-1.2824 1.45208,-2.00104 1.10457,-0.71522 2.60866,-0.30873 v 0 q 1.86219,0.50328 2.55116,1.63735 0.69328,1.13158 0.39003,2.25367 v 0 q -0.34658,1.2824 -1.67672,2.0062 -1.33354,0.72288 -3.31853,0.18642 z m 10.69269,-5.846 v 0 q 1.05239,-1.84921 2.06146,-3.67353 1.00998,-1.82773 2.01904,-3.65205 v 0 q 0.97496,-1.8335398 2.00569,-3.6703098 1.03072,-1.83677 2.07048,-3.65279 v 0 q 1.90644,0.20415 3.46215,0.41965 1.56003,0.21301 2.56516,0.31265 v 0 q -2.82055,3.57085 -5.35479,7.2739798 -2.5299,3.70064 -5.05565,7.45363 v 0 q -0.9311,-0.25164 -1.87972,-0.43847 -0.9452,-0.18592 -1.89382,-0.37276 z m -2.26503,8.12366 v 0 q -0.95838,-0.25902 -1.46058,-0.89247 -0.49786,-0.63593 -0.61522,-1.40691 -0.12076,-0.77191 0.0691,-1.4745 v 0 q 0.34658,-1.2824 1.45207,-2.00103 1.10799,-0.71431 2.61207,-0.30781 v 0 q 1.85879,0.50235 2.55116,1.63735 0.68988,1.13065 0.38662,2.25275 v 0 q -0.34658,1.2824 -1.67671,2.0062 -1.33013,0.7238 -3.31853,0.18642 z m 10.6961,-5.84508 v 0 q 1.04898,-1.85013 2.05804,-3.67445 1.00999,-1.82774 2.01905,-3.65206 v 0 q 0.97837,-1.83262 2.00909,-3.66938 1.02732,-1.8376898 2.07049,-3.6527898 v 0 q 1.90303,0.20323 3.46215,0.41965 1.56004,0.21301 2.56516,0.31265 v 0 q -2.82396,3.5699298 -5.35479,7.2739798 -2.5299,3.70063 -5.05907,7.45271 v 0 q -0.92769,-0.25072 -1.8763,-0.43756 -0.9452,-0.18591 -1.89382,-0.37275 z m -2.26502,8.12365 v 0 q -0.96181,-0.25993 -1.46059,-0.89246 -0.49787,-0.63593 -0.61521,-1.40692 -0.12077,-0.7719 0.0691,-1.47449 v 0 q 0.34658,-1.28239 1.45207,-2.00103 1.10457,-0.71523 2.61207,-0.30781 v 0 q 1.85879,0.50235 2.55115,1.63734 0.68988,1.13066 0.38663,2.25276 v 0 q -0.34658,1.28239 -1.67671,2.0062 -1.33014,0.7238 -3.31853,0.18641 z"
     style="stroke-width:1"
     class="f-primary" />
  <path
     id="path1"
     d="m 29.94413,125.77228 v 0 q -1.51609,0.29309 -3.01474,-0.0951 -1.49866,-0.38819 -2.73997,-1.54924 v 0 q -1.2773,-1.11341 -2.24063,-3.01062 -0.96248,-1.89285 -1.48549,-4.59829 v 0 q -1.02076,-5.28018 -0.26434,-9.5029 0.75642,-4.22272 2.58453,-7.296808 v 0 q 1.7854,-3.061305 4.17956,-4.843805 2.39501,-1.778142 4.69092,-2.221986 v 0 q 2.20879,-0.426999 3.78902,0.266298 1.57588,0.69414 2.54197,2.161475 0.96258,1.472534 1.34242,3.437352 v 0 l -5.40578,2.147774 q -0.68262,-1.567334 -1.43165,-2.145635 -0.74819,-0.573945 -1.52802,-0.42319 v 0 q -0.89746,0.173495 -1.67076,1.339853 -0.77247,1.170712 -1.37603,3.004762 -0.59835,1.83756 -0.93878,4.02749 -0.34042,2.18993 -0.39587,4.4513 -0.0511,2.26054 0.24275,4.20131 v 0 q 0.491,2.53988 1.4544,3.47897 0.96776,0.93824 2.1571,0.70832 v 0 q 1.14578,-0.2215 2.12661,-1.17941 0.98602,-0.95439 1.50319,-2.34692 0.51633,-1.39688 0.25487,-2.95976 v 0 l -4.25639,1.50075 -0.003,-4.20238 3.67328,-1.2208 q 1.51571,-0.50543 3.1984,-1.129 1.68705,-0.62442 2.94686,-1.12105 v 0 q 0.5245,4.2327 -0.20307,7.6228 -0.72321,3.38926 -2.29219,5.81668 -1.56898,2.42743 -3.52405,3.86292 -1.94988,1.43901 -3.91469,1.81884 z m 17.58349,-6.15605 -6.30324,2.99918 0.0729,-11.05496 q -0.0779,-3.04458 -0.10851,-6.26551 -0.0271,-3.22612 -0.10272,-6.352485 -0.0721,-3.13156 -0.29832,-5.844659 v 0 q 2.1876,-1.1912 4.82566,-2.062738 2.63454,-0.866338 5.29641,-1.380927 v 0 q 3.11061,-0.601337 4.49569,0.531914 1.38944,1.132407 1.83244,3.423969 v 0 q 0.40426,2.091158 -0.1727,4.390082 -0.5726,2.298084 -1.82122,4.302024 -1.24862,2.00395 -2.94117,3.34801 v 0 q 1.05293,1.49574 2.27022,3.28059 1.21209,1.78133 2.2886,3.39906 v 0 q 0.60744,0.94462 1.23666,1.88504 0.62922,0.94042 1.23666,1.88505 v 0 l -5.92054,3.43588 -2.42169,-4.6252 q -1.01012,-1.92884 -1.89224,-3.73328 -0.87777,-1.80529 -1.1113,-2.56912 v 0 l -0.49949,0.2683 q 0.004,0.67707 0.007,1.46291 0.003,0.78584 0.0116,1.71965 v 0 q 0.0123,0.92862 0.009,1.80144 -0.003,0.87283 -0.006,1.72303 v 0 z m -0.0618,-23.393983 -0.0531,6.762233 q 0.7211,-0.22075 1.69893,-0.98374 0.97783,-0.763 1.90428,-1.79175 0.92645,-1.028744 1.49596,-2.03368 0.5747,-1.001422 0.44837,-1.654908 v 0 q -0.15834,-0.819038 -1.17251,-0.898661 -1.01418,-0.07962 -2.56948,0.221045 v 0 l -0.90181,0.174337 q -0.24075,0.08722 -0.44115,0.125956 -0.20476,0.03959 -0.40952,0.07917 z m 18.24186,19.879453 -6.30325,2.99918 0.0729,-11.05497 q -0.0779,-3.04457 -0.1085,-6.2655 -0.0271,-3.226126 -0.10273,-6.352488 -0.0721,-3.13156 -0.30267,-5.843817 v 0 q 2.19196,-1.192042 4.82566,-2.062738 2.6389,-0.867181 5.30077,-1.38177 v 0 q 3.1106,-0.601335 4.49568,0.531914 1.38944,1.132408 1.83244,3.423969 v 0 q 0.40426,2.091159 -0.1727,4.390082 -0.5726,2.298082 -1.82122,4.302027 -1.24862,2.003951 -2.94117,3.348011 v 0 q 1.05294,1.49574 2.27022,3.28059 1.21209,1.78133 2.28861,3.39905 v 0 q 0.60743,0.94463 1.23665,1.88505 0.62922,0.94042 1.23666,1.88504 v 0 l -5.92054,3.43589 -2.42169,-4.6252 q -1.01012,-1.92884 -1.89224,-3.73329 -0.87776,-1.80529 -1.11129,-2.56911 v 0 l -0.4995,0.2683 q 0.004,0.67707 0.007,1.46291 0.003,0.78583 0.0116,1.71965 v 0 q 0.0123,0.92862 0.009,1.80144 -0.003,0.87282 -0.006,1.72302 v 0 z m -0.0662,-23.393144 -0.0487,6.761393 q 0.7211,-0.220752 1.69893,-0.983747 0.97782,-0.762996 1.90428,-1.791742 0.92645,-1.028747 1.49596,-2.033683 0.57034,-1.00058 0.44401,-1.654067 v 0 q -0.15833,-0.819037 -1.16816,-0.899502 -1.01417,-0.07962 -2.56947,0.221044 v 0 l -0.90182,0.174338 q -0.24074,0.08722 -0.4455,0.126798 -0.20476,0.03958 -0.40952,0.07917 z m 18.24621,19.878614 -6.30324,2.99917 0.0728,-11.05496 q -0.0822,-3.04373 -0.10851,-6.265504 -0.0271,-3.226126 -0.10272,-6.352487 -0.0721,-3.13156 -0.30267,-5.843818 v 0 q 2.19196,-1.192041 4.82566,-2.062736 2.6389,-0.867181 5.30077,-1.381771 v 0 q 3.1106,-0.601336 4.49569,0.531914 1.38943,1.132408 1.83243,3.423969 v 0 q 0.40426,2.091158 -0.17269,4.390082 -0.57261,2.298082 -1.82123,4.302027 -1.24862,2.003945 -2.94116,3.34801 v 0 q 1.05293,1.495744 2.27021,3.280584 1.21209,1.78133 2.28861,3.39906 v 0 q 0.60744,0.94463 1.23665,1.88505 0.62923,0.94041 1.23666,1.88504 v 0 l -5.92054,3.43588 -2.42169,-4.62519 q -1.01011,-1.92885 -1.89224,-3.73329 -0.87776,-1.80529 -1.11129,-2.56911 v 0 l -0.4995,0.2683 q -10e-6,0.67791 0.007,1.4629 0.003,0.78584 0.0116,1.71966 v 0 q 0.008,0.92945 0.009,1.80144 -0.003,0.87282 -0.006,1.72302 v 0 z m -0.0662,-23.393147 -0.0487,6.761393 q 0.72111,-0.220752 1.69893,-0.983747 0.97783,-0.762996 1.90429,-1.791743 0.92645,-1.028747 1.49595,-2.033683 0.57035,-1.000579 0.44402,-1.654066 v 0 q -0.15833,-0.819037 -1.16815,-0.899502 -1.01418,-0.07962 -2.56948,0.221044 v 0 l -0.90181,0.174337 q -0.24074,0.08722 -0.4455,0.126799 -0.20476,0.03958 -0.40952,0.07917 z m 18.24186,19.879457 -6.29888,2.99833 0.0729,-11.05496 q -0.0822,-3.043737 -0.1085,-6.265507 -0.0271,-3.226126 -0.10273,-6.352487 -0.0721,-3.13156 -0.30267,-5.843818 v 0 q 2.19195,-1.192042 4.82566,-2.062737 2.6389,-0.867181 5.30077,-1.38177 v 0 q 3.1106,-0.601336 4.49568,0.531914 1.38944,1.132408 1.83244,3.423969 v 0 q 0.40426,2.091159 -0.1727,4.390082 -0.5726,2.298081 -1.82122,4.302027 -1.24863,2.003945 -2.94117,3.348009 v 0 q 1.05293,1.495741 2.26586,3.281429 1.21645,1.780489 2.29296,3.398219 v 0 q 0.60744,0.94462 1.23666,1.88504 0.62922,0.94042 1.23666,1.88505 v 0 l -5.92054,3.43588 -2.42169,-4.6252 q -1.01011,-1.92884 -1.89224,-3.73328 -0.87776,-1.805293 -1.11129,-2.569118 v 0 l -0.4995,0.268299 q -1e-5,0.677911 0.007,1.462907 0.003,0.785842 0.0116,1.719652 v 0 q 0.008,0.92946 0.009,1.80144 -0.003,0.87283 -0.006,1.72303 v 0 z m -0.0618,-23.39399 -0.0487,6.761392 q 0.7211,-0.220751 1.69893,-0.983747 0.97783,-0.762995 1.90429,-1.791742 0.92645,-1.028747 1.49595,-2.033683 0.57035,-1.000579 0.44402,-1.654066 v 0 q -0.15833,-0.819037 -1.17251,-0.89866 -1.00982,-0.08046 -2.56947,0.221044 v 0 l -0.89746,0.173495 q -0.24074,0.08722 -0.44551,0.126799 -0.20476,0.03959 -0.40951,0.07917 z m 18.24186,19.87945 -6.29888,2.99834 0.0729,-11.054969 q -0.0822,-3.043732 -0.1085,-6.265501 -0.0271,-3.226126 -0.10273,-6.352488 -0.0764,-3.130717 -0.30267,-5.843817 v 0 q 2.19196,-1.192042 4.82566,-2.062737 2.6389,-0.867181 5.29641,-1.380928 v 0 q 3.11496,-0.602179 4.50004,0.531072 1.38944,1.132407 1.83244,3.423968 v 0 q 0.40426,2.091159 -0.17269,4.390083 -0.57261,2.298081 -1.82123,4.302026 -1.24862,2.003946 -2.94117,3.34801 v 0 q 1.05294,1.495741 2.26587,3.281429 1.21644,1.780488 2.29295,3.398213 v 0 q 0.60744,0.944629 1.23666,1.885049 0.62922,0.94042 1.23666,1.88504 v 0 l -5.92054,3.43589 -2.42605,-4.62436 q -1.01011,-1.928841 -1.88788,-3.734128 -0.87776,-1.805288 -1.11129,-2.569114 v 0 l -0.4995,0.2683 q -10e-6,0.677911 0.003,1.463749 0.007,0.784995 0.0159,1.718811 v 0 q 0.008,0.92946 0.009,1.801441 -0.003,0.872821 -0.006,1.723021 v 0 z m -0.0618,-23.393984 -0.0531,6.762235 q 0.72546,-0.221594 1.70329,-0.984589 0.97783,-0.762995 1.90428,-1.791742 0.92645,-1.028747 1.49596,-2.033683 0.57035,-1.000579 0.44402,-1.654066 v 0 q -0.15841,-0.819037 -1.17259,-0.898661 -1.00982,-0.08047 -2.56947,0.221045 v 0 l -0.89746,0.173495 q -0.24074,0.08722 -0.44551,0.126799 -0.20476,0.03959 -0.40951,0.07917 z m 13.46152,12.731942 v 0 q 0.16684,-2.667059 0.29853,-5.282131 0.13085,-2.619428 0.26255,-5.2345 v 0 q 0.0881,-2.606649 0.23739,-5.247715 0.14926,-2.641066 0.32016,-5.263717 v 0 q 2.26354,-0.821733 4.14199,-1.437957 1.87324,-0.619739 3.06222,-1.062001 v 0 q -1.21162,5.58519 -2.02722,11.161615 -0.81208,5.571226 -1.59059,11.199232 v 0 q -1.18935,0.229923 -2.35834,0.541779 -1.17334,0.312697 -2.34669,0.625395 z m 1.93194,10.414312 v 0 q -1.22856,0.23751 -2.14471,-0.20002 -0.91264,-0.44273 -1.4705,-1.2478 -0.55786,-0.80507 -0.73136,-1.70253 v 0 q -0.31666,-1.63807 0.53399,-3.058913 0.85149,-1.416482 2.77275,-1.787896 v 0 q 2.37869,-0.459845 3.78181,0.439428 1.40664,0.894075 1.68372,2.327391 v 0 q 0.31668,1.63807 -0.78457,3.18871 -1.10561,1.55147 -3.64113,2.04163 z m 10.7651,-2.08109 v 0 q -1.22419,0.23666 -2.14035,-0.20087 -0.91263,-0.44273 -1.47049,-1.2478 -0.56222,-0.80423 -0.73572,-1.70168 v 0 q -0.31667,-1.638079 0.53399,-3.058918 0.85585,-1.417325 2.7771,-1.788739 v 0 q 2.37434,-0.459003 3.78182,0.439428 1.40228,0.894918 1.67936,2.328232 v 0 q 0.31668,1.638074 -0.78457,3.188707 -1.10125,1.55063 -3.64114,2.04164 z M 144.4126,92.81496 v 0 q 0.16684,-2.667059 0.29853,-5.282131 0.13085,-2.619428 0.26254,-5.234499 v 0 q 0.0881,-2.60665 0.23739,-5.247716 0.14927,-2.641065 0.32017,-5.263717 v 0 q 2.26354,-0.821732 4.13763,-1.437114 1.8776,-0.620581 3.06657,-1.062843 v 0 q -1.21597,5.586032 -2.02721,11.161614 -0.81209,5.571226 -1.59496,11.200075 v 0 q -1.18498,0.22908 -2.35833,0.541778 -1.16898,0.311856 -2.34233,0.624553 z"
     style="stroke-width:0.999999"
     class="f-primary" />
  <path
     id="path43"
     class="f-accent"
     d="m 9.98298,65.801849 -8.929519,1.856206 q 0.752349,-4.00225 1.480031,-7.911998 0.721515,-3.915915 1.473864,-7.794829 v 0 q 0.814017,-4.8101 1.541699,-9.040522 0.721515,-4.236588 1.44303,-8.405341 0.727682,-4.17492 1.424529,-8.750682 v 0 l 9.385862,-0.641347 q -0.98052,4.057751 -1.94254,8.460843 -0.955853,4.409258 -1.763703,8.578012 v 0 l 5.735119,-0.63518 q 0.407008,-2.028876 0.783183,-4.026918 0.376174,-1.998041 0.666014,-3.971415 v 0 q 0.289839,-1.911707 0.727682,-3.909749 0.431675,-2.004208 0.955853,-4.033083 v 0 q 2.084377,-0.345341 4.230421,-0.548845 2.146045,-0.203504 3.595242,-0.28984 1.449196,-0.08634 1.449196,-0.08634 v 0 q -0.758515,2.318715 -1.510864,5.44528 -0.752349,3.132732 -1.449197,6.610805 -0.696848,3.478072 -1.332028,6.92531 -0.63518,3.447239 -1.159357,6.4073 v 0 q -0.63518,3.706244 -1.214859,7.443322 -0.579679,3.737078 -1.159357,7.622159 v 0 l -9.040522,1.042188 q 0.400842,-1.739036 0.721515,-3.447239 0.320674,-1.708202 0.610513,-3.330069 v 0 q 0.579679,-2.781224 1.184025,-5.796787 0.610512,-3.015563 0.955853,-5.161608 v 0 l -5.61795,0.524178 q -0.234339,1.103856 -0.437843,2.374216 -0.203504,1.276527 -0.493344,2.725723 v 0 q -0.289839,1.449197 -0.548844,2.812059 -0.259006,1.362862 -0.493344,2.694889 v 0 q -0.289839,1.566366 -0.63518,3.126565 -0.34534,1.566366 -0.63518,3.132732 z m 31.179316,1.621867 v 0 q 0.117169,-0.986687 0.228171,-1.911706 0.117169,-0.925019 0.234339,-1.856205 v 0 l 0.34534,-3.243734 q 0.06167,-0.814017 0.117169,-1.510865 0.06167,-0.690681 0.117169,-1.27036 v 0 h -5.044438 l -2.318715,8.343674 q -1.27036,0.17267 -3.009396,0.376174 -1.739036,0.203504 -3.249901,0.376175 v 0 q -0.925019,0.117169 -1.825371,0.234338 -0.894185,0.117169 -1.825371,0.228171 v 0 L 29.51322,52.006729 q 0.80785,-2.725723 1.856205,-6.203796 1.042189,-3.471905 2.115211,-7.128815 1.066856,-3.650743 2.028876,-6.863643 0.955853,-3.219067 1.535532,-5.420613 v 0 q 3.940582,-0.289839 8.023,-0.696847 4.088585,-0.407009 7.973666,-1.09769 v 0 q -0.28984,3.243734 -0.555012,7.326153 -0.259005,4.088585 -0.462509,8.436175 -0.203505,4.347591 -0.431676,8.578012 v 0 q -0.117169,3.996083 -0.289839,8.257339 -0.178837,4.261255 -0.351508,8.726014 v 0 q -0.869518,0.11717 -1.739036,0.228172 -0.869518,0.117169 -1.739036,0.234338 v 0 q -1.449197,0.228171 -3.188233,0.518011 -1.739036,0.289839 -3.126565,0.524177 z m 0.986687,-30.137127 -3.595241,14.54747 q 0.34534,0 1.301193,-0.06167 0.96202,-0.0555 1.825372,-0.111003 0.869518,-0.06167 1.048355,-0.06167 v 0 q 0,-0.752349 0.228171,-3.071063 0.234338,-2.318715 0.46251,-4.865602 v 0 q 0.117169,-1.510864 0.265172,-3.101898 0.141836,-1.597199 0.314507,-3.274568 v 0 l 0.351507,-5.044438 -0.869518,0.06167 z m 8.288173,-18.60522 v 0 q -2.318715,0 -3.478073,-1.535532 -1.159357,-1.535532 -1.159357,-3.447239 v 0 q 0,-2.028875 1.362861,-3.595241 1.362862,-1.566366 3.909748,-1.566366 v 0 q 2.781225,0 4.174921,1.449197 1.387529,1.449197 1.387529,3.243734 v 0 q 0,1.973374 -1.591034,3.712411 -1.597199,1.739036 -4.606595,1.739036 z m -13.44978,0 v 0 q -2.318715,0 -3.478073,-1.535532 -1.159357,-1.535532 -1.159357,-3.447239 v 0 q 0,-1.973374 1.30736,-3.564407 1.301194,-1.5972 3.909748,-1.5972 v 0 q 2.842893,0 4.205755,1.449197 1.356694,1.449197 1.356694,3.243734 v 0 q 0,2.263214 -1.708202,3.854247 -1.708202,1.5972 -4.433925,1.5972 z m 29.736285,34.484717 -6.838975,0.696848 q 0,-3.132732 0.894185,-5.593283 0.900352,-2.466718 2.294048,-4.378424 1.387528,-1.911707 2.836725,-3.299236 v 0 q 2.201546,-2.146044 4.057751,-3.767911 1.856206,-1.621867 1.856206,-2.898394 v 0 q 0,-0.351507 -0.46251,-0.955853 -0.468676,-0.610513 -1.449197,-0.610513 v 0 q -1.048355,0 -2.670222,0.869518 -1.621867,0.869518 -3.360903,2.170712 -1.739037,1.307361 -3.243734,2.694889 v 0 l -3.071064,-7.128815 q 2.953894,-2.664055 6.666305,-4.199587 3.706244,-1.535532 7.529657,-1.535532 v 0 q 2.380383,0 4.464759,0.696848 2.084377,0.696848 3.391738,2.318715 1.301193,1.621867 1.301193,4.403091 v 0 q 0,3.996084 -1.880872,6.635472 -1.887039,2.639388 -4.378425,4.489427 v 0 q -2.608554,1.917873 -4.896435,4.119419 -2.287881,2.201545 -3.04023,5.272609 z m -5.389779,15.706827 v 0 q -2.318715,0 -3.422571,-1.418363 -1.103856,-1.418362 -1.103856,-3.391737 v 0 q 0,-1.504698 0.758516,-2.953895 0.752349,-1.449196 2.201545,-2.435884 1.449197,-0.986687 3.533574,-0.986687 v 0 q 3.188233,0 4.668264,1.393696 1.473864,1.387529 1.473864,3.188233 v 0 q 0,1.621867 -0.955853,3.157399 -0.955854,1.535532 -2.781225,2.491385 -1.825371,0.955853 -4.372258,0.955853 z m 30.772307,-15.706827 -6.838976,0.696848 q 0,-3.132732 0.900352,-5.593283 0.900352,-2.466718 2.287881,-4.378424 1.393696,-1.911707 2.842893,-3.299236 v 0 q 2.201545,-2.146044 4.051584,-3.767911 1.856205,-1.621867 1.856205,-2.898394 v 0 q 0,-0.351507 -0.462509,-0.955853 -0.46251,-0.610513 -1.449197,-0.610513 v 0 q -1.042189,0 -2.664056,0.869518 -1.621867,0.869518 -3.360903,2.170712 -1.739036,1.307361 -3.249901,2.694889 v 0 l -3.071064,-7.128815 q 2.960062,-2.664055 6.666306,-4.199587 3.71241,-1.535532 7.535823,-1.535532 v 0 q 2.374213,0 4.464763,0.696848 2.08437,0.696848 3.38557,2.318715 1.30736,1.621867 1.30736,4.403091 v 0 q 0,3.996084 -1.88704,6.635472 -1.88087,2.639388 -4.37226,4.489427 v 0 q -2.608554,1.917873 -4.896435,4.119419 -2.294047,2.201545 -3.046396,5.272609 z M 86.71641,68.872913 v 0 q -2.318715,0 -3.416404,-1.418363 -1.103857,-1.418362 -1.103857,-3.391737 v 0 q 0,-1.504698 0.752349,-2.953895 0.752349,-1.449196 2.201546,-2.435884 1.449197,-0.986687 3.53974,-0.986687 v 0 q 3.188233,0 4.662097,1.393696 1.480031,1.387529 1.480031,3.188233 v 0 q 0,1.621867 -0.955853,3.157399 -0.955853,1.535532 -2.781225,2.491385 -1.825371,0.955853 -4.378424,0.955853 z" />
</svg>
