<?xml version="1.0" encoding="UTF-8" standalone="no"?>
<svg
   width="100"
   height="100"
   version="1.1"
   id="svg1"
   viewBox="0 0 100 100"
   sodipodi:docname="Vox-ATypI-script.svg"
   inkscape:version="1.3 (0e150ed, 2023-07-21)"
   xmlns:inkscape="http://www.inkscape.org/namespaces/inkscape"
   xmlns:sodipodi="http://sodipodi.sourceforge.net/DTD/sodipodi-0.dtd"
   xmlns="http://www.w3.org/2000/svg"
   xmlns:svg="http://www.w3.org/2000/svg">
  <defs
     id="defs1" />
  <sodipodi:namedview
     id="namedview1"
     pagecolor="#ffffff"
     bordercolor="#000000"
     borderopacity="0.25"
     inkscape:showpageshadow="2"
     inkscape:pageopacity="0.0"
     inkscape:pagecheckerboard="0"
     inkscape:deskcolor="#d1d1d1"
     inkscape:zoom="5.3979357"
     inkscape:cx="69.471001"
     inkscape:cy="55.854685"
     inkscape:window-width="1800"
     inkscape:window-height="1097"
     inkscape:window-x="0"
     inkscape:window-y="44"
     inkscape:window-maximized="1"
     inkscape:current-layer="svg1"
     showgrid="false" />
  <path
     d="m 74.92,47.31 v 0 q -0.26,0 -0.3,-0.65 -0.04,-0.64 -0.04,-0.82 v 0 q 0,-0.25 0.08,-1.12 0.09,-0.86 0.52,-0.94 v 0 q 1.21,-0.18 2.41,-0.44 1.21,-0.25 2.42,-0.6 v 0 q 0.17,-0.08 0.52,-0.08 v 0 q 0.43,0 0.43,0.43 v 0 q 0,0.94 -1.17,1.94 -1.16,0.99 -2.58,1.63 -1.43,0.65 -2.29,0.65 z"
     id="path3"
     class="f-accent" />
  <path
     id="path1"
     d="m 51.04,85.41 v 0 q -3.79,0 -3.79,-3.88 v 0 q 0,-2.58 1.42,-6.37 1.42,-3.8 3.58,-7.81 2.16,-4.01 4.31,-7.58 2.16,-3.58 3.53,-5.74 v 0 q -1.12,-0.08 -2.24,-0.08 -1.12,0 -2.24,0 v 0 q -4.22,0 -8.45,0.13 -4.22,0.13 -8.44,0.47 v 0 q -4.23,5.86 -8.71,11.64 -4.48,5.78 -9.05,11.38 v 0 h 0.6 q 0.17,0 0.65,0.04 0.47,0.05 0.47,0.39 v 0 q 0,0.34 -0.65,0.56 -0.64,0.22 -1.33,0.26 -0.69,0.04 -0.86,0.04 v 0 q -0.35,0.52 -1.08,1.3 -0.73,0.77 -1.42,0.77 v 0 q -0.52,0 -0.52,-0.6 v 0 q 0,-0.43 0.26,-0.86 0.26,-0.44 0.51,-0.78 v 0 Q 15.27,78.34 12.68,77.22 10.09,76.1 7.77,74.34 5.44,72.57 4.02,70.28 2.59,68 2.59,65.33 v 0 q 0,-3.11 1.9,-5.26 1.9,-2.16 5.09,-3.58 3.19,-1.42 7.02,-2.28 3.84,-0.87 7.72,-1.3 3.88,-0.43 7.24,-0.6 3.36,-0.17 5.52,-0.17 v 0 q 0.86,-1.3 2.45,-3.58 1.6,-2.28 3.41,-5.09 1.81,-2.8 3.45,-5.69 1.64,-2.88 2.67,-5.34 1.03,-2.46 1.03,-3.92 v 0 q 0,-1.81 -1.25,-2.72 -1.25,-0.9 -2.93,-1.16 -1.68,-0.26 -3.06,-0.26 v 0 q -3.7,0 -8.01,1.03 -4.31,1.04 -8.45,2.68 -4.14,1.63 -7.33,3.53 v 0 q -1.64,0.95 -3.75,2.54 -2.11,1.6 -3.66,3.58 -1.56,1.98 -1.56,4.23 v 0 q 0,2.06 1.3,3.36 1.29,1.29 3.02,2.11 1.72,0.82 3.01,1.25 1.3,0.43 1.3,0.86 v 0 q 0,0.26 -0.35,0.3 -0.34,0.05 -0.43,0.05 v 0 q -0.26,0 -0.52,-0.05 -0.26,-0.04 -0.43,-0.04 v 0 Q 15.09,49.47 12.55,48.69 10.01,47.91 8.11,46.45 6.22,44.98 6.22,42.57 v 0 q 0,-1.98 1.25,-3.92 1.25,-1.94 3.14,-3.62 1.9,-1.69 3.88,-3.06 1.98,-1.38 3.54,-2.25 v 0 q 3.53,-1.98 7.88,-3.66 4.36,-1.68 8.93,-2.72 4.57,-1.03 8.62,-1.03 v 0 q 2.24,0 4.61,0.52 2.37,0.51 3.96,1.94 1.6,1.42 1.6,4.18 v 0 q 0,1.38 -1.08,3.79 -1.08,2.42 -2.76,5.26 -1.68,2.84 -3.49,5.65 -1.81,2.8 -3.4,5.04 -1.6,2.24 -2.46,3.45 v 0 h 1.98 q 4.66,0 9.31,0.08 4.66,0.09 9.31,0.35 v 0 q 3.8,-5.86 7.8,-11.6 4.01,-5.73 8.24,-11.16 v 0 -0.26 q 0,-0.69 0.43,-1.38 v 0 q 0.52,-0.77 1.98,-2.45 1.47,-1.69 2.16,-2.63 v 0 q 0.17,-0.26 0.34,-0.56 0.17,-0.31 0.43,-0.56 v 0 q 0.69,-0.69 2.16,-1.04 1.46,-0.34 2.41,-0.34 v 0 q 0.26,0 0.99,0.13 0.74,0.12 0.74,0.64 v 0 q 0,0.09 -0.18,0.43 v 0 q -1.81,2.16 -3.66,4.23 -1.85,2.07 -3.66,4.31 v 0 q -4.31,5.34 -8.41,10.95 -4.09,5.6 -7.89,11.46 v 0 q 0.26,0 1.3,0.09 1.03,0.08 1.98,0.26 0.95,0.17 0.95,0.43 v 0 q 0,0.34 -0.82,0.56 -0.82,0.21 -1.08,0.21 v 0 q -0.78,0 -1.59,-0.04 -0.82,-0.04 -1.6,-0.13 v 0 q -1.47,2.33 -3.4,5.82 -1.94,3.49 -3.8,7.37 -1.85,3.88 -3.06,7.54 -1.21,3.67 -1.21,6.43 v 0 q 0,0.69 0.26,1.59 0.26,0.91 1.21,0.91 v 0 q 0.78,0 1.51,-0.22 0.73,-0.22 1.42,-0.22 v 0 q 0.09,0 0.39,0 0.3,0 0.3,0.18 v 0 q 0,0.34 -1.42,0.82 -1.42,0.47 -3.06,0.77 -1.64,0.3 -2.16,0.3 z m -32.41,-8.1 v 0 q 4.05,-5.69 8.28,-11.29 4.22,-5.61 8.27,-11.3 v 0 q -1.98,0.18 -5.69,0.56 -3.71,0.39 -7.93,1.17 -4.22,0.77 -8.1,2.07 -3.88,1.29 -6.34,3.19 -2.46,1.89 -2.46,4.57 v 0 q 0,2.06 1.51,3.92 1.51,1.85 3.75,3.32 2.24,1.46 4.61,2.41 2.38,0.95 4.1,1.38 z m 49.31,-2.07 v 0 q -4.22,0 -4.22,-4.31 v 0 q 0,-1.81 0.56,-3.71 0.56,-1.89 1.25,-3.53 v 0 q 0.77,-1.9 1.72,-3.71 0.95,-1.81 1.9,-3.62 v 0 q 0.43,-0.77 0.82,-1.59 0.38,-0.82 0.81,-1.6 v 0 q 0.44,-0.6 1.64,-1.03 1.21,-0.43 1.9,-0.43 v 0 q 0.09,0 0,0.04 -0.09,0.04 -0.09,0.04 v 0 q 0,0 0.05,0 0.04,0 0.04,0.09 v 0 q 0.17,-0.17 0.43,-0.17 v 0 q 0.34,0 0.43,0.3 0.09,0.3 0.09,0.56 v 0 q 0,0.6 -0.48,1.81 -0.47,1.21 -1.12,2.28 -0.64,1.08 -1.25,1.34 v 0 q -0.77,1.81 -2.02,3.97 -1.25,2.15 -2.29,4.35 -1.03,2.2 -1.03,4.27 v 0 q 0,2.41 2.58,2.41 v 0 q 1.21,0 2.63,-0.78 1.43,-0.77 2.8,-1.85 1.38,-1.08 2.38,-1.85 0.99,-0.78 1.25,-0.78 v 0 q 0.08,0 0.08,0.04 0,0.05 0,0.05 v 0 q 0,0.34 -0.26,0.73 -0.26,0.39 -0.43,0.56 v 0 q -1.03,1.38 -2.76,2.8 -1.72,1.42 -3.66,2.37 -1.94,0.95 -3.75,0.95 z m 14.05,0 v 0 q -4.22,0 -4.22,-4.31 v 0 q 0,-2.59 1.25,-5.82 1.25,-3.23 2.93,-6.42 1.68,-3.19 2.8,-5.43 v 0 q -1.21,0.08 -2.8,0.39 -1.6,0.3 -2.72,0.3 v 0 q -0.34,0 -0.64,-0.13 -0.31,-0.13 -0.31,-0.48 v 0 q 0,-0.51 0.52,-0.68 v 0 q 0.61,-0.44 1.25,-0.78 0.65,-0.35 1.25,-0.69 v 0 q 1.73,-1.12 3.32,-2.46 1.6,-1.33 3.06,-2.8 v 0 q 0.35,-0.69 0.65,-1.25 0.3,-0.56 1.16,-0.82 v 0 q 0.69,-0.17 1.98,-0.77 1.3,-0.61 1.9,-0.61 v 0 q 0.43,0 0.43,0.35 v 0 q 0,0.26 -0.56,1.38 -0.56,1.12 -1.33,2.54 -0.78,1.42 -1.43,2.59 -0.64,1.16 -0.82,1.42 v 0 q 0.52,0 1.86,0 1.33,0 2.89,0.08 1.55,0.09 2.67,0.35 1.12,0.26 1.12,0.69 v 0 q 0,0.34 -0.48,0.47 -0.47,0.13 -0.99,0.13 v 0 q -2.07,0 -4.09,0.05 -2.03,0.04 -4.01,0.3 v 0 q -0.86,1.55 -2.03,3.83 -1.16,2.29 -2.32,4.83 -1.17,2.54 -1.94,4.92 -0.78,2.37 -0.78,4.09 v 0 q 0,1.12 0.47,1.81 0.48,0.69 1.69,0.69 v 0 q 1.2,0 2.67,-0.78 1.46,-0.77 2.8,-1.85 1.34,-1.08 2.33,-1.85 0.99,-0.78 1.25,-0.78 v 0 q 0.08,0 0.08,0.04 0,0.05 0,0.05 v 0 q 0,0.34 -0.21,0.73 -0.22,0.39 -0.39,0.56 v 0 q -1.12,1.38 -2.84,2.8 -1.73,1.42 -3.67,2.37 -1.94,0.95 -3.75,0.95 z m 0.86,-23.96 v 0 q 0.78,-0.18 1.51,-0.22 0.73,-0.04 1.42,-0.13 v 0 q 0.26,-0.6 0.44,-1.21 0.17,-0.6 0.34,-1.2 v 0 q -0.95,0.6 -1.85,1.33 -0.91,0.74 -1.86,1.43 z" />
</svg>
