<?xml version="1.0" encoding="UTF-8" standalone="no"?>
            <svg
               xmlns="http://www.w3.org/2000/svg"
               xmlns:svg="http://www.w3.org/2000/svg"
               width="200"
               height="100"
               version="1.1"
               id="svg1"
               viewBox="0 0 200 100"
               >
               <path d="M10.88 51.33L10.88 51.33Q10.78 51.33 10.69 51.31Q10.59 51.30 10.51 51.25Q10.44 51.20 10.39 51.10Q10.34 51.00 10.34 50.84L10.34 50.84L10.34 48.97Q10.34 48.82 10.38 48.73Q10.43 48.63 10.50 48.57Q10.57 48.51 10.65 48.49Q10.74 48.46 10.83 48.46L10.83 48.46Q11.03 48.47 11.22 48.47Q11.42 48.47 11.61 48.48Q11.80 48.48 11.99 48.48L11.99 48.48L11.99 48.55L10.83 48.55Q10.66 48.55 10.55 48.65Q10.44 48.75 10.44 48.97L10.44 48.97L10.44 49.86L11.84 49.87L11.84 49.93L10.44 49.94L10.44 50.84Q10.44 51.02 10.50 51.11Q10.57 51.19 10.67 51.22Q10.77 51.24 10.87 51.24L10.87 51.24L11.99 51.24L11.99 51.30Q11.81 51.31 11.62 51.31Q11.44 51.32 11.25 51.32Q11.06 51.32 10.88 51.33ZM13.37 51.34L13.37 51.34Q13.30 51.34 13.19 51.34Q13.07 51.33 12.95 51.32Q12.82 51.32 12.71 51.31Q12.59 51.30 12.53 51.29L12.53 51.29L12.53 51.23Q12.61 51.23 12.74 51.24Q12.88 51.25 13.04 51.25Q13.21 51.25 13.37 51.25L13.37 51.25Q13.57 51.25 13.74 51.21Q13.90 51.17 14.01 51.05Q14.11 50.93 14.11 50.71L14.11 50.71L14.11 50.44Q14.11 50.19 13.99 50.06Q13.87 49.92 13.57 49.92L13.57 49.92L13.21 49.92Q12.91 49.92 12.72 49.79Q12.54 49.65 12.54 49.31L12.54 49.31L12.54 49.13Q12.54 48.74 12.74 48.59Q12.94 48.44 13.29 48.44L13.29 48.44Q13.39 48.44 13.54 48.45Q13.69 48.46 13.84 48.47Q13.99 48.48 14.08 48.50L14.08 48.50L14.08 48.56Q13.91 48.55 13.70 48.54Q13.49 48.52 13.29 48.52L13.29 48.52Q13.09 48.52 12.94 48.58Q12.79 48.63 12.71 48.76Q12.63 48.89 12.63 49.13L12.63 49.13L12.63 49.31Q12.63 49.62 12.79 49.72Q12.94 49.83 13.21 49.83L13.21 49.83L13.57 49.83Q13.80 49.83 13.93 49.91Q14.07 49.99 14.14 50.12Q14.20 50.26 14.20 50.44L14.20 50.44L14.20 50.71Q14.20 50.96 14.08 51.09Q13.96 51.23 13.77 51.29Q13.58 51.34 13.37 51.34ZM15.21 51.34L15.21 51.34Q14.99 51.34 14.84 51.21Q14.69 51.07 14.69 50.82L14.69 50.82L14.69 50.70Q14.69 50.45 14.85 50.30Q15.00 50.15 15.31 50.15L15.31 50.15L16.15 50.15L16.15 49.81Q16.15 49.65 16.10 49.54Q16.05 49.42 15.92 49.36Q15.78 49.29 15.55 49.29L15.55 49.29L14.88 49.29L14.88 49.23Q15.00 49.23 15.17 49.22Q15.34 49.21 15.55 49.21L15.55 49.21Q15.80 49.20 15.96 49.27Q16.11 49.34 16.18 49.48Q16.24 49.61 16.24 49.81L16.24 49.81L16.24 51.32L16.18 51.32L16.15 51.07Q16.15 51.07 16.06 51.11Q15.96 51.15 15.82 51.20Q15.68 51.26 15.51 51.30Q15.35 51.34 15.21 51.34ZM15.21 51.25L15.21 51.25Q15.30 51.25 15.42 51.22Q15.55 51.20 15.67 51.16Q15.80 51.13 15.91 51.09Q16.02 51.06 16.09 51.03Q16.15 51.00 16.15 51.00L16.15 51.00L16.15 50.22L15.29 50.24Q15.01 50.25 14.90 50.38Q14.78 50.51 14.78 50.70L14.78 50.70L14.78 50.81Q14.78 50.97 14.85 51.07Q14.91 51.16 15.01 51.20Q15.11 51.24 15.21 51.25ZM17.67 51.34L17.67 51.34Q17.36 51.34 17.18 51.24Q17.00 51.14 16.93 50.90Q16.86 50.67 16.86 50.27L16.86 50.27Q16.86 49.87 16.94 49.64Q17.02 49.41 17.20 49.32Q17.38 49.22 17.69 49.22L17.69 49.22Q17.94 49.22 18.10 49.28Q18.27 49.34 18.35 49.49Q18.43 49.63 18.43 49.88L18.43 49.88Q18.43 50.04 18.37 50.15Q18.30 50.25 18.19 50.29Q18.07 50.34 17.90 50.34L17.90 50.34L16.95 50.34Q16.95 50.67 17.01 50.87Q17.07 51.07 17.22 51.16Q17.38 51.25 17.68 51.25L17.68 51.25L18.39 51.25L18.39 51.32Q18.20 51.33 18.03 51.34Q17.87 51.34 17.67 51.34ZM16.95 50.25L16.95 50.25L17.90 50.25Q18.13 50.25 18.23 50.17Q18.34 50.10 18.34 49.88L18.34 49.88Q18.34 49.66 18.28 49.53Q18.21 49.41 18.07 49.36Q17.93 49.31 17.69 49.31L17.69 49.31Q17.40 49.31 17.24 49.39Q17.08 49.47 17.02 49.67Q16.95 49.88 16.95 50.25ZM19.74 51.34L19.74 51.34Q19.69 51.34 19.57 51.34Q19.46 51.34 19.33 51.33Q19.20 51.33 19.09 51.32Q18.99 51.32 18.95 51.32L18.95 51.32L18.95 51.25L19.74 51.25Q19.91 51.25 20.04 51.23Q20.17 51.20 20.24 51.11Q20.31 51.02 20.31 50.84L20.31 50.84L20.31 50.72Q20.31 50.54 20.19 50.44Q20.07 50.33 19.82 50.33L19.82 50.33L19.56 50.33Q19.37 50.33 19.23 50.29Q19.09 50.25 19.01 50.15Q18.94 50.04 18.94 49.86L18.94 49.86L18.94 49.76Q18.94 49.57 19.01 49.45Q19.09 49.33 19.23 49.28Q19.38 49.23 19.59 49.23L19.59 49.23Q19.68 49.23 19.82 49.23Q19.96 49.23 20.10 49.24Q20.24 49.24 20.33 49.25L20.33 49.25L20.33 49.32L19.59 49.32Q19.32 49.32 19.18 49.41Q19.03 49.50 19.03 49.76L19.03 49.76L19.03 49.86Q19.03 50.03 19.10 50.11Q19.17 50.19 19.29 50.21Q19.40 50.24 19.56 50.24L19.56 50.24L19.82 50.24Q20.08 50.24 20.24 50.36Q20.41 50.48 20.41 50.72L20.41 50.72L20.41 50.84Q20.41 51.05 20.32 51.15Q20.22 51.26 20.07 51.30Q19.92 51.34 19.74 51.34ZM21.82 51.32L21.60 51.32Q21.43 51.32 21.31 51.25Q21.19 51.19 21.13 51.05Q21.07 50.91 21.07 50.70L21.07 50.70L21.08 49.33L20.75 49.33L20.75 49.27L21.07 49.25L21.11 48.66L21.17 48.66L21.17 49.25L21.85 49.25L21.85 49.33L21.17 49.33L21.17 50.70Q21.17 50.88 21.21 50.98Q21.25 51.08 21.31 51.14Q21.37 51.19 21.44 51.21Q21.51 51.23 21.57 51.23L21.57 51.23L21.82 51.25L21.82 51.32Z"/><path d="M24.14 51.33L24.14 51.33Q24.12 51.33 24.11 51.33Q24.09 51.33 24.08 51.32L24.08 51.32Q23.59 51.29 23.32 51.27Q23.04 51.25 22.98 51.25L22.98 51.25Q22.91 51.25 22.85 51.25Q22.79 51.26 22.74 51.26L22.74 51.26Q22.68 51.27 22.52 51.28Q22.36 51.29 22.09 51.31L22.09 51.31L22.13 51.22Q22.14 51.22 22.16 51.22Q22.18 51.23 22.20 51.23L22.20 51.23Q22.32 51.23 22.44 51.18L22.44 51.18Q22.59 51.12 22.61 51.01L22.61 51.01Q22.65 50.84 22.65 50.10L22.65 50.10Q22.65 49.74 22.65 49.54Q22.65 49.34 22.65 49.30L22.65 49.30Q22.64 48.64 22.56 48.56L22.56 48.56Q22.47 48.48 22.29 48.48L22.29 48.48Q22.27 48.48 22.24 48.48Q22.22 48.48 22.19 48.48L22.19 48.48L22.24 48.40Q22.45 48.43 22.81 48.44L22.81 48.44L24.05 48.43Q24.09 48.43 24.09 48.49L24.09 48.49Q24.09 48.51 24.08 48.55Q24.08 48.58 24.07 48.63L24.07 48.63L24.03 48.77L23.98 49.03L23.90 49.01Q23.97 48.82 23.97 48.76L23.97 48.76Q23.97 48.63 23.71 48.60L23.71 48.60Q23.67 48.59 23.60 48.59Q23.53 48.59 23.44 48.59L23.44 48.59L23.37 48.59Q23.25 48.59 23.17 48.59Q23.08 48.60 23.03 48.60L23.03 48.60Q22.97 48.84 22.97 49.72L22.97 49.72L23.88 49.71Q23.92 49.71 23.92 49.77L23.92 49.77Q23.92 49.78 23.92 49.81Q23.92 49.84 23.90 49.89L23.90 49.89Q23.89 49.93 23.89 49.97Q23.88 50.00 23.88 50.03L23.88 50.03Q23.88 50.03 23.88 50.06Q23.89 50.09 23.89 50.13L23.89 50.13L23.80 50.15L23.83 50.06Q23.83 49.87 23.56 49.87L23.56 49.87Q23.30 49.85 23.13 49.85L23.13 49.85Q23.09 49.85 23.04 49.85Q23.00 49.85 22.97 49.86L22.97 49.86Q22.97 50.78 23.02 51.01L23.02 51.01Q23.03 51.09 23.10 51.12L23.10 51.12Q23.15 51.14 23.37 51.17L23.37 51.17Q23.47 51.18 23.58 51.18L23.58 51.18Q24.02 51.18 24.16 51.08L24.16 51.08Q24.24 51.02 24.31 50.89L24.31 50.89Q24.39 50.76 24.40 50.68L24.40 50.68L24.46 50.70Q24.42 50.79 24.40 50.90Q24.37 51.00 24.35 51.11L24.35 51.11Q24.33 51.23 24.29 51.27L24.29 51.27Q24.25 51.33 24.14 51.33ZM25.28 51.38L25.28 51.38Q24.95 51.38 24.78 51.29L24.78 51.29Q24.75 51.27 24.75 51.24L24.75 51.24Q24.77 50.99 24.77 50.81L24.77 50.81L24.77 50.65L24.86 50.62Q24.86 50.91 24.87 50.96L24.87 50.96Q24.90 51.08 25.07 51.17L25.07 51.17Q25.25 51.25 25.44 51.25L25.44 51.25Q25.60 51.25 25.73 51.18L25.73 51.18Q25.97 51.05 25.97 50.70L25.97 50.70Q25.97 50.53 25.90 50.38L25.90 50.38Q25.80 50.16 25.51 49.99L25.51 49.99Q25.28 49.85 25.16 49.78Q25.04 49.71 25.03 49.70L25.03 49.70Q24.81 49.51 24.81 49.22L24.81 49.22Q24.81 48.87 25.07 48.63L25.07 48.63Q25.33 48.39 25.73 48.39L25.73 48.39L25.73 48.39Q25.98 48.39 26.14 48.47L26.14 48.47Q26.24 48.52 26.24 48.56L26.24 48.56L26.24 48.58Q26.14 48.82 26.14 49.10L26.14 49.10L26.05 49.06Q26.08 48.99 26.08 48.88L26.08 48.88Q26.08 48.71 25.99 48.63L25.99 48.63Q25.83 48.51 25.61 48.51L25.61 48.51Q25.40 48.51 25.26 48.64L25.26 48.64Q25.10 48.78 25.10 49.03L25.10 49.03Q25.10 49.30 25.33 49.49L25.33 49.49Q25.37 49.52 25.49 49.60Q25.60 49.67 25.80 49.79L25.80 49.79Q26.11 49.97 26.21 50.14L26.21 50.14Q26.33 50.33 26.33 50.55L26.33 50.55Q26.33 50.77 26.22 50.95L26.22 50.95Q26.10 51.15 25.90 51.25L25.90 51.25Q25.65 51.38 25.28 51.38ZM28.18 51.33L28.18 51.33Q27.98 51.33 27.98 51.01L27.98 51.01Q27.98 50.99 27.98 50.98Q27.98 50.96 27.99 50.95L27.99 50.95Q27.95 50.96 27.93 50.99Q27.90 51.01 27.87 51.03L27.87 51.03Q27.51 51.31 27.20 51.31L27.20 51.31Q27.05 51.31 26.94 51.22Q26.84 51.14 26.78 51.01Q26.73 50.87 26.73 50.72L26.73 50.72Q26.73 50.62 26.77 50.56Q26.81 50.50 26.87 50.46Q26.94 50.42 26.98 50.38L26.98 50.38Q27.10 50.29 27.17 50.24Q27.24 50.18 27.31 50.15L27.31 50.15Q27.37 50.13 27.49 50.11Q27.62 50.10 27.76 50.09Q27.89 50.08 27.99 50.08L27.99 50.08L27.99 50.02Q27.99 49.72 27.95 49.59L27.95 49.59Q27.87 49.37 27.63 49.37L27.63 49.37Q27.33 49.37 27.16 49.53L27.16 49.53Q26.97 49.71 26.97 49.99L26.97 49.99Q26.97 50.01 26.97 50.02Q26.97 50.04 26.97 50.05L26.97 50.05L26.90 50.10L26.91 50.08Q26.91 49.96 26.85 49.75L26.85 49.75Q26.81 49.62 26.81 49.61L26.81 49.61Q26.81 49.57 26.85 49.52L26.85 49.52Q26.96 49.37 27.26 49.30L27.26 49.30Q27.37 49.27 27.49 49.25Q27.61 49.24 27.73 49.24L27.73 49.24Q28.30 49.24 28.30 49.77L28.30 49.77Q28.30 49.81 28.30 49.89Q28.30 49.96 28.29 50.06L28.29 50.06Q28.29 50.16 28.29 50.23Q28.28 50.30 28.28 50.35L28.28 50.35Q28.28 50.86 28.32 51.05L28.32 51.05Q28.36 51.19 28.55 51.21L28.55 51.21Q28.58 51.21 28.60 51.21Q28.62 51.21 28.64 51.21L28.64 51.21Q28.71 51.21 28.74 51.20L28.74 51.20L28.69 51.31Q28.65 51.30 28.58 51.31Q28.52 51.31 28.43 51.31L28.43 51.31Q28.26 51.33 28.18 51.33ZM27.40 51.06L27.40 51.06Q27.50 51.06 27.61 51.03Q27.71 50.99 27.79 50.94L27.79 50.94Q27.95 50.83 27.98 50.66L27.98 50.66Q27.98 50.59 27.98 50.48Q27.98 50.37 27.99 50.23L27.99 50.23Q27.73 50.24 27.56 50.26Q27.38 50.29 27.28 50.32L27.28 50.32Q27.14 50.38 27.08 50.48Q27.01 50.57 27.01 50.68L27.01 50.68Q27.01 50.83 27.11 50.94Q27.22 51.06 27.40 51.06ZM29.77 51.33L29.77 51.33Q29.29 51.33 29.10 51.06L29.10 51.06Q28.94 50.83 28.94 50.32L28.94 50.32Q28.94 49.90 29.07 49.63L29.07 49.63Q29.29 49.21 29.94 49.21L29.94 49.21Q30.32 49.21 30.52 49.39L30.52 49.39Q30.70 49.56 30.70 49.85L30.70 49.85L30.57 50.01Q30.47 50.16 30.44 50.16L30.44 50.16Q30.34 50.14 30.24 50.14L30.24 50.14Q30.22 50.14 30.19 50.14Q30.17 50.15 30.15 50.15L30.15 50.15L29.83 50.16Q29.66 50.16 29.52 50.16Q29.38 50.17 29.26 50.18L29.26 50.18L29.26 50.25Q29.26 50.68 29.34 50.87L29.34 50.87Q29.47 51.19 29.89 51.19L29.89 51.19Q30.49 51.19 30.59 50.66L30.59 50.66Q30.59 50.64 30.59 50.62Q30.59 50.61 30.59 50.60L30.59 50.60L30.69 50.56Q30.68 50.64 30.67 50.85L30.67 50.85Q30.68 50.89 30.68 50.95Q30.68 51.00 30.68 51.06L30.68 51.06Q30.68 51.11 30.62 51.15L30.62 51.15Q30.44 51.33 29.77 51.33ZM29.61 50.02L29.61 50.02Q29.65 50.02 29.70 50.02Q29.75 50.02 29.80 50.01L29.80 50.01Q29.99 50.01 30.12 50Q30.25 49.99 30.33 49.98L30.33 49.98Q30.42 49.97 30.42 49.84L30.42 49.84Q30.42 49.81 30.41 49.77Q30.41 49.74 30.40 49.70L30.40 49.70Q30.29 49.33 29.89 49.33L29.89 49.33Q29.36 49.33 29.28 49.87L29.28 49.87Q29.28 49.88 29.28 49.92Q29.28 49.95 29.27 50.00L29.27 50.00Q29.32 50.00 29.40 50.01Q29.48 50.02 29.61 50.02ZM31.56 51.34L31.56 51.34Q31.36 51.34 31.10 51.25L31.10 51.25Q31.06 51.24 31.06 51.22L31.06 51.22L31.06 51.21Q31.13 50.94 31.13 50.69L31.13 50.69L31.13 50.62L31.20 50.59Q31.20 50.88 31.21 50.92L31.21 50.92Q31.25 51.05 31.40 51.14L31.40 51.14Q31.55 51.24 31.71 51.24L31.71 51.24Q31.82 51.24 31.90 51.20L31.90 51.20Q32.13 51.08 32.13 50.83L32.13 50.83Q32.13 50.73 32.09 50.66L32.09 50.66Q32.02 50.51 31.76 50.38L31.76 50.38Q31.58 50.29 31.48 50.24Q31.38 50.19 31.35 50.18L31.35 50.18Q31.16 50.04 31.16 49.81L31.16 49.81Q31.16 49.56 31.39 49.39L31.39 49.39Q31.61 49.23 31.91 49.23L31.91 49.23Q32.16 49.23 32.29 49.28L32.29 49.28Q32.36 49.31 32.36 49.37L32.36 49.37L32.36 49.38Q32.34 49.46 32.34 49.60L32.34 49.60Q32.34 49.64 32.35 49.70Q32.35 49.75 32.35 49.81L32.35 49.81L32.26 49.86Q32.27 49.84 32.27 49.76L32.27 49.76L32.27 49.66Q32.26 49.49 32.13 49.40L32.13 49.40Q32.02 49.33 31.89 49.33L31.89 49.33Q31.72 49.33 31.58 49.43L31.58 49.43Q31.42 49.54 31.42 49.70L31.42 49.70Q31.42 49.86 31.62 49.99L31.62 49.99Q31.64 50.00 31.74 50.06Q31.84 50.11 32.03 50.21L32.03 50.21Q32.28 50.34 32.37 50.47L32.37 50.47Q32.45 50.58 32.45 50.73L32.45 50.73Q32.45 50.88 32.35 51.03L32.35 51.03Q32.24 51.18 32.07 51.25L32.07 51.25Q31.87 51.34 31.56 51.34ZM33.50 51.32L33.50 51.32Q33.19 51.32 33.08 51.19L33.08 51.19Q33.00 51.08 32.98 50.83L32.98 50.83Q32.98 50.80 32.98 50.77Q32.98 50.73 32.98 50.68L32.98 50.68Q32.98 50.63 32.98 50.57Q32.98 50.51 32.98 50.43L32.98 50.43Q32.98 50.38 32.99 50.26Q32.99 50.13 32.99 49.93L32.99 49.93Q32.99 49.85 32.99 49.77Q32.98 49.68 32.98 49.59L32.98 49.59L32.98 49.40L32.71 49.40L32.78 49.31L32.98 49.31L32.98 48.86Q32.98 48.83 33.13 48.72L33.13 48.72Q33.29 48.60 33.34 48.60L33.34 48.60Q33.35 48.60 33.35 48.62L33.35 48.62L33.35 48.63Q33.29 48.92 33.26 49.31L33.26 49.31L33.94 49.31Q33.95 49.31 33.95 49.32L33.95 49.32Q33.95 49.34 33.88 49.40L33.88 49.40Q33.80 49.46 33.76 49.45L33.76 49.45Q33.67 49.43 33.55 49.42Q33.42 49.41 33.26 49.40L33.26 49.40L33.25 49.55Q33.25 49.75 33.24 49.93Q33.23 50.11 33.23 50.26L33.23 50.26Q33.23 50.46 33.24 50.61Q33.24 50.76 33.26 50.86L33.26 50.86Q33.31 51.18 33.56 51.18L33.56 51.18Q33.69 51.18 33.78 51.11L33.78 51.11Q33.89 51.04 33.93 50.84L33.93 50.84Q33.94 50.74 33.96 50.60L33.96 50.60L34.06 50.56Q34.05 50.57 34.05 50.64Q34.04 50.70 34.03 50.81L34.03 50.81L34.02 51.08Q34.02 51.19 33.83 51.26L33.83 51.26Q33.74 51.29 33.66 51.31Q33.58 51.32 33.50 51.32Z"/><path d="M35.14 48.85L35.14 48.85L35.14 49.85Q35.58 49.85 36.04 49.81L36.04 49.81L36.18 49.80L36.24 49.85L36.18 50.11Q35.63 50.08 35.14 50.08L35.14 50.08L35.14 51.25L36.15 51.23L36.37 50.82L36.51 50.85L36.51 51.49L34.37 51.49L34.35 51.39L34.60 51.28Q34.69 51.25 34.72 51.21Q34.75 51.17 34.75 51.10L34.75 51.10L34.75 48.74L34.35 48.57L34.37 48.47L36.49 48.47L36.49 49.11L36.35 49.14L36.12 48.73L35.27 48.71Q35.14 48.71 35.14 48.85ZM38.43 49.24L38.40 48.80Q38.25 48.72 37.93 48.72Q37.60 48.72 37.40 48.89L37.40 48.89Q37.34 48.98 37.34 49.15L37.34 49.15Q37.34 49.51 37.73 49.65L37.73 49.65L38.33 49.88Q38.92 50.11 38.92 50.70L38.92 50.70Q38.92 51.11 38.64 51.32Q38.36 51.52 37.91 51.52L37.91 51.52Q37.28 51.52 36.88 51.14L36.88 51.14L37.18 50.64L37.29 50.67L37.36 51.12Q37.53 51.24 37.86 51.24L37.86 51.24Q38.55 51.24 38.55 50.77L38.55 50.77Q38.55 50.58 38.43 50.46Q38.31 50.34 38.05 50.24L38.05 50.24L37.52 50.03Q36.97 49.83 36.97 49.28L36.97 49.28Q36.97 48.87 37.26 48.65Q37.55 48.43 37.99 48.43L37.99 48.43Q38.54 48.43 38.87 48.81L38.87 48.81L38.54 49.27L38.43 49.24ZM39.65 50.87Q39.65 51.07 39.76 51.14Q39.86 51.22 40.01 51.22Q40.15 51.22 40.38 51.14L40.38 51.14L40.39 50.61Q39.80 50.64 39.66 50.81L39.66 50.81Q39.65 50.83 39.65 50.87L39.65 50.87ZM40.41 51.36L40.39 51.35Q40.09 51.52 39.84 51.52Q39.59 51.52 39.44 51.36Q39.29 51.20 39.29 50.96Q39.29 50.71 39.54 50.57Q39.78 50.44 40.39 50.40L40.39 50.40L40.40 50.10Q40.40 49.89 40.30 49.76Q40.19 49.64 40.01 49.64Q39.83 49.64 39.70 49.68L39.70 49.68L39.66 50.03L39.55 50.06L39.29 49.70Q39.40 49.58 39.60 49.47Q39.80 49.36 40.09 49.36L40.09 49.36Q40.78 49.36 40.78 50.20L40.78 50.20L40.76 51.24L41.08 51.35L41.05 51.45L40.65 51.52L40.56 51.49L40.41 51.36ZM41.29 50.44Q41.29 49.93 41.59 49.65Q41.88 49.36 42.27 49.36Q42.66 49.36 42.86 49.59Q43.06 49.82 43.06 50.22L43.06 50.22L43.06 50.37L42.99 50.44L41.69 50.44Q41.70 50.80 41.89 51.01Q42.08 51.23 42.38 51.23Q42.68 51.23 42.95 51.11L42.95 51.11L43.02 51.23Q42.96 51.28 42.88 51.34Q42.80 51.40 42.63 51.46Q42.45 51.52 42.26 51.52L42.26 51.52Q41.83 51.52 41.56 51.24Q41.29 50.95 41.29 50.44ZM42.22 49.66L42.22 49.66Q42.00 49.66 41.86 49.73L41.86 49.73Q41.80 49.80 41.75 49.95Q41.70 50.10 41.69 50.24L41.69 50.24L42.69 50.22Q42.69 49.66 42.22 49.66ZM44.51 49.98L44.47 49.66Q44.36 49.61 44.14 49.61Q43.92 49.61 43.81 49.72L43.81 49.72Q43.77 49.79 43.77 49.88L43.77 49.88Q43.77 50.07 44.00 50.16L44.00 50.16L44.48 50.33Q44.68 50.40 44.80 50.55Q44.92 50.71 44.92 50.92L44.92 50.92Q44.92 51.21 44.70 51.37Q44.47 51.52 44.17 51.52Q43.87 51.52 43.67 51.42Q43.47 51.33 43.38 51.21L43.38 51.21L43.61 50.83L43.73 50.86L43.75 51.17Q43.91 51.26 44.16 51.26L44.16 51.26Q44.58 51.26 44.58 50.98L44.58 50.98Q44.58 50.86 44.51 50.79Q44.44 50.72 44.27 50.67L44.27 50.67L43.84 50.53Q43.65 50.46 43.55 50.31Q43.45 50.16 43.45 49.98L43.45 49.98Q43.45 49.69 43.68 49.52Q43.91 49.36 44.22 49.36L44.22 49.36Q44.40 49.36 44.57 49.44L44.57 49.44Q44.79 49.53 44.87 49.65L44.87 49.65L44.62 50.02L44.51 49.98ZM45.49 51.07L45.49 51.07L45.49 49.62L45.16 49.62L45.14 49.52L45.49 49.36L45.69 48.93L45.87 48.96L45.87 49.40L46.42 49.40L46.47 49.45L46.42 49.63L45.87 49.61L45.87 50.97Q45.87 51.14 45.94 51.22Q46.00 51.30 46.18 51.30L46.18 51.30L46.45 51.30L46.47 51.43Q46.18 51.52 45.95 51.52Q45.73 51.52 45.61 51.40Q45.49 51.27 45.49 51.07Z"/><path d="M48.68 51.06L47.20 51.05L46.72 51.06Q46.67 51.06 46.66 51.05Q46.65 51.03 46.65 50.99Q46.65 50.94 46.67 50.93Q46.68 50.92 46.73 50.92L46.73 50.92L46.97 50.92Q46.99 50.92 46.99 50.64L46.99 50.64L46.99 50.26L46.97 49.09Q46.97 48.82 46.96 48.68Q46.94 48.54 46.94 48.54L46.94 48.54L46.75 48.54Q46.71 48.54 46.70 48.52Q46.68 48.51 46.68 48.45Q46.68 48.40 46.74 48.40L46.74 48.40L46.91 48.40Q47.08 48.41 47.17 48.41L47.17 48.41L48.16 48.40Q48.36 48.40 48.38 48.39L48.38 48.39Q48.40 48.39 48.40 48.37L48.40 48.37Q48.40 48.36 48.41 48.35Q48.41 48.34 48.41 48.33Q48.41 48.32 48.42 48.31L48.42 48.31Q48.43 48.30 48.47 48.30Q48.51 48.30 48.53 48.31Q48.55 48.32 48.55 48.35L48.55 48.35L48.53 48.88Q48.53 48.90 48.51 48.91Q48.50 48.92 48.45 48.92L48.45 48.92Q48.38 48.92 48.38 48.86L48.38 48.86L48.40 48.56Q48.40 48.55 48.02 48.54Q47.64 48.53 47.34 48.53L47.34 48.53Q47.32 48.53 47.32 48.86Q47.32 49.19 47.32 49.40Q47.32 49.62 47.33 49.63Q47.34 49.64 47.36 49.64L47.36 49.64L48.02 49.64Q48.23 49.64 48.23 49.58L48.23 49.58L48.23 49.38Q48.23 49.34 48.30 49.34Q48.37 49.34 48.37 49.37L48.37 49.37L48.36 49.69L48.37 50.03Q48.37 50.06 48.30 50.06Q48.23 50.06 48.23 50.02L48.23 50.02L48.23 49.83Q48.23 49.77 48.02 49.77L48.02 49.77Q47.69 49.77 47.52 49.77Q47.35 49.77 47.34 49.77Q47.34 49.77 47.34 49.77Q47.33 49.77 47.33 49.77Q47.33 49.78 47.33 49.78Q47.33 49.79 47.33 49.79Q47.32 49.80 47.34 50.35Q47.35 50.89 47.37 50.89L47.37 50.89L48.58 50.88Q48.60 50.88 48.60 50.87Q48.61 50.86 48.61 50.80Q48.62 50.75 48.62 50.45L48.62 50.45Q48.62 50.41 48.70 50.41Q48.77 50.41 48.77 50.45L48.77 50.45L48.76 51.01Q48.76 51.06 48.68 51.06L48.68 51.06ZM50.55 49.11L50.55 49.11L50.57 48.86Q50.57 48.80 50.47 48.72Q50.38 48.64 50.31 48.59L50.31 48.59Q50.14 48.48 49.94 48.48Q49.75 48.48 49.60 48.63Q49.46 48.77 49.46 48.98Q49.46 49.20 49.64 49.34L49.64 49.34Q49.76 49.43 50.05 49.54Q50.34 49.64 50.45 49.70L50.45 49.70Q50.70 49.83 50.79 50.02L50.79 50.02Q50.86 50.16 50.86 50.32Q50.86 50.48 50.81 50.61Q50.76 50.73 50.67 50.82Q50.58 50.92 50.47 50.98L50.47 50.98Q50.24 51.11 49.96 51.11L49.96 51.11Q49.61 51.11 49.32 51.01L49.32 51.01Q49.17 50.96 49.17 50.91Q49.16 50.87 49.15 50.73L49.15 50.73Q49.13 50.39 49.13 50.36Q49.13 50.32 49.13 50.31Q49.13 50.31 49.14 50.30L49.14 50.30Q49.14 50.28 49.19 50.28L49.19 50.28L49.21 50.28Q49.25 50.28 49.26 50.29Q49.28 50.31 49.28 50.35L49.28 50.35L49.31 50.72Q49.31 50.77 49.43 50.82Q49.56 50.88 49.72 50.92Q49.88 50.96 50.01 50.96Q50.13 50.96 50.25 50.90Q50.37 50.84 50.44 50.73Q50.51 50.62 50.51 50.51Q50.51 50.40 50.48 50.32Q50.44 50.24 50.39 50.19Q50.33 50.14 50.24 50.08L50.24 50.08Q50.12 50.01 49.96 49.95Q49.80 49.89 49.76 49.87Q49.72 49.85 49.64 49.82Q49.56 49.78 49.51 49.75Q49.47 49.73 49.41 49.69Q49.34 49.64 49.30 49.60Q49.27 49.56 49.22 49.51Q49.18 49.45 49.16 49.40L49.16 49.40Q49.10 49.25 49.10 49.13Q49.10 49.00 49.14 48.90Q49.17 48.79 49.23 48.71Q49.29 48.63 49.37 48.56Q49.45 48.49 49.55 48.45L49.55 48.45Q49.75 48.35 49.92 48.35Q50.10 48.35 50.22 48.38Q50.35 48.42 50.45 48.48Q50.54 48.55 50.56 48.55L50.56 48.55Q50.57 48.55 50.58 48.49Q50.58 48.43 50.59 48.42Q50.60 48.41 50.66 48.41Q50.71 48.41 50.72 48.42Q50.74 48.43 50.74 48.48L50.74 48.48L50.71 49.11Q50.71 49.15 50.70 49.16Q50.69 49.17 50.64 49.17Q50.59 49.17 50.57 49.16Q50.55 49.15 50.55 49.11ZM52.31 49.98L52.31 49.98L52.29 50.79Q52.29 50.86 52.34 50.89L52.34 50.89Q52.35 50.89 52.36 50.89Q52.38 50.89 52.45 50.84Q52.51 50.79 52.52 50.79Q52.53 50.79 52.55 50.82Q52.58 50.85 52.58 50.87Q52.58 50.88 52.55 50.90Q52.53 50.92 52.47 50.96Q52.41 51.00 52.33 51.06Q52.25 51.12 52.22 51.12Q52.18 51.12 52.16 51.11Q52.13 51.10 52.12 51.09Q52.10 51.07 52.09 51.05Q52.08 51.03 52.07 51.01Q52.07 51.00 52.06 50.97Q52.05 50.95 52.04 50.93L52.04 50.93Q52.03 50.90 52.00 50.92L52.00 50.92Q51.71 51.11 51.52 51.11Q51.33 51.11 51.22 51.01Q51.11 50.92 51.11 50.76L51.11 50.76Q51.11 50.58 51.26 50.46L51.26 50.46Q51.40 50.33 51.56 50.28L51.56 50.28Q51.80 50.20 52.01 50.16L52.01 50.16Q52.03 50.16 52.03 50.10Q52.03 50.04 52.03 50.00Q52.03 49.97 52.02 49.91Q52.02 49.85 52.01 49.81Q52.00 49.78 51.99 49.73Q51.97 49.69 51.95 49.66Q51.92 49.64 51.89 49.61L51.89 49.61Q51.82 49.57 51.73 49.57Q51.63 49.57 51.56 49.60Q51.50 49.62 51.48 49.67Q51.46 49.72 51.46 49.82Q51.46 49.92 51.42 49.94Q51.38 49.97 51.30 50.01Q51.22 50.05 51.20 50.05L51.20 50.05Q51.17 50.05 51.17 49.97Q51.17 49.88 51.21 49.80Q51.24 49.71 51.31 49.65Q51.37 49.59 51.45 49.54L51.45 49.54Q51.61 49.45 51.76 49.45Q51.90 49.45 51.99 49.47Q52.08 49.50 52.14 49.54Q52.20 49.59 52.24 49.66L52.24 49.66Q52.31 49.78 52.31 49.98ZM51.41 50.65L51.41 50.65Q51.41 50.71 51.44 50.77Q51.47 50.83 51.52 50.87Q51.58 50.91 51.65 50.91Q51.73 50.91 51.82 50.89L51.82 50.89Q52.03 50.83 52.03 50.80L52.03 50.80L52.03 50.28Q52.03 50.25 52.02 50.25Q52.01 50.25 51.98 50.25L51.98 50.25Q51.41 50.36 51.41 50.65ZM53.94 50.16L53.94 50.16L53.06 50.14Q53.05 50.17 53.05 50.29Q53.05 50.42 53.10 50.54Q53.15 50.67 53.22 50.75L53.22 50.75Q53.39 50.91 53.61 50.91L53.61 50.91Q53.88 50.91 54.11 50.68L54.11 50.68Q54.13 50.66 54.14 50.66Q54.14 50.66 54.18 50.69Q54.22 50.72 54.22 50.72Q54.22 50.73 54.18 50.77Q54.15 50.81 54.09 50.87Q54.03 50.93 53.95 50.98L53.95 50.98Q53.75 51.11 53.54 51.11Q53.34 51.11 53.19 51.05Q53.05 50.99 52.95 50.88Q52.85 50.78 52.80 50.63Q52.75 50.48 52.75 50.31Q52.75 50.13 52.81 49.97Q52.87 49.82 52.98 49.71L52.98 49.71Q53.21 49.46 53.57 49.46L53.57 49.46Q53.86 49.46 54.02 49.66L54.02 49.66Q54.17 49.84 54.17 50.10L54.17 50.10Q54.17 50.16 53.94 50.16ZM53.10 50.05L53.78 50.03Q53.87 50.03 53.87 50.02L53.87 50.02Q53.87 49.73 53.70 49.62L53.70 49.62Q53.61 49.57 53.52 49.57Q53.43 49.57 53.35 49.62Q53.26 49.66 53.20 49.73L53.20 49.73Q53.08 49.88 53.07 50.03L53.07 50.03Q53.07 50.05 53.10 50.05L53.10 50.05ZM54.52 50.97L54.52 50.97Q54.44 50.91 54.44 50.85Q54.44 50.79 54.50 50.73Q54.55 50.67 54.57 50.67Q54.59 50.67 54.60 50.69Q54.61 50.71 54.63 50.74Q54.64 50.77 54.69 50.83Q54.73 50.88 54.81 50.93Q54.90 50.98 55.01 50.98Q55.12 50.98 55.20 50.92Q55.27 50.86 55.27 50.74L55.27 50.74Q55.27 50.56 55.03 50.45L55.03 50.45Q54.99 50.42 54.87 50.37Q54.74 50.32 54.67 50.27L54.67 50.27Q54.46 50.14 54.46 49.93L54.46 49.93Q54.46 49.80 54.54 49.69Q54.63 49.59 54.76 49.53Q54.89 49.47 55.01 49.47Q55.12 49.47 55.20 49.49Q55.27 49.51 55.32 49.54Q55.37 49.57 55.40 49.61L55.40 49.61Q55.46 49.68 55.46 49.76L55.46 49.76Q55.46 49.79 55.40 49.81Q55.33 49.84 55.30 49.84Q55.26 49.84 55.25 49.82Q55.23 49.81 55.22 49.79Q55.21 49.76 55.20 49.74Q55.19 49.71 55.18 49.68Q55.16 49.65 55.14 49.63L55.14 49.63Q55.09 49.58 55.02 49.58Q54.95 49.58 54.91 49.59Q54.87 49.60 54.83 49.62Q54.80 49.64 54.77 49.67L54.77 49.67Q54.71 49.73 54.71 49.84L54.71 49.84Q54.71 49.95 54.79 50.02L54.79 50.02Q54.85 50.06 54.90 50.09L54.90 50.09Q54.95 50.11 54.98 50.13Q55.01 50.14 55.01 50.14L55.01 50.14Q55.15 50.20 55.28 50.28L55.28 50.28Q55.52 50.43 55.52 50.62L55.52 50.62Q55.52 50.76 55.44 50.87L55.44 50.87Q55.28 51.10 54.95 51.10L54.95 51.10Q54.69 51.10 54.52 50.97ZM55.94 50.81L55.95 49.95Q55.95 49.72 55.90 49.72L55.90 49.72L55.80 49.72Q55.77 49.72 55.77 49.68L55.77 49.68Q55.77 49.66 55.79 49.64L55.79 49.64L56.15 49.14Q56.18 49.10 56.20 49.10L56.20 49.10Q56.25 49.10 56.25 49.15L56.25 49.15L56.22 49.53Q56.22 49.55 56.23 49.55Q56.23 49.56 56.26 49.56L56.26 49.56L56.66 49.56Q56.69 49.56 56.69 49.58L56.69 49.58Q56.69 49.58 56.68 49.63Q56.67 49.68 56.65 49.70Q56.64 49.71 56.61 49.71L56.61 49.71L56.24 49.71Q56.22 49.71 56.22 49.88L56.22 49.88L56.22 50.64Q56.22 50.79 56.25 50.82L56.25 50.82Q56.31 50.88 56.39 50.88Q56.47 50.88 56.54 50.86Q56.61 50.85 56.66 50.83Q56.71 50.81 56.73 50.81Q56.75 50.81 56.75 50.85Q56.75 50.89 56.74 50.89Q56.74 50.90 56.70 50.93Q56.65 50.96 56.49 51.02Q56.33 51.09 56.24 51.09Q56.15 51.09 56.09 51.06Q56.03 51.03 56.00 50.99L56.00 50.99Q55.94 50.91 55.94 50.81L55.94 50.81Z"/><path d="M59.00 51.57L57.10 51.57L57.10 51.35L57.36 51.32L57.36 48.74L57.10 48.71L57.10 48.49L58.96 48.49Q59.08 48.49 59.08 48.62L59.08 48.62L59.08 49.18L58.87 49.18L58.84 48.72L57.70 48.72L57.70 49.89L58.89 49.89L58.89 50.12L57.70 50.12L57.70 51.34L58.87 51.34L58.91 50.89L59.13 50.89L59.13 51.44Q59.13 51.57 59.00 51.57L59.00 51.57ZM60.60 51.63L60.60 51.63Q60.21 51.63 59.95 51.40Q59.68 51.18 59.59 50.77L59.59 50.77L59.89 50.70Q60.05 51.37 60.60 51.37L60.60 51.37Q60.90 51.37 61.07 51.22Q61.23 51.08 61.23 50.81L61.23 50.81Q61.23 50.64 61.15 50.53Q61.07 50.42 60.93 50.34Q60.79 50.26 60.63 50.19Q60.46 50.12 60.30 50.04Q60.13 49.96 59.99 49.85Q59.86 49.75 59.77 49.59Q59.69 49.44 59.69 49.21L59.69 49.21Q59.69 48.85 59.94 48.64Q60.19 48.43 60.62 48.43L60.62 48.43Q60.83 48.43 61.04 48.48Q61.25 48.53 61.48 48.64L61.48 48.64L61.38 48.89Q60.97 48.69 60.62 48.69L60.62 48.69Q60.34 48.69 60.18 48.83Q60.02 48.97 60.02 49.21L60.02 49.21Q60.02 49.38 60.11 49.50Q60.19 49.62 60.33 49.70Q60.47 49.79 60.63 49.85Q60.80 49.92 60.96 50Q61.13 50.08 61.27 50.18Q61.40 50.29 61.49 50.44Q61.57 50.59 61.57 50.81L61.57 50.81Q61.57 51.18 61.31 51.41Q61.05 51.63 60.60 51.63ZM62.57 51.63L62.57 51.63Q62.29 51.63 62.12 51.45Q61.95 51.28 61.95 50.98L61.95 50.98Q61.95 50.56 62.31 50.36Q62.66 50.16 63.43 50.16L63.43 50.16L63.43 50Q63.43 49.65 63.31 49.50Q63.19 49.35 62.91 49.35L62.91 49.35Q62.75 49.35 62.57 49.40Q62.38 49.46 62.22 49.55L62.22 49.55L62.11 49.30Q62.31 49.21 62.53 49.15Q62.76 49.10 62.94 49.10L62.94 49.10Q63.36 49.10 63.56 49.31Q63.76 49.52 63.76 49.96L63.76 49.96L63.76 51.11Q63.76 51.34 63.94 51.34L63.94 51.34Q64.03 51.34 64.11 51.32L64.11 51.32L64.15 51.57Q63.99 51.63 63.83 51.63L63.83 51.63Q63.43 51.63 63.43 51.15L63.43 51.15L63.43 51.07Q63.30 51.34 63.07 51.48Q62.84 51.63 62.57 51.63ZM62.68 51.37L62.68 51.37Q62.90 51.37 63.07 51.25Q63.24 51.12 63.34 50.90Q63.43 50.67 63.43 50.38L63.43 50.38Q62.84 50.38 62.55 50.52Q62.27 50.67 62.27 50.96L62.27 50.96Q62.27 51.15 62.38 51.26Q62.49 51.37 62.68 51.37ZM65.64 51.63L65.64 51.63Q65.32 51.63 65.08 51.47Q64.84 51.32 64.70 51.04Q64.57 50.77 64.57 50.40L64.57 50.40Q64.57 49.79 64.84 49.44Q65.12 49.10 65.60 49.10L65.60 49.10Q65.90 49.10 66.11 49.24Q66.33 49.37 66.44 49.62Q66.56 49.88 66.56 50.23L66.56 50.23L66.56 50.43L64.90 50.43Q64.91 50.87 65.11 51.12Q65.31 51.37 65.65 51.37L65.65 51.37Q65.96 51.37 66.34 51.18L66.34 51.18L66.44 51.42Q66.24 51.52 66.03 51.57Q65.82 51.63 65.64 51.63ZM64.91 50.20L64.91 50.20L66.23 50.20Q66.23 49.81 66.06 49.58Q65.89 49.36 65.60 49.36L65.60 49.36Q65.30 49.36 65.12 49.57Q64.94 49.79 64.91 50.20ZM67.88 51.63L67.88 51.63Q67.53 51.63 67.30 51.45Q67.08 51.27 67.00 50.94L67.00 50.94L67.29 50.87Q67.44 51.38 67.88 51.38L67.88 51.38Q68.13 51.38 68.26 51.27Q68.40 51.17 68.40 50.97L68.40 50.97Q68.40 50.83 68.30 50.74Q68.21 50.64 68.06 50.58Q67.91 50.51 67.74 50.45Q67.57 50.38 67.42 50.29Q67.27 50.21 67.18 50.07Q67.08 49.94 67.08 49.73L67.08 49.73Q67.08 49.44 67.31 49.27Q67.53 49.10 67.91 49.10L67.91 49.10Q68.10 49.10 68.28 49.14Q68.47 49.18 68.66 49.27L68.66 49.27L68.56 49.51Q68.23 49.36 67.91 49.36L67.91 49.36Q67.67 49.36 67.55 49.45Q67.42 49.55 67.42 49.73L67.42 49.73Q67.42 49.87 67.51 49.97Q67.61 50.06 67.76 50.13Q67.91 50.20 68.07 50.27Q68.24 50.33 68.39 50.42Q68.54 50.51 68.63 50.64Q68.73 50.77 68.73 50.97L68.73 50.97Q68.73 51.28 68.50 51.45Q68.28 51.63 67.88 51.63ZM69.87 51.63L69.87 51.63Q69.66 51.63 69.56 51.51Q69.46 51.40 69.46 51.14L69.46 51.14L69.46 49.39L69.09 49.39L69.09 49.16L69.46 49.16L69.46 48.61L69.79 48.53L69.79 49.16L70.25 49.16L70.25 49.39L69.79 49.39L69.79 51.11Q69.79 51.34 69.98 51.34L69.98 51.34Q70.10 51.34 70.22 51.29L70.22 51.29L70.25 51.55Q70.05 51.63 69.87 51.63Z"/><path d="M70.72 51.43L70.72 48.64L72.94 48.64L72.94 48.79L70.96 48.79L70.96 49.86L72.71 49.86L72.71 50.00L70.96 50.00L70.96 51.28L72.94 51.28L72.94 51.43L70.72 51.43ZM74.55 51.47Q73.98 51.47 73.66 51.24Q73.34 51.02 73.30 50.59L73.30 50.59L73.54 50.59Q73.57 50.96 73.82 51.14Q74.06 51.32 74.55 51.32L74.55 51.32Q75.00 51.32 75.24 51.16Q75.49 51.00 75.49 50.71L75.49 50.71Q75.49 50.54 75.40 50.42Q75.30 50.30 75.08 50.21Q74.86 50.13 74.47 50.06L74.47 50.06Q74.06 49.98 73.82 49.88Q73.58 49.79 73.47 49.65Q73.37 49.51 73.37 49.31L73.37 49.31Q73.37 49.09 73.51 48.93Q73.65 48.77 73.91 48.68Q74.16 48.60 74.51 48.60L74.51 48.60Q75.01 48.60 75.30 48.78Q75.60 48.97 75.66 49.32L75.66 49.32L75.42 49.32Q75.36 49.03 75.13 48.89Q74.90 48.75 74.48 48.75L74.48 48.75Q74.06 48.75 73.84 48.88Q73.61 49.02 73.61 49.27L73.61 49.27Q73.61 49.43 73.70 49.54Q73.79 49.64 73.99 49.72Q74.20 49.80 74.57 49.87L74.57 49.87Q75.00 49.95 75.25 50.06Q75.51 50.16 75.62 50.32Q75.73 50.47 75.73 50.69L75.73 50.69Q75.73 51.05 75.42 51.26Q75.11 51.47 74.55 51.47L74.55 51.47ZM76.95 51.47Q76.59 51.47 76.40 51.31Q76.20 51.16 76.20 50.87L76.20 50.87Q76.20 50.56 76.44 50.40Q76.68 50.24 77.14 50.24L77.14 50.24L77.76 50.24L77.76 50.09Q77.76 49.84 77.60 49.70Q77.44 49.57 77.13 49.57L77.13 49.57Q76.84 49.57 76.66 49.69Q76.49 49.82 76.46 50.04L76.46 50.04L76.27 50.04Q76.31 49.75 76.53 49.59Q76.76 49.43 77.13 49.43L77.13 49.43Q77.54 49.43 77.76 49.62Q77.98 49.80 77.98 50.14L77.98 50.14L77.98 50.79Q77.98 51.12 78.03 51.43L78.03 51.43L77.83 51.43Q77.79 51.25 77.78 51.04L77.78 51.04Q77.52 51.47 76.95 51.47L76.95 51.47ZM77.02 51.34Q77.22 51.34 77.39 51.24Q77.56 51.14 77.66 50.97Q77.76 50.81 77.76 50.61L77.76 50.61L77.76 50.37L77.20 50.37Q76.79 50.37 76.61 50.49Q76.42 50.61 76.42 50.87L76.42 50.87Q76.42 51.10 76.57 51.22Q76.73 51.34 77.02 51.34L77.02 51.34ZM79.50 51.33Q79.78 51.33 79.99 51.19Q80.20 51.05 80.26 50.83L80.26 50.83L80.46 50.83Q80.38 51.12 80.13 51.30Q79.87 51.47 79.52 51.47L79.52 51.47Q79.21 51.47 78.98 51.34Q78.75 51.22 78.62 50.99Q78.49 50.76 78.49 50.46L78.49 50.46Q78.49 50.15 78.62 49.92Q78.75 49.69 78.98 49.56Q79.21 49.43 79.51 49.43L79.51 49.43Q79.95 49.43 80.21 49.70Q80.47 49.96 80.49 50.42L80.49 50.42L78.71 50.42L78.71 50.44Q78.71 50.85 78.92 51.09Q79.14 51.33 79.50 51.33L79.50 51.33ZM79.51 49.57Q79.17 49.57 78.96 49.76Q78.76 49.95 78.72 50.29L78.72 50.29L80.30 50.29Q80.24 49.94 80.04 49.75Q79.84 49.57 79.51 49.57L79.51 49.57ZM81.92 51.47Q81.52 51.47 81.26 51.30Q81.01 51.14 80.97 50.86L80.97 50.86L81.18 50.86Q81.21 51.07 81.41 51.20Q81.62 51.33 81.93 51.33L81.93 51.33Q82.23 51.33 82.42 51.21Q82.60 51.09 82.60 50.89L82.60 50.89Q82.60 50.77 82.54 50.70Q82.48 50.62 82.33 50.57Q82.18 50.52 81.90 50.48L81.90 50.48Q81.58 50.43 81.39 50.36Q81.20 50.30 81.12 50.20Q81.04 50.11 81.04 49.96L81.04 49.96Q81.04 49.72 81.27 49.58Q81.50 49.43 81.89 49.43L81.89 49.43Q82.27 49.43 82.52 49.60Q82.76 49.76 82.81 50.04L82.81 50.04L82.60 50.04Q82.56 49.83 82.37 49.70Q82.18 49.57 81.89 49.57L81.89 49.57Q81.61 49.57 81.43 49.68Q81.25 49.78 81.25 49.94L81.25 49.94Q81.25 50.05 81.31 50.11Q81.37 50.17 81.53 50.22Q81.68 50.26 81.99 50.32L81.99 50.32Q82.44 50.39 82.63 50.52Q82.82 50.65 82.82 50.89L82.82 50.89Q82.82 51.15 82.57 51.31Q82.33 51.47 81.92 51.47L81.92 51.47ZM83.89 51.47Q83.65 51.47 83.55 51.33Q83.44 51.19 83.44 50.88L83.44 50.88L83.44 49.61L83.08 49.61L83.13 49.47L83.44 49.47L83.58 48.92L83.65 48.92L83.65 49.47L84.21 49.47L84.16 49.61L83.65 49.61L83.65 50.95Q83.65 51.14 83.72 51.24Q83.79 51.33 83.93 51.33L83.93 51.33Q84.07 51.33 84.20 51.26L84.20 51.26L84.20 51.40Q84.06 51.47 83.89 51.47L83.89 51.47Z"/><path d="M87.38 51.79L85.32 51.79L85.86 48.74L87.90 48.74L87.64 49.52L86.64 49.52L86.58 49.93L87.50 49.93L87.37 50.64L86.45 50.64L86.38 51.01L87.52 51.01L87.38 51.79ZM85.71 48.74L85.67 48.96L83.61 48.74L85.71 48.74ZM85.62 49.21L85.59 49.43L83.52 49.21L85.62 49.21ZM85.55 49.68L85.51 49.90L83.44 49.68L85.55 49.68ZM85.46 50.14L85.42 50.36L83.36 50.14L85.46 50.14ZM85.38 50.61L85.34 50.83L83.27 50.61L85.38 50.61ZM85.30 51.08L85.26 51.30L83.19 51.08L85.30 51.08ZM85.21 51.55L85.18 51.77L83.11 51.55L85.21 51.55ZM90.00 51.86L90.00 51.86Q89.72 51.86 89.44 51.83Q89.16 51.80 88.91 51.73L88.91 51.73L89.18 50.93Q89.36 50.98 89.58 51.01Q89.79 51.04 89.98 51.04L89.98 51.04Q90.14 51.04 90.26 51.03Q90.37 51.03 90.48 51.01L90.48 51.01L90.52 50.77L90.12 50.73Q89.64 50.68 89.45 50.51Q89.27 50.34 89.27 50.05L89.27 50.05Q89.27 49.92 89.30 49.76L89.30 49.76Q89.37 49.34 89.52 49.11Q89.67 48.87 89.95 48.77Q90.23 48.67 90.69 48.67L90.69 48.67Q90.95 48.67 91.21 48.70Q91.47 48.72 91.71 48.79L91.71 48.79L91.46 49.57Q91.27 49.53 91.10 49.51Q90.93 49.50 90.72 49.50L90.72 49.50Q90.60 49.50 90.53 49.50Q90.45 49.51 90.34 49.52L90.34 49.52L90.30 49.76L90.62 49.79Q90.97 49.83 91.17 49.93Q91.37 50.03 91.46 50.18Q91.54 50.32 91.54 50.52L91.54 50.52Q91.54 50.58 91.53 50.64Q91.52 50.70 91.52 50.77L91.52 50.77Q91.45 51.16 91.30 51.39Q91.14 51.61 90.94 51.71Q90.73 51.81 90.49 51.84Q90.25 51.86 90.00 51.86ZM89.44 48.94L89.44 48.94L87.56 48.74L89.66 48.74Q89.59 48.78 89.54 48.83Q89.49 48.88 89.44 48.94ZM89.29 49.21L89.22 49.42L87.19 49.21L89.29 49.21ZM89.13 49.90L89.13 49.90L87.06 49.68L89.16 49.68Q89.15 49.69 89.15 49.70Q89.15 49.72 89.15 49.73L89.15 49.73Q89.15 49.77 89.14 49.81Q89.13 49.85 89.13 49.90ZM89.16 50.36L89.16 50.36L87.10 50.14L89.13 50.14Q89.13 50.21 89.14 50.26Q89.15 50.31 89.16 50.36ZM89.81 50.83L89.81 50.83L87.23 50.61L89.33 50.61Q89.49 50.77 89.81 50.83ZM88.97 51.08L88.90 51.29L87.15 51.08L88.97 51.08ZM88.81 51.55L88.74 51.77L87.06 51.55L88.81 51.55ZM93.54 51.79L92.70 51.79L93.78 49.21L94.99 49.21L95.18 51.79L94.32 51.79L94.30 51.39L93.69 51.39L93.54 51.79ZM93.62 49.21L93.53 49.42L91.54 49.21L93.62 49.21ZM93.42 49.68L93.33 49.89L91.34 49.68L93.42 49.68ZM94.24 49.95L93.95 50.69L94.30 50.69L94.30 49.95L94.24 49.95ZM93.23 50.14L93.13 50.36L91.14 50.14L93.23 50.14ZM93.03 50.61L92.94 50.83L90.94 50.61L93.03 50.61ZM92.83 51.08L92.74 51.29L90.74 51.08L92.83 51.08ZM92.63 51.55L92.54 51.77L90.54 51.55L92.63 51.55ZM98.17 51.79L96.45 51.79L96.90 49.21L98.62 49.21L98.39 49.94L97.59 49.94L97.53 50.27L98.26 50.27L98.18 50.74L97.46 50.74L97.40 51.07L98.30 51.07L98.17 51.79ZM96.74 49.21L96.70 49.43L94.64 49.21L96.74 49.21ZM96.66 49.68L96.62 49.90L94.55 49.68L96.66 49.68ZM96.58 50.14L96.54 50.36L94.47 50.14L96.58 50.14ZM96.49 50.61L96.46 50.83L94.39 50.61L96.49 50.61ZM96.41 51.08L96.37 51.30L94.30 51.08L96.41 51.08ZM96.33 51.55L96.29 51.77L94.22 51.55L96.33 51.55ZM100.63 51.85L100.63 51.85Q100.40 51.85 100.16 51.82Q99.93 51.80 99.70 51.73L99.70 51.73L99.94 51.01Q100.32 51.12 100.67 51.12L100.67 51.12Q100.76 51.12 100.84 51.12Q100.92 51.11 101.01 51.10L101.01 51.10L101.03 50.95L100.72 50.91Q100.32 50.87 100.16 50.72Q100.00 50.58 100.00 50.32L100.00 50.32Q100.00 50.27 100.00 50.21Q100.01 50.14 100.02 50.08L100.02 50.08Q100.08 49.73 100.21 49.53Q100.34 49.33 100.58 49.24Q100.82 49.16 101.20 49.16L101.20 49.16Q101.66 49.16 102.07 49.26L102.07 49.26L101.84 49.97Q101.67 49.93 101.53 49.91Q101.39 49.90 101.22 49.90L101.22 49.90Q101.13 49.90 101.07 49.90Q101.01 49.90 100.93 49.91L100.93 49.91L100.90 50.05L101.15 50.08Q101.58 50.13 101.75 50.30Q101.93 50.47 101.93 50.73L101.93 50.73Q101.93 50.77 101.93 50.82Q101.92 50.87 101.91 50.92L101.91 50.92Q101.85 51.26 101.73 51.45Q101.60 51.64 101.42 51.72Q101.25 51.81 101.04 51.83Q100.84 51.85 100.63 51.85ZM100.11 49.41L100.11 49.41L98.21 49.21L100.31 49.21Q100.25 49.25 100.20 49.30Q100.15 49.35 100.11 49.41ZM99.91 49.90L99.91 49.90L97.87 49.68L99.97 49.68Q99.95 49.72 99.94 49.78Q99.92 49.84 99.91 49.90ZM99.85 50.32L99.85 50.36L97.78 50.14L99.86 50.14Q99.85 50.19 99.85 50.23Q99.85 50.28 99.85 50.32L99.85 50.32ZM100.03 50.83L100.03 50.83L97.97 50.61L99.89 50.61Q99.94 50.74 100.03 50.83ZM99.76 51.08L99.69 51.29L97.66 51.08L99.76 51.08ZM99.60 51.55L99.53 51.77L97.49 51.55L99.60 51.55ZM104.37 51.79L103.51 51.79L103.83 49.94L103.29 49.94L103.42 49.21L105.35 49.21L105.21 49.94L104.69 49.94L104.37 51.79ZM103.26 49.21L103.22 49.43L101.16 49.21L103.26 49.21ZM103.18 49.68L103.14 49.90L101.07 49.68L103.18 49.68ZM103.65 50.14L103.61 50.36L101.54 50.14L103.65 50.14ZM103.57 50.61L103.53 50.83L101.46 50.61L103.57 50.61ZM103.48 51.08L103.44 51.30L101.38 51.08L103.48 51.08ZM103.40 51.55L103.36 51.77L101.29 51.55L103.40 51.55Z"/><path d="M107.25 51.66L105.51 51.66L105.51 48.96L107.23 48.96L107.23 49.29L105.89 49.29L105.89 50.05L106.95 50.05L106.95 50.36L105.89 50.36L105.89 51.33L107.25 51.33L107.25 51.66ZM108.61 51.71L108.61 51.71Q108.34 51.71 108.14 51.64Q107.95 51.57 107.81 51.44Q107.67 51.31 107.60 51.13Q107.52 50.96 107.51 50.76L107.51 50.76L107.88 50.76Q107.89 50.92 107.98 51.07Q108.06 51.21 108.22 51.31Q108.38 51.40 108.62 51.40L108.62 51.40Q108.89 51.40 109.03 51.28Q109.18 51.17 109.18 50.97L109.18 50.97Q109.18 50.77 109.04 50.66Q108.90 50.55 108.68 50.48L108.68 50.48L108.42 50.39Q108.22 50.33 108.04 50.24Q107.86 50.15 107.75 50.01Q107.63 49.86 107.63 49.63L107.63 49.63Q107.63 49.40 107.75 49.24Q107.86 49.08 108.05 49.00Q108.25 48.91 108.51 48.91L108.51 48.91Q108.82 48.91 109.03 49.02Q109.23 49.14 109.33 49.32Q109.44 49.50 109.45 49.72L109.45 49.72L109.08 49.72Q109.07 49.60 109.01 49.48Q108.95 49.37 108.82 49.29Q108.70 49.22 108.50 49.22L108.50 49.22Q108.27 49.22 108.14 49.32Q108.01 49.42 108.01 49.59L108.01 49.59Q108.01 49.79 108.16 49.89Q108.32 49.99 108.53 50.06L108.53 50.06L108.79 50.15Q108.99 50.21 109.16 50.30Q109.34 50.39 109.45 50.54Q109.56 50.68 109.56 50.93L109.56 50.93Q109.56 51.30 109.30 51.51Q109.04 51.71 108.61 51.71ZM110.71 51.71L110.71 51.71Q110.45 51.71 110.26 51.58Q110.07 51.44 109.98 51.20Q109.88 50.95 109.88 50.62L109.88 50.62Q109.88 50.29 109.98 50.05Q110.07 49.80 110.26 49.67Q110.45 49.53 110.72 49.53L110.72 49.53Q110.96 49.53 111.10 49.63Q111.24 49.73 111.29 49.85L111.29 49.85L111.37 49.85L111.37 49.59L111.71 49.59L111.71 51.66L111.37 51.66L111.37 51.39L111.29 51.39Q111.24 51.51 111.09 51.61Q110.95 51.71 110.71 51.71ZM110.78 51.40L110.78 51.40Q111.04 51.40 111.19 51.19Q111.34 50.97 111.34 50.62L111.34 50.62Q111.34 50.27 111.19 50.06Q111.04 49.84 110.78 49.84L110.78 49.84Q110.53 49.84 110.39 50.05Q110.26 50.25 110.26 50.62L110.26 50.62Q110.26 50.99 110.39 51.20Q110.53 51.40 110.78 51.40ZM113.09 51.71L113.09 51.71Q112.63 51.71 112.40 51.41Q112.16 51.11 112.16 50.62L112.16 50.62Q112.16 50.30 112.26 50.05Q112.37 49.81 112.57 49.67Q112.78 49.53 113.08 49.53L113.08 49.53Q113.51 49.53 113.73 49.81Q113.96 50.09 113.96 50.61L113.96 50.61L113.96 50.72L112.52 50.72Q112.54 51.02 112.68 51.22Q112.82 51.41 113.09 51.41L113.09 51.41Q113.29 51.41 113.41 51.30Q113.53 51.19 113.58 51.00L113.58 51.00L113.93 51.00Q113.89 51.21 113.79 51.37Q113.68 51.53 113.51 51.62Q113.34 51.71 113.09 51.71ZM112.52 50.45L112.52 50.45L113.59 50.45Q113.58 50.15 113.45 49.99Q113.31 49.83 113.08 49.83L113.08 49.83Q112.84 49.83 112.70 49.99Q112.56 50.16 112.52 50.45ZM115.09 51.71L115.09 51.71Q114.80 51.71 114.61 51.61Q114.43 51.51 114.33 51.34Q114.24 51.18 114.23 51.00L114.23 51.00L114.59 51.00Q114.61 51.10 114.66 51.20Q114.72 51.30 114.82 51.36Q114.93 51.42 115.10 51.42L115.10 51.42Q115.28 51.42 115.38 51.34Q115.48 51.26 115.48 51.14L115.48 51.14Q115.48 51.03 115.40 50.95Q115.32 50.87 115.16 50.81L115.16 50.81L114.92 50.73Q114.75 50.66 114.62 50.59Q114.48 50.51 114.40 50.40Q114.33 50.29 114.33 50.12L114.33 50.12Q114.33 49.85 114.52 49.69Q114.71 49.53 115.04 49.53L115.04 49.53Q115.28 49.53 115.43 49.62Q115.59 49.70 115.67 49.84Q115.76 49.99 115.77 50.17L115.77 50.17L115.42 50.17Q115.40 50.03 115.31 49.93Q115.22 49.82 115.02 49.82L115.02 49.82Q114.86 49.82 114.77 49.89Q114.68 49.97 114.68 50.09L114.68 50.09Q114.68 50.20 114.77 50.28Q114.85 50.36 115.02 50.42L115.02 50.42L115.26 50.50Q115.43 50.56 115.56 50.64Q115.69 50.71 115.76 50.82Q115.84 50.93 115.84 51.11L115.84 51.11Q115.84 51.37 115.65 51.54Q115.45 51.71 115.09 51.71ZM116.94 51.66L116.53 51.66Q116.46 51.57 116.41 51.43Q116.36 51.30 116.36 51.04L116.36 51.04L116.36 49.88L116.08 49.88L116.08 49.59L116.37 49.59L116.37 49.07L116.73 49.07L116.73 49.59L117.08 49.59L117.08 49.88L116.74 49.88L116.74 50.98Q116.74 51.26 116.80 51.40Q116.86 51.54 116.94 51.64L116.94 51.64L116.94 51.66Z"/><path d="M118.11 48.74L118.11 48.74Q118.33 48.74 118.55 48.74Q118.76 48.74 118.98 48.75Q119.19 48.75 119.39 48.76L119.39 48.76L119.37 49.06L118.18 49.06Q118.04 49.06 117.98 49.13Q117.92 49.20 117.92 49.35L117.92 49.35L117.92 51.12Q117.92 51.27 117.98 51.34Q118.04 51.41 118.18 51.41L118.18 51.41L119.37 51.41L119.39 51.70Q119.19 51.72 118.98 51.72Q118.76 51.72 118.55 51.73Q118.33 51.73 118.11 51.73L118.11 51.73Q117.85 51.73 117.69 51.59Q117.54 51.45 117.54 51.21L117.54 51.21L117.54 49.26Q117.54 49.02 117.69 48.88Q117.85 48.74 118.11 48.74ZM117.61 50.30L117.61 50.00L119.20 50.00L119.20 50.30L117.61 50.30ZM120.81 48.69L120.81 48.69Q121.02 48.70 121.25 48.71Q121.47 48.73 121.70 48.78L121.70 48.78L121.67 49.05Q121.49 49.05 121.26 49.04Q121.04 49.03 120.83 49.03L120.83 49.03Q120.67 49.03 120.55 49.04Q120.44 49.05 120.37 49.09Q120.29 49.14 120.26 49.23Q120.23 49.32 120.23 49.49L120.23 49.49Q120.23 49.73 120.32 49.83Q120.41 49.93 120.60 49.97L120.60 49.97L121.21 50.13Q121.55 50.21 121.68 50.41Q121.81 50.62 121.81 50.96L121.81 50.96Q121.81 51.22 121.75 51.38Q121.69 51.54 121.57 51.63Q121.45 51.71 121.26 51.74Q121.07 51.78 120.81 51.78L120.81 51.78Q120.66 51.78 120.43 51.76Q120.19 51.75 119.89 51.69L119.89 51.69L119.91 51.41Q120.17 51.42 120.32 51.43Q120.48 51.43 120.59 51.43Q120.70 51.43 120.82 51.43L120.82 51.43Q121.05 51.43 121.19 51.40Q121.32 51.37 121.37 51.26Q121.42 51.16 121.42 50.95L121.42 50.95Q121.42 50.78 121.39 50.69Q121.35 50.59 121.26 50.54Q121.18 50.49 121.05 50.46L121.05 50.46L120.43 50.31Q120.11 50.22 119.98 50.02Q119.84 49.82 119.84 49.48L119.84 49.48Q119.84 49.22 119.90 49.06Q119.96 48.90 120.08 48.82Q120.20 48.74 120.38 48.72Q120.56 48.69 120.81 48.69ZM123.36 49.57L123.36 49.57Q123.59 49.57 123.76 49.63Q123.92 49.69 124.00 49.84Q124.08 49.99 124.08 50.24L124.08 50.24L124.08 51.72L123.79 51.72L123.74 51.27L123.71 51.22L123.71 50.24Q123.71 50.05 123.62 49.96Q123.53 49.88 123.28 49.88L123.28 49.88Q123.12 49.88 122.87 49.90Q122.62 49.91 122.38 49.94L122.38 49.94L122.34 49.66Q122.49 49.64 122.67 49.62Q122.84 49.59 123.02 49.58Q123.20 49.57 123.36 49.57ZM122.83 50.43L123.91 50.43L123.90 50.70L122.90 50.71Q122.75 50.71 122.69 50.79Q122.63 50.86 122.63 51.00L122.63 51.00L122.63 51.13Q122.63 51.30 122.70 51.37Q122.78 51.45 122.95 51.45L122.95 51.45Q123.08 51.45 123.23 51.40Q123.38 51.36 123.54 51.26Q123.69 51.17 123.82 51.02L123.82 51.02L123.82 51.29Q123.77 51.35 123.69 51.43Q123.60 51.51 123.47 51.59Q123.35 51.66 123.20 51.71Q123.05 51.76 122.88 51.76L122.88 51.76Q122.69 51.76 122.55 51.70Q122.41 51.63 122.33 51.50Q122.25 51.37 122.25 51.18L122.25 51.18L122.25 50.95Q122.25 50.70 122.40 50.56Q122.56 50.43 122.83 50.43L122.83 50.43ZM125.60 49.57L125.60 49.57Q126.08 49.57 126.29 49.74Q126.51 49.91 126.51 50.25L126.51 50.25Q126.51 50.54 126.39 50.69Q126.27 50.85 126.00 50.85L126.00 50.85L124.78 50.85L124.78 50.57L125.91 50.57Q126.05 50.57 126.09 50.47Q126.14 50.37 126.14 50.25L126.14 50.25Q126.13 50.05 126.02 49.97Q125.90 49.88 125.62 49.88L125.62 49.88Q125.39 49.88 125.26 49.95Q125.13 50.01 125.07 50.18Q125.02 50.35 125.02 50.64L125.02 50.64Q125.02 50.98 125.09 51.16Q125.15 51.33 125.30 51.40Q125.45 51.46 125.69 51.46L125.69 51.46Q125.86 51.46 126.06 51.45Q126.26 51.43 126.42 51.41L126.42 51.41L126.46 51.66Q126.36 51.70 126.21 51.72Q126.07 51.75 125.92 51.76Q125.76 51.78 125.64 51.78L125.64 51.78Q125.28 51.78 125.06 51.67Q124.84 51.56 124.74 51.31Q124.63 51.07 124.63 50.67L124.63 50.67Q124.63 50.25 124.74 50.01Q124.84 49.77 125.05 49.67Q125.27 49.57 125.60 49.57ZM127.76 49.57L127.76 49.57Q127.90 49.57 128.05 49.58Q128.21 49.59 128.36 49.60Q128.51 49.61 128.64 49.63L128.64 49.63L128.61 49.90Q128.41 49.89 128.21 49.89Q128.01 49.88 127.81 49.88L127.81 49.88Q127.62 49.87 127.51 49.89Q127.40 49.90 127.35 49.96Q127.30 50.01 127.30 50.15L127.30 50.15Q127.30 50.31 127.37 50.36Q127.45 50.41 127.60 50.45L127.60 50.45L128.22 50.59Q128.47 50.65 128.59 50.77Q128.70 50.90 128.70 51.17L128.70 51.17Q128.70 51.43 128.61 51.56Q128.51 51.68 128.31 51.73Q128.11 51.77 127.81 51.77L127.81 51.77Q127.69 51.77 127.47 51.76Q127.25 51.75 126.98 51.71L126.98 51.71L127.01 51.44Q127.11 51.45 127.23 51.45Q127.34 51.46 127.47 51.46Q127.60 51.46 127.73 51.46L127.73 51.46Q127.97 51.46 128.10 51.44Q128.24 51.42 128.29 51.35Q128.35 51.29 128.35 51.17L128.35 51.17Q128.35 51.01 128.26 50.96Q128.17 50.91 128.02 50.87L128.02 50.87L127.41 50.73Q127.24 50.69 127.14 50.62Q127.03 50.55 126.98 50.43Q126.94 50.32 126.94 50.15L126.94 50.15Q126.94 49.90 127.02 49.78Q127.11 49.65 127.29 49.61Q127.47 49.56 127.76 49.57ZM129.41 49.00L129.78 49.00L129.78 51.14Q129.78 51.30 129.84 51.36Q129.91 51.43 130.06 51.43L130.06 51.43L130.38 51.43L130.43 51.71Q130.36 51.72 130.27 51.74Q130.18 51.75 130.09 51.76Q130.00 51.76 129.95 51.76L129.95 51.76Q129.69 51.76 129.55 51.62Q129.41 51.47 129.41 51.19L129.41 51.19L129.41 49.00ZM129.45 49.62L130.45 49.62L130.45 49.91L129.03 49.91L129.03 49.64L129.45 49.62Z"/><path d="M131.01 48.79L130.66 48.79Q130.97 48.54 131.02 48.54L131.02 48.54L132.53 48.54Q132.51 48.55 132.41 48.63Q132.31 48.72 132.26 48.75Q132.21 48.79 132.17 48.79L132.17 48.79L131.36 48.79L131.36 49.68L132.25 49.68Q132.23 49.68 132.18 49.72Q132.14 49.76 132.08 49.81L132.08 49.81Q131.94 49.93 131.89 49.93L131.89 49.93L131.36 49.93L131.36 50.52Q131.36 50.73 131.30 50.86L131.30 50.86Q131.28 50.91 131.24 50.93L131.24 50.93L132.26 50.93Q132.36 50.93 132.47 50.88L132.47 50.88L132.58 50.83Q132.49 50.94 132.19 51.11L132.19 51.11Q132.05 51.18 132.01 51.18L132.01 51.18L130.84 51.18Q131.01 50.95 131.01 50.74L131.01 50.74L131.01 49.93L130.75 49.93Q130.91 49.80 131.01 49.73L131.01 49.73L131.01 48.79ZM134.08 48.97L134.08 48.97Q134.14 48.91 134.14 48.88Q134.14 48.85 134.11 48.83Q134.08 48.81 134.04 48.79Q134.00 48.78 133.95 48.77Q133.90 48.76 133.85 48.75L133.85 48.75Q133.76 48.74 133.69 48.74Q133.63 48.74 133.54 48.76Q133.45 48.77 133.38 48.81L133.38 48.81Q133.21 48.89 133.21 49.06Q133.21 49.22 133.27 49.32Q133.33 49.42 133.43 49.49Q133.53 49.55 133.66 49.60Q133.79 49.64 133.92 49.68Q134.05 49.72 134.18 49.76Q134.31 49.81 134.41 49.87L134.41 49.87Q134.63 50.03 134.63 50.30L134.63 50.30Q134.63 50.56 134.40 50.79L134.40 50.79Q134.21 50.98 133.89 51.11L133.89 51.11Q133.61 51.22 133.34 51.22L133.34 51.22Q133.18 51.22 133.05 51.18Q132.91 51.14 132.86 51.11L132.86 51.11Q132.73 51.05 132.73 50.96L132.73 50.96Q132.73 50.82 133.15 50.59L133.15 50.59Q133.10 50.65 133.10 50.71Q133.10 50.76 133.13 50.80Q133.17 50.84 133.22 50.87Q133.28 50.90 133.35 50.92Q133.42 50.94 133.49 50.95L133.49 50.95Q133.62 50.97 133.72 50.97Q133.83 50.97 133.93 50.95Q134.03 50.93 134.11 50.88L134.11 50.88Q134.28 50.78 134.28 50.55L134.28 50.55Q134.28 50.19 133.83 50.02L133.83 50.02Q133.71 49.97 133.57 49.93Q133.44 49.89 133.31 49.84Q133.18 49.80 133.08 49.73L133.08 49.73Q132.86 49.58 132.86 49.35L132.86 49.35Q132.86 49.15 133.08 48.93L133.08 48.93Q133.28 48.75 133.57 48.62L133.57 48.62Q133.85 48.49 134.05 48.49L134.05 48.49Q134.23 48.49 134.34 48.53Q134.44 48.56 134.47 48.58Q134.50 48.59 134.50 48.62Q134.50 48.64 134.47 48.67Q134.45 48.70 134.41 48.74Q134.37 48.78 134.32 48.81Q134.27 48.85 134.22 48.88L134.22 48.88Q134.11 48.95 134.08 48.97ZM136.10 49.89L136.10 50.63L136.10 50.76Q136.10 50.91 136.18 50.94L136.18 50.94Q136.21 50.96 136.25 50.96L136.25 50.96Q136.32 50.96 136.38 50.93L136.38 50.93Q136.31 50.96 136.26 51.01Q136.21 51.05 136.16 51.10L136.16 51.10Q136.03 51.21 135.89 51.21L135.89 51.21Q135.76 51.21 135.75 51.06L135.75 51.06Q135.75 51.02 135.75 50.97L135.75 50.97Q135.42 51.20 135.14 51.20L135.14 51.20Q134.91 51.20 134.82 51.06L134.82 51.06Q134.79 51.01 134.79 50.92Q134.79 50.83 134.84 50.74Q134.90 50.65 134.98 50.58L134.98 50.58Q135.13 50.44 135.35 50.35L135.35 50.35Q135.50 50.28 135.75 50.27L135.75 50.27L135.75 50.19Q135.75 49.90 135.70 49.80Q135.64 49.69 135.56 49.65Q135.47 49.60 135.36 49.60L135.36 49.60Q135.17 49.60 135.02 49.67L135.02 49.67Q135.22 49.51 135.32 49.45L135.32 49.45Q135.51 49.35 135.67 49.35Q135.82 49.35 135.90 49.39Q135.98 49.44 136.03 49.51L136.03 49.51Q136.10 49.64 136.10 49.89L136.10 49.89ZM135.24 50.90Q135.29 50.93 135.35 50.94Q135.41 50.96 135.52 50.96Q135.64 50.96 135.75 50.90L135.75 50.90L135.75 50.52L135.45 50.52Q135.29 50.52 135.17 50.54L135.17 50.54Q135.15 50.62 135.15 50.69Q135.15 50.76 135.18 50.81Q135.20 50.87 135.24 50.90ZM137.95 50.84L137.95 50.84Q137.70 51.12 137.33 51.19L137.33 51.19Q137.25 51.20 137.12 51.20Q136.99 51.20 136.88 51.13Q136.77 51.06 136.70 50.95L136.70 50.95Q136.56 50.73 136.56 50.42L136.56 50.42Q136.56 50.22 136.72 49.97L136.72 49.97Q136.87 49.72 137.10 49.56L137.10 49.56Q137.33 49.38 137.55 49.38L137.55 49.38Q137.66 49.38 137.73 49.46L137.73 49.46Q137.80 49.54 137.80 49.64Q137.80 49.74 137.76 49.83Q137.71 49.91 137.64 49.99Q137.57 50.07 137.48 50.15Q137.39 50.22 137.29 50.29L137.29 50.29Q137.16 50.38 136.96 50.49L136.96 50.49Q137.02 50.72 137.17 50.84Q137.31 50.95 137.55 50.95L137.55 50.95Q137.74 50.95 137.95 50.84ZM137.40 50.10L137.40 50.10Q137.45 50.03 137.45 49.95Q137.45 49.88 137.43 49.82Q137.42 49.77 137.39 49.73L137.39 49.73Q137.32 49.64 137.20 49.64L137.20 49.64Q136.92 49.64 136.92 50.21L136.92 50.21Q136.92 50.31 136.94 50.41L136.94 50.41Q137.26 50.32 137.40 50.10ZM138.96 49.76L138.96 49.76Q139.00 49.73 139.00 49.70Q139.00 49.67 138.96 49.66Q138.93 49.64 138.88 49.63L138.88 49.63Q138.81 49.62 138.75 49.62Q138.69 49.62 138.65 49.62Q138.62 49.63 138.60 49.65L138.60 49.65Q138.55 49.68 138.55 49.77Q138.55 49.86 138.58 49.91Q138.62 49.97 138.69 50.01Q138.75 50.04 138.83 50.07Q138.91 50.10 138.99 50.12Q139.08 50.14 139.16 50.17Q139.24 50.20 139.30 50.25L139.30 50.25Q139.44 50.35 139.44 50.53L139.44 50.53Q139.44 50.71 139.27 50.88L139.27 50.88Q139.13 51.02 138.89 51.12L138.89 51.12Q138.67 51.22 138.50 51.22L138.50 51.22Q138.29 51.22 138.16 51.13L138.16 51.13Q138.12 51.10 138.12 51.05Q138.12 51.00 138.17 50.95Q138.21 50.91 138.28 50.87Q138.34 50.83 138.41 50.80Q138.47 50.77 138.50 50.73L138.50 50.73Q138.47 50.76 138.47 50.81Q138.47 50.86 138.52 50.89Q138.57 50.92 138.64 50.94L138.64 50.94Q138.76 50.97 138.87 50.97Q138.99 50.97 139.04 50.93Q139.09 50.89 139.09 50.79Q139.09 50.69 139.05 50.63Q139.01 50.57 138.95 50.52Q138.88 50.48 138.80 50.45Q138.72 50.42 138.64 50.39Q138.56 50.36 138.48 50.33Q138.40 50.31 138.33 50.26L138.33 50.26Q138.19 50.17 138.19 50.02L138.19 50.02Q138.19 49.88 138.36 49.71L138.36 49.71Q138.51 49.58 138.67 49.50L138.67 49.50Q138.94 49.37 139.08 49.37L139.08 49.37Q139.22 49.37 139.29 49.40Q139.35 49.43 139.35 49.45Q139.35 49.47 139.34 49.49Q139.32 49.51 139.30 49.53Q139.28 49.54 139.26 49.55Q139.24 49.57 139.20 49.59Q139.16 49.62 139.09 49.66Q139.02 49.70 138.96 49.76ZM139.87 49.59L139.64 49.59L139.87 49.40L139.87 49.14Q139.97 49.07 140.01 49.04Q140.06 49.00 140.09 48.98Q140.12 48.97 140.15 48.95L140.15 48.95Q140.23 48.90 140.23 48.90L140.23 48.90L140.23 49.34L140.82 49.34Q140.79 49.34 140.70 49.43L140.70 49.43Q140.51 49.59 140.46 49.59L140.46 49.59L140.23 49.59L140.23 50.57Q140.23 50.91 140.42 50.96L140.42 50.96Q140.48 50.97 140.53 50.97L140.53 50.97Q140.62 50.97 140.68 50.95Q140.74 50.93 140.77 50.91L140.77 50.91Q140.66 51.08 140.46 51.17L140.46 51.17Q140.36 51.21 140.24 51.21Q140.12 51.21 140.05 51.17Q139.99 51.13 139.95 51.06L139.95 51.06Q139.87 50.93 139.87 50.73L139.87 50.73L139.87 49.59Z"/><path d="M142.50 49.94L142.50 49.94Q142.67 49.94 142.72 50.17L142.72 50.17Q142.75 50.26 142.75 50.35L142.75 50.35Q142.75 50.57 142.64 50.83L142.64 50.83Q142.44 51.28 142.05 51.46L142.05 51.46Q141.84 51.56 141.60 51.56L141.60 51.56Q141.07 51.56 140.88 51.17L140.88 51.17Q140.79 51.00 140.79 50.79Q140.79 50.59 140.86 50.37L140.86 50.37Q141.03 49.89 141.45 49.58L141.45 49.58Q141.71 49.39 142.02 49.32L142.02 49.32Q141.73 49.22 141.73 48.97Q141.73 48.71 141.99 48.49Q142.24 48.26 142.62 48.26L142.62 48.26Q142.69 48.26 142.72 48.31Q142.75 48.36 142.75 48.41L142.75 48.41L142.75 48.46Q142.72 48.44 142.63 48.44L142.63 48.44Q142.30 48.44 142.08 48.67L142.08 48.67Q141.93 48.83 141.93 48.99L141.93 48.99Q141.93 49.28 142.37 49.28L142.37 49.28Q142.41 49.28 142.44 49.31Q142.46 49.33 142.48 49.38L142.48 49.38Q141.87 49.38 141.45 49.85L141.45 49.85Q141.06 50.29 141.06 50.83L141.06 50.83Q141.06 51.14 141.24 51.31L141.24 51.31Q141.37 51.44 141.60 51.44L141.60 51.44Q142.10 51.44 142.38 51.01L142.38 51.01Q142.55 50.74 142.55 50.43L142.55 50.43Q142.55 50.10 142.39 50.04L142.39 50.04Q142.36 50.02 142.33 50.02L142.33 50.02Q142.37 49.94 142.50 49.94ZM142.87 49.07L142.87 49.07Q142.87 49.08 142.84 49.08Q142.81 49.08 142.78 49.07Q142.75 49.06 142.75 49.03L142.75 49.03Q142.75 48.67 142.83 48.45Q142.91 48.22 143.05 48.22L143.05 48.22Q143.08 48.22 143.11 48.25Q143.13 48.28 143.13 48.32L143.13 48.32Q142.97 48.48 142.90 48.79L142.90 48.79Q142.87 48.92 142.87 49.07ZM143.22 51.16L143.22 51.16Q143.22 51.43 143.50 51.48L143.50 51.48Q143.55 51.49 143.62 51.49L143.62 51.49Q144.07 51.49 144.33 51.21Q144.59 50.92 144.59 50.48L144.59 50.48Q144.59 50.31 144.52 50.17Q144.46 50.02 144.37 49.93Q144.28 49.84 144.17 49.74Q144.06 49.64 143.97 49.57Q143.87 49.49 143.81 49.38Q143.75 49.27 143.75 49.14L143.75 49.14Q143.75 48.81 144.04 48.54Q144.34 48.26 144.68 48.26L144.68 48.26Q144.74 48.26 144.77 48.31Q144.81 48.36 144.81 48.41L144.81 48.41L144.80 48.46Q144.78 48.44 144.68 48.44L144.68 48.44Q144.45 48.44 144.24 48.66Q144.02 48.87 144.02 49.15L144.02 49.15Q144.02 49.27 144.09 49.38Q144.15 49.48 144.24 49.57Q144.33 49.65 144.44 49.75Q144.55 49.85 144.64 49.95Q144.73 50.05 144.79 50.19Q144.86 50.33 144.86 50.48L144.86 50.48Q144.86 50.92 144.50 51.25Q144.14 51.58 143.62 51.58L143.62 51.58Q143.18 51.58 143.06 51.30L143.06 51.30Q142.97 51.06 143.13 50.78Q143.30 50.49 143.61 50.40L143.61 50.40Q143.72 50.36 143.81 50.36Q143.90 50.36 143.93 50.39Q143.97 50.42 143.98 50.48L143.98 50.48Q143.64 50.48 143.40 50.75L143.40 50.75Q143.22 50.96 143.22 51.16ZM144.87 49.20L144.87 49.20Q144.87 49.21 144.84 49.21Q144.81 49.21 144.78 49.20Q144.75 49.18 144.75 49.16L144.75 49.16Q144.75 48.80 144.83 48.58Q144.91 48.36 145.05 48.36L145.05 48.36Q145.08 48.36 145.11 48.38Q145.13 48.40 145.13 48.44L145.13 48.44Q144.97 48.60 144.90 48.92L144.90 48.92Q144.87 49.05 144.87 49.20ZM145.49 51.02L145.49 51.02Q145.20 51.02 145.20 50.56L145.20 50.56Q145.20 50.28 145.34 49.96L145.34 49.96Q145.53 49.50 145.83 49.33L145.83 49.33Q145.96 49.26 146.08 49.26Q146.19 49.26 146.26 49.31Q146.32 49.36 146.34 49.41L146.34 49.41L146.36 49.46Q146.35 49.52 146.30 49.52L146.30 49.52Q146.25 49.52 146.24 49.49Q146.23 49.46 146.22 49.44Q146.21 49.42 146.17 49.39Q146.13 49.36 146.08 49.36L146.08 49.36Q145.85 49.36 145.66 49.77L145.66 49.77Q145.44 50.25 145.44 50.68L145.44 50.68Q145.44 50.89 145.53 50.89L145.53 50.89Q145.60 50.89 145.72 50.74Q145.84 50.59 145.98 50.36L145.98 50.36Q146.21 49.97 146.36 49.68L146.36 49.68Q146.48 49.42 146.61 49.42L146.61 49.42Q146.68 49.42 146.68 49.51L146.68 49.51Q146.64 49.57 146.59 49.70Q146.54 49.82 146.46 50.19Q146.38 50.56 146.38 50.93Q146.38 51.30 146.49 51.30L146.49 51.30Q146.53 51.30 146.57 51.26Q146.60 51.22 146.63 51.15L146.63 51.15Q146.64 51.11 146.68 51.11L146.68 51.11Q146.70 51.11 146.70 51.12Q146.71 51.13 146.70 51.15Q146.70 51.18 146.68 51.22Q146.66 51.27 146.60 51.34Q146.54 51.42 146.48 51.42L146.48 51.42Q146.33 51.42 146.25 51.22Q146.17 51.03 146.17 50.76Q146.17 50.49 146.21 50.25L146.21 50.25L146.17 50.25Q145.72 51.02 145.49 51.02ZM147.83 49.29L147.83 49.29Q148.10 49.29 148.10 49.61L148.10 49.61Q148.10 49.79 147.98 49.99L147.98 49.99Q147.77 50.32 147.43 50.32L147.43 50.32Q147.37 50.32 147.34 50.30Q147.30 50.28 147.29 50.25L147.29 50.25Q147.54 50.25 147.75 49.96L147.75 49.96Q147.92 49.72 147.92 49.53L147.92 49.53Q147.92 49.38 147.80 49.38L147.80 49.38Q147.57 49.38 147.36 49.75L147.36 49.75Q147.15 50.15 147.15 50.57L147.15 50.57Q147.15 50.92 147.35 50.99L147.35 50.99Q147.39 51.01 147.45 51.01Q147.51 51.01 147.58 50.98Q147.64 50.95 147.69 50.90L147.69 50.90Q147.78 50.82 147.84 50.72L147.84 50.72Q147.86 50.69 147.90 50.69L147.90 50.69Q147.96 50.69 147.96 50.71L147.96 50.71Q147.95 50.75 147.88 50.84Q147.81 50.93 147.75 50.99Q147.69 51.04 147.60 51.09Q147.50 51.13 147.41 51.13L147.41 51.13Q147.03 51.13 146.93 50.78L146.93 50.78Q146.89 50.66 146.89 50.53L146.89 50.53Q146.89 50.29 147.00 50.01L147.00 50.01Q147.18 49.58 147.48 49.39L147.48 49.39Q147.65 49.29 147.83 49.29ZM148.53 50.90L148.53 50.90Q148.53 51.15 148.69 51.15L148.69 51.15Q148.84 51.15 148.97 50.90Q149.10 50.66 149.10 50.28L149.10 50.28Q149.10 50.10 149.04 49.77Q148.97 49.44 148.97 49.34Q148.97 49.23 148.98 49.20L148.98 49.20Q148.93 49.28 148.71 49.70Q148.49 50.12 148.32 50.37L148.32 50.37Q148.31 50.38 148.28 50.38Q148.26 50.37 148.24 50.35Q148.22 50.34 148.22 50.33Q148.22 50.32 148.23 50.32L148.23 50.32Q148.40 50.08 148.62 49.65Q148.84 49.23 148.99 49.02Q149.14 48.81 149.29 48.81L149.29 48.81Q149.36 48.81 149.36 48.87L149.36 48.87Q149.36 48.91 149.30 48.99L149.30 48.99Q149.11 49.20 149.11 49.43L149.11 49.43Q149.11 49.57 149.21 49.95Q149.31 50.34 149.31 50.51L149.31 50.51Q149.31 50.83 149.14 51.04Q148.97 51.26 148.74 51.26L148.74 51.26Q148.43 51.26 148.43 50.90L148.43 50.90Q148.43 50.63 148.60 50.34Q148.76 50.04 148.93 49.94L148.93 49.94Q148.96 49.92 148.97 49.96Q148.98 50.01 148.96 50.02L148.96 50.02Q148.77 50.13 148.63 50.48L148.63 50.48Q148.53 50.73 148.53 50.90ZM149.84 49.48L149.84 49.48Q149.70 49.48 149.70 49.36L149.70 49.36Q149.70 49.32 149.74 49.31L149.74 49.31Q149.74 49.31 149.75 49.31L149.75 49.31Q149.77 49.33 149.83 49.33Q149.89 49.33 150.02 49.32L150.02 49.32Q150.18 48.87 150.34 48.87L150.34 48.87Q150.40 48.87 150.40 48.94L150.40 48.94Q150.34 49.08 150.27 49.31L150.27 49.31Q150.62 49.27 150.73 49.27L150.73 49.27Q150.76 49.27 150.76 49.30L150.76 49.30Q150.76 49.35 150.68 49.35L150.68 49.35Q150.64 49.35 150.23 49.43L150.23 49.43Q149.95 50.32 149.95 50.87Q149.95 51.42 150.17 51.42L150.17 51.42Q150.26 51.42 150.34 51.34Q150.41 51.27 150.45 51.19L150.45 51.19Q150.46 51.15 150.51 51.17L150.51 51.17Q150.53 51.18 150.52 51.19L150.52 51.19Q150.50 51.24 150.47 51.30Q150.44 51.36 150.34 51.45Q150.25 51.54 150.15 51.54L150.15 51.54Q149.73 51.54 149.73 50.80L149.73 50.80Q149.73 50.18 149.96 49.47L149.96 49.47Q149.91 49.48 149.84 49.48Z"/><path d="M153.23 50.54L153.23 51.29Q153.23 51.44 153.31 51.48L153.31 51.48L153.23 51.60Q153.13 51.60 153.01 51.54Q152.89 51.49 152.82 51.42L152.82 51.42Q152.75 51.49 152.58 51.54Q152.41 51.60 152.26 51.60L152.26 51.60Q151.96 51.60 151.77 51.43L151.77 51.43Q151.59 51.60 151.38 51.60Q151.16 51.60 150.97 51.38Q150.79 51.17 150.76 50.95L150.76 50.95L150.87 50.87Q150.89 50.91 150.96 50.91L150.96 50.91Q151.12 50.91 151.12 50.60L151.12 50.60L151.08 50.60L150.87 50.35L150.87 50.04Q151.05 50.04 151.12 50.06L151.12 50.06L151.12 49.26L151.00 49.26L150.79 49.01L150.79 48.43L153.03 48.43L153.24 48.68L153.24 49.69L152.76 49.69L152.55 49.44L152.55 49.26L152.10 49.26L152.10 49.51L152.40 49.51L152.61 49.76L152.61 50.24L152.30 50.24L152.34 50.29L152.34 50.60Q152.27 50.60 152.23 50.61Q152.19 50.62 152.15 50.65Q152.10 50.69 152.10 50.76L152.10 50.76L152.10 50.78Q152.16 50.80 152.27 50.80Q152.37 50.80 152.47 50.73Q152.57 50.67 152.57 50.54L152.57 50.54Q152.57 50.52 152.54 50.42L152.54 50.42L152.54 50.29L153.03 50.29L153.23 50.54ZM151.35 50.18L151.35 50.18Q151.39 50.16 151.45 50.08L151.45 50.08L151.56 50.08Q151.62 50.16 151.66 50.18L151.66 50.18Q151.70 50.12 151.77 50.09L151.77 50.09L151.77 49.87L152.28 49.87L152.28 49.62L151.77 49.62L151.77 48.90L152.67 48.90L152.67 49.33L152.92 49.33L152.92 48.54L150.91 48.54L150.91 48.90L151.24 48.90L151.24 50.09Q151.30 50.12 151.35 50.18ZM152.68 50.56L152.68 50.56Q152.68 50.73 152.55 50.82Q152.42 50.92 152.24 50.92Q152.06 50.92 151.91 50.81Q151.77 50.71 151.77 50.49L151.77 50.49Q151.77 50.41 151.83 50.33Q151.89 50.25 152.02 50.25L152.02 50.25L152.02 50.15Q151.95 50.15 151.91 50.16Q151.87 50.16 151.81 50.21Q151.74 50.25 151.69 50.34L151.69 50.34Q151.59 50.32 151.50 50.20L151.50 50.20Q151.43 50.31 151.32 50.34L151.32 50.34Q151.26 50.25 151.20 50.21Q151.14 50.16 151.10 50.16Q151.06 50.15 150.98 50.15L150.98 50.15L150.98 50.25Q151.12 50.25 151.19 50.35Q151.25 50.45 151.25 50.62Q151.25 50.80 151.20 50.91Q151.14 51.02 150.96 51.02L150.96 51.02L150.90 51.02Q150.98 51.23 151.16 51.23Q151.35 51.23 151.53 51.04L151.53 51.04L151.57 51.04L151.59 51.06Q151.79 51.22 152.07 51.22Q152.36 51.22 152.61 51.03L152.61 51.03Q152.65 51.07 152.77 51.13Q152.88 51.20 152.95 51.22L152.95 51.22Q152.91 51.17 152.91 51.00L152.91 51.00L152.91 50.41L152.66 50.41Q152.68 50.49 152.68 50.56ZM155.91 50.67L155.91 50.67L155.92 50.85Q155.92 51.24 155.65 51.44Q155.38 51.65 155.01 51.65L155.01 51.65Q154.90 51.65 154.79 51.62Q154.67 51.59 154.61 51.56Q154.56 51.52 154.47 51.48Q154.39 51.43 154.38 51.42L154.38 51.42L154.28 51.37Q154.20 51.45 154.05 51.52Q153.91 51.60 153.80 51.60L153.80 51.60L153.59 51.35L153.51 51.23Q153.59 51.19 153.59 51.04L153.59 51.04L153.59 50.29L154.07 50.29L154.28 50.54L154.28 50.67L154.30 50.79Q154.38 50.85 154.57 50.85Q154.76 50.85 154.80 50.67L154.80 50.67Q154.73 50.71 154.71 50.74L154.71 50.74L154.30 50.25L154.37 50.19Q154.19 50.08 154.09 50.00Q153.98 49.92 153.83 49.78L153.83 49.78Q153.54 49.50 153.54 49.13Q153.54 48.76 153.82 48.57Q154.11 48.38 154.48 48.38L154.48 48.38Q154.68 48.38 154.84 48.44Q154.99 48.50 155.05 48.56L155.05 48.56L155.11 48.62L155.11 48.43L155.63 48.43L155.84 48.68L155.84 49.61L155.35 49.61L155.14 49.36L155.08 49.17Q155.01 49.13 154.91 49.13Q154.82 49.13 154.75 49.20Q154.69 49.26 154.69 49.38L154.69 49.38L154.69 49.42Q154.71 49.43 154.92 49.53Q155.14 49.64 155.34 49.77Q155.54 49.91 155.59 50.05L155.59 50.05Q155.66 50.04 155.82 50.04L155.82 50.04L156.03 50.29L156.03 50.60Q155.91 50.60 155.91 50.67ZM153.67 49.10L153.67 49.10Q153.67 49.31 153.77 49.47Q153.88 49.63 154.01 49.71Q154.13 49.79 154.33 49.90Q154.52 50.01 154.60 50.06L154.60 50.06Q154.68 50.04 154.75 50.04L154.75 50.04Q154.91 50.04 155.06 50.17L155.06 50.17L155.14 50.09L155.24 50.09Q155.30 50.16 155.34 50.18L155.34 50.18Q155.39 50.12 155.46 50.09L155.46 50.09Q155.38 49.93 155.18 49.80Q154.99 49.68 154.81 49.61Q154.63 49.53 154.49 49.41Q154.35 49.29 154.35 49.13L154.35 49.13Q154.35 49.03 154.40 48.94L154.40 48.94Q154.49 48.76 154.71 48.76L154.71 48.76Q155.08 48.76 155.24 49.24L155.24 49.24L155.53 49.24L155.53 48.54L155.21 48.54L155.21 48.83L155.19 48.83Q154.92 48.50 154.48 48.50L154.48 48.50Q154.15 48.50 153.91 48.66Q153.67 48.83 153.67 49.10ZM155.59 50.61L155.59 50.61L155.58 50.42Q155.58 50.25 155.72 50.25L155.72 50.25L155.72 50.14Q155.64 50.14 155.60 50.15Q155.56 50.16 155.49 50.20Q155.43 50.25 155.38 50.34L155.38 50.34Q155.28 50.32 155.19 50.20L155.19 50.20Q155.11 50.29 155.03 50.32L155.03 50.32Q154.91 50.14 154.71 50.14L154.71 50.14Q154.58 50.14 154.46 50.26L154.46 50.26L154.52 50.34Q154.60 50.28 154.68 50.28Q154.76 50.28 154.83 50.33Q154.89 50.38 154.91 50.44Q154.92 50.51 154.92 50.59Q154.92 50.67 154.90 50.75Q154.88 50.82 154.79 50.90Q154.70 50.97 154.56 50.97L154.56 50.97Q154.32 50.97 154.15 50.83Q153.98 50.69 153.96 50.41L153.96 50.41L153.71 50.41L153.71 51.00Q153.71 51.17 153.67 51.21L153.67 51.21Q153.75 51.20 153.88 51.12Q154.02 51.03 154.05 50.97L154.05 50.97Q154.11 51.01 154.22 51.07L154.22 51.07Q154.55 51.28 154.79 51.28L154.79 51.28Q155.13 51.28 155.36 51.11Q155.59 50.93 155.59 50.61ZM156.69 49.01L156.69 48.43L158.73 48.43L158.94 48.68L158.94 49.26L158.72 49.26L158.88 50.05Q158.91 50.04 158.99 50.04L158.99 50.04L159.20 50.29L159.25 50.59Q159.03 50.59 159.03 50.79L159.03 50.79Q159.03 50.92 159.06 50.92L159.06 50.92Q159.13 50.92 159.13 50.87L159.13 50.87L159.27 50.95L159.48 51.20Q159.48 51.40 159.38 51.50Q159.28 51.60 159.13 51.60Q158.98 51.60 158.78 51.49L158.78 51.49Q158.63 51.60 158.48 51.60L158.48 51.60Q158.25 51.60 158.05 51.39Q157.85 51.19 157.78 50.95L157.78 50.95L157.88 50.87Q157.91 50.92 157.97 50.92L157.97 50.92Q158.11 50.92 158.11 50.75L158.11 50.75L158.10 50.66Q158.02 50.62 157.90 50.62Q157.79 50.62 157.68 50.68Q157.58 50.75 157.54 50.87L157.54 50.87L157.64 50.95L157.85 51.20Q157.79 51.40 157.66 51.50Q157.52 51.60 157.37 51.60Q157.22 51.60 157.05 51.49L157.05 51.49Q156.86 51.60 156.70 51.60L156.70 51.60Q156.49 51.60 156.32 51.39Q156.16 51.18 156.16 50.95L156.16 50.95L156.29 50.87Q156.29 50.92 156.37 50.92Q156.44 50.92 156.51 50.82Q156.58 50.72 156.60 50.59L156.60 50.59L156.37 50.34L156.42 50.04Q156.60 50.04 156.70 50.07L156.70 50.07L156.86 49.22L156.69 49.01ZM158.23 50.19L158.23 50.19Q158.27 50.16 158.32 50.08L158.32 50.08L158.43 50.08Q158.49 50.16 158.55 50.19L158.55 50.19Q158.56 50.16 158.61 50.11L158.61 50.11L158.38 48.88L158.61 48.88L158.61 48.54L156.80 48.54L156.80 48.88L157.04 48.88L156.80 50.11Q156.85 50.15 156.87 50.19L156.87 50.19Q156.92 50.16 156.99 50.08L156.99 50.08L157.10 50.08Q157.13 50.16 157.17 50.19L157.17 50.19Q157.33 50.03 157.71 50.03Q158.08 50.03 158.23 50.19ZM158.53 51.09L158.56 51.09Q158.74 51.23 158.91 51.23Q159.08 51.23 159.13 51.02L159.13 51.02Q159.11 51.03 159.08 51.03L159.08 51.03Q158.92 51.03 158.81 50.88Q158.70 50.72 158.70 50.58L158.70 50.58Q158.70 50.28 158.93 50.25L158.93 50.25L158.91 50.15Q158.83 50.15 158.79 50.15Q158.75 50.16 158.70 50.20Q158.64 50.25 158.61 50.34L158.61 50.34Q158.51 50.32 158.39 50.20L158.39 50.20Q158.36 50.25 158.32 50.29Q158.28 50.32 158.23 50.34L158.23 50.34Q158.07 50.14 157.70 50.14Q157.34 50.14 157.19 50.34L157.19 50.34Q157.09 50.32 157.02 50.20L157.02 50.20Q156.92 50.31 156.82 50.34L156.82 50.34Q156.78 50.25 156.72 50.20Q156.67 50.16 156.62 50.15Q156.58 50.15 156.51 50.15L156.51 50.15L156.49 50.25Q156.61 50.26 156.66 50.35Q156.72 50.43 156.72 50.57Q156.72 50.72 156.61 50.88Q156.50 51.03 156.34 51.03L156.34 51.03L156.29 51.02Q156.34 51.23 156.51 51.23Q156.67 51.23 156.86 51.09L156.86 51.09L156.88 51.09Q157.02 51.23 157.17 51.23L157.17 51.23Q157.35 51.23 157.49 51.02L157.49 51.02Q157.46 51.03 157.42 51.03L157.42 51.03Q157.18 51.03 157.18 50.79Q157.18 50.55 157.34 50.41Q157.50 50.27 157.71 50.27Q157.92 50.27 158.08 50.41Q158.23 50.55 158.23 50.79Q158.23 51.03 158.00 51.03L158.00 51.03L157.92 51.02Q158.05 51.23 158.25 51.23L158.25 51.23Q158.40 51.23 158.53 51.09L158.53 51.09ZM158.10 49.93L157.33 49.93L157.55 48.88L157.86 48.88L158.10 49.93ZM157.95 49.82L157.84 49.32L157.73 49.82L157.95 49.82ZM162.07 50.54L162.07 51.29Q162.07 51.44 162.15 51.48L162.15 51.48L162.07 51.60Q161.96 51.60 161.84 51.54Q161.72 51.49 161.66 51.42L161.66 51.42Q161.59 51.49 161.42 51.54Q161.25 51.60 161.10 51.60L161.10 51.60Q160.79 51.60 160.60 51.43L160.60 51.43Q160.43 51.60 160.21 51.60Q159.99 51.60 159.81 51.38Q159.62 51.17 159.59 50.95L159.59 50.95L159.71 50.87Q159.73 50.91 159.79 50.91L159.79 50.91Q159.96 50.91 159.96 50.60L159.96 50.60L159.92 50.60L159.71 50.35L159.71 50.04Q159.89 50.04 159.96 50.06L159.96 50.06L159.96 49.26L159.84 49.26L159.63 49.01L159.63 48.43L161.87 48.43L162.08 48.68L162.08 49.69L161.60 49.69L161.39 49.44L161.39 49.26L160.94 49.26L160.94 49.51L161.24 49.51L161.45 49.76L161.45 50.24L161.13 50.24L161.18 50.29L161.18 50.60Q161.11 50.60 161.07 50.61Q161.03 50.62 160.98 50.65Q160.94 50.69 160.94 50.76L160.94 50.76L160.94 50.78Q160.99 50.80 161.10 50.80Q161.21 50.80 161.31 50.73Q161.40 50.67 161.40 50.54L161.40 50.54Q161.40 50.52 161.38 50.42L161.38 50.42L161.38 50.29L161.86 50.29L162.07 50.54ZM160.19 50.18L160.19 50.18Q160.23 50.16 160.29 50.08L160.29 50.08L160.40 50.08Q160.45 50.16 160.49 50.18L160.49 50.18Q160.54 50.12 160.61 50.09L160.61 50.09L160.61 49.87L161.12 49.87L161.12 49.62L160.61 49.62L160.61 48.90L161.50 48.90L161.50 49.33L161.75 49.33L161.75 48.54L159.75 48.54L159.75 48.90L160.08 48.90L160.08 50.09Q160.14 50.12 160.19 50.18ZM161.52 50.56L161.52 50.56Q161.52 50.73 161.39 50.82Q161.26 50.92 161.08 50.92Q160.89 50.92 160.75 50.81Q160.61 50.71 160.61 50.49L160.61 50.49Q160.61 50.41 160.67 50.33Q160.73 50.25 160.86 50.25L160.86 50.25L160.86 50.15Q160.79 50.15 160.75 50.16Q160.71 50.16 160.64 50.21Q160.58 50.25 160.53 50.34L160.53 50.34Q160.43 50.32 160.34 50.20L160.34 50.20Q160.27 50.31 160.15 50.34L160.15 50.34Q160.10 50.25 160.04 50.21Q159.97 50.16 159.93 50.16Q159.89 50.15 159.82 50.15L159.82 50.15L159.82 50.25Q159.96 50.25 160.03 50.35Q160.09 50.45 160.09 50.62Q160.09 50.80 160.03 50.91Q159.98 51.02 159.80 51.02L159.80 51.02L159.74 51.02Q159.81 51.23 160.00 51.23Q160.19 51.23 160.37 51.04L160.37 51.04L160.41 51.04L160.42 51.06Q160.62 51.22 160.91 51.22Q161.20 51.22 161.45 51.03L161.45 51.03Q161.49 51.07 161.60 51.13Q161.72 51.20 161.79 51.22L161.79 51.22Q161.75 51.17 161.75 51.00L161.75 51.00L161.75 50.41L161.50 50.41Q161.52 50.49 161.52 50.56ZM164.74 50.67L164.74 50.67L164.75 50.85Q164.75 51.24 164.48 51.44Q164.21 51.65 163.84 51.65L163.84 51.65Q163.73 51.65 163.62 51.62Q163.51 51.59 163.45 51.56Q163.39 51.52 163.31 51.48Q163.23 51.43 163.22 51.42L163.22 51.42L163.12 51.37Q163.03 51.45 162.89 51.52Q162.74 51.60 162.63 51.60L162.63 51.60L162.42 51.35L162.35 51.23Q162.42 51.19 162.42 51.04L162.42 51.04L162.42 50.29L162.91 50.29L163.11 50.54L163.11 50.67L163.13 50.79Q163.22 50.85 163.40 50.85Q163.59 50.85 163.63 50.67L163.63 50.67Q163.56 50.71 163.54 50.74L163.54 50.74L163.13 50.25L163.21 50.19Q163.03 50.08 162.92 50Q162.81 49.92 162.67 49.79L162.67 49.79Q162.38 49.50 162.38 49.13Q162.38 48.76 162.66 48.57Q162.94 48.38 163.31 48.38L163.31 48.38Q163.51 48.38 163.67 48.44Q163.83 48.50 163.89 48.56L163.89 48.56L163.94 48.62L163.94 48.43L164.46 48.43L164.67 48.68L164.67 49.61L164.18 49.61L163.97 49.36L163.91 49.17Q163.84 49.13 163.75 49.13Q163.65 49.13 163.59 49.20Q163.52 49.26 163.52 49.38L163.52 49.38L163.53 49.42Q163.54 49.43 163.76 49.53Q163.98 49.64 164.18 49.77Q164.38 49.91 164.43 50.05L164.43 50.05Q164.49 50.04 164.65 50.04L164.65 50.04L164.86 50.29L164.86 50.60Q164.74 50.60 164.74 50.67ZM162.50 49.10L162.50 49.10Q162.50 49.31 162.61 49.47Q162.71 49.63 162.84 49.71Q162.96 49.79 163.16 49.90Q163.36 50.01 163.43 50.06L163.43 50.06Q163.51 50.04 163.58 50.04L163.58 50.04Q163.75 50.04 163.90 50.17L163.90 50.17L163.97 50.09L164.08 50.09Q164.13 50.16 164.17 50.18L164.17 50.18Q164.22 50.12 164.30 50.09L164.30 50.09Q164.21 49.93 164.01 49.80Q163.82 49.68 163.64 49.61Q163.46 49.53 163.32 49.41Q163.18 49.29 163.18 49.13L163.18 49.13Q163.18 49.03 163.23 48.94L163.23 48.94Q163.33 48.76 163.55 48.76L163.55 48.76Q163.91 48.76 164.07 49.24L164.07 49.24L164.36 49.24L164.36 48.54L164.05 48.54L164.05 48.83L164.02 48.83Q163.75 48.50 163.31 48.50L163.31 48.50Q162.98 48.50 162.74 48.66Q162.50 48.83 162.50 49.10ZM164.42 50.61L164.42 50.61L164.41 50.42Q164.41 50.25 164.55 50.25L164.55 50.25L164.55 50.14Q164.47 50.14 164.43 50.15Q164.39 50.16 164.33 50.20Q164.26 50.25 164.21 50.34L164.21 50.34Q164.11 50.32 164.03 50.20L164.03 50.20Q163.95 50.29 163.86 50.32L163.86 50.32Q163.74 50.14 163.54 50.14L163.54 50.14Q163.41 50.14 163.29 50.26L163.29 50.26L163.35 50.34Q163.43 50.28 163.51 50.28Q163.60 50.28 163.66 50.33Q163.73 50.38 163.74 50.44Q163.76 50.51 163.76 50.59Q163.76 50.67 163.73 50.75Q163.71 50.82 163.62 50.90Q163.53 50.97 163.39 50.97L163.39 50.97Q163.16 50.97 162.98 50.83Q162.81 50.69 162.79 50.41L162.79 50.41L162.54 50.41L162.54 51.00Q162.54 51.17 162.50 51.21L162.50 51.21Q162.58 51.20 162.72 51.12Q162.85 51.03 162.88 50.97L162.88 50.97Q162.94 51.01 163.05 51.07L163.05 51.07Q163.38 51.28 163.63 51.28L163.63 51.28Q163.96 51.28 164.19 51.11Q164.42 50.93 164.42 50.61ZM166.95 49.26L166.80 49.26L166.80 50.04L166.84 50.04L167.05 50.29L167.05 50.60Q166.88 50.60 166.84 50.66Q166.79 50.72 166.79 50.84L166.79 50.84L166.79 50.91Q166.82 50.91 166.84 50.87L166.84 50.87L166.95 50.95L167.16 51.20Q167.14 51.40 167.02 51.50Q166.90 51.60 166.74 51.60Q166.58 51.60 166.42 51.48L166.42 51.48Q166.26 51.60 166.09 51.60Q165.92 51.60 165.70 51.40Q165.49 51.19 165.46 50.95L165.46 50.95L165.58 50.87Q165.60 50.91 165.66 50.91L165.66 50.91Q165.84 50.91 165.84 50.60L165.84 50.60L165.79 50.60L165.58 50.35L165.58 50.04Q165.75 50.04 165.82 50.06L165.82 50.06L165.82 49.26L165.70 49.26L165.70 49.69L165.22 49.69L165.01 49.44L165.01 48.43L167.41 48.43L167.62 48.68L167.62 49.69L167.16 49.69L166.95 49.44L166.95 49.26ZM166.05 50.18L166.05 50.18Q166.10 50.16 166.15 50.08L166.15 50.08L166.26 50.08Q166.32 50.16 166.36 50.18L166.36 50.18Q166.40 50.12 166.47 50.09L166.47 50.09L166.47 48.90L167.05 48.90L167.05 49.33L167.29 49.33L167.29 48.54L165.12 48.54L165.12 49.33L165.37 49.33L165.37 48.90L165.95 48.90L165.95 50.09Q166.00 50.12 166.05 50.18ZM166.20 51.09L166.22 51.09Q166.37 51.22 166.55 51.22Q166.73 51.22 166.82 51.01L166.82 51.01Q166.79 51.03 166.75 51.03L166.75 51.03Q166.46 51.03 166.46 50.60L166.46 50.60Q166.46 50.25 166.73 50.25L166.73 50.25L166.73 50.14Q166.65 50.14 166.61 50.15Q166.57 50.16 166.51 50.20Q166.45 50.25 166.40 50.34L166.40 50.34Q166.30 50.32 166.21 50.19L166.21 50.19Q166.12 50.31 166.02 50.34L166.02 50.34Q165.97 50.25 165.90 50.20Q165.84 50.16 165.80 50.15Q165.76 50.14 165.68 50.14L165.68 50.14L165.68 50.25Q165.96 50.25 165.96 50.60L165.96 50.60Q165.96 50.92 165.82 50.99L165.82 50.99Q165.76 51.03 165.67 51.03L165.67 51.03L165.60 51.01Q165.68 51.22 165.86 51.22Q166.05 51.22 166.20 51.09L166.20 51.09Z"/><path d="M167.98 49.36L167.76 49.31L167.76 49.17Q167.81 49.16 167.87 49.15Q167.94 49.15 168.01 49.14Q168.08 49.13 168.13 49.12Q168.18 49.12 168.20 49.12L168.20 49.12Q168.21 49.12 168.23 49.14Q168.26 49.17 168.28 49.20Q168.31 49.23 168.31 49.24L168.31 49.24L168.31 51.03L169.07 51.10L169.13 50.63L169.32 50.63L169.33 51.26Q169.11 51.27 168.95 51.27Q168.78 51.28 168.64 51.28Q168.50 51.29 168.38 51.29Q168.25 51.29 168.10 51.29L168.10 51.29Q168.09 51.29 168.06 51.27Q168.03 51.24 168.00 51.22Q167.98 51.19 167.98 51.18L167.98 51.18L167.98 49.36ZM168.59 49.15L168.59 49.15L168.68 49.15L168.68 50.91Q168.68 50.93 168.66 50.98Q168.65 51.04 168.61 51.11L168.61 51.11L168.50 51.11L168.50 49.45Q168.50 49.41 168.53 49.33Q168.56 49.24 168.59 49.15ZM168.52 50.27L168.52 50.09L169.04 50.06L169.02 50.30L168.52 50.27ZM168.59 49.33L168.61 49.15L169.32 49.15L169.27 49.76L169.08 49.76L169.04 49.38L168.59 49.33ZM169.68 51.26L169.68 51.26L169.71 50.62L169.90 50.62L169.96 50.99Q170.03 51.00 170.12 51.02Q170.20 51.04 170.29 51.05Q170.37 51.07 170.44 51.08Q170.51 51.09 170.54 51.09L170.54 51.09Q170.55 51.09 170.60 51.06Q170.65 51.03 170.71 50.99Q170.77 50.95 170.82 50.91Q170.87 50.87 170.87 50.84L170.87 50.84Q170.88 50.80 170.88 50.75Q170.89 50.70 170.89 50.65Q170.89 50.60 170.88 50.56Q170.88 50.52 170.86 50.51L170.86 50.51Q170.84 50.47 170.75 50.41Q170.66 50.35 170.55 50.28Q170.44 50.21 170.33 50.13Q170.22 50.06 170.14 49.99Q170.06 49.93 170.03 49.88L170.03 49.88Q170.02 49.86 170.02 49.81Q170.01 49.76 170.00 49.69Q170.00 49.62 170.00 49.56L170.00 49.56Q169.93 49.61 169.90 49.64Q169.87 49.68 169.85 49.72Q169.84 49.75 169.84 49.80L169.84 49.80Q169.84 49.86 169.85 49.90Q169.86 49.94 169.87 49.97L169.87 49.97Q169.91 50.04 169.98 50.09Q170.06 50.14 170.18 50.23L170.18 50.23Q170.26 50.29 170.34 50.35Q170.43 50.40 170.50 50.46Q170.58 50.51 170.63 50.56Q170.68 50.60 170.70 50.63L170.70 50.63Q170.71 50.67 170.71 50.71Q170.71 50.75 170.70 50.78L170.70 50.78Q170.69 50.81 170.63 50.85Q170.57 50.89 170.52 50.92L170.52 50.92Q170.53 50.88 170.53 50.83Q170.53 50.79 170.53 50.76Q170.53 50.72 170.51 50.70L170.51 50.70Q170.49 50.67 170.40 50.60Q170.31 50.54 170.20 50.47Q170.09 50.39 169.98 50.32Q169.87 50.24 169.79 50.17Q169.71 50.09 169.70 50.04L169.70 50.04Q169.69 50.00 169.68 49.95Q169.67 49.90 169.67 49.85Q169.67 49.79 169.68 49.74Q169.68 49.69 169.69 49.65L169.69 49.65Q169.73 49.59 169.80 49.52Q169.87 49.45 169.96 49.38Q170.04 49.31 170.14 49.25Q170.23 49.19 170.31 49.16Q170.40 49.12 170.45 49.12L170.45 49.12Q170.47 49.12 170.52 49.12Q170.58 49.12 170.65 49.13Q170.73 49.13 170.81 49.14Q170.89 49.15 170.97 49.16Q171.05 49.17 171.11 49.18L171.11 49.18L171.08 49.78L170.88 49.78L170.83 49.43Q170.78 49.40 170.71 49.38Q170.63 49.36 170.56 49.35Q170.49 49.34 170.44 49.34L170.44 49.34Q170.42 49.34 170.40 49.35Q170.37 49.35 170.36 49.36Q170.35 49.37 170.34 49.38L170.34 49.38Q170.33 49.40 170.32 49.46Q170.32 49.51 170.32 49.57Q170.32 49.63 170.33 49.67Q170.34 49.72 170.35 49.73L170.35 49.73Q170.39 49.78 170.47 49.83Q170.54 49.88 170.64 49.94Q170.73 50.00 170.82 50.06Q170.92 50.12 171.00 50.18Q171.09 50.25 171.14 50.31L171.14 50.31Q171.15 50.35 171.16 50.43Q171.16 50.51 171.16 50.59Q171.16 50.68 171.16 50.75Q171.15 50.83 171.14 50.86L171.14 50.86Q171.11 50.93 171.03 51.00Q170.96 51.08 170.86 51.15Q170.76 51.21 170.68 51.25Q170.59 51.29 170.54 51.29L170.54 51.29Q170.47 51.29 170.36 51.29Q170.25 51.29 170.12 51.28Q170.00 51.27 169.88 51.27Q169.76 51.26 169.68 51.26ZM171.88 51.29L171.88 51.29Q171.72 51.29 171.61 51.23Q171.50 51.18 171.45 51.08Q171.40 50.97 171.40 50.84L171.40 50.84Q171.40 50.76 171.42 50.67Q171.44 50.58 171.49 50.50L171.49 50.50L171.73 50.63Q171.72 50.67 171.72 50.72Q171.71 50.77 171.71 50.82L171.71 50.82Q171.71 50.92 171.74 50.98Q171.78 51.03 171.90 51.03L171.90 51.03Q171.92 51.03 171.97 51.01Q172.03 50.98 172.12 50.94Q172.20 50.90 172.28 50.86L172.28 50.86L172.28 51.01Q172.20 51.07 172.11 51.13Q172.02 51.20 171.95 51.25Q171.89 51.29 171.88 51.29ZM171.69 50.66L171.49 50.50L172.24 50.39L172.24 50.55L171.69 50.66ZM171.56 49.94L171.51 49.88L171.56 49.67Q171.69 49.66 171.79 49.66Q171.88 49.66 171.97 49.66Q172.06 49.66 172.15 49.67L172.15 49.67Q172.20 49.67 172.27 49.72Q172.33 49.77 172.39 49.84Q172.45 49.91 172.50 49.98Q172.54 50.05 172.54 50.10L172.54 50.10L172.54 51.05L172.66 51.11L172.66 51.24Q172.59 51.25 172.52 51.26Q172.45 51.27 172.40 51.28Q172.35 51.29 172.34 51.29L172.34 51.29Q172.33 51.29 172.30 51.27Q172.27 51.25 172.25 51.22Q172.23 51.19 172.23 51.18L172.23 51.18L172.23 51.01L172.22 50.96L172.22 50.17Q172.22 50.06 172.17 50Q172.13 49.94 172.04 49.94L172.04 49.94Q172.00 49.93 171.92 49.93Q171.84 49.93 171.74 49.94Q171.65 49.94 171.56 49.94L171.56 49.94ZM173.21 50.49L173.21 50.49Q173.21 50.72 173.27 50.84Q173.33 50.96 173.41 51.00Q173.48 51.04 173.53 51.04L173.53 51.04Q173.55 51.04 173.60 51.04Q173.65 51.04 173.72 51.04Q173.79 51.03 173.86 51.03Q173.93 51.03 173.99 51.03L173.99 51.03L173.99 51.17Q173.92 51.19 173.84 51.21Q173.76 51.23 173.68 51.25Q173.60 51.27 173.54 51.28Q173.48 51.29 173.45 51.29L173.45 51.29Q173.31 51.29 173.18 51.21Q173.04 51.13 172.96 50.97Q172.87 50.81 172.87 50.56L172.87 50.56Q172.87 50.38 172.90 50.23Q172.92 50.09 172.96 50.02L172.96 50.02Q172.98 49.98 173.06 49.92Q173.13 49.86 173.21 49.80Q173.30 49.74 173.37 49.70Q173.45 49.66 173.48 49.66L173.48 49.66Q173.67 49.66 173.79 49.72Q173.92 49.79 173.97 49.96Q174.03 50.13 174.03 50.47L174.03 50.47L173.05 50.57L173.05 50.44L173.69 50.33Q173.69 50.12 173.65 49.99Q173.60 49.87 173.45 49.87L173.45 49.87Q173.42 49.87 173.39 49.87Q173.36 49.88 173.32 49.89L173.32 49.89Q173.27 49.92 173.24 50.08Q173.21 50.25 173.21 50.49ZM174.93 51.29L174.93 51.29Q174.89 51.29 174.82 51.29Q174.74 51.29 174.64 51.28Q174.54 51.27 174.45 51.26Q174.36 51.25 174.30 51.25L174.30 51.25L174.30 50.74L174.48 50.74L174.55 51.01Q174.61 51.02 174.68 51.04Q174.75 51.06 174.81 51.07Q174.88 51.08 174.91 51.08L174.91 51.08Q174.93 51.08 174.95 51.05Q174.98 51.02 175.00 50.97Q175.02 50.92 175.02 50.88L175.02 50.88Q175.02 50.82 174.98 50.77Q174.95 50.73 174.88 50.68Q174.81 50.64 174.68 50.57L174.68 50.57Q174.54 50.49 174.46 50.43Q174.38 50.37 174.34 50.30Q174.30 50.23 174.30 50.14L174.30 50.14Q174.30 50.09 174.31 50.05Q174.31 50 174.32 49.97L174.32 49.97Q174.35 49.93 174.40 49.87Q174.45 49.82 174.51 49.77Q174.57 49.72 174.62 49.69Q174.67 49.66 174.70 49.66L174.70 49.66Q174.74 49.66 174.81 49.66Q174.89 49.67 174.98 49.67Q175.06 49.67 175.14 49.68Q175.23 49.68 175.28 49.69L175.28 49.69L175.27 50.12L175.07 50.12L175.05 49.93Q175.03 49.93 174.98 49.92Q174.93 49.91 174.86 49.90Q174.80 49.89 174.74 49.88Q174.69 49.88 174.67 49.88L174.67 49.88Q174.65 49.88 174.63 49.89Q174.62 49.91 174.61 49.94Q174.59 49.97 174.59 50.02L174.59 50.02Q174.59 50.09 174.63 50.14Q174.67 50.19 174.73 50.22Q174.79 50.26 174.85 50.29L174.85 50.29Q174.91 50.33 175.00 50.38Q175.08 50.43 175.16 50.49Q175.25 50.54 175.30 50.61Q175.35 50.68 175.35 50.76L175.35 50.76Q175.35 50.80 175.35 50.84Q175.34 50.89 175.33 50.94L175.33 50.94Q175.30 50.98 175.25 51.04Q175.20 51.10 175.14 51.16Q175.09 51.22 175.03 51.26Q174.97 51.29 174.93 51.29ZM175.93 51.29L175.93 51.29Q175.90 51.29 175.85 51.26Q175.81 51.23 175.77 51.19Q175.73 51.14 175.70 51.10Q175.67 51.05 175.67 51.02L175.67 51.02L175.67 49.88L175.45 49.88L175.45 49.77L175.67 49.66L175.87 49.42Q175.88 49.42 175.92 49.44Q175.95 49.45 175.99 49.47L175.99 49.47L175.99 49.69L176.33 49.69L176.33 49.89L175.99 49.89L175.99 50.87Q175.99 50.97 176.01 51.01Q176.02 51.05 176.07 51.05L176.07 51.05L176.36 51.06L176.36 51.23Q176.31 51.24 176.24 51.25Q176.18 51.26 176.11 51.27Q176.05 51.28 176.00 51.29Q175.95 51.29 175.93 51.29Z"/><path d="M176.21 50.99L176.21 49.70L179.07 49.70L179.07 50.99L176.21 50.99ZM178.69 50.99L178.69 49.70L181.55 49.70L181.55 50.99L178.69 50.99ZM181.16 50.99L181.16 49.70L184.02 49.70L184.02 50.99L181.16 50.99ZM183.63 50.99L183.63 49.70L186.49 49.70L186.49 50.99L183.63 50.99ZM186.10 50.99L186.10 49.70L188.96 49.70L188.96 50.99L186.10 50.99ZM188.57 50.99L188.57 49.70L190.19 49.70L190.19 50.99L188.57 50.99Z"/>
            </svg>