<?xml version="1.0" encoding="UTF-8" standalone="no"?>
<svg
   width="100"
   height="100"
   version="1.1"
   id="svg1"
   viewBox="0 0 100 100"
   sodipodi:docname="Vox-ATypI-blackletter.svg"
   inkscape:version="1.3 (0e150ed, 2023-07-21)"
   xmlns:inkscape="http://www.inkscape.org/namespaces/inkscape"
   xmlns:sodipodi="http://sodipodi.sourceforge.net/DTD/sodipodi-0.dtd"
   xmlns="http://www.w3.org/2000/svg"
   xmlns:svg="http://www.w3.org/2000/svg">
  <defs
     id="defs1" />
  <sodipodi:namedview
     id="namedview1"
     pagecolor="#ffffff"
     bordercolor="#000000"
     borderopacity="0.25"
     inkscape:showpageshadow="2"
     inkscape:pageopacity="0.0"
     inkscape:pagecheckerboard="0"
     inkscape:deskcolor="#d1d1d1"
     inkscape:zoom="2.36"
     inkscape:cx="50"
     inkscape:cy="49.788136"
     inkscape:window-width="1800"
     inkscape:window-height="1097"
     inkscape:window-x="0"
     inkscape:window-y="44"
     inkscape:window-maximized="1"
     inkscape:current-layer="svg1" />
  <path
     id="path1"
     style="stroke-width:1"
     d="m 45.897759,27.127854 -2.888801,3.512782 q -0.242659,0.248437 -0.514206,0.248437 v 0 q -0.410209,0 -0.751088,-0.508429 -0.340879,-0.502651 -0.589316,-0.774199 v 0 q -2.28793,-2.28793 -3.951879,-0.930194 v 0 q -0.323546,0.21955 -0.103998,0.600871 v 0 q 1.143966,1.773724 1.906609,3.379898 v 0 q 1.635062,3.570557 1.155521,7.193114 -0.473764,3.628333 -2.467037,6.517135 -1.987494,2.888801 -5.159398,4.726078 -3.177681,1.843055 -6.9389,1.843055 v 0 q -4.824298,0 -8.313969,-2.276375 -3.483894,-2.276375 -3.784329,-6.52869 v 0 l 0.491096,-2.235932 q 0.242659,-1.115077 0.595093,-2.207044 v 0 q 0.982192,-2.807915 -0.242659,-3.790107 v 0 q -0.681757,-0.543095 -1.554175,-0.543095 v 0 q -0.814642,-0.02889 -0.814642,-0.664424 0,-0.641314 0.814642,-0.670202 v 0 q 0.681757,0 1.473288,0.161773 0.791532,0.16755 1.467511,0.271548 v 0 q 2.917689,0.629758 4.52964,2.357261 1.606174,1.733281 0.485318,5.656272 v 0 q -1.063078,3.628334 -0.283102,6.135814 0.774199,2.507479 5.026514,2.750138 v 0 q 3.73233,0.161773 5.80649,-2.097269 2.068381,-2.26482 2.617254,-5.945152 v 0 q 0.381321,-2.559478 -1.120855,-5.719827 -1.496399,-3.160348 -4.003878,-6.349584 v 0 q -5.696716,-7.193115 -4.494975,-10.232134 1.195964,-3.039017 5.286506,-6.667351 v 0 -0.02311 q 0.132885,-0.138662 0.43332,-0.138662 v 0 q 0.681757,0 0.681757,0.652869 v 0 q 0,0.271548 -0.242659,0.519985 v 0 q -2.316818,2.449702 -0.248437,4.934071 v 0 q 1.473289,1.796834 2.906134,3.553225 1.427067,1.756391 2.651919,3.478116 v 0 q 0.358212,0.43332 0.739533,0.02311 v 0 q 1.143966,-1.444401 2.316819,-2.871469 1.172852,-1.432845 2.368816,-2.906133 v 0 q 0.491097,-0.595093 1.063079,-0.132885 v 0 q 0.982192,0.814642 1.923941,1.646617 0.935972,0.831974 1.918165,1.646616 v 0 q 0.248436,0.196438 0.548871,0.467986 0.294658,0.271547 0.294658,0.571982 v 0 q 0,0.24266 -0.363989,0.641314 -0.369767,0.392877 -0.670202,0.7222 z m -21.41757,3.212347 v 0 Q 19.055021,32.766793 13.9014,30.611748 v 0 Q 8.7015581,28.433592 7.8291401,22.164894 6.9567223,15.896197 11.561471,10.580803 16.16622,5.2711867 24.393525,5.2711867 v 0 q 3.870993,0 7.799763,1.27685 3.922992,1.2826277 7.92687,3.4087852 v 0 q 2.646141,1.3866251 5.176731,0.5199841 v 0 q 0.548872,-0.219549 0.82042,-0.300435 v 0 q 0.60087,-0.109775 0.751088,0.323546 0.150217,0.439098 -0.508429,0.953304 v 0 q -1.958608,1.42129 -3.95188,2.79636 -1.987495,1.375069 -3.894104,2.848356 v 0 q -0.681757,0.543094 -1.502176,0.02311 v 0 Q 34.562104,15.324214 30.240459,13.365608 25.92459,11.401223 21.504724,11.401223 v 0 q -5.176732,0 -8.45841,2.940799 -3.2874548,2.946576 -3.1372372,7.510882 0.1502182,4.564306 3.9923232,7.100673 3.847883,2.530589 9.839256,0.19066 v 0 q 0.491096,-0.19066 0.820419,-0.09822 0.323546,0.09822 0.450653,0.329324 0.12133,0.231103 0,0.514206 -0.127107,0.28888 -0.531539,0.450653 z m 34.555838,-4.79541 V 36.38935 q -0.02889,4.390978 1.63506,5.072735 v 0 q 0.190662,0.132884 0.190662,0.363989 0,0.231104 -0.190662,0.340878 v 0 q -2.45548,1.85461 -3.980767,4.934072 v 0 q -0.161773,0.219549 -0.41021,0.219549 -0.242659,0 -0.404432,-0.219549 v 0 q -1.531065,-3.079462 -4.14254,-4.905184 v 0 q -0.167551,-0.109774 -0.167551,-0.352434 0,-0.248437 0.190661,-0.381321 v 0 q 1.773724,-0.681757 1.773724,-5.072735 v 0 -9.047724 q 0,-2.779027 -1.034192,-3.403008 v 0 q -1.20174,-0.791531 -1.964383,0.571983 v 0 q -0.300437,0.571982 -0.681758,0.271547 -0.381322,-0.300435 0.02889,-0.953304 v 0 q 0.791531,-1.25374 1.513731,-2.565256 0.722201,-1.305738 1.484844,-2.611476 v 0 q 0.43332,-0.791531 1.224851,-0.329323 v 0 l 0.02889,0.02889 q 4.003878,2.016383 4.79541,4.928294 v 0 q 0.052,0.300436 0.271547,0.358211 0.219549,0.052 0.439098,-0.109773 v 0 q 1.496399,-1.25374 3.079462,-2.646142 1.577285,-1.386624 2.149268,-2.559478 v 0 q 0.300435,-0.710645 0.982192,0.02889 v 0 q 1.635062,1.715948 2.796359,2.72125 1.155521,1.011081 3.934547,1.502177 v 0 q 0.491097,0.109775 0.502652,0.421765 0.01734,0.31199 -0.340879,0.421765 v 0 q -0.704867,0.271547 -1.253739,0.941749 -0.543095,0.664424 -0.543095,2.218599 v 0 11.532093 q 0,2.779028 1.034191,3.403008 v 0 q 1.201741,0.739533 1.935496,-0.600871 v 0 q 0.300436,-0.514206 0.69909,-0.231103 0.392877,0.288879 -0.01734,0.941749 v 0 q -0.814642,1.282627 -1.536843,2.57681 -0.7222,1.294183 -1.461733,2.576811 v 0 q -0.491096,0.762643 -1.224851,0.352434 v 0 q -4.957183,-2.397706 -4.957183,-7.112229 v 0 l 0.02311,-13.952908 q 0,-0.82042 -0.404433,-1.063079 v 0 h -0.02889 v -0.05777 l -2.316819,-1.906609 q -0.300435,-0.219549 -0.629758,-0.02889 v 0 l -2.831025,2.207044 q -0.190661,0.138662 -0.190661,0.329323 z m 18.366996,-2.507479 v 0 q 0.052,-0.381321 0.571982,-0.491096 v 0 q 1.66395,-0.41021 2.328374,-1.403957 0.670202,-0.993747 0.589315,-3.47234 v 0 q -0.300435,-2.617252 -1.080411,-4.281201 -0.774199,-1.663949 -1.975941,-2.888801 v 0 q -0.462207,-0.462209 -0.08088,-0.791532 0.381322,-0.3235457 0.901305,0.1906609 v 0 q 0.623981,0.7684211 1.294183,1.6350621 0.670202,0.872418 1.13241,1.802612 v 0 q 0.132885,0.271547 0.392877,0.271547 0.259992,0 0.398655,-0.219549 v 0 q 1.635061,-2.721251 4.483419,-4.4025332 2.84258,-1.6755046 6.170478,-1.5657302 v 0 q 0.571985,0.028888 0.623984,0.5315394 0.05776,0.5026514 -0.623984,0.5026514 v 0 q -2.698136,0 -4.321646,1.5541746 -1.617728,1.554176 -1.617728,5.968264 v 0 q 0,0.358211 0.340878,0.450652 0.340879,0.09822 0.53154,-0.259992 v 0 Q 89.12,12.545188 92.499897,11.591884 v 0 q 0.571985,-0.02889 0.571985,0.43332 v 0 4.824296 q 0.02892,0.571983 -0.4911,0.439098 v 0 q -2.969689,-0.381321 -5.147842,1.715948 v 0 q -0.41021,0.571982 -0.352434,1.172853 0.052,0.600871 0.704867,0.600871 v 0 h 4.691412 q 0.433325,0 0.433325,0.43332 v 0 1.744836 q 0,0.462208 -0.433325,0.462208 v 0 h -5.506053 q -0.381322,0 -0.381322,0.491096 v 0 l -0.02889,15.368421 q 0,0.872418 0.41021,1.120855 v 0 l 1.958606,1.115077 q 0.629755,0.300436 1.883498,-1.305738 v 0 q 0.271545,-0.329323 0.652871,-0.05777 0.381318,0.271547 0.05204,0.60087 v 0 q -2.859915,3.189237 -4.385202,6.268698 v 0 q -0.329323,0.571983 -0.982192,0 v 0 q -1.386618,-1.825726 -2.680802,-2.767475 -1.29996,-0.941749 -4.050098,-1.455956 v 0 q -0.433321,-0.05777 -0.450654,-0.398654 -0.01155,-0.340878 0.288881,-0.473764 v 0 q 0.681757,-0.248436 1.236407,-0.91286 0.560427,-0.670203 0.560427,-2.224377 v 0 L 81.025622,23.96173 q 0,-0.543095 -0.543094,-0.543095 v 0 h -2.478589 q -0.629759,0 -0.600871,-0.381321 z M 49.497206,62.645221 v 0 h 4.714523 q 0.433319,0 0.433319,0.439098 v 0 1.687059 q 0,0.439098 -0.433319,0.439098 v 0 h -3.299011 q -0.190661,0 -0.340879,0.161773 -0.150217,0.161773 -0.09244,0.329324 v 0 q 0.161772,1.525287 -0.08089,4.246537 v 0 l -2.755916,28.674242 q -0.109774,0.924416 -0.543094,0.935967 -0.439098,0.01732 -0.548873,-0.993741 v 0 Q 45.874649,90.227492 45.164004,81.913524 44.453359,73.605332 43.661827,65.262475 v 0 h -3.160348 q -0.404432,0 -0.421765,-0.392877 -0.01155,-0.398655 0.311991,-0.450653 v 0 q 1.773723,-0.300436 2.946577,-1.825723 1.172853,-1.525286 1.005302,-3.980767 v 0 q -0.19066,-3.870993 1.011081,-6.499802 1.195963,-2.628809 4.79541,-1.455956 v 0 q 1.987494,0.681757 3.639889,1.184409 1.646616,0.502651 2.328373,-0.560428 v 0 q 0.329324,-0.571982 0.600871,-0.491096 0.271547,0.08666 -0.08089,1.063078 v 0 q -0.982192,3.108351 -2.547922,4.182985 -1.571508,1.080411 -4.864741,-0.502652 v 0 q -3.189236,-1.473289 -3.749664,1.461734 -0.560427,2.929244 1.184409,3.824772 v 0 q 1.692837,0.930194 2.207044,1.525287 v 0 q 0.300435,0.300435 0.629758,0.300435 z m 15.397309,7.112228 v 0 l -0.02889,13.219153 q 0,0.872419 0.439098,1.120855 v 0 l 1.958606,1.143965 q 0.629759,0.381322 1.912386,-1.334625 v 0 q 0.271547,-0.358212 0.67598,-0.150218 0.41021,0.202215 0,0.693312 v 0 q -2.859913,3.189236 -4.3852,6.268698 v 0 q -0.462208,0.623981 -1.01108,0 v 0 q -1.525288,-1.773724 -2.842581,-2.69814 -1.323071,-0.930194 -3.888326,-1.525287 v 0 q -0.491097,-0.138662 -0.491097,-0.439097 0,-0.300437 0.358212,-0.433321 v 0 q 1.825722,-0.300435 1.796834,-3.137238 v 0 -11.526315 q 0,-2.779027 -1.034191,-3.408786 v 0 q -1.201741,-0.785754 -1.964384,0.571983 v 0 q -0.300436,0.571983 -0.681758,0.277325 -0.381321,-0.300435 0.02889,-0.953305 v 0 q 0.791532,-1.253739 1.513732,-2.565255 0.7222,-1.305738 1.484843,-2.617254 v 0 q 0.462208,-0.814641 1.224852,-0.300435 v 0 q 4.009655,1.935497 4.795409,4.905185 v 0 q 0.08666,0.277324 0.329323,0.340878 0.242659,0.06933 0.433321,-0.173329 v 0 l 4.200316,-4.824297 q 0.161773,-0.161773 0.381322,-0.150217 0.219549,0.01155 0.352434,0.231103 v 0 l 2.86569,5.477167 q 0.103997,0.248437 -0.05777,0.462208 v 0 l -3.270122,3.92877 q -0.190662,0.19066 -0.421766,0.161772 -0.231103,-0.02889 -0.31199,-0.248436 v 0 l -2.207044,-4.084765 q -0.109775,-0.161773 -0.340878,-0.207994 -0.231105,-0.04045 -0.421766,0.150218 v 0 l -1.282627,1.554175 q -0.109774,0.109774 -0.109774,0.271547 z m 20.002057,-1.767946 v 0 l -0.02311,15.258646 q 0,0.849308 0.404432,1.120855 v 0 l 1.964385,1.115077 q 0.571983,0.491097 1.906609,-1.305737 v 0 q 0.248436,-0.358211 0.6702,-0.109775 0.421765,0.242659 0.04044,0.652869 v 0 q -2.917692,3.189237 -4.390981,6.268698 v 0 q -0.462208,0.571983 -1.005302,0 v 0 q -1.525288,-1.796834 -2.836803,-2.69814 -1.305738,-0.901306 -3.894104,-1.525287 v 0 q -0.439098,-0.08089 -0.467986,-0.410209 -0.02311,-0.329323 0.329324,-0.462209 v 0 q 1.825722,-0.439098 1.796834,-3.137238 v 0 L 79.3674,68.018391 q 0.02311,-0.491096 -0.41021,-0.491096 v 0 h -3.218124 q -0.381322,0 -0.491096,-0.300435 v 0 q -0.103997,-0.300435 0.248436,-0.519985 v 0 q 3.270123,-2.316818 6.661575,-5.586941 3.391453,-3.270123 6.176257,-6.210922 v 0 q 0.352434,-0.381322 0.693313,-0.150217 0.340879,0.231104 0.01155,0.664424 v 0 q -1.25374,1.554175 -2.519035,4.032766 -1.265294,2.484368 -1.542619,4.523862 v 0 q -0.052,0.277325 0.02889,0.41021 v 0 q 0.161773,0.16755 0.381322,0.16755 v 0 h 4.714521 q 0.190658,0 0.329318,0.132886 v 0 q 0.132885,0.19066 0.132885,0.352433 v 0 l -0.109773,2.045271 q -0.05204,0.439098 -0.462203,0.439098 v 0 h -4.714528 q -0.381322,0 -0.381322,0.462208 z"
     class="f-primary" />
</svg>
