<?xml version="1.0" encoding="UTF-8" standalone="no"?>
            <svg
               xmlns="http://www.w3.org/2000/svg"
               xmlns:svg="http://www.w3.org/2000/svg"
               width="100"
               height="100"
               version="1.1"
               id="svg1"
               viewBox="0 0 100 100"
               >
               <path fill="black" d="M-25.93 82L-59.67 82L-59.67 30L-26.33 30L-26.33 36.27L-52.20 36.27L-52.20 51L-31.80 51L-31.80 57L-52.20 57L-52.20 75.73L-25.93 75.73L-25.93 82ZM0.13 83L0.13 83Q-4.93 83-8.77 81.60Q-12.60 80.20-15.23 77.70Q-17.87 75.20-19.30 71.87Q-20.73 68.53-21 64.67L-21 64.67L-13.80 64.67Q-13.60 67.73-12.00 70.57Q-10.40 73.40-7.30 75.20Q-4.20 77 0.47 77L0.47 77Q5.53 77 8.40 74.77Q11.27 72.53 11.27 68.67L11.27 68.67Q11.27 64.80 8.50 62.73Q5.73 60.67 1.53 59.27L1.53 59.27L-3.47 57.60Q-7.27 56.33-10.73 54.63Q-14.20 52.93-16.40 50.13Q-18.60 47.33-18.60 42.80L-18.60 42.80Q-18.60 38.40-16.47 35.33Q-14.33 32.27-10.53 30.63Q-6.73 29-1.73 29L-1.73 29Q4.33 29 8.27 31.17Q12.20 33.33 14.20 36.87Q16.20 40.40 16.47 44.67L16.47 44.67L9.27 44.67Q9.07 42.20 7.90 40Q6.73 37.80 4.33 36.40Q1.93 35-2 35L-2 35Q-6.27 35-8.83 36.90Q-11.40 38.80-11.40 42.13L-11.40 42.13Q-11.40 45.87-8.43 47.87Q-5.47 49.87-1.33 51.20L-1.33 51.20L3.73 52.87Q7.53 54.07 10.90 55.80Q14.27 57.53 16.37 60.37Q18.47 63.20 18.47 67.93L18.47 67.93Q18.47 75.13 13.47 79.07Q8.47 83 0.13 83ZM40.80 83L40.80 83Q35.67 83 32.07 80.40Q28.47 77.80 26.57 73.10Q24.67 68.40 24.67 62L24.67 62Q24.67 55.60 26.57 50.90Q28.47 46.20 32.10 43.60Q35.73 41 40.93 41L40.93 41Q45.47 41 48.17 42.90Q50.87 44.80 51.93 47.20L51.93 47.20L53.53 47.20L53.53 42L59.93 42L59.93 82L53.53 82L53.53 76.80L51.93 76.80Q50.87 79.20 48.13 81.10Q45.40 83 40.80 83ZM42.07 77L42.07 77Q47.07 77 50 72.87Q52.93 68.73 52.93 62L52.93 62Q52.93 55.27 50 51.13Q47.07 47 42.07 47L42.07 47Q37.20 47 34.60 50.93Q32 54.87 32 62L32 62Q32 69.13 34.60 73.07Q37.20 77 42.07 77ZM86.60 83L86.60 83Q77.80 83 73.23 77.23Q68.67 71.47 68.67 62L68.67 62Q68.67 55.73 70.70 51.03Q72.73 46.33 76.70 43.67Q80.67 41 86.53 41L86.53 41Q94.73 41 99.03 46.33Q103.33 51.67 103.33 61.80L103.33 61.80L103.33 63.87L75.67 63.87Q76 69.73 78.70 73.50Q81.40 77.27 86.67 77.27L86.67 77.27Q90.47 77.27 92.80 75.13Q95.13 73 96.13 69.20L96.13 69.20L102.93 69.20Q102.07 73.27 100.07 76.37Q98.07 79.47 94.73 81.23Q91.40 83 86.60 83ZM75.73 58.67L75.73 58.67L96.33 58.67Q96.13 52.87 93.53 49.80Q90.93 46.73 86.47 46.73L86.47 46.73Q81.73 46.73 79.03 49.87Q76.33 53 75.73 58.67ZM125.13 83L125.13 83Q119.60 83 116.00 81.03Q112.40 79.07 110.60 75.90Q108.80 72.73 108.60 69.20L108.60 69.20L115.67 69.20Q115.87 71.20 116.93 73.10Q118.00 75 120.07 76.20Q122.13 77.40 125.33 77.40L125.33 77.40Q128.87 77.40 130.80 75.90Q132.73 74.40 132.73 71.93L132.73 71.93Q132.73 69.80 131.23 68.30Q129.73 66.80 126.60 65.67L126.60 65.67L121.87 64Q118.67 62.80 116.10 61.37Q113.53 59.93 112.00 57.77Q110.47 55.60 110.47 52.27L110.47 52.27Q110.47 47.13 114.13 44.07Q117.80 41 124.20 41L124.20 41Q128.80 41 131.83 42.60Q134.87 44.20 136.47 46.97Q138.07 49.73 138.33 53.20L138.33 53.20L131.53 53.20Q131.27 50.67 129.53 48.63Q127.80 46.60 123.87 46.60L123.87 46.60Q120.73 46.60 119.07 47.97Q117.40 49.33 117.40 51.67L117.40 51.67Q117.40 53.93 119.00 55.40Q120.60 56.87 123.80 58.07L123.80 58.07L128.53 59.67Q131.73 60.87 134.27 62.30Q136.80 63.73 138.23 65.87Q139.67 68 139.67 71.33L139.67 71.33Q139.67 76.47 135.93 79.73Q132.20 83 125.13 83ZM161 82L153.07 82Q151.60 80.20 150.70 77.67Q149.80 75.13 149.80 70.07L149.80 70.07L149.80 47.60L144.33 47.60L144.33 42L149.93 42L149.93 32L156.87 32L156.87 42L163.67 42L163.67 47.60L157 47.60L157 68.93Q157 74.40 158.17 77.10Q159.33 79.80 161 81.60L161 81.60L161 82Z"/>
            </svg>