<?xml version="1.0" encoding="UTF-8" standalone="no"?>
            <svg
               xmlns="http://www.w3.org/2000/svg"
               xmlns:svg="http://www.w3.org/2000/svg"
               width="100"
               height="100"
               version="1.1"
               id="svg1"
               viewBox="0 0 100 100"
               >
               <path fill="black" d="M-48.87 75.62L-48.87 75.62Q-50.75 75.62-52.56 75.32Q-54.36 75.02-55.87 74.08Q-57.37 73.14-58.28 71.22Q-59.18 69.30-59.18 66.14L-59.18 66.14L-59.18 30.10Q-59.18 27.31-58.39 25.43Q-57.60 23.55-56.25 22.42Q-54.89 21.29-53.20 20.81Q-51.50 20.32-49.70 20.32L-49.70 20.32Q-45.94 20.39-42.21 20.47Q-38.49 20.54-34.76 20.62Q-31.04 20.69-27.35 20.77L-27.35 20.77L-27.35 21.97L-49.70 21.97Q-53.16 21.97-55.27 23.89Q-57.37 25.81-57.37 30.10L-57.37 30.10L-57.37 47.25L-30.36 47.48L-30.36 48.68L-57.37 48.91L-57.37 66.14Q-57.37 69.68-56.13 71.33Q-54.89 72.99-52.93 73.48Q-50.98 73.97-48.95 73.97L-48.95 73.97L-27.35 73.97L-27.35 75.17Q-30.89 75.24-34.50 75.32Q-38.11 75.40-41.69 75.47Q-45.26 75.55-48.87 75.62ZM-0.79 75.85L-0.79 75.85Q-2.07 75.85-4.29 75.77Q-6.51 75.70-8.99 75.55Q-11.47 75.40-13.62 75.24Q-15.76 75.09-16.97 74.87L-16.97 74.87L-16.97 73.66Q-15.46 73.81-12.87 73.93Q-10.27 74.04-7.11 74.12Q-3.95 74.19-0.79 74.19L-0.79 74.19Q3.05 74.19 6.28 73.40Q9.52 72.61 11.51 70.32Q13.51 68.02 13.51 63.66L13.51 63.66L13.51 58.54Q13.51 53.72 11.14 51.13Q8.77 48.53 3.12 48.53L3.12 48.53L-3.80 48.53Q-9.74 48.53-13.28 45.94Q-16.82 43.34-16.82 36.72L-16.82 36.72L-16.82 33.26Q-16.82 25.66-12.98 22.76Q-9.14 19.86-2.29 19.86L-2.29 19.86Q-0.41 19.86 2.52 20.05Q5.46 20.24 8.35 20.50Q11.25 20.77 12.90 21.07L12.90 21.07L12.90 22.27Q9.67 22.05 5.57 21.78Q1.47 21.52-2.29 21.52L-2.29 21.52Q-6.28 21.52-9.14 22.54Q-12.00 23.55-13.51 26.07Q-15.01 28.59-15.01 33.26L-15.01 33.26L-15.01 36.72Q-15.01 42.59-12.04 44.66Q-9.07 46.73-3.95 46.73L-3.95 46.73L3.12 46.73Q7.41 46.73 10.08 48.23Q12.75 49.74 14.03 52.41Q15.31 55.08 15.31 58.54L15.31 58.54L15.31 63.66Q15.31 68.47 12.98 71.11Q10.65 73.74 7.00 74.79Q3.35 75.85-0.79 75.85ZM34.65 75.85L34.65 75.85Q30.36 75.85 27.50 73.29Q24.64 70.73 24.64 65.91L24.64 65.91L24.64 63.58Q24.64 58.77 27.69 55.87Q30.74 52.97 36.61 52.97L36.61 52.97L52.86 52.97L52.86 46.28Q52.86 43.27 51.84 41.05Q50.83 38.83 48.31 37.58Q45.79 36.34 41.20 36.34L41.20 36.34L28.40 36.34L28.40 35.14Q30.74 35.06 33.97 34.91Q37.21 34.76 41.35 34.69L41.35 34.69Q46.16 34.61 49.10 35.97Q52.03 37.32 53.35 39.92Q54.67 42.51 54.67 46.28L54.67 46.28L54.67 75.40L53.46 75.40L52.86 70.58Q52.78 70.58 51.02 71.37Q49.25 72.16 46.46 73.21Q43.68 74.27 40.56 75.06Q37.43 75.85 34.65 75.85ZM34.65 74.04L34.65 74.04Q36.46 74.12 38.83 73.63Q41.20 73.14 43.64 72.46Q46.09 71.78 48.19 71.07Q50.30 70.35 51.58 69.86Q52.86 69.38 52.86 69.38L52.86 69.38L52.86 54.18L36.16 54.70Q30.81 54.85 28.63 57.37Q26.45 59.89 26.45 63.58L26.45 63.58L26.45 65.54Q26.45 68.70 27.73 70.58Q29.01 72.46 30.93 73.21Q32.84 73.97 34.65 74.04ZM82.13 75.85L82.13 75.85Q76.11 75.85 72.69 73.89Q69.26 71.93 67.87 67.42Q66.48 62.90 66.48 55.23L66.48 55.23Q66.48 47.40 68.02 43.00Q69.56 38.60 73.10 36.79Q76.64 34.99 82.51 34.99L82.51 34.99Q87.32 34.99 90.48 36.16Q93.64 37.32 95.26 40.11Q96.88 42.89 96.88 47.78L96.88 47.78Q96.88 50.87 95.64 52.82Q94.39 54.78 92.10 55.64Q89.80 56.51 86.64 56.51L86.64 56.51L68.28 56.51Q68.28 62.98 69.41 66.85Q70.54 70.73 73.55 72.46Q76.56 74.19 82.28 74.19L82.28 74.19L96.12 74.19L96.12 75.40Q92.29 75.70 89.16 75.77Q86.04 75.85 82.13 75.85ZM68.28 54.85L68.28 54.85L86.64 54.85Q90.93 54.85 93.00 53.35Q95.07 51.84 95.07 47.78L95.07 47.78Q95.07 43.42 93.83 41.01Q92.59 38.60 89.84 37.62Q87.10 36.64 82.51 36.64L82.51 36.64Q76.94 36.64 73.85 38.19Q70.77 39.73 69.53 43.68Q68.28 47.63 68.28 54.85ZM122.16 75.85L122.16 75.85Q121.03 75.85 118.81 75.81Q116.59 75.77 114.11 75.70Q111.63 75.62 109.63 75.55Q107.64 75.47 106.81 75.40L106.81 75.40L106.81 74.19L122.16 74.19Q125.32 74.19 127.80 73.70Q130.29 73.21 131.72 71.48Q133.15 69.75 133.15 66.14L133.15 66.14L133.15 63.96Q133.15 60.42 130.81 58.43Q128.48 56.43 123.66 56.43L123.66 56.43L118.55 56.43Q114.86 56.43 112.19 55.64Q109.52 54.85 108.09 52.86Q106.66 50.87 106.66 47.33L106.66 47.33L106.66 45.37Q106.66 41.69 108.09 39.43Q109.52 37.17 112.30 36.12Q115.09 35.06 119.15 35.06L119.15 35.06Q120.96 35.06 123.63 35.10Q126.30 35.14 129.04 35.25Q131.79 35.36 133.52 35.59L133.52 35.59L133.52 36.79L119.15 36.79Q114.03 36.79 111.25 38.56Q108.47 40.33 108.47 45.37L108.47 45.37L108.47 47.33Q108.47 50.49 109.74 52.07Q111.02 53.65 113.32 54.14Q115.61 54.63 118.55 54.63L118.55 54.63L123.66 54.63Q128.63 54.63 131.79 56.96Q134.95 59.29 134.95 63.96L134.95 63.96L134.95 66.14Q134.95 70.20 133.18 72.27Q131.41 74.34 128.52 75.09Q125.62 75.85 122.16 75.85ZM162.11 75.40L157.98 75.40Q154.74 75.40 152.45 74.15Q150.15 72.91 148.98 70.28Q147.82 67.64 147.82 63.51L147.82 63.51L147.97 37.10L141.50 37.10L141.50 35.89L147.82 35.44L148.42 24.23L149.62 24.23L149.62 35.44L162.79 35.44L162.79 37.10L149.62 37.10L149.62 63.51Q149.62 66.89 150.38 68.89Q151.13 70.88 152.33 71.90Q153.54 72.91 154.85 73.29Q156.17 73.66 157.30 73.74L157.30 73.74L162.11 74.19L162.11 75.40Z"/>
            </svg>