<?xml version="1.0" encoding="UTF-8" standalone="no"?>
<svg
   width="100"
   height="100"
   version="1.1"
   id="svg1"
   viewBox="0 0 100 100"
   sodipodi:docname="Vox-ATypI-geometric.svg"
   inkscape:version="1.3 (0e150ed, 2023-07-21)"
   xmlns:inkscape="http://www.inkscape.org/namespaces/inkscape"
   xmlns:sodipodi="http://sodipodi.sourceforge.net/DTD/sodipodi-0.dtd"
   xmlns="http://www.w3.org/2000/svg"
   xmlns:svg="http://www.w3.org/2000/svg">
  <defs
     id="defs1" />
  <sodipodi:namedview
     id="namedview1"
     pagecolor="#ffffff"
     bordercolor="#000000"
     borderopacity="0.25"
     inkscape:showpageshadow="2"
     inkscape:pageopacity="0.0"
     inkscape:pagecheckerboard="0"
     inkscape:deskcolor="#d1d1d1"
     inkscape:zoom="4.6572987"
     inkscape:cx="55.718994"
     inkscape:cy="77.190668"
     inkscape:window-width="1800"
     inkscape:window-height="1097"
     inkscape:window-x="0"
     inkscape:window-y="44"
     inkscape:window-maximized="1"
     inkscape:current-layer="svg1" />
  <path
     id="path8"
     d="M 5.1258863,44.067874 H 3.3062553 L 18.018307,7.9043938 h 1.603971 L 34.226499,44.067874 H 32.352953 L 18.388973,9.4072738 h 0.801985 z M 28.127366,32.139184 H 9.4593036 v -1.55005 H 28.127366 Z m 22.24667,12.4611 v 0 q -3.632522,0 -6.496755,-1.68484 -2.857494,-1.68484 -4.51538,-4.57604 -1.664625,-2.88445 -1.664625,-6.52371 v 0 q 0,-3.63926 1.664625,-6.55067 1.657886,-2.91815 4.488422,-4.62995 2.837276,-1.7118 6.422622,-1.7118 v 0 q 2.830537,0 5.108445,1.0446 2.271169,1.0446 3.794267,2.97206 1.523098,1.92073 2.109424,4.59626 v 0 8.39726 q -0.640241,2.67553 -2.163339,4.62995 -1.523098,1.94768 -3.740352,2.99228 -2.223993,1.0446 -5.007354,1.0446 z m 0.21566,-1.55005 v 0 q 4.602992,0 7.325698,-3.0799 2.729446,-3.07315 2.729446,-8.15464 v 0 q 0,-3.4236 -1.253523,-5.96435 -1.260263,-2.54074 -3.558389,-3.95601 -2.298126,-1.41527 -5.351062,-1.41527 v 0 q -3.207941,0 -5.69477,1.46919 -2.486829,1.46918 -3.929054,4.00992 -1.448965,2.54075 -1.448965,5.80261 v 0 q 0,3.26185 1.448965,5.8026 1.442225,2.54074 3.982969,4.00992 2.540744,1.47593 5.748685,1.47593 z m 11.659115,11.49737 h -1.657886 v -17.0641 l 0.485235,-6.09239 -0.485235,-5.93739 v -5.9913 h 1.657886 z M 84.980715,44.067874 H 72.68136 v -1.55679 h 12.56893 q 4.387332,0 7.035905,-2.29813 2.648574,-2.29813 2.648574,-6.09913 v 0 q 0,-2.45987 -1.152433,-4.33342 -1.152433,-1.86681 -3.180984,-2.93837 -2.035291,-1.07156 -4.710821,-1.07156 v 0 H 72.68136 v -1.44223 h 12.946335 q 3.524692,0 5.559982,-2.00833 2.035291,-2.00159 2.035291,-5.42519 v 0 q 0,-3.47752 -2.304866,-5.4589 -2.298126,-1.9746302 -6.146307,-1.9746302 v 0 H 72.68136 v -1.5568 h 12.090435 q 3.100111,0 5.37128,1.07156 2.277908,1.0715602 3.531431,3.0529402 1.260263,1.97464 1.260263,4.758 v 0 q 0,3.20794 -1.61071,5.42519 -1.603971,2.22399 -4.650168,3.13381 v 0 l 0.269575,-0.64698 q 3.632522,0.8559 5.69477,3.36969 2.055509,2.52053 2.055509,6.04522 v 0 q 0,2.99902 -1.442226,5.24323 -1.442226,2.24421 -4.063842,3.47752 -2.621616,1.2333 -6.206962,1.2333 z m -11.443455,0 h -1.7118 V 7.9043938 h 1.7118 z"
     style="stroke-width:1" />
  <path
     id="path1"
     d="m 14.537421,95.047041 v 0 q -3.693176,0 -6.6045867,-1.684843 -2.918148,-1.684843 -4.602991,-4.602992 -1.684843,-2.911409 -1.684843,-6.604585 v 0 q 0,-3.639261 1.630928,-6.523713 1.630928,-2.891191 4.495162,-4.576034 2.8642337,-1.684843 6.4428407,-1.684843 v 0 q 3.322511,0 5.856515,1.475923 2.540743,1.469183 3.989709,4.090799 1.442225,2.621616 1.442225,6.045217 v 0 q 0,0.208921 -0.02696,0.667198 -0.02696,0.451538 -0.134788,1.145694 v 0 H 2.8243903 V 81.244806 H 24.275815 l -0.485235,0.377405 q 0.21566,-3.154027 -0.963731,-5.566722 -1.172651,-2.405956 -3.396644,-3.76731 -2.217253,-1.361353 -5.26345,-1.361353 v 0 q -3.214681,0 -5.6475943,1.415268 -2.4329143,1.415269 -3.7942673,3.902097 -1.368093,2.486829 -1.368093,5.8026 v 0 q 0,3.423602 1.422008,5.991303 1.415268,2.567701 3.9829693,4.009926 2.5677013,1.448966 5.9913033,1.448966 v 0 q 2.567701,0 4.731039,-0.963731 2.170078,-0.96373 3.666219,-2.891191 v 0 l 1.125476,1.125476 q -1.664626,1.981375 -4.205369,3.127069 -2.534004,1.152432 -5.533025,1.152432 z m 34.714509,0 v 0 q -3.801006,0 -7.035905,-1.415268 -3.234899,-1.422008 -5.640855,-3.989709 -2.405956,-2.567701 -3.747091,-5.964345 -1.334396,-3.396644 -1.334396,-7.29874 v 0 q 0,-3.956012 1.307438,-7.325699 1.314178,-3.369686 3.720134,-5.883472 2.405956,-2.513786 5.613897,-3.935794 3.207942,-1.415268 7.008948,-1.415268 v 0 q 3.794267,0 7.035905,1.415268 3.234899,1.422008 5.613898,3.935794 2.378998,2.513786 3.720134,5.91043 1.334395,3.396644 1.334395,7.352656 v 0 q 0,3.902096 -1.307438,7.29874 -1.314178,3.396644 -3.720134,5.937388 -2.405956,2.540743 -5.58694,3.962751 -3.187723,1.415268 -6.98199,1.415268 z m 20.750529,1.125476 -1.07156,1.06482 L 50,78.306439 51.071561,77.234879 Z M 49.1441,93.389156 v 0 q 4.549077,0 8.127684,-2.244212 3.585346,-2.25095 5.674552,-6.099132 2.082466,-3.854921 2.082466,-8.666833 v 0 q 0,-3.585347 -1.199609,-6.658501 -1.206347,-3.073154 -3.342728,-5.378019 -2.143121,-2.298126 -5.034312,-3.578607 -2.884451,-1.28722 -6.308053,-1.28722 v 0 q -4.549076,0 -8.127683,2.217253 -3.585347,2.223993 -5.647595,6.045218 -2.055509,3.827963 -2.055509,8.639876 v 0 q 0,3.585346 1.199609,6.685457 1.206348,3.100112 3.342729,5.431935 2.14312,2.325084 5.027572,3.605564 2.891191,1.287221 6.260877,1.287221 z m 37.336125,1.657885 v 0 q -3.639261,0 -6.503494,-1.684843 -2.857494,-1.684843 -4.51538,-4.576034 -1.657886,-2.884452 -1.657886,-6.523713 v 0 q 0,-3.639261 1.657886,-6.55067 1.657886,-2.918149 4.488422,-4.629949 2.837276,-1.711801 6.422622,-1.711801 v 0 q 2.830537,0 5.108445,1.044603 2.271168,1.044602 3.794267,2.972063 1.523098,1.920721 2.116163,4.596252 v 0 8.397259 q -0.64698,2.675531 -2.170078,4.629949 -1.523099,1.947679 -3.740352,2.992281 -2.223993,1.044603 -5.000615,1.044603 z m 0.208921,-1.550055 v 0 q 4.602991,0 7.332437,-3.079894 2.722707,-3.073154 2.722707,-8.154641 v 0 q 0,-3.423601 -1.253523,-5.964345 -1.260263,-2.540743 -3.558389,-3.956012 -2.298126,-1.415268 -5.344323,-1.415268 v 0 q -3.21468,0 -5.701509,1.469183 -2.486829,1.469184 -3.929054,4.009927 -1.442226,2.540744 -1.442226,5.8026 v 0 q 0,3.261857 1.442226,5.8026 1.442225,2.540744 3.982969,4.009927 2.540744,1.475923 5.748685,1.475923 z M 98.355,94.514631 H 96.697114 V 87.930264 L 97.17561,81.837871 96.697114,75.900483 V 69.909181 H 98.355 Z"
     style="stroke-width:1" />
</svg>
