<?xml version="1.0" encoding="UTF-8" standalone="no"?>
            <svg
               xmlns="http://www.w3.org/2000/svg"
               xmlns:svg="http://www.w3.org/2000/svg"
               width="100"
               height="100"
               version="1.1"
               id="svg1"
               viewBox="0 0 100 100"
               >
               <path fill="black" d="M-61.17 25.67L-61.17 25.67Q-57.00 25.67-52.79 25.67Q-48.58 25.67-44.46 25.79Q-40.33 25.92-36.50 26.17L-36.50 26.17L-36.83 31.92L-59.92 31.92Q-62.50 31.92-63.71 33.21Q-64.92 34.50-64.92 37.42L-64.92 37.42L-64.92 71.58Q-64.92 74.50-63.71 75.83Q-62.50 77.17-59.92 77.17L-59.92 77.17L-36.83 77.17L-36.50 82.83Q-40.33 83.08-44.46 83.17Q-48.58 83.25-52.79 83.29Q-57.00 83.33-61.17 83.33L-61.17 83.33Q-66.25 83.33-69.21 80.63Q-72.17 77.92-72.25 73.33L-72.25 73.33L-72.25 35.67Q-72.17 31.00-69.21 28.33Q-66.25 25.67-61.17 25.67ZM-70.75 55.83L-70.75 49.92L-40.08 49.92L-40.08 55.83L-70.75 55.83ZM-9.08 24.75L-9.08 24.75Q-5.00 24.83-0.67 25.17Q3.67 25.50 8.00 26.42L8.00 26.42L7.50 31.75Q3.92 31.58-0.42 31.46Q-4.75 31.33-8.75 31.33L-8.75 31.33Q-11.83 31.33-14.04 31.54Q-16.25 31.75-17.67 32.54Q-19.08 33.33-19.71 35.12Q-20.33 36.92-20.33 40.08L-20.33 40.08Q-20.33 44.83-18.63 46.71Q-16.92 48.58-13.08 49.50L-13.08 49.50L-1.42 52.42Q5.25 54 7.71 57.96Q10.17 61.92 10.17 68.58L10.17 68.58Q10.17 73.58 9.04 76.67Q7.92 79.75 5.58 81.38Q3.25 83-0.42 83.63Q-4.08 84.25-9.08 84.25L-9.08 84.25Q-11.92 84.25-16.46 84Q-21.00 83.75-26.92 82.67L-26.92 82.67L-26.42 77.25Q-21.50 77.42-18.50 77.54Q-15.50 77.67-13.33 77.67Q-11.17 77.67-8.83 77.67L-8.83 77.67Q-4.42 77.67-1.88 77Q0.67 76.33 1.71 74.33Q2.75 72.33 2.75 68.42L2.75 68.42Q2.75 65.08 2.00 63.25Q1.25 61.42-0.38 60.46Q-2.00 59.50-4.50 58.92L-4.50 58.92L-16.42 55.92Q-22.67 54.33-25.21 50.42Q-27.75 46.50-27.75 39.92L-27.75 39.92Q-27.75 34.92-26.63 31.87Q-25.50 28.83-23.21 27.29Q-20.92 25.75-17.42 25.25Q-13.92 24.75-9.08 24.75ZM40.08 41.67L40.08 41.67Q44.58 41.67 47.71 42.87Q50.83 44.08 52.42 46.92Q54.00 49.75 54.00 54.67L54.00 54.67L54.00 83.25L48.42 83.25L47.33 74.42L46.83 73.50L46.83 54.67Q46.83 50.92 45.12 49.29Q43.42 47.67 38.58 47.67L38.58 47.67Q35.42 47.67 30.62 48.00Q25.83 48.33 21.17 48.75L21.17 48.75L20.50 43.50Q23.33 43.00 26.71 42.58Q30.08 42.17 33.58 41.92Q37.08 41.67 40.08 41.67ZM29.92 58.25L50.67 58.25L50.58 63.58L31.17 63.67Q28.25 63.75 27.08 65.21Q25.92 66.67 25.92 69.25L25.92 69.25L25.92 71.83Q25.92 75 27.42 76.46Q28.92 77.92 32.25 77.92L32.25 77.92Q34.58 77.92 37.54 77.04Q40.50 76.17 43.50 74.33Q46.50 72.50 49.00 69.67L49.00 69.67L49.00 74.92Q48.08 76.08 46.37 77.63Q44.67 79.17 42.29 80.63Q39.92 82.08 37.04 83.04Q34.17 84 30.83 84L30.83 84Q27.25 84 24.50 82.71Q21.75 81.42 20.21 78.88Q18.67 76.33 18.67 72.67L18.67 72.67L18.67 68.25Q18.67 63.50 21.62 60.88Q24.58 58.25 29.92 58.25L29.92 58.25ZM83.33 41.67L83.33 41.67Q92.50 41.67 96.63 45.00Q100.75 48.33 100.75 54.92L100.75 54.92Q100.83 60.33 98.50 63.38Q96.17 66.42 91.08 66.42L91.08 66.42L67.42 66.42L67.42 60.92L89.25 60.92Q92 60.92 92.83 59.04Q93.67 57.17 93.67 54.92L93.67 54.92Q93.58 51.00 91.33 49.33Q89.08 47.67 83.67 47.67L83.67 47.67Q79.25 47.67 76.71 48.96Q74.17 50.25 73.12 53.46Q72.08 56.67 72.08 62.42L72.08 62.42Q72.08 68.92 73.37 72.33Q74.67 75.75 77.50 77Q80.33 78.25 85 78.25L85 78.25Q88.25 78.25 92.13 77.96Q96 77.67 99.08 77.25L99.08 77.25L99.83 82Q97.92 82.75 95.13 83.25Q92.33 83.75 89.38 84Q86.42 84.25 84.08 84.25L84.08 84.25Q77.08 84.25 72.83 82.13Q68.58 80 66.62 75.29Q64.67 70.58 64.67 62.83L64.67 62.83Q64.67 54.83 66.62 50.21Q68.58 45.58 72.71 43.62Q76.83 41.67 83.33 41.67ZM124.92 41.67L124.92 41.67Q127.58 41.67 130.58 41.83Q133.58 42.00 136.54 42.25Q139.50 42.50 142 42.92L142 42.92L141.42 48.08Q137.58 47.92 133.71 47.79Q129.83 47.67 126 47.67L126 47.67Q122.25 47.58 120.08 47.83Q117.92 48.08 116.96 49.17Q116.00 50.25 116.00 52.83L116.00 52.83Q116.00 56 117.50 57Q119 58 121.92 58.67L121.92 58.67L133.75 61.33Q138.58 62.50 140.88 64.92Q143.17 67.33 143.17 72.50L143.17 72.50Q143.17 77.50 141.29 80Q139.42 82.50 135.58 83.33Q131.75 84.17 125.83 84.17L125.83 84.17Q123.67 84.17 119.38 84Q115.08 83.83 109.92 83L109.92 83L110.42 77.83Q112.42 77.92 114.67 78.04Q116.92 78.17 119.38 78.17Q121.83 78.17 124.42 78.17L124.42 78.17Q129 78.17 131.58 77.75Q134.17 77.33 135.25 76.13Q136.33 74.92 136.33 72.50L136.33 72.50Q136.33 69.50 134.58 68.50Q132.83 67.50 129.92 66.83L129.92 66.83L118.25 64.17Q114.92 63.33 112.92 61.96Q110.92 60.58 110.00 58.38Q109.08 56.17 109.08 52.83L109.08 52.83Q109.08 48.08 110.75 45.67Q112.42 43.25 115.92 42.42Q119.42 41.58 124.92 41.67ZM156.83 30.67L163.92 30.67L163.92 72.08Q163.92 75 165.17 76.25Q166.42 77.50 169.42 77.50L169.42 77.50L175.58 77.50L176.42 82.92Q175.08 83.25 173.33 83.50Q171.58 83.75 169.92 83.88Q168.25 84 167.25 84L167.25 84Q162.17 84 159.50 81.17Q156.83 78.33 156.83 73L156.83 73L156.83 30.67ZM157.50 42.67L176.83 42.67L176.83 48.25L149.50 48.25L149.50 43.08L157.50 42.67Z"/>
            </svg>