<?xml version="1.0" encoding="UTF-8" standalone="no"?>
<svg
   width="200"
   height="100"
   version="1.1"
   id="svg1"
   viewBox="0 0 200 100"
   sodipodi:docname="Vox-ATypI.svg"
   inkscape:version="1.3 (0e150ed, 2023-07-21)"
   xmlns:inkscape="http://www.inkscape.org/namespaces/inkscape"
   xmlns:sodipodi="http://sodipodi.sourceforge.net/DTD/sodipodi-0.dtd"
   xmlns="http://www.w3.org/2000/svg"
   xmlns:svg="http://www.w3.org/2000/svg">
  <defs
     id="defs14" />
  <sodipodi:namedview
     id="namedview14"
     pagecolor="#ffffff"
     bordercolor="#000000"
     borderopacity="0.25"
     inkscape:showpageshadow="2"
     inkscape:pageopacity="0.0"
     inkscape:pagecheckerboard="0"
     inkscape:deskcolor="#d1d1d1"
     inkscape:zoom="2.4473822"
     inkscape:cx="155.88085"
     inkscape:cy="67.214677"
     inkscape:window-width="1800"
     inkscape:window-height="1097"
     inkscape:window-x="0"
     inkscape:window-y="45"
     inkscape:window-maximized="0"
     inkscape:current-layer="svg1" />
  <path
     id="path1-10"
     d="m 49.25785,56.33948 v 0 q -1.37205,0 -2.241878,-0.89571 -0.864651,-0.89054 -0.864651,-2.18493 v 0 q 0,-1.29439 0.864651,-2.1901 Q 47.8858,50.1782 49.25785,50.1782 v 0 q 1.372051,0 2.236701,0.89054 0.869829,0.89571 0.869829,2.1901 v 0 q 0,1.29439 -0.869829,2.18493 -0.86465,0.89571 -2.236701,0.89571 z m 1.83803,7.99931 h 0.46598 l -0.155327,4.19382 v 16.17984 l 4.012601,1.24261 v 0.95785 H 43.691987 v -0.95785 l 3.934937,-1.24261 V 69.15391 q -0.284766,-0.31065 -0.895716,-0.68343 -0.605774,-0.37796 -1.372051,-0.74039 -0.761099,-0.36243 -1.563619,-0.59542 v 0 -0.80252 z M 98.61743,92.74056 V 46.97003 h 6.16438 v 45.77053 l 6.08733,2.00343 v 1.50256 H 92.53011 v -1.50256 z m 19.45633,-45.23115 3.54452,0.73202 H 81.780965 L 85.325484,47.50941 80.124288,58.52825 78.352028,58.1815 79.893124,42 h 0.693492 l 5.432364,3.2363 -3.351885,-0.61644 H 120.73215 L 117.38027,45.2363 122.81263,42 h 0.6935 l 1.54109,16.1815 -1.77226,0.34675 z m -42.71717,39.4035 v -0.95785 l 4.0126,-1.24261 v -12.2449 q 0,-1.39794 -0.59542,-2.4231 -0.59542,-1.01997 -1.76036,-1.57397 -1.16495,-0.55918 -2.84766,-0.55918 v 0 q -2.04513,0 -3.79514,0.7611 -1.74483,0.76628 -2.417909,1.82768 v 0 L 66.94307,69.67167 q 1.372051,-1.4756 2.599131,-2.49558 1.232259,-1.02515 2.407559,-1.64646 1.180481,-0.62131 2.4231,-0.90607 1.24261,-0.28477 2.61466,-0.28477 v 0 q 3.132421,0 4.64426,2.00372 1.517021,2.00888 1.517021,6.35802 v 0 12.01192 l 3.986709,1.24261 v 0.95785 z m -3.13242,-0.95785 v 0.95785 H 60.49703 v -0.95785 l 3.93493,-1.24261 V 55.38163 q -0.33654,-0.4142 -0.88018,-0.8284 -0.54364,-0.41421 -1.32028,-0.83877 -0.77663,-0.42973 -1.78625,-0.84394 v 0 -0.51775 L 67.9527,50.1782 h 0.51775 l -0.25888,4.14204 V 84.71245 Z M 58.71318,97.88335 60.36999,97.00317 48.28042,128.12024 H 47.06369 L 38.83139,95.32047 35,93.92253 v -1.00962 h 12.55556 v 1.00962 l -4.47858,1.34616 6.5496,26.50905 H 48.61696 L 59.7228,92.39515 h 1.2685 l 12.16724,30.4181 -2.07102,0.95785 6.42016,-28.50241 -4.42681,-1.34616 v -1.00962 h 10.63987 v 1.00962 l -3.75373,1.34616 -7.86987,32.85155 h -1.21672 z m 32.35322,7.14502 v 0 q 2.51112,0 4.34915,1.11317 1.83803,1.11318 2.93567,3.24633 1.10281,2.13832 1.36169,5.21897 v 0 H 83.869612 l 0.0518,-1.73448 13.306298,-0.62131 -1.76037,1.08729 q -0.18121,-1.86392 -0.74039,-3.27221 -0.554,-1.41348 -1.53773,-2.20046 -0.98373,-0.79217 -2.51111,-0.79217 v 0 q -1.81214,0 -3.18419,0.99409 -1.37205,0.99927 -2.138328,2.91496 -0.7611,1.91569 -0.7611,4.68568 v 0 q 0,2.87354 1.12353,4.97045 1.128698,2.09691 3.147948,3.23597 2.01924,1.13906 4.71157,1.13906 v 0 q 0.98373,0 1.92604,-0.25888 0.9475,-0.25888 1.87945,-0.77663 0.93196,-0.51776 1.81215,-1.2685 v 0 l 0.64719,0.69897 q -1.29439,1.60504 -2.64055,2.65608 -1.34616,1.04587 -2.84765,1.55327 -1.50151,0.50222 -3.23599,0.50222 v 0 q -3.00298,0 -5.348408,-1.46525 -2.34025,-1.46007 -3.68641,-3.99707 -1.34617,-2.53699 -1.34617,-5.77296 v 0 q 0,-3.26186 1.24262,-5.95418 1.24261,-2.69233 3.55697,-4.29737 2.319538,-1.60504 5.529618,-1.60504 z m 26.06896,8.51707 v 0 l 0.41421,1.81214 q -3.05476,0.69897 -4.99634,1.41347 -1.94158,0.70933 -3.02886,1.46007 -1.08729,0.75074 -1.51703,1.59468 -0.42456,0.83877 -0.42456,1.84839 v 0 q 0,1.76037 1.04587,2.69233 1.05104,0.93195 2.55253,0.93195 v 0 q 1.21673,0 2.22635,-0.6213 1.00962,-0.62131 1.61539,-1.63093 0.61095,-1.00962 0.61095,-2.17457 v 0 -9.31959 q 0,-1.86392 -0.95784,-2.97709 -0.95785,-1.11317 -3.15831,-1.11317 v 0 q -0.77663,0 -1.78625,0.24334 -1.00962,0.24853 -1.96747,0.74039 v 0 l 1.32027,-1.19083 q -0.0777,0.72485 -0.22263,1.44971 -0.13979,0.72486 -0.33654,1.29439 -0.19157,0.56953 -0.47634,0.88018 v 0 q -0.4142,0.44009 -1.03551,0.64719 -0.6213,0.20711 -1.24261,0.20711 v 0 q -0.80252,0 -1.2685,-0.37279 -0.46598,-0.37796 -0.46598,-0.94749 v 0 q 0,-0.80252 0.78699,-1.69823 0.79217,-0.89054 2.09691,-1.68271 1.30992,-0.78699 2.91496,-1.27885 1.60504,-0.49187 3.26185,-0.49187 v 0 q 2.25224,0 3.65018,0.68344 1.39793,0.68861 2.0296,2.01924 0.63683,1.33581 0.63683,3.27739 v 0 11.8307 q 0,0.80252 0.23299,1.33581 0.23299,0.52811 0.68344,0.80252 0.45562,0.26923 1.12871,0.26923 v 0 q 0.59541,0 1.27885,-0.23299 0.68861,-0.23299 1.33581,-0.62131 v 0 1.19084 q -1.0614,1.16495 -2.24188,1.70859 -1.1753,0.54364 -2.18493,0.54364 v 0 q -1.24261,0 -2.13832,-0.554 -0.89054,-0.55917 -1.35652,-1.61021 -0.46598,-1.04587 -0.46598,-2.46969 v 0 l 0.15532,-0.25888 q -0.33654,1.44971 -1.25814,2.56289 -0.91643,1.11317 -2.20046,1.75001 -1.27885,0.63166 -2.72857,0.63166 v 0 q -2.58877,0 -4.27147,-1.44972 -1.68271,-1.44971 -1.68271,-4.16792 v 0 q 0,-1.44972 0.57989,-2.64055 0.58506,-1.19084 2.06066,-2.24188 1.4756,-1.04587 4.10062,-2.04513 2.6302,-0.99409 6.69457,-2.0296 z" />
  <path
     id="path1-2"
     d="m 153.9113,52.638022 v -1.647808 h 6.59123 v 1.647808 h -1.23638 l 1.70055,5.318981 q 0.25741,0.79753 0.46206,1.890442 v 0 q 0.20677,-1.086582 0.46417,-1.890442 v 0 l 1.70056,-5.318981 h -1.85457 v -1.647808 h 6.59123 v 1.647808 h -1.44104 l 1.69844,5.318981 q 0.2574,0.79753 0.46417,1.890442 v 0 q 0.20677,-1.086582 0.46417,-1.890442 v 0 l 1.69845,-5.318981 h -1.64781 v -1.647808 h 5.15019 v 1.647808 h -1.44315 l -4.15433,11.123231 h -1.98961 l -2.46011,-6.591232 q -0.2785,-0.746893 -0.35657,-1.236383 v 0 q -0.076,0.48949 -0.35445,1.236383 v 0 l -2.46222,6.591232 h -1.9875 l -4.15644,-11.123231 z m 24.45088,-0.206767 v 0 q 0,-0.683598 0.48106,-1.166758 0.48105,-0.48105 1.16676,-0.48105 v 0 q 0.2574,0 0.50425,0.07807 v 0 q 0.31859,0.09705 0.55912,0.257404 0.23842,0.15824 0.38822,0.350238 0.1498,0.189889 0.24263,0.438853 0.0928,0.251075 0.12659,0.500039 0.0338,0.251075 0.0338,0.554896 v 0 q 0,0.312261 -0.12448,0.658279 -0.12448,0.343909 -0.32703,0.65195 -0.20255,0.305931 -0.44307,0.571774 -0.23842,0.263734 -0.4916,0.466281 v 0 q 0.76799,0.755334 0.76799,1.858795 v 0 q 0,0.822849 -0.35867,1.464249 -0.35868,0.641401 -0.98531,1.035946 -0.62875,0.392436 -1.43471,0.594984 -0.80598,0.200437 -1.75331,0.200437 v 0 q -0.78276,0 -1.50011,-0.175119 v 0 q -0.46839,0.07174 -0.71947,0.251075 -0.25318,0.181448 -0.25318,0.335469 v 0 q 0,0.15402 0.1287,0.282722 0.1287,0.128702 0.28272,0.128702 v 0 h 2.88419 q 2.1795,0 3.15004,0.624521 0.97054,0.622412 0.97054,2.055013 v 0 q 0,0.689927 -0.1709,1.253263 -0.16879,0.563335 -0.45995,0.9621 -0.29117,0.398765 -0.71947,0.706806 -0.42619,0.305931 -0.89459,0.4916 -0.46838,0.185668 -1.04649,0.29749 -0.57599,0.113936 -1.11612,0.158243 -0.54224,0.04431 -1.1541,0.04431 v 0 q -0.97898,0 -1.77018,-0.215208 -0.78909,-0.213097 -1.29757,-0.584434 -0.50637,-0.371337 -0.77854,-0.852387 -0.27429,-0.48105 -0.27429,-1.027506 v 0 q 0,-1.116121 1.28281,-1.744862 v 0 q -0.50004,-0.253185 -0.78909,-0.692037 -0.28695,-0.440963 -0.28695,-1.063375 v 0 q 0,-0.696256 0.40088,-1.261701 0.40299,-0.567555 1.08236,-0.824959 v 0 q -0.60342,-0.428304 -0.941,-1.040166 -0.33758,-0.611862 -0.33758,-1.405173 v 0 q 0,-0.660389 0.23419,-1.185746 0.23631,-0.525358 0.63507,-0.871376 0.39877,-0.348129 0.95789,-0.578105 0.55911,-0.227865 1.1752,-0.327029 0.61819,-0.09705 1.32499,-0.09705 v 0 q 1.62671,0 2.77448,0.535907 v 0 q 0.26373,-0.303822 0.40721,-0.571775 v 0 q -0.64351,-0.0422 -1.0887,-0.514808 -0.44518,-0.474721 -0.44518,-1.12878 z m -1.54442,3.295616 v 0 q -0.7279,0 -1.13722,0.417754 -0.40931,0.417754 -0.40931,1.204735 v 0 q 0,0.793311 0.41353,1.234274 0.41143,0.438853 1.133,0.438853 v 0 q 0.71525,0 1.12878,-0.445183 0.41564,-0.445182 0.41564,-1.227944 v 0 q 0,-0.776432 -0.41142,-1.200515 -0.41353,-0.421974 -1.133,-0.421974 z m 1.33766,8.034382 h -2.90951 q -0.59287,0.421974 -0.59287,1.029616 v 0 q 0,0.613972 0.38188,0.820739 0.38189,0.208877 1.47269,0.208877 v 0 q 2.47277,0 2.47277,-1.236383 v 0 q 0,-0.308041 -0.25741,-0.565445 -0.2574,-0.257404 -0.56755,-0.257404 z M 162.92789,36.807895 v 0 q 0.68566,0 1.1989,0.18645 0.51324,0.18645 0.84204,0.51124 0.32679,0.32478 0.53128,0.826 0.20249,0.50321 0.28268,1.0766 0.0822,0.57539 0.0822,1.31518 v 0 3.718997 h 0.97837 V 46.00815 H 162.146 v -1.565788 h 0.97836 v -3.915467 q 0,-0.77187 -0.14033,-1.20291 -0.13834,-0.43105 -0.40098,-0.59344 -0.26263,-0.16039 -0.71172,-0.16039 v 0 q -0.41099,0 -0.84203,0.34684 -0.43104,0.34684 -0.81798,0.96834 v 0 l -0.0241,4.557027 h 0.97837 v 1.565788 h -4.69737 v -1.565788 h 0.97837 v -5.872207 h -0.97837 v -1.56579 h 3.03935 l 0.68566,1.32521 q 0.18044,-0.32679 0.41701,-0.58943 0.23858,-0.26063 0.56938,-0.47915 0.32879,-0.21853 0.77387,-0.33481 0.44708,-0.11829 0.97436,-0.11829 z m 3.27695,12.219558 v 0 q -0.25863,-0.390946 -0.25863,-0.866095 v 0 q 0,-0.651576 0.45711,-1.108682 0.45911,-0.457106 1.10868,-0.457106 0.65158,0 1.10868,0.457106 0.45711,0.457106 0.45711,1.108682 v 0 q 0,0.13633 -0.0241,0.26464 v 0 q 0.02,0.004 0.0341,0.004 v 0 q 0.35285,0 0.86208,-1.164818 v 0 l 0.36689,-0.842037 -3.45034,-7.852998 h -0.92023 v -1.56578 h 5.48126 v 1.56578 h -1.6099 l 1.55175,3.522523 q 0.29672,0.695683 0.42904,1.174842 v 0 q 0.13232,-0.479159 0.43104,-1.174842 v 0 l 1.54574,-3.522523 h -1.36931 v -1.56579 h 4.10994 v 1.56579 h -1.0365 l -3.26991,7.437993 q -0.25462,0.577396 -0.45711,0.99641 -0.20249,0.417009 -0.4551,0.850056 -0.25261,0.433048 -0.48718,0.73177 -0.23457,0.298723 -0.53128,0.567373 -0.29472,0.270654 -0.61349,0.429037 -0.31877,0.158384 -0.7037,0.248602 -0.38694,0.09222 -0.83201,0.09222 v 0 q -0.41701,0 -0.73378,-0.06616 -0.31877,-0.06616 -0.54131,-0.196475 -0.22253,-0.130316 -0.36889,-0.278674 -0.14836,-0.150364 -0.28068,-0.354859 z m 11.74842,-13.067608 q -0.45911,-0.45911 -0.45911,-1.10868 0,-0.65158 0.45911,-1.10869 0.4571,-0.4571 1.10868,-0.4571 0.64957,0 1.10668,0.4571 0.45911,0.45711 0.45911,1.10869 0,0.64957 -0.45911,1.10868 -0.45711,0.4571 -1.10668,0.4571 -0.65158,0 -1.10868,-0.4571 z m -1.241,2.61031 v -1.56579 h 3.71899 v 7.437997 h 0.97837 v 1.565788 h -4.69736 v -1.565788 h 0.97836 v -5.872207 z" />
  <path
     id="path15"
     style="stroke-width:1"
     d="m 117.42318,52.920921 h -4.22737 l -8.10703,-22.413288 h 4.87245 l 7.3247,21.461673 h -2.62152 L 121.678,30.507633 h 4.25939 z m 26.15796,0 h -3.95287 V 38.921193 l 3.95287,-0.718287 z m -1.97643,-17.476784 v 0 q -1.12547,0 -1.80716,-0.645085 -0.67711,-0.64966 -0.67711,-1.738529 v 0 q 0,-1.088866 0.67711,-1.752253 0.68169,-0.66796 1.80716,-0.66796 v 0 q 1.08886,0 1.77055,0.66796 0.68168,0.663387 0.68168,1.752253 v 0 q 0,1.088869 -0.68168,1.738529 -0.68169,0.645085 -1.77055,0.645085 z m -10.18315,17.476784 h -3.98488 V 38.646689 q 0,-3.303204 1.15748,-5.51754 1.1575,-2.214336 3.08361,-3.321503 1.92153,-1.107168 4.24109,-1.107168 v 0 q 1.25815,0 2.34701,0.30653 1.09344,0.306529 2.04506,1.088867 v 0 l -1.80258,2.827396 q -0.88756,-0.782337 -1.78885,-1.120893 -0.90587,-0.343131 -1.6882,-0.343131 v 0 q -0.95162,0 -1.63331,0.356856 -0.68168,0.356856 -1.12546,1.093443 -0.44379,0.732013 -0.64967,1.889506 -0.2013,1.157494 -0.2013,2.758769 v 0 z m 4.93651,-11.753366 -11.47886,-0.06863 0.2379,-2.246362 11.48344,-0.274505 z M 111.93132,67.4878 v 0 q 0,-0.651523 -0.38573,-1.134495 -0.38573,-0.482967 -1.02429,-0.868694 -0.63856,-0.385731 -1.38732,-0.748768 -0.74877,-0.363037 -1.5105,-0.771458 -0.75849,-0.411657 -1.40029,-0.94325 -0.63856,-0.528351 -1.02429,-1.254425 -0.38572,-0.722832 -0.38572,-1.714707 v 0 q 0,-1.542911 0.7358,-2.615818 0.7358,-1.076148 1.95457,-1.65312 1.21877,-0.580212 2.69037,-0.580212 v 0 q 0.91732,0 2.02912,0.21717 1.10856,0.217176 1.97726,0.651528 v 0 l -1.05994,2.751957 q -0.74877,-0.651523 -1.73739,-1.001597 -0.99188,-0.350069 -1.78602,-0.350069 v 0 q -0.74877,0 -1.18312,0.288486 -0.43435,0.288481 -0.61587,0.713106 -0.18152,0.421384 -0.18152,0.807116 v 0 q 0,0.580212 0.38573,1.014559 0.38573,0.434347 1.02753,0.807111 0.63856,0.376004 1.41002,0.7358 0.77145,0.363037 1.53318,0.797389 0.76173,0.434347 1.40029,1.001597 0.63856,0.567245 1.02429,1.303045 0.38897,0.735801 0.38897,1.75036 v 0 q 0,1.640157 -0.79739,2.764925 -0.79739,1.121532 -2.08747,1.688777 -1.29332,0.567245 -2.81354,0.567245 v 0 q -1.56885,0 -2.89459,-0.460278 -1.32897,-0.457041 -2.17174,-1.059944 v 0 l 1.4716,-2.534781 q 0.89139,0.748764 2.02588,1.241458 1.1345,0.49594 2.22037,0.49594 v 0 q 0.94325,0 1.55912,-0.505662 0.61263,-0.508903 0.61263,-1.400291 z m 10.06458,4.223558 v 0 q -1.52023,0 -2.70334,-0.677454 -1.17987,-0.674212 -1.85733,-1.844359 -0.67421,-1.170153 -0.67421,-2.690374 v 0 q 0,-1.617467 0.75849,-2.875133 0.76173,-1.254425 2.06478,-1.977258 1.30305,-0.722838 2.9432,-0.722838 v 0 q 1.06318,0 1.90595,0.324144 0.84601,0.327379 1.52346,0.930281 v 0 l -1.16042,2.145819 q -0.62559,-0.651528 -1.2674,-1.011324 -0.63855,-0.363037 -1.36139,-0.363037 v 0 q -0.82332,0 -1.36463,0.447315 -0.54456,0.444074 -0.79739,1.183115 -0.25283,0.735801 -0.25283,1.604499 v 0 q 0,1.059939 0.3987,1.82167 0.39869,0.758491 1.08587,1.157185 0.68718,0.398694 1.53318,0.398694 v 0 q 0.60291,0 1.2285,-0.265796 0.62883,-0.265796 1.23173,-0.794143 v 0 l 0.82008,1.568842 q -0.65152,0.625592 -1.36139,0.988629 -0.71311,0.363042 -1.38732,0.505662 -0.67746,0.145861 -1.30629,0.145861 z m 16.31726,-0.314417 h -2.80058 v -5.623849 q 0,-1.231735 -0.53159,-1.941605 -0.52835,-0.713111 -1.52022,-0.713111 v 0 q -0.53159,0 -1.09884,0.194486 -0.56725,0.191246 -1.05994,0.554282 -0.49594,0.363037 -0.78442,0.891389 v 0 l -0.89463,-0.602903 q 0.67746,-1.011318 1.48457,-1.701739 0.81035,-0.687181 1.7147,-1.037255 0.90436,-0.350074 1.89298,-0.350074 v 0 q 1.49754,0 2.54775,0.978907 1.05022,0.975666 1.05022,2.713064 v 0 z m -7.07276,0 h -2.75196 V 54.502705 l 2.75196,-0.505657 z m 14.4567,0.314417 v 0 q -1.44567,0 -2.58016,-0.593176 -1.1345,-0.589934 -1.7763,-1.724429 -0.63855,-1.134495 -0.63855,-2.726032 v 0 q 0,-1.714702 0.72283,-3.004785 0.72607,-1.293323 1.95781,-2.016156 1.2285,-0.722838 2.77465,-0.722838 v 0 q 1.95457,0 2.9432,1.179875 0.99187,1.183115 0.99187,3.186308 v 0 q 0,0.265796 -0.013,0.615865 -0.013,0.350074 -0.0616,0.664491 v 0 h -2.36299 v -1.328976 q 0,-1.134495 -0.38897,-1.760087 -0.38573,-0.628833 -1.37436,-0.628833 v 0 q -0.79739,0 -1.37436,0.424625 -0.58021,0.421384 -0.88166,1.179869 -0.30145,0.761736 -0.30145,1.776296 v 0 q 0,1.568841 0.82007,2.447267 0.82008,0.881661 2.14906,0.881661 v 0 q 0.74553,0 1.45864,-0.275518 0.71311,-0.278764 1.36463,-0.833046 v 0 l 0.89139,1.44567 q -0.70014,0.700149 -1.44891,1.098843 -0.74553,0.398689 -1.4716,0.557518 -0.72284,0.155588 -1.4003,0.155588 z m 4.00638,-5.140877 h -7.64973 l 0.31442,-1.666082 h 7.33531 z" />
  <path
     id="path1-5"
     d="m 110.46048,108.96132 v 0 q -1.04585,0.20219 -2.07967,-0.0656 -1.03383,-0.26779 -1.89013,-1.06872 v 0 q -0.88113,-0.76807 -1.54567,-2.07684 -0.66396,-1.30575 -1.02475,-3.17206 v 0 q -0.70415,-3.64246 -0.18235,-6.555449 0.52181,-2.912985 1.7829,-5.033604 v 0 q 1.23164,-2.111795 2.88322,-3.341429 1.65216,-1.226632 3.23596,-1.532809 v 0 q 1.52371,-0.29456 2.61381,0.183703 1.0871,0.478843 1.75354,1.491061 0.66402,1.015811 0.92605,2.371215 v 0 l -3.7291,1.48161 q -0.4709,-1.081201 -0.98761,-1.48014 -0.51613,-0.395925 -1.05408,-0.291932 v 0 q -0.6191,0.119687 -1.15255,0.924284 -0.53288,0.807598 -0.94924,2.072792 -0.41276,1.267616 -0.6476,2.778309 -0.23484,1.510693 -0.27309,3.070669 -0.0352,1.5594 0.16746,2.89822 v 0 q 0.33871,1.7521 1.0033,2.39992 0.66759,0.64723 1.48804,0.48862 v 0 q 0.7904,-0.1528 1.46702,-0.8136 0.68019,-0.65837 1.03695,-1.61899 0.35618,-0.96362 0.17582,-2.04175 v 0 l -2.93621,1.03527 -0.002,-2.89895 2.53396,-0.842155 q 1.04559,-0.348664 2.20637,-0.778825 1.16379,-0.430747 2.03285,-0.773341 v 0 q 0.36182,2.919871 -0.14008,5.258481 -0.4989,2.33804 -1.58124,4.01256 -1.08234,1.67453 -2.43101,2.66479 -1.3451,0.99268 -2.7005,1.2547 z m 12.12973,-4.24667 -4.3482,2.06895 0.0503,-7.62611 q -0.0537,-2.100266 -0.0749,-4.322181 -0.0187,-2.225494 -0.0709,-4.382178 -0.0497,-2.160263 -0.20579,-4.031851 v 0 q 1.50909,-0.821733 3.32892,-1.422953 1.8174,-0.597633 3.65365,-0.952616 v 0 q 2.14581,-0.414826 3.10129,0.366931 0.95849,0.781177 1.26409,2.361979 v 0 q 0.27887,1.442558 -0.11914,3.028443 -0.395,1.585299 -1.25634,2.967689 -0.86135,1.382398 -2.02893,2.309579 v 0 q 0.72635,1.031816 1.56608,2.26307 0.83615,1.228828 1.57876,2.344798 v 0 q 0.41904,0.65163 0.85309,1.30037 0.43406,0.64873 0.8531,1.30037 v 0 l -4.08421,2.3702 -1.67057,-3.19063 q -0.69681,-1.33059 -1.30533,-2.57536 -0.60552,-1.245351 -0.76662,-1.772268 v 0 l -0.34456,0.185083 q 0.003,0.467067 0.005,1.009165 0.002,0.5421 0.008,1.18628 v 0 q 0.008,0.6406 0.006,1.2427 -0.002,0.60211 -0.004,1.18861 v 0 z m -0.0426,-16.138011 -0.0366,4.664831 q 0.49744,-0.152281 1.17198,-0.678619 0.67455,-0.526346 1.31365,-1.236015 0.63909,-0.709662 1.03196,-1.402906 0.39645,-0.690816 0.3093,-1.141617 v 0 q -0.10922,-0.565003 -0.80884,-0.619928 -0.69961,-0.05491 -1.77252,0.152488 v 0 l -0.6221,0.120259 q -0.16608,0.06015 -0.30432,0.08689 -0.14125,0.02732 -0.2825,0.05464 z m 12.5839,13.713561 -4.34821,2.06895 0.0503,-7.626122 q -0.0537,-2.100255 -0.0748,-4.322169 -0.0187,-2.225502 -0.0709,-4.382178 -0.0497,-2.160264 -0.20879,-4.031279 v 0 q 1.51209,-0.822313 3.32891,-1.422946 1.82041,-0.598212 3.65667,-0.953195 v 0 q 2.1458,-0.414826 3.10128,0.366931 0.95849,0.781177 1.26408,2.361978 v 0 q 0.27888,1.442558 -0.11913,3.028437 -0.395,1.585299 -1.25634,2.967696 -0.86135,1.382398 -2.02893,2.309579 v 0 q 0.72636,1.031816 1.56608,2.26307 0.83614,1.228826 1.57877,2.344788 v 0 q 0.41902,0.65164 0.85308,1.30038 0.43406,0.64873 0.8531,1.30037 v 0 l -4.08421,2.3702 -1.67057,-3.19063 q -0.69681,-1.330588 -1.30533,-2.575363 -0.60551,-1.245355 -0.76661,-1.772266 v 0 l -0.34457,0.185083 q 0.003,0.467068 0.005,1.009169 0.002,0.542094 0.008,1.186277 v 0 q 0.008,0.640595 0.006,1.2427 -0.002,0.6021 -0.004,1.1886 v 0 z m -0.0457,-16.137432 -0.0336,4.664252 q 0.49744,-0.152282 1.17198,-0.678627 0.67453,-0.526338 1.31364,-1.236007 0.6391,-0.709669 1.03197,-1.402906 0.39344,-0.690236 0.30629,-1.141038 v 0 q -0.10922,-0.565003 -0.80584,-0.620507 -0.69961,-0.05491 -1.77251,0.152481 v 0 l -0.62211,0.120266 q -0.16607,0.06015 -0.30732,0.08747 -0.14125,0.02732 -0.2825,0.05463 z m 12.5869,13.712982 -4.34821,2.06894 0.0502,-7.626112 q -0.0567,-2.099676 -0.0748,-4.322169 -0.0187,-2.225502 -0.0709,-4.382178 -0.0497,-2.160264 -0.20879,-4.031279 v 0 q 1.51209,-0.822313 3.32891,-1.422953 1.82041,-0.598212 3.65667,-0.953195 v 0 q 2.1458,-0.41482 3.10129,0.366937 0.95848,0.781178 1.26407,2.361979 v 0 q 0.27888,1.442558 -0.11913,3.028437 -0.395,1.585298 -1.25635,2.967696 -0.86134,1.38239 -2.02891,2.309579 v 0 q 0.72634,1.031815 1.56607,2.263063 0.83614,1.228826 1.57876,2.344795 v 0 q 0.41904,0.65164 0.85309,1.300375 0.43407,0.648729 0.85309,1.300369 v 0 l -4.0842,2.370196 -1.67057,-3.190625 q -0.69681,-1.33059 -1.30533,-2.575359 -0.60552,-1.245354 -0.76661,-1.772265 v 0 l -0.34458,0.185083 q 0,0.467647 0.005,1.009162 0.002,0.542101 0.008,1.186283 v 0 q 0.006,0.641169 0.006,1.242699 -0.002,0.602103 -0.004,1.188602 v 0 z m -0.0457,-16.137439 -0.0336,4.664259 q 0.49744,-0.152289 1.17198,-0.678627 0.67454,-0.526345 1.31365,-1.236007 0.6391,-0.709669 1.03196,-1.402913 0.39345,-0.690237 0.3063,-1.141031 v 0 q -0.10922,-0.565003 -0.80583,-0.620508 -0.69962,-0.05491 -1.77252,0.152482 v 0 l -0.62211,0.120266 q -0.16607,0.06015 -0.30732,0.08747 -0.14125,0.02732 -0.2825,0.05463 z m 12.5839,13.713572 -4.3452,2.068357 0.0503,-7.626112 q -0.0567,-2.099683 -0.0748,-4.322177 -0.0187,-2.225494 -0.0709,-4.382171 -0.0497,-2.160263 -0.2088,-4.031279 v 0 q 1.51209,-0.822312 3.32892,-1.422952 1.82041,-0.598213 3.65666,-0.953196 v 0 q 2.14581,-0.414819 3.10129,0.366938 0.95848,0.781171 1.26408,2.361972 v 0 q 0.27887,1.442558 -0.11914,3.028443 -0.395,1.585299 -1.25634,2.96769 -0.86135,1.382397 -2.02893,2.309578 v 0 q 0.72635,1.031816 1.56308,2.26365 0.83915,1.228246 1.58176,2.344215 v 0 q 0.41904,0.651633 0.8531,1.300369 0.43406,0.648736 0.85309,1.300376 v 0 l -4.0842,2.370195 -1.67057,-3.190631 q -0.69681,-1.330584 -1.30534,-2.575352 -0.60551,-1.245354 -0.76661,-1.772272 v 0 l -0.34457,0.185083 q -1e-5,0.467647 0.005,1.009168 0.002,0.542101 0.008,1.186277 v 0 q 0.006,0.641176 0.006,1.242699 -0.002,0.60211 -0.004,1.188609 v 0 z m -0.0426,-16.138023 -0.0336,4.664252 q 0.49744,-0.152281 1.17198,-0.678619 0.67455,-0.526345 1.31365,-1.236014 0.6391,-0.709662 1.03196,-1.402907 0.39345,-0.690236 0.3063,-1.141037 v 0 q -0.10922,-0.564997 -0.80884,-0.619928 -0.69661,-0.05553 -1.77251,0.152488 v 0 l -0.6191,0.11968 q -0.16607,0.06015 -0.30733,0.08747 -0.14125,0.02732 -0.28249,0.05463 z m 12.58389,13.713566 -4.34519,2.068364 0.0503,-7.62612 q -0.0567,-2.099675 -0.0748,-4.322169 -0.0187,-2.225501 -0.0709,-4.382178 -0.0527,-2.159684 -0.20879,-4.031279 v 0 q 1.51209,-0.822312 3.32891,-1.422946 1.82041,-0.598212 3.65366,-0.952615 v 0 q 2.14881,-0.415406 3.10429,0.366351 0.95849,0.781177 1.26408,2.361979 v 0 q 0.27888,1.442558 -0.11912,3.028436 -0.39501,1.585299 -1.25635,2.967696 -0.86135,1.382398 -2.02893,2.309579 v 0 q 0.72636,1.031816 1.56308,2.26365 0.83914,1.228246 1.58176,2.344208 v 0 q 0.41903,0.65164 0.85309,1.300376 0.43406,0.648736 0.85309,1.300369 v 0 l -4.0842,2.370201 -1.67358,-3.190051 q -0.69681,-1.330584 -1.30232,-2.575938 -0.60551,-1.245355 -0.76661,-1.772265 v 0 l -0.34458,0.185083 q 0,0.467647 0.002,1.009748 0.005,0.541514 0.011,1.185697 v 0 q 0.006,0.641175 0.006,1.242699 -0.002,0.602103 -0.004,1.188601 v 0 z m -0.0426,-16.138016 -0.0366,4.664832 q 0.50045,-0.152861 1.17499,-0.679206 0.67454,-0.526338 1.31364,-1.236008 0.6391,-0.709669 1.03197,-1.402906 0.39345,-0.690236 0.3063,-1.141037 v 0 q -0.10928,-0.565004 -0.80889,-0.619929 -0.69661,-0.05553 -1.77252,0.152489 v 0 l -0.6191,0.119679 q -0.16607,0.06015 -0.30733,0.08747 -0.14125,0.02732 -0.28249,0.05463 z m 9.28624,8.782954 v 0 q 0.1151,-1.839835 0.20594,-3.643805 0.0903,-1.806978 0.18112,-3.610948 v 0 q 0.0608,-1.798161 0.16376,-3.620067 0.10296,-1.821899 0.22086,-3.631105 v 0 q 1.56147,-0.566859 2.85729,-0.99195 1.29223,-0.42752 2.11243,-0.732606 v 0 q -0.83582,3.852866 -1.39845,7.699683 -0.5602,3.843236 -1.09725,7.725635 v 0 q -0.82045,0.158614 -1.62686,0.373739 -0.80942,0.215712 -1.61884,0.431424 z m 1.33273,7.184169 v 0 q -0.84751,0.163843 -1.4795,-0.137981 -0.62957,-0.305411 -1.01441,-0.860778 -0.38483,-0.555366 -0.50451,-1.174467 v 0 q -0.21845,-1.13 0.36836,-2.110147 0.58739,-0.977146 1.91274,-1.233358 v 0 q 1.64091,-0.317215 2.60883,0.303135 0.97036,0.616761 1.1615,1.605518 v 0 q 0.21845,1.13 -0.54123,2.199687 -0.76269,1.070261 -2.51178,1.408391 z m 7.42615,-1.435612 v 0 q -0.84449,0.163257 -1.47649,-0.138567 -0.62956,-0.305411 -1.0144,-0.860778 -0.38783,-0.554787 -0.50752,-1.17388 v 0 q -0.21845,-1.130007 0.36836,-2.110154 0.5904,-0.977719 1.91575,-1.233938 v 0 q 1.6379,-0.316635 2.60884,0.303135 0.96734,0.617348 1.15848,1.606097 v 0 q 0.21846,1.130007 -0.54123,2.199688 -0.75968,1.069681 -2.51179,1.408397 z m -1.3297,-7.184755 v 0 q 0.11509,-1.839834 0.20593,-3.643805 0.0903,-1.806977 0.18111,-3.610947 v 0 q 0.0608,-1.798162 0.16376,-3.620068 0.10297,-1.821899 0.22087,-3.631098 v 0 q 1.56147,-0.566866 2.85428,-0.991378 1.29524,-0.428098 2.11544,-0.733185 v 0 q -0.83882,3.853446 -1.39845,7.699683 -0.56021,3.843237 -1.10026,7.726222 v 0 q -0.81744,0.158027 -1.62686,0.373739 -0.8064,0.215126 -1.61582,0.430837 z"
     class="f-primary" />
  <path
     id="path1"
     style="stroke-width:1"
     d="m 32.807241,28.190142 v 0 q -5.0541,0 -7.78348,-2.927579 -2.72525,-2.927579 -2.72525,-8.167492 v 0 q 0,-3.328108 1.280042,-5.822125 Q 24.854466,8.7748 27.166799,7.3874002 29.479133,6 32.530587,6 v 0 q 2.52705,0 4.422337,0.8506084 1.895288,0.8464793 2.956484,2.4320796 1.061196,1.589729 1.123133,3.807091 v 0 h -2.894546 q -0.09497,-1.725991 -0.908416,-2.7748 Q 36.412003,9.266171 35.164995,8.791317 33.913858,8.312333 32.530587,8.312333 v 0 q -3.361142,0 -5.301851,2.341238 -1.940708,2.341238 -1.940708,6.4415 v 0 q 0,8.782738 7.705025,8.782738 v 0 q 2.617892,0 4.71138,-1.077713 v 0 -5.5496 h -5.297721 v -2.2793 h 8.072521 v 9.336046 q -3.637796,1.8829 -7.671992,1.8829 z m 21.475795,-2.312333 v 0 q 3.390048,0 5.318367,-2.341238 1.924194,-2.341237 1.924194,-6.4415 v 0 q 0,-4.100262 -1.924194,-6.4415 -1.928319,-2.341238 -5.318367,-2.341238 v 0 q -3.357012,0 -5.297719,2.341238 -1.940709,2.341238 -1.940709,6.4415 v 0 q 0,4.100263 1.940709,6.4415 1.940707,2.341238 5.297719,2.341238 z m 0,2.312333 v 0 q -3.047325,0 -5.359657,-1.3874 -2.312334,-1.3874 -3.592375,-3.885546 -1.275913,-2.494016 -1.275913,-5.822125 v 0 q 0,-3.328108 1.275913,-5.822125 Q 46.611045,8.7748 48.923379,7.3874002 51.235711,6 54.283036,6 v 0 q 3.084487,0 5.380306,1.3874002 2.295818,1.3873998 3.571727,3.8855458 1.280045,2.494017 1.280045,5.822125 v 0 q 0,2.7748 -0.986872,5.008679 -0.986872,2.23388 -2.774801,3.774059 v 0 q 0.74325,-0.06194 1.573213,-0.107358 0.834094,-0.04542 1.878769,-0.04542 v 0 h 1.482373 v 2.155425 h -1.787929 q -2.436209,0 -3.976389,0.04542 -1.540177,0.04542 -2.527049,0.107358 -0.986872,0.06194 -1.680571,0.107358 -0.693699,0.04955 -1.432822,0.04955 z M 34.402421,46 v 0 q -2.246267,0 -3.633667,-1.234621 -1.3874,-1.230492 -1.3874,-3.237267 v 0 q 0,-2.432079 2.357754,-3.819479 2.357754,-1.387401 7.626571,-2.002646 v 0 -0.953838 q 0,-1.63515 -0.94145,-2.436208 -0.937321,-0.801059 -2.572471,-0.801059 v 0 q -1.692958,0 -2.696346,0.817575 -0.999258,0.817575 -1.061196,2.110005 v 0 h -2.712862 q 0.06194,-1.478242 0.862995,-2.617892 0.801059,-1.13965 2.23388,-1.804446 1.432821,-0.660667 3.311592,-0.660667 v 0 q 2.989516,0 4.591633,1.523663 1.602117,1.527792 1.602117,4.3604 v 0 10.446792 H 39.489554 V 43.439916 Q 38.750433,44.674537 37.424971,45.335204 36.099508,46 34.402421,46 Z m -2.308205,-4.591634 v 0 q 0,1.13965 0.801059,1.7838 0.801058,0.648279 2.217362,0.648279 v 0 q 1.973742,0 3.113392,-1.247008 1.13965,-1.247009 1.13965,-3.406563 v 0 -1.540179 q -3.790575,0.400529 -5.533083,1.308946 -1.73838,0.908417 -1.73838,2.452725 z M 53.231422,46 v 0 q -2.312336,0 -4.021809,-1.019905 -1.709475,-1.015774 -2.634409,-2.894546 -0.924933,-1.87877 -0.924933,-4.405821 v 0 q 0,-2.560083 0.924933,-4.422337 0.924934,-1.866384 2.588988,-2.882158 1.664054,-1.015776 3.881416,-1.015776 v 0 q 3.299204,0 5.116039,2.064583 1.816831,2.064584 1.816831,5.731284 v 0 1.015775 H 48.487009 q 0.123875,2.741767 1.337851,4.207621 1.218102,1.461725 3.406562,1.461725 v 0 q 1.664053,0 2.650925,-0.8919 0.986872,-0.896029 1.106618,-2.498146 v 0 h 2.774797 q -0.0289,1.602117 -0.908416,2.853255 -0.879513,1.247008 -2.324719,1.969612 Q 55.08129,46 53.231422,46 Z M 53.045608,31.514882 v 0 q -1.816831,0 -2.972999,1.156167 -1.156167,1.156167 -1.461725,3.344625 v 0 h 8.596923 q -0.123872,-2.097617 -1.1892,-3.299204 -1.061193,-1.201588 -2.972999,-1.201588 z" />
  <path
     id="path1-3"
     d="m 73.677534,35.303027 c 0.01856,0.421575 0.06894,0.759631 0.151131,1.014168 0.08219,0.257187 0.255862,0.486531 0.521,0.688038 0.265143,0.201506 0.664181,0.348662 1.197112,0.441462 v 0 L 74.254215,40 c -0.824587,-0.111361 -1.470206,-0.353962 -1.936855,-0.727812 -0.466645,-0.3765 -0.791444,-0.876293 -0.974391,-1.499374 v 0 C 70.446793,39.257607 68.780383,40 66.343738,40 v 0 c -1.29919,0 -2.347822,-0.229349 -3.145897,-0.688042 -0.795422,-0.456044 -1.357521,-1.010188 -1.686295,-1.662432 -0.331427,-0.649594 -0.49714,-1.276655 -0.49714,-1.881174 v 0 c 0,-0.988975 0.307564,-1.877199 0.922691,-2.664668 0.612475,-0.787468 1.532514,-1.336308 2.760116,-1.646523 v 0 c 0.623081,-0.164388 1.313773,-0.278398 2.072076,-0.342032 0.760954,-0.06363 1.223625,-0.104731 1.388013,-0.123291 v 0 c 1.190482,-0.07424 2.123778,-0.184273 2.799887,-0.3301 v 0 c -0.03447,-0.970416 -0.267792,-1.763187 -0.699972,-2.378314 -0.429528,-0.612475 -1.220974,-0.918713 -2.374336,-0.918713 v 0 c -0.768909,0 -1.487441,0.17897 -2.155595,0.536911 -0.668156,0.355288 -1.130826,0.982346 -1.388013,1.881174 v 0 l -2.772048,-0.7994 c 0.365894,-1.206391 1.069843,-2.180783 2.111847,-2.923178 1.044655,-0.742394 2.436645,-1.113592 4.175969,-1.113592 v 0 c 1.574937,0 2.911247,0.408317 4.008931,1.224951 1.100332,0.813983 1.686294,1.989883 1.757881,3.5277 v 0 c 0.01856,0.731788 0.03315,1.711484 0.04373,2.939088 0.0079,1.2276 0.01191,2.115824 0.01191,2.664662 z m -2.664665,-2.306724 v -0.02784 h -0.05568 z m -4.199832,4.641292 c 0.548496,0 1.134064,-0.137699 1.756705,-0.413097 3.94e-4,-1.76e-4 7.85e-4,-3.51e-4 0.0012,-4.62e-4 0.620429,-0.273094 1.169271,-0.758305 1.646524,-1.455624 0.477254,-0.694669 0.715881,-1.627963 0.715881,-2.799887 v 0 c -0.368546,0.05568 -0.937273,0.119312 -1.706182,0.1909 v 0 c -1.153362,0.0928 -2.105218,0.208137 -2.855567,0.346007 -0.750349,0.135224 -1.390664,0.37783 -1.920946,0.727812 -0.532933,0.347337 -0.799399,0.832543 -0.799399,1.455624 v 0 c 0,0.75035 0.3301,1.262074 0.990301,1.535168 0.660201,0.275744 1.384035,0.413619 2.171503,0.413619 z M 73.04073,9.668362 v 10.793885 h -2.744207 v -2.581146 c -1.503349,1.940831 -3.673527,2.911246 -6.510534,2.911246 v 0 c -2.086659,0 -3.881662,-0.448088 -5.385011,-1.344264 -1.500697,-0.898828 -2.640803,-2.130407 -3.420317,-3.694738 -0.776863,-1.566983 -1.165294,-3.348729 -1.165294,-5.34524 v 0 c 0,-1.99386 0.388431,-3.778258 1.165294,-5.353194 0.779514,-1.574937 1.91962,-2.811819 3.420317,-3.710647 C 59.904327,0.448088 61.69933,0 63.785989,0 v 0 c 2.086659,0 3.880337,0.448088 5.381034,1.344264 1.503349,0.898828 2.648757,2.14499 3.436226,3.738486 v 0 L 69.334062,6.013395 C 68.180699,3.818029 66.331341,2.720345 63.785989,2.720345 v 0 c -1.519257,0 -2.773374,0.356615 -3.762349,1.069844 -0.988975,0.713229 -1.71281,1.651827 -2.171504,2.815796 -0.456042,1.161317 -0.684063,2.42869 -0.684063,3.80212 v 0 c 0,1.373429 0.228021,2.636826 0.684063,3.790189 0.458694,1.156014 1.182529,2.090635 2.171504,2.803864 0.988975,0.71323 2.243092,1.069844 3.762349,1.069844 v 0 c 1.720764,0 3.144571,-0.498465 4.27142,-1.495395 1.126848,-0.999581 1.87322,-2.285514 2.239114,-3.857799 v 0 -0.41362 H 63.400209 V 9.668362 Z m 24.52686,9.338261 -1.86526,2.390245 c -0.62308,-0.220066 -1.19049,-0.522327 -1.70221,-0.906781 -0.51437,-0.384455 -1.06454,-0.860382 -1.6505,-1.427784 v 0 c -1.61206,1.153363 -3.58073,1.730044 -5.90602,1.730044 v 0 c -2.086655,0 -3.871054,-0.448088 -5.353192,-1.344264 -1.484787,-0.898828 -2.611636,-2.13571 -3.380548,-3.710647 -0.768906,-1.574936 -1.153362,-3.359334 -1.153362,-5.353194 v 0 c 0,-1.996511 0.384456,-3.778257 1.153362,-5.34524 0.768912,-1.564331 1.899736,-2.79591 3.39248,-3.694738 C 82.595083,0.448088 84.375502,0 86.4436,0 v 0 c 2.07075,0 3.84719,0.448088 5.32934,1.344264 1.48479,0.898828 2.61164,2.130407 3.38054,3.694738 0.76891,1.566983 1.15337,3.348729 1.15337,5.34524 v 0 c 0,2.579821 -0.63237,4.785793 -1.89709,6.617916 v 0 c 0.51438,0.474602 1.01814,0.881593 1.5113,1.220974 0.49317,0.33938 1.04201,0.600544 1.64653,0.783491 z M 79.742166,10.384242 c 0,1.370779 0.23863,2.638152 0.71588,3.80212 0.474606,1.163969 1.211694,2.102567 2.211275,2.815796 0.996931,0.71323 2.255024,1.069844 3.774279,1.069844 v 0 c 1.44767,0 2.70311,-0.356614 3.76633,-1.069844 v 0 c -0.77156,-0.623081 -1.54975,-1.007535 -2.33457,-1.153362 v 0 l 1.78175,-2.171504 c 0.84315,0.220067 1.64918,0.623081 2.41809,1.209042 v 0 c 0.69732,-1.28063 1.04598,-2.781328 1.04598,-4.502092 v 0 c 0,-1.357521 -0.23465,-2.61694 -0.70395,-3.778257 C 91.95058,5.442016 91.21481,4.503418 90.20993,3.790189 89.20239,3.07696 87.94695,2.720345 86.4436,2.720345 v 0 c -1.519255,0 -2.777348,0.356615 -3.774279,1.069844 -0.999581,0.713229 -1.736669,1.651827 -2.211275,2.815796 -0.47725,1.161317 -0.71588,2.420736 -0.71588,3.778257 z M 91.47177,33.187203 H 80.514826 c 0.127269,1.246162 0.521001,2.272261 1.181205,3.078286 0.65755,0.80338 1.609406,1.205068 2.855568,1.205068 v 0 c 0.951856,0 1.692921,-0.19223 2.223211,-0.576681 0.53293,-0.384456 1.01018,-1.043331 1.43175,-1.976625 v 0 l 2.74421,0.878939 c -0.45604,1.227605 -1.20639,2.235137 -2.25105,3.022605 C 87.65507,39.606264 86.27236,40 84.551599,40 v 0 C 82.775156,40 81.373882,39.583726 80.347788,38.751188 79.324345,37.915994 78.61509,36.927019 78.220033,35.784258 77.827626,34.638852 77.63142,33.526584 77.63142,32.44746 v 0 c 0,-1.081773 0.196206,-2.194039 0.588613,-3.336796 0.395057,-1.145409 1.104312,-2.134384 2.127755,-2.966927 1.026094,-0.835193 2.427368,-1.25279 4.203811,-1.25279 v 0 c 1.776441,0 3.181691,0.417597 4.215741,1.25279 1.03405,0.832543 1.7486,1.821518 2.14366,2.966927 0.39241,1.142757 0.58862,2.255023 0.58862,3.336796 v 0 c 0,0.310217 -0.009,0.556799 -0.0278,0.739743 z m -6.920171,-5.766812 c -1.097686,0 -1.971324,0.32082 -2.620918,0.962461 -0.652249,0.638989 -1.079124,1.471532 -1.280631,2.497627 v 0 h 7.83094 c -0.20151,-1.026095 -0.62707,-1.858638 -1.27666,-2.497627 -0.65224,-0.641641 -1.536488,-0.962461 -2.652731,-0.962461 z"
     class="f-accent" />
  <path
     id="path1-0"
     style="stroke-width:1"
     d="m 101.90414,11.826258 -1.22552,1.490244 q -0.10295,0.105396 -0.21815,0.105396 v 0 q -0.17403,0 -0.31864,-0.215693 -0.14461,-0.213242 -0.25,-0.328442 v 0 q -0.97062,-0.97062 -1.67653,-0.394621 v 0 q -0.13726,0.09314 -0.0441,0.25491 v 0 q 0.48531,0.752476 0.80885,1.433871 v 0 q 0.69365,1.514754 0.49021,3.051568 -0.20098,1.539265 -1.0466,2.764795 -0.84316,1.22553 -2.18879,2.004967 -1.34809,0.781888 -2.94373,0.781888 v 0 q -2.04663,0 -3.52707,-0.965717 -1.47799,-0.965718 -1.60545,-2.769698 v 0 l 0.20834,-0.94856 q 0.10295,-0.473054 0.25246,-0.936304 v 0 q 0.41668,-1.191215 -0.10294,-1.607895 v 0 q -0.28923,-0.2304 -0.65934,-0.2304 v 0 q -0.3456,-0.01226 -0.3456,-0.281872 0,-0.272068 0.3456,-0.284323 v 0 q 0.28923,0 0.62502,0.06863 0.3358,0.07108 0.62257,0.1152 v 0 q 1.23779,0.267165 1.92163,1.000032 0.6814,0.735318 0.20589,2.399587 v 0 q -0.45099,1.539265 -0.1201,2.603025 0.32844,1.06376 2.13242,1.166705 v 0 q 1.58339,0.06863 2.46332,-0.889735 0.87747,-0.960815 1.11033,-2.52214 v 0 q 0.16177,-1.085819 -0.47551,-2.426549 -0.63482,-1.34073 -1.69858,-2.693714 v 0 q -2.41675,-3.05157 -1.90693,-4.3408274 0.50737,-1.289257 2.24272,-2.828522 v 0 -0.0098 q 0.0564,-0.05882 0.18383,-0.05882 v 0 q 0.28923,0 0.28923,0.27697 v 0 q 0,0.1152 -0.10295,0.220595 v 0 q -0.98287,1.039249 -0.10539,2.093205 v 0 q 0.62502,0.762279 1.23288,1.5074014 0.60541,0.745122 1.12504,1.475538 v 0 q 0.15196,0.183829 0.31373,0.0098 v 0 q 0.48531,-0.612765 0.98288,-1.218177 0.49756,-0.607863 1.00493,-1.2328834 v 0 q 0.20834,-0.252459 0.451,-0.05637 v 0 q 0.41668,0.345599 0.8162,0.6985524 0.39707,0.352952 0.81375,0.698552 v 0 q 0.1054,0.08334 0.23285,0.198536 0.125,0.115199 0.125,0.242654 v 0 q 0,0.102945 -0.15441,0.272068 -0.15687,0.166672 -0.28432,0.306382 z m -9.08607,1.362789 v 0 q -2.30155,1.029445 -4.48789,0.1152 v 0 Q 86.12422,12.380198 85.75411,9.7207976 85.384,7.0613986 87.3375,4.8064236 q 1.95349,-2.252523 5.4438,-2.252523 v 0 q 1.64221,0 3.30893,0.541684 1.66427,0.544135 3.36286,1.446125 v 0 q 1.12258,0.588254 2.19614,0.220595 v 0 q 0.23285,-0.09314 0.34806,-0.127455 v 0 q 0.25491,-0.04657 0.31863,0.13726 0.0637,0.18628 -0.21569,0.404424 v 0 q -0.83091,0.602961 -1.67652,1.186313 -0.84317,0.583352 -1.65202,1.208372 v 0 q -0.28922,0.230399 -0.63727,0.0098 v 0 q -1.03925,-0.762279 -2.87265,-1.593188 -1.83094,-0.83336 -3.706,-0.83336 v 0 q -2.19615,0 -3.58835,1.247589 -1.39465,1.25004 -1.33092,3.186377 0.0637,1.9363374 1.69368,3.0123524 1.6324,1.073564 4.17415,0.08088 v 0 q 0.20834,-0.08088 0.34805,-0.04167 0.13726,0.04167 0.19118,0.13971 0.0515,0.09804 0,0.218144 -0.0539,0.122553 -0.22549,0.191183 z m 14.65978,-2.034379 v 4.600639 q -0.0123,1.862805 0.69365,2.15203 v 0 q 0.0809,0.05637 0.0809,0.154417 0,0.09804 -0.0809,0.144612 v 0 q -1.0417,0.78679 -1.68878,2.093205 v 0 q -0.0686,0.09314 -0.17402,0.09314 -0.10295,0 -0.17158,-0.09314 v 0 q -0.64953,-1.306415 -1.7574,-2.08095 v 0 q -0.0711,-0.04657 -0.0711,-0.149514 0,-0.105396 0.0809,-0.16177 v 0 q 0.75247,-0.289225 0.75247,-2.15203 v 0 -3.838359 q 0,-1.17896 -0.43874,-1.443674 v 0 q -0.50982,-0.335795 -0.83336,0.242655 v 0 q -0.12746,0.242654 -0.28922,0.115199 -0.16177,-0.127455 0.0123,-0.404424 v 0 q 0.33579,-0.5318804 0.64217,-1.0882714 0.30638,-0.55394 0.62993,-1.107879 v 0 q 0.18383,-0.335795 0.51962,-0.13971 v 0 l 0.0123,0.01226 q 1.69858,0.85542 2.03438,2.0907534 v 0 q 0.0221,0.127456 0.1152,0.151966 0.0931,0.02206 0.18628,-0.04657 v 0 q 0.63483,-0.5318804 1.30641,-1.1225854 0.66915,-0.588254 0.9118,-1.085819 v 0 q 0.12746,-0.301481 0.41668,0.01226 v 0 q 0.69365,0.727965 1.18631,1.154449 0.49021,0.428935 1.66917,0.637275 v 0 q 0.20835,0.04657 0.21325,0.1789284 0.007,0.132357 -0.14462,0.178927 v 0 q -0.29902,0.1152 -0.53188,0.399523 -0.23039,0.281871 -0.23039,0.941206 v 0 4.892315 q 0,1.17896 0.43873,1.443674 v 0 q 0.50982,0.313736 0.82111,-0.25491 v 0 q 0.12745,-0.218144 0.29658,-0.09804 0.16667,0.122552 -0.007,0.399522 v 0 q -0.3456,0.544135 -0.65198,1.093173 -0.30639,0.549037 -0.62012,1.093172 v 0 q -0.20834,0.32354 -0.51963,0.149515 v 0 q -2.10301,-1.01719 -2.10301,-3.017254 v 0 l 0.01,-5.919309 q 0,-0.34805 -0.17158,-0.450995 v 0 h -0.0123 v -0.02451 l -0.98287,-0.80885 q -0.12745,-0.09314 -0.26717,-0.01226 v 0 l -1.20101,0.936305 q -0.0809,0.05882 -0.0809,0.13971 z m 7.79192,-1.06376 v 0 q 0.0221,-0.1617694 0.24266,-0.2083404 v 0 q 0.7059,-0.174025 0.98777,-0.595607 0.28432,-0.421582 0.25001,-1.473087 v 0 q -0.12746,-1.11033 -0.45835,-1.816235 -0.32844,-0.705905 -0.83826,-1.225529 v 0 q -0.19608,-0.196085 -0.0343,-0.335796 0.16177,-0.137259 0.38236,0.08089 v 0 q 0.26472,0.325991 0.54904,0.69365 0.28432,0.37011 0.48041,0.764731 v 0 q 0.0564,0.1152 0.16667,0.1152 0.1103,0 0.16912,-0.09314 v 0 q 0.69365,-1.154449 1.90202,-1.867707 1.20593,-0.710807 2.61774,-0.664237 v 0 q 0.24265,0.01226 0.26471,0.225497 0.0245,0.213242 -0.26471,0.213242 v 0 q -1.14465,0 -1.8334,0.659335 -0.68629,0.659336 -0.68629,2.531945 v 0 q 0,0.151966 0.14461,0.191182 0.14461,0.04167 0.2255,-0.110297 v 0 q 0.70345,-1.536814 2.13732,-1.941239 v 0 q 0.24265,-0.01226 0.24265,0.183829 v 0 2.046634 q 0.0123,0.242655 -0.20834,0.186281 v 0 q -1.25984,-0.16177 -2.18389,0.727965 v 0 q -0.17403,0.242654 -0.14951,0.497565 0.0221,0.25491 0.29902,0.25491 v 0 h 1.99027 q 0.18383,0 0.18383,0.18383 v 0 0.7402204 q 0,0.196084 -0.18383,0.196084 v 0 h -2.33587 q -0.16176,0 -0.16176,0.20834 v 0 l -0.0123,6.519818 q 0,0.37011 0.17403,0.475506 v 0 l 0.83091,0.473054 q 0.26716,0.127456 0.79904,-0.553939 v 0 q 0.1152,-0.13971 0.27698,-0.02451 0.16176,0.1152 0.0221,0.25491 v 0 q -1.21328,1.352985 -1.86036,2.659399 v 0 q -0.13971,0.242655 -0.41668,0 v 0 q -0.58825,-0.774536 -1.13729,-1.174059 -0.55149,-0.399522 -1.71819,-0.617667 v 0 q -0.18383,-0.02451 -0.19118,-0.169123 -0.005,-0.144612 0.12255,-0.200987 v 0 q 0.28923,-0.105395 0.52453,-0.387267 0.23775,-0.284323 0.23775,-0.943658 v 0 l -0.0123,-6.289419 q 0,-0.230399 -0.2304,-0.230399 v 0 h -1.05151 q -0.26716,0 -0.2549,-0.16177 z m -11.83861,16.803051 v 0 h 2.00006 q 0.18383,0 0.18383,0.186281 v 0 0.715709 q 0,0.18628 -0.18383,0.18628 v 0 h -1.39956 q -0.0809,0 -0.14461,0.06863 -0.0637,0.06863 -0.0392,0.139711 v 0 q 0.0686,0.64708 -0.0343,1.801528 v 0 l -1.16916,12.164612 q -0.0466,0.392167 -0.23039,0.397067 -0.18628,0.0073 -0.23285,-0.421579 v 0 q -0.28678,-3.536879 -0.58826,-7.063955 -0.30148,-3.524624 -0.63727,-7.063954 v 0 h -1.34073 q -0.17158,0 -0.17893,-0.166672 -0.005,-0.169123 0.13236,-0.191182 v 0 q 0.75247,-0.127456 1.25004,-0.774536 0.49756,-0.647079 0.42648,-1.688779 v 0 q -0.0809,-1.64221 0.42894,-2.757442 0.50737,-1.115232 2.03438,-0.617667 v 0 q 0.84316,0.289225 1.54416,0.502467 0.69855,0.213242 0.98778,-0.237753 v 0 q 0.13971,-0.242654 0.25491,-0.20834 0.1152,0.03676 -0.0343,0.450995 v 0 q -0.41668,1.31867 -1.08091,1.774567 -0.66669,0.458348 -2.0638,-0.213242 v 0 q -1.35298,-0.62502 -1.59074,0.620118 -0.23775,1.242687 0.50247,1.622601 v 0 q 0.71816,0.394621 0.9363,0.64708 v 0 q 0.12746,0.127455 0.26717,0.127455 z m 6.53207,3.017254 v 0 l -0.0123,5.608024 q 0,0.370111 0.18627,0.475506 v 0 l 0.83091,0.48531 q 0.26717,0.161771 0.81131,-0.566195 v 0 q 0.11519,-0.151966 0.28677,-0.06373 0.17403,0.08579 0,0.294127 v 0 q -1.21328,1.352984 -1.86035,2.659398 v 0 q -0.19609,0.264714 -0.42894,0 v 0 q -0.64708,-0.752473 -1.20592,-1.144644 -0.5613,-0.394619 -1.64956,-0.647077 v 0 q -0.20835,-0.05883 -0.20835,-0.186282 0,-0.127457 0.15197,-0.183829 v 0 q 0.77454,-0.127457 0.76228,-1.330927 v 0 -4.889863 q 0,-1.17896 -0.43874,-1.446125 v 0 q -0.50982,-0.333344 -0.83336,0.242655 v 0 q -0.12745,0.242655 -0.28923,0.117651 -0.16177,-0.127455 0.0123,-0.404425 v 0 q 0.3358,-0.53188 0.64218,-1.088271 0.30639,-0.553939 0.62993,-1.11033 v 0 q 0.19608,-0.345599 0.51962,-0.127455 v 0 q 1.70104,0.821105 2.03438,2.08095 v 0 q 0.0368,0.117651 0.13971,0.144612 0.10294,0.02941 0.18383,-0.07353 v 0 l 1.78192,-2.046634 q 0.0686,-0.06863 0.16177,-0.06373 0.0931,0.0049 0.14952,0.09804 v 0 l 1.21572,2.323605 q 0.0441,0.105396 -0.0245,0.196085 v 0 l -1.3873,1.66672 q -0.0809,0.08089 -0.17893,0.06863 -0.098,-0.01226 -0.13236,-0.105396 v 0 l -0.9363,-1.732899 q -0.0466,-0.06863 -0.14461,-0.08824 -0.0981,-0.01716 -0.17893,0.06373 v 0 l -0.54414,0.659335 q -0.0466,0.04657 -0.0466,0.115199 z m 8.48556,-0.750024 v 0 l -0.01,6.473248 q 0,0.360306 0.17158,0.475506 v 0 l 0.83336,0.473052 q 0.24265,0.208342 0.80885,-0.553937 v 0 q 0.10539,-0.151966 0.28432,-0.04657 0.17893,0.102944 0.0171,0.276969 v 0 q -1.23779,1.352986 -1.86281,2.6594 v 0 q -0.19608,0.242654 -0.42648,0 v 0 q -0.64708,-0.762277 -1.20347,-1.144644 -0.55394,-0.382367 -1.65202,-0.647081 v 0 q -0.18628,-0.03432 -0.19853,-0.174026 -0.01,-0.139709 0.13971,-0.196085 v 0 q 0.77453,-0.186278 0.76228,-1.330924 v 0 l -0.01,-6.252652 q 0.01,-0.20834 -0.17403,-0.20834 v 0 h -1.36524 q -0.16177,0 -0.20834,-0.127455 v 0 q -0.0441,-0.127455 0.1054,-0.220596 v 0 q 1.3873,-0.982875 2.82607,-2.370175 1.43877,-1.387299 2.62018,-2.634888 v 0 q 0.14952,-0.16177 0.29413,-0.06373 0.14461,0.09804 0.005,0.281872 v 0 q -0.53188,0.659335 -1.06866,1.710839 -0.53679,1.053956 -0.65444,1.91918 v 0 q -0.0221,0.117651 0.0123,0.174025 v 0 q 0.0686,0.07108 0.16177,0.07108 v 0 h 2.00007 q 0.0809,0 0.13971,0.05638 v 0 q 0.0564,0.08088 0.0564,0.149514 v 0 l -0.0466,0.867675 q -0.0221,0.186281 -0.19608,0.186281 v 0 h -2.00007 q -0.16177,0 -0.16177,0.196084 z"
     class="f-primary" />
  <path
     id="path1-9"
     d="m 33.581029,63.016704 h 7.762825 v 0.531643 H 38.89331 v 19.363451 h 2.450544 v 0.531643 h -7.762825 v -0.531643 h 2.724673 v -9.274686 h -8.975636 v 9.274686 h 2.708058 v 0.531643 h -7.758671 v -0.531643 h 2.450544 V 63.548347 h -2.450544 v -0.531643 h 7.758671 v 0.531643 h -2.708058 v 9.544661 h 8.975636 V 63.548347 H 33.581029 Z M 18.084452,60.27957 v 0 q -0.681168,0 -1.158816,-0.481802 -0.477649,-0.485955 -0.477649,-1.167123 v 0 q 0,-0.664554 0.477649,-1.15051 0.477648,-0.481801 1.158816,-0.481801 v 0 q 0.664555,0 1.15051,0.481801 0.481802,0.485956 0.481802,1.15051 v 0 q 0,0.681168 -0.477649,1.167123 -0.473494,0.481802 -1.154663,0.481802 z m -3.011261,4.822173 h 4.224073 V 77.096948 H 21.0791 v 0.531643 h -6.005909 v -0.531643 h 1.769376 V 65.633386 H 15.073191 Z M 9.128422,96.998334 H 8.622921 L 3.2165709,79.589026 H 0.9830455 V 79.130132 H 17.721938 v 0.458894 h -5.736181 l 4.27704,13.856462 4.843488,-13.856462 H 18.90861 v -0.458894 h 4.596115 v 0.458894 h -1.882184 l -6.076767,17.409308 h -0.5055 L 9.633923,79.589026 H 5.5684052 l 4.3021358,13.856462 2.419951,-6.793789 0.247373,0.79948 z m 6.607364,-17.549127 -2.082951,6.205831 -0.397948,-0.365682 1.986153,-5.972799 z m 9.120527,17.549127 v 0 q -1.505748,0 -2.710346,-0.677583 -1.204598,-0.674003 -1.91445,-1.939548 -0.713437,-1.26196 -0.713437,-3.025836 v 0 q 0,-1.763875 0.670416,-3.025835 0.670416,-1.265545 1.839162,-1.935961 1.172333,-0.670417 2.688835,-0.670417 v 0 q 1.702929,0 2.721101,0.677587 1.014587,0.674001 1.466311,1.781801 0.45531,1.104215 0.45531,2.3841 v 0 h -8.25293 v -0.458894 h 5.761276 q 0,-0.587959 -0.06453,-1.26913 -0.06453,-0.681172 -0.276054,-1.287056 -0.211521,-0.605884 -0.641735,-0.993076 -0.430213,-0.387192 -1.168747,-0.387192 v 0 q -0.846086,0 -1.387438,0.430213 -0.541353,0.426629 -0.846087,1.157992 -0.30832,0.727778 -0.423043,1.656322 -0.118309,0.928544 -0.118309,1.939546 v 0 q 0,1.011002 0.136234,1.932376 0.132649,0.924959 0.46965,1.641982 0.333415,0.717023 0.928544,1.140065 0.591544,0.423043 1.509333,0.423043 v 0 q 1.573865,0 2.574111,-0.795894 1.000246,-0.79231 1.4448,-2.004078 v 0 h 0.530597 q -0.458894,1.42329 -1.609716,2.362591 -1.154408,0.942882 -3.068858,0.942882 z m 14.949921,0 v 0 q -0.552107,0 -1.014587,-0.193593 Q 38.325582,96.60756 38.045944,96.155833 37.76272,95.704109 37.76272,94.94048 v 0 -5.338233 q 0,-0.846087 -0.13982,-1.620471 -0.143404,-0.77797 -0.595128,-1.26913 Q 36.576047,86.2179 35.636748,86.2179 v 0 q -0.530597,0 -1.10063,0.118309 -0.570033,0.118309 -1.057608,0.358511 -0.487576,0.240203 -0.79231,0.605884 -0.30832,0.362097 -0.30832,0.856842 v 0 h -0.552108 q 0,-0.598713 0.394363,-0.94647 0.394362,-0.347755 0.864012,-0.347755 v 0 q 0.505501,0 0.921374,0.326245 0.419459,0.32266 0.419459,0.921374 v 0 q 0,0.706267 -0.430214,1.021757 -0.430214,0.319075 -0.910619,0.319075 v 0 q -0.541352,0 -0.910619,-0.32983 -0.369266,-0.329831 -0.369266,-0.964396 v 0 q 0,-0.552107 0.358511,-0.993076 0.358512,-0.440969 0.964396,-0.752874 0.602299,-0.311904 1.362343,-0.480405 0.756458,-0.172085 1.555938,-0.172085 v 0 q 1.624057,0 2.427122,0.566448 0.806651,0.562862 1.075534,1.4448 0.272468,0.881938 0.272468,1.831993 v 0 5.782787 q 0,0.390777 0.13265,0.659661 0.136234,0.268882 0.570033,0.268882 v 0 q 0.30832,0 0.677586,-0.250956 0.369267,-0.254543 0.570033,-0.641736 v 0 l 0.222277,0.423044 q -0.304735,0.494744 -0.856842,0.824574 -0.552107,0.329831 -1.330077,0.329831 z m -5.474468,0 v 0 q -1.530843,0 -2.441462,-0.781553 -0.910618,-0.781555 -0.910618,-2.122387 v 0 q 0,-1.57745 1.351588,-2.473729 1.351587,-0.899863 3.857581,-0.899863 v 0 h 2.667324 v 0.397948 h -2.667324 q -1.036097,0 -1.670662,0.437383 -0.634565,0.433799 -0.928545,1.079119 -0.293979,0.648906 -0.293979,1.294226 v 0 q 0,0.587959 0.182841,1.129311 0.18284,0.537767 0.570032,0.892693 0.387193,0.351342 1.011003,0.351342 v 0 q 0.64532,0 1.269129,-0.426629 0.62381,-0.430214 1.028928,-1.283471 0.405118,-0.853257 0.405118,-2.133142 v 0 h 0.268883 q 0,1.340832 -0.426628,2.362589 -0.430214,1.021758 -1.251205,1.59896 -0.824576,0.577203 -2.022004,0.577203 z M 6.0684807,77.834133 H 5.6074461 V 73.855114 H 6.15155 q 0.1495247,0.938683 0.7434701,1.711227 0.5897919,0.768391 1.4620189,1.229426 0.872228,0.465188 1.88152,0.465188 v 0 q 0.760084,0 1.441252,-0.245055 0.681168,-0.245054 1.104821,-0.747623 0.4195,-0.506723 0.4195,-1.308341 v 0 q 0,-0.859768 -0.515029,-1.362337 Q 12.16992,73.09503 11.347534,72.775213 10.525148,72.455397 9.603079,72.14804 8.685163,71.840684 7.8627773,71.40457 7.0362379,70.968456 6.5129014,70.245754 5.9895649,69.527204 5.9895649,68.326853 v 0 q 0,-0.872227 0.3945791,-1.682153 0.3945791,-0.809926 1.2128115,-1.333262 0.8140785,-0.523337 2.1099595,-0.523337 v 0 q 0.926223,0 1.702921,0.303203 0.776698,0.307357 1.362336,0.797465 v 0 l 1.017599,-1.117281 h 0.477648 v 3.800419 h -0.544104 q -0.06645,-0.801618 -0.593945,-1.536781 -0.523337,-0.735164 -1.395564,-1.212812 -0.868074,-0.477648 -2.00197,-0.477648 v 0 q -0.652094,0 -1.183737,0.224287 -0.531644,0.224287 -0.8556138,0.64794 -0.3281237,0.423654 -0.3281237,1.009292 v 0 q 0,0.747624 0.5524108,1.216965 0.5482577,0.469341 1.4080247,0.809926 0.859767,0.340584 1.82337,0.672861 0.967758,0.33643 1.831678,0.805772 0.868074,0.469341 1.412178,1.196198 0.544104,0.731009 0.544104,1.860752 v 0 q 0,1.212811 -0.593945,2.12242 -0.589792,0.913762 -1.599084,1.416331 -1.009292,0.506723 -2.288559,0.506723 v 0 q -0.938683,0 -1.781836,-0.328124 -0.8473069,-0.328124 -1.4994008,-0.884688 v 0 z"
     style="stroke-width:1" />
  <path
     id="path1-7"
     d="m 24.993231,66.27446 v 0 q -0.240936,0 -0.387592,-0.06635 -0.146657,-0.06634 -0.146657,-0.226968 v 0 q 0,-0.213001 0.202526,-0.293314 0.199034,-0.08031 0.412035,-0.132689 v 0 q 0.562184,-0.136181 0.858988,-0.335215 0.293314,-0.202525 0.293314,-0.684397 v 0 -5.803409 q 0,-0.722808 -0.254904,-1.284991 -0.254903,-0.562184 -0.949775,-0.67043 v 0 q -0.132689,-0.02793 -0.199034,-0.104755 -0.06984,-0.08031 -0.06984,-0.240936 v 0 q 0,-0.296805 0.240936,-0.321247 v 0 q 1.07199,-0.240936 1.766863,-0.656463 0.694872,-0.415527 1.044055,-0.684397 v 0 q 0.240935,-0.185067 0.373624,-0.185067 v 0 q 0.160625,0 0.160625,0.132689 v 0 q 0,0.213001 -0.06635,0.84153 -0.06634,0.632019 -0.118722,1.393237 -0.05587,0.761217 -0.05587,1.37927 v 0 6.204969 q 0,0.457429 0.30728,0.67043 0.310772,0.213001 0.845021,0.349182 v 0 q 0.213001,0.05238 0.415527,0.132689 0.199034,0.08031 0.199034,0.293314 v 0 q 0,0.293313 -0.534249,0.293313 v 0 q -0.509806,0 -0.817086,-0.03841 -0.307281,-0.0419 -0.590119,-0.06634 -0.279345,-0.02793 -0.761217,-0.02793 v 0 q -0.453937,0 -0.74725,0.02793 -0.296805,0.02444 -0.590118,0.06634 -0.293313,0.03841 -0.831054,0.03841 z m 2.140488,-13.886979 v 0 q -0.562184,0 -0.949776,-0.387593 -0.387592,-0.387592 -0.387592,-0.949775 v 0 q 0,-0.586627 0.387592,-0.974219 0.387592,-0.387593 0.949776,-0.387593 v 0 q 0.590117,0 0.97771,0.387593 0.387592,0.387592 0.387592,0.974219 v 0 q 0,0.562183 -0.387592,0.949775 -0.387593,0.387593 -0.97771,0.387593 z m 21.210567,20.177671 v 0 q -0.458911,0 -0.741674,-0.08807 -0.2874,-0.09271 -0.2874,-0.305941 v 0 q 0,-0.24568 0.2874,-0.389379 0.282763,-0.139064 0.885374,-0.24568 v 0 q 1.348921,-0.250315 2.062783,-0.871468 0.709227,-0.621153 0.709227,-1.900542 v 0 -13.781248 q 0,-1.63632 -0.07417,-2.507788 -0.06953,-0.866833 -0.227138,-1.223764 -0.162242,-0.356931 -0.445005,-0.389379 v 0 q -0.495995,-0.106616 -1.047616,-0.125158 -0.551621,-0.01854 -1.474079,-0.01854 v 0 h -1.668769 q -0.852926,0 -1.68731,0.338389 -0.834385,0.338389 -1.228399,1.047616 v 0 q -0.106616,0.176148 -0.352296,0.514537 -0.250315,0.338389 -0.533079,0.588705 -0.287399,0.245679 -0.570163,0.245679 v 0 q -0.139064,0 -0.194689,-0.139064 -0.05099,-0.143699 -0.05099,-0.319847 v 0 q 0,-0.356931 0.176147,-0.713862 v 0 q 0.495996,-1.029074 0.727769,-1.826375 0.231773,-0.801936 0.370837,-1.900542 v 0 q 0.07417,-0.607246 0.268858,-0.713862 0.194689,-0.106616 0.338389,-0.106616 v 0 q 0.139064,0 0.440369,0.426463 0.305941,0.426464 0.445005,0.713863 v 0 q 0.213232,0.352295 0.978084,0.533078 0.764852,0.176148 1.511163,0.176148 v 0 h 12.501857 q 1.242305,0 2.025699,-0.143699 0.778759,-0.139064 1.348922,-0.38938 v 0 q 0.426463,-0.213231 0.690684,-0.463546 0.268858,-0.24568 0.695321,-0.24568 v 0 q 0.106615,0 0.176148,0.264221 0.06953,0.268858 0.06953,0.551621 v 0 q 0,0.176148 -0.05099,0.495995 -0.05563,0.319848 -0.08807,0.500631 v 0 q -0.106615,0.635059 -0.194689,0.922458 -0.09271,0.282764 -0.125158,0.495995 -0.03708,0.213232 -0.03708,0.676779 v 0 0.426463 q 0,0.319847 -0.143699,0.727768 -0.139064,0.407922 -0.421828,0.407922 v 0 q -0.250315,0 -0.394015,-0.38938 -0.139064,-0.394015 -0.282763,-1.066158 v 0 q -0.1437,-0.74631 -0.852926,-1.191315 -0.709227,-0.445005 -2.415079,-0.445005 v 0 h -3.587851 q -0.783394,0 -1.172774,0.213232 -0.389379,0.213231 -0.495995,1.066157 -0.106616,0.852927 -0.106616,2.804459 v 0 13.962031 q 0,1.279389 0.746311,1.900542 0.74631,0.621153 2.058146,0.871468 v 0 q 0.602611,0.106616 0.89001,0.24568 0.282763,0.143699 0.282763,0.389379 v 0 q 0,0.213232 -0.282763,0.305941 -0.287399,0.08807 -0.746311,0.08807 v 0 q -0.95954,0 -1.580692,-0.05563 -0.621153,-0.05099 -1.191316,-0.08807 -0.565527,-0.03708 -1.386005,-0.03708 v 0 q -0.885374,0 -1.543611,0.03708 -0.658236,0.03708 -1.348921,0.08807 -0.695321,0.05563 -1.654863,0.05563 z M 33.02636,66.27446 v 0 q -0.53774,0 -0.53774,-0.293313 v 0 q 0,-0.240936 0.618052,-0.426003 v 0 q 0.398068,-0.136181 0.761217,-0.349182 0.359658,-0.213001 0.387593,-0.750742 v 0 -13.405107 q 0,-0.722808 -0.240936,-1.271024 -0.240936,-0.548216 -0.935808,-0.652971 v 0 q -0.240936,-0.05587 -0.240936,-0.377117 v 0 q 0,-0.240936 0.213001,-0.321247 v 0 q 0.377117,-0.13269 0.897398,-0.293313 0.520282,-0.160625 1.082466,-0.359658 0.562183,-0.202526 0.991677,-0.387593 v 0 q 0.104755,-0.05587 0.160624,-0.05587 v 0 q 0.08031,0 0.132689,0.05587 0.05238,0.05238 0.05238,0.13269 v 0 q 0,0.160623 -0.06634,0.453936 -0.06634,0.293314 -0.118722,1.016121 -0.05587,0.722807 -0.05587,2.168422 v 0 4.6546 q 0,0.429494 0.0419,0.618052 0.03841,0.185067 0.146657,0.373626 v 0 q 0.429494,-0.321248 1.058022,-0.708841 0.628528,-0.387592 1.403713,-0.684397 0.775184,-0.293313 1.606238,-0.293313 v 0 q 1.309433,0 2.178897,1.030088 0.869464,1.030087 0.869464,2.608391 v 0 5.618343 q 0,0.537741 0.349183,0.789152 0.349182,0.254903 0.750741,0.391084 v 0 q 0.293313,0.08031 0.453938,0.1711 0.160625,0.09428 0.160625,0.254903 v 0 q 0,0.293313 -0.534249,0.293313 v 0 q -0.537741,0 -0.817086,-0.03841 -0.282838,-0.0419 -0.534249,-0.06634 -0.254903,-0.02793 -0.736775,-0.02793 v 0 q -0.453937,0 -0.722807,0.02793 -0.268871,0.02444 -0.548216,0.06634 -0.282838,0.03841 -0.817087,0.03841 v 0 q -0.534249,0 -0.534249,-0.293313 v 0 q 0,-0.185067 0.160624,-0.254903 0.160624,-0.06634 0.453937,-0.1711 v 0 q 0.40156,-0.136181 0.722808,-0.391084 0.321247,-0.251411 0.321247,-0.789152 v 0 -5.457719 q 0,-0.666938 -0.387592,-1.215154 -0.387593,-0.551708 -0.949776,-0.872956 -0.562184,-0.317756 -1.152302,-0.317756 v 0 q -0.506314,0 -1.176744,0.146657 -0.666938,0.146657 -1.044055,0.43997 v 0 q -0.426002,0.349182 -0.572659,0.722807 -0.150148,0.373625 -0.150148,1.204679 v 0 5.429784 q 0.02793,0.537741 0.335215,0.750742 0.30728,0.213001 0.70884,0.349182 v 0 q 0.296805,0.08031 0.443461,0.1711 0.146657,0.09428 0.146657,0.254903 v 0 q 0,0.293313 -0.534249,0.293313 v 0 q -0.537741,0 -0.803119,-0.03841 -0.268871,-0.0419 -0.509806,-0.06634 -0.240936,-0.02793 -0.722808,-0.02793 v 0 q -0.453937,0 -0.733282,0.02793 -0.282838,0.02444 -0.590119,0.06634 -0.30728,0.03841 -0.841529,0.03841 z m -3.301357,21.056861 v 0 q -0.05929,0 -0.170454,-0.255678 -0.114871,-0.255684 -0.229743,-0.537302 v 0 L 23.192152,71.145564 q -0.340908,-0.737401 -0.822627,-1.204298 -0.481719,-0.470602 -1.21912,-0.666995 v 0 q -0.45578,-0.144516 -0.69664,-0.285326 -0.240859,-0.14081 -0.240859,-0.340909 v 0 q 0,-0.170454 0.226037,-0.240859 0.226038,-0.07041 0.596591,-0.07041 v 0 q 0.652173,0 1.233941,0.04076 0.581769,0.04447 1.293231,0.04447 v 0 q 0.792983,0 1.504445,-0.02964 0.711462,-0.02964 1.137598,-0.02964 v 0 q 0.366848,0 0.592885,0.07041 0.229743,0.07411 0.229743,0.244565 v 0 q 0,0.196393 -0.229743,0.311265 -0.226037,0.114871 -0.707756,0.255681 v 0 q -0.340909,0.08523 -0.45578,0.355731 -0.111166,0.266798 -0.111166,0.581768 v 0 q 0,0.452075 0.111166,0.83745 0.114871,0.38167 0.114871,0.38167 v 0 q 0.652174,1.648961 1.193181,3.008891 0.537302,1.363635 1.063487,2.627221 0.526186,1.263586 1.107954,2.586462 0.581769,1.319166 1.29323,2.938484 v 0 q 0.14081,0.311267 0.24086,0.281623 0.100049,-0.02596 0.185276,-0.255683 v 0 l 2.212203,-5.48048 q 0.08523,-0.226038 0.129693,-0.38167 0.04076,-0.155633 0.04076,-0.270504 v 0 q 0,-0.170454 -0.05558,-0.355731 -0.05558,-0.181571 -0.170454,-0.466896 v 0 l -1.619316,-4.031619 q -0.366848,-0.907856 -1.163537,-1.519268 -0.796689,-0.611413 -1.53409,-0.807806 v 0 q -0.452075,-0.144516 -0.69664,-0.285326 -0.240859,-0.14081 -0.240859,-0.340909 v 0 q 0,-0.170454 0.229743,-0.240859 0.226037,-0.07041 0.59659,-0.07041 v 0 q 0.452075,0 0.863388,0.02594 0.411314,0.02964 0.852273,0.04447 0.440958,0.01482 0.952321,0.01482 v 0 q 0.652174,0 1.204298,-0.02964 0.55583,-0.02964 0.981965,-0.02964 v 0 q 0.366848,0 0.596591,0.07041 0.226037,0.07411 0.226037,0.244565 v 0 q 0,0.226037 -0.285326,0.366848 -0.28162,0.144515 -0.581768,0.314969 -0.296443,0.166749 -0.296443,0.507658 v 0 q 0,0.05929 0.01483,0.114872 0.01482,0.05558 0.04076,0.114871 v 0 q 0.05929,0.111166 0.214921,0.552124 0.155633,0.440958 0.366848,0.981966 0.21492,0.537302 0.411314,1.007904 0.200098,0.466897 0.285326,0.666996 v 0 q 0.14081,0.340909 0.240859,0.352026 0.100049,0.01482 0.270504,-0.352026 v 0 q 0.226037,-0.511363 0.466897,-1.167242 0.244565,-0.652174 0.426136,-1.233942 0.185276,-0.581769 0.244565,-0.807806 v 0 q 0.02594,-0.08523 0.02594,-0.200098 v 0 q 0,-0.340909 -0.255682,-0.511364 -0.255681,-0.170454 -0.526185,-0.326087 -0.266798,-0.155632 -0.266798,-0.381669 v 0 q 0,-0.170455 0.226037,-0.244565 0.226038,-0.07041 0.596591,-0.07041 v 0 q 0.622529,0 0.852272,0.02964 0.226037,0.02964 0.622529,0.02964 v 0 q 0.485425,0 0.826333,-0.04447 0.340909,-0.04076 0.848567,-0.04076 v 0 q 0.370553,0 0.596591,0.07041 0.229742,0.07041 0.229742,0.240859 v 0 q 0,0.200099 -0.229742,0.326087 -0.226038,0.129693 -0.707757,0.240859 v 0 q -0.907855,0.200099 -1.237648,0.481719 -0.326086,0.285327 -0.692933,0.881917 v 0 q -0.144516,0.255681 -0.411314,0.852272 -0.270504,0.59659 -0.570653,1.304347 -0.296442,0.711462 -0.522479,1.337696 v 0 q -0.08523,0.196393 -0.159338,0.566947 -0.07041,0.366847 -0.01112,0.511363 v 0 l 2.923664,7.52223 q 0.05558,0.144515 0.14081,0.08523 0.08523,-0.05558 0.170454,-0.255683 v 0 q 0.711462,-1.871292 1.604495,-4.798663 0.896739,-2.923664 1.860177,-6.188237 v 0 q 0.08523,-0.255682 0.129693,-0.526185 0.04076,-0.270504 0.04076,-0.496541 v 0 q 0,-0.426137 -0.185276,-0.767045 Q 41.790219,69.38545 41.3085,69.274284 v 0 q -0.28162,-0.08523 -0.611412,-0.229743 -0.326087,-0.14081 -0.326087,-0.340909 v 0 q 0,-0.170454 0.229743,-0.240859 0.226037,-0.07041 0.592885,-0.07041 v 0 q 0.570652,0 1.037548,0.01482 0.470603,0.01482 1.007905,0.01482 v 0 q 0.711462,0 1.363635,-0.04447 0.652174,-0.04076 1.193181,-0.04076 v 0 q 0.366848,0 0.596591,0.07041 0.226037,0.07041 0.226037,0.240859 v 0 q 0,0.200099 -0.226037,0.326087 -0.229743,0.129693 -0.711462,0.240859 v 0 q -0.681818,0.144516 -1.148715,0.581769 -0.470602,0.440958 -0.7374,0.967143 -0.270504,0.526186 -0.440959,0.952322 v 0 l -5.024707,14.848054 q -0.02964,0.114872 -0.170454,0.385379 -0.144516,0.266795 -0.285326,0.266795 v 0 q -0.114871,0 -0.255681,-0.170451 -0.140811,-0.170456 -0.226038,-0.366851 v 0 q -0.741106,-1.704541 -1.278408,-3.053356 -0.541008,-1.348814 -1.037548,-2.712449 -0.496542,-1.363634 -1.17836,-3.008891 v 0 q -0.08523,-0.200098 -0.14081,-0.155632 -0.05929,0.04076 -0.170454,0.326087 v 0 q -0.681818,1.619317 -1.178359,2.86808 -0.496541,1.248763 -0.981965,2.541994 -0.48172,1.289527 -1.07831,2.968132 v 0 q -0.111166,0.281619 -0.281621,0.58177 -0.170454,0.296438 -0.340909,0.296438 z m 18.283801,-0.02962 v 0 q -1.560028,0 -2.727271,-0.763336 -1.163536,-0.767045 -1.81571,-2.175147 -0.652173,-1.404399 -0.652173,-3.249751 v 0 q 0,-1.648961 0.752223,-2.997775 0.752223,-1.345108 2.000986,-2.171441 1.248764,-0.822628 2.727271,-0.822628 v 0 q 1.133892,0 2.015809,0.45578 0.878211,0.452075 1.374752,1.263586 0.496542,0.807806 0.496542,1.860175 v 0 q 0,0.878213 -0.848568,0.878213 v 0 h -5.991843 q -0.400197,0 -0.555829,0.214919 -0.155633,0.211215 -0.155633,0.837453 v 0 q 0,1.359926 0.596591,2.482706 0.59659,1.122775 1.589672,1.789768 0.993082,0.666998 2.186264,0.666998 v 0 q 0.852272,0 1.548912,-0.326087 0.696639,-0.326087 1.233943,-0.952324 v 0 q 0.114871,-0.140807 0.170454,-0.185275 0.05558,-0.04075 0.14081,-0.04075 v 0 q 0.229743,0 0.229743,0.281623 v 0 q 0,0.541006 -0.511363,1.193179 v 0 q -0.426138,0.541005 -1.022728,0.9375 -0.596591,0.39649 -1.308053,0.611414 -0.707756,0.211215 -1.474801,0.211215 z m -2.612399,-8.60056 v 0 h 2.582755 q 0.681818,0 1.163537,-0.02967 0.485424,-0.02967 0.937499,-0.114871 v 0 q 0.144516,-0.02596 0.185277,-0.185275 0.04447,-0.155632 0.04447,-0.437253 v 0 q 0,-0.826333 -0.726284,-1.408102 -0.722579,-0.581768 -1.715661,-0.581768 v 0 q -0.655879,0 -1.308052,0.385375 -0.652174,0.38167 -1.07831,0.948616 -0.426136,0.570652 -0.426136,1.1376 v 0 q 0,0.285322 0.340909,0.285322 z m 10.960962,8.574602 v 0 q -0.511363,0 -1.037549,-0.400199 -0.526185,-0.39649 -0.878211,-0.96344 -0.35573,-0.566946 -0.35573,-1.078307 v 0 q 0,-0.907857 0.481718,-1.419219 0.48172,-0.511361 1.53409,-0.9375 v 0 l 2.897725,-1.193179 q 0.566945,-0.226039 0.666997,-0.396495 0.09634,-0.17045 0.125988,-0.741104 v 0 l 0.05558,-1.815711 q 0.02967,-0.7374 -0.411314,-1.278408 -0.437254,-0.537302 -1.263587,-0.537302 v 0 q -0.426134,0 -0.852273,0.14081 -0.426133,0.140811 -0.707757,0.366848 v 0 q -0.170451,0.114872 -0.226034,0.340909 -0.05929,0.229743 -0.05929,0.485425 v 0 q 0,0.111165 0.01482,0.255681 0.01482,0.14081 0.01482,0.255682 v 0 q 0,0.140808 -0.355731,0.381667 -0.355731,0.240864 -0.792983,0.426139 -0.440959,0.185275 -0.726285,0.185275 v 0 q -0.14081,0 -0.226037,-0.0704 -0.08523,-0.0704 -0.08523,-0.185275 v 0 q 0,-0.455782 0.296442,-0.981967 0.300148,-0.52248 0.837451,-0.97826 v 0 q 0.655878,-0.596591 1.419219,-1.048666 0.767045,-0.45578 1.508149,-0.711462 0.737401,-0.255681 1.304347,-0.255681 v 0 q 1.022728,0 1.689721,0.722578 0.666998,0.726284 0.637354,1.804594 v 0 l -0.140812,6.81447 q -0.02967,0.596589 0.270503,0.967144 0.296443,0.366846 0.752225,0.366846 v 0 q 0.711461,0 1.052372,-0.311262 v 0 q 0.140807,-0.140812 0.226035,-0.140812 v 0 q 0.140811,0 0.226039,0.08523 0.08523,0.08523 0.08523,0.226039 v 0 q 0,0.311263 -0.311267,0.626234 v 0 q -0.455778,0.452074 -0.981964,0.722576 -0.522482,0.270508 -0.97826,0.270508 v 0 q -1.304347,0 -2.071392,-1.478511 v 0 h -0.08523 q -0.937501,0.767045 -1.789773,1.122776 -0.852273,0.355735 -1.760127,0.355735 z m 1.333992,-1.363639 v 0 q 0.566946,0 0.967144,-0.185275 0.396491,-0.185275 0.707758,-0.496542 v 0 q 0.140807,-0.140807 0.240859,-0.381671 0.100047,-0.244563 0.129691,-0.781864 v 0 l 0.05558,-1.393278 q 0.02962,-0.311268 -0.02967,-0.452075 -0.05558,-0.14452 -0.22604,-0.14452 v 0 q -0.05558,0 -0.200099,0.02962 -0.140807,0.02967 -0.366846,0.114872 v 0 q -1.504446,0.537301 -2.086212,1.119071 -0.58177,0.585474 -0.58177,1.067192 v 0 q 0,0.737401 0.43725,1.119071 0.440959,0.385375 0.952325,0.385375 z"
     class="f-accent" />
  <path
     d="m 0.240626,39.96298 c 0.1851,-0.592308 0.382532,-1.172278 0.592308,-1.739906 H 0 v -0.203608 h 1.110578 v 0.12956 c -0.259134,0.641668 -0.46891,1.246318 -0.629328,1.813946 z m 1.96202,-1.05505 V 0 h 0.222116 v 38.90793 z m 0.444232,0 V 0 H 2.868994 V 38.90793 Z M 3.774132,37.797352 V 0 h 0.222116 v 37.797352 z m 0.44423,0 V 0 h 0.888464 v 37.797352 z m 0.14808,2.184136 c -0.19744,0 -0.345514,-0.0802 -0.444232,-0.240622 -0.11106,-0.16042 -0.16658,-0.382534 -0.16658,-0.66635 0,-0.234454 0.03084,-0.431888 0.09254,-0.592308 0.04936,-0.16042 0.12956,-0.277642 0.240626,-0.351682 0.09872,-0.08638 0.215944,-0.12956 0.351682,-0.12956 0.16042,0 0.302324,0.05552 0.425722,0.16658 l -0.14808,0.1851 -0.0186,-0.0184 c 0,-0.0124 -0.0062,-0.03086 -0.0186,-0.05552 -0.0124,-0.0124 -0.03084,-0.0247 -0.05552,-0.03702 -0.03702,-0.03702 -0.09254,-0.05552 -0.16658,-0.05552 -0.07404,0 -0.14808,0.0247 -0.222116,0.07404 -0.0617,0.03702 -0.1234,0.11106 -0.1851,0.222116 -0.04936,0.11106 -0.07404,0.265306 -0.07404,0.46274 0.03702,-0.07404 0.09254,-0.13574 0.16658,-0.1851 0.07404,-0.03702 0.15424,-0.05552 0.240624,-0.05552 0.09872,0 0.1851,0.0247 0.259136,0.07404 0.08638,0.0617 0.15424,0.1419 0.203606,0.240626 0.04936,0.08638 0.07404,0.19126 0.07404,0.314662 0,0.13574 -0.02468,0.252968 -0.07404,0.351686 -0.04936,0.08638 -0.11722,0.16042 -0.203606,0.222116 -0.08638,0.04936 -0.17892,0.07404 -0.277646,0.07404 z m 0,-0.1851 c 0.09872,0 0.17892,-0.04318 0.240624,-0.12956 0.0617,-0.07404 0.09254,-0.17892 0.09254,-0.314662 0,-0.09872 -0.0124,-0.1851 -0.03702,-0.259136 -0.03702,-0.0617 -0.0802,-0.11106 -0.12956,-0.14808 -0.04936,-0.03702 -0.10488,-0.05552 -0.16658,-0.05552 -0.07404,0 -0.1419,0.0247 -0.203606,0.07404 -0.07404,0.04936 -0.12956,0.11106 -0.16658,0.1851 -0.0124,0.03702 -0.0186,0.06786 -0.0186,0.09254 0,0.08638 0.0186,0.17276 0.05554,0.259134 0.02468,0.08638 0.06786,0.15424 0.12956,0.203608 0.0617,0.0617 0.12956,0.09254 0.203606,0.09254 z M 5.993456,37.797346 V 0 h 0.46274 v 37.797352 z m 0.888462,0 V 0 h 0.46274 v 37.797352 z m -0.370194,0.481252 -0.40721,0.12956 -0.03702,-0.12956 0.49976,-0.259138 h 0.14808 v 1.94352 H 6.511722 Z M 8.49042,37.797352 V 0 h 0.42572 v 37.797352 z m 0.888462,0 V 0 h 0.203606 v 37.797352 z m -0.629328,0.481252 -0.407212,0.12956 -0.03702,-0.12956 0.49976,-0.259138 h 0.14808 V 39.96298 H 8.749556 Z m 1.719562,-0.481252 V 0 h 0.46274 v 37.797352 z m 0.888462,0 V 0 h 0.462742 v 37.797352 z m -0.370192,0.481252 -0.407212,0.12956 -0.03702,-0.12956 0.49976,-0.259138 h 0.14808 v 1.943514 h -0.203606 z m 2.1823,-0.481252 V 0 h 0.444234 v 37.797352 z m 0.66635,0 V 0 h 0.222114 v 37.797352 z m -0.55529,0.203606 c 0.1851,0 0.333174,0.09254 0.444234,0.277646 0.09872,0.17276 0.14808,0.413382 0.14808,0.721874 0,0.320834 -0.04936,0.567628 -0.14808,0.740388 C 13.62626,39.91362 13.478182,40 13.280746,40 c -0.19744,0 -0.345514,-0.08638 -0.44423,-0.259134 -0.09872,-0.17276 -0.14808,-0.419554 -0.14808,-0.740388 0,-0.308492 0.04936,-0.549118 0.14808,-0.721874 0.11106,-0.1851 0.259136,-0.277646 0.44423,-0.277646 z m 0,0.203608 c -0.1234,0 -0.215946,0.06786 -0.277642,0.203606 -0.0617,0.14808 -0.09254,0.34551 -0.09254,0.592306 0,0.13574 0.0062,0.252966 0.0184,0.351686 l 0.666348,-0.851444 c -0.03702,-0.09872 -0.0802,-0.17276 -0.12956,-0.222116 -0.04936,-0.04936 -0.11106,-0.07404 -0.1851,-0.07404 z m 0,1.591828 c 0.1234,0 0.215948,-0.06786 0.277646,-0.203608 0.0617,-0.13574 0.09254,-0.33317 0.09254,-0.592308 0,-0.1234 -0.0062,-0.228284 -0.0184,-0.314664 l -0.647838,0.832936 c 0.0617,0.1851 0.16042,0.277644 0.296152,0.277644 z m 1.682542,-1.999042 V 0 h 0.222114 v 37.797352 z m 0.666348,0 V 0 h 0.666348 v 37.797352 z m -0.11106,0.203606 c 0.1851,0 0.333174,0.09254 0.444234,0.277646 0.09872,0.17276 0.14808,0.413382 0.14808,0.721874 0,0.320834 -0.04936,0.567628 -0.14808,0.740388 C 15.86409,39.91362 15.716014,40 15.518576,40 c -0.19744,0 -0.34551,-0.08638 -0.44423,-0.259134 -0.09872,-0.17276 -0.14808,-0.419554 -0.14808,-0.740388 0,-0.308492 0.04936,-0.549118 0.14808,-0.721874 0.11106,-0.1851 0.259136,-0.277646 0.44423,-0.277646 z m 0,0.203608 c -0.1234,0 -0.215942,0.06786 -0.277642,0.203606 -0.0617,0.14808 -0.09254,0.34551 -0.09254,0.592306 0,0.13574 0.0062,0.252966 0.0184,0.351686 L 15.83314,38.50072 c -0.03702,-0.09872 -0.0802,-0.17276 -0.12956,-0.222116 -0.04936,-0.04936 -0.11106,-0.07404 -0.1851,-0.07404 z m 0,1.591828 c 0.1234,0 0.215946,-0.06786 0.277646,-0.203608 0.0617,-0.13574 0.09254,-0.33317 0.09254,-0.592308 0,-0.1234 -0.0062,-0.228284 -0.0184,-0.314664 l -0.647836,0.832936 c 0.0617,0.1851 0.16042,0.277644 0.296154,0.277644 z M 16.518098,38.90793 V 0 h 0.222116 v 38.90793 z m 0.44423,0 V 0 h 0.222116 v 38.90793 z m 1.127256,-1.110578 V 0 h 0.222114 v 37.797352 z m 1.110578,0 V 0 h 0.222114 V 37.797352 Z M 18.829968,40 c -0.09872,0 -0.19744,-0.0247 -0.296154,-0.07404 -0.08638,-0.03702 -0.16042,-0.08638 -0.222116,-0.14808 l 0.12956,-0.1851 0.0184,-0.0184 0.0184,0.0184 c 0.0124,0.0247 0.0186,0.0432 0.0186,0.05554 0.0124,0.0124 0.0247,0.03086 0.03702,0.05552 0.04936,0.0247 0.09254,0.04936 0.12956,0.07404 0.04936,0.0124 0.10488,0.0184 0.16658,0.0184 0.1234,0 0.215948,-0.03086 0.277646,-0.09256 0.0617,-0.07404 0.09254,-0.17276 0.09254,-0.296154 0,-0.1234 -0.0432,-0.215942 -0.12956,-0.277642 -0.07404,-0.0617 -0.17892,-0.09254 -0.314666,-0.09254 h -0.11106 v -0.16658 c 0.1851,0 0.314662,-0.03702 0.388702,-0.11106 0.0617,-0.07404 0.09254,-0.16658 0.09254,-0.277642 0,-0.08638 -0.0247,-0.15424 -0.07404,-0.203608 -0.04936,-0.0617 -0.11722,-0.09254 -0.203608,-0.09254 -0.13574,0 -0.252962,0.04936 -0.351682,0.14808 l -0.12956,-0.12956 c 0.1234,-0.13574 0.283814,-0.203602 0.481248,-0.203602 0.16042,0 0.283816,0.04318 0.370194,0.12956 0.08638,0.09872 0.12956,0.215944 0.12956,0.351684 0,0.11106 -0.0247,0.203606 -0.07404,0.277642 -0.04936,0.08638 -0.1234,0.1419 -0.222114,0.16658 0.11106,0.03702 0.19744,0.09872 0.259134,0.1851 0.07404,0.08638 0.11106,0.19126 0.11106,0.314662 0,0.09872 -0.0247,0.19126 -0.07404,0.277642 -0.04936,0.08638 -0.11722,0.15424 -0.203606,0.203608 -0.08638,0.0617 -0.19126,0.09254 -0.314664,0.09254 z m 1.497446,-2.202648 V 0 h 0.222114 v 37.797352 z m 0.666344,0 V 0 h 0.666348 V 37.797352 Z M 21.104818,40 c -0.1234,0 -0.234456,-0.03086 -0.333174,-0.09254 -0.09872,-0.04936 -0.17892,-0.1234 -0.240624,-0.222118 l 0.203608,-0.14808 v 0.0184 c 0,0.0247 0.0062,0.04318 0.0184,0.05552 0,0.0124 0.0124,0.03086 0.03702,0.05552 0.03702,0.04936 0.0802,0.0802 0.12956,0.09256 0.0617,0.0247 0.12956,0.03702 0.203606,0.03702 0.0617,0 0.1234,-0.0184 0.1851,-0.05554 0.04936,-0.03702 0.09254,-0.09254 0.12956,-0.16658 0.03702,-0.0617 0.05552,-0.1419 0.05552,-0.240624 0,-0.13574 -0.03702,-0.246794 -0.11106,-0.333174 -0.07404,-0.08638 -0.17276,-0.12956 -0.296156,-0.12956 -0.0617,0 -0.1234,0.0184 -0.1851,0.05552 -0.0617,0.03702 -0.11722,0.0802 -0.16658,0.12956 l -0.14808,-0.05552 0.07404,-0.98101 h 0.98101 v 0.203606 h -0.795912 l -0.03702,0.55529 c 0.09872,-0.04936 0.203608,-0.07404 0.314662,-0.07404 0.11106,0 0.209776,0.0247 0.296156,0.07404 0.09872,0.04936 0.17276,0.1234 0.222114,0.222114 0.04936,0.09872 0.07404,0.215946 0.07404,0.351682 0,0.1234 -0.03086,0.234456 -0.09254,0.333174 -0.04936,0.09872 -0.11722,0.17276 -0.203606,0.222116 -0.09872,0.0617 -0.203608,0.09254 -0.314664,0.09254 z m 1.46043,-2.202648 V 0 h 0.222114 v 37.797352 z m 0.44423,0 V 0 h 0.222114 v 37.797352 z m 0.370194,2.184136 c -0.19744,0 -0.345516,-0.0802 -0.444234,-0.240622 -0.11106,-0.16042 -0.16658,-0.382534 -0.16658,-0.66635 0,-0.234454 0.03086,-0.431888 0.09256,-0.592308 0.04936,-0.16042 0.12956,-0.277642 0.240622,-0.351682 0.09872,-0.08638 0.215948,-0.12956 0.351682,-0.12956 0.16042,0 0.302328,0.05552 0.425722,0.16658 l -0.14808,0.1851 -0.0184,-0.0184 c 0,-0.0124 -0.0062,-0.03086 -0.0184,-0.05552 -0.0124,-0.0124 -0.03086,-0.0247 -0.05552,-0.03702 -0.03702,-0.03702 -0.09256,-0.05552 -0.16658,-0.05552 -0.07404,0 -0.14808,0.0247 -0.222118,0.07404 -0.0617,0.03702 -0.1234,0.11106 -0.1851,0.22212 -0.04936,0.11106 -0.07404,0.265302 -0.07404,0.462736 0.03702,-0.07404 0.09254,-0.13574 0.16658,-0.1851 0.07404,-0.03702 0.15424,-0.05552 0.240626,-0.05552 0.09872,0 0.1851,0.0247 0.259136,0.07404 0.08638,0.0617 0.15424,0.1419 0.203606,0.240626 0.04936,0.08638 0.07404,0.19126 0.07404,0.314662 0,0.13574 -0.0247,0.252968 -0.07404,0.351686 -0.04936,0.08638 -0.11722,0.16042 -0.203606,0.222116 -0.08638,0.04936 -0.17892,0.07404 -0.277648,0.07404 z m 0,-0.1851 c 0.09872,0 0.17892,-0.04318 0.240622,-0.12956 0.0617,-0.07404 0.09254,-0.17892 0.09254,-0.314662 0,-0.09872 -0.0124,-0.1851 -0.03702,-0.259136 -0.03702,-0.0617 -0.0802,-0.11106 -0.12956,-0.14808 -0.04936,-0.03702 -0.10488,-0.05552 -0.16658,-0.05552 -0.07404,0 -0.1419,0.0247 -0.203604,0.07404 -0.07404,0.04936 -0.12956,0.11106 -0.16658,0.1851 -0.0124,0.03702 -0.0184,0.06786 -0.0184,0.09254 0,0.08638 0.0184,0.17276 0.05552,0.259134 0.0247,0.08638 0.06786,0.15424 0.12956,0.203608 0.0617,0.0617 0.12956,0.09254 0.203606,0.09254 z m 1.441916,-1.999042 V 0 h 0.203604 v 37.797352 z m 0.88846,0 V 0 h 0.203608 v 37.797352 z m -0.425722,2.165628 c 0.1851,-0.592308 0.382534,-1.172278 0.59231,-1.739906 H 25.043704 V 38.01946 h 1.110578 v 0.12956 c -0.259134,0.641668 -0.468914,1.246318 -0.629328,1.813946 z m 1.775092,-2.165628 V 0 h 0.222116 v 37.797352 z m 0.44423,0 V 0 h 0.666348 v 37.797352 z m 0.536782,1.684378 h -0.832936 v -0.16658 l 0.888464,-1.295678 h 0.1851 v 1.277166 h 0.240628 v 0.1851 h -0.240628 v 0.48125 h -0.240622 z m 0,-0.1851 v -0.88846 l -0.573802,0.88846 z m 1.256818,-1.49928 V 0 h 0.66635 v 37.797352 z m 0.888464,0 V 0 h 0.222114 v 37.797352 z m -0.12956,0.203606 c 0.1234,0 0.234456,0.03702 0.333174,0.11106 0.08638,0.07404 0.15424,0.17276 0.203604,0.296154 0.04936,0.1234 0.07404,0.265302 0.07404,0.425722 0,0.38253 -0.05552,0.666344 -0.16658,0.85144 -0.1234,0.19744 -0.289982,0.296154 -0.49976,0.296154 -0.1851,0 -0.339344,-0.05552 -0.462738,-0.16658 l 0.16658,-0.1851 0.0184,0.0184 v 0.05552 c 0.0124,0.0124 0.03086,0.0247 0.05552,0.03702 0.0617,0.03702 0.12956,0.05554 0.203606,0.05554 0.14808,0 0.259134,-0.06788 0.33317,-0.203608 0.07404,-0.13574 0.11724,-0.308494 0.12956,-0.518268 -0.04936,0.04936 -0.10488,0.08638 -0.16658,0.11106 -0.0617,0.0247 -0.12956,0.03702 -0.203606,0.03702 -0.11106,0 -0.209776,-0.0247 -0.296154,-0.07404 -0.08638,-0.04936 -0.15424,-0.11722 -0.203608,-0.203606 -0.04936,-0.08638 -0.07404,-0.19126 -0.07404,-0.314662 0,-0.11106 0.0247,-0.215948 0.07404,-0.314666 0.04936,-0.09872 0.11722,-0.17276 0.203608,-0.222116 0.08638,-0.0617 0.17892,-0.09254 0.277642,-0.09254 z m 0.0186,1.03654 c 0.08638,0 0.16042,-0.0124 0.222114,-0.03702 0.0617,-0.0247 0.11106,-0.06786 0.14808,-0.12956 0,-0.222114 -0.03086,-0.388702 -0.09254,-0.49976 -0.0617,-0.11106 -0.15424,-0.16658 -0.277642,-0.16658 -0.11106,0 -0.19744,0.03702 -0.259136,0.11106 -0.0617,0.07404 -0.09254,0.17892 -0.09254,0.314666 0,0.1234 0.03086,0.222114 0.09254,0.29615 0.07404,0.07404 0.16042,0.11106 0.259136,0.11106 z m 0.777402,-0.12956 V 0 h 0.22212 v 38.90793 z m 0.444234,0 V 0 h 0.222116 v 38.90793 z m 0.351682,0.666348 1.07356,-0.610816 -1.07356,-0.55529 v -0.222118 l 1.31418,0.703368 v 0.14808 l -1.31418,0.777404 z"
     id="text1"
     aria-label="7611100356749"
     class="f-accent" />
  <path
     id="path1-4"
     style="stroke-width:0.999998"
     d="m 73.595549,67.02311 v 0 l -1.965805,-0.0644 q -1.530323,0 -2.885839,0.174807 v 0 q -0.131872,-0.174807 -0.131872,-0.37108 v 0 l 0.04293,-0.174806 q 0.941501,-0.220808 1.269647,-0.677758 v 0 q 0.239208,-0.349613 0.37108,-0.843365 0.128805,-0.490684 0.128805,-2.830637 v 0 -2.097677 q 0,-1.355517 -0.119605,-1.879935 -0.119604,-0.52442 -0.358813,-0.699226 -0.242276,-0.174807 -0.634823,-0.217742 v 0 l -0.80963,-0.06747 q -0.0644,-0.08587 -0.0644,-0.282143 v 0 l 0.0644,-0.285211 q 1.137775,-0.239209 1.849268,-0.490684 0.708426,-0.251476 1.671395,-0.732961 v 0 q 0.239208,0 0.328145,0.260677 v 0 q -0.263743,1.487387 -0.263743,7.08426 v 0 q 0,1.005903 0.07667,2.217281 0.07667,1.214444 0.20854,1.235912 v 0 q 0.328146,0.0644 1.223645,0.0644 v 0 q 0.0644,0.15334 0.0644,0.349613 0,0.199342 -0.0644,0.328146 z M 71.540807,52.989529 v 0 Q 70.752645,52.443642 70.4245,51.548142 v 0 q 0.263743,-0.306678 0.711492,-0.644023 0.44775,-0.340413 0.775896,-0.472284 v 0 q 0.831097,0.613356 1.070306,1.46592 v 0 q -0.61029,0.788163 -1.441387,1.091774 z m 17.186232,17.704145 v 0 l -3.585067,-0.0644 q -2.358354,0 -3.910141,0.174805 v 0 q -0.110405,-0.13187 -0.110405,-0.37108 v 0 l 0.02146,-0.174806 q 1.508852,-0.242276 1.990336,-0.622556 0.481489,-0.383348 0.631758,-1.25738 v 0 q 0.306679,-1.61926 0.306679,-5.422066 0,-3.802806 -0.08587,-5.311661 -0.08894,-1.508856 -0.22081,-1.879936 v 0 Q 83.21909,55.657257 82.433997,55.657257 v 0 q -1.837001,0 -2.864374,0.478417 v 0 l -0.962968,2.404356 q -0.502949,0 -0.742158,-0.174806 v 0 l 0.349609,-3.385725 q 0,-0.242275 0.371084,-0.242275 v 0 l 3.848807,0.153339 h 5.354594 l 4.195356,-0.153339 q 0.395614,0 0.395614,0.242275 v 0 q -0.349614,1.922871 -0.349614,3.517596 v 0 q -0.174805,0.08894 -0.438549,0.08894 -0.260675,0 -0.414014,-0.08894 v 0 q -0.395615,-2.165146 -0.43855,-2.361421 v 0 q -1.091772,-0.478417 -2.993178,-0.478417 v 0 q -0.852563,0 -1.376982,0.107337 v 0 q -0.06747,0.196275 -0.165607,1.815534 -0.09814,1.616193 -0.09814,4.152419 v 0 3.91321 q 0,2.425823 0.349614,4.216822 v 0 q 1.005903,0.153338 2.272485,0.153338 v 0 q 0.06747,0.174807 0.06747,0.383348 0,0.208541 -0.06747,0.294411 z M 59.083707,66.958708 v 0 l -1.837001,-0.0644 q -1.705129,0 -3.082114,0.174806 v 0 q -0.107337,-0.131872 -0.107337,-0.371079 v 0 l 0.02147,-0.174808 q 0.895499,-0.196272 1.211377,-0.601089 0.318946,-0.404813 0.481485,-1.334048 0.165606,-0.929235 0.165606,-6.854252 v 0 -5.593805 q 0,-1.99034 -0.460017,-2.425823 v 0 Q 55.237967,49.471935 54.86382,49.429 v 0 l -0.785097,-0.08894 q -0.06747,-0.107338 -0.06747,-0.272944 0,-0.162539 0.06747,-0.272943 v 0 q 1.55179,-0.282144 2.404355,-0.699226 v 0 q 0.567354,-0.282141 1.288047,-0.763625 v 0 q 0.220808,0 0.349613,0.217742 v 0 q -0.435483,2.7325 -0.435483,10.252243 v 0 q 2.775435,-1.530323 4.43763,-2.033275 v 0 q 1.419918,0 2.140612,1.048837 0.720693,1.048839 0.720693,2.821438 v 0 l -0.04293,2.796903 q 0,3.738402 0.328146,3.793604 0.328145,0.05214 1.291113,0.05214 v 0 q 0.08587,0.153338 0.08587,0.28521 0,0.131872 -0.08587,0.392547 v 0 l -2.011806,-0.0644 q -1.815534,0 -2.88584,0.174807 v 0 q -0.131871,-0.174807 -0.131871,-0.371081 v 0 l 0.046,-0.174807 q 0.8955,-0.196273 1.202178,-0.591888 0.303611,-0.392548 0.358813,-0.938435 0.0552,-0.545885 0.0552,-2.208081 0,-1.662193 -0.01227,-2.067008 -0.0092,-0.401748 -0.0644,-1.048838 -0.0552,-0.644024 -0.196274,-0.984436 -0.141072,-0.337346 -0.36188,-0.708427 v 0 Q 62.122886,57.29836 61.006579,57.29836 v 0 q -1.113241,0 -2.468757,0.895499 v 0 q -0.196274,0.110404 -0.502952,0.315878 -0.306678,0.20854 -0.349613,0.230009 v 0 q -0.02146,1.09484 -0.02146,2.318485 v 0 q 0,5.047919 0.272943,5.136855 0.272944,0.08587 1.146976,0.08587 v 0 q 0.0644,0.153339 0.0644,0.349612 0,0.199341 -0.0644,0.328146 z m 4.854555,3.781339 2.272483,0.02147 2.140612,-0.02147 q 1.09484,0 1.925937,-0.08587 v 0 q 0.107338,0.128804 0.107338,0.414015 v 0 l -0.02147,0.131871 q -0.524419,0.174807 -0.785095,0.567354 v 0 q -0.43855,0.567355 -3.017711,5.290196 v 0 l 2.86437,7.059725 2.557694,-6.470906 q 1.833933,-4.612435 2.076209,-6.20716 v 0 q -0.417082,-0.08587 -1.662195,-0.08587 v 0 q -0.0644,-0.110404 -0.0644,-0.318946 0,-0.205475 0.0644,-0.358812 v 0 q 1.441387,0.0644 2.43809,0.0644 0.993637,0 2.085411,-0.174808 v 0 q 0.110404,0.131873 0.110404,0.371081 v 0 l -0.02146,0.174806 q -0.59189,0.217741 -1.018172,0.656291 -0.426283,0.438549 -1.079507,1.662194 -0.656291,1.223646 -1.005904,2.033276 v 0 l -5.004977,11.868437 h -0.374146 l -3.321323,-8.108563 -3.913209,8.108563 h -0.37109 L 56.329582,75.987306 Q 55.041535,72.708919 54.27484,71.810352 v 0 q -0.349613,-0.392547 -1.530323,-0.699226 v 0 q -0.02147,-0.08587 -0.02147,-0.260676 0,-0.174805 0.110404,-0.28521 v 0 q 1.398451,0.174807 3.014644,0.174807 1.61926,0 3.410259,-0.0644 v 0 q 0.046,0.08587 0.046,0.303611 v 0 l -0.046,0.374148 q -1.26658,0 -1.790999,0.02146 v 0 q 0.131871,1.879936 1.812466,6.271564 v 0 l 2.536226,6.47091 2.950242,-5.946488 -0.874032,-2.183546 q -1.330982,-3.324389 -1.922871,-4.21989 v 0 Q 61.70871,71.396337 60.942015,71.200063 v 0 q -0.02146,-0.046 -0.02146,-0.220809 0,-0.174805 0.08894,-0.325078 v 0 q 1.048838,0.08587 2.928774,0.08587 z m 2.315418,0.613356 -1.726597,0.0644 q 0.08894,1.355516 1.55179,4.80871 v 0 q 1.815534,-4.066549 1.944338,-4.80871 v 0 q -0.981369,-0.0644 -1.769531,-0.0644 z m 13.242352,13.987582 v 0 q 1.791001,0 3.167983,-0.959903 v 0 q 0.30668,0.107335 0.349614,0.456949 v 0 l -2.358354,1.662192 q -0.527485,0.414019 -2.339955,0.414019 -1.815531,0 -3.082111,-1.628461 -1.269646,-1.628462 -1.269646,-4.118688 0,-2.49329 1.38005,-3.934676 1.376984,-1.441385 3.278386,-1.879935 v 0 q 1.659131,0 2.928774,1.11324 v 0 q 0.763628,0.65629 1.070308,1.705128 v 0 q 0.0644,0.263745 0.613354,0.285214 v 0 q 0.128804,0.153335 0.128804,0.315876 0,0.165609 -0.04291,0.340413 v 0 q -3.845737,0.895498 -7.562675,1.245113 v 0 q 0,2.799969 1.551788,4.19842 v 0 q 0.874033,0.785094 2.186616,0.785099 z m 1.376983,-6.667181 v 0 q 0.107339,-0.0644 0.107339,-0.162537 0,-0.09814 -0.272942,-0.613359 -0.272947,-0.512152 -0.950705,-1.091773 -0.677754,-0.579621 -1.419917,-0.579621 -0.742159,0 -1.091773,0.217741 v 0 q -1.226712,0.831096 -1.401518,3.017712 v 0 q 1.180708,0 2.689565,-0.251476 1.508857,-0.251477 2.339951,-0.536687 z m 12.000309,-0.153339 v 0 l -0.06747,5.336198 q 0,1.594722 1.027372,1.594722 v 0 l 0.788159,-0.02146 q 0.08894,0.10734 0.08894,0.349615 v 0 l -0.04601,0.239209 q -1.683661,0.30668 -2.404354,0.895499 v 0 q -0.481489,-0.1288 -0.818831,-0.601083 -0.340412,-0.469217 -0.383347,-0.993635 v 0 q -1.748066,1.070302 -3.474662,1.594722 v 0 q -0.742163,0 -1.530322,-0.840296 -0.788164,-0.8403 -0.788164,-2.109943 v 0 q 0,-0.631758 0.28521,-1.146975 0.28521,-0.512156 0.677759,-0.711496 v 0 q 1.616191,-0.806563 4.808709,-1.419917 v 0 -2.07621 q 0,-1.202178 -0.383347,-1.790999 -0.380281,-0.591889 -0.916967,-0.591889 -0.536687,0 -1.146975,0.187074 -0.613354,0.184007 -0.864831,0.708427 -0.251477,0.524418 -0.251477,1.487387 v 0 q 0,0.08587 -0.294412,0.187072 -0.294407,0.09814 -0.742158,0.09814 -0.447752,0 -0.613359,-0.208542 -0.162537,-0.20854 -0.162537,-0.62256 v 0 q 0,-0.788158 1.134707,-1.705127 v 0 q 0.263745,-0.174807 1.54259,-0.591889 1.278849,-0.414015 1.475124,-0.414015 v 0 q 1.573257,0 2.315415,0.916967 0.745229,0.920036 0.745229,2.251017 z m -5.661278,5.336198 q 0,0.524418 0.414019,1.134708 0.417079,0.613354 0.9507,0.613354 0.536687,0 1.235911,-0.371079 0.699228,-0.37415 1.159242,-0.788164 v 0 q 0.0644,-1.288047 0.0644,-2.971708 v 0 q -1.837002,0.239209 -3.235453,1.048837 v 0 q -0.588824,0.282144 -0.588824,1.334053 z" />
  <path
     id="path1-04"
     style="stroke-width:1"
     d="m 165.74262,8.6676419 -0.11582,0.072655 q -0.45155,-0.539889 -0.45155,-1.0719289 0,-0.5300737 0.24737,-0.9168498 0.24738,-0.3847947 0.80102,-0.6557223 0.55363,-0.2689614 1.25255,-0.2689614 v 0 h 5.97025 q 0.45154,0 0.99929,-0.086326 0.54579,-0.088323 0.76371,-0.1747251 v 0 1.8336689 l -0.14531,-0.013824 V 7.1382634 q 0,-0.3494655 -0.24737,-0.6046948 -0.24738,-0.2552138 -0.5831,-0.2689614 v 0 h -2.76818 V 14.98733 q 0.0157,0.524191 0.46725,0.787269 v 0 q 0.21793,0.115818 0.4653,0.115818 v 0 h 0.19044 v 0.14531 h -3.19029 v -0.14531 h 0.18847 q 0.37891,0 0.64984,-0.261112 0.26896,-0.263079 0.28271,-0.626276 v 0 -8.7384372 h -3.04304 q -1.16618,0 -1.69036,0.7421094 v 0 q -0.27683,0.3789115 -0.27683,0.7931521 0,0.4162068 0.23364,0.8677579 z m 20.36088,7.2228061 v 0 h 0.17474 v 0.14531 h -3.17459 v -0.14531 h 0.18847 q 0.36516,0 0.63414,-0.255229 0.26896,-0.253248 0.29841,-0.63216 v 0 -3.787119 h -5.63649 v 3.800851 q 0,2.039822 -0.98949,2.738738 v 0 q -0.45153,0.320019 -1.16616,0.480997 v 0 l -0.0727,-0.131486 q 0.65572,-0.349465 0.96788,-1.077827 0.31412,-0.728362 0.31412,-2.010375 v 0 -8.1258932 q 0,-0.3789115 -0.27681,-0.6419899 -0.27683,-0.2610969 -0.65574,-0.2610969 v 0 H 176.5346 V 5.8405513 h 3.17457 V 5.987858 h -0.18847 q -0.3789,0 -0.64787,0.2610969 -0.27093,0.2630784 -0.28466,0.6419899 v 0 3.8872382 h 5.63648 V 7.1520571 q 0.0138,-1.8631303 0.83047,-2.5914921 v 0 q 0.49474,-0.4378495 1.33895,-0.6263223 v 0 l 0.0727,0.1296422 q -0.65378,0.3494502 -0.97575,1.077812 -0.32,0.7283771 -0.32,2.0103756 v 0 7.8216025 q 0,0.378896 0.26896,0.647873 0.27093,0.268961 0.66357,0.268961 z m -18.10314,9.370534 -0.14531,0.02949 q -0.0588,-0.188473 -0.0588,-0.327853 0,-0.137476 0.0138,-0.312155 0.0157,-0.174741 0.0668,-0.480997 0.051,-0.306272 0.19633,-0.60468 0.14531,-0.298423 0.33375,-0.575233 0.19044,-0.276826 0.48884,-0.510443 0.29843,-0.231667 0.66359,-0.408358 v 0 q 0.77156,-0.376945 1.87883,-0.376945 v 0 q 2.22829,0 3.63201,1.47832 1.4057,1.478336 1.4057,3.77927 0,2.300918 -1.65895,3.822447 -1.66092,1.521514 -4.20922,1.521514 -2.55027,0 -4.23081,-1.513665 -1.68269,-1.515676 -1.68269,-3.932443 v 0 q 0,-1.558825 0.72836,-2.768184 0.72838,-1.207408 2.08302,-1.892576 v 0 l 0.0863,0.131485 q -0.94629,0.626277 -1.3625,1.804239 -0.41424,1.179913 -0.41424,2.505105 v 0 q 0,2.461911 1.34089,3.84601 1.33894,1.3841 3.4357,1.3841 2.09675,0 3.42981,-1.391949 1.33304,-1.389982 1.33304,-3.663436 v 0 q 0,-1.965216 -1.05623,-3.319854 -1.05623,-1.354638 -2.97825,-1.354638 v 0 q -0.85991,0 -1.55883,0.306257 v 0 q -1.2663,0.537938 -1.67464,1.776743 v 0 q -0.11582,0.363198 -0.11582,0.626276 0,0.263078 0.0295,0.422105 z m 25.15122,9.189972 v 0 q 0.0883,0 0.17472,0 v 0 0.14531 q -0.40639,0.05888 -0.90898,0.05888 -0.5026,0 -1.23881,-0.217919 -0.73426,-0.219885 -1.33305,-0.816715 v 0 q -1.22311,-1.223106 -1.48422,-3.174575 v 0 l -0.88934,-6.480696 -3.02931,6.84586 q -0.40836,0.887389 -0.49473,1.484219 v 0 h -0.14531 l -3.77339,-8.198547 -0.64001,7.238519 q -0.0295,0.247365 0.15315,0.435837 0.18259,0.190439 0.4005,0.190439 v 0 q 0,0 0,0 v 0 h 0.23364 v 0.129642 h -2.82709 v -0.145309 h 0.23363 q 0.39264,0 0.69107,-0.239516 0.30037,-0.241481 0.37301,-0.634125 v 0 l 0.91683,-7.951168 q -1.282,-2.520818 -3.07249,-2.520818 v 0 q -0.16097,0 -0.33571,0.01567 v 0 -0.147306 q 0.39266,-0.100151 0.64002,-0.100151 0.24933,0 0.53989,0.0215 0.29057,0.02166 0.68518,0.137476 0.39265,0.115818 0.74211,0.341601 0.34947,0.225783 0.61253,0.467265 0.26111,0.239515 0.49475,0.53204 v 0 q 0.39264,0.524191 0.62627,1.005172 v 0 l 3.51029,7.601718 3.91669,-8.781631 h 0.13148 l 1.35464,8.620638 q 0.30627,2.039821 1.31734,3.088203 1.01304,1.048381 2.42462,1.048381 z" />
  <path
     id="path1-1"
     d="m 88.892421,90.14265 v 0 q -3.693176,0 -6.604587,-1.68485 Q 79.369686,86.77296 77.684843,83.85481 76,80.9434 76,77.250227 v 0 q 0,-3.639261 1.630928,-6.523713 1.630928,-2.891191 4.495162,-4.576034 2.864234,-1.684843 6.442841,-1.684843 v 0 q 3.322511,0 5.856515,1.475923 2.540743,1.469183 3.989709,4.090799 1.442225,2.621616 1.442225,6.045217 v 0 q 0,0.208921 -0.02696,0.667198 -0.02696,0.451538 -0.134788,1.145694 v 0 H 77.17939 v -1.550056 h 21.451425 l -0.485235,0.377405 q 0.21566,-3.154027 -0.963731,-5.566722 -1.172651,-2.405956 -3.396644,-3.76731 -2.217253,-1.361353 -5.26345,-1.361353 v 0 q -3.214681,0 -5.647594,1.415268 -2.432915,1.415269 -3.794268,3.902097 -1.368093,2.486829 -1.368093,5.8026 v 0 q 0,3.423603 1.422008,5.991303 1.415268,2.5677 3.98297,4.00993 2.567701,1.44896 5.991303,1.44896 v 0 q 2.567701,0 4.731039,-0.96373 2.170078,-0.96373 3.666219,-2.89119 v 0 l 1.125476,1.12548 q -1.664626,1.98137 -4.205369,3.12707 -2.534004,1.15243 -5.533025,1.15243 z m 34.714509,0 v 0 q -3.80101,0 -7.03591,-1.41527 -3.23489,-1.42201 -5.64085,-3.98971 -2.40596,-2.5677 -3.74709,-5.964345 -1.3344,-3.396644 -1.3344,-7.29874 v 0 q 0,-3.956012 1.30744,-7.325699 1.31418,-3.369686 3.72014,-5.883472 2.40595,-2.513786 5.61389,-3.935794 3.20794,-1.415268 7.00895,-1.415268 v 0 q 3.79427,0 7.03591,1.415268 3.23489,1.422008 5.61389,3.935794 2.379,2.513786 3.72014,5.91043 1.33439,3.396644 1.33439,7.352656 v 0 q 0,3.902096 -1.30744,7.29874 -1.31417,3.39664 -3.72013,5.93739 -2.40596,2.54074 -5.58694,3.96275 -3.18772,1.41527 -6.98199,1.41527 z m 20.75053,1.12547 -1.07156,1.06482 -18.9309,-18.930895 1.07156,-1.07156 z M 123.4991,88.48476 v 0 q 4.54908,0 8.12768,-2.24421 3.58535,-2.25095 5.67456,-6.09913 2.08246,-3.854923 2.08246,-8.666835 v 0 q 0,-3.585347 -1.19961,-6.658501 -1.20634,-3.073154 -3.34272,-5.378019 -2.14313,-2.298126 -5.03432,-3.578607 -2.88445,-1.28722 -6.30805,-1.28722 v 0 q -4.54908,0 -8.12768,2.217253 -3.58535,2.223993 -5.6476,6.045218 -2.05551,3.827963 -2.05551,8.639876 v 0 q 0,3.585346 1.19961,6.685457 1.20635,3.100108 3.34273,5.431938 2.14312,2.32508 5.02757,3.60556 2.89119,1.28722 6.26088,1.28722 z m 37.33612,1.65789 v 0 q -3.63926,0 -6.50349,-1.68485 -2.85749,-1.68484 -4.51538,-4.57603 -1.65789,-2.88445 -1.65789,-6.523713 v 0 q 0,-3.639261 1.65789,-6.55067 1.65789,-2.918149 4.48842,-4.629949 2.83728,-1.711801 6.42262,-1.711801 v 0 q 2.83054,0 5.10845,1.044603 2.27117,1.044602 3.79427,2.972063 1.5231,1.920721 2.11616,4.596252 v 0 8.397255 q -0.64698,2.67554 -2.17008,4.62995 -1.5231,1.94768 -3.74035,2.99228 -2.22399,1.04461 -5.00062,1.04461 z m 0.20893,-1.55006 v 0 q 4.60299,0 7.33243,-3.07989 2.72271,-3.07316 2.72271,-8.154643 v 0 q 0,-3.423601 -1.25352,-5.964345 -1.26027,-2.540743 -3.55839,-3.956012 -2.29813,-1.415268 -5.34433,-1.415268 v 0 q -3.21468,0 -5.7015,1.469183 -2.48683,1.469184 -3.92906,4.009927 -1.44222,2.540744 -1.44222,5.8026 v 0 q 0,3.261858 1.44222,5.802598 1.44223,2.54075 3.98297,4.00993 2.54074,1.47592 5.74869,1.47592 z M 172.71,89.61024 h -1.65789 v -6.58437 l 0.4785,-6.092393 -0.4785,-5.937388 V 65.004787 H 172.71 Z M 79.480886,39.16348 H 77.661255 L 92.373307,3 h 1.603971 L 108.5815,39.16348 h -1.87355 L 92.743973,4.50288 h 0.801985 z M 102.48237,27.23479 H 83.814304 v -1.55005 h 18.668066 z m 22.24667,12.4611 v 0 q -3.63253,0 -6.49676,-1.68484 -2.85749,-1.68484 -4.51538,-4.57604 -1.66462,-2.88445 -1.66462,-6.52371 v 0 q 0,-3.63926 1.66462,-6.55067 1.65789,-2.91815 4.48842,-4.62995 2.83728,-1.7118 6.42262,-1.7118 v 0 q 2.83054,0 5.10845,1.0446 2.27117,1.0446 3.79427,2.97206 1.52309,1.92073 2.10942,4.59626 v 0 8.39726 q -0.64024,2.67553 -2.16334,4.62995 -1.5231,1.94768 -3.74035,2.99228 -2.22399,1.0446 -5.00735,1.0446 z m 0.21566,-1.55005 v 0 q 4.60299,0 7.32569,-3.0799 2.72945,-3.07315 2.72945,-8.15464 v 0 q 0,-3.4236 -1.25352,-5.96435 -1.26027,-2.54074 -3.55839,-3.95601 -2.29813,-1.41527 -5.35106,-1.41527 v 0 q -3.20794,0 -5.69477,1.46919 -2.48683,1.46918 -3.92906,4.00992 -1.44896,2.54075 -1.44896,5.80261 v 0 q 0,3.26185 1.44896,5.8026 1.44223,2.54074 3.98297,4.00992 2.54075,1.47593 5.74869,1.47593 z m 11.65911,11.49737 h -1.65788 v -17.0641 l 0.48523,-6.09239 -0.48523,-5.93739 v -5.9913 h 1.65788 z m 22.7319,-10.47973 h -12.29935 v -1.55679 h 12.56893 q 4.38733,0 7.0359,-2.29813 2.64858,-2.29813 2.64858,-6.09913 v 0 q 0,-2.45987 -1.15243,-4.33342 -1.15244,-1.86681 -3.18099,-2.93837 -2.03529,-1.07156 -4.71082,-1.07156 v 0 h -13.20917 v -1.44223 h 12.94633 q 3.5247,0 5.55999,-2.00833 2.03529,-2.00159 2.03529,-5.42519 v 0 q 0,-3.47752 -2.30487,-5.4589 -2.29812,-1.97463 -6.14631,-1.97463 v 0 H 147.03636 V 3 h 12.09043 q 3.10012,0 5.37128,1.07156 2.27791,1.07156 3.53144,3.05294 1.26026,1.97464 1.26026,4.758 v 0 q 0,3.20794 -1.61071,5.42519 -1.60397,2.22399 -4.65017,3.13381 v 0 l 0.26958,-0.64698 q 3.63252,0.8559 5.69477,3.36969 2.0555,2.52053 2.0555,6.04522 v 0 q 0,2.99902 -1.44222,5.24323 -1.44223,2.24421 -4.06384,3.47752 -2.62162,1.2333 -6.20697,1.2333 z m -11.44345,0 h -1.7118 V 3 h 1.7118 z"
     class="f-accent" />
  <path
     id="path1-6"
     d="m 33.45,77.82 v 0 q -3.79,0 -3.79,-3.88 v 0 q 0,-2.58 1.42,-6.37 1.42,-3.8 3.58,-7.81 2.16,-4.01 4.31,-7.58 2.16,-3.58 3.53,-5.74 v 0 q -1.12,-0.08 -2.24,-0.08 -1.12,0 -2.24,0 v 0 q -4.22,0 -8.45,0.13 -4.22,0.13 -8.44,0.47 v 0 Q 16.9,52.82 12.42,58.6 7.94,64.38 3.37,69.98 v 0 h 0.6 q 0.17,0 0.65,0.04 0.47,0.05 0.47,0.39 v 0 q 0,0.34 -0.65,0.56 -0.64,0.22 -1.33,0.26 -0.69,0.04 -0.86,0.04 v 0 q -0.35,0.52 -1.08,1.3 -0.73,0.77 -1.42,0.77 v 0 q -0.52,0 -0.52,-0.6 v 0 q 0,-0.43 0.26,-0.86 Q -0.25,71.44 0,71.1 v 0 Q -2.32,70.75 -4.91,69.63 -7.5,68.51 -9.82,66.75 -12.15,64.98 -13.57,62.69 -15,60.41 -15,57.74 v 0 q 0,-3.11 1.9,-5.26 1.9,-2.16 5.09,-3.58 3.19,-1.42 7.02,-2.28 3.84,-0.87 7.72,-1.3 3.88,-0.43 7.24,-0.6 3.36,-0.17 5.52,-0.17 v 0 q 0.86,-1.3 2.45,-3.58 1.6,-2.28 3.41,-5.09 1.81,-2.8 3.45,-5.69 1.64,-2.88 2.67,-5.34 1.03,-2.46 1.03,-3.92 v 0 q 0,-1.81 -1.25,-2.72 -1.25,-0.9 -2.93,-1.16 -1.68,-0.26 -3.06,-0.26 v 0 q -3.7,0 -8.01,1.03 -4.31,1.04 -8.45,2.68 -4.14,1.63 -7.33,3.53 v 0 q -1.64,0.95 -3.75,2.54 -2.11,1.6 -3.66,3.58 -1.56,1.98 -1.56,4.23 v 0 q 0,2.06 1.3,3.36 1.29,1.29 3.02,2.11 1.72,0.82 3.01,1.25 1.3,0.43 1.3,0.86 v 0 q 0,0.26 -0.35,0.3 -0.34,0.05 -0.43,0.05 v 0 q -0.26,0 -0.52,-0.05 -0.26,-0.04 -0.43,-0.04 v 0 q -1.9,-0.34 -4.44,-1.12 -2.54,-0.78 -4.44,-2.24 -1.89,-1.47 -1.89,-3.88 v 0 q 0,-1.98 1.25,-3.92 1.25,-1.94 3.14,-3.62 1.9,-1.69 3.88,-3.06 1.98,-1.38 3.54,-2.25 v 0 q 3.53,-1.98 7.88,-3.66 4.36,-1.68 8.93,-2.72 4.57,-1.03 8.62,-1.03 v 0 q 2.24,0 4.61,0.52 2.37,0.51 3.96,1.94 1.6,1.42 1.6,4.18 v 0 q 0,1.38 -1.08,3.79 -1.08,2.42 -2.76,5.26 -1.68,2.84 -3.49,5.65 -1.81,2.8 -3.4,5.04 -1.6,2.24 -2.46,3.45 v 0 h 1.98 q 4.66,0 9.31,0.08 4.66,0.09 9.31,0.35 v 0 q 3.8,-5.86 7.8,-11.6 4.01,-5.73 8.24,-11.16 v 0 -0.26 q 0,-0.69 0.43,-1.38 v 0 q 0.52,-0.77 1.98,-2.45 1.47,-1.69 2.16,-2.63 v 0 q 0.17,-0.26 0.34,-0.56 0.17,-0.31 0.43,-0.56 v 0 Q 65.52,13.69 66.99,13.34 68.45,13 69.4,13 v 0 q 0.26,0 0.99,0.13 0.74,0.12 0.74,0.64 v 0 q 0,0.09 -0.18,0.43 v 0 q -1.81,2.16 -3.66,4.23 -1.85,2.07 -3.66,4.31 v 0 q -4.31,5.34 -8.41,10.95 -4.09,5.6 -7.89,11.46 v 0 q 0.26,0 1.3,0.09 1.03,0.08 1.98,0.26 0.95,0.17 0.95,0.43 v 0 q 0,0.34 -0.82,0.56 -0.82,0.21 -1.08,0.21 v 0 q -0.78,0 -1.59,-0.04 -0.82,-0.04 -1.6,-0.13 v 0 q -1.47,2.33 -3.4,5.82 -1.94,3.49 -3.8,7.37 -1.85,3.88 -3.06,7.54 Q 35,70.93 35,73.69 v 0 q 0,0.69 0.26,1.59 0.26,0.91 1.21,0.91 v 0 q 0.78,0 1.51,-0.22 0.73,-0.22 1.42,-0.22 v 0 q 0.09,0 0.39,0 0.3,0 0.3,0.18 v 0 q 0,0.34 -1.42,0.82 -1.42,0.47 -3.06,0.77 -1.64,0.3 -2.16,0.3 z M 1.04,69.72 v 0 q 4.05,-5.69 8.28,-11.29 4.22,-5.61 8.27,-11.3 v 0 q -1.98,0.18 -5.69,0.56 -3.71,0.39 -7.93,1.17 -4.22,0.77 -8.1,2.07 -3.88,1.29 -6.34,3.19 -2.46,1.89 -2.46,4.57 v 0 q 0,2.06 1.51,3.92 1.51,1.85 3.75,3.32 2.24,1.46 4.61,2.41 2.38,0.95 4.1,1.38 z m 49.31,-2.07 v 0 q -4.22,0 -4.22,-4.31 v 0 q 0,-1.81 0.56,-3.71 0.56,-1.89 1.25,-3.53 v 0 q 0.77,-1.9 1.72,-3.71 0.95,-1.81 1.9,-3.62 v 0 q 0.43,-0.77 0.82,-1.59 0.38,-0.82 0.81,-1.6 v 0 q 0.44,-0.6 1.64,-1.03 1.21,-0.43 1.9,-0.43 v 0 q 0.09,0 0,0.04 -0.09,0.04 -0.09,0.04 v 0 q 0,0 0.05,0 0.04,0 0.04,0.09 v 0 q 0.17,-0.17 0.43,-0.17 v 0 q 0.34,0 0.43,0.3 0.09,0.3 0.09,0.56 v 0 q 0,0.6 -0.48,1.81 -0.47,1.21 -1.12,2.28 -0.64,1.08 -1.25,1.34 v 0 q -0.77,1.81 -2.02,3.97 -1.25,2.15 -2.29,4.35 -1.03,2.2 -1.03,4.27 v 0 q 0,2.41 2.58,2.41 v 0 q 1.21,0 2.63,-0.78 1.43,-0.77 2.8,-1.85 1.38,-1.08 2.38,-1.85 0.99,-0.78 1.25,-0.78 v 0 q 0.08,0 0.08,0.04 0,0.05 0,0.05 v 0 q 0,0.34 -0.26,0.73 -0.26,0.39 -0.43,0.56 v 0 q -1.03,1.38 -2.76,2.8 -1.72,1.42 -3.66,2.37 -1.94,0.95 -3.75,0.95 z m 14.05,0 v 0 q -4.22,0 -4.22,-4.31 v 0 q 0,-2.59 1.25,-5.82 1.25,-3.23 2.93,-6.42 1.68,-3.19 2.8,-5.43 v 0 q -1.21,0.08 -2.8,0.39 -1.6,0.3 -2.72,0.3 v 0 Q 61.3,46.36 61,46.23 60.69,46.1 60.69,45.75 v 0 q 0,-0.51 0.52,-0.68 v 0 q 0.61,-0.44 1.25,-0.78 0.65,-0.35 1.25,-0.69 v 0 q 1.73,-1.12 3.32,-2.46 1.6,-1.33 3.06,-2.8 v 0 q 0.35,-0.69 0.65,-1.25 0.3,-0.56 1.16,-0.82 v 0 q 0.69,-0.17 1.98,-0.77 1.3,-0.61 1.9,-0.61 v 0 q 0.43,0 0.43,0.35 v 0 q 0,0.26 -0.56,1.38 -0.56,1.12 -1.33,2.54 -0.78,1.42 -1.43,2.59 -0.64,1.16 -0.82,1.42 v 0 q 0.52,0 1.86,0 1.33,0 2.89,0.08 1.55,0.09 2.67,0.35 1.12,0.26 1.12,0.69 v 0 q 0,0.34 -0.48,0.47 -0.47,0.13 -0.99,0.13 v 0 q -2.07,0 -4.09,0.05 -2.03,0.04 -4.01,0.3 v 0 q -0.86,1.55 -2.03,3.83 -1.16,2.29 -2.32,4.83 -1.17,2.54 -1.94,4.92 -0.78,2.37 -0.78,4.09 v 0 q 0,1.12 0.47,1.81 0.48,0.69 1.69,0.69 v 0 q 1.2,0 2.67,-0.78 1.46,-0.77 2.8,-1.85 1.34,-1.08 2.33,-1.85 0.99,-0.78 1.25,-0.78 v 0 q 0.08,0 0.08,0.04 0,0.05 0,0.05 v 0 q 0,0.34 -0.21,0.73 -0.22,0.39 -0.39,0.56 v 0 q -1.12,1.38 -2.84,2.8 -1.73,1.42 -3.67,2.37 -1.94,0.95 -3.75,0.95 z m 0.86,-23.96 v 0 q 0.78,-0.18 1.51,-0.22 0.73,-0.04 1.42,-0.13 v 0 q 0.26,-0.6 0.44,-1.21 0.17,-0.6 0.34,-1.2 v 0 q -0.95,0.6 -1.85,1.33 -0.91,0.74 -1.86,1.43 z m -7.93,-3.97 v 0 q -0.26,0 -0.3,-0.65 -0.04,-0.64 -0.04,-0.82 v 0 q 0,-0.25 0.08,-1.12 0.09,-0.86 0.52,-0.94 v 0 q 1.21,-0.18 2.41,-0.44 1.21,-0.25 2.42,-0.6 v 0 q 0.17,-0.08 0.52,-0.08 v 0 q 0.43,0 0.43,0.43 v 0 q 0,0.94 -1.17,1.94 -1.16,0.99 -2.58,1.63 -1.43,0.65 -2.29,0.65 z"
     class="f-accent" />
</svg>
