<?xml version="1.0" encoding="UTF-8" standalone="no"?>
            <svg
               xmlns="http://www.w3.org/2000/svg"
               xmlns:svg="http://www.w3.org/2000/svg"
               width="100"
               height="100"
               version="1.1"
               id="svg1"
               viewBox="0 0 100 100"
               >
               <path fill="black" d="M-12.36 48.90L-12.36 48.90Q-9.00 48.90-7.97 53.37L-7.97 53.37Q-7.55 55.01-7.55 56.80L-7.55 56.80Q-7.55 60.99-9.68 66.00L-9.68 66.00Q-13.39 74.66-20.88 78.16L-20.88 78.16Q-25.00 80.08-29.74 80.08L-29.74 80.08Q-39.90 80.08-43.61 72.66L-43.61 72.66Q-45.33 69.23-45.33 65.32Q-45.33 61.40-43.89 57.14L-43.89 57.14Q-40.73 47.80-32.62 41.90L-32.62 41.90Q-27.61 38.32-21.57 36.95L-21.57 36.95Q-27.06 34.96-27.06 30.08Q-27.06 25.21-22.18 20.84Q-17.31 16.48-9.89 16.48L-9.89 16.48Q-8.65 16.48-8.04 17.45Q-7.42 18.41-7.49 19.37L-7.49 19.37L-7.49 20.26Q-8.04 19.99-9.82 19.99L-9.82 19.99Q-16.07 19.99-20.33 24.38L-20.33 24.38Q-23.35 27.47-23.35 30.49L-23.35 30.49Q-23.35 36.20-14.77 36.20L-14.77 36.20Q-14.01 36.20-13.50 36.64Q-12.98 37.09-12.64 37.98L-12.64 37.98Q-24.52 37.98-32.55 47.12L-32.55 47.12Q-40.11 55.63-40.11 66.07L-40.11 66.07Q-40.11 71.98-36.68 75.21L-36.68 75.21Q-34.00 77.82-29.67 77.82L-29.67 77.82Q-19.92 77.82-14.70 69.57L-14.70 69.57Q-11.26 64.22-11.26 58.31L-11.26 58.31Q-11.26 51.85-14.49 50.69L-14.49 50.69Q-15.04 50.48-15.66 50.48L-15.66 50.48Q-14.77 48.90-12.36 48.90ZM-5.08 32.01L-5.08 32.01Q-5.08 32.35-5.70 32.35Q-6.32 32.35-6.90 32.07Q-7.49 31.80-7.49 31.32L-7.49 31.32Q-7.49 24.31-5.91 20.02Q-4.33 15.73-1.72 15.73L-1.72 15.73Q-1.03 15.73-0.55 16.24Q-0.07 16.76-0.07 17.51L-0.07 17.51Q-3.23 20.67-4.53 26.72L-4.53 26.72Q-5.08 29.26-5.08 32.01ZM1.65 72.46L1.65 72.46Q1.65 77.54 7.01 78.57L7.01 78.57Q8.04 78.78 9.34 78.78L9.34 78.78Q17.93 78.78 22.94 73.25Q27.95 67.72 27.95 59.34L27.95 59.34Q27.95 56.04 26.75 53.26Q25.55 50.48 23.76 48.66Q21.98 46.84 19.88 44.99Q17.79 43.13 16.00 41.62Q14.22 40.11 13.02 37.98Q11.81 35.85 11.81 33.45L11.81 33.45Q11.81 27.13 17.48 21.81Q23.15 16.48 29.67 16.48L29.67 16.48Q30.98 16.48 31.59 17.45Q32.21 18.41 32.21 19.37L32.21 19.37L32.14 20.26Q31.66 19.99 29.74 19.99L29.74 19.99Q25.34 19.99 21.22 24.11Q17.10 28.23 17.10 33.65L17.10 33.65Q17.10 35.85 18.30 37.95Q19.51 40.04 21.29 41.62Q23.08 43.20 25.14 45.16Q27.20 47.12 28.98 49.00Q30.77 50.89 31.97 53.61Q33.17 56.32 33.17 59.34L33.17 59.34Q33.17 67.65 26.30 74.11Q19.44 80.56 9.34 80.56L9.34 80.56Q0.82 80.56-1.44 75.07L-1.44 75.07Q-3.23 70.54-0.07 65.04Q3.09 59.55 9.07 57.62L9.07 57.62Q11.26 56.94 12.98 56.94Q14.70 56.94 15.35 57.52Q16.00 58.10 16.21 59.34L16.21 59.34Q9.75 59.34 5.15 64.56L5.15 64.56Q1.65 68.48 1.65 72.46ZM33.52 34.48L33.52 34.48Q33.52 34.82 32.86 34.82Q32.21 34.82 31.66 34.55Q31.11 34.27 31.11 33.79L31.11 33.79Q31.11 26.79 32.69 22.53Q34.27 18.27 36.88 18.27L36.88 18.27Q37.57 18.27 38.05 18.75Q38.53 19.23 38.53 19.99L38.53 19.99Q35.44 23.08 34.07 29.26L34.07 29.26Q33.52 31.73 33.52 34.48ZM45.47 69.64L45.47 69.64Q39.84 69.64 39.84 60.78L39.84 60.78Q39.84 55.49 42.45 49.18L42.45 49.18Q46.09 40.32 51.99 37.09L51.99 37.09Q54.53 35.71 56.73 35.71Q58.93 35.71 60.20 36.68Q61.47 37.64 61.81 38.60L61.81 38.60L62.23 39.49Q62.02 40.66 61.06 40.66L61.06 40.66Q59.96 40.66 59.79 40.14Q59.62 39.63 59.41 39.25Q59.20 38.87 58.45 38.22Q57.69 37.57 56.73 37.57L56.73 37.57Q52.27 37.57 48.63 45.60L48.63 45.60Q44.51 54.88 44.51 63.05L44.51 63.05Q44.51 67.17 46.15 67.17L46.15 67.17Q47.46 67.17 49.83 64.25Q52.20 61.33 54.81 56.94L54.81 56.94Q59.34 49.38 62.16 43.82L62.16 43.82Q64.49 38.87 66.96 38.87L66.96 38.87Q68.27 38.87 68.27 40.45L68.27 40.45Q67.65 41.76 66.69 44.16Q65.73 46.57 64.15 53.71Q62.57 60.85 62.57 67.93Q62.57 75 64.70 75L64.70 75Q65.52 75 66.21 74.28Q66.90 73.56 67.45 72.12L67.45 72.12Q67.65 71.36 68.41 71.36L68.41 71.36Q68.68 71.36 68.82 71.57Q68.96 71.77 68.82 72.25Q68.68 72.73 68.34 73.59Q67.99 74.45 66.86 75.89Q65.73 77.34 64.49 77.34L64.49 77.34Q61.61 77.34 60.06 73.56Q58.52 69.78 58.52 64.63Q58.52 59.48 59.27 54.74L59.27 54.74L58.59 54.74Q49.86 69.64 45.47 69.64ZM90.45 36.33L90.45 36.33Q95.67 36.33 95.67 42.45L95.67 42.45Q95.67 45.95 93.34 49.79L93.34 49.79Q89.35 56.18 82.76 56.18L82.76 56.18Q81.73 56.18 81.04 55.84Q80.36 55.49 80.01 54.81L80.01 54.81Q84.89 54.81 88.94 49.18L88.94 49.18Q92.24 44.64 92.24 40.87L92.24 40.87Q92.24 38.05 89.97 38.05L89.97 38.05Q85.44 38.05 81.52 45.12L81.52 45.12Q77.34 52.82 77.34 60.92L77.34 60.92Q77.34 67.79 81.25 69.16L81.25 69.16Q82.01 69.44 83.17 69.44Q84.34 69.44 85.65 68.85Q86.95 68.27 87.84 67.45L87.84 67.45Q89.63 65.80 90.80 63.80L90.80 63.80Q91.07 63.26 91.83 63.26L91.83 63.26Q93.06 63.26 92.99 63.67L92.99 63.67Q92.79 64.42 91.45 66.21Q90.11 67.99 88.98 69.06Q87.84 70.12 86.02 70.98Q84.20 71.84 82.35 71.84L82.35 71.84Q75.07 71.84 73.08 64.97L73.08 64.97Q72.46 62.64 72.46 60.16L72.46 60.16Q72.46 55.56 74.59 50.14L74.59 50.14Q77.95 41.90 83.86 38.26L83.86 38.26Q87.09 36.33 90.45 36.33ZM104.12 67.31L104.12 67.31Q104.12 72.12 107.21 72.12L107.21 72.12Q110.10 72.12 112.60 67.38Q115.11 62.64 115.11 55.43L115.11 55.43Q115.11 51.92 113.84 45.54Q112.57 39.15 112.57 37.19Q112.57 35.23 112.71 34.62L112.71 34.62Q111.81 36.06 107.55 44.20Q103.30 52.34 100 57.07L100 57.07Q99.73 57.35 99.24 57.25Q98.76 57.14 98.45 56.83Q98.15 56.52 98.15 56.39Q98.15 56.25 98.21 56.18L98.21 56.18Q101.44 51.51 105.73 43.30Q110.03 35.10 112.91 31.04Q115.80 26.99 118.61 26.99L118.61 26.99Q120.05 26.99 120.05 28.23L120.05 28.23Q120.05 29.05 118.89 30.43L118.89 30.43Q115.18 34.62 115.18 39.01L115.18 39.01Q115.18 41.62 117.17 49.07Q119.16 56.52 119.16 59.89L119.16 59.89Q119.16 65.93 115.80 70.16Q112.43 74.38 108.17 74.38L108.17 74.38Q102.13 74.38 102.13 67.45L102.13 67.45Q102.13 62.23 105.32 56.52Q108.52 50.82 111.74 48.83L111.74 48.83Q112.36 48.42 112.53 49.31Q112.71 50.21 112.29 50.48L112.29 50.48Q108.65 52.54 105.98 59.27L105.98 59.27Q104.12 64.01 104.12 67.31ZM129.33 39.90L129.33 39.90Q126.65 39.90 126.65 37.71L126.65 37.71Q126.65 36.88 127.34 36.68L127.34 36.68Q127.40 36.61 127.54 36.61L127.54 36.61Q127.95 37.09 129.09 37.09Q130.22 37.09 132.69 36.95L132.69 36.95Q135.92 28.23 138.87 28.23L138.87 28.23Q140.04 28.23 140.04 29.53L140.04 29.53Q138.94 32.28 137.57 36.61L137.57 36.61Q144.37 35.85 146.43 35.85L146.43 35.85Q146.98 35.85 146.98 36.40L146.98 36.40Q146.98 37.50 145.54 37.50L145.54 37.50Q144.78 37.50 136.81 38.94L136.81 38.94Q131.39 56.11 131.39 66.76Q131.39 77.40 135.65 77.40L135.65 77.40Q137.36 77.40 138.87 75.93Q140.38 74.45 141.00 73.01L141.00 73.01Q141.28 72.25 142.17 72.60L142.17 72.60Q142.58 72.73 142.45 73.01L142.45 73.01Q142.03 73.90 141.41 75.07Q140.80 76.24 139.01 77.95Q137.23 79.67 135.37 79.67L135.37 79.67Q127.20 79.67 127.20 65.45L127.20 65.45Q127.20 53.43 131.66 39.77L131.66 39.77Q130.70 39.90 129.33 39.90Z"/>
            </svg>