<?xml version="1.0" encoding="UTF-8" standalone="no"?>
<svg
   width="100"
   height="100"
   version="1.1"
   id="svg1"
   viewBox="0 0 100 100"
   sodipodi:docname="Vox-ATypI-humanist sans.svg"
   inkscape:version="1.3 (0e150ed, 2023-07-21)"
   xmlns:inkscape="http://www.inkscape.org/namespaces/inkscape"
   xmlns:sodipodi="http://sodipodi.sourceforge.net/DTD/sodipodi-0.dtd"
   xmlns="http://www.w3.org/2000/svg"
   xmlns:svg="http://www.w3.org/2000/svg">
  <defs
     id="defs1" />
  <sodipodi:namedview
     id="namedview1"
     pagecolor="#ffffff"
     bordercolor="#000000"
     borderopacity="0.25"
     inkscape:showpageshadow="2"
     inkscape:pageopacity="0.0"
     inkscape:pagecheckerboard="0"
     inkscape:deskcolor="#d1d1d1"
     inkscape:zoom="2.4393294"
     inkscape:cx="83.219593"
     inkscape:cy="-9.2238465"
     inkscape:window-width="1800"
     inkscape:window-height="1097"
     inkscape:window-x="0"
     inkscape:window-y="44"
     inkscape:window-maximized="1"
     inkscape:current-layer="svg1" />
  <path
     id="path1"
     style="stroke-width:1"
     d="m 31.579081,57.944483 h -8.07474 L 8.0190211,15.132639 H 17.325945 L 31.316914,56.126791 H 26.309528 L 39.706253,15.132639 h 8.135911 z m 49.964579,0 H 73.993255 V 31.203465 L 81.54366,29.831457 Z M 77.768457,24.561904 v 0 q -2.149769,0 -3.451863,-1.232183 Q 73.023238,22.0888 73.023238,20.00894 v 0 q 0,-2.079855 1.293356,-3.346996 1.302094,-1.275877 3.451863,-1.275877 v 0 q 2.079857,0 3.381951,1.275877 1.302096,1.267141 1.302096,3.346996 v 0 q 0,2.07986 -1.302096,3.320781 -1.302094,1.232183 -3.381951,1.232183 z M 58.317533,57.944483 H 50.705956 V 30.679131 q 0,-6.309483 2.210939,-10.539108 2.210941,-4.229625 5.890015,-6.344437 3.670336,-2.114811 8.100957,-2.114811 v 0 q 2.403195,0 4.483052,0.585505 2.088596,0.585505 3.906285,2.079856 v 0 L 71.85408,19.746773 Q 70.158736,18.252423 68.437172,17.605745 66.70687,16.950327 65.21252,16.950327 v 0 q -1.81769,0 -3.119786,0.681633 -1.302094,0.681635 -2.149767,2.088598 -0.847674,1.398224 -1.240923,3.609163 -0.384511,2.210941 -0.384511,5.269553 v 0 z M 67.7468,35.494262 45.820912,35.363179 46.275336,31.072381 68.209962,30.548047 Z M 21.089016,85.768828 v 0 q 0,-1.244483 -0.736782,-2.167009 Q 19.615451,82.679292 18.395735,81.94251 17.176019,81.205727 15.745793,80.512284 14.315568,79.818841 12.860577,79.038719 11.411776,78.252404 10.18587,77.237006 8.9661526,76.227799 8.2293706,74.840914 7.4925875,73.460221 7.4925875,71.565636 v 0 q 0,-2.947132 1.4054594,-4.996502 1.4054591,-2.055563 3.7334461,-3.157641 2.327986,-1.10827 5.138905,-1.10827 v 0 q 1.752181,0 3.875849,0.414827 2.117476,0.414828 3.776786,1.244483 v 0 l -2.024605,5.256542 Q 21.968202,67.974594 20.07981,67.305916 18.185225,66.63724 16.66832,66.63724 v 0 q -1.430226,0 -2.259881,0.55104 -0.829654,0.551038 -1.176375,1.362119 -0.346722,0.804889 -0.346722,1.541672 v 0 q 0,1.10827 0.736783,1.937924 0.736782,0.829654 1.96269,1.541672 1.219716,0.718208 2.693282,1.405459 1.473565,0.693443 2.928557,1.523097 1.454991,0.829654 2.674707,1.913159 1.219717,1.083504 1.956499,2.488964 0.742975,1.405459 0.742975,3.343383 v 0 q 0,3.132876 -1.523097,5.281309 -1.523098,2.142243 -3.987296,3.225747 -2.470389,1.083505 -5.374181,1.083505 v 0 q -2.996662,0 -5.528966,-0.879187 -2.5384961,-0.872994 -4.1482737,-2.024604 v 0 l 2.8109198,-4.841717 q 1.7026489,1.430226 3.8696579,2.371327 2.167008,0.947292 4.241145,0.947292 v 0 q 1.801712,0 2.978088,-0.965866 1.170184,-0.972059 1.170184,-2.674707 z m 19.22446,8.067462 v 0 q -2.903791,0 -5.163671,-1.294014 Q 32.896116,91.254454 31.602103,89.01934 30.31428,86.784225 30.31428,83.880434 v 0 q 0,-3.089534 1.4488,-5.491817 1.454991,-2.396093 3.943955,-3.776787 2.488964,-1.380693 5.621838,-1.380693 v 0 q 2.030797,0 3.640575,0.619144 1.615969,0.625337 2.909982,1.776948 v 0 l -2.21654,4.098741 q -1.19495,-1.244482 -2.420858,-1.931733 -1.219716,-0.693443 -2.60041,-0.693443 v 0 q -1.572629,0 -2.606601,0.854421 -1.040164,0.848229 -1.523097,2.25988 -0.482933,1.405459 -0.482933,3.064769 v 0 q 0,2.024604 0.761548,3.479596 0.761549,1.448799 2.074137,2.210348 1.312587,0.761549 2.928557,0.761549 v 0 q 1.15161,0 2.34656,-0.5077 1.201141,-0.507698 2.352752,-1.516905 v 0 l 1.566437,2.996663 q -1.244481,1.194949 -2.60041,1.888392 -1.362119,0.693443 -2.649942,0.965867 -1.294013,0.278616 -2.495154,0.278616 z m 31.16777,-0.600572 H 66.131832 V 82.493549 q 0,-2.352752 -1.015399,-3.70868 -1.009206,-1.362119 -2.903791,-1.362119 v 0 q -1.015398,0 -2.098902,0.371487 -1.083505,0.365296 -2.024605,1.058739 -0.947292,0.693441 -1.498332,1.702648 v 0 l -1.70884,-1.15161 q 1.294013,-1.931732 2.835685,-3.250512 1.547862,-1.312588 3.275278,-1.981265 1.727415,-0.668677 3.615807,-0.668677 v 0 q 2.860452,0 4.866482,1.869818 2.006031,1.863628 2.006031,5.182246 v 0 z m -13.509749,0 H 52.714954 V 60.965869 l 5.256543,-0.965866 z m 27.613877,0.600572 v 0 q -2.761388,0 -4.928396,-1.133037 -2.167009,-1.126843 -3.392915,-3.293852 -1.219717,-2.167008 -1.219717,-5.207011 v 0 q 0,-3.275279 1.380694,-5.739476 1.386885,-2.47039 3.739638,-3.851084 2.346559,-1.380693 5.299882,-1.380693 v 0 q 3.733445,0 5.621839,2.253689 1.894584,2.259879 1.894584,6.086196 v 0 q 0,0.507699 -0.02476,1.176377 -0.02476,0.668676 -0.117638,1.269247 v 0 h -4.513574 v -2.538495 q 0,-2.167008 -0.742974,-3.361958 -0.736783,-1.201143 -2.625176,-1.201143 v 0 q -1.523097,0 -2.625176,0.811081 -1.108269,0.804889 -1.684075,2.253688 -0.575805,1.454992 -0.575805,3.392916 v 0 q 0,2.996663 1.566438,4.674546 1.566437,1.684076 4.104933,1.684076 v 0 q 1.424033,0 2.786153,-0.526274 1.362119,-0.532464 2.606602,-1.591204 v 0 l 1.702649,2.761388 q -1.337354,1.337354 -2.76758,2.098903 -1.424033,0.761548 -2.810919,1.064929 -1.380694,0.297191 -2.674707,0.297191 z m 7.652635,-9.819644 H 78.626182 l 0.60057,-3.182406 h 14.011257 z"
     class="f-primary" />
  <path
     id="path12"
     d="m 66.379314,81.392665 v 0 q -5.648801,0 -8.960746,-3.950796 -3.311946,-3.933988 -3.194263,-11.583407 v 0 l 0.504359,-21.267061 q 0.134493,-3.261507 -0.504359,-5.194878 -0.622041,-1.950182 -1.866121,-2.824402 -1.260893,-0.874216 -3.143827,-0.874216 v 0 q -1.866123,0 -4.001237,0.80697 -2.118295,0.823784 -3.681805,2.891648 -1.58032,2.05105 -1.815687,5.682423 v 0 L 25.812183,43.465003 q 0.756537,-3.765866 3.059769,-6.892882 2.32004,-3.127014 5.83373,-5.447055 3.496877,-2.320045 7.817535,-3.564125 4.320662,-1.260893 9.078431,-1.260893 v 0 q 8.893495,0 12.709799,4.455154 3.816306,4.438346 3.681808,11.818772 v 0 l -0.252169,26.041641 q 0,1.378576 0.689289,2.067865 0.689288,0.689287 1.698007,0.689287 v 0 q 1.008712,0 1.933349,-0.369861 0.941489,-0.386674 1.698019,-1.008715 v 0 l 4.001223,6.758387 q -1.882918,2.000616 -4.825028,3.311943 -2.942057,1.328144 -6.556622,1.328144 z m -27.672399,0 v 0 q -6.388522,0 -10.272074,-3.580937 -3.866739,-3.564122 -3.866739,-9.196113 v 0 q 0,-3.244696 1.42901,-6.186783 1.445824,-2.942079 5.19488,-5.329372 3.765867,-2.37048 10.641939,-3.88355 v 0 l 20.409651,-4.505594 0.622041,6.388526 -17.652503,5.127634 q -3.883545,1.126397 -5.060382,2.824397 -1.193643,1.681192 -1.193643,3.311946 v 0 q 0,2.000616 1.445823,3.261511 1.429013,1.244082 3.816304,1.244082 v 0 q 3.127012,0 7.750286,-2.252797 4.640088,-2.252796 10.389758,-5.262126 v 0 l 0.252171,4.892262 q -5.497493,5.379811 -11.381663,9.263363 -5.884167,3.883551 -12.524868,3.883551 z"
     class="f-accent" />
  <style
     id="style1">.f-accent {&#10;fill: orange&#10;}</style>
</svg>
