<?xml version="1.0" encoding="UTF-8" standalone="no"?>
            <svg
               xmlns="http://www.w3.org/2000/svg"
               xmlns:svg="http://www.w3.org/2000/svg"
               width="100"
               height="100"
               version="1.1"
               id="svg1"
               viewBox="0 0 100 100"
               >
               <path fill="black" d="M-28.18 37.64L-32.36 36.62L-32.36 33.99Q-31.55 33.85-30.27 33.68Q-28.99 33.51-27.64 33.34Q-26.28 33.18-25.27 33.07Q-24.26 32.97-24.05 32.97L-24.05 32.97Q-23.85 32.97-23.31 33.45Q-22.77 33.92-22.33 34.49Q-21.89 35.07-21.89 35.27L-21.89 35.27L-21.89 69.93L-7.09 71.28L-6.01 62.23L-2.36 62.23L-2.09 74.32Q-6.35 74.46-9.59 74.56Q-12.84 74.66-15.47 74.73Q-18.11 74.80-20.57 74.83Q-23.04 74.86-25.88 74.93L-25.88 74.93Q-26.15 74.93-26.72 74.46Q-27.30 73.99-27.74 73.45Q-28.18 72.91-28.18 72.70L-28.18 72.70L-28.18 37.64ZM-16.35 33.58L-16.35 33.58L-14.66 33.58L-14.66 67.50Q-14.66 67.91-15.00 68.95Q-15.34 70-16.08 71.35L-16.08 71.35L-18.18 71.35L-18.18 39.39Q-18.18 38.65-17.60 37.03Q-17.03 35.41-16.35 33.58ZM-17.84 55.20L-17.84 51.76L-7.84 51.22L-8.24 55.74L-17.84 55.20ZM-16.35 37.16L-16.15 33.58L-2.43 33.58L-3.31 45.41L-6.96 45.41L-7.70 37.97L-16.35 37.16ZM4.66 74.26L4.66 74.26L5.14 61.89L8.92 61.89L10.00 69.05Q11.35 69.32 13.01 69.66Q14.66 70 16.32 70.30Q17.97 70.61 19.26 70.78Q20.54 70.95 21.08 70.95L21.08 70.95Q21.42 70.95 22.40 70.41Q23.38 69.86 24.53 69.09Q25.68 68.31 26.59 67.50Q27.50 66.69 27.57 66.15L27.57 66.15Q27.70 65.41 27.77 64.43Q27.84 63.45 27.84 62.47Q27.84 61.49 27.74 60.74Q27.64 60 27.43 59.80L27.43 59.80Q26.89 59.05 25.24 57.91Q23.58 56.76 21.45 55.37Q19.32 53.99 17.20 52.57Q15.07 51.15 13.48 49.86Q11.89 48.58 11.35 47.64L11.35 47.64Q11.22 47.30 11.05 46.32Q10.88 45.34 10.81 44.02Q10.74 42.70 10.68 41.49L10.68 41.49Q9.46 42.43 8.82 43.14Q8.18 43.85 7.94 44.53Q7.70 45.20 7.70 46.15L7.70 46.15Q7.70 47.23 7.87 48.01Q8.04 48.78 8.31 49.46L8.31 49.46Q8.99 50.74 10.41 51.76Q11.82 52.77 14.19 54.46L14.19 54.46Q15.74 55.54 17.36 56.66Q18.99 57.77 20.44 58.82Q21.89 59.86 22.91 60.71Q23.92 61.55 24.19 62.16L24.19 62.16Q24.53 62.84 24.49 63.68Q24.46 64.53 24.32 65.07L24.32 65.07Q24.05 65.68 22.94 66.45Q21.82 67.23 20.88 67.70L20.88 67.70Q20.95 66.89 20.98 66.08Q21.01 65.27 20.98 64.59Q20.95 63.92 20.68 63.58L20.68 63.58Q20.14 62.84 18.48 61.62Q16.82 60.41 14.66 58.99Q12.50 57.57 10.37 56.08Q8.24 54.59 6.72 53.21Q5.20 51.82 4.93 50.81L4.93 50.81Q4.73 50.07 4.59 49.09Q4.46 48.11 4.46 47.03Q4.46 45.95 4.56 44.97Q4.66 43.99 4.86 43.31L4.86 43.31Q5.47 42.16 6.82 40.78Q8.18 39.39 9.90 38.01Q11.62 36.62 13.41 35.51Q15.20 34.39 16.79 33.72Q18.38 33.04 19.39 33.04L19.39 33.04Q19.80 33.04 20.84 33.07Q21.89 33.11 23.34 33.21Q24.80 33.31 26.39 33.45Q27.97 33.58 29.46 33.78Q30.95 33.99 32.09 34.19L32.09 34.19L31.55 45.81L27.77 45.81L26.76 38.92Q25.74 38.45 24.36 38.07Q22.97 37.70 21.62 37.50Q20.27 37.30 19.32 37.30L19.32 37.30Q18.78 37.30 18.38 37.40Q17.97 37.50 17.74 37.64Q17.50 37.77 17.36 38.04L17.36 38.04Q17.09 38.51 16.99 39.53Q16.89 40.54 16.93 41.66Q16.96 42.77 17.09 43.68Q17.23 44.59 17.50 44.86L17.50 44.86Q18.31 45.74 19.76 46.76Q21.22 47.77 23.01 48.85Q24.80 49.93 26.66 51.11Q28.51 52.30 30.10 53.55Q31.69 54.80 32.77 56.01L32.77 56.01Q32.97 56.82 33.07 58.31Q33.18 59.80 33.18 61.45Q33.18 63.11 33.07 64.53Q32.97 65.95 32.77 66.62L32.77 66.62Q32.16 67.91 30.68 69.36Q29.19 70.81 27.33 72.09Q25.47 73.38 23.78 74.16Q22.09 74.93 21.08 74.93L21.08 74.93Q19.80 74.93 17.67 74.86Q15.54 74.80 13.11 74.70Q10.68 74.59 8.45 74.49Q6.22 74.39 4.66 74.26ZM46.96 74.93L46.96 74.93Q43.85 74.93 41.79 73.82Q39.73 72.70 38.72 70.74Q37.70 68.78 37.70 66.28L37.70 66.28Q37.70 64.73 38.07 62.97Q38.45 61.22 39.46 59.73L39.46 59.73L44.19 62.16Q43.99 62.84 43.85 63.82Q43.72 64.80 43.72 65.81L43.72 65.81Q43.72 67.77 44.39 68.85Q45.07 69.93 47.36 69.93L47.36 69.93Q47.70 69.93 48.85 69.43Q50.00 68.92 51.59 68.14Q53.18 67.36 54.73 66.62L54.73 66.62L54.73 69.39Q53.11 70.61 51.39 71.89Q49.66 73.18 48.45 74.05Q47.23 74.93 46.96 74.93ZM43.38 62.77L39.46 59.73L54.05 57.57L54.05 60.54L43.38 62.77ZM40.81 48.85L39.93 47.77L40.88 43.65Q43.31 43.51 45.20 43.48Q47.09 43.45 48.78 43.48Q50.47 43.51 52.23 43.65L52.23 43.65Q53.24 43.72 54.49 44.63Q55.74 45.54 56.93 46.86Q58.11 48.18 58.89 49.56Q59.66 50.95 59.66 51.96L59.66 51.96L59.66 70.34L62.03 71.35L62.03 73.85Q60.68 74.12 59.36 74.36Q58.04 74.59 57.09 74.76Q56.15 74.93 55.88 74.93L55.88 74.93Q55.68 74.93 55.14 74.49Q54.59 74.05 54.16 73.51Q53.72 72.97 53.72 72.70L53.72 72.70L53.72 69.39L53.51 68.58L53.51 53.31Q53.51 51.08 52.67 50Q51.82 48.92 50.07 48.78L50.07 48.78Q49.39 48.72 47.84 48.72Q46.28 48.72 44.39 48.75Q42.50 48.78 40.81 48.85L40.81 48.85ZM72.64 59.53L72.64 59.53Q72.64 63.92 73.82 66.22Q75 68.51 76.49 69.32Q77.97 70.14 78.92 70.14L78.92 70.14Q79.19 70.14 80.20 70.10Q81.22 70.07 82.57 70Q83.92 69.93 85.27 69.86Q86.62 69.80 87.64 69.80L87.64 69.80L87.64 72.57Q86.42 72.97 84.86 73.38Q83.31 73.78 81.76 74.12Q80.20 74.46 79.02 74.70Q77.84 74.93 77.36 74.93L77.36 74.93Q74.59 74.93 72.03 73.41Q69.46 71.89 67.80 68.75Q66.15 65.61 66.15 60.74L66.15 60.74Q66.15 57.36 66.62 54.53Q67.09 51.69 67.77 50.41L67.77 50.41Q68.31 49.59 69.70 48.41Q71.08 47.23 72.74 46.11Q74.39 45 75.81 44.22Q77.23 43.45 77.91 43.45L77.91 43.45Q81.62 43.45 83.95 44.66Q86.28 45.88 87.43 49.22Q88.58 52.57 88.58 59.05L88.58 59.05L69.66 61.01L69.66 58.45L82.03 56.42Q82.03 52.30 81.15 49.90Q80.27 47.50 77.36 47.50L77.36 47.50Q76.82 47.50 76.18 47.57Q75.54 47.64 74.80 47.97L74.80 47.97Q73.85 48.45 73.24 51.59Q72.64 54.73 72.64 59.53ZM105.81 74.93L105.81 74.93Q105.14 74.93 103.65 74.86Q102.16 74.80 100.27 74.66Q98.38 74.53 96.62 74.36Q94.86 74.19 93.65 74.05L93.65 74.05L93.78 64.32L97.16 64.26L98.58 69.39Q99.66 69.73 101.01 70.07Q102.36 70.41 103.58 70.61Q104.80 70.81 105.41 70.81L105.41 70.81Q105.81 70.81 106.28 70.20Q106.76 69.59 107.13 68.68Q107.50 67.77 107.50 67.03L107.50 67.03Q107.50 65.74 106.89 64.90Q106.28 64.05 104.86 63.18Q103.45 62.30 101.01 61.01L101.01 61.01Q98.38 59.53 96.79 58.34Q95.20 57.16 94.49 55.81Q93.78 54.46 93.78 52.70L93.78 52.70Q93.78 51.82 93.85 50.91Q93.92 50 94.12 49.39L94.12 49.39Q94.66 48.58 95.64 47.53Q96.62 46.49 97.74 45.57Q98.85 44.66 99.83 44.05Q100.81 43.45 101.35 43.45L101.35 43.45Q102.16 43.45 103.61 43.51Q105.07 43.58 106.76 43.65Q108.45 43.72 110 43.82Q111.55 43.92 112.57 44.05L112.57 44.05L112.36 52.30L108.58 52.30L108.11 48.72Q107.84 48.58 106.82 48.41Q105.81 48.24 104.56 48.07Q103.31 47.91 102.26 47.77Q101.22 47.64 100.88 47.64L100.88 47.64Q100.47 47.64 100.14 47.91Q99.80 48.18 99.59 48.78Q99.39 49.39 99.39 50.47L99.39 50.47Q99.39 51.76 100.14 52.67Q100.88 53.58 101.99 54.26Q103.11 54.93 104.26 55.68L104.26 55.68Q105.47 56.42 107.13 57.36Q108.78 58.31 110.37 59.39Q111.96 60.47 112.97 61.79Q113.99 63.11 113.99 64.66L113.99 64.66Q113.99 65.34 113.92 66.22Q113.85 67.09 113.51 68.11L113.51 68.11Q113.04 68.99 112.09 70.14Q111.15 71.28 110 72.40Q108.85 73.51 107.74 74.22Q106.62 74.93 105.81 74.93ZM125.14 74.93L125.14 74.93Q124.53 74.93 123.68 74.36Q122.84 73.78 122.03 72.91Q121.22 72.03 120.68 71.15Q120.14 70.27 120.14 69.66L120.14 69.66L120.14 47.64L115.81 47.64L115.81 45.61L120.14 43.45L123.92 38.85Q124.26 38.85 124.90 39.12Q125.54 39.39 126.28 39.80L126.28 39.80L126.28 44.05L132.84 44.05L132.84 47.97L126.28 47.97L126.28 66.69Q126.28 68.78 126.62 69.53Q126.96 70.27 127.91 70.27L127.91 70.27L133.45 70.41L133.45 73.65Q132.50 73.85 131.22 74.09Q129.93 74.32 128.68 74.49Q127.43 74.66 126.45 74.80Q125.47 74.93 125.14 74.93Z"/>
            </svg>