<?xml version="1.0" encoding="UTF-8" standalone="no"?>
<svg
   width="100"
   height="100"
   version="1.1"
   id="svg1"
   viewBox="0 0 100 100"
   sodipodi:docname="Vox-ATypI-humanist sans.svg"
   inkscape:version="1.3 (0e150ed, 2023-07-21)"
   xmlns:inkscape="http://www.inkscape.org/namespaces/inkscape"
   xmlns:sodipodi="http://sodipodi.sourceforge.net/DTD/sodipodi-0.dtd"
   xmlns="http://www.w3.org/2000/svg"
   xmlns:svg="http://www.w3.org/2000/svg">
  <defs
     id="defs1" />
  <sodipodi:namedview
     id="namedview1"
     pagecolor="#ffffff"
     bordercolor="#000000"
     borderopacity="0.25"
     inkscape:showpageshadow="2"
     inkscape:pageopacity="0.0"
     inkscape:pagecheckerboard="0"
     inkscape:deskcolor="#d1d1d1"
     inkscape:zoom="2.4393294"
     inkscape:cx="83.424566"
     inkscape:cy="-9.2238464"
     inkscape:window-width="1800"
     inkscape:window-height="1097"
     inkscape:window-x="0"
     inkscape:window-y="44"
     inkscape:window-maximized="1"
     inkscape:current-layer="svg1" />
  <path
     id="path12"
     style="stroke-width:1"
     d="m 90.288874,66.623499 v 0 q -3.690177,0 -5.853762,-2.580926 -2.163586,-2.569945 -2.086707,-7.56706 v 0 l 0.329481,-13.893074 q 0.08786,-2.130636 -0.329481,-3.393644 -0.406359,-1.27399 -1.219076,-1.845089 -0.8237,-0.571097 -2.053759,-0.571097 v 0 q -1.219077,0 -2.613877,0.527167 -1.383813,0.538151 -2.405203,1.889019 -1.032371,1.339884 -1.186129,3.712141 v 0 L 63.787696,41.8466 q 0.494221,-2.460117 1.998847,-4.502894 1.515606,-2.042776 3.810985,-3.558383 2.284395,-1.515609 5.106939,-2.328326 2.822547,-0.8237 5.930642,-0.8237 v 0 q 5.809829,0 8.302895,2.910406 2.493068,2.899426 2.405205,7.720817 v 0 l -0.164734,17.012151 q 0,0.900578 0.45029,1.350868 0.450289,0.450289 1.109252,0.450289 v 0 q 0.658959,0 1.262994,-0.241618 0.615044,-0.252602 1.10926,-0.658961 v 0 l 2.613868,4.415033 q -1.230049,1.306937 -3.152033,2.163584 -1.921949,0.867633 -4.283226,0.867633 z m -18.077472,0 v 0 q -4.173412,0 -6.710409,-2.339309 -2.526014,-2.328324 -2.526014,-6.007519 v 0 q 0,-2.119654 0.933525,-4.041623 0.94451,-1.921964 3.393645,-3.481504 2.460118,-1.548557 6.95203,-2.536996 v 0 l 13.332957,-2.943357 0.406359,4.173415 -11.531802,3.349715 q -2.536993,0.735838 -3.305782,1.845086 -0.779768,1.098268 -0.779768,2.163586 v 0 q 0,1.306937 0.944509,2.130638 0.933527,0.812718 2.493066,0.812718 v 0 q 2.042775,0 5.063008,-1.471678 3.031218,-1.471678 6.787289,-3.437575 v 0 l 0.164735,3.195955 q -3.591332,3.514454 -7.435268,6.051451 -3.843933,2.536997 -8.182086,2.536997 z" />
  <path
     id="path6"
     style="stroke-width:1"
     d="m 21.089016,85.768828 v 0 q 0,-1.244483 -0.736782,-2.167009 Q 19.615451,82.679292 18.395735,81.94251 17.176019,81.205727 15.745793,80.512284 14.315568,79.818841 12.860577,79.038719 11.411776,78.252404 10.18587,77.237006 8.9661526,76.227799 8.2293706,74.840914 7.4925875,73.460221 7.4925875,71.565636 v 0 q 0,-2.947132 1.4054594,-4.996502 1.4054591,-2.055563 3.7334461,-3.157641 2.327986,-1.10827 5.138905,-1.10827 v 0 q 1.752181,0 3.875849,0.414827 2.117476,0.414828 3.776786,1.244483 v 0 l -2.024605,5.256542 Q 21.968202,67.974594 20.07981,67.305916 18.185225,66.63724 16.66832,66.63724 v 0 q -1.430226,0 -2.259881,0.55104 -0.829654,0.551038 -1.176375,1.362119 -0.346722,0.804889 -0.346722,1.541672 v 0 q 0,1.10827 0.736783,1.937924 0.736782,0.829654 1.96269,1.541672 1.219716,0.718208 2.693282,1.405459 1.473565,0.693443 2.928557,1.523097 1.454991,0.829654 2.674707,1.913159 1.219717,1.083504 1.956499,2.488964 0.742975,1.405459 0.742975,3.343383 v 0 q 0,3.132876 -1.523097,5.281309 -1.523098,2.142243 -3.987296,3.225747 -2.470389,1.083505 -5.374181,1.083505 v 0 q -2.996662,0 -5.528966,-0.879187 -2.5384961,-0.872994 -4.1482737,-2.024604 v 0 l 2.8109198,-4.841717 q 1.7026489,1.430226 3.8696579,2.371327 2.167008,0.947292 4.241145,0.947292 v 0 q 1.801712,0 2.978088,-0.965866 1.170184,-0.972059 1.170184,-2.674707 z m 19.22446,8.067462 v 0 q -2.903791,0 -5.163671,-1.294014 Q 32.896116,91.254454 31.602103,89.01934 30.31428,86.784225 30.31428,83.880434 v 0 q 0,-3.089534 1.4488,-5.491817 1.454991,-2.396093 3.943955,-3.776787 2.488964,-1.380693 5.621838,-1.380693 v 0 q 2.030797,0 3.640575,0.619144 1.615969,0.625337 2.909982,1.776948 v 0 l -2.21654,4.098741 q -1.19495,-1.244482 -2.420858,-1.931733 -1.219716,-0.693443 -2.60041,-0.693443 v 0 q -1.572629,0 -2.606601,0.854421 -1.040164,0.848229 -1.523097,2.25988 -0.482933,1.405459 -0.482933,3.064769 v 0 q 0,2.024604 0.761548,3.479596 0.761549,1.448799 2.074137,2.210348 1.312587,0.761549 2.928557,0.761549 v 0 q 1.15161,0 2.34656,-0.5077 1.201141,-0.507698 2.352752,-1.516905 v 0 l 1.566437,2.996663 q -1.244481,1.194949 -2.60041,1.888392 -1.362119,0.693443 -2.649942,0.965867 -1.294013,0.278616 -2.495154,0.278616 z m 31.16777,-0.600572 H 66.131832 V 82.493549 q 0,-2.352752 -1.015399,-3.70868 -1.009206,-1.362119 -2.903791,-1.362119 v 0 q -1.015398,0 -2.098902,0.371487 -1.083505,0.365296 -2.024605,1.058739 -0.947292,0.693441 -1.498332,1.702648 v 0 l -1.70884,-1.15161 q 1.294013,-1.931732 2.835685,-3.250512 1.547862,-1.312588 3.275278,-1.981265 1.727415,-0.668677 3.615807,-0.668677 v 0 q 2.860452,0 4.866482,1.869818 2.006031,1.863628 2.006031,5.182246 v 0 z m -13.509749,0 H 52.714954 V 60.965869 l 5.256543,-0.965866 z m 27.613877,0.600572 v 0 q -2.761388,0 -4.928396,-1.133037 -2.167009,-1.126843 -3.392915,-3.293852 -1.219717,-2.167008 -1.219717,-5.207011 v 0 q 0,-3.275279 1.380694,-5.739476 1.386885,-2.47039 3.739638,-3.851084 2.346559,-1.380693 5.299882,-1.380693 v 0 q 3.733445,0 5.621839,2.253689 1.894584,2.259879 1.894584,6.086196 v 0 q 0,0.507699 -0.02476,1.176377 -0.02476,0.668676 -0.117638,1.269247 v 0 h -4.513574 v -2.538495 q 0,-2.167008 -0.742974,-3.361958 -0.736783,-1.201143 -2.625176,-1.201143 v 0 q -1.523097,0 -2.625176,0.811081 -1.108269,0.804889 -1.684075,2.253688 -0.575805,1.454992 -0.575805,3.392916 v 0 q 0,2.996663 1.566438,4.674546 1.566437,1.684076 4.104933,1.684076 v 0 q 1.424033,0 2.786153,-0.526274 1.362119,-0.532464 2.606602,-1.591204 v 0 l 1.702649,2.761388 q -1.337354,1.337354 -2.76758,2.098903 -1.424033,0.761548 -2.810919,1.064929 -1.380694,0.297191 -2.674707,0.297191 z m 7.652635,-9.819644 H 78.626182 l 0.60057,-3.182406 h 14.011257 z" />
  <path
     id="path1"
     style="stroke-width:1"
     d="M 24.392857,43.833255 H 18.781052 L 8.0190212,14.079761 h 6.4681518 l 9.723482,28.490229 h -3.480047 l 9.310493,-28.490229 h 5.654318 z m 34.724521,0 H 53.869977 V 25.248708 l 5.247401,-0.953522 z M 56.493677,20.632938 v 0 q -1.494052,0 -2.398985,-0.856346 -0.89886,-0.862419 -0.89886,-2.307886 v 0 q 0,-1.445463 0.89886,-2.326104 0.904933,-0.886713 2.398985,-0.886713 v 0 q 1.445465,0 2.350398,0.886713 0.904934,0.880641 0.904934,2.326104 v 0 q 0,1.445467 -0.904934,2.307886 -0.904933,0.856346 -2.350398,0.856346 z M 42.97562,43.833255 h -5.289915 v -18.94895 q 0,-4.384982 1.536565,-7.324498 1.536566,-2.939517 4.093459,-4.409275 2.55082,-1.469757 5.630025,-1.469757 v 0 q 1.670179,0 3.115644,0.406916 1.451538,0.406916 2.714801,1.445464 v 0 l -2.392912,3.75335 q -1.178235,-1.038548 -2.374692,-1.487978 -1.20253,-0.455504 -2.241078,-0.455504 v 0 q -1.263263,0 -2.168197,0.473723 -0.904933,0.473725 -1.494051,1.45154 -0.589119,0.971741 -0.86242,2.508306 -0.267229,1.536566 -0.267229,3.662248 v 0 z m 6.553178,-15.602517 -15.238114,-0.0911 0.315817,-2.982031 15.244187,-0.364403 z" />
</svg>
