<?xml version="1.0" encoding="UTF-8" standalone="no"?>
<svg
   width="100"
   height="100"
   version="1.1"
   id="svg1"
   viewBox="0 0 100 100"
   sodipodi:docname="Vox-ATypI-didone.svg"
   inkscape:version="1.3 (0e150ed, 2023-07-21)"
   xmlns:inkscape="http://www.inkscape.org/namespaces/inkscape"
   xmlns:sodipodi="http://sodipodi.sourceforge.net/DTD/sodipodi-0.dtd"
   xmlns="http://www.w3.org/2000/svg"
   xmlns:svg="http://www.w3.org/2000/svg">
  <defs
     id="defs1" />
  <sodipodi:namedview
     id="namedview1"
     pagecolor="#ffffff"
     bordercolor="#000000"
     borderopacity="0.25"
     inkscape:showpageshadow="2"
     inkscape:pageopacity="0.0"
     inkscape:pagecheckerboard="0"
     inkscape:deskcolor="#d1d1d1"
     inkscape:zoom="3.4940693"
     inkscape:cx="71.97911"
     inkscape:cy="37.635201"
     inkscape:window-width="1800"
     inkscape:window-height="1097"
     inkscape:window-x="0"
     inkscape:window-y="44"
     inkscape:window-maximized="1"
     inkscape:current-layer="svg1" />
  <path
     d="m 13.06384,52.879716 h -1.11 v -9.58 h 1.31 q 0.36,2.26 1.79,4.12 1.42,1.85 3.52,2.96 2.1,1.12 4.53,1.12 v 0 q 1.83,0 3.47,-0.59 1.64,-0.59 2.66,-1.8 1.01,-1.22 1.01,-3.15 v 0 q 0,-2.07 -1.24,-3.28 -1.25,-1.21 -3.23,-1.98 -1.98,-0.77 -4.2,-1.51 -2.21,-0.74 -4.19,-1.79 -1.99,-1.05 -3.25,-2.79 -1.26,-1.73 -1.26,-4.62 v 0 q 0,-2.1 0.95,-4.05 0.95,-1.95 2.92,-3.21 1.96,-1.26 5.08,-1.26 v 0 q 2.23,0 4.1,0.73 1.87,0.74 3.28,1.92 v 0 l 2.45,-2.69 h 1.15 v 9.15 h -1.31 q -0.16,-1.93 -1.43,-3.7 -1.26,-1.77 -3.36,-2.92 -2.09,-1.15 -4.82,-1.15 v 0 q -1.57,0 -2.85,0.54 -1.28,0.54 -2.06,1.56 -0.79,1.02 -0.79,2.43 v 0 q 0,1.8 1.33,2.93 1.32,1.13 3.39,1.95 2.07,0.82 4.39,1.62 2.33,0.81 4.41,1.94 2.09,1.13 3.4,2.88 1.31,1.76 1.31,4.48 v 0 q 0,2.92 -1.43,5.11 -1.42,2.2 -3.85,3.41 -2.43,1.22 -5.51,1.22 v 0 q -2.26,0 -4.29,-0.79 -2.04,-0.79 -3.61,-2.13 v 0 z"
     id="path9" />
  <path
     id="path4"
     d="M 20.431043,99.02 H 19.213985 L 6.1975,57.104848 H 0.82 V 56 h 40.301039 v 1.104848 H 27.310445 L 37.60797,90.466064 49.26929,57.104848 H 43.978106 V 56 h 11.065738 v 1.104848 H 50.512243 L 35.881645,99.02 H 34.664587 L 21.648102,57.104848 h -9.788258 l 10.357945,33.361216 5.826344,-16.356923 0.595582,1.924852 z M 36.339121,56.768214 31.324149,71.709551 30.366039,70.829125 35.147958,56.448844 Z M 58.297966,99.02 v 0 q -3.625281,0 -6.525506,-1.631376 -2.900225,-1.622745 -4.609286,-4.669707 -1.717692,-3.038331 -1.717692,-7.285089 v 0 q 0,-4.246757 1.614113,-7.285088 1.614113,-3.046962 4.428021,-4.661075 2.822541,-1.614114 6.473716,-1.614114 v 0 q 4.10002,0 6.551401,1.631377 2.442749,1.622745 3.530333,4.289916 1.096216,2.658539 1.096216,5.740028 v 0 H 49.26929 v -1.104848 h 13.871015 q 0,-1.415586 -0.155369,-3.055594 -0.155369,-1.640008 -0.664635,-3.098752 -0.509266,-1.458744 -1.54506,-2.390959 -1.035795,-0.932215 -2.813909,-0.932215 v 0 q -2.037062,0 -3.340437,1.035795 -1.303375,1.027163 -2.037063,2.788013 -0.742319,1.752219 -1.018531,3.987809 -0.284843,2.23559 -0.284843,4.669707 v 0 q 0,2.434118 0.328001,4.652444 0.31937,2.226958 1.130743,3.953283 0.80274,1.726324 2.235589,2.744855 1.424218,1.018532 3.633913,1.018532 v 0 q 3.789282,0 6.197504,-1.91622 2.408222,-1.907589 3.478543,-4.825077 v 0 h 1.27748 Q 68.457384,94.488399 65.686633,96.749884 62.907251,99.02 58.297966,99.02 Z m 35.99386,0 v 0 q -1.32927,0 -2.442749,-0.466107 -1.122111,-0.47474 -1.795377,-1.562324 -0.681898,-1.087584 -0.681898,-2.926119 v 0 -12.852484 q 0,-2.037063 -0.336633,-3.901493 -0.345265,-1.873062 -1.432849,-3.055594 -1.087585,-1.191164 -3.349069,-1.191164 v 0 q -1.27748,0 -2.649908,0.284844 -1.372428,0.284843 -2.546328,0.863162 -1.173901,0.578318 -1.907589,1.458744 -0.742319,0.871794 -0.742319,2.062957 v 0 h -1.32927 q 0,-1.44148 0.949479,-2.278748 0.949478,-0.837267 2.08022,-0.837267 v 0 q 1.217059,0 2.218327,0.785478 1.0099,0.776845 1.0099,2.218326 v 0 q 0,1.70043 -1.035795,2.460012 -1.035795,0.768215 -2.192432,0.768215 v 0 q -1.303375,0 -2.192432,-0.79411 -0.889057,-0.794109 -0.889057,-2.321906 v 0 q 0,-1.329269 0.863163,-2.390959 0.863162,-1.061689 2.321906,-1.81264 1.450112,-0.750951 3.280016,-1.156638 1.821272,-0.414317 3.746123,-0.414317 v 0 q 3.910125,0 5.843608,1.363796 1.942115,1.355164 2.589486,3.478543 0.656003,2.123379 0.656003,4.410759 v 0 13.922805 q 0,0.940846 0.31937,1.588218 0.328002,0.647371 1.372428,0.647371 v 0 q 0.74232,0 1.631377,-0.604213 0.889057,-0.612845 1.372427,-1.54506 v 0 l 0.535161,1.018531 Q 98.823427,97.431782 97.494157,98.225891 96.164888,99.02 94.291826,99.02 Z m -13.180486,0 v 0 q -3.685702,0 -5.878134,-1.881693 -2.192431,-1.881694 -2.192431,-5.10992 v 0 q 0,-3.797913 3.254121,-5.955819 3.254121,-2.166537 9.287624,-2.166537 v 0 h 6.421926 v 0.95811 H 85.58252 q -2.494538,0 -4.022335,1.053058 -1.527797,1.044426 -2.23559,2.598118 -0.707793,1.562324 -0.707793,3.116015 v 0 q 0,1.415586 0.440213,2.718961 0.440212,1.294743 1.372427,2.149274 0.932215,0.845899 2.434118,0.845899 v 0 q 1.553691,0 3.055593,-1.027163 1.501902,-1.035795 2.477276,-3.090121 0.975373,-2.054326 0.975373,-5.135814 v 0 h 0.647371 q 0,3.228226 -1.027162,5.688238 -1.035795,2.460012 -3.012436,3.849703 Q 83.994302,99.02 81.11134,99.02 Z"
     style="stroke-width:0.999999" />
  <path
     id="path10"
     d="m 41.99384,10.614848 v 0 q -1.64,0 -2.79,-1.16 -1.15,-1.17 -1.15,-2.81 v 0 q 0,-1.6 1.15,-2.77 1.15,-1.16 2.79,-1.16 v 0 q 1.6,0 2.77,1.16 1.16,1.17 1.16,2.77 v 0 q 0,1.64 -1.15,2.81 -1.14,1.16 -2.78,1.16 z m -7.25,11.61 h 10.17 v 28.88 h 4.29 v 1.28 h -14.46 v -1.28 h 4.26 v -27.6 h -4.26 z" />
  <path
     d="m 79.303844,17.204848 h 18.69 v 1.28 h -5.9 v 46.62 h 5.9 v 1.28 h -18.69 v -1.28 h 6.56 v -22.33 h -21.61 v 22.33 h 6.52 v 1.28 h -18.68 v -1.28 h 5.9 v -46.62 h -5.9 v -1.28 h 18.68 v 1.28 h -6.52 v 22.98 h 21.61 v -22.98 h -6.56 z"
     id="path1" />
</svg>
