<?xml version="1.0" encoding="UTF-8" standalone="no"?>
<svg
   width="100"
   height="100"
   version="1.1"
   id="svg1"
   viewBox="0 0 100 100"
   sodipodi:docname="Vox-ATypI-humanist serif.svg"
   inkscape:version="1.3 (0e150ed, 2023-07-21)"
   xmlns:inkscape="http://www.inkscape.org/namespaces/inkscape"
   xmlns:sodipodi="http://sodipodi.sourceforge.net/DTD/sodipodi-0.dtd"
   xmlns="http://www.w3.org/2000/svg"
   xmlns:svg="http://www.w3.org/2000/svg">
  <defs
     id="defs1" />
  <sodipodi:namedview
     id="namedview1"
     pagecolor="#ffffff"
     bordercolor="#000000"
     borderopacity="0.25"
     inkscape:showpageshadow="2"
     inkscape:pageopacity="0.0"
     inkscape:pagecheckerboard="0"
     inkscape:deskcolor="#d1d1d1"
     inkscape:zoom="2.36"
     inkscape:cx="36.652542"
     inkscape:cy="49.788136"
     inkscape:window-width="1800"
     inkscape:window-height="1097"
     inkscape:window-x="0"
     inkscape:window-y="44"
     inkscape:window-maximized="1"
     inkscape:current-layer="svg1" />
  <path
     id="path5"
     d="m 28.853332,57.770647 4.914437,0.04643 4.629253,-0.04643 q 2.367684,0 4.165002,-0.185701 v 0 q 0.232126,0.278551 0.232126,0.895343 v 0 l -0.04642,0.285183 q -1.134101,0.378034 -1.697835,1.226951 v 0 q -0.948401,1.226952 -6.526054,11.440491 v 0 l 6.19444,15.267252 5.531229,-13.993876 q 3.966036,-9.974781 4.489978,-13.423509 v 0 q -0.901975,-0.1857 -3.594636,-0.1857 v 0 q -0.139275,-0.238758 -0.139275,-0.689746 0,-0.444355 0.139275,-0.775963 v 0 q 3.117119,0.139275 5.272574,0.139275 2.148823,0 4.509875,-0.378034 v 0 q 0.238758,0.285184 0.238758,0.802493 v 0 l -0.04642,0.378033 q -1.280009,0.470884 -2.20188,1.419284 -0.921872,0.948401 -2.334524,3.594636 -1.419284,2.646235 -2.175351,4.397127 v 0 L 39.58418,93.650678 H 38.775056 L 31.592417,76.115225 23.129771,93.650678 H 22.327278 L 12.398922,69.118287 Q 9.6134114,62.028499 7.9553693,60.085274 v 0 Q 7.1993021,59.236356 4.6459172,58.573139 v 0 q -0.046425,-0.1857 -0.046425,-0.563734 0,-0.378033 0.2387581,-0.616792 v 0 q 3.0242688,0.378034 6.5194217,0.378034 3.501785,0 7.374971,-0.139275 v 0 q 0.09948,0.1857 0.09948,0.656584 v 0 l -0.09948,0.809125 q -2.739086,0 -3.873186,0.04642 v 0 q 0.285183,4.065519 3.919611,13.562784 v 0 l 5.484803,13.993876 6.380146,-12.859775 -1.890168,-4.722104 q -2.878361,-7.18927 -4.158369,-9.125864 v 0 q -0.563735,-0.802492 -2.221777,-1.226951 v 0 q -0.04642,-0.09948 -0.04642,-0.477516 0,-0.378033 0.192333,-0.70301 v 0 q 2.268202,0.185701 6.333721,0.185701 z m 5.007287,1.326434 -3.733911,0.139275 q 0.192333,2.931419 3.355877,10.39924 v 0 q 3.926244,-8.794255 4.204795,-10.39924 v 0 q -2.122294,-0.139275 -3.826761,-0.139275 z m 28.637703,30.24932 v 0 q 3.873187,0 6.851029,-2.075869 v 0 q 0.663217,0.232126 0.756067,0.988193 v 0 l -5.100136,3.594635 q -1.140733,0.895343 -5.060345,0.895343 -3.926243,0 -6.665329,-3.521681 -2.745718,-3.521682 -2.745718,-8.907002 0,-5.391953 2.984476,-8.509072 2.977844,-3.11712 7.089788,-4.06552 v 0 q 3.588003,0 6.333721,2.407477 v 0 q 1.651409,1.419284 2.314625,3.687486 v 0 q 0.139276,0.570367 1.326434,0.616792 v 0 q 0.278551,0.331608 0.278551,0.683113 0,0.358137 -0.09285,0.736171 v 0 q -8.316738,1.936593 -16.354926,2.69266 v 0 q 0,6.05517 3.355877,9.079439 v 0 q 1.890168,1.697835 4.728736,1.697835 z m 2.977844,-14.418334 v 0 q 0.232126,-0.139276 0.232126,-0.351505 0,-0.21223 -0.590263,-1.326434 -0.590263,-1.107572 -2.055973,-2.361052 -1.465709,-1.25348 -3.070693,-1.25348 -1.604985,0 -2.361052,0.470884 v 0 q -2.652868,1.797318 -3.030901,6.526054 v 0 q 2.553384,0 5.816411,-0.543838 3.263027,-0.543838 5.060345,-1.160629 z m 25.951673,-0.331609 v 0 l -0.145907,11.539973 q 0,3.448728 2.221776,3.448728 v 0 l 1.704467,-0.04642 q 0.192333,0.232126 0.192333,0.756067 v 0 l -0.09948,0.517309 q -3.641061,0.663217 -5.19962,1.936593 v 0 q -1.041251,-0.278551 -1.770789,-1.299905 -0.736171,-1.014722 -0.829021,-2.148822 v 0 q -3.780336,2.314626 -7.514247,3.448727 v 0 q -1.604985,0 -3.309452,-1.817214 -1.704467,-1.817214 -1.704467,-4.562932 v 0 q 0,-1.366227 0.616791,-2.480431 0.616792,-1.107572 1.465709,-1.538663 v 0 q 3.495153,-1.74426 10.399241,-3.070694 v 0 -4.489978 q 0,-2.59981 -0.829022,-3.873186 -0.822388,-1.280009 -1.983018,-1.280009 -1.160629,0 -2.480431,0.404563 -1.326434,0.39793 -1.870271,1.53203 -0.543838,1.134101 -0.543838,3.216602 v 0 q 0,0.185701 -0.636688,0.404562 -0.636688,0.21223 -1.604985,0.21223 -0.968297,0 -1.326434,-0.450988 -0.351505,-0.450987 -0.351505,-1.34633 v 0 q 0,-1.704467 2.453903,-3.687485 v 0 q 0.570366,-0.378034 3.33598,-1.280009 2.765615,-0.895343 3.190073,-0.895343 v 0 q 3.402303,0 5.007287,1.983019 1.611617,1.98965 1.611617,4.868011 z M 79.184857,86.136431 q 0,1.134101 0.895342,2.453903 0.901975,1.326433 2.055972,1.326433 1.16063,0 2.672764,-0.802492 1.512135,-0.809125 2.50696,-1.704467 v 0 q 0.139276,-2.785511 0.139276,-6.426572 v 0 q -3.972669,0.51731 -6.996938,2.268202 v 0 q -1.273376,0.61016 -1.273376,2.884993 z"
     style="stroke-width:0.999998" />
  <path
     d="m 18.354948,49.593183 v 0 l -3.972669,-0.139275 q -3.687486,0 -6.6653296,0.378033 v 0 Q 7.4848235,49.546758 7.4848235,49.029449 v 0 l 0.046425,-0.378034 q 1.9365932,-0.424458 2.6197065,-1.299905 0.689746,-0.875446 1.041251,-2.884993 0.358137,-2.009547 0.358137,-14.822896 v 0 -12.097075 q 0,-4.304278 -0.994825,-5.246046 v 0 q -0.51731,-0.523941 -1.3264344,-0.616791 v 0 L 7.5312487,11.491376 Q 7.385341,11.25925 7.385341,10.901113 q 0,-0.351505 0.1459077,-0.590263 v 0 Q 10.887126,9.70069 12.730869,8.798716 v 0 q 1.226951,-0.61016 2.78551,-1.65141 v 0 q 0.477517,0 0.756068,0.470884 v 0 q -0.941768,5.909262 -0.941768,22.171339 v 0 q 6.002112,-3.309452 9.596747,-4.397128 v 0 q 3.070694,0 4.629254,2.268202 1.55856,2.268201 1.55856,6.101594 v 0 l -0.09285,6.048538 q 0,8.084613 0.709642,8.203992 0.709642,0.112747 2.792142,0.112747 v 0 q 0.1857,0.331609 0.1857,0.616792 0,0.285183 -0.1857,0.848917 v 0 l -4.350701,-0.139275 q -3.926244,0 -6.240871,0.378033 v 0 q -0.285183,-0.378033 -0.285183,-0.802492 v 0 l 0.09948,-0.378034 q 1.936594,-0.424458 2.59981,-1.280008 0.656585,-0.848918 0.775964,-2.029444 0.119379,-1.180526 0.119379,-4.775161 0,-3.594635 -0.02653,-4.470081 -0.0199,-0.868814 -0.139276,-2.268202 -0.119379,-1.392755 -0.424459,-2.128926 -0.30508,-0.729538 -0.782596,-1.532031 v 0 q -0.941768,-1.465709 -3.355877,-1.465709 v 0 q -2.407477,0 -5.338895,1.936593 v 0 q -0.424459,0.238758 -1.087676,0.683113 -0.663217,0.450988 -0.756067,0.497413 v 0 q -0.04642,2.367684 -0.04642,5.013919 v 0 q 0,10.91655 0.590263,11.108882 0.590263,0.185701 2.480431,0.185701 v 0 q 0.139275,0.331609 0.139275,0.756067 0,0.431091 -0.139275,0.709642 z"
     id="path4"
     style="stroke-width:0.999998" />
  <path
     d="m 82.461148,57.670362 v 0 l -7.753005,-0.139275 q -5.100138,0 -8.456014,0.378033 v 0 q -0.238758,-0.285183 -0.238758,-0.802492 v 0 l 0.04643,-0.378034 q 3.263025,-0.523941 4.304276,-1.34633 1.04125,-0.829021 1.366226,-2.719189 v 0 q 0.663217,-3.501785 0.663217,-11.725674 0,-8.223889 -0.185701,-11.486915 -0.192332,-3.263027 -0.477516,-4.06552 v 0 Q 70.549773,25.15284 68.851938,25.15284 v 0 q -3.972667,0 -6.194444,1.034619 v 0 l -2.082501,5.19962 q -1.087675,0 -1.604984,-0.378034 v 0 l 0.756067,-7.321914 q 0,-0.523941 0.802492,-0.523941 v 0 l 8.32337,0.331608 h 11.579766 l 9.072807,-0.331608 q 0.855549,0 0.855549,0.523941 v 0 q -0.756067,4.15837 -0.756067,7.607097 v 0 q -0.378033,0.192333 -0.9484,0.192333 -0.563734,0 -0.895343,-0.192333 v 0 q -0.855549,-4.682311 -0.9484,-5.106769 v 0 Q 84.450798,25.15284 80.338854,25.15284 v 0 q -1.843743,0 -2.977844,0.232126 v 0 q -0.145907,0.424459 -0.358137,3.926244 -0.212229,3.495153 -0.212229,8.979956 v 0 8.462647 q 0,5.246045 0.756067,9.119231 v 0 q 2.175351,0.331609 4.914437,0.331609 v 0 q 0.145907,0.378033 0.145907,0.829021 0,0.450987 -0.145907,0.636688 z"
     id="path3"
     style="stroke-width:0.999998" />
  <path
     id="path1"
     d="m 49.73803,49.732459 v 0 l -4.25122,-0.139276 q -3.309452,0 -6.24087,0.378034 v 0 q -0.285183,-0.378034 -0.285183,-0.802492 v 0 l 0.09285,-0.378034 q 2.036076,-0.477516 2.745718,-1.465709 v 0 q 0.517309,-0.756067 0.802492,-1.823846 0.278551,-1.061147 0.278551,-6.121492 v 0 -4.536403 q 0,-2.931419 -0.258655,-4.065519 -0.258654,-1.134101 -0.775963,-1.512135 -0.523942,-0.378033 -1.372859,-0.470884 v 0 l -1.750893,-0.145907 q -0.139275,-0.185701 -0.139275,-0.61016 v 0 l 0.139275,-0.616792 q 2.460535,-0.517309 3.999198,-1.061146 1.532031,-0.543838 3.614532,-1.585089 v 0 q 0.517309,0 0.709642,0.563735 v 0 q -0.570367,3.216601 -0.570367,15.320309 v 0 q 0,2.175351 0.165805,4.795057 0.165804,2.626339 0.450987,2.672764 v 0 q 0.709642,0.139276 2.646235,0.139276 v 0 q 0.139276,0.331608 0.139276,0.756067 0,0.431091 -0.139276,0.709642 z M 45.294477,19.383656 v 0 Q 43.59001,18.20313 42.880368,16.266537 v 0 q 0.570367,-0.663217 1.538663,-1.392755 0.968297,-0.736171 1.677939,-1.021354 v 0 q 1.797317,1.326434 2.314627,3.170176 v 0 q -1.319802,1.704468 -3.11712,2.361052 z"
     style="stroke-width:0.999998" />
</svg>
