<?xml version="1.0" encoding="UTF-8" standalone="no"?>
<svg
   width="100"
   height="100"
   version="1.1"
   id="svg1"
   viewBox="0 0 100 100"
   sodipodi:docname="Vox-ATypI-mechanistic.svg"
   inkscape:version="1.3 (0e150ed, 2023-07-21)"
   xmlns:inkscape="http://www.inkscape.org/namespaces/inkscape"
   xmlns:sodipodi="http://sodipodi.sourceforge.net/DTD/sodipodi-0.dtd"
   xmlns="http://www.w3.org/2000/svg"
   xmlns:svg="http://www.w3.org/2000/svg">
  <defs
     id="defs1" />
  <sodipodi:namedview
     id="namedview1"
     pagecolor="#ffffff"
     bordercolor="#000000"
     borderopacity="0.25"
     inkscape:showpageshadow="2"
     inkscape:pageopacity="0.0"
     inkscape:pagecheckerboard="0"
     inkscape:deskcolor="#d1d1d1"
     inkscape:zoom="2.8471229"
     inkscape:cx="82.012618"
     inkscape:cy="96.764352"
     inkscape:window-width="1800"
     inkscape:window-height="1097"
     inkscape:window-x="0"
     inkscape:window-y="44"
     inkscape:window-maximized="1"
     inkscape:current-layer="svg1" />
  <path
     style="stroke-width:1"
     d="M 73.188203,17.099649 V 12.630254 H 83.80373 v 21.231055 h 2.792655 v 4.469394 H 73.188203 v -4.469394 h 2.792655 v -16.76166 z"
     id="path18" />
  <path
     style="stroke-width:1"
     d="m 76.730526,9.6487505 q -1.310489,-1.310488 -1.310489,-3.164629 0,-1.859863 1.310489,-3.164628 1.304765,-1.304766 3.164628,-1.304766 1.854141,0 3.158907,1.304766 1.310488,1.304765 1.310488,3.164628 0,1.854141 -1.310488,3.164629 -1.304766,1.3047655 -3.158907,1.3047655 -1.859863,0 -3.164628,-1.3047655 z"
     id="path17" />
  <path
     style="stroke-width:1"
     d="m 43.195762,46.949023 v 0 q -0.738223,-1.115918 -0.738223,-2.472187 v 0 q 0,-1.859863 1.304766,-3.164629 1.310488,-1.304766 3.164629,-1.304766 1.859863,0 3.164629,1.304766 1.304765,1.304766 1.304765,3.164629 v 0 q 0,0.389141 -0.06867,0.755391 v 0 q 0.05723,0.01145 0.09729,0.01145 v 0 q 1.007187,0 2.460743,-3.324863 v 0 l 1.047246,-2.403516 -9.848691,-22.415644 h -2.6267 v -4.469395 h 15.645742 v 4.469395 h -4.5953 l 4.429337,10.054707 q 0.846953,1.985761 1.224649,3.353476 v 0 q 0.377695,-1.367715 1.230371,-3.353476 v 0 l 4.412168,-10.054712 h -3.908575 v -4.469395 h 11.731446 v 4.469395 h -2.958613 l -9.333653,21.231054 q -0.726777,1.648125 -1.304765,2.84416 -0.577989,1.190313 -1.299043,2.426407 -0.721055,1.236093 -1.390606,2.088769 -0.669551,0.852676 -1.516504,1.619512 -0.84123,0.772558 -1.751132,1.224648 -0.909903,0.45209 -2.008653,0.70961 -1.104472,0.263242 -2.374902,0.263242 v 0 q -1.190313,0 -2.094492,-0.188848 -0.909903,-0.188848 -1.545117,-0.56082 -0.635215,-0.371973 -1.052969,-0.795449 -0.423477,-0.4292 -0.801173,-1.012911 z"
     id="path16" />
  <path
     style="stroke-width:1"
     d="m 33.842012,12.069434 v 0 q 1.957148,0 3.422148,0.532207 1.465,0.532207 2.403516,1.459277 0.932793,0.927071 1.516504,2.357735 0.577988,1.436386 0.806894,3.073066 0.234629,1.642402 0.234629,3.754062 v 0 10.615528 h 2.792657 v 4.469394 H 31.610176 v -4.469394 h 2.792656 V 22.684961 q 0,-2.203222 -0.400586,-3.433594 -0.394863,-1.230371 -1.144531,-1.693906 -0.749668,-0.457812 -2.031543,-0.457812 v 0 q -1.173144,0 -2.403515,0.990019 -1.23037,0.99002 -2.334844,2.764043 v 0 l -0.06867,13.007598 h 2.792656 v 4.469394 H 15.403614 v -4.469394 h 2.792656 v -16.76166 h -2.792656 v -4.469395 h 8.675547 l 1.957148,3.782676 q 0.515039,-0.932793 1.190312,-1.682461 0.680997,-0.743945 1.625235,-1.367715 0.938515,-0.623769 2.208945,-0.955683 1.276152,-0.337637 2.781211,-0.337637 z"
     id="path11" />
  <path
     id="path14"
     style="stroke-width:1"
     d="m 77.897774,56.664858 v 0 q 0,-1.951266 1.373113,-3.330401 1.373113,-1.373113 3.330402,-1.373113 v 0 q 0.734735,0 1.439359,0.222829 v 0 q 0.909386,0.277032 1.595943,0.734736 0.680534,0.451682 1.108126,0.999723 0.427591,0.542018 0.692579,1.252664 0.264986,0.716669 0.361345,1.427315 0.09636,0.716669 0.09636,1.583898 v 0 q 0,0.891319 -0.355323,1.878996 -0.355323,0.981656 -0.933477,1.86093 -0.578152,0.873251 -1.264709,1.632077 -0.680534,0.752803 -1.403225,1.330956 v 0 q 2.192164,2.156028 2.192164,5.305756 v 0 q 0,2.348746 -1.023814,4.179563 -1.023811,1.830818 -2.812471,2.957011 -1.794683,1.120171 -4.095249,1.698324 -2.300567,0.57213 -5.004635,0.57213 v 0 q -2.23432,0 -4.281945,-0.499861 v 0 q -1.336979,0.204763 -2.053647,0.716669 -0.722691,0.517928 -0.722691,0.957565 v 0 q 0,0.439637 0.367368,0.807005 0.367368,0.367368 0.807004,0.367368 v 0 h 8.232656 q 6.221165,0 8.991481,1.782638 2.770316,1.776615 2.770316,5.865842 v 0 q 0,1.969333 -0.487817,3.577321 -0.481794,1.607987 -1.31289,2.746225 -0.831093,1.138239 -2.053646,2.017513 -1.216529,0.873251 -2.553508,1.403225 -1.336978,0.529973 -2.987123,0.849158 -1.644122,0.32522 -3.185862,0.45169 -1.547764,0.12647 -3.294267,0.12647 v 0 q -2.794405,0 -5.052815,-0.61429 -2.252387,-0.608266 -3.703791,-1.668213 -1.445382,-1.059946 -2.222275,-2.433059 -0.782915,-1.373113 -0.782915,-2.932921 v 0 q 0,-3.185863 3.661634,-4.980546 v 0 q -1.427315,-0.722691 -2.252387,-1.975355 -0.81905,-1.258687 -0.81905,-3.035303 v 0 q 0,-1.9874 1.144261,-3.60141 1.150283,-1.620032 3.089504,-2.354768 v 0 q -1.722415,-1.222552 -2.686003,-2.969056 -0.963588,-1.746503 -0.963588,-4.010935 v 0 q 0,-1.885019 0.668489,-3.384603 0.674511,-1.499583 1.81275,-2.487261 1.138238,-0.9937 2.734181,-1.650145 1.595942,-0.650421 3.354491,-0.933475 1.764571,-0.277032 3.782083,-0.277032 v 0 q 4.643289,0 7.919489,1.529696 v 0 q 0.752803,-0.867229 1.162328,-1.632077 v 0 q -1.83684,-0.120449 -3.107571,-1.469472 -1.270732,-1.355046 -1.270732,-3.221997 z m -4.408415,9.407028 v 0 q -2.077737,0 -3.246088,1.19244 -1.168349,1.19244 -1.168349,3.438805 v 0 q 0,2.264431 1.180394,3.523118 1.174373,1.252665 3.234043,1.252665 v 0 q 2.041601,0 3.221997,-1.270732 1.186418,-1.270732 1.186418,-3.505051 v 0 q 0,-2.216253 -1.174373,-3.42676 -1.180396,-1.204485 -3.234042,-1.204485 z m 3.818218,22.933394 h -8.304924 q -1.692303,1.204485 -1.692303,2.938944 v 0 q 0,1.752526 1.090059,2.342723 1.090059,0.59622 4.203653,0.59622 v 0 q 7.058283,0 7.058283,-3.529141 v 0 q 0,-0.879274 -0.734736,-1.61401 -0.734736,-0.734736 -1.620032,-0.734736 z" />
  <path
     style="stroke-width:1"
     d="M 8.1049995,57.255055 V 52.551541 H 26.919055 v 4.703514 h -3.529141 l 4.854075,15.182534 q 0.734736,2.276477 1.318911,5.396093 v 0 q 0.590198,-3.101549 1.324933,-5.396093 v 0 l 4.854075,-15.182534 h -5.293712 v -4.703514 h 18.814056 v 4.703514 h -4.113316 l 4.848052,15.182534 q 0.734736,2.276477 1.324933,5.396093 v 0 q 0.590198,-3.101549 1.324934,-5.396093 v 0 l 4.848052,-15.182534 h -4.703514 v -4.703514 h 14.70074 v 4.703514 H 63.372794 L 51.514639,89.00528 H 45.835493 L 38.813345,70.191224 q -0.79496,-2.131938 -1.01779,-3.529141 v 0 q -0.216807,1.397203 -1.011767,3.529141 v 0 L 29.755617,89.00528 H 24.082493 L 12.218315,57.255055 Z"
     id="path1" />
</svg>
