<?xml version="1.0" encoding="UTF-8" standalone="no"?>
<svg
   width="100"
   height="100"
   version="1.1"
   id="svg1"
   viewBox="0 0 100 100"
   sodipodi:docname="Vox-ATypI-geralde.svg"
   inkscape:version="1.3 (0e150ed, 2023-07-21)"
   xmlns:inkscape="http://www.inkscape.org/namespaces/inkscape"
   xmlns:sodipodi="http://sodipodi.sourceforge.net/DTD/sodipodi-0.dtd"
   xmlns="http://www.w3.org/2000/svg"
   xmlns:svg="http://www.w3.org/2000/svg">
  <defs
     id="defs1" />
  <sodipodi:namedview
     id="namedview1"
     pagecolor="#ffffff"
     bordercolor="#000000"
     borderopacity="0.25"
     inkscape:showpageshadow="2"
     inkscape:pageopacity="0.0"
     inkscape:pagecheckerboard="0"
     inkscape:deskcolor="#d1d1d1"
     inkscape:zoom="3.362133"
     inkscape:cx="48.034982"
     inkscape:cy="31.97375"
     inkscape:window-width="1800"
     inkscape:window-height="1097"
     inkscape:window-x="0"
     inkscape:window-y="44"
     inkscape:window-maximized="1"
     inkscape:current-layer="svg1" />
  <path
     id="path6"
     d="m 61.371271,97.361584 v 0 q -3.365417,0 -5.883485,-1.646737 -2.510073,-1.65473 -3.916993,-4.692398 -1.406921,-3.029675 -1.406921,-7.01062 v 0 q 0,-3.55727 1.622755,-6.467037 1.622755,-2.901773 4.316687,-4.684405 2.693933,-1.774638 5.883485,-1.774638 v 0 q 2.446122,0 4.348662,0.983246 1.894546,0.975251 2.965724,2.725908 1.071181,1.742662 1.071181,4.01292 v 0 q 0,1.894546 -1.830598,1.894546 v 0 h -12.92608 q -0.863337,0 -1.199079,0.463644 -0.335743,0.45565 -0.335743,1.806614 v 0 q 0,2.933748 1.287013,5.355889 1.287012,2.422141 3.429368,3.861037 2.142355,1.438896 4.71638,1.438896 v 0 q 1.838589,0 3.341436,-0.703461 1.502846,-0.70346 2.66196,-2.054423 v 0 q 0.24781,-0.303767 0.367718,-0.399693 0.119908,-0.08793 0.303766,-0.08793 v 0 q 0.49562,0 0.49562,0.607534 v 0 q 0,1.167104 -1.103153,2.574025 v 0 q -0.919298,1.167104 -2.20631,2.022447 -1.287013,0.855344 -2.821835,1.318988 -1.526828,0.455651 -3.181558,0.455651 z M 55.735596,78.807823 v 0 h 5.571724 q 1.470871,0 2.510074,-0.06395 1.047196,-0.06395 2.022448,-0.24781 v 0 q 0.31176,-0.05596 0.399693,-0.399693 0.09593,-0.335742 0.09593,-0.943276 v 0 q 0,-1.782632 -1.566797,-3.037669 -1.558804,-1.255037 -3.70116,-1.255037 v 0 q -1.414914,0 -2.821834,0.831362 -1.40692,0.823368 -2.326215,2.04643 -0.919294,1.231055 -0.919294,2.454116 v 0 q 0,0.615528 0.735435,0.615528 z m 23.645856,18.497803 v 0 q -1.103153,0 -2.238282,-0.863337 -1.135129,-0.855344 -1.894546,-2.078405 -0.767411,-1.223061 -0.767411,-2.326215 v 0 q 0,-1.958497 1.039202,-3.06165 1.039203,-1.103153 3.30946,-2.022448 v 0 l 6.251203,-2.574024 q 1.223061,-0.487626 1.438896,-0.855344 0.20784,-0.367718 0.271791,-1.598773 v 0 l 0.119908,-3.916994 q 0.06395,-1.590779 -0.887319,-2.757883 -0.943276,-1.159111 -2.725908,-1.159111 v 0 q -0.919294,0 -1.838589,0.303767 -0.919294,0.303767 -1.526828,0.791393 v 0 q -0.367718,0.24781 -0.487626,0.735436 -0.127902,0.495619 -0.127902,1.047196 v 0 q 0,0.239816 0.03198,0.551577 0.03198,0.303766 0.03198,0.551576 v 0 q 0,0.303767 -0.767411,0.823368 -0.767411,0.519602 -1.710687,0.919295 -0.95127,0.399693 -1.566798,0.399693 v 0 q -0.303766,0 -0.487625,-0.151883 -0.183859,-0.151884 -0.183859,-0.399694 v 0 q 0,-0.983245 0.639509,-2.118374 0.647503,-1.127135 1.806614,-2.11038 v 0 q 1.414914,-1.287012 3.06165,-2.262264 1.65473,-0.983245 3.253503,-1.534822 1.590779,-0.551577 2.81384,-0.551577 v 0 q 2.206307,0 3.645203,1.558804 1.438895,1.566797 1.374945,3.893012 v 0 l -0.303767,14.700718 q -0.06395,1.287012 0.583552,2.086399 0.639509,0.791392 1.622754,0.791392 v 0 q 1.534823,0 2.270258,-0.671484 v 0 q 0.303767,-0.303767 0.487626,-0.303767 v 0 q 0.303767,0 0.487626,0.183859 0.183859,0.183859 0.183859,0.487625 v 0 q 0,0.671485 -0.671485,1.350964 v 0 q -0.983246,0.975251 -2.118374,1.558803 -1.127135,0.583552 -2.110381,0.583552 v 0 q -2.81384,0 -4.46857,-3.189552 v 0 h -0.183859 q -2.022448,1.65473 -3.861037,2.422141 -1.838589,0.767411 -3.797086,0.767411 z m 2.877792,-2.941742 v 0 q 1.223061,0 2.086398,-0.399693 0.855344,-0.399693 1.526829,-1.071178 v 0 q 0.303766,-0.303767 0.519601,-0.823368 0.215834,-0.527595 0.279785,-1.686706 v 0 l 0.119908,-3.005693 q 0.06395,-0.671485 -0.06395,-0.975251 -0.119908,-0.311761 -0.487626,-0.311761 v 0 q -0.119908,0 -0.431668,0.06395 -0.303767,0.06395 -0.791393,0.24781 v 0 q -3.245509,1.15911 -4.500546,2.414147 -1.255037,1.26303 -1.255037,2.302233 v 0 q 0,1.590779 0.943276,2.414147 0.95127,0.831362 2.054424,0.831362 z"
     style="stroke-width:1" />
  <path
     d="m 21.928007,97.425534 v 0 q -0.127901,0 -0.367717,-0.551576 -0.24781,-0.551577 -0.49562,-1.159111 v 0 L 7.8348235,62.508332 Q 7.0993879,60.917553 6.0601855,59.910326 5.0209831,58.895105 3.4302039,58.47143 v 0 Q 2.4469585,58.15967 1.9273573,57.855903 1.4077561,57.552136 1.4077561,57.120467 v 0 q 0,-0.367718 0.4876258,-0.519601 0.4876257,-0.151884 1.2870122,-0.151884 v 0 q 1.4069203,0 2.6619571,0.08793 1.2550367,0.09593 2.7898588,0.09593 v 0 q 1.710687,0 3.245509,-0.06395 1.534822,-0.06395 2.454117,-0.06395 v 0 q 0.791392,0 1.279018,0.151884 0.49562,0.159877 0.49562,0.527595 v 0 q 0,0.423675 -0.49562,0.671485 -0.487626,0.247809 -1.526828,0.551576 v 0 q -0.735436,0.183859 -0.983245,0.767411 -0.239816,0.575559 -0.239816,1.255037 v 0 q 0,0.975252 0.239816,1.806614 0.247809,0.823368 0.247809,0.823368 v 0 q 1.406921,3.55727 2.574025,6.491018 1.15911,2.941742 2.294239,5.66765 1.135129,2.725908 2.390166,5.579718 1.255037,2.845816 2.789859,6.339135 v 0 q 0.303766,0.671485 0.519601,0.607534 0.215834,-0.05596 0.399693,-0.551577 v 0 l 4.772338,-11.822926 q 0.183858,-0.487626 0.279785,-0.823368 0.08793,-0.335743 0.08793,-0.583552 v 0 q 0,-0.367718 -0.119908,-0.767411 -0.119908,-0.3917 -0.367717,-1.007227 v 0 L 25.477284,63.491578 Q 24.685891,61.533081 22.96721,60.214093 21.248529,58.895105 19.65775,58.47143 v 0 q -0.975252,-0.31176 -1.502847,-0.615527 -0.519601,-0.303767 -0.519601,-0.735436 v 0 q 0,-0.367718 0.49562,-0.519601 0.487625,-0.151884 1.287012,-0.151884 v 0 q 0.975251,0 1.86257,0.05596 0.887319,0.06395 1.838589,0.09593 0.95127,0.03197 2.054424,0.03197 v 0 q 1.40692,0 2.598006,-0.06395 1.19908,-0.06395 2.118374,-0.06395 v 0 q 0.791393,0 1.287012,0.151884 0.487626,0.159877 0.487626,0.527595 v 0 q 0,0.487626 -0.615528,0.791393 -0.607533,0.31176 -1.255036,0.679478 -0.63951,0.359724 -0.63951,1.09516 v 0 q 0,0.127902 0.03198,0.24781 0.03197,0.119907 0.08793,0.247809 v 0 q 0.127902,0.239816 0.463645,1.191086 0.335742,0.95127 0.791392,2.118374 0.463644,1.159111 0.887319,2.174332 0.431669,1.007227 0.615528,1.438895 v 0 q 0.303767,0.735436 0.519601,0.759418 0.215834,0.03198 0.583552,-0.759418 v 0 q 0.487626,-1.103153 1.007227,-2.518067 0.527595,-1.40692 0.919295,-2.661957 0.399693,-1.255037 0.527595,-1.742663 v 0 q 0.05596,-0.183859 0.05596,-0.431668 v 0 q 0,-0.735436 -0.551577,-1.103154 -0.551577,-0.367718 -1.135129,-0.70346 -0.575558,-0.335742 -0.575558,-0.823368 v 0 q 0,-0.367718 0.487626,-0.527595 0.487626,-0.151884 1.287012,-0.151884 v 0 q 1.342969,0 1.838589,0.06395 0.487626,0.06395 1.342969,0.06395 v 0 q 1.047197,0 1.782632,-0.09593 0.735436,-0.08793 1.830595,-0.08793 v 0 q 0.799387,0 1.287013,0.151884 0.495619,0.151883 0.495619,0.519601 v 0 q 0,0.431669 -0.495619,0.70346 -0.487626,0.279785 -1.526829,0.519601 v 0 q -1.958497,0.431669 -2.669951,1.039203 -0.70346,0.615528 -1.494852,1.90254 v 0 q -0.311761,0.551576 -0.887319,1.838589 -0.583552,1.287012 -1.231056,2.81384 -0.639509,1.534822 -1.127135,2.885785 v 0 q -0.183858,0.423675 -0.343736,1.223062 -0.151883,0.791392 -0.02398,1.103153 v 0 l 6.307159,16.227546 q 0.119908,0.311761 0.303767,0.183859 0.183859,-0.119908 0.367718,-0.551577 v 0 q 1.534822,-4.036901 3.461343,-10.352055 1.934516,-6.307159 4.012921,-13.349754 v 0 q 0.183859,-0.551577 0.279785,-1.135129 0.08793,-0.583552 0.08793,-1.071178 v 0 q 0,-0.919295 -0.399693,-1.65473 -0.399693,-0.735436 -1.438896,-0.975252 v 0 q -0.607533,-0.183859 -1.318987,-0.495619 -0.70346,-0.303767 -0.70346,-0.735436 v 0 q 0,-0.367718 0.495619,-0.519601 0.487626,-0.151884 1.279019,-0.151884 v 0 q 1.231055,0 2.238282,0.03198 1.015221,0.03197 2.174331,0.03197 v 0 q 1.534822,0 2.941742,-0.09593 1.406921,-0.08793 2.574025,-0.08793 v 0 q 0.791393,0 1.287012,0.151884 0.487626,0.151883 0.487626,0.519601 v 0 q 0,0.431669 -0.487626,0.70346 -0.495619,0.279785 -1.534822,0.519601 v 0 q -1.470871,0.311761 -2.478098,1.255037 -1.015221,0.95127 -1.590779,2.086399 -0.583552,1.135129 -0.95127,2.054423 v 0 L 40.489762,95.770804 q -0.06395,0.24781 -0.367718,0.831362 -0.311761,0.575559 -0.615527,0.575559 v 0 q -0.24781,0 -0.551577,-0.367718 -0.303767,-0.367718 -0.487626,-0.791393 v 0 q -1.598773,-3.677178 -2.757883,-6.586945 -1.167105,-2.909766 -2.238282,-5.851509 -1.071178,-2.941742 -2.54205,-6.491018 v 0 q -0.183858,-0.431669 -0.303766,-0.335742 -0.127902,0.08793 -0.367718,0.70346 v 0 q -1.470871,3.493319 -2.542049,6.187251 -1.071178,2.693933 -2.118374,5.483792 -1.039203,2.781865 -2.326215,6.403085 v 0 q -0.239816,0.607534 -0.607534,1.255037 -0.367718,0.639509 -0.735436,0.639509 z"
     id="path5"
     style="stroke-width:1" />
  <path
     d="m 29.049955,52 v 0 q -1.160056,0 -1.160056,-0.632758 v 0 q 0,-0.519766 1.333312,-0.919006 v 0 q 0.858743,-0.293781 1.642158,-0.753284 0.775882,-0.459503 0.836145,-1.61956 v 0 -28.91856 q 0,-1.559298 -0.519766,-2.741953 -0.519765,-1.182655 -2.0188,-1.408641 v 0 q -0.519766,-0.120525 -0.519766,-0.813546 v 0 q 0,-0.519766 0.459503,-0.693021 v 0 q 0.813547,-0.286248 1.935939,-0.632758 1.122393,-0.346511 2.33518,-0.775882 1.212787,-0.436905 2.139325,-0.836145 v 0 Q 35.739115,11.13436 35.85964,11.13436 v 0 q 0.173255,0 0.286248,0.120526 0.112992,0.112992 0.112992,0.286248 v 0 q 0,0.34651 -0.143124,0.979268 -0.143124,0.632759 -0.256116,2.192056 -0.120525,1.559297 -0.120525,4.677892 v 0 10.041271 q 0,0.926539 0.09039,1.333312 0.08286,0.39924 0.316379,0.806014 v 0 q 0.926539,-0.693021 2.282449,-1.529166 1.355911,-0.836145 3.028201,-1.476436 1.672289,-0.632759 3.465105,-0.632759 v 0 q 2.824813,0 4.70049,2.222187 1.875676,2.222187 1.875676,5.627029 v 0 12.120335 q 0,1.160057 0.753284,1.702421 0.753284,0.549897 1.61956,0.843678 v 0 q 0.632758,0.173255 0.979269,0.369109 0.346514,0.203386 0.346514,0.549897 v 0 Q 55.196432,52 54.043908,52 v 0 q -1.160057,0 -1.762684,-0.08286 -0.61016,-0.09039 -1.152524,-0.143124 -0.549897,-0.06026 -1.589428,-0.06026 v 0 q -0.979269,0 -1.559298,0.06026 -0.580028,0.05273 -1.182655,0.143124 Q 46.187159,52 45.034635,52 v 0 q -1.152524,0 -1.152524,-0.632758 v 0 q 0,-0.399241 0.346511,-0.549897 0.34651,-0.143124 0.979268,-0.369109 v 0 q 0.866277,-0.293781 1.559298,-0.843678 0.693021,-0.542364 0.693021,-1.702421 v 0 -11.773824 q 0,-1.438772 -0.836145,-2.621427 -0.836145,-1.190189 -2.048932,-1.88321 -1.212787,-0.685488 -2.485836,-0.685488 v 0 q -1.092261,0 -2.538566,0.316379 -1.438772,0.31638 -2.252318,0.949138 v 0 q -0.919006,0.753284 -1.235385,1.559297 -0.323912,0.806014 -0.323912,2.598829 v 0 11.713561 q 0.06026,1.160057 0.723152,1.61956 0.66289,0.459503 1.529166,0.753284 v 0 q 0.640291,0.173255 0.95667,0.369109 0.316379,0.203386 0.316379,0.549897 v 0 Q 39.264482,52 38.111958,52 v 0 q -1.160057,0 -1.732552,-0.08286 -0.580029,-0.09039 -1.099794,-0.143124 -0.519766,-0.06026 -1.559298,-0.06026 v 0 q -0.979269,0 -1.581895,0.06026 -0.61016,0.05273 -1.27305,0.143124 Q 30.202479,52 29.049955,52 Z"
     id="path4"
     style="stroke-width:0.999999" />
  <path
     d="m 62.095,65.57078 v 0 q -0.99,0 -1.6,-0.19 -0.62,-0.2 -0.62,-0.66 v 0 q 0,-0.53 0.62,-0.84 0.61,-0.3 1.91,-0.53 v 0 q 2.91,-0.54 4.45,-1.88 1.53,-1.34 1.53,-4.1 v 0 -29.73 q 0,-3.53 -0.16,-5.41 -0.15,-1.87 -0.49,-2.64 -0.35,-0.77 -0.96,-0.84 v 0 q -1.07,-0.23 -2.26,-0.27 -1.19,-0.04 -3.18,-0.04 v 0 h -3.6 q -1.84,0 -3.64,0.73 -1.8,0.73 -2.65,2.26 v 0 q -0.23,0.38 -0.76,1.11 -0.54,0.73 -1.15,1.27 -0.62,0.53 -1.23,0.53 v 0 q -0.3,0 -0.42,-0.3 -0.11,-0.31 -0.11,-0.69 v 0 q 0,-0.77 0.38,-1.54 v 0 q 1.07,-2.22 1.57,-3.94 0.5,-1.73 0.8,-4.1 v 0 q 0.16,-1.31 0.58,-1.54 0.42,-0.23 0.73,-0.23 v 0 q 0.3,0 0.95,0.92 0.66,0.92 0.96,1.54 v 0 q 0.46,0.76 2.11,1.15 1.65,0.38 3.26,0.38 v 0 h 26.97 q 2.68,0 4.37,-0.31 1.68,-0.3 2.91,-0.84 v 0 q 0.92,-0.46 1.49,-1 0.58,-0.53 1.5,-0.53 v 0 q 0.23,0 0.38,0.57 0.15,0.58 0.15,1.19 v 0 q 0,0.38 -0.11,1.07 -0.12,0.69 -0.19,1.08 v 0 q -0.23,1.37 -0.42,1.99 -0.2,0.61 -0.27,1.07 -0.08,0.46 -0.08,1.46 v 0 0.92 q 0,0.69 -0.31,1.57 -0.3,0.88 -0.91,0.88 v 0 q -0.54,0 -0.85,-0.84 -0.3,-0.85 -0.61,-2.3 v 0 q -0.31,-1.61 -1.84,-2.57 -1.53,-0.96 -5.21,-0.96 v 0 h -7.74 q -1.69,0 -2.53,0.46 -0.84,0.46 -1.07,2.3 -0.23,1.84 -0.23,6.05 v 0 30.12 q 0,2.76 1.61,4.1 1.61,1.34 4.44,1.88 v 0 q 1.3,0.23 1.92,0.53 0.61,0.31 0.61,0.84 v 0 q 0,0.46 -0.61,0.66 -0.62,0.19 -1.61,0.19 v 0 q -2.07,0 -3.41,-0.12 -1.34,-0.11 -2.57,-0.19 -1.22,-0.08 -2.99,-0.08 v 0 q -1.91,0 -3.33,0.08 -1.42,0.08 -2.91,0.19 -1.5,0.12 -3.57,0.12 z"
     id="path3" />
  <path
     id="path1"
     d="m 11.720253,52 v 0 q -0.519766,0 -0.836145,-0.143124 -0.316379,-0.143124 -0.316379,-0.489634 v 0 q 0,-0.459503 0.436905,-0.632759 0.429371,-0.173255 0.888874,-0.286247 v 0 q 1.212787,-0.293781 1.853078,-0.723153 0.632759,-0.436904 0.632759,-1.476436 v 0 -12.519574 q 0,-1.559298 -0.549898,-2.772084 -0.549897,-1.212787 -2.048931,-1.446305 v 0 q -0.286248,-0.06026 -0.429372,-0.225985 -0.150657,-0.173255 -0.150657,-0.519766 v 0 q 0,-0.640291 0.519766,-0.693021 v 0 q 2.312581,-0.519766 3.811616,-1.416173 1.499034,-0.896408 2.252318,-1.476436 v 0 q 0.519765,-0.399241 0.806013,-0.399241 v 0 q 0.346511,0 0.346511,0.286248 v 0 q 0,0.459503 -0.143124,1.815414 -0.143124,1.363443 -0.256117,3.005602 -0.120525,1.642158 -0.120525,2.97547 v 0 13.385851 q 0,0.986802 0.66289,1.446305 0.670422,0.459503 1.822946,0.753284 v 0 q 0.459503,0.112992 0.896408,0.286247 0.429371,0.173256 0.429371,0.632759 v 0 Q 22.22856,52 21.076036,52 v 0 q -1.099794,0 -1.762683,-0.08286 -0.66289,-0.09039 -1.27305,-0.143124 -0.602627,-0.06026 -1.642158,-0.06026 v 0 q -0.979269,0 -1.612027,0.06026 -0.640291,0.05273 -1.27305,0.143124 Q 12.88031,52 11.720253,52 Z m 4.617629,-29.958092 v 0 q -1.212787,0 -2.048932,-0.836145 -0.836144,-0.836145 -0.836144,-2.048931 v 0 q 0,-1.265517 0.836144,-2.101662 0.836145,-0.836145 2.048932,-0.836145 v 0 q 1.273049,0 2.109194,0.836145 0.836145,0.836145 0.836145,2.101662 v 0 q 0,1.212786 -0.836145,2.048931 -0.836145,0.836145 -2.109194,0.836145 z"
     style="stroke-width:0.999999" />
</svg>
