<?xml version="1.0" encoding="UTF-8" standalone="no"?>
<svg
   width="100"
   height="100"
   version="1.1"
   id="svg1"
   viewBox="0 0 100 100"
   sodipodi:docname="Vox-ATypI-glyphic.svg"
   inkscape:version="1.3 (0e150ed, 2023-07-21)"
   xmlns:inkscape="http://www.inkscape.org/namespaces/inkscape"
   xmlns:sodipodi="http://sodipodi.sourceforge.net/DTD/sodipodi-0.dtd"
   xmlns="http://www.w3.org/2000/svg"
   xmlns:svg="http://www.w3.org/2000/svg">
  <defs
     id="defs1" />
  <sodipodi:namedview
     id="namedview1"
     pagecolor="#ffffff"
     bordercolor="#000000"
     borderopacity="0.25"
     inkscape:showpageshadow="2"
     inkscape:pageopacity="0.0"
     inkscape:pagecheckerboard="0"
     inkscape:deskcolor="#d1d1d1"
     inkscape:zoom="2.36"
     inkscape:cx="50"
     inkscape:cy="49.788136"
     inkscape:window-width="1800"
     inkscape:window-height="1097"
     inkscape:window-x="0"
     inkscape:window-y="44"
     inkscape:window-maximized="1"
     inkscape:current-layer="svg1" />
  <path
     id="path3"
     d="m 23.874523,69.6368 -0.423911,0.08593 q -0.171854,-0.549938 -0.171854,-0.956662 0,-0.400995 0.0401,-0.910833 0.04583,-0.509836 0.194769,-1.403484 0.148941,-0.893648 0.572851,-1.764381 0.423909,-0.870733 0.973846,-1.678454 0.555666,-0.807719 1.426399,-1.489411 0.870733,-0.675964 1.936236,-1.19153 v 0 q 2.251304,-1.099874 5.482183,-1.099874 v 0 q 6.501858,0 10.597742,4.313567 4.101612,4.313567 4.101612,11.02738 0,6.713813 -4.840589,11.153408 -4.846319,4.439594 -12.281924,4.439594 -7.441333,0 -12.344937,-4.416681 -4.909333,-4.42241 -4.909333,-11.474206 v 0 q 0,-4.548435 2.125277,-8.077197 2.125276,-3.523033 6.077948,-5.522283 v 0 l 0.252054,0.38381 q -2.761142,1.827395 -3.975585,5.2645 -1.208716,3.442835 -1.208716,7.309578 v 0 q 0,7.18355 3.912572,11.22215 3.906844,4.038598 10.024891,4.038598 6.118048,0 10.007705,-4.061513 3.889659,-4.055785 3.889659,-10.689398 v 0 q 0,-5.734237 -3.081938,-9.686908 -3.081938,-3.952673 -8.690149,-3.952673 v 0 q -2.509087,0 -4.548436,0.893648 v 0 q -3.694888,1.569612 -4.886419,5.184301 v 0 q -0.337982,1.059774 -0.337982,1.827395 0,0.76762 0.08593,1.231629 z m 73.38793,26.815151 v 0 q 0.257779,0 0.509837,0 v 0 0.42391 q -1.185806,0.171855 -2.652304,0.171855 -1.466498,0 -3.614686,-0.635864 -2.142467,-0.641593 -3.889658,-2.383061 v 0 Q 84.046785,90.45993 83.28489,84.765792 v 0 L 80.689878,65.855984 71.85079,85.831296 q -1.191537,2.589285 -1.443584,4.330753 v 0 h -0.42391 L 58.973095,66.239794 57.105601,87.360807 q -0.08591,0.721792 0.446825,1.271729 0.532751,0.555666 1.168622,0.555666 v 0 q 0,0 0,0 v 0 h 0.681689 v 0.378081 h -8.249055 v -0.42391 h 0.681693 q 1.145702,0 2.016435,-0.698878 0.876462,-0.704606 1.088417,-1.850308 v 0 l 2.67521,-23.200462 q -3.740713,-7.355406 -8.965113,-7.355406 v 0 q -0.469738,0 -0.979575,0.04583 v 0 -0.429637 q 1.145702,-0.292155 1.867494,-0.292155 0.727521,0 1.57534,0.06301 0.84782,0.06301 1.999249,0.400995 1.145703,0.337982 2.165377,0.996761 1.019679,0.658778 1.787294,1.363385 0.761895,0.698879 1.443584,1.552426 v 0 q 1.145708,1.529512 1.827397,2.932996 v 0 L 70.579059,84.85172 82.007427,59.228098 h 0.383813 l 3.95267,25.153883 q 0.89365,5.951921 3.84383,9.010945 2.955911,3.059024 7.074713,3.059025 z"
     style="stroke-width:1" />
  <path
     id="path1"
     d="m 17.286736,21.219636 -0.337981,0.211954 q -1.317557,-1.57534 -1.317557,-3.127766 0,-1.546697 0.721792,-2.675214 0.721792,-1.122788 2.337232,-1.913322 1.615439,-0.784806 3.654788,-0.784806 v 0 h 17.420397 q 1.317557,0 2.91581,-0.252054 1.592527,-0.257783 2.22839,-0.509837 v 0 5.350427 l -0.423909,-0.0401 v -0.721792 q 0,-1.019675 -0.721792,-1.764381 -0.721792,-0.744706 -1.701367,-0.784806 v 0 h -8.077198 v 25.451766 q 0.04583,1.529512 1.363384,2.297132 v 0 q 0.635865,0.337982 1.357657,0.337982 v 0 h 0.555666 v 0.42391 h -9.308827 v -0.42391 h 0.549936 q 1.105603,0 1.896137,-0.761892 0.784806,-0.767619 0.824906,-1.827393 v 0 -25.497595 h -8.87919 q -3.402735,0 -4.932246,2.165377 v 0 q -0.80772,1.105602 -0.80772,2.314317 0,1.214445 0.681692,2.532002 z M 76.697099,42.29482 v 0 h 0.509848 v 0.42391 h -9.263009 v -0.42391 h 0.549945 q 1.065502,0 1.8503,-0.744707 0.78481,-0.738977 0.870736,-1.844579 v 0 V 28.65524 H 54.768371 v 11.090394 q 0,5.951921 -2.887168,7.99127 v 0 q -1.317557,0.933747 -3.402734,1.403484 v 0 l -0.211955,-0.38381 q 1.913321,-1.019674 2.824154,-3.144951 0.916562,-2.125277 0.916562,-5.865993 v 0 -23.710299 q 0,-1.105602 -0.80772,-1.873223 -0.807719,-0.761892 -1.913321,-0.761892 v 0 h -0.509838 v -0.429638 h 9.262997 v 0.429638 h -0.549934 q -1.1056,0 -1.890409,0.761892 -0.790534,0.767621 -0.830634,1.873223 v 0 11.342447 H 71.214919 V 16.797226 q 0.04006,-5.436355 2.42316,-7.5616321 v 0 Q 75.081663,7.9581364 77.54492,7.4082001 v 0 l 0.211961,0.3780818 q -1.907592,1.0196745 -2.847071,3.1449511 -0.933747,2.125277 -0.933747,5.865993 v 0 22.82238 q 0,1.105603 0.78481,1.890409 0.790529,0.784805 1.936226,0.784805 z"
     style="stroke-width:1" />
</svg>
