<?xml version="1.0" encoding="UTF-8" standalone="no"?>
<svg
   width="200"
   height="100"
   viewBox="0 0 200 100"
   version="1.1"
   id="svg1"
   sodipodi:docname="wdth.svg"
   inkscape:version="1.3 (0e150ed, 2023-07-21)"
   xmlns:inkscape="http://www.inkscape.org/namespaces/inkscape"
   xmlns:sodipodi="http://sodipodi.sourceforge.net/DTD/sodipodi-0.dtd"
   xmlns="http://www.w3.org/2000/svg"
   xmlns:svg="http://www.w3.org/2000/svg">
  <defs
     id="defs1" />
  <sodipodi:namedview
     id="namedview1"
     pagecolor="#ffffff"
     bordercolor="#000000"
     borderopacity="0.25"
     inkscape:showpageshadow="2"
     inkscape:pageopacity="0.0"
     inkscape:pagecheckerboard="0"
     inkscape:deskcolor="#d1d1d1"
     inkscape:zoom="1.8419282"
     inkscape:cx="56.734024"
     inkscape:cy="49.404748"
     inkscape:window-width="1800"
     inkscape:window-height="634"
     inkscape:window-x="0"
     inkscape:window-y="44"
     inkscape:window-maximized="0"
     inkscape:current-layer="svg1"
     showgrid="false" />
  <path
     d="M 80.019408,88.890716 V 53.28611 c 0,-10.172747 -2.746641,-16.78503 -13.733207,-16.78503 -6.612284,0 -10.477927,1.831093 -13.733204,7.629559 h -0.40691 v -6.612284 h -8.850288 c 0.305184,3.56046 0.508638,7.120922 0.508638,10.681383 v 40.690978 h 8.34165 V 58.474211 c 0,-7.019194 1.322455,-15.157391 10.477926,-15.157391 7.120922,0 9.053742,4.476009 9.053742,9.969292 v 35.604604 z"
     id="text4"
     style="font-stretch:condensed;font-size:43.0617px;line-height:0.8;font-family:'Univers LT Std';-inkscape-font-specification:'Univers LT Std Condensed';text-align:center;letter-spacing:11.4831px;text-anchor:middle;stroke-width:7.55906;stroke-linejoin:bevel;paint-order:markers stroke fill"
     aria-label="n" />
  <path
     d="m 87.349404,88.890716 h 9.56238 V 59.491484 c 0,-10.274473 6.408826,-15.259117 13.326286,-15.259117 3.2553,0 6.61229,1.119003 9.05375,3.458734 2.33973,2.33973 2.74665,5.391554 2.74665,8.748559 v 32.451056 h 9.76584 V 54.201657 c 0,-15.666026 -13.93667,-17.395394 -18.51441,-17.395394 -11.59693,0 -15.259116,7.120921 -16.378116,9.257197 l -0.10166,-8.239922 h -9.56238 l 0.10167,5.900193 z"
     id="text5"
     style="font-size:43.0617px;line-height:0.8;font-family:'Univers LT Std';-inkscape-font-specification:'Univers LT Std';text-align:center;letter-spacing:11.4831px;text-anchor:middle;stroke-width:7.55906;stroke-linejoin:bevel;paint-order:markers stroke fill"
     aria-label="n" />
  <path
     d="m 139.43955,88.890716 h 9.96929 V 64.78131 c 0,-16.174664 10.78311,-21.973128 20.24376,-21.973128 9.56238,0 16.37813,6.205374 16.37813,17.598848 V 88.890716 H 196 V 59.898394 c 0,-15.97121 -10.37619,-24.007677 -24.71976,-24.007677 -9.15546,0 -16.47985,3.153552 -22.2783,10.986563 h -0.20346 c 0,-3.56046 -0.20345,-6.510556 -0.4069,-9.053742 h -9.35893 c 0.20344,4.069097 0.40691,7.731285 0.40691,11.596929 z"
     id="text6"
     style="font-stretch:expanded;font-size:43.0617px;line-height:0.8;font-family:'Univers LT Std';-inkscape-font-specification:'Univers LT Std Expanded';text-align:center;letter-spacing:11.4831px;text-anchor:middle;stroke-width:7.55906;stroke-linejoin:bevel;paint-order:markers stroke fill"
     aria-label="n" />
  <path
     d="m 9.109691,88.890716 h 9.56238 V 49.929105 c 0,-3.96737 1.831093,-5.391555 4.170824,-5.391555 2.950098,0 3.662191,1.93282 3.662191,4.577733 v 39.775433 h 9.562377 V 47.284194 c 0,-7.527834 -4.170823,-10.071018 -8.952015,-10.071018 -1.932819,0 -3.662186,0.406911 -5.188099,1.322456 -1.525911,0.813818 -2.746641,2.034549 -3.662188,3.56046 H 18.061713 V 37.823539 H 9.109698 Z"
     id="text7"
     style="font-stretch:ultra-condensed;font-size:43.0617px;line-height:0.8;font-family:'Univers LT Std';-inkscape-font-specification:'Univers LT Std Ultra-Condensed';text-align:center;letter-spacing:11.4831px;text-anchor:middle;stroke-width:7.55906;stroke-linejoin:bevel;paint-order:markers stroke fill"
     aria-label="n" />
</svg>
