<?xml version="1.0" encoding="UTF-8" standalone="no"?>
            <svg
               xmlns="http://www.w3.org/2000/svg"
               xmlns:svg="http://www.w3.org/2000/svg"
               width="100"
               height="100"
               version="1.1"
               id="svg1"
               viewBox="0 0 100 100"
               >
               <path fill="black" d="M49.50 36.92Q54.25 36.92 56.79 39.37Q59.33 41.83 59.33 46.33L59.33 46.33Q59.33 49.08 58.92 57.42L58.92 57.42L58.50 68.92Q58.50 71.33 59.21 72.46Q59.92 73.58 61.50 73.58L61.50 73.58Q62.33 73.58 63.29 73.25Q64.25 72.92 65 72.33L65 72.33L65.50 72.58L65.17 74.08Q63.50 75.25 61.42 75.25L61.42 75.25Q59.08 75.25 58 73.79Q56.92 72.33 56.83 68.92L56.83 68.92L56.58 68.92Q54.08 71.83 51.25 73.58Q48.42 75.33 45.67 75.42L45.67 75.42Q41.17 75.42 38.71 72.96Q36.25 70.50 36.25 66.08L36.25 66.08Q36.25 63.08 38.04 61Q39.83 58.92 43.08 58.17L43.08 58.17L57.42 54.83L57.67 46.67Q57.67 42.75 55.54 40.67Q53.42 38.58 49.42 38.58L49.42 38.58Q46.92 38.58 43.96 40.00Q41 41.42 38 44L38 44L37.50 43.83L37.08 42.58Q40.17 39.83 43.38 38.37Q46.58 36.92 49.50 36.92L49.50 36.92ZM57.33 56.58L43.50 59.83Q40.83 60.50 39.38 62.08Q37.92 63.67 37.92 66.08L37.92 66.08Q37.92 69.67 39.96 71.71Q42 73.75 45.58 73.75L45.58 73.75Q48.33 73.75 51.29 71.75Q54.25 69.75 56.92 66.17L56.92 66.17L57.33 56.58Z"/>
            </svg>