<?xml version="1.0" encoding="UTF-8" standalone="no"?>
            <svg
               xmlns="http://www.w3.org/2000/svg"
               xmlns:svg="http://www.w3.org/2000/svg"
               width="200"
               height="100"
               version="1.1"
               id="svg1"
               viewBox="0 0 200 100"
               >
               <path d="M45.21 80.58L43.42 80.58L40.45 76.13Q38.62 78.53 35.87 79.99Q33.12 81.45 29.85 81.45L29.85 81.45L28.50 81.45Q25.79 81.45 23.39 80.43Q20.99 79.40 19.21 77.62Q17.42 75.83 16.39 73.43Q15.37 71.03 15.37 68.32L15.37 68.32L15.37 67.89Q15.37 65.18 16.39 62.78Q17.42 60.38 19.21 58.59Q20.99 56.81 23.39 55.78Q25.79 54.76 28.50 54.76L28.50 54.76L39.84 54.76L39.84 47.86Q39.84 46.25 39.23 44.83Q38.62 43.41 37.57 42.37Q36.52 41.32 35.11 40.71Q33.69 40.10 32.07 40.10L32.07 40.10L28.93 40.10Q27.32 40.10 25.90 40.71Q24.48 41.32 23.44 42.37Q22.39 43.41 21.78 44.83Q21.17 46.25 21.17 47.86L21.17 47.86L21.17 49.48L15.80 48.60L15.80 48.17Q15.80 45.46 16.83 43.06Q17.85 40.66 19.64 38.88Q21.43 37.09 23.83 36.06Q26.23 35.04 28.93 35.04L28.93 35.04L32.07 35.04Q34.78 35.04 37.18 36.06Q39.58 37.09 41.37 38.88Q43.16 40.66 44.18 43.06Q45.21 45.46 45.21 48.17L45.21 48.17L45.21 80.58ZM39.84 68.63L39.84 58.94L28.50 58.94Q26.88 58.94 25.47 59.55Q24.05 60.16 23.00 61.23Q21.95 62.30 21.34 63.72Q20.73 65.14 20.73 66.75L20.73 66.75L20.73 68.63Q20.73 70.24 21.34 71.66Q21.95 73.08 23.00 74.13Q24.05 75.17 25.47 75.78Q26.88 76.39 28.50 76.39L28.50 76.39L32.07 76.39Q33.69 76.39 35.11 75.78Q36.52 75.17 37.57 74.13Q38.62 73.08 39.23 71.66Q39.84 70.24 39.84 68.63L39.84 68.63Z"/><path d="M70.97 35.10Q76.38 35.10 79.28 37.90Q82.17 40.70 82.17 45.82L82.17 45.82Q82.17 48.96 81.70 58.44L81.70 58.44L81.22 71.54Q81.22 74.29 82.03 75.57Q82.83 76.85 84.64 76.85L84.64 76.85Q85.59 76.85 86.68 76.47Q87.77 76.09 88.62 75.43L88.62 75.43L89.19 75.71L88.81 77.42Q86.91 78.75 84.54 78.75L84.54 78.75Q81.89 78.75 80.65 77.09Q79.42 75.43 79.32 71.54L79.32 71.54L79.04 71.54Q76.19 74.86 72.97 76.85Q69.74 78.85 66.61 78.94L66.61 78.94Q61.48 78.94 58.69 76.14Q55.89 73.34 55.89 68.31L55.89 68.31Q55.89 64.90 57.93 62.53Q59.97 60.15 63.67 59.30L63.67 59.30L79.99 55.50L80.27 46.20Q80.27 41.74 77.85 39.37Q75.43 37.00 70.88 37.00L70.88 37.00Q68.03 37.00 64.66 38.61Q61.29 40.23 57.88 43.17L57.88 43.17L57.31 42.98L56.84 41.56Q60.35 38.42 64.00 36.76Q67.65 35.10 70.97 35.10L70.97 35.10ZM79.89 57.50L64.14 61.20Q61.11 61.96 59.44 63.76Q57.78 65.56 57.78 68.31L57.78 68.31Q57.78 72.39 60.11 74.72Q62.43 77.04 66.51 77.04L66.51 77.04Q69.65 77.04 73.01 74.77Q76.38 72.49 79.42 68.41L79.42 68.41L79.89 57.50Z"/><path d="M119.39 82.85L119.39 82.85Q113.13 82.85 108.02 79.67Q102.92 76.49 99.88 70.66Q96.85 64.84 96.85 56.94L96.85 56.94Q96.85 49.42 99.88 43.45Q102.92 37.48 108.26 33.96Q113.61 30.44 120.55 30.44L120.55 30.44Q124.88 30.44 128.40 31.94Q131.91 33.43 134.51 35.65L134.51 35.65L134.51 31.60L142.41 31.60L142.41 69.56Q142.41 73.22 144.20 74.32Q145.98 75.43 148.10 75.43L148.10 75.43L146.27 82.18Q137.02 82.18 135.09 74.66L135.09 74.66Q132.88 77.74 129.07 80.30Q125.27 82.85 119.39 82.85ZM121.32 75.14L121.32 75.14Q124.98 75.14 128.25 73.36Q131.53 71.58 133.74 68.88L133.74 68.88L133.74 42.00Q131.14 40.17 128.01 39.07Q124.88 37.96 121.41 37.96L121.41 37.96Q116.79 37.96 113.27 40.32Q109.76 42.68 107.73 46.87Q105.71 51.06 105.71 56.65L105.71 56.65Q105.71 62.04 107.73 66.23Q109.76 70.42 113.32 72.78Q116.89 75.14 121.32 75.14Z"/><path d="M153.09 78.47L163.91 12.04L178.04 12.04L188.86 78.47L178.42 78.47L176.53 65.28L176.53 65.47L164.67 65.47L162.77 78.47L153.09 78.47ZM165.90 56.45L175.29 56.45L170.64 23.62L170.45 23.62L165.90 56.45Z"/>
            </svg>