<svg xmlns="http://www.w3.org/2000/svg" xmlns:xlink="http://www.w3.org/1999/xlink" width="31.824000000000005" height="86.4"><path fill="black" d="M15.48 31.90Q19.58 31.90 21.78 34.02Q23.98 36.14 23.98 40.03L23.98 40.03Q23.98 42.41 23.62 49.61L23.62 49.61L23.26 59.54Q23.26 61.63 23.87 62.60Q24.48 63.58 25.85 63.58L25.85 63.58Q26.57 63.58 27.40 63.29Q28.22 63.00 28.87 62.50L28.87 62.50L29.30 62.71L29.02 64.01Q27.58 65.02 25.78 65.02L25.78 65.02Q23.76 65.02 22.82 63.76Q21.89 62.50 21.82 59.54L21.82 59.54L21.60 59.54Q19.44 62.06 16.99 63.58Q14.54 65.09 12.17 65.16L12.17 65.16Q8.28 65.16 6.16 63.04Q4.03 60.91 4.03 57.10L4.03 57.10Q4.03 54.50 5.58 52.70Q7.13 50.90 9.94 50.26L9.94 50.26L22.32 47.38L22.54 40.32Q22.54 36.94 20.70 35.14Q18.86 33.34 15.41 33.34L15.41 33.34Q13.25 33.34 10.69 34.56Q8.14 35.78 5.54 38.02L5.54 38.02L5.11 37.87L4.75 36.79Q7.42 34.42 10.19 33.16Q12.96 31.90 15.48 31.90L15.48 31.90ZM22.25 48.89L10.30 51.70Q7.99 52.27 6.73 53.64Q5.47 55.01 5.47 57.10L5.47 57.10Q5.47 60.19 7.24 61.96Q9.00 63.72 12.10 63.72L12.10 63.72Q14.47 63.72 17.03 61.99Q19.58 60.26 21.89 57.17L21.89 57.17L22.25 48.89Z"/></svg>