<?xml version="1.0" encoding="UTF-8" standalone="no"?>
            <svg
               xmlns="http://www.w3.org/2000/svg"
               xmlns:svg="http://www.w3.org/2000/svg"
               width="100"
               height="100"
               version="1.1"
               id="svg1"
               viewBox="0 0 100 100"
               >
               <path fill="black" d="M47.50 78.85L47.50 78.85Q42.01 78.85 37.52 76.06Q33.04 73.27 30.37 68.15Q27.71 63.03 27.71 56.09L27.71 56.09Q27.71 49.49 30.37 44.25Q33.04 39.00 37.73 35.91Q42.43 32.83 48.52 32.83L48.52 32.83Q52.33 32.83 55.41 34.14Q58.50 35.45 60.79 37.39L60.79 37.39L60.79 33.84L67.72 33.84L67.72 67.17Q67.72 70.39 69.29 71.36Q70.85 72.34 72.72 72.34L72.72 72.34L71.11 78.26Q62.99 78.26 61.29 71.66L61.29 71.66Q59.35 74.37 56.01 76.61Q52.66 78.85 47.50 78.85ZM49.20 72.08L49.20 72.08Q52.41 72.08 55.29 70.52Q58.16 68.95 60.11 66.58L60.11 66.58L60.11 42.98Q57.83 41.37 55.08 40.40Q52.33 39.42 49.28 39.42L49.28 39.42Q45.22 39.42 42.13 41.50Q39.04 43.57 37.27 47.25Q35.49 50.93 35.49 55.84L35.49 55.84Q35.49 60.58 37.27 64.26Q39.04 67.94 42.17 70.01Q45.30 72.08 49.20 72.08Z"/>
            </svg>