<?xml version="1.0" encoding="UTF-8" standalone="no"?>
            <svg
               xmlns="http://www.w3.org/2000/svg"
               xmlns:svg="http://www.w3.org/2000/svg"
               width="100"
               height="100"
               version="1.1"
               id="svg1"
               viewBox="0 0 100 100"
               >
               <path fill="black" d="M63.10 76.86L61.53 76.86L58.93 72.95Q57.32 75.06 54.90 76.34Q52.49 77.62 49.62 77.62L49.62 77.62L48.43 77.62Q46.05 77.62 43.95 76.72Q41.84 75.82 40.27 74.25Q38.70 72.68 37.80 70.57Q36.90 68.47 36.90 66.09L36.90 66.09L36.90 65.71Q36.90 63.33 37.80 61.23Q38.70 59.12 40.27 57.55Q41.84 55.98 43.95 55.08Q46.05 54.18 48.43 54.18L48.43 54.18L58.39 54.18L58.39 48.12Q58.39 46.70 57.85 45.46Q57.32 44.21 56.40 43.30Q55.48 42.38 54.23 41.84Q52.99 41.30 51.57 41.30L51.57 41.30L48.81 41.30Q47.39 41.30 46.15 41.84Q44.90 42.38 43.98 43.30Q43.07 44.21 42.53 45.46Q41.99 46.70 41.99 48.12L41.99 48.12L41.99 49.54L37.28 48.77L37.28 48.39Q37.28 46.02 38.18 43.91Q39.08 41.80 40.65 40.23Q42.22 38.66 44.33 37.76Q46.44 36.86 48.81 36.86L48.81 36.86L51.57 36.86Q53.95 36.86 56.05 37.76Q58.16 38.66 59.73 40.23Q61.30 41.80 62.20 43.91Q63.10 46.02 63.10 48.39L63.10 48.39L63.10 76.86ZM58.39 66.36L58.39 57.85L48.43 57.85Q47.01 57.85 45.77 58.39Q44.52 58.93 43.60 59.87Q42.68 60.80 42.15 62.05Q41.61 63.30 41.61 64.71L41.61 64.71L41.61 66.36Q41.61 67.78 42.15 69.02Q42.68 70.27 43.60 71.19Q44.52 72.11 45.77 72.64Q47.01 73.18 48.43 73.18L48.43 73.18L51.57 73.18Q52.99 73.18 54.23 72.64Q55.48 72.11 56.40 71.19Q57.32 70.27 57.85 69.02Q58.39 67.78 58.39 66.36L58.39 66.36Z"/>
            </svg>