<svg xmlns="http://www.w3.org/2000/svg" xmlns:xlink="http://www.w3.org/1999/xlink" width="44.42400000000001" height="85.10400000000001"><path fill="black" d="M20.09 67.10L20.09 67.10Q15.41 67.10 11.59 64.73Q7.78 62.35 5.51 58.00Q3.24 53.64 3.24 47.74L3.24 47.74Q3.24 42.12 5.51 37.66Q7.78 33.19 11.77 30.56Q15.77 27.94 20.95 27.94L20.95 27.94Q24.19 27.94 26.82 29.05Q29.45 30.17 31.39 31.82L31.39 31.82L31.39 28.80L37.30 28.80L37.30 57.17Q37.30 59.90 38.63 60.73Q39.96 61.56 41.54 61.56L41.54 61.56L40.18 66.60Q33.26 66.60 31.82 60.98L31.82 60.98Q30.17 63.29 27.32 65.20Q24.48 67.10 20.09 67.10ZM21.53 61.34L21.53 61.34Q24.26 61.34 26.71 60.01Q29.16 58.68 30.82 56.66L30.82 56.66L30.82 36.58Q28.87 35.21 26.53 34.38Q24.19 33.55 21.60 33.55L21.60 33.55Q18.14 33.55 15.52 35.32Q12.89 37.08 11.38 40.21Q9.86 43.34 9.86 47.52L9.86 47.52Q9.86 51.55 11.38 54.68Q12.89 57.82 15.55 59.58Q18.22 61.34 21.53 61.34Z"/></svg>