<svg xmlns="http://www.w3.org/2000/svg" xmlns:xlink="http://www.w3.org/1999/xlink" width="32.6953125" height="91.7578125"><path fill="black" d="M28.37 70.52L26.93 70.52L24.54 66.94Q23.06 68.87 20.85 70.05Q18.63 71.23 16.00 71.23L16.00 71.23L14.91 71.23Q12.73 71.23 10.79 70.40Q8.86 69.57 7.42 68.13Q5.98 66.69 5.15 64.76Q4.32 62.82 4.32 60.64L4.32 60.64L4.32 60.29Q4.32 58.11 5.15 56.18Q5.98 54.25 7.42 52.80Q8.86 51.36 10.79 50.54Q12.73 49.71 14.91 49.71L14.91 49.71L24.05 49.71L24.05 44.16Q24.05 42.86 23.55 41.71Q23.06 40.57 22.22 39.73Q21.38 38.88 20.23 38.39Q19.09 37.90 17.79 37.90L17.79 37.90L15.26 37.90Q13.96 37.90 12.81 38.39Q11.67 38.88 10.83 39.73Q9.98 40.57 9.49 41.71Q9 42.86 9 44.16L9 44.16L9 45.46L4.68 44.75L4.68 44.40Q4.68 42.22 5.50 40.29Q6.33 38.36 7.77 36.91Q9.21 35.47 11.14 34.65Q13.08 33.82 15.26 33.82L15.26 33.82L17.79 33.82Q19.97 33.82 21.90 34.65Q23.84 35.47 25.28 36.91Q26.72 38.36 27.54 40.29Q28.37 42.22 28.37 44.40L28.37 44.40L28.37 70.52ZM24.05 60.89L24.05 53.09L14.91 53.09Q13.61 53.09 12.46 53.58Q11.32 54.07 10.48 54.93Q9.63 55.79 9.14 56.94Q8.65 58.08 8.65 59.38L8.65 59.38L8.65 60.89Q8.65 62.19 9.14 63.33Q9.63 64.48 10.48 65.32Q11.32 66.16 12.46 66.66Q13.61 67.15 14.91 67.15L14.91 67.15L17.79 67.15Q19.09 67.15 20.23 66.66Q21.38 66.16 22.22 65.32Q23.06 64.48 23.55 63.33Q24.05 62.19 24.05 60.89L24.05 60.89Z"/></svg>