<?xml version="1.0" encoding="UTF-8" standalone="no"?>
            <svg
               xmlns="http://www.w3.org/2000/svg"
               xmlns:svg="http://www.w3.org/2000/svg"
               width="100"
               height="100"
               version="1.1"
               id="svg1"
               viewBox="0 0 100 100"
               >
               <path fill="black" d="M13.91 78.24L12.66 78.24L-0.12 46.99L-12.66 78.16L-13.98 78.16L-32.19 23.67L-21.41 23.67L-11.91 55.27L-0.55 23.67L0.78 23.67L12.30 55.16L21.25 23.67L31.95 23.67L13.91 78.24ZM38.05 78.13L27.11 78.13L50.16 22.73L50.94 22.73L74.06 78.13L63.44 78.13L60.39 70.23L40.94 70.23L38.05 78.13ZM50.47 43.44L49.22 47.81L43.75 62.66L57.50 62.66L51.80 47.81L50.47 43.44ZM88.98 78.13L79.30 78.13L79.30 22.73L80.08 22.73L102.11 48.71L123.98 22.73L124.84 22.73L124.84 78.13L115.16 78.13L115.16 54.77L115.51 45.55L112.73 49.77L102.03 62.34L91.33 49.77L88.55 45.55L88.98 54.77L88.98 78.13Z"/>
            </svg>