<?xml version="1.0" encoding="UTF-8" standalone="no"?>
            <svg
               xmlns="http://www.w3.org/2000/svg"
               xmlns:svg="http://www.w3.org/2000/svg"
               width="200"
               height="100"
               version="1.1"
               id="svg1"
               viewBox="0 0 200 100"
               >
               <path d="M36.19 66.33L35.47 66.33L28.09 48.26L20.84 66.28L20.07 66.28L9.55 34.78L15.78 34.78L21.27 53.05L27.84 34.78L28.61 34.78L35.27 52.98L40.44 34.78L46.63 34.78L36.19 66.33ZM50.15 66.26L43.83 66.26L57.15 34.24L57.60 34.24L70.97 66.26L64.83 66.26L63.07 61.70L51.82 61.70L50.15 66.26ZM57.33 46.21L56.61 48.74L53.45 57.32L61.40 57.32L58.10 48.74L57.33 46.21ZM79.60 66.26L74.00 66.26L74.00 34.24L74.45 34.24L87.18 49.25L99.83 34.24L100.33 34.24L100.33 66.26L94.73 66.26L94.73 52.75L94.93 47.43L93.33 49.86L87.14 57.14L80.95 49.86L79.35 47.43L79.60 52.75L79.60 66.26Z"/><path d="M108.85 33.71L108.85 33.71Q110.66 32.54 112.74 31.88Q114.82 31.22 116.81 31.22L116.81 31.22Q117.05 31.22 117.36 31.24Q117.66 31.26 118.23 31.29L118.23 31.29L118.55 53.14L126.01 31.40L130.66 31.40L130.66 53.14L138.30 31.40L140.79 31.40L130.91 57.87L125.65 57.87L125.65 39.78L118.62 57.87L113.39 57.87L113.39 33.60Q110.55 34.49 109.10 36.48Q107.64 38.47 107.64 41.49L107.64 41.49Q107.64 42.17 107.73 42.66Q107.82 43.16 108.03 43.62L108.03 43.62Q108.10 43.76 108.12 43.82Q108.14 43.87 108.14 43.91L108.14 43.91Q106.15 43.91 105.24 43.07Q104.33 42.24 104.33 40.46L104.33 40.46Q104.33 38.68 105.52 36.91Q106.71 35.13 108.85 33.71ZM155.25 43.41L157.31 33.74Q155.85 34.53 154.22 36.68Q152.59 38.83 150.92 42.17L150.92 42.17Q152.19 42.41 153.28 42.73Q154.36 43.05 155.25 43.41L155.25 43.41ZM160.08 31.22L160.08 31.22Q160.83 31.22 161.57 31.35Q162.32 31.47 162.89 31.72L162.89 31.72L157.31 57.87L152.19 57.87L154.93 44.97Q153.69 44.40 152.59 44.10Q151.48 43.80 150.17 43.69L150.17 43.69Q148.14 48.10 146.85 52.65Q145.55 57.20 145.55 59.93L145.55 59.93Q145.55 60.57 145.67 61.05Q145.80 61.53 146.05 61.92L146.05 61.92Q143.35 61.92 142.32 61.00Q141.29 60.07 141.29 58.15L141.29 58.15Q141.29 55.77 142.73 51.79Q144.16 47.81 146.51 43.69L146.51 43.69Q144.70 43.80 143.68 44.26Q142.67 44.72 142.35 45.54L142.35 45.54Q142.49 45.54 142.65 45.91Q142.81 46.29 142.81 46.64L142.81 46.64Q142.81 47.25 142.25 47.64Q141.68 48.03 140.82 48.03L140.82 48.03Q139.83 48.03 139.23 47.48Q138.62 46.93 138.62 45.97L138.62 45.97Q138.62 44.12 140.70 42.86Q142.78 41.60 145.87 41.60L145.87 41.60Q146.23 41.60 146.69 41.61Q147.15 41.63 147.72 41.70L147.72 41.70Q150.84 36.76 154.08 33.99Q157.31 31.22 160.08 31.22ZM177.67 50.44L185.49 31.72L190.60 31.72L186.87 57.87L181.76 57.87L184.03 41.92L177.35 57.87L172.48 57.87L173.19 41.85L167.26 57.87L164.42 57.87L173.44 33.46Q170.71 34.38 169.25 36.44Q167.79 38.51 167.79 41.45L167.79 41.45Q167.79 42.17 167.88 42.68Q167.97 43.20 168.18 43.62L168.18 43.62Q168.25 43.76 168.27 43.82Q168.29 43.87 168.29 43.91L168.29 43.91Q166.37 43.91 165.43 43.11Q164.49 42.31 164.49 40.67L164.49 40.67Q164.49 38.97 165.54 37.21Q166.58 35.45 168.43 33.99L168.43 33.99Q170.10 32.68 172.02 31.95Q173.94 31.22 175.79 31.22L175.79 31.22Q176.46 31.22 177.16 31.35Q177.85 31.47 178.49 31.72L178.49 31.72L177.67 50.44Z"/>
            </svg>