<?xml version="1.0" encoding="UTF-8" standalone="no"?>
            <svg
               xmlns="http://www.w3.org/2000/svg"
               xmlns:svg="http://www.w3.org/2000/svg"
               width="100"
               height="100"
               version="1.1"
               id="svg1"
               viewBox="0 0 100 100"
               >
               <path fill="black" d="M-16.10 21.82L-16.10 21.82Q-12.97 19.79-9.37 18.65Q-5.78 17.52-2.34 17.52L-2.34 17.52Q-1.91 17.52-1.38 17.55Q-0.86 17.58 0.12 17.64L0.12 17.64L0.68 55.44L13.58 17.82L21.63 17.82L21.63 55.44L34.85 17.82L39.15 17.82L22.07 63.61L12.97 63.61L12.97 32.33L0.80 63.61L-8.24 63.61L-8.24 21.63Q-13.15 23.17-15.67 26.61Q-18.19 30.06-18.19 35.28L-18.19 35.28Q-18.19 36.45-18.04 37.31Q-17.89 38.17-17.52 38.97L-17.52 38.97Q-17.39 39.21-17.36 39.31Q-17.33 39.40-17.33 39.46L-17.33 39.46Q-20.77 39.46-22.34 38.01Q-23.91 36.57-23.91 33.50L-23.91 33.50Q-23.91 30.42-21.85 27.35Q-19.79 24.28-16.10 21.82ZM64.17 38.60L67.73 21.88Q65.21 23.23 62.38 26.95Q59.56 30.67 56.67 36.45L56.67 36.45Q58.88 36.88 60.76 37.43Q62.63 37.98 64.17 38.60L64.17 38.60ZM72.53 17.52L72.53 17.52Q73.82 17.52 75.11 17.73Q76.40 17.95 77.38 18.38L77.38 18.38L67.73 63.61L58.88 63.61L63.61 41.30Q61.46 40.32 59.56 39.80Q57.65 39.27 55.38 39.09L55.38 39.09Q51.87 46.71 49.63 54.58Q47.39 62.45 47.39 67.18L47.39 67.18Q47.39 68.29 47.60 69.11Q47.82 69.94 48.25 70.62L48.25 70.62Q43.58 70.62 41.79 69.02Q40.01 67.42 40.01 64.11L40.01 64.11Q40.01 59.99 42.50 53.10Q44.99 46.22 49.05 39.09L49.05 39.09Q45.91 39.27 44.16 40.07Q42.41 40.87 41.86 42.29L41.86 42.29Q42.10 42.29 42.38 42.93Q42.66 43.58 42.66 44.19L42.66 44.19Q42.66 45.24 41.67 45.91Q40.69 46.59 39.21 46.59L39.21 46.59Q37.49 46.59 36.45 45.64Q35.40 44.68 35.40 43.02L35.40 43.02Q35.40 39.83 39.00 37.65Q42.59 35.46 47.94 35.46L47.94 35.46Q48.56 35.46 49.35 35.49Q50.15 35.53 51.14 35.65L51.14 35.65Q56.55 27.11 62.14 22.31Q67.73 17.52 72.53 17.52ZM102.95 50.77L116.47 18.38L125.32 18.38L118.87 63.61L110.02 63.61L113.95 36.02L102.40 63.61L93.98 63.61L95.21 35.89L84.94 63.61L80.02 63.61L95.64 21.39Q90.90 22.99 88.38 26.55Q85.86 30.12 85.86 35.22L85.86 35.22Q85.86 36.45 86.02 37.34Q86.17 38.23 86.54 38.97L86.54 38.97Q86.66 39.21 86.69 39.31Q86.72 39.40 86.72 39.46L86.72 39.46Q83.41 39.46 81.78 38.08Q80.15 36.69 80.15 33.87L80.15 33.87Q80.15 30.92 81.96 27.87Q83.77 24.83 86.97 22.31L86.97 22.31Q89.86 20.04 93.18 18.78Q96.50 17.52 99.69 17.52L99.69 17.52Q100.86 17.52 102.06 17.73Q103.26 17.95 104.36 18.38L104.36 18.38L102.95 50.77Z"/>
            </svg>