<?xml version="1.0" encoding="UTF-8" standalone="no"?>
            <svg
               xmlns="http://www.w3.org/2000/svg"
               xmlns:svg="http://www.w3.org/2000/svg"
               width="100"
               height="100"
               version="1.1"
               id="svg1"
               viewBox="0 0 100 100"
               >
               <path fill="black" d="M1.03 69.78L1.03 69.78Q6.75 69.78 8.73 66.31L8.73 66.31Q9.48 65.07 9.48 63.58L9.48 63.58Q9.48 60.10 4.43 57.62L4.43 57.62Q3.35 57.04 0.87 55.96L0.87 55.96Q-5.92 53.15-8.15 50.66L-8.15 50.66Q-10.55 47.93-10.55 44.29L-10.55 44.29Q-10.55 38.58-4.26 36.26L-4.26 36.26Q-1.37 35.18 2.03 35.18L2.03 35.18Q7.49 35.18 11.47 37.50L11.47 37.50Q11.47 35.10 12.62 34.77L12.62 34.77Q13.12 34.69 13.70 34.69L13.70 34.69L13.70 45.03L11.55 45.03Q11.38 37.42 3.10 37.33L3.10 37.33Q-3.10 37.33-4.59 40.98L-4.59 40.98Q-5.01 41.97-5.01 43.05L-5.01 43.05Q-5.01 46.61 0.12 49.09L0.12 49.09Q1.28 49.67 3.77 50.66L3.77 50.66Q10.47 53.39 12.71 55.88L12.71 55.88Q15.11 58.53 15.11 62.17L15.11 62.17Q15.11 68.87 7.99 71.11L7.99 71.11Q5.26 72.02 2.03 72.02L2.03 72.02Q-3.93 71.94-8.32 69.04L-8.32 69.04Q-8.32 71.19-9.40 71.52L-9.40 71.52Q-9.89 71.61-10.55 71.61L-10.55 71.61L-10.55 59.02L-8.24 59.02Q-8.07 69.70 1.03 69.78ZM51.28 71.19L69.16 71.19Q69.16 69.37 67.84 69.12L67.84 69.12Q67.43 69.04 67.01 69.04L67.01 69.04L64.20 69.04L45.24 21.52L42.18 21.52L23.63 69.04L18.42 69.04L18.42 71.19L33.15 71.19Q33.15 69.37 31.83 69.12L31.83 69.12Q31.42 69.04 31.00 69.04L31.00 69.04L26.95 69.04L33.15 52.98L50.46 52.98L56.66 69.04L51.28 69.04L51.28 71.19ZM41.76 30.55L49.54 50.58L34.06 50.58L41.76 30.55ZM89.53 84.85L83.73 84.85L83.73 67.72Q88.29 71.69 94.25 72.02L94.25 72.02Q101.61 72.02 106.58 66.47L106.58 66.47Q111.38 61.09 111.38 52.81L111.38 52.81Q111.38 43.38 106.17 38.49L106.17 38.49Q102.52 35.18 97.31 35.18L97.31 35.18Q89.28 35.18 85.31 41.56L85.31 41.56Q84.31 43.21 83.65 45.03L83.65 45.03L83.24 36.01L71.32 36.01L71.32 38.08L77.52 38.08L77.52 79.88Q77.52 83.69 75.37 84.44L75.37 84.44Q74.13 84.85 71.32 84.85L71.32 84.85L71.32 86.92L91.60 86.92Q91.60 85.10 90.36 84.93L90.36 84.93Q90.02 84.85 89.53 84.85L89.53 84.85ZM94.66 38.49L94.66 38.49Q101.86 38.49 103.77 47.52L103.77 47.52Q104.35 50.25 104.35 53.64L104.35 53.64Q104.35 65.81 97.81 69.04L97.81 69.04Q95.90 69.95 93.67 69.95L93.67 69.95Q87.29 69.95 84.89 63.25L84.89 63.25Q83.65 59.85 83.65 55.22L83.65 55.22Q83.65 44.45 89.20 40.31L89.20 40.31Q91.68 38.49 94.66 38.49Z"/>
            </svg>