<?xml version="1.0" encoding="UTF-8" standalone="no"?>
            <svg
               xmlns="http://www.w3.org/2000/svg"
               xmlns:svg="http://www.w3.org/2000/svg"
               width="100"
               height="100"
               version="1.1"
               id="svg1"
               viewBox="0 0 100 100"
               >
               <path fill="black" d="M-5.37 78.85L-5.37 78.85Q-10.36 78.85-14.38 77.58Q-18.40 76.31-21.02 74.28L-21.02 74.28L-17.81 67.94Q-15.61 69.80-12.27 71.02Q-8.93 72.25-5.12 72.25L-5.12 72.25Q-0.38 72.25 2.03 70.69Q4.44 69.12 4.44 66.67L4.44 66.67Q4.44 64.89 3.55 63.54Q2.66 62.18 0.30 60.87Q-2.07 59.56-6.56 58.04L-6.56 58.04Q-12.73 55.92-15.82 53.00Q-18.91 50.08-18.91 44.92L-18.91 44.92Q-18.91 39.85-14.47 36.34Q-10.03 32.83-2.16 32.83L-2.16 32.83Q2.07 32.83 5.37 33.71Q8.67 34.60 11.29 35.96L11.29 35.96L9.18 42.22Q6.90 40.86 3.98 40.02Q1.06 39.17-2.50 39.17L-2.50 39.17Q-6.90 39.17-9.18 40.95Q-11.46 42.72-11.46 44.84L-11.46 44.84Q-11.46 46.87-9.69 48.31Q-7.91 49.75-2.75 51.44L-2.75 51.44Q5.63 54.23 8.93 57.61Q12.23 61.00 12.23 66.07L12.23 66.07Q12.23 72.00 7.45 75.42Q2.66 78.85-5.37 78.85ZM71.28 75.72L63.92 78.68L57.32 61.76L29.91 61.76L23.31 78.51L16.46 75.72L39.64 18.61L48.43 18.61L71.28 75.72ZM43.61 26.57L32.45 54.99L54.70 54.99L43.61 26.57ZM88.11 96.45L80.50 96.45L80.50 45.09Q80.50 42.22 79.10 40.99Q77.71 39.76 75.51 39.76L75.51 39.76L77.12 33.84Q84.90 33.84 86.84 40.02L86.84 40.02Q87.69 38.75 89.59 37.06Q91.50 35.36 94.33 34.09Q97.17 32.83 100.80 32.83L100.80 32.83Q105.88 32.83 110.32 35.49Q114.76 38.16 117.47 43.19Q120.18 48.22 120.18 55.41L120.18 55.41Q120.18 62.44 117.47 67.72Q114.76 73.01 110.41 75.93Q106.05 78.85 100.97 78.85L100.97 78.85Q97.08 78.85 93.70 77.28Q90.31 75.72 88.11 73.69L88.11 73.69L88.11 96.45ZM99.45 72.08L99.45 72.08Q105.20 72.08 108.80 67.55Q112.39 63.03 112.39 55.67L112.39 55.67Q112.39 50.59 110.58 46.95Q108.76 43.32 105.75 41.37Q102.75 39.42 99.11 39.42L99.11 39.42Q95.47 39.42 92.55 41.24Q89.64 43.06 88.11 45.18L88.11 45.18L88.11 66.84Q90.31 69.12 93.19 70.60Q96.07 72.08 99.45 72.08Z"/>
            </svg>