<?xml version="1.0" encoding="UTF-8" standalone="no"?>
            <svg
               xmlns="http://www.w3.org/2000/svg"
               xmlns:svg="http://www.w3.org/2000/svg"
               width="100"
               height="100"
               version="1.1"
               id="svg1"
               viewBox="0 0 100 100"
               >
               <path fill="black" d="M17.92 52.07L17.92 52.07Q17.85 52.14 17.71 52.35L17.71 52.35Q17.51 52.56 17.33 52.83Q17.16 53.11 17.23 53.45L17.23 53.45Q16.19 53.59 15.09 53.52Q13.98 53.45 12.74 53.31L12.74 53.31Q10.39 53.11 8.05 53.18Q5.70 53.25 4.11 55.11L4.11 55.11Q5.08 57.60 6.70 60.64Q8.32 63.67 9.88 66.78Q11.43 69.89 11.91 72.72L11.91 72.72Q12.47 75.28 11.40 76.38Q10.32 77.49 7.98 78.73L7.98 78.73Q6.39 79.56 4.70 80.01Q3.00 80.46 0.24 79.90L0.24 79.90Q-1.35 79.56-2.24 79.07Q-3.14 78.59-4.32 77.90L-4.32 77.90Q-5.97 76.93-7.53 76.00Q-9.08 75.07-9.98 73.62L-9.98 73.62Q-9.84 72.93-9.91 72.06Q-9.98 71.20-10.05 70.44L-10.05 70.44Q-10.12 69.82-10.15 69.34Q-10.19 68.85-10.12 68.58L-10.12 68.58Q-9.29 68.44-7.87 69.10Q-6.46 69.75-4.73 70.65L-4.73 70.65Q-2.73 71.75-0.59 72.76Q1.55 73.76 3.21 73.62L3.21 73.62Q5.63 73.48 5.97 71.69Q6.32 69.89 5.21 67.96L5.21 67.96Q4.94 67.40 4.59 66.82Q4.25 66.23 3.90 65.61L3.90 65.61Q2.59 63.33 1.31 60.74Q0.03 58.15-0.38 55.32Q-0.79 52.49 0.38 49.52L0.38 49.52Q5.21 47.86 9.84 48.76Q14.47 49.65 17.92 52.07ZM65.57 74.65L65.57 74.65Q65.57 75.41 65.54 76.17Q65.50 76.93 65.44 77.76L65.44 77.76Q65.37 78.25 65.33 78.73Q65.30 79.21 65.30 79.77L65.30 79.77Q64.95 80.46 64.19 80.73Q63.43 81.01 62.71 81.15Q61.98 81.28 61.71 81.77L61.71 81.77Q61.15 81.77 60.84 81.53Q60.53 81.28 60.32 81.01L60.32 81.01Q60.19 80.80 60.01 80.66Q59.84 80.52 59.56 80.59L59.56 80.59Q57.15 78.59 54.94 76.28Q52.73 73.96 50.41 71.82Q48.10 69.68 45.20 68.16L45.20 68.16Q44.51 67.82 44.37 66.89Q44.23 65.95 43.34 65.47L43.34 65.47Q44.16 64.43 44.61 64.30Q45.06 64.16 45.30 63.88Q45.55 63.60 45.82 62.43L45.82 62.43Q46.44 62.57 47.00 62.15Q47.55 61.74 48.17 61.12L48.17 61.12Q48.93 60.43 49.83 59.74Q50.73 59.05 52.11 59.05L52.11 59.05Q53.69 58.15 55.46 57.60Q57.22 57.04 59.15 58.22L59.15 58.22Q59.29 57.87 59.22 57.42Q59.15 56.98 59.08 56.49L59.08 56.49Q58.94 56.01 58.94 55.80L58.94 55.80Q58.81 54.77 58.84 53.66Q58.87 52.56 58.94 51.52L58.94 51.52Q58.94 50.76 58.98 50.00Q59.01 49.24 59.01 48.48L59.01 48.48Q59.01 47.72 58.94 46.96Q58.87 46.20 58.81 45.44L58.81 45.44Q58.67 43.85 58.56 42.23Q58.46 40.61 58.81 39.09L58.81 39.09Q58.39 38.74 58.32 38.09Q58.25 37.43 58.11 36.95L58.11 36.95Q55.56 38.95 53.69 41.61Q51.83 44.27 49.83 47.10L49.83 47.10Q47.76 49.93 45.61 52.83Q43.47 55.73 40.92 58.22L40.92 58.22Q40.85 58.49 40.06 59.81Q39.26 61.12 38.19 62.71Q37.12 64.30 36.22 65.44Q35.32 66.57 35.05 66.57L35.05 66.57Q33.46 69.82 30.90 73.20Q28.35 76.59 25.73 79.49L25.73 79.49Q25.45 79.42 25.24 79.49Q25.03 79.56 24.90 79.63L24.90 79.63Q24.62 79.70 24.38 79.73Q24.14 79.77 23.79 79.70L23.79 79.70Q23.65 79.35 23.65 79.14Q23.65 78.94 23.31 78.87L23.31 78.87Q23.79 76.24 25.17 74.24Q26.55 72.24 28.14 70.30L28.14 70.30Q28.42 69.20 29.01 68.51Q29.59 67.82 30.18 67.13Q30.77 66.44 30.97 65.40L30.97 65.40Q31.46 64.85 32.49 63.47Q33.53 62.09 34.70 60.43Q35.88 58.77 36.77 57.29Q37.67 55.80 37.81 55.18L37.81 55.18Q38.36 55.39 38.64 54.83Q38.92 54.28 38.78 54.21L38.78 54.21Q41.06 51.93 43.20 48.20L43.20 48.20Q43.40 48.07 43.68 48.14L43.68 48.14Q43.82 48.14 43.89 48.14L43.89 48.14Q43.82 47.72 43.99 47.44Q44.16 47.17 44.37 46.96L44.37 46.96Q44.65 46.69 44.89 46.37Q45.13 46.06 45.20 45.51L45.20 45.51Q46.79 44.13 48.79 41.40Q50.79 38.67 52.73 36.46L52.73 36.46Q52.80 36.46 52.94 36.53L52.94 36.53Q53.14 36.67 53.35 36.67Q53.56 36.67 53.56 36.05L53.56 36.05Q53.90 35.08 55.04 34.15Q56.18 33.22 57.15 32.60L57.15 32.60Q58.74 32.67 60.19 32.80Q61.64 32.94 62.88 34.12L62.88 34.12Q62.81 34.81 62.95 35.26Q63.09 35.70 63.29 36.12L63.29 36.12Q63.50 36.67 63.64 37.36Q63.78 38.05 63.36 39.30L63.36 39.30Q63.64 39.57 63.81 39.92Q63.98 40.26 63.64 40.75L63.64 40.75Q63.85 40.95 63.95 42.20Q64.05 43.44 64.12 45.03Q64.19 46.62 64.12 47.89Q64.05 49.17 63.92 49.31L63.92 49.31Q64.12 50.41 64.19 52.14Q64.26 53.87 64.74 54.70L64.74 54.70Q64.33 55.52 64.33 56.32Q64.33 57.11 64.47 57.87L64.47 57.87Q64.54 58.56 64.57 59.29Q64.61 60.01 64.33 60.70L64.33 60.70Q64.40 60.70 64.57 60.74Q64.74 60.77 65.02 60.84L65.02 60.84Q64.74 61.26 64.71 61.57Q64.68 61.88 64.74 62.15L64.74 62.15Q64.81 62.43 64.78 62.67Q64.74 62.91 64.47 63.26L64.47 63.26Q64.74 64.64 64.99 66.71Q65.23 68.78 65.37 70.93Q65.50 73.07 65.57 74.65ZM60.39 70.99L60.39 70.99Q59.98 70.44 59.94 69.58Q59.91 68.72 59.98 67.89L59.98 67.89Q59.98 67.40 60.01 66.92Q60.05 66.44 59.98 66.02L59.98 66.02Q59.91 65.61 59.67 64.85Q59.43 64.09 59.08 63.54Q58.74 62.98 58.32 63.19L58.32 63.19Q56.60 64.02 55.08 65.33Q53.56 66.64 51.97 67.75L51.97 67.75Q52.24 68.16 51.97 68.78L51.97 68.78L51.97 68.92Q53.76 70.72 55.73 72.38Q57.70 74.03 60.05 75.41L60.05 75.41Q60.19 74.86 60.19 74.34Q60.19 73.83 60.12 73.34L60.12 73.34Q60.05 72.72 60.05 72.13Q60.05 71.55 60.39 70.99ZM108.81 70.65L108.81 70.65Q108.74 70.72 108.60 70.79L108.60 70.79Q108.25 70.99 108.01 71.20Q107.77 71.41 107.91 71.89L107.91 71.89Q107.77 71.96 107.35 72.24L107.35 72.24Q106.73 72.65 105.97 73.07Q105.21 73.48 104.32 73.41L104.32 73.41Q104.32 73.96 103.38 74.31Q102.45 74.65 101.14 74.86Q99.83 75.07 98.69 75.35Q97.55 75.62 97.13 76.04L97.13 76.04Q95.68 76.10 93.75 75.86Q91.82 75.62 90.09 75.24Q88.36 74.86 87.47 74.52L87.47 74.52Q86.22 75 85.67 76.24Q85.12 77.49 84.60 78.73Q84.08 79.97 82.91 80.59L82.91 80.59Q82.91 81.35 82.63 81.80Q82.35 82.25 82.08 82.53L82.08 82.53Q81.87 82.80 81.73 83.05Q81.60 83.29 81.60 83.56L81.60 83.56Q80.77 85.98 79.45 88.40Q78.14 90.81 76.86 92.40Q75.59 93.99 74.83 93.99L74.83 93.99Q75.38 89.57 76.28 86.67Q77.18 83.77 78.21 81.42Q79.25 79.07 80.28 76.45Q81.32 73.83 82.22 70.03L82.22 70.03Q82.98 69.61 83.63 68.16Q84.29 66.71 84.88 64.88Q85.46 63.05 86.12 61.33Q86.77 59.60 87.60 58.56L87.60 58.56Q87.67 57.87 87.98 57.04Q88.29 56.22 88.98 56.15L88.98 56.15Q88.71 54.97 89.26 53.94Q89.81 52.90 90.44 52.00L90.44 52.00Q90.64 51.73 90.81 51.48Q90.99 51.24 91.13 51.04L91.13 51.04Q91.26 50.90 91.47 50.41L91.47 50.41Q92.02 49.31 93.13 47.93Q94.23 46.55 96.51 46.62L96.51 46.62Q96.79 47.10 97.48 47.24Q98.17 47.38 98.86 47.51L98.86 47.51Q98.93 47.93 99.79 48.65Q100.66 49.38 101.73 50.17Q102.80 50.97 103.42 51.66L103.42 51.66Q103.00 52.49 103.28 52.83Q103.56 53.18 104.11 53.52L104.11 53.52Q104.66 53.87 105.25 54.49Q105.84 55.11 105.77 56.56L105.77 56.56Q106.94 57.80 107.29 58.77Q107.63 59.74 107.70 60.43L107.70 60.43Q107.77 60.84 107.87 61.15Q107.98 61.46 108.32 61.60L108.32 61.60Q108.18 64.09 108.43 65.47Q108.67 66.85 108.94 67.75L108.94 67.75Q109.22 68.58 109.25 69.20Q109.29 69.82 108.81 70.65ZM102.80 67.13L102.80 67.13Q102.87 66.92 102.94 66.51L102.94 66.51Q103.21 65.26 103.31 63.92Q103.42 62.57 102.52 61.95L102.52 61.95Q102.73 60.01 101.93 58.18Q101.14 56.35 99.93 54.80Q98.72 53.25 97.55 52.28L97.55 52.28L96.24 52.56Q94.99 54.90 93.65 57.84Q92.30 60.77 91.13 63.85Q89.95 66.92 89.12 69.75L89.12 69.75Q89.74 69.96 90.54 69.99Q91.33 70.03 92.16 69.96L92.16 69.96Q93.13 69.96 94.06 69.99Q94.99 70.03 95.61 70.37L95.61 70.37Q96.44 70.30 97.65 69.58Q98.86 68.85 100.24 68.06Q101.62 67.27 102.80 67.13Z"/>
            </svg>