<?xml version="1.0" encoding="UTF-8" standalone="no"?>
            <svg
               xmlns="http://www.w3.org/2000/svg"
               xmlns:svg="http://www.w3.org/2000/svg"
               width="200"
               height="100"
               version="1.1"
               id="svg1"
               viewBox="0 0 200 100"
               >
               <path d="M18.25 62.79L18.25 62.79Q16.04 62.79 14.26 62.23Q12.48 61.67 11.31 60.77L11.31 60.77L12.74 57.95Q13.71 58.78 15.20 59.32Q16.68 59.87 18.37 59.87L18.37 59.87Q20.47 59.87 21.54 59.17Q22.61 58.48 22.61 57.39L22.61 57.39Q22.61 56.60 22.21 56.00Q21.82 55.40 20.77 54.82Q19.72 54.24 17.73 53.56L17.73 53.56Q14.99 52.63 13.62 51.33Q12.25 50.04 12.25 47.75L12.25 47.75Q12.25 45.50 14.22 43.94Q16.19 42.38 19.68 42.38L19.68 42.38Q21.56 42.38 23.02 42.78Q24.48 43.17 25.65 43.77L25.65 43.77L24.71 46.55Q23.69 45.95 22.40 45.57Q21.11 45.20 19.53 45.20L19.53 45.20Q17.58 45.20 16.57 45.99Q15.55 46.77 15.55 47.71L15.55 47.71Q15.55 48.61 16.34 49.25Q17.13 49.89 19.42 50.64L19.42 50.64Q23.13 51.88 24.60 53.38Q26.06 54.88 26.06 57.13L26.06 57.13Q26.06 59.76 23.94 61.27Q21.82 62.79 18.25 62.79ZM52.25 61.41L48.98 62.72L46.06 55.22L33.90 55.22L30.97 62.64L27.93 61.41L38.21 36.08L42.12 36.08L52.25 61.41ZM39.98 39.61L35.03 52.21L44.89 52.21L39.98 39.61ZM59.71 70.60L56.34 70.60L56.34 47.82Q56.34 46.55 55.72 46.00Q55.10 45.46 54.12 45.46L54.12 45.46L54.84 42.83Q58.29 42.83 59.15 45.57L59.15 45.57Q59.53 45.01 60.37 44.26Q61.21 43.51 62.47 42.95Q63.73 42.38 65.34 42.38L65.34 42.38Q67.59 42.38 69.56 43.57Q71.53 44.75 72.73 46.98Q73.93 49.21 73.93 52.40L73.93 52.40Q73.93 55.52 72.73 57.86Q71.53 60.21 69.60 61.50Q67.67 62.79 65.42 62.79L65.42 62.79Q63.69 62.79 62.19 62.10Q60.69 61.41 59.71 60.51L59.71 60.51L59.71 70.60ZM64.74 59.79L64.74 59.79Q67.29 59.79 68.89 57.79Q70.48 55.78 70.48 52.51L70.48 52.51Q70.48 50.26 69.67 48.65Q68.87 47.04 67.54 46.17Q66.20 45.31 64.59 45.31L64.59 45.31Q62.98 45.31 61.68 46.12Q60.39 46.92 59.71 47.86L59.71 47.86L59.71 57.47Q60.69 58.48 61.96 59.14Q63.24 59.79 64.74 59.79Z"/><path d="M82.60 58.77L82.60 58.77Q85.13 58.77 86.01 57.23L86.01 57.23Q86.34 56.68 86.34 56.02L86.34 56.02Q86.34 54.48 84.10 53.38L84.10 53.38Q83.63 53.12 82.52 52.64L82.52 52.64Q79.51 51.40 78.52 50.29L78.52 50.29Q77.46 49.08 77.46 47.47L77.46 47.47Q77.46 44.93 80.25 43.91L80.25 43.91Q81.53 43.43 83.04 43.43L83.04 43.43Q85.46 43.43 87.22 44.46L87.22 44.46Q87.22 43.39 87.74 43.24L87.74 43.24Q87.96 43.21 88.21 43.21L88.21 43.21L88.21 47.80L87.26 47.80Q87.19 44.42 83.51 44.38L83.51 44.38Q80.76 44.38 80.10 46.00L80.10 46.00Q79.92 46.44 79.92 46.92L79.92 46.92Q79.92 48.49 82.19 49.60L82.19 49.60Q82.71 49.85 83.81 50.29L83.81 50.29Q86.78 51.51 87.77 52.61L87.77 52.61Q88.84 53.78 88.84 55.40L88.84 55.40Q88.84 58.37 85.68 59.36L85.68 59.36Q84.47 59.77 83.04 59.77L83.04 59.77Q80.39 59.73 78.45 58.44L78.45 58.44Q78.45 59.40 77.97 59.55L77.97 59.55Q77.75 59.58 77.46 59.58L77.46 59.58L77.46 54.00L78.49 54.00Q78.56 58.74 82.60 58.77ZM104.88 59.40L112.81 59.40Q112.81 58.59 112.22 58.48L112.22 58.48Q112.04 58.44 111.86 58.44L111.86 58.44L110.61 58.44L102.20 37.37L100.84 37.37L92.62 58.44L90.31 58.44L90.31 59.40L96.84 59.40Q96.84 58.59 96.25 58.48L96.25 58.48Q96.07 58.44 95.89 58.44L95.89 58.44L94.09 58.44L96.84 51.32L104.51 51.32L107.27 58.44L104.88 58.44L104.88 59.40ZM100.66 41.37L104.11 50.26L97.25 50.26L100.66 41.37ZM121.84 65.46L119.27 65.46L119.27 57.86Q121.29 59.62 123.93 59.77L123.93 59.77Q127.20 59.77 129.40 57.31L129.40 57.31Q131.53 54.92 131.53 51.25L131.53 51.25Q131.53 47.06 129.22 44.90L129.22 44.90Q127.61 43.43 125.29 43.43L125.29 43.43Q121.73 43.43 119.97 46.26L119.97 46.26Q119.53 46.99 119.24 47.80L119.24 47.80L119.05 43.80L113.77 43.80L113.77 44.71L116.52 44.71L116.52 63.25Q116.52 64.94 115.56 65.27L115.56 65.27Q115.01 65.46 113.77 65.46L113.77 65.46L113.77 66.37L122.76 66.37Q122.76 65.57 122.21 65.49L122.21 65.49Q122.06 65.46 121.84 65.46L121.84 65.46ZM124.12 44.90L124.12 44.90Q127.31 44.90 128.16 48.90L128.16 48.90Q128.41 50.11 128.41 51.62L128.41 51.62Q128.41 57.01 125.51 58.44L125.51 58.44Q124.67 58.85 123.68 58.85L123.68 58.85Q120.85 58.85 119.79 55.87L119.79 55.87Q119.24 54.37 119.24 52.31L119.24 52.31Q119.24 47.54 121.70 45.70L121.70 45.70Q122.80 44.90 124.12 44.90Z"/><path d="M147.28 50.92L147.28 50.92Q147.24 50.95 147.18 51.04L147.18 51.04Q147.09 51.13 147.01 51.26Q146.94 51.38 146.97 51.53L146.97 51.53Q146.51 51.59 146.02 51.56Q145.53 51.53 144.98 51.47L144.98 51.47Q143.94 51.38 142.90 51.41Q141.85 51.44 141.15 52.27L141.15 52.27Q141.58 53.37 142.30 54.72Q143.02 56.06 143.71 57.44Q144.40 58.82 144.61 60.08L144.61 60.08Q144.86 61.21 144.38 61.70Q143.91 62.19 142.86 62.74L142.86 62.74Q142.16 63.11 141.41 63.31Q140.66 63.51 139.43 63.26L139.43 63.26Q138.73 63.11 138.33 62.89Q137.93 62.68 137.41 62.37L137.41 62.37Q136.68 61.94 135.99 61.53Q135.30 61.12 134.90 60.47L134.90 60.47Q134.96 60.17 134.93 59.79Q134.90 59.40 134.87 59.07L134.87 59.07Q134.84 58.79 134.83 58.58Q134.81 58.36 134.84 58.24L134.84 58.24Q135.21 58.18 135.84 58.47Q136.46 58.76 137.23 59.16L137.23 59.16Q138.12 59.65 139.07 60.09Q140.02 60.54 140.75 60.47L140.75 60.47Q141.82 60.41 141.98 59.62Q142.13 58.82 141.64 57.96L141.64 57.96Q141.52 57.72 141.36 57.46Q141.21 57.20 141.06 56.92L141.06 56.92Q140.48 55.91 139.91 54.76Q139.34 53.61 139.16 52.36Q138.98 51.10 139.50 49.79L139.50 49.79Q141.64 49.05 143.69 49.45Q145.74 49.85 147.28 50.92ZM168.41 60.93L168.41 60.93Q168.41 61.27 168.39 61.61Q168.38 61.94 168.35 62.31L168.35 62.31Q168.32 62.53 168.30 62.74Q168.29 62.96 168.29 63.20L168.29 63.20Q168.13 63.51 167.80 63.63Q167.46 63.75 167.14 63.81Q166.82 63.87 166.69 64.09L166.69 64.09Q166.45 64.09 166.31 63.98Q166.17 63.87 166.08 63.75L166.08 63.75Q166.02 63.66 165.94 63.60Q165.87 63.54 165.74 63.57L165.74 63.57Q164.67 62.68 163.69 61.65Q162.71 60.63 161.69 59.68Q160.66 58.73 159.37 58.05L159.37 58.05Q159.07 57.90 159.01 57.49Q158.94 57.07 158.55 56.86L158.55 56.86Q158.91 56.40 159.11 56.34Q159.31 56.28 159.42 56.16Q159.53 56.03 159.65 55.51L159.65 55.51Q159.92 55.57 160.17 55.39Q160.41 55.21 160.69 54.93L160.69 54.93Q161.03 54.62 161.42 54.32Q161.82 54.01 162.44 54.01L162.44 54.01Q163.14 53.61 163.92 53.37Q164.70 53.12 165.56 53.64L165.56 53.64Q165.62 53.49 165.59 53.29Q165.56 53.09 165.53 52.88L165.53 52.88Q165.47 52.66 165.47 52.57L165.47 52.57Q165.41 52.11 165.42 51.62Q165.44 51.13 165.47 50.67L165.47 50.67Q165.47 50.34 165.48 50Q165.50 49.66 165.50 49.33L165.50 49.33Q165.50 48.99 165.47 48.65Q165.44 48.32 165.41 47.98L165.41 47.98Q165.35 47.27 165.30 46.55Q165.25 45.83 165.41 45.16L165.41 45.16Q165.22 45.01 165.19 44.72Q165.16 44.43 165.10 44.21L165.10 44.21Q163.97 45.10 163.14 46.28Q162.31 47.46 161.42 48.71L161.42 48.71Q160.51 49.97 159.56 51.26Q158.61 52.54 157.47 53.64L157.47 53.64Q157.44 53.77 157.09 54.35Q156.74 54.93 156.26 55.64Q155.79 56.34 155.39 56.85Q154.99 57.35 154.87 57.35L154.87 57.35Q154.17 58.79 153.03 60.29Q151.90 61.79 150.74 63.08L150.74 63.08Q150.61 63.05 150.52 63.08Q150.43 63.11 150.37 63.14L150.37 63.14Q150.25 63.17 150.14 63.19Q150.03 63.20 149.88 63.17L149.88 63.17Q149.82 63.02 149.82 62.92Q149.82 62.83 149.66 62.80L149.66 62.80Q149.88 61.64 150.49 60.75Q151.10 59.86 151.81 59.00L151.81 59.00Q151.93 58.51 152.19 58.21Q152.45 57.90 152.71 57.60Q152.97 57.29 153.06 56.83L153.06 56.83Q153.28 56.58 153.74 55.97Q154.20 55.36 154.72 54.62Q155.24 53.89 155.64 53.23Q156.03 52.57 156.10 52.30L156.10 52.30Q156.34 52.39 156.46 52.14Q156.59 51.90 156.52 51.87L156.52 51.87Q157.54 50.86 158.48 49.20L158.48 49.20Q158.58 49.14 158.70 49.17L158.70 49.17Q158.76 49.17 158.79 49.17L158.79 49.17Q158.76 48.99 158.84 48.87Q158.91 48.74 159.01 48.65L159.01 48.65Q159.13 48.53 159.23 48.39Q159.34 48.25 159.37 48.01L159.37 48.01Q160.08 47.40 160.97 46.19Q161.85 44.98 162.71 44.00L162.71 44.00Q162.74 44.00 162.80 44.03L162.80 44.03Q162.89 44.09 162.99 44.09Q163.08 44.09 163.08 43.81L163.08 43.81Q163.23 43.38 163.74 42.97Q164.24 42.56 164.67 42.28L164.67 42.28Q165.38 42.31 166.02 42.37Q166.66 42.44 167.21 42.96L167.21 42.96Q167.18 43.26 167.24 43.46Q167.31 43.66 167.40 43.84L167.40 43.84Q167.49 44.09 167.55 44.40Q167.61 44.70 167.43 45.25L167.43 45.25Q167.55 45.38 167.63 45.53Q167.70 45.68 167.55 45.90L167.55 45.90Q167.64 45.99 167.69 46.54Q167.73 47.09 167.76 47.79Q167.80 48.50 167.76 49.07Q167.73 49.63 167.67 49.69L167.67 49.69Q167.76 50.18 167.80 50.95Q167.83 51.72 168.04 52.08L168.04 52.08Q167.86 52.45 167.86 52.80Q167.86 53.15 167.92 53.49L167.92 53.49Q167.95 53.80 167.96 54.12Q167.98 54.44 167.86 54.75L167.86 54.75Q167.89 54.75 167.96 54.76Q168.04 54.78 168.16 54.81L168.16 54.81Q168.04 54.99 168.02 55.13Q168.01 55.27 168.04 55.39L168.04 55.39Q168.07 55.51 168.06 55.62Q168.04 55.73 167.92 55.88L167.92 55.88Q168.04 56.49 168.15 57.41Q168.25 58.33 168.32 59.28Q168.38 60.23 168.41 60.93ZM166.11 59.31L166.11 59.31Q165.93 59.07 165.91 58.68Q165.90 58.30 165.93 57.93L165.93 57.93Q165.93 57.72 165.94 57.50Q165.96 57.29 165.93 57.11L165.93 57.11Q165.90 56.92 165.79 56.58Q165.68 56.25 165.53 56.00Q165.38 55.76 165.19 55.85L165.19 55.85Q164.43 56.22 163.75 56.80Q163.08 57.38 162.37 57.87L162.37 57.87Q162.50 58.05 162.37 58.33L162.37 58.33L162.37 58.39Q163.17 59.19 164.04 59.92Q164.92 60.66 165.96 61.27L165.96 61.27Q166.02 61.03 166.02 60.80Q166.02 60.57 165.99 60.35L165.99 60.35Q165.96 60.08 165.96 59.82Q165.96 59.56 166.11 59.31ZM187.58 59.16L187.58 59.16Q187.55 59.19 187.49 59.22L187.49 59.22Q187.34 59.31 187.23 59.40Q187.12 59.49 187.18 59.71L187.18 59.71Q187.12 59.74 186.94 59.86L186.94 59.86Q186.66 60.05 186.32 60.23Q185.99 60.41 185.59 60.38L185.59 60.38Q185.59 60.63 185.18 60.78Q184.76 60.93 184.18 61.03Q183.60 61.12 183.09 61.24Q182.59 61.36 182.40 61.55L182.40 61.55Q181.76 61.58 180.90 61.47Q180.05 61.36 179.28 61.19Q178.51 61.03 178.12 60.87L178.12 60.87Q177.57 61.09 177.32 61.64Q177.08 62.19 176.85 62.74Q176.62 63.29 176.10 63.57L176.10 63.57Q176.10 63.90 175.97 64.10Q175.85 64.30 175.73 64.43L175.73 64.43Q175.64 64.55 175.57 64.66Q175.51 64.76 175.51 64.88L175.51 64.88Q175.15 65.96 174.56 67.03Q173.98 68.10 173.42 68.81Q172.85 69.51 172.51 69.51L172.51 69.51Q172.76 67.55 173.16 66.26Q173.55 64.98 174.01 63.94Q174.47 62.89 174.93 61.73Q175.39 60.57 175.79 58.88L175.79 58.88Q176.13 58.70 176.42 58.05Q176.71 57.41 176.97 56.60Q177.23 55.79 177.52 55.02Q177.81 54.26 178.18 53.80L178.18 53.80Q178.21 53.49 178.35 53.12Q178.48 52.76 178.79 52.73L178.79 52.73Q178.67 52.21 178.91 51.75Q179.16 51.29 179.43 50.89L179.43 50.89Q179.53 50.77 179.60 50.66Q179.68 50.55 179.74 50.46L179.74 50.46Q179.80 50.40 179.89 50.18L179.89 50.18Q180.14 49.69 180.63 49.08Q181.12 48.47 182.13 48.50L182.13 48.50Q182.25 48.71 182.56 48.77Q182.86 48.84 183.17 48.90L183.17 48.90Q183.20 49.08 183.58 49.40Q183.97 49.72 184.44 50.08Q184.92 50.43 185.19 50.74L185.19 50.74Q185.01 51.10 185.13 51.26Q185.25 51.41 185.50 51.56L185.50 51.56Q185.74 51.72 186.00 51.99Q186.26 52.27 186.23 52.91L186.23 52.91Q186.75 53.46 186.91 53.89Q187.06 54.32 187.09 54.62L187.09 54.62Q187.12 54.81 187.17 54.95Q187.21 55.08 187.37 55.15L187.37 55.15Q187.30 56.25 187.41 56.86Q187.52 57.47 187.64 57.87L187.64 57.87Q187.76 58.24 187.78 58.51Q187.79 58.79 187.58 59.16ZM184.92 57.60L184.92 57.60Q184.95 57.50 184.98 57.32L184.98 57.32Q185.10 56.77 185.15 56.17Q185.19 55.57 184.79 55.30L184.79 55.30Q184.89 54.44 184.53 53.63Q184.18 52.82 183.64 52.13Q183.11 51.44 182.59 51.01L182.59 51.01L182.01 51.13Q181.46 52.17 180.86 53.48Q180.26 54.78 179.74 56.14Q179.22 57.50 178.85 58.76L178.85 58.76Q179.13 58.85 179.48 58.87Q179.83 58.88 180.20 58.85L180.20 58.85Q180.63 58.85 181.04 58.87Q181.46 58.88 181.73 59.04L181.73 59.04Q182.10 59.00 182.63 58.68Q183.17 58.36 183.78 58.01Q184.40 57.66 184.92 57.60Z"/><path d="M190.00 66.85L190.00 66.85ZM190.00 66.85L190.00 66.85ZM190.00 66.85L190.00 66.85Z"/>
            </svg>