<svg xmlns="http://www.w3.org/2000/svg" xmlns:xlink="http://www.w3.org/1999/xlink" width="32.625" height="84.9375"><path fill="black" d="M17.51 31.64L17.51 31.64Q22.43 31.64 24.05 35.79L24.05 35.79Q24.61 37.13 24.61 38.67L24.61 38.67Q24.61 42.19 21.23 42.96L21.23 42.96Q19.48 43.31 16.24 43.24L16.24 43.24L8.79 43.03Q9.14 34.95 14.06 32.48L14.06 32.48Q15.68 31.64 17.51 31.64ZM29.74 53.72L29.74 53.72L27.98 53.09Q25.52 58.43 20.04 59.13L20.04 59.13Q19.34 59.20 18.70 59.20L18.70 59.20Q11.32 59.20 9.42 50.41L9.42 50.41Q8.86 47.95 8.79 45L8.79 45L17.23 45.14Q25.80 45.28 28.27 43.52L28.27 43.52Q30.16 42.12 30.16 39.52L30.16 39.52Q30.16 34.73 25.31 31.92L25.31 31.92Q21.87 29.88 17.37 29.88L17.37 29.88Q8.58 29.88 4.78 37.20L4.78 37.20Q2.81 40.99 2.81 45.77L2.81 45.77Q2.81 54.49 9.07 58.71L9.07 58.71Q12.80 61.17 17.58 61.17L17.58 61.17Q25.17 61.17 28.76 55.69L28.76 55.69Q29.32 54.70 29.74 53.72Z"/></svg>