<svg xmlns="http://www.w3.org/2000/svg" xmlns:xlink="http://www.w3.org/1999/xlink" width="32.112" height="91.15200000000002"><path fill="black" d="M17.14 61.70L17.14 61.70Q19.22 61.70 21.53 60.62Q23.83 59.54 25.13 58.46L25.13 58.46L26.42 57.38L29.74 61.42Q29.02 62.64 27.50 64.22Q25.99 65.81 24.44 66.92Q22.90 68.04 20.34 68.94Q17.78 69.84 15.05 69.84L15.05 69.84Q9.22 69.84 5.54 65.41Q1.87 60.98 1.87 54L1.87 54Q1.87 45.22 6.98 38.59Q12.10 31.97 18.94 31.97L18.94 31.97Q24.19 31.97 27.11 34.92Q30.02 37.87 30.02 43.20L30.02 43.20Q30.02 46.37 28.94 50.40L28.94 50.40L27.50 51.91L9.50 53.57Q10.73 61.70 17.14 61.70ZM17.14 39.38L17.14 39.38Q13.97 39.38 11.81 41.94Q9.65 44.50 9.29 48.46L9.29 48.46L21.53 46.94Q21.74 45.29 21.74 44.21L21.74 44.21Q21.74 39.38 17.14 39.38Z"/></svg>