<svg xmlns="http://www.w3.org/2000/svg" xmlns:xlink="http://www.w3.org/1999/xlink" width="32.6953125" height="91.7578125"><path fill="black" d="M28.37 60.64L28.37 60.64Q28.37 62.82 27.54 64.76Q26.72 66.69 25.28 68.13Q23.84 69.57 21.90 70.40Q19.97 71.23 17.79 71.23L17.79 71.23L14.91 71.23Q12.73 71.23 10.79 70.40Q8.86 69.57 7.42 68.13Q5.98 66.69 5.15 64.76Q4.32 62.82 4.32 60.64L4.32 60.64L4.32 44.40Q4.32 42.22 5.15 40.29Q5.98 38.36 7.42 36.91Q8.86 35.47 10.79 34.65Q12.73 33.82 14.91 33.82L14.91 33.82L17.79 33.82Q19.97 33.82 21.90 34.65Q23.84 35.47 25.28 36.91Q26.72 38.36 27.54 40.29Q28.37 42.22 28.37 44.40L28.37 44.40L28.37 52.88L8.65 52.88L8.65 60.89Q8.65 62.19 9.14 63.33Q9.63 64.48 10.48 65.32Q11.32 66.16 12.46 66.66Q13.61 67.15 14.91 67.15L14.91 67.15L17.79 67.15Q19.09 67.15 20.23 66.66Q21.38 66.16 22.22 65.32Q23.06 64.48 23.55 63.33Q24.05 62.19 24.05 60.89L24.05 60.89L24.05 58.50L28.37 59.20L28.37 60.64ZM24.05 49.50L24.05 44.16Q24.05 42.86 23.55 41.71Q23.06 40.57 22.22 39.73Q21.38 38.88 20.23 38.39Q19.09 37.90 17.79 37.90L17.79 37.90L14.91 37.90Q13.61 37.90 12.46 38.39Q11.32 38.88 10.48 39.73Q9.63 40.57 9.14 41.71Q8.65 42.86 8.65 44.16L8.65 44.16L8.65 49.50L24.05 49.50Z"/></svg>