<svg xmlns="http://www.w3.org/2000/svg" xmlns:xlink="http://www.w3.org/1999/xlink" width="28.86328125" height="92.8828125"><path fill="black" d="M27.56 63.21L27.56 63.21Q27.56 65.29 26.61 67.11Q25.66 68.94 24.05 70.28Q22.43 71.61 20.25 72.39Q18.07 73.16 15.61 73.16L15.61 73.16Q13.96 73.16 12.27 72.70Q10.58 72.25 9.04 71.19Q7.49 70.14 6.12 68.41Q4.75 66.69 3.74 64.20Q2.74 61.70 2.16 58.34Q1.58 54.98 1.58 50.63L1.58 50.63Q1.58 46.51 2.16 43.35Q2.74 40.18 3.74 37.83Q4.75 35.47 6.08 33.87Q7.42 32.27 8.95 31.27Q10.48 30.27 12.11 29.85Q13.75 29.43 15.33 29.43L15.33 29.43Q17.68 29.43 19.79 30.18Q21.90 30.94 23.48 32.41Q25.07 33.89 26.00 36.05Q26.93 38.21 26.93 41.03L26.93 41.03Q26.93 43.56 25.89 46.14Q24.86 48.73 22.82 51.03Q20.78 53.33 17.77 55.21Q14.77 57.09 10.86 58.18L10.86 58.18Q11.07 60.36 11.48 62.16Q11.88 63.95 12.50 65.21Q13.11 66.48 13.94 67.18Q14.77 67.89 15.86 67.89L15.86 67.89Q16.56 67.85 17.19 67.64L17.19 67.64Q17.75 67.46 18.33 67.08Q18.91 66.69 19.30 65.95L19.30 65.95Q18.39 65.53 17.89 64.86Q17.40 64.20 17.16 63.60L17.16 63.60Q16.88 62.89 16.84 62.12L16.84 62.12Q16.84 60.43 17.51 59.38Q18.18 58.32 19.09 57.73Q20.00 57.13 20.95 56.90Q21.90 56.67 22.46 56.67L22.46 56.67Q23.06 56.67 23.92 56.92Q24.79 57.16 25.59 57.87Q26.40 58.57 26.98 59.85Q27.56 61.14 27.56 63.21ZM18.88 41.10L18.88 41.10Q18.88 39.83 18.65 38.69Q18.42 37.55 17.98 36.70Q17.54 35.86 16.89 35.35Q16.24 34.84 15.40 34.84L15.40 34.84Q13.96 34.84 13.04 36.16Q12.13 37.48 11.57 39.66Q11.00 41.84 10.79 44.68Q10.58 47.53 10.58 50.63L10.58 50.63L10.58 53.19Q12.38 52.24 13.90 50.94Q15.43 49.64 16.54 48.08Q17.65 46.51 18.26 44.75Q18.88 43.00 18.88 41.10Z"/></svg>