<?xml version="1.0" encoding="UTF-8" standalone="no"?>
            <svg
               xmlns="http://www.w3.org/2000/svg"
               xmlns:svg="http://www.w3.org/2000/svg"
               width="100"
               height="100"
               version="1.1"
               id="svg1"
               viewBox="0 0 100 100"
               >
               <path fill="black" d="M51.18 67.69L51.18 67.69Q53.48 67.69 56.00 66.51Q58.53 65.32 59.95 64.14L59.95 64.14L61.37 62.95L65.01 67.38Q64.22 68.72 62.56 70.46Q60.90 72.20 59.20 73.42Q57.50 74.64 54.70 75.63Q51.90 76.62 48.89 76.62L48.89 76.62Q42.50 76.62 38.47 71.76Q34.44 66.90 34.44 59.24L34.44 59.24Q34.44 49.61 40.05 42.34Q45.66 35.07 53.16 35.07L53.16 35.07Q58.93 35.07 62.12 38.31Q65.32 41.55 65.32 47.39L65.32 47.39Q65.32 50.87 64.14 55.29L64.14 55.29L62.56 56.95L42.81 58.77Q44.15 67.69 51.18 67.69ZM51.18 43.21L51.18 43.21Q47.71 43.21 45.34 46.01Q42.97 48.82 42.58 53.16L42.58 53.16L56.00 51.50Q56.24 49.68 56.24 48.50L56.24 48.50Q56.24 43.21 51.18 43.21Z"/>
            </svg>