<svg xmlns="http://www.w3.org/2000/svg" xmlns:xlink="http://www.w3.org/1999/xlink" width="35.296875" height="95.484375"><path fill="black" d="M32.84 63.53L32.84 67.92Q29.81 69.79 26.31 71.09Q22.82 72.39 19.16 72.39L19.16 72.39Q14.80 72.39 10.99 70.44Q7.17 68.48 4.82 64.51Q2.46 60.54 2.46 54.53L2.46 54.53Q2.46 48.90 4.64 44.72Q6.82 40.54 10.65 38.23Q14.48 35.93 19.37 35.93L19.37 35.93Q26.09 35.93 29.46 40.10Q32.84 44.26 32.84 50.70L32.84 50.70Q32.84 51.05 32.84 51.63Q32.84 52.21 32.77 52.70L32.77 52.70L9.42 52.70Q9.42 55.44 10.00 58.17Q10.58 60.89 11.95 63.11Q13.32 65.32 15.64 66.66Q17.96 67.99 21.45 67.99L21.45 67.99Q24.54 67.99 27.47 66.57Q30.41 65.14 32.84 63.53L32.84 63.53ZM9.81 49.46L25.63 49.46L25.63 47.88Q25.63 44.33 23.92 41.91Q22.22 39.48 18.63 39.48L18.63 39.48Q15.08 39.48 12.59 42.15Q10.09 44.82 9.81 49.46L9.81 49.46Z"/></svg>