<svg xmlns="http://www.w3.org/2000/svg" xmlns:xlink="http://www.w3.org/1999/xlink" width="39.168000000000006" height="85.10400000000001"><path fill="black" d="M20.74 67.10L20.74 67.10Q12.67 67.10 7.96 61.96Q3.24 56.81 3.24 47.52L3.24 47.52Q3.24 41.90 5.36 37.48Q7.49 33.05 11.30 30.49Q15.12 27.94 20.16 27.94L20.16 27.94Q25.56 27.94 29.12 30.28Q32.69 32.62 34.49 36.58Q36.29 40.54 36.29 45.29L36.29 45.29Q36.29 47.81 36.07 50.18L36.07 50.18L9.86 50.18Q10.51 55.44 13.54 58.39Q16.56 61.34 21.53 61.34L21.53 61.34Q24.77 61.34 27.36 60.66Q29.95 59.98 32.33 58.90L32.33 58.90L33.84 64.44Q31.25 65.59 28.01 66.35Q24.77 67.10 20.74 67.10ZM9.79 44.93L9.79 44.93L30.31 44.93Q30.31 39.46 27.58 36.50Q24.84 33.55 20.02 33.55L20.02 33.55Q15.84 33.55 13.10 36.47Q10.37 39.38 9.79 44.93Z"/></svg>