<?xml version="1.0" encoding="UTF-8" standalone="no"?>
            <svg
               xmlns="http://www.w3.org/2000/svg"
               xmlns:svg="http://www.w3.org/2000/svg"
               width="100"
               height="100"
               version="1.1"
               id="svg1"
               viewBox="0 0 100 100"
               >
               <path fill="black" d="M63.10 66.09L63.10 66.09Q63.10 68.47 62.20 70.57Q61.30 72.68 59.73 74.25Q58.16 75.82 56.05 76.72Q53.95 77.62 51.57 77.62L51.57 77.62L48.43 77.62Q46.05 77.62 43.95 76.72Q41.84 75.82 40.27 74.25Q38.70 72.68 37.80 70.57Q36.90 68.47 36.90 66.09L36.90 66.09L36.90 48.39Q36.90 46.02 37.80 43.91Q38.70 41.80 40.27 40.23Q41.84 38.66 43.95 37.76Q46.05 36.86 48.43 36.86L48.43 36.86L51.57 36.86Q53.95 36.86 56.05 37.76Q58.16 38.66 59.73 40.23Q61.30 41.80 62.20 43.91Q63.10 46.02 63.10 48.39L63.10 48.39L63.10 57.62L41.61 57.62L41.61 66.36Q41.61 67.78 42.15 69.02Q42.68 70.27 43.60 71.19Q44.52 72.11 45.77 72.64Q47.01 73.18 48.43 73.18L48.43 73.18L51.57 73.18Q52.99 73.18 54.23 72.64Q55.48 72.11 56.40 71.19Q57.32 70.27 57.85 69.02Q58.39 67.78 58.39 66.36L58.39 66.36L58.39 63.75L63.10 64.52L63.10 66.09ZM58.39 53.95L58.39 48.12Q58.39 46.70 57.85 45.46Q57.32 44.21 56.40 43.30Q55.48 42.38 54.23 41.84Q52.99 41.30 51.57 41.30L51.57 41.30L48.43 41.30Q47.01 41.30 45.77 41.84Q44.52 42.38 43.60 43.30Q42.68 44.21 42.15 45.46Q41.61 46.70 41.61 48.12L41.61 48.12L41.61 53.95L58.39 53.95Z"/>
            </svg>