<?xml version="1.0" encoding="UTF-8" standalone="no"?>
            <svg
               xmlns="http://www.w3.org/2000/svg"
               xmlns:svg="http://www.w3.org/2000/svg"
               width="100"
               height="100"
               version="1.1"
               id="svg1"
               viewBox="0 0 100 100"
               >
               <path fill="black" d="M31.46 37.25L31.46 37.25Q37.25 37.25 39.16 42.14L39.16 42.14Q39.82 43.71 39.82 45.53L39.82 45.53Q39.82 49.67 35.84 50.58L35.84 50.58Q33.77 50.99 29.97 50.91L29.97 50.91L21.19 50.66Q21.61 41.14 27.40 38.25L27.40 38.25Q29.30 37.25 31.46 37.25ZM45.86 63.25L45.86 63.25L43.79 62.50Q40.89 68.79 34.44 69.62L34.44 69.62Q33.61 69.70 32.86 69.70L32.86 69.70Q24.17 69.70 21.94 59.35L21.94 59.35Q21.27 56.46 21.19 52.98L21.19 52.98L31.13 53.15Q41.23 53.31 44.12 51.24L44.12 51.24Q46.36 49.59 46.36 46.52L46.36 46.52Q46.36 40.89 40.65 37.58L40.65 37.58Q36.59 35.18 31.29 35.18L31.29 35.18Q20.94 35.18 16.47 43.79L16.47 43.79Q14.16 48.26 14.16 53.89L14.16 53.89Q14.16 64.16 21.52 69.12L21.52 69.12Q25.91 72.02 31.54 72.02L31.54 72.02Q40.48 72.02 44.70 65.56L44.70 65.56Q45.36 64.40 45.86 63.25ZM81.62 72.02L81.62 72.02Q88.00 72.02 88.66 64.32L88.66 64.32Q88.74 63.82 88.74 63.41L88.74 63.41L86.59 63.33Q86.01 69.37 83.36 69.45L83.36 69.45Q81.21 69.29 81.13 65.15L81.13 65.15L81.13 47.68Q81.13 35.84 69.29 35.18L69.29 35.18Q68.54 35.18 67.80 35.18L67.80 35.18Q58.53 35.18 55.38 39.49L55.38 39.49Q54.39 40.89 54.39 42.30L54.39 42.30Q54.39 44.87 56.79 45.28L56.79 45.28Q57.20 45.36 57.62 45.36L57.62 45.36Q59.52 45.36 60.43 42.96L60.43 42.96Q61.59 39.90 62.00 39.32L62.00 39.32Q63.58 37.25 66.89 37.25L66.89 37.25Q74.67 37.75 74.92 45.78L74.92 45.78L74.92 50.99Q55.46 50.99 52.65 59.11L52.65 59.11Q52.15 60.68 52.15 62.50L52.15 62.50Q52.15 68.79 57.70 71.11L57.70 71.11Q59.93 72.02 62.42 72.02L62.42 72.02Q68.46 72.02 72.60 67.88L72.60 67.88Q74.09 66.31 74.83 64.57L74.83 64.57Q75.83 71.94 81.62 72.02ZM65.15 68.71L65.15 68.71Q60.10 68.71 58.94 63.66L58.94 63.66Q58.69 62.50 58.69 61.09L58.69 61.09Q58.69 55.55 65.07 54.06L65.07 54.06Q68.46 53.31 74.92 53.23L74.92 53.23L74.92 59.85Q73.68 65.56 68.87 67.88L68.87 67.88Q66.97 68.71 65.15 68.71Z"/>
            </svg>