<?xml version="1.0" encoding="UTF-8" standalone="no"?>
            <svg
               xmlns="http://www.w3.org/2000/svg"
               xmlns:svg="http://www.w3.org/2000/svg"
               width="100"
               height="100"
               version="1.1"
               id="svg1"
               viewBox="0 0 100 100"
               >
               <path fill="black" d="M46.72 66.53L46.72 71.13Q43.56 73.09 39.89 74.45Q36.23 75.81 32.40 75.81L32.40 75.81Q27.84 75.81 23.84 73.77Q19.85 71.72 17.38 67.56Q14.91 63.40 14.91 57.11L14.91 57.11Q14.91 51.22 17.19 46.83Q19.48 42.45 23.49 40.04Q27.50 37.63 32.62 37.63L32.62 37.63Q39.65 37.63 43.19 41.99Q46.72 46.35 46.72 53.09L46.72 53.09Q46.72 53.46 46.72 54.07Q46.72 54.68 46.65 55.19L46.65 55.19L22.20 55.19Q22.20 58.06 22.81 60.92Q23.42 63.77 24.85 66.09Q26.29 68.41 28.72 69.81Q31.15 71.21 34.79 71.21L34.79 71.21Q38.03 71.21 41.11 69.72Q44.18 68.23 46.72 66.53L46.72 66.53ZM22.61 51.80L39.18 51.80L39.18 50.15Q39.18 46.43 37.39 43.89Q35.60 41.35 31.85 41.35L31.85 41.35Q28.13 41.35 25.52 44.15Q22.90 46.94 22.61 51.80L22.61 51.80ZM86.41 71.94L86.41 74.89L75.26 74.89L74.26 70.43Q74.26 70.43 73.14 71.24Q72.02 72.05 70.18 73.12Q68.34 74.19 66.11 75Q63.88 75.81 61.67 75.81L61.67 75.81Q57.58 75.81 54.73 73.09Q51.88 70.36 51.88 65.61L51.88 65.61Q51.88 63.51 52.63 61.71Q53.39 59.90 55.65 58.27Q57.92 56.63 62.39 55.06Q66.86 53.50 74.26 51.88L74.26 51.88L74.26 48.64Q74.26 41.20 67.23 41.20L67.23 41.20Q65.28 41.20 63.86 41.57Q62.44 41.94 61.89 42.16L61.89 42.16L61.89 48.71L56.41 48.71Q55.38 48.71 54.49 48.32Q53.61 47.94 53.61 46.54L53.61 46.54Q53.61 43.45 55.96 41.48Q58.32 39.51 61.95 38.57Q65.57 37.63 69.29 37.63L69.29 37.63Q73.97 37.63 76.55 39.08Q79.12 40.54 80.15 43.10Q81.19 45.66 81.19 48.93L81.19 48.93L81.19 70.07Q81.19 70.77 81.65 71.21Q82.11 71.65 82.77 71.72L82.77 71.72L86.41 71.94ZM74.26 67.78L74.26 67.78L74.26 54.75Q69.18 56.00 66.18 57.27Q63.18 58.54 61.71 59.81Q60.24 61.08 59.78 62.39Q59.32 63.70 59.32 65.10L59.32 65.10Q59.32 67.42 60.81 69.39Q62.30 71.35 64.99 71.35L64.99 71.35Q66.49 71.35 68.11 70.82Q69.73 70.29 71.13 69.57Q72.53 68.85 73.40 68.32Q74.26 67.78 74.26 67.78Z"/>
            </svg>