<?xml version="1.0" encoding="UTF-8" standalone="no"?>
            <svg
               xmlns="http://www.w3.org/2000/svg"
               xmlns:svg="http://www.w3.org/2000/svg"
               width="200"
               height="100"
               version="1.1"
               id="svg1"
               viewBox="0 0 200 100"
               >
               <path d="M22.16 56.33L22.16 56.33Q22.16 57.26 21.81 58.09Q21.45 58.92 20.83 59.54Q20.22 60.16 19.39 60.51Q18.56 60.86 17.62 60.86L17.62 60.86L16.39 60.86Q15.45 60.86 14.63 60.51Q13.80 60.16 13.18 59.54Q12.56 58.92 12.21 58.09Q11.85 57.26 11.85 56.33L11.85 56.33L11.85 49.37Q11.85 48.43 12.21 47.60Q12.56 46.78 13.18 46.16Q13.80 45.54 14.63 45.19Q15.45 44.83 16.39 44.83L16.39 44.83L17.62 44.83Q18.56 44.83 19.39 45.19Q20.22 45.54 20.83 46.16Q21.45 46.78 21.81 47.60Q22.16 48.43 22.16 49.37L22.16 49.37L22.16 53.00L13.71 53.00L13.71 56.43Q13.71 56.99 13.92 57.48Q14.13 57.97 14.49 58.33Q14.85 58.69 15.34 58.90Q15.83 59.12 16.39 59.12L16.39 59.12L17.62 59.12Q18.18 59.12 18.67 58.90Q19.16 58.69 19.52 58.33Q19.88 57.97 20.10 57.48Q20.31 56.99 20.31 56.43L20.31 56.43L20.31 55.41L22.16 55.71L22.16 56.33ZM20.31 51.55L20.31 49.26Q20.31 48.70 20.10 48.21Q19.88 47.72 19.52 47.36Q19.16 47.00 18.67 46.79Q18.18 46.58 17.62 46.58L17.62 46.58L16.39 46.58Q15.83 46.58 15.34 46.79Q14.85 47.00 14.49 47.36Q14.13 47.72 13.92 48.21Q13.71 48.70 13.71 49.26L13.71 49.26L13.71 51.55L20.31 51.55ZM36.17 60.56L35.55 60.56L34.53 59.03Q33.90 59.85 32.95 60.36Q32.00 60.86 30.87 60.86L30.87 60.86L30.40 60.86Q29.47 60.86 28.64 60.51Q27.81 60.16 27.19 59.54Q26.57 58.92 26.22 58.09Q25.87 57.26 25.87 56.33L25.87 56.33L25.87 56.18Q25.87 55.24 26.22 54.41Q26.57 53.59 27.19 52.97Q27.81 52.35 28.64 52.00Q29.47 51.64 30.40 51.64L30.40 51.64L34.32 51.64L34.32 49.26Q34.32 48.70 34.11 48.21Q33.90 47.72 33.54 47.36Q33.17 47.00 32.68 46.79Q32.19 46.58 31.64 46.58L31.64 46.58L30.55 46.58Q29.99 46.58 29.51 46.79Q29.02 47.00 28.65 47.36Q28.29 47.72 28.08 48.21Q27.87 48.70 27.87 49.26L27.87 49.26L27.87 49.82L26.02 49.52L26.02 49.37Q26.02 48.43 26.37 47.60Q26.73 46.78 27.34 46.16Q27.96 45.54 28.79 45.19Q29.62 44.83 30.55 44.83L30.55 44.83L31.64 44.83Q32.57 44.83 33.40 45.19Q34.23 45.54 34.85 46.16Q35.46 46.78 35.82 47.60Q36.17 48.43 36.17 49.37L36.17 49.37L36.17 60.56ZM34.32 56.43L34.32 53.09L30.40 53.09Q29.84 53.09 29.35 53.30Q28.86 53.51 28.50 53.88Q28.14 54.25 27.93 54.74Q27.72 55.23 27.72 55.79L27.72 55.79L27.72 56.43Q27.72 56.99 27.93 57.48Q28.14 57.97 28.50 58.33Q28.86 58.69 29.35 58.90Q29.84 59.12 30.40 59.12L30.40 59.12L31.64 59.12Q32.19 59.12 32.68 58.90Q33.17 58.69 33.54 58.33Q33.90 57.97 34.11 57.48Q34.32 56.99 34.32 56.43L34.32 56.43Z"/><path d="M46.13 44.99L46.13 44.99Q48.41 44.99 49.16 46.91L49.16 46.91Q49.42 47.53 49.42 48.24L49.42 48.24Q49.42 49.87 47.86 50.23L47.86 50.23Q47.04 50.39 45.55 50.36L45.55 50.36L42.10 50.26Q42.26 46.52 44.54 45.38L44.54 45.38Q45.29 44.99 46.13 44.99ZM51.80 55.21L51.80 55.21L50.98 54.92Q49.84 57.39 47.30 57.72L47.30 57.72Q46.98 57.75 46.69 57.75L46.69 57.75Q43.27 57.75 42.39 53.68L42.39 53.68Q42.13 52.54 42.10 51.17L42.10 51.17L46.00 51.24Q49.97 51.30 51.11 50.49L51.11 50.49Q51.99 49.84 51.99 48.63L51.99 48.63Q51.99 46.42 49.75 45.12L49.75 45.12Q48.15 44.17 46.07 44.17L46.07 44.17Q42.00 44.17 40.24 47.56L40.24 47.56Q39.33 49.32 39.33 51.53L39.33 51.53Q39.33 55.57 42.23 57.52L42.23 57.52Q43.95 58.66 46.16 58.66L46.16 58.66Q49.68 58.66 51.34 56.12L51.34 56.12Q51.60 55.66 51.80 55.21ZM65.86 58.66L65.86 58.66Q68.37 58.66 68.63 55.63L68.63 55.63Q68.66 55.44 68.66 55.27L68.66 55.27L67.81 55.24Q67.59 57.62 66.54 57.65L66.54 57.65Q65.70 57.59 65.67 55.96L65.67 55.96L65.67 49.09Q65.67 44.43 61.01 44.17L61.01 44.17Q60.72 44.17 60.42 44.17L60.42 44.17Q56.78 44.17 55.54 45.87L55.54 45.87Q55.15 46.42 55.15 46.97L55.15 46.97Q55.15 47.98 56.09 48.14L56.09 48.14Q56.26 48.18 56.42 48.18L56.42 48.18Q57.17 48.18 57.53 47.23L57.53 47.23Q57.98 46.03 58.14 45.80L58.14 45.80Q58.76 44.99 60.07 44.99L60.07 44.99Q63.13 45.18 63.22 48.34L63.22 48.34L63.22 50.39Q55.57 50.39 54.47 53.58L54.47 53.58Q54.27 54.20 54.27 54.92L54.27 54.92Q54.27 57.39 56.45 58.30L56.45 58.30Q57.33 58.66 58.31 58.66L58.31 58.66Q60.68 58.66 62.31 57.03L62.31 57.03Q62.90 56.41 63.19 55.73L63.19 55.73Q63.58 58.63 65.86 58.66ZM59.38 57.36L59.38 57.36Q57.40 57.36 56.94 55.37L56.94 55.37Q56.84 54.92 56.84 54.36L56.84 54.36Q56.84 52.18 59.35 51.60L59.35 51.60Q60.68 51.30 63.22 51.27L63.22 51.27L63.22 53.87Q62.74 56.12 60.85 57.03L60.85 57.03Q60.10 57.36 59.38 57.36Z"/><path d="M76.22 56.96L76.22 56.96Q77.12 56.96 78.11 56.49Q79.10 56.03 79.66 55.56L79.66 55.56L80.22 55.09L81.65 56.83Q81.34 57.36 80.69 58.05Q80.04 58.73 79.37 59.21Q78.70 59.69 77.60 60.08Q76.50 60.47 75.32 60.47L75.32 60.47Q72.80 60.47 71.21 58.56Q69.63 56.65 69.63 53.63L69.63 53.63Q69.63 49.84 71.84 46.99Q74.04 44.13 76.99 44.13L76.99 44.13Q79.26 44.13 80.52 45.40Q81.78 46.68 81.78 48.97L81.78 48.97Q81.78 50.34 81.31 52.08L81.31 52.08L80.69 52.73L72.92 53.45Q73.45 56.96 76.22 56.96ZM76.22 47.33L76.22 47.33Q74.85 47.33 73.92 48.43Q72.99 49.53 72.83 51.24L72.83 51.24L78.11 50.59Q78.20 49.88 78.20 49.41L78.20 49.41Q78.20 47.33 76.22 47.33ZM87.59 60.13Q85.75 60.13 84.59 58.96Q83.42 57.80 83.42 55.82Q83.42 53.85 85.22 52.41Q87.03 50.96 89.60 50.96L89.60 50.96L91.72 50.96L91.72 50.43Q91.72 48.91 91.10 48.35Q90.47 47.79 88.77 47.79L88.77 47.79Q88.05 47.79 87.07 48.09Q86.09 48.38 84.88 49.01L84.88 49.01L83.98 46.55Q85.32 45.62 87.23 44.87Q89.14 44.13 90.38 44.13L90.38 44.13Q95.26 44.13 95.26 48.85L95.26 48.85L95.26 54.94Q95.26 56.68 96.35 58.82L96.35 58.82L93.05 60.22Q92.28 58.73 91.90 57.55L91.90 57.55Q90.19 60.13 87.59 60.13L87.59 60.13ZM88.89 56.96L88.89 56.96Q90.13 56.96 91.72 55.68L91.72 55.68L91.72 53.60Q90.07 53.23 89.05 53.23L89.05 53.23Q87.09 53.23 87.09 54.97L87.09 54.97Q87.09 55.87 87.59 56.41Q88.08 56.96 88.89 56.96Z"/><path d="M106.83 61.35L106.83 61.35Q103.10 61.35 100.92 58.97Q98.74 56.59 98.74 52.30L98.74 52.30Q98.74 49.70 99.72 47.65Q100.71 45.61 102.47 44.43Q104.23 43.25 106.56 43.25L106.56 43.25Q109.06 43.25 110.70 44.33Q112.35 45.41 113.18 47.24Q114.01 49.07 114.01 51.26L114.01 51.26Q114.01 52.43 113.91 53.53L113.91 53.53L101.80 53.53Q102.10 55.96 103.50 57.32Q104.90 58.68 107.19 58.68L107.19 58.68Q108.69 58.68 109.89 58.37Q111.09 58.05 112.18 57.55L112.18 57.55L112.88 60.11Q111.69 60.65 110.19 61.00Q108.69 61.35 106.83 61.35ZM101.77 51.10L101.77 51.10L111.25 51.10Q111.25 48.57 109.99 47.21Q108.72 45.84 106.50 45.84L106.50 45.84Q104.57 45.84 103.30 47.19Q102.04 48.54 101.77 51.10ZM124.63 61.35L124.63 61.35Q122.47 61.35 120.70 60.25Q118.94 59.15 117.89 57.14Q116.84 55.12 116.84 52.40L116.84 52.40Q116.84 49.80 117.89 47.74Q118.94 45.67 120.79 44.46Q122.63 43.25 125.03 43.25L125.03 43.25Q126.52 43.25 127.74 43.76Q128.95 44.28 129.85 45.04L129.85 45.04L129.85 43.65L132.58 43.65L132.58 56.75Q132.58 58.02 133.20 58.40Q133.81 58.78 134.54 58.78L134.54 58.78L133.91 61.11Q130.72 61.11 130.05 58.52L130.05 58.52Q129.29 59.58 127.97 60.46Q126.66 61.35 124.63 61.35ZM125.29 58.68L125.29 58.68Q126.56 58.68 127.69 58.07Q128.82 57.45 129.59 56.52L129.59 56.52L129.59 47.24Q128.69 46.61 127.61 46.22Q126.52 45.84 125.33 45.84L125.33 45.84Q123.73 45.84 122.52 46.66Q121.30 47.47 120.60 48.92Q119.90 50.37 119.90 52.30L119.90 52.30Q119.90 54.16 120.60 55.61Q121.30 57.05 122.53 57.87Q123.76 58.68 125.29 58.68Z"/><path d="M149.40 56.50L149.40 58.31Q148.15 59.08 146.71 59.61Q145.27 60.15 143.77 60.15L143.77 60.15Q141.97 60.15 140.40 59.35Q138.83 58.54 137.86 56.91Q136.89 55.27 136.89 52.79L136.89 52.79Q136.89 50.48 137.79 48.75Q138.68 47.03 140.26 46.08Q141.84 45.13 143.85 45.13L143.85 45.13Q146.62 45.13 148.01 46.85Q149.40 48.57 149.40 51.22L149.40 51.22Q149.40 51.36 149.40 51.60Q149.40 51.84 149.37 52.04L149.37 52.04L139.75 52.04Q139.75 53.17 139.99 54.29Q140.23 55.42 140.80 56.33Q141.36 57.24 142.32 57.79Q143.27 58.34 144.71 58.34L144.71 58.34Q145.98 58.34 147.19 57.75Q148.40 57.17 149.40 56.50L149.40 56.50ZM139.91 50.71L146.43 50.71L146.43 50.06Q146.43 48.60 145.73 47.60Q145.02 46.60 143.55 46.60L143.55 46.60Q142.09 46.60 141.06 47.70Q140.03 48.80 139.91 50.71L139.91 50.71ZM165.01 58.63L165.01 59.79L160.62 59.79L160.23 58.04Q160.23 58.04 159.79 58.35Q159.35 58.67 158.62 59.09Q157.90 59.51 157.02 59.83Q156.15 60.15 155.28 60.15L155.28 60.15Q153.67 60.15 152.55 59.08Q151.42 58.01 151.42 56.14L151.42 56.14Q151.42 55.31 151.72 54.60Q152.02 53.90 152.91 53.25Q153.80 52.61 155.56 51.99Q157.32 51.38 160.23 50.74L160.23 50.74L160.23 49.46Q160.23 46.54 157.46 46.54L157.46 46.54Q156.70 46.54 156.14 46.68Q155.58 46.83 155.36 46.92L155.36 46.92L155.36 49.49L153.21 49.49Q152.80 49.49 152.45 49.34Q152.11 49.19 152.11 48.64L152.11 48.64Q152.11 47.42 153.03 46.65Q153.96 45.87 155.39 45.50Q156.81 45.13 158.27 45.13L158.27 45.13Q160.11 45.13 161.13 45.71Q162.14 46.28 162.55 47.29Q162.95 48.29 162.95 49.58L162.95 49.58L162.95 57.89Q162.95 58.17 163.13 58.34Q163.31 58.51 163.57 58.54L163.57 58.54L165.01 58.63ZM160.23 56.99L160.23 56.99L160.23 51.87Q158.23 52.36 157.05 52.86Q155.87 53.36 155.29 53.86Q154.71 54.36 154.53 54.87Q154.35 55.39 154.35 55.94L154.35 55.94Q154.35 56.85 154.94 57.62Q155.52 58.40 156.58 58.40L156.58 58.40Q157.17 58.40 157.81 58.19Q158.45 57.98 159.00 57.70Q159.55 57.41 159.89 57.20Q160.23 56.99 160.23 56.99Z"/><path d="M177.17 57.10L177.17 57.10Q177.17 57.98 176.77 58.75Q176.37 59.53 175.68 60.09Q175.00 60.66 174.07 60.99Q173.15 61.31 172.11 61.31L172.11 61.31Q171.41 61.31 170.69 61.12Q169.98 60.93 169.32 60.48Q168.67 60.03 168.09 59.30Q167.51 58.57 167.08 57.52Q166.66 56.46 166.41 55.04Q166.17 53.62 166.17 51.77L166.17 51.77Q166.17 50.03 166.41 48.69Q166.66 47.35 167.08 46.35Q167.51 45.36 168.07 44.68Q168.64 44.00 169.29 43.58Q169.93 43.15 170.63 42.97Q171.32 42.80 171.99 42.80L171.99 42.80Q172.99 42.80 173.88 43.12Q174.77 43.44 175.44 44.06Q176.11 44.69 176.51 45.60Q176.90 46.52 176.90 47.71L176.90 47.71Q176.90 48.78 176.46 49.87Q176.02 50.97 175.16 51.94Q174.30 52.92 173.02 53.71Q171.75 54.51 170.10 54.97L170.10 54.97Q170.19 55.89 170.36 56.65Q170.53 57.41 170.79 57.95Q171.05 58.48 171.40 58.78Q171.75 59.08 172.21 59.08L172.21 59.08Q172.51 59.07 172.78 58.98L172.78 58.98Q173.02 58.90 173.26 58.74Q173.51 58.57 173.67 58.26L173.67 58.26Q173.28 58.08 173.08 57.80Q172.87 57.52 172.76 57.26L172.76 57.26Q172.64 56.97 172.63 56.64L172.63 56.64Q172.63 55.92 172.91 55.48Q173.19 55.03 173.58 54.78Q173.97 54.53 174.37 54.43Q174.77 54.33 175.01 54.33L175.01 54.33Q175.26 54.33 175.63 54.44Q175.99 54.54 176.34 54.84Q176.68 55.14 176.92 55.68Q177.17 56.22 177.17 57.10ZM173.49 47.74L173.49 47.74Q173.49 47.20 173.40 46.72Q173.30 46.23 173.11 45.88Q172.93 45.52 172.65 45.30Q172.38 45.09 172.02 45.09L172.02 45.09Q171.41 45.09 171.02 45.65Q170.63 46.20 170.40 47.13Q170.16 48.05 170.07 49.26Q169.98 50.46 169.98 51.77L169.98 51.77L169.98 52.86Q170.74 52.46 171.39 51.91Q172.03 51.35 172.50 50.69Q172.97 50.03 173.23 49.29Q173.49 48.54 173.49 47.74ZM189.24 60.70L185.80 60.91Q185.71 60.45 185.64 59.97Q185.56 59.50 185.52 58.99L185.52 58.99Q184.83 60.00 183.88 60.55Q182.93 61.09 181.80 61.09L181.80 61.09Q181.22 61.09 180.61 60.90Q180.00 60.72 179.50 60.26Q179.00 59.79 178.68 59.00Q178.36 58.20 178.36 56.98L178.36 56.98Q178.36 55.97 178.66 55.22Q178.96 54.47 179.43 53.90Q179.91 53.33 180.50 52.92Q181.10 52.50 181.69 52.17Q182.27 51.85 182.81 51.56Q183.35 51.28 183.69 51.00L183.69 51.00Q184.34 50.48 184.83 49.89Q185.31 49.30 185.61 48.66L185.61 48.66Q185.55 47.63 185.39 46.97Q185.24 46.31 184.98 45.91Q184.73 45.52 184.37 45.36Q184.00 45.21 183.54 45.21L183.54 45.21Q182.86 45.21 182.39 45.50Q181.92 45.80 181.62 46.22L181.62 46.22Q181.99 46.46 182.19 46.73Q182.39 46.99 182.50 47.25L182.50 47.25Q182.62 47.53 182.63 47.83L182.63 47.83Q182.63 48.84 182.06 49.37Q181.49 49.91 180.59 49.91L180.59 49.91Q180.13 49.91 179.74 49.69Q179.36 49.48 179.07 49.09Q178.78 48.70 178.61 48.17Q178.45 47.63 178.45 47.01L178.45 47.01Q178.45 46.38 178.73 45.68Q179.01 44.98 179.64 44.38Q180.27 43.78 181.25 43.38Q182.23 42.99 183.63 42.99L183.63 42.99Q185.03 42.99 186.03 43.53Q187.02 44.08 187.66 44.98Q188.30 45.88 188.59 47.05Q188.88 48.23 188.88 49.48L188.88 49.48Q188.88 50.42 188.87 51.52Q188.85 52.62 188.85 53.78L188.85 53.78Q188.85 54.75 188.87 55.72Q188.88 56.68 188.93 57.58Q188.97 58.48 189.05 59.28Q189.12 60.08 189.24 60.70L189.24 60.70ZM185.46 55.36L185.58 52.19Q185.06 52.81 184.46 53.26L184.46 53.26Q184.02 53.57 183.50 53.96Q182.99 54.35 182.55 54.78Q182.11 55.21 181.82 55.68Q181.53 56.15 181.53 56.64L181.53 56.64Q181.53 57.31 181.86 57.78Q182.19 58.26 182.78 58.26L182.78 58.26Q183.33 58.26 183.76 57.96Q184.19 57.67 184.53 57.23Q184.86 56.79 185.10 56.28Q185.33 55.78 185.46 55.36L185.46 55.36Z"/>
            </svg>