<?xml version="1.0" encoding="UTF-8" standalone="no"?>
            <svg
               xmlns="http://www.w3.org/2000/svg"
               xmlns:svg="http://www.w3.org/2000/svg"
               width="100"
               height="100"
               version="1.1"
               id="svg1"
               viewBox="0 0 100 100"
               >
               <path fill="black" d="M64.14 68.05L64.14 68.05Q64.14 70.29 63.12 72.26Q62.09 74.22 60.35 75.66Q58.61 77.10 56.26 77.93Q53.92 78.77 51.27 78.77L51.27 78.77Q49.49 78.77 47.67 78.27Q45.86 77.78 44.19 76.65Q42.52 75.51 41.05 73.66Q39.57 71.80 38.49 69.11Q37.41 66.43 36.79 62.81Q36.17 59.20 36.17 54.50L36.17 54.50Q36.17 50.08 36.79 46.67Q37.41 43.26 38.49 40.73Q39.57 38.19 41.01 36.47Q42.45 34.75 44.10 33.67Q45.74 32.59 47.50 32.13Q49.26 31.68 50.97 31.68L50.97 31.68Q53.50 31.68 55.77 32.49Q58.04 33.31 59.75 34.90Q61.45 36.49 62.45 38.82Q63.46 41.14 63.46 44.17L63.46 44.17Q63.46 46.90 62.34 49.68Q61.22 52.46 59.03 54.94Q56.83 57.42 53.60 59.44Q50.36 61.47 46.16 62.64L46.16 62.64Q46.39 64.99 46.82 66.92Q47.26 68.85 47.92 70.21Q48.58 71.57 49.47 72.33Q50.36 73.09 51.53 73.09L51.53 73.09Q52.29 73.05 52.97 72.82L52.97 72.82Q53.58 72.63 54.20 72.22Q54.83 71.80 55.24 71.01L55.24 71.01Q54.26 70.55 53.73 69.83Q53.20 69.11 52.93 68.47L52.93 68.47Q52.63 67.71 52.59 66.88L52.59 66.88Q52.59 65.06 53.31 63.93Q54.03 62.79 55.02 62.15Q56.00 61.51 57.02 61.26Q58.04 61.01 58.65 61.01L58.65 61.01Q59.29 61.01 60.22 61.28Q61.15 61.54 62.02 62.30Q62.89 63.06 63.51 64.44Q64.14 65.82 64.14 68.05ZM54.79 44.25L54.79 44.25Q54.79 42.88 54.54 41.65Q54.30 40.42 53.82 39.52Q53.35 38.61 52.65 38.06Q51.95 37.51 51.04 37.51L51.04 37.51Q49.49 37.51 48.50 38.93Q47.52 40.35 46.92 42.69Q46.31 45.04 46.08 48.11Q45.86 51.17 45.86 54.50L45.86 54.50L45.86 57.27Q47.79 56.25 49.43 54.84Q51.08 53.44 52.27 51.76Q53.46 50.08 54.13 48.18Q54.79 46.29 54.79 44.25Z"/>
            </svg>