<?xml version="1.0" encoding="UTF-8" standalone="no"?>
            <svg
               xmlns="http://www.w3.org/2000/svg"
               xmlns:svg="http://www.w3.org/2000/svg"
               width="100"
               height="100"
               version="1.1"
               id="svg1"
               viewBox="0 0 100 100"
               >
               <path fill="black" d="M65.91 66.53L65.91 71.13Q62.74 73.09 59.08 74.45Q55.41 75.81 51.58 75.81L51.58 75.81Q47.02 75.81 43.02 73.77Q39.03 71.72 36.56 67.56Q34.09 63.40 34.09 57.11L34.09 57.11Q34.09 51.22 36.38 46.83Q38.66 42.45 42.67 40.04Q46.69 37.63 51.80 37.63L51.80 37.63Q58.84 37.63 62.37 41.99Q65.91 46.35 65.91 53.09L65.91 53.09Q65.91 53.46 65.91 54.07Q65.91 54.68 65.83 55.19L65.83 55.19L41.38 55.19Q41.38 58.06 41.99 60.92Q42.60 63.77 44.04 66.09Q45.47 68.41 47.90 69.81Q50.33 71.21 53.98 71.21L53.98 71.21Q57.22 71.21 60.29 69.72Q63.37 68.23 65.91 66.53L65.91 66.53ZM41.79 51.80L58.36 51.80L58.36 50.15Q58.36 46.43 56.57 43.89Q54.79 41.35 51.03 41.35L51.03 41.35Q47.31 41.35 44.70 44.15Q42.08 46.94 41.79 51.80L41.79 51.80Z"/>
            </svg>