<?xml version="1.0" encoding="UTF-8" standalone="no"?>
            <svg
               xmlns="http://www.w3.org/2000/svg"
               xmlns:svg="http://www.w3.org/2000/svg"
               width="100"
               height="100"
               version="1.1"
               id="svg1"
               viewBox="0 0 100 100"
               >
               <path fill="black" d="M45.29 66.09L45.29 66.09Q45.29 68.47 44.39 70.57Q43.49 72.68 41.92 74.25Q40.34 75.82 38.24 76.72Q36.13 77.62 33.75 77.62L33.75 77.62L30.61 77.62Q28.24 77.62 26.13 76.72Q24.02 75.82 22.45 74.25Q20.88 72.68 19.98 70.57Q19.08 68.47 19.08 66.09L19.08 66.09L19.08 48.39Q19.08 46.02 19.98 43.91Q20.88 41.80 22.45 40.23Q24.02 38.66 26.13 37.76Q28.24 36.86 30.61 36.86L30.61 36.86L33.75 36.86Q36.13 36.86 38.24 37.76Q40.34 38.66 41.92 40.23Q43.49 41.80 44.39 43.91Q45.29 46.02 45.29 48.39L45.29 48.39L45.29 57.62L23.79 57.62L23.79 66.36Q23.79 67.78 24.33 69.02Q24.87 70.27 25.79 71.19Q26.70 72.11 27.95 72.64Q29.20 73.18 30.61 73.18L30.61 73.18L33.75 73.18Q35.17 73.18 36.42 72.64Q37.66 72.11 38.58 71.19Q39.50 70.27 40.04 69.02Q40.57 67.78 40.57 66.36L40.57 66.36L40.57 63.75L45.29 64.52L45.29 66.09ZM40.57 53.95L40.57 48.12Q40.57 46.70 40.04 45.46Q39.50 44.21 38.58 43.30Q37.66 42.38 36.42 41.84Q35.17 41.30 33.75 41.30L33.75 41.30L30.61 41.30Q29.20 41.30 27.95 41.84Q26.70 42.38 25.79 43.30Q24.87 44.21 24.33 45.46Q23.79 46.70 23.79 48.12L23.79 48.12L23.79 53.95L40.57 53.95ZM80.92 76.86L79.35 76.86L76.74 72.95Q75.13 75.06 72.72 76.34Q70.31 77.62 67.43 77.62L67.43 77.62L66.25 77.62Q63.87 77.62 61.76 76.72Q59.66 75.82 58.08 74.25Q56.51 72.68 55.61 70.57Q54.71 68.47 54.71 66.09L54.71 66.09L54.71 65.71Q54.71 63.33 55.61 61.23Q56.51 59.12 58.08 57.55Q59.66 55.98 61.76 55.08Q63.87 54.18 66.25 54.18L66.25 54.18L76.21 54.18L76.21 48.12Q76.21 46.70 75.67 45.46Q75.13 44.21 74.21 43.30Q73.30 42.38 72.05 41.84Q70.80 41.30 69.39 41.30L69.39 41.30L66.63 41.30Q65.21 41.30 63.97 41.84Q62.72 42.38 61.80 43.30Q60.88 44.21 60.34 45.46Q59.81 46.70 59.81 48.12L59.81 48.12L59.81 49.54L55.10 48.77L55.10 48.39Q55.10 46.02 56.00 43.91Q56.90 41.80 58.47 40.23Q60.04 38.66 62.15 37.76Q64.25 36.86 66.63 36.86L66.63 36.86L69.39 36.86Q71.76 36.86 73.87 37.76Q75.98 38.66 77.55 40.23Q79.12 41.80 80.02 43.91Q80.92 46.02 80.92 48.39L80.92 48.39L80.92 76.86ZM76.21 66.36L76.21 57.85L66.25 57.85Q64.83 57.85 63.58 58.39Q62.34 58.93 61.42 59.87Q60.50 60.80 59.96 62.05Q59.43 63.30 59.43 64.71L59.43 64.71L59.43 66.36Q59.43 67.78 59.96 69.02Q60.50 70.27 61.42 71.19Q62.34 72.11 63.58 72.64Q64.83 73.18 66.25 73.18L66.25 73.18L69.39 73.18Q70.80 73.18 72.05 72.64Q73.30 72.11 74.21 71.19Q75.13 70.27 75.67 69.02Q76.21 67.78 76.21 66.36L76.21 66.36Z"/>
            </svg>