<?xml version="1.0" encoding="UTF-8" standalone="no"?>
            <svg
               xmlns="http://www.w3.org/2000/svg"
               xmlns:svg="http://www.w3.org/2000/svg"
               width="200"
               height="100"
               version="1.1"
               id="svg1"
               viewBox="0 0 200 100"
               >
               <path d="M34.92 62.97L34.92 62.97Q34.92 64.88 34.19 66.58Q33.47 68.28 32.20 69.55Q30.94 70.81 29.24 71.54Q27.54 72.26 25.63 72.26L25.63 72.26L23.09 72.26Q21.18 72.26 19.48 71.54Q17.78 70.81 16.52 69.55Q15.25 68.28 14.52 66.58Q13.80 64.88 13.80 62.97L13.80 62.97L13.80 48.70Q13.80 46.79 14.52 45.09Q15.25 43.39 16.52 42.13Q17.78 40.86 19.48 40.13Q21.18 39.41 23.09 39.41L23.09 39.41L25.63 39.41Q27.54 39.41 29.24 40.13Q30.94 40.86 32.20 42.13Q33.47 43.39 34.19 45.09Q34.92 46.79 34.92 48.70L34.92 48.70L34.92 56.15L17.60 56.15L17.60 63.19Q17.60 64.33 18.03 65.33Q18.46 66.34 19.20 67.08Q19.94 67.82 20.95 68.25Q21.95 68.68 23.09 68.68L23.09 68.68L25.63 68.68Q26.77 68.68 27.77 68.25Q28.77 67.82 29.52 67.08Q30.26 66.34 30.69 65.33Q31.12 64.33 31.12 63.19L31.12 63.19L31.12 61.09L34.92 61.70L34.92 62.97ZM31.12 53.18L31.12 48.49Q31.12 47.34 30.69 46.34Q30.26 45.34 29.52 44.60Q28.77 43.85 27.77 43.42Q26.77 42.99 25.63 42.99L25.63 42.99L23.09 42.99Q21.95 42.99 20.95 43.42Q19.94 43.85 19.20 44.60Q18.46 45.34 18.03 46.34Q17.60 47.34 17.60 48.49L17.60 48.49L17.60 53.18L31.12 53.18Z"/><path d="M55.33 39.73L55.33 39.73Q60.00 39.73 61.54 43.66L61.54 43.66Q62.07 44.93 62.07 46.40L62.07 46.40Q62.07 49.73 58.87 50.47L58.87 50.47Q57.20 50.80 54.13 50.73L54.13 50.73L47.06 50.53Q47.39 42.86 52.06 40.53L52.06 40.53Q53.60 39.73 55.33 39.73ZM66.94 60.67L66.94 60.67L65.27 60.07Q62.94 65.15 57.73 65.81L57.73 65.81Q57.07 65.88 56.47 65.88L56.47 65.88Q49.46 65.88 47.66 57.54L47.66 57.54Q47.12 55.20 47.06 52.40L47.06 52.40L55.06 52.54Q63.20 52.67 65.54 51.00L65.54 51.00Q67.34 49.67 67.34 47.20L67.34 47.20Q67.34 42.66 62.74 39.99L62.74 39.99Q59.47 38.06 55.20 38.06L55.20 38.06Q46.86 38.06 43.25 45.00L43.25 45.00Q41.39 48.60 41.39 53.14L41.39 53.14Q41.39 61.41 47.32 65.41L47.32 65.41Q50.86 67.75 55.40 67.75L55.40 67.75Q62.60 67.75 66.01 62.54L66.01 62.54Q66.54 61.61 66.94 60.67Z"/><path d="M84.83 64.26L84.83 64.26Q86.67 64.26 88.71 63.31Q90.75 62.35 91.89 61.40L91.89 61.40L93.04 60.44L95.97 64.01Q95.33 65.09 93.99 66.49Q92.66 67.89 91.29 68.88Q89.92 69.86 87.66 70.66Q85.40 71.45 82.98 71.45L82.98 71.45Q77.82 71.45 74.58 67.54Q71.33 63.62 71.33 57.45L71.33 57.45Q71.33 49.68 75.85 43.82Q80.37 37.97 86.42 37.97L86.42 37.97Q91.07 37.97 93.64 40.58Q96.22 43.19 96.22 47.90L96.22 47.90Q96.22 50.70 95.27 54.27L95.27 54.27L93.99 55.60L78.08 57.07Q79.16 64.26 84.83 64.26ZM84.83 44.53L84.83 44.53Q82.03 44.53 80.12 46.79Q78.21 49.05 77.89 52.55L77.89 52.55L88.71 51.21Q88.90 49.75 88.90 48.79L88.90 48.79Q88.90 44.53 84.83 44.53Z"/><path d="M117.71 73.25L117.71 73.25Q110.07 73.25 105.60 68.38Q101.14 63.50 101.14 54.70L101.14 54.70Q101.14 49.39 103.15 45.19Q105.16 41.00 108.77 38.58Q112.39 36.16 117.16 36.16L117.16 36.16Q122.27 36.16 125.65 38.37Q129.02 40.59 130.73 44.34Q132.43 48.09 132.43 52.59L132.43 52.59Q132.43 54.98 132.23 57.23L132.23 57.23L107.41 57.23Q108.02 62.21 110.89 65.00Q113.75 67.80 118.46 67.80L118.46 67.80Q121.52 67.80 123.98 67.15Q126.43 66.50 128.68 65.48L128.68 65.48L130.12 70.73Q127.66 71.82 124.59 72.54Q121.52 73.25 117.71 73.25ZM107.34 52.25L107.34 52.25L126.77 52.25Q126.77 47.07 124.18 44.27Q121.59 41.48 117.02 41.48L117.02 41.48Q113.07 41.48 110.48 44.24Q107.89 47.00 107.34 52.25Z"/><path d="M162.88 63.32L162.88 67.03Q160.33 68.61 157.37 69.70Q154.42 70.80 151.33 70.80L151.33 70.80Q147.65 70.80 144.44 69.15Q141.22 67.51 139.23 64.15Q137.24 60.80 137.24 55.73L137.24 55.73Q137.24 50.98 139.08 47.45Q140.92 43.92 144.15 41.97Q147.39 40.03 151.51 40.03L151.51 40.03Q157.18 40.03 160.03 43.55Q162.88 47.06 162.88 52.49L162.88 52.49Q162.88 52.79 162.88 53.28Q162.88 53.77 162.82 54.18L162.82 54.18L143.11 54.18Q143.11 56.50 143.60 58.80Q144.09 61.10 145.25 62.97Q146.41 64.84 148.37 65.96Q150.33 67.09 153.26 67.09L153.26 67.09Q155.87 67.09 158.35 65.89Q160.83 64.69 162.88 63.32L162.88 63.32ZM143.44 51.45L156.79 51.45L156.79 50.12Q156.79 47.12 155.36 45.07Q153.92 43.03 150.89 43.03L150.89 43.03Q147.89 43.03 145.79 45.28Q143.68 47.54 143.44 51.45L143.44 51.45Z"/><path d="M188.87 64.55L188.87 64.55Q188.87 66.35 188.05 67.94Q187.22 69.52 185.82 70.68Q184.42 71.84 182.53 72.51Q180.63 73.18 178.50 73.18L178.50 73.18Q177.07 73.18 175.60 72.79Q174.14 72.39 172.79 71.48Q171.45 70.56 170.26 69.07Q169.07 67.57 168.20 65.41Q167.33 63.24 166.83 60.33Q166.33 57.41 166.33 53.63L166.33 53.63Q166.33 50.06 166.83 47.32Q167.33 44.57 168.20 42.53Q169.07 40.48 170.23 39.09Q171.39 37.71 172.72 36.84Q174.05 35.97 175.46 35.60Q176.88 35.24 178.26 35.24L178.26 35.24Q180.30 35.24 182.13 35.89Q183.96 36.55 185.33 37.83Q186.71 39.11 187.51 40.99Q188.32 42.86 188.32 45.30L188.32 45.30Q188.32 47.50 187.42 49.74Q186.52 51.98 184.75 53.98Q182.98 55.98 180.38 57.61Q177.77 59.24 174.38 60.19L174.38 60.19Q174.56 62.08 174.91 63.64Q175.27 65.19 175.80 66.29Q176.33 67.39 177.05 68.00Q177.77 68.61 178.71 68.61L178.71 68.61Q179.32 68.58 179.87 68.39L179.87 68.39Q180.36 68.24 180.86 67.91Q181.37 67.57 181.70 66.93L181.70 66.93Q180.91 66.56 180.48 65.98Q180.06 65.41 179.84 64.89L179.84 64.89Q179.60 64.28 179.57 63.61L179.57 63.61Q179.57 62.14 180.15 61.23Q180.73 60.31 181.52 59.79Q182.31 59.27 183.14 59.08Q183.96 58.88 184.45 58.88L184.45 58.88Q184.97 58.88 185.71 59.09Q186.46 59.30 187.16 59.91Q187.86 60.52 188.37 61.64Q188.87 62.75 188.87 64.55ZM181.34 45.36L181.34 45.36Q181.34 44.26 181.14 43.27Q180.94 42.28 180.56 41.55Q180.18 40.82 179.61 40.38Q179.05 39.93 178.32 39.93L178.32 39.93Q177.07 39.93 176.27 41.08Q175.48 42.22 174.99 44.11Q174.50 46.00 174.32 48.47Q174.14 50.95 174.14 53.63L174.14 53.63L174.14 55.86Q175.69 55.03 177.02 53.90Q178.35 52.78 179.31 51.42Q180.27 50.06 180.80 48.54Q181.34 47.01 181.34 45.36Z"/>
            </svg>