<?xml version="1.0" encoding="UTF-8" standalone="no"?>
            <svg
               xmlns="http://www.w3.org/2000/svg"
               xmlns:svg="http://www.w3.org/2000/svg"
               width="100"
               height="100"
               version="1.1"
               id="svg1"
               viewBox="0 0 100 100"
               >
               <path fill="black" d="M25.25 78.85L25.25 78.85Q15.78 78.85 10.24 72.80Q4.70 66.75 4.70 55.84L4.70 55.84Q4.70 49.24 7.19 44.04Q9.69 38.83 14.17 35.83Q18.65 32.83 24.58 32.83L24.58 32.83Q30.92 32.83 35.11 35.58Q39.30 38.32 41.41 42.98Q43.53 47.63 43.53 53.21L43.53 53.21Q43.53 56.18 43.27 58.97L43.27 58.97L12.48 58.97Q13.24 65.14 16.79 68.61Q20.35 72.08 26.18 72.08L26.18 72.08Q29.99 72.08 33.04 71.28Q36.08 70.47 38.87 69.20L38.87 69.20L40.65 75.72Q37.61 77.07 33.80 77.96Q29.99 78.85 25.25 78.85ZM12.39 52.79L12.39 52.79L36.51 52.79Q36.51 46.36 33.29 42.89Q30.08 39.42 24.41 39.42L24.41 39.42Q19.50 39.42 16.29 42.85Q13.07 46.28 12.39 52.79ZM70.52 78.85L70.52 78.85Q65.02 78.85 60.53 76.06Q56.05 73.27 53.38 68.15Q50.72 63.03 50.72 56.09L50.72 56.09Q50.72 49.49 53.38 44.25Q56.05 39.00 60.74 35.91Q65.44 32.83 71.53 32.83L71.53 32.83Q75.34 32.83 78.43 34.14Q81.51 35.45 83.80 37.39L83.80 37.39L83.80 33.84L90.74 33.84L90.74 67.17Q90.74 70.39 92.30 71.36Q93.87 72.34 95.73 72.34L95.73 72.34L94.12 78.26Q86.00 78.26 84.31 71.66L84.31 71.66Q82.36 74.37 79.02 76.61Q75.68 78.85 70.52 78.85ZM72.21 72.08L72.21 72.08Q75.42 72.08 78.30 70.52Q81.18 68.95 83.12 66.58L83.12 66.58L83.12 42.98Q80.84 41.37 78.09 40.40Q75.34 39.42 72.29 39.42L72.29 39.42Q68.23 39.42 65.14 41.50Q62.06 43.57 60.28 47.25Q58.50 50.93 58.50 55.84L58.50 55.84Q58.50 60.58 60.28 64.26Q62.06 67.94 65.19 70.01Q68.32 72.08 72.21 72.08Z"/>
            </svg>