<?xml version="1.0" encoding="UTF-8" standalone="no"?>
            <svg
               xmlns="http://www.w3.org/2000/svg"
               xmlns:svg="http://www.w3.org/2000/svg"
               width="100"
               height="100"
               version="1.1"
               id="svg1"
               viewBox="0 0 100 100"
               >
               <path fill="black" d="M48.52 68.05L48.52 68.05Q48.52 70.29 47.50 72.26Q46.48 74.22 44.74 75.66Q43.00 77.10 40.65 77.93Q38.30 78.77 35.65 78.77L35.65 78.77Q33.88 78.77 32.06 78.27Q30.24 77.78 28.58 76.65Q26.91 75.51 25.44 73.66Q23.96 71.80 22.88 69.11Q21.80 66.43 21.18 62.81Q20.55 59.20 20.55 54.50L20.55 54.50Q20.55 50.08 21.18 46.67Q21.80 43.26 22.88 40.73Q23.96 38.19 25.40 36.47Q26.84 34.75 28.48 33.67Q30.13 32.59 31.89 32.13Q33.65 31.68 35.35 31.68L35.35 31.68Q37.89 31.68 40.16 32.49Q42.43 33.31 44.13 34.90Q45.84 36.49 46.84 38.82Q47.84 41.14 47.84 44.17L47.84 44.17Q47.84 46.90 46.73 49.68Q45.61 52.46 43.41 54.94Q41.22 57.42 37.98 59.44Q34.75 61.47 30.55 62.64L30.55 62.64Q30.77 64.99 31.21 66.92Q31.64 68.85 32.31 70.21Q32.97 71.57 33.86 72.33Q34.75 73.09 35.92 73.09L35.92 73.09Q36.68 73.05 37.36 72.82L37.36 72.82Q37.96 72.63 38.59 72.22Q39.21 71.80 39.63 71.01L39.63 71.01Q38.64 70.55 38.12 69.83Q37.59 69.11 37.32 68.47L37.32 68.47Q37.02 67.71 36.98 66.88L36.98 66.88Q36.98 65.06 37.70 63.93Q38.42 62.79 39.40 62.15Q40.39 61.51 41.41 61.26Q42.43 61.01 43.04 61.01L43.04 61.01Q43.68 61.01 44.61 61.28Q45.53 61.54 46.40 62.30Q47.27 63.06 47.90 64.44Q48.52 65.82 48.52 68.05ZM39.17 44.25L39.17 44.25Q39.17 42.88 38.93 41.65Q38.68 40.42 38.21 39.52Q37.74 38.61 37.04 38.06Q36.34 37.51 35.43 37.51L35.43 37.51Q33.88 37.51 32.89 38.93Q31.91 40.35 31.30 42.69Q30.70 45.04 30.47 48.11Q30.24 51.17 30.24 54.50L30.24 54.50L30.24 57.27Q32.17 56.25 33.82 54.84Q35.47 53.44 36.66 51.76Q37.85 50.08 38.51 48.18Q39.17 46.29 39.17 44.25ZM79.22 77.21L70.48 77.74Q70.25 76.57 70.06 75.36Q69.87 74.15 69.76 72.86L69.76 72.86Q68.02 75.44 65.59 76.82Q63.17 78.20 60.30 78.20L60.30 78.20Q58.82 78.20 57.27 77.73Q55.72 77.25 54.45 76.08Q53.18 74.91 52.37 72.88Q51.55 70.86 51.55 67.75L51.55 67.75Q51.55 65.18 52.31 63.27Q53.07 61.36 54.28 59.92Q55.49 58.48 57.00 57.42Q58.52 56.36 60.01 55.53Q61.51 54.69 62.87 53.97Q64.23 53.26 65.10 52.54L65.10 52.54Q66.77 51.21 68.00 49.72Q69.23 48.22 69.98 46.59L69.98 46.59Q69.83 43.98 69.44 42.30Q69.04 40.61 68.40 39.61Q67.75 38.61 66.82 38.21Q65.90 37.81 64.72 37.81L64.72 37.81Q62.98 37.81 61.79 38.57Q60.60 39.33 59.84 40.39L59.84 40.39Q60.79 40.99 61.30 41.67Q61.81 42.35 62.07 43.00L62.07 43.00Q62.38 43.72 62.41 44.47L62.41 44.47Q62.41 47.05 60.96 48.41Q59.50 49.77 57.23 49.77L57.23 49.77Q56.06 49.77 55.07 49.22Q54.09 48.68 53.35 47.69Q52.61 46.71 52.20 45.34Q51.78 43.98 51.78 42.39L51.78 42.39Q51.78 40.80 52.50 39.02Q53.22 37.24 54.81 35.71Q56.40 34.18 58.89 33.18Q61.39 32.17 64.95 32.17L64.95 32.17Q68.51 32.17 71.04 33.55Q73.58 34.94 75.21 37.23Q76.84 39.52 77.57 42.51Q78.31 45.50 78.31 48.68L78.31 48.68Q78.31 51.06 78.27 53.86Q78.24 56.66 78.24 59.61L78.24 59.61Q78.24 62.07 78.27 64.53Q78.31 66.99 78.43 69.28Q78.54 71.57 78.73 73.60Q78.92 75.62 79.22 77.21L79.22 77.21ZM69.61 63.63L69.91 55.56Q68.58 57.15 67.07 58.29L67.07 58.29Q65.93 59.08 64.63 60.07Q63.32 61.05 62.21 62.15Q61.09 63.25 60.35 64.44Q59.61 65.63 59.61 66.88L59.61 66.88Q59.61 68.58 60.45 69.80Q61.28 71.01 62.79 71.01L62.79 71.01Q64.19 71.01 65.29 70.25Q66.39 69.49 67.24 68.38Q68.09 67.26 68.68 65.97Q69.27 64.69 69.61 63.63L69.61 63.63Z"/>
            </svg>