<?xml version="1.0" encoding="UTF-8" standalone="no"?>
            <svg
               xmlns="http://www.w3.org/2000/svg"
               xmlns:svg="http://www.w3.org/2000/svg"
               width="100"
               height="100"
               version="1.1"
               id="svg1"
               viewBox="0 0 100 100"
               >
               <path fill="black" d="M51.41 37.25L51.41 37.25Q57.20 37.25 59.11 42.14L59.11 42.14Q59.77 43.71 59.77 45.53L59.77 45.53Q59.77 49.67 55.79 50.58L55.79 50.58Q53.73 50.99 49.92 50.91L49.92 50.91L41.14 50.66Q41.56 41.14 47.35 38.25L47.35 38.25Q49.25 37.25 51.41 37.25ZM65.81 63.25L65.81 63.25L63.74 62.50Q60.84 68.79 54.39 69.62L54.39 69.62Q53.56 69.70 52.81 69.70L52.81 69.70Q44.12 69.70 41.89 59.35L41.89 59.35Q41.23 56.46 41.14 52.98L41.14 52.98L51.08 53.15Q61.18 53.31 64.07 51.24L64.07 51.24Q66.31 49.59 66.31 46.52L66.31 46.52Q66.31 40.89 60.60 37.58L60.60 37.58Q56.54 35.18 51.24 35.18L51.24 35.18Q40.89 35.18 36.42 43.79L36.42 43.79Q34.11 48.26 34.11 53.89L34.11 53.89Q34.11 64.16 41.47 69.12L41.47 69.12Q45.86 72.02 51.49 72.02L51.49 72.02Q60.43 72.02 64.65 65.56L64.65 65.56Q65.31 64.40 65.81 63.25Z"/>
            </svg>