<?xml version="1.0" encoding="UTF-8" standalone="no"?>
            <svg
               xmlns="http://www.w3.org/2000/svg"
               xmlns:svg="http://www.w3.org/2000/svg"
               width="100"
               height="100"
               version="1.1"
               id="svg1"
               viewBox="0 0 100 100"
               >
               <path fill="black" d="M51.35 78.85L51.35 78.85Q41.88 78.85 36.34 72.80Q30.80 66.75 30.80 55.84L30.80 55.84Q30.80 49.24 33.29 44.04Q35.79 38.83 40.27 35.83Q44.75 32.83 50.68 32.83L50.68 32.83Q57.02 32.83 61.21 35.58Q65.40 38.32 67.51 42.98Q69.63 47.63 69.63 53.21L69.63 53.21Q69.63 56.18 69.37 58.97L69.37 58.97L38.58 58.97Q39.34 65.14 42.89 68.61Q46.45 72.08 52.28 72.08L52.28 72.08Q56.09 72.08 59.14 71.28Q62.18 70.47 64.97 69.20L64.97 69.20L66.75 75.72Q63.71 77.07 59.90 77.96Q56.09 78.85 51.35 78.85ZM38.49 52.79L38.49 52.79L62.61 52.79Q62.61 46.36 59.39 42.89Q56.18 39.42 50.51 39.42L50.51 39.42Q45.60 39.42 42.39 42.85Q39.17 46.28 38.49 52.79Z"/>
            </svg>