<?xml version="1.0" encoding="UTF-8" standalone="no"?>
            <svg
               xmlns="http://www.w3.org/2000/svg"
               xmlns:svg="http://www.w3.org/2000/svg"
               width="100"
               height="100"
               version="1.1"
               id="svg1"
               viewBox="0 0 100 100"
               >
               <path fill="black" d="M32.66 67.69L32.66 67.69Q34.95 67.69 37.48 66.51Q40.01 65.32 41.43 64.14L41.43 64.14L42.85 62.95L46.48 67.38Q45.70 68.72 44.04 70.46Q42.38 72.20 40.68 73.42Q38.98 74.64 36.18 75.63Q33.37 76.62 30.37 76.62L30.37 76.62Q23.97 76.62 19.94 71.76Q15.92 66.90 15.92 59.24L15.92 59.24Q15.92 49.61 21.52 42.34Q27.13 35.07 34.64 35.07L34.64 35.07Q40.40 35.07 43.60 38.31Q46.80 41.55 46.80 47.39L46.80 47.39Q46.80 50.87 45.62 55.29L45.62 55.29L44.04 56.95L24.29 58.77Q25.63 67.69 32.66 67.69ZM32.66 43.21L32.66 43.21Q29.19 43.21 26.82 46.01Q24.45 48.82 24.05 53.16L24.05 53.16L37.48 51.50Q37.72 49.68 37.72 48.50L37.72 48.50Q37.72 43.21 32.66 43.21ZM61.57 75.75Q56.91 75.75 53.95 72.79Q50.99 69.83 50.99 64.81Q50.99 59.79 55.57 56.12Q60.15 52.45 66.71 52.45L66.71 52.45L72.08 52.45L72.08 51.11Q72.08 47.24 70.50 45.81Q68.92 44.39 64.57 44.39L64.57 44.39Q62.76 44.39 60.27 45.14Q57.78 45.89 54.70 47.47L54.70 47.47L52.41 41.23Q55.81 38.86 60.66 36.97Q65.52 35.07 68.68 35.07L68.68 35.07Q81.08 35.07 81.08 47.08L81.08 47.08L81.08 62.56Q81.08 66.98 83.85 72.43L83.85 72.43L75.47 75.99Q73.50 72.20 72.55 69.19L72.55 69.19Q68.21 75.75 61.57 75.75L61.57 75.75ZM64.89 67.69L64.89 67.69Q68.05 67.69 72.08 64.45L72.08 64.45L72.08 59.16Q67.89 58.21 65.28 58.21L65.28 58.21Q60.31 58.21 60.31 62.64L60.31 62.64Q60.31 64.93 61.57 66.31Q62.84 67.69 64.89 67.69Z"/>
            </svg>