<?xml version="1.0" encoding="UTF-8" standalone="no"?>
            <svg
               xmlns="http://www.w3.org/2000/svg"
               xmlns:svg="http://www.w3.org/2000/svg"
               width="100"
               height="100"
               version="1.1"
               id="svg1"
               viewBox="0 0 100 100"
               >
               <path fill="black" d="M48.18 97.46L48.18 97.46Q44.29 97.46 40.61 96.53Q36.93 95.60 34.05 93.74L34.05 93.74L36.84 87.14Q38.87 88.75 41.58 89.81Q44.29 90.86 48.18 90.86L48.18 90.86Q54.19 90.86 57.61 87.69Q61.04 84.52 61.04 77.58L61.04 77.58L61.04 72.17Q59.35 74.20 56.18 76.02Q53.00 77.83 48.60 77.83L48.60 77.83Q43.61 77.83 39.13 75.25Q34.64 72.67 31.85 67.68Q29.06 62.69 29.06 55.67L29.06 55.67Q29.06 49.07 31.81 43.91Q34.56 38.75 39.21 35.79Q43.87 32.83 49.45 32.83L49.45 32.83Q53.17 32.83 56.22 34.09Q59.26 35.36 61.46 37.23L61.46 37.23L61.46 33.84L68.40 33.84L68.40 76.82Q68.40 84.09 65.86 88.66Q63.32 93.23 58.80 95.35Q54.27 97.46 48.18 97.46ZM50.30 71.07L50.30 71.07Q53.68 71.07 56.39 69.54Q59.09 68.02 60.79 65.99L60.79 65.99L60.79 42.98Q58.93 41.62 56.30 40.52Q53.68 39.42 50.21 39.42L50.21 39.42Q46.74 39.42 43.70 41.29Q40.65 43.15 38.75 46.66Q36.84 50.17 36.84 55.25L36.84 55.25Q36.84 60.07 38.75 63.62Q40.65 67.17 43.70 69.12Q46.74 71.07 50.30 71.07Z"/>
            </svg>