<?xml version="1.0" encoding="UTF-8" standalone="no"?>
            <svg
               xmlns="http://www.w3.org/2000/svg"
               xmlns:svg="http://www.w3.org/2000/svg"
               width="100"
               height="100"
               version="1.1"
               id="svg1"
               viewBox="0 0 100 100"
               >
               <path fill="black" d="M52.92 33.83Q55.92 33.83 59.08 34.71Q62.25 35.58 65.25 37.25L65.25 37.25L64.75 38.75L64.33 38.75Q58.17 35.42 52.92 35.42L52.92 35.42Q44 35.42 39.21 40.46Q34.42 45.50 34.42 55L34.42 55Q34.42 64.08 38.58 68.92Q42.75 73.75 50.50 73.75L50.50 73.75Q53.67 73.75 56.33 73.38Q59 73 63.17 71.92L63.17 71.92L63.17 59.75L64.83 59.58L64.83 73.08Q60.17 74.33 57.17 74.79Q54.17 75.25 50.50 75.25L50.50 75.25Q41.92 75.25 37.29 70Q32.67 64.75 32.67 54.92L32.67 54.92Q32.67 44.75 37.92 39.29Q43.17 33.83 52.92 33.83L52.92 33.83Z"/>
            </svg>