<svg xmlns="http://www.w3.org/2000/svg" xmlns:xlink="http://www.w3.org/1999/xlink" width="42.120000000000005" height="85.10400000000001"><path fill="black" d="M19.51 82.94L19.51 82.94Q16.20 82.94 13.07 82.15Q9.94 81.36 7.49 79.78L7.49 79.78L9.86 74.16Q11.59 75.53 13.90 76.43Q16.20 77.33 19.51 77.33L19.51 77.33Q24.62 77.33 27.54 74.63Q30.46 71.93 30.46 66.02L30.46 66.02L30.46 61.42Q29.02 63.14 26.32 64.69Q23.62 66.24 19.87 66.24L19.87 66.24Q15.62 66.24 11.81 64.04Q7.99 61.85 5.62 57.60Q3.24 53.35 3.24 47.38L3.24 47.38Q3.24 41.76 5.58 37.37Q7.92 32.98 11.88 30.46Q15.84 27.94 20.59 27.94L20.59 27.94Q23.76 27.94 26.35 29.02Q28.94 30.10 30.82 31.68L30.82 31.68L30.82 28.80L36.72 28.80L36.72 65.38Q36.72 71.57 34.56 75.46Q32.40 79.34 28.55 81.14Q24.70 82.94 19.51 82.94ZM21.31 60.48L21.31 60.48Q24.19 60.48 26.50 59.18Q28.80 57.89 30.24 56.16L30.24 56.16L30.24 36.58Q28.66 35.42 26.42 34.49Q24.19 33.55 21.24 33.55L21.24 33.55Q18.29 33.55 15.70 35.14Q13.10 36.72 11.48 39.71Q9.86 42.70 9.86 47.02L9.86 47.02Q9.86 51.12 11.48 54.14Q13.10 57.17 15.70 58.82Q18.29 60.48 21.31 60.48Z"/></svg>