<svg xmlns="http://www.w3.org/2000/svg" xmlns:xlink="http://www.w3.org/1999/xlink" width="38.304" height="86.4"><path fill="black" d="M21.67 29.23Q24.26 29.23 27.00 29.99Q29.74 30.74 32.33 32.18L32.33 32.18L31.90 33.48L31.54 33.48Q26.21 30.60 21.67 30.60L21.67 30.60Q13.97 30.60 9.83 34.96Q5.69 39.31 5.69 47.52L5.69 47.52Q5.69 55.37 9.29 59.54Q12.89 63.72 19.58 63.72L19.58 63.72Q22.32 63.72 24.62 63.40Q26.93 63.07 30.53 62.14L30.53 62.14L30.53 51.62L31.97 51.48L31.97 63.14Q27.94 64.22 25.34 64.62Q22.75 65.02 19.58 65.02L19.58 65.02Q12.17 65.02 8.17 60.48Q4.18 55.94 4.18 47.45L4.18 47.45Q4.18 38.66 8.71 33.95Q13.25 29.23 21.67 29.23L21.67 29.23Z"/></svg>