<?xml version="1.0" encoding="UTF-8" standalone="no"?>
            <svg
               xmlns="http://www.w3.org/2000/svg"
               xmlns:svg="http://www.w3.org/2000/svg"
               width="200"
               height="100"
               version="1.1"
               id="svg1"
               viewBox="0 0 200 100"
               >
               <path d="M41.88 115.99L41.88 115.99Q36.47 115.99 31.35 114.70Q26.23 113.40 22.23 110.82L22.23 110.82L26.12 101.64Q28.94 103.88 32.70 105.35Q36.47 106.82 41.88 106.82L41.88 106.82Q50.23 106.82 54.99 102.41Q59.76 97.99 59.76 88.35L59.76 88.35L59.76 80.82Q57.41 83.64 52.99 86.17Q48.58 88.70 42.47 88.70L42.47 88.70Q35.53 88.70 29.29 85.11Q23.06 81.53 19.18 74.59Q15.29 67.64 15.29 57.88L15.29 57.88Q15.29 48.71 19.12 41.53Q22.94 34.35 29.41 30.24Q35.88 26.12 43.64 26.12L43.64 26.12Q48.82 26.12 53.05 27.89Q57.29 29.65 60.35 32.24L60.35 32.24L60.35 27.53L69.99 27.53L69.99 87.29Q69.99 97.41 66.46 103.76Q62.93 110.11 56.64 113.05Q50.35 115.99 41.88 115.99ZM44.82 79.29L44.82 79.29Q49.52 79.29 53.29 77.17Q57.05 75.06 59.41 72.23L59.41 72.23L59.41 40.24Q56.82 38.35 53.17 36.83Q49.52 35.30 44.70 35.30L44.70 35.30Q39.88 35.30 35.64 37.88Q31.41 40.47 28.76 45.35Q26.12 50.24 26.12 57.29L26.12 57.29Q26.12 64.00 28.76 68.94Q31.41 73.88 35.64 76.58Q39.88 79.29 44.82 79.29Z"/><path d="M122.34 94.22L122.34 94.22Q122.34 97.52 121.09 100.29Q119.83 103.06 117.65 105.03Q115.47 107.00 112.54 108.09Q109.61 109.19 106.30 109.19L106.30 109.19L103.59 109.19Q100.28 109.19 97.35 108.09Q94.42 107.00 92.24 105.03Q90.06 103.06 88.80 100.29Q87.55 97.52 87.55 94.22L87.55 94.22L87.55 94.00Q87.55 90.81 88.72 88.14Q89.90 85.48 91.92 83.51L91.92 83.51Q89.36 81.96 87.84 79.33Q86.33 76.69 86.33 73.49L86.33 73.49Q86.33 70.62 87.55 68.14Q88.78 65.66 90.91 64.12L90.91 64.12Q88.35 61.88 86.86 58.74Q85.37 55.59 85.37 51.86L85.37 51.86L85.37 47.76Q85.37 44.46 86.62 41.53Q87.87 38.60 90.06 36.42Q92.24 34.23 95.17 32.98Q98.10 31.73 101.40 31.73L101.40 31.73L104.12 31.73Q108.11 31.73 111.50 33.51Q114.88 35.30 117.12 38.33L117.12 38.33L120.69 32.79L122.87 32.79L122.87 51.86Q122.87 55.17 121.62 58.10Q120.37 61.03 118.18 63.21Q116.00 65.40 113.07 66.65Q110.14 67.90 106.84 67.90L106.84 67.90L97.35 67.90Q96.23 67.90 95.22 68.35Q94.21 68.81 93.44 69.55Q92.67 70.30 92.24 71.34Q91.81 72.37 91.81 73.49L91.81 73.49Q91.81 74.61 92.24 75.62Q92.67 76.64 93.44 77.41Q94.21 78.18 95.22 78.61Q96.23 79.03 97.35 79.03L97.35 79.03L106.30 79.03Q109.61 79.03 112.54 80.13Q115.47 81.22 117.65 83.19Q119.83 85.16 121.09 87.93Q122.34 90.70 122.34 94.00L122.34 94.00L122.34 94.22ZM116.37 52.24L116.37 47.39Q116.37 45.42 115.63 43.69Q114.88 41.96 113.58 40.68Q112.27 39.40 110.54 38.65Q108.81 37.91 106.84 37.91L106.84 37.91L101.40 37.91Q99.43 37.91 97.70 38.65Q95.97 39.40 94.69 40.68Q93.41 41.96 92.67 43.69Q91.92 45.42 91.92 47.39L91.92 47.39L91.92 52.24Q91.92 54.21 92.67 55.94Q93.41 57.67 94.69 58.95Q95.97 60.23 97.70 60.97Q99.43 61.72 101.40 61.72L101.40 61.72L106.84 61.72Q108.81 61.72 110.54 60.97Q112.27 60.23 113.58 58.95Q114.88 57.67 115.63 55.94Q116.37 54.21 116.37 52.24L116.37 52.24ZM116.11 94.54L116.11 93.68Q116.11 91.71 115.36 90.14Q114.61 88.57 113.34 87.50Q112.06 86.44 110.33 85.85Q108.59 85.27 106.62 85.27L106.62 85.27L103.27 85.27Q101.30 85.27 99.56 85.85Q97.83 86.44 96.55 87.50Q95.28 88.57 94.53 90.14Q93.78 91.71 93.78 93.68L93.78 93.68L93.78 94.54Q93.78 96.51 94.53 98.05Q95.28 99.60 96.55 100.69Q97.83 101.78 99.56 102.37Q101.30 102.95 103.27 102.95L103.27 102.95L106.62 102.95Q108.59 102.95 110.33 102.37Q112.06 101.78 113.34 100.69Q114.61 99.60 115.36 98.05Q116.11 96.51 116.11 94.54L116.11 94.54Z"/><path d="M163.23 27.52Q167.41 27.52 171.81 28.74Q176.21 29.95 180.38 32.27L180.38 32.27L179.69 34.36L179.11 34.36Q170.53 29.72 163.23 29.72L163.23 29.72Q150.84 29.72 144.17 36.73Q137.51 43.74 137.51 56.95L137.51 56.95Q137.51 69.58 143.31 76.30Q149.10 83.02 159.87 83.02L159.87 83.02Q164.28 83.02 167.99 82.50Q171.69 81.98 177.49 80.47L177.49 80.47L177.49 63.56L179.80 63.32L179.80 82.10Q173.32 83.83 169.14 84.47Q164.97 85.11 159.87 85.11L159.87 85.11Q147.94 85.11 141.51 77.81Q135.08 70.51 135.08 56.84L135.08 56.84Q135.08 42.70 142.38 35.11Q149.68 27.52 163.23 27.52L163.23 27.52Z"/>
            </svg>