<?xml version="1.0" encoding="UTF-8" standalone="no"?>
            <svg
               xmlns="http://www.w3.org/2000/svg"
               xmlns:svg="http://www.w3.org/2000/svg"
               width="100"
               height="100"
               version="1.1"
               id="svg1"
               viewBox="0 0 100 100"
               >
               <path fill="black" d="M63.49 81.80L63.49 81.80Q63.49 84.18 62.59 86.17Q61.69 88.16 60.11 89.58Q58.54 91.00 56.44 91.78Q54.33 92.57 51.95 92.57L51.95 92.57L50 92.57Q47.62 92.57 45.52 91.78Q43.41 91.00 41.84 89.58Q40.27 88.16 39.37 86.17Q38.47 84.18 38.47 81.80L38.47 81.80L38.47 81.65Q38.47 79.35 39.31 77.43Q40.15 75.52 41.61 74.10L41.61 74.10Q39.77 72.99 38.68 71.09Q37.59 69.20 37.59 66.90L37.59 66.90Q37.59 64.83 38.47 63.05Q39.35 61.26 40.88 60.15L40.88 60.15Q39.04 58.54 37.97 56.28Q36.90 54.02 36.90 51.34L36.90 51.34L36.90 48.39Q36.90 46.02 37.80 43.91Q38.70 41.80 40.27 40.23Q41.84 38.66 43.95 37.76Q46.05 36.86 48.43 36.86L48.43 36.86L50.38 36.86Q53.26 36.86 55.69 38.14Q58.12 39.43 59.73 41.61L59.73 41.61L62.30 37.62L63.87 37.62L63.87 51.34Q63.87 53.72 62.97 55.82Q62.07 57.93 60.50 59.50Q58.93 61.07 56.82 61.97Q54.71 62.87 52.34 62.87L52.34 62.87L45.52 62.87Q44.71 62.87 43.98 63.20Q43.26 63.52 42.70 64.06Q42.15 64.60 41.84 65.34Q41.53 66.09 41.53 66.90L41.53 66.90Q41.53 67.70 41.84 68.43Q42.15 69.16 42.70 69.71Q43.26 70.27 43.98 70.57Q44.71 70.88 45.52 70.88L45.52 70.88L51.95 70.88Q54.33 70.88 56.44 71.67Q58.54 72.45 60.11 73.87Q61.69 75.29 62.59 77.28Q63.49 79.27 63.49 81.65L63.49 81.65L63.49 81.80ZM59.20 51.61L59.20 48.12Q59.20 46.70 58.66 45.46Q58.12 44.21 57.18 43.30Q56.25 42.38 55 41.84Q53.75 41.30 52.34 41.30L52.34 41.30L48.43 41.30Q47.01 41.30 45.77 41.84Q44.52 42.38 43.60 43.30Q42.68 44.21 42.15 45.46Q41.61 46.70 41.61 48.12L41.61 48.12L41.61 51.61Q41.61 53.03 42.15 54.27Q42.68 55.52 43.60 56.44Q44.52 57.36 45.77 57.89Q47.01 58.43 48.43 58.43L48.43 58.43L52.34 58.43Q53.75 58.43 55 57.89Q56.25 57.36 57.18 56.44Q58.12 55.52 58.66 54.27Q59.20 53.03 59.20 51.61L59.20 51.61ZM59.00 82.03L59.00 81.42Q59.00 80 58.47 78.87Q57.93 77.74 57.01 76.97Q56.09 76.21 54.85 75.79Q53.60 75.36 52.18 75.36L52.18 75.36L49.77 75.36Q48.35 75.36 47.11 75.79Q45.86 76.21 44.94 76.97Q44.02 77.74 43.49 78.87Q42.95 80 42.95 81.42L42.95 81.42L42.95 82.03Q42.95 83.45 43.49 84.56Q44.02 85.67 44.94 86.46Q45.86 87.24 47.11 87.66Q48.35 88.08 49.77 88.08L49.77 88.08L52.18 88.08Q53.60 88.08 54.85 87.66Q56.09 87.24 57.01 86.46Q57.93 85.67 58.47 84.56Q59.00 83.45 59.00 82.03L59.00 82.03Z"/>
            </svg>