<svg xmlns="http://www.w3.org/2000/svg" xmlns:xlink="http://www.w3.org/1999/xlink" width="32.6953125" height="91.7578125"><path fill="black" d="M28.72 75.06L28.72 75.06Q28.72 77.24 27.90 79.07Q27.07 80.89 25.63 82.20Q24.19 83.50 22.25 84.22Q20.32 84.94 18.14 84.94L18.14 84.94L16.35 84.94Q14.17 84.94 12.23 84.22Q10.30 83.50 8.86 82.20Q7.42 80.89 6.59 79.07Q5.77 77.24 5.77 75.06L5.77 75.06L5.77 74.92Q5.77 72.81 6.54 71.05Q7.31 69.29 8.65 67.99L8.65 67.99Q6.96 66.97 5.96 65.23Q4.96 63.49 4.96 61.38L4.96 61.38Q4.96 59.48 5.77 57.85Q6.57 56.21 7.98 55.20L7.98 55.20Q6.29 53.72 5.31 51.64Q4.32 49.57 4.32 47.11L4.32 47.11L4.32 44.40Q4.32 42.22 5.15 40.29Q5.98 38.36 7.42 36.91Q8.86 35.47 10.79 34.65Q12.73 33.82 14.91 33.82L14.91 33.82L16.70 33.82Q19.34 33.82 21.57 35.00Q23.80 36.18 25.28 38.18L25.28 38.18L27.63 34.52L29.07 34.52L29.07 47.11Q29.07 49.29 28.25 51.22Q27.42 53.16 25.98 54.60Q24.54 56.04 22.61 56.87Q20.67 57.69 18.49 57.69L18.49 57.69L12.23 57.69Q11.50 57.69 10.83 57.99Q10.16 58.29 9.65 58.78Q9.14 59.27 8.86 59.96Q8.58 60.64 8.58 61.38L8.58 61.38Q8.58 62.12 8.86 62.79Q9.14 63.46 9.65 63.97Q10.16 64.48 10.83 64.76Q11.50 65.04 12.23 65.04L12.23 65.04L18.14 65.04Q20.32 65.04 22.25 65.76Q24.19 66.48 25.63 67.78Q27.07 69.08 27.90 70.91Q28.72 72.74 28.72 74.92L28.72 74.92L28.72 75.06ZM24.79 47.36L24.79 44.16Q24.79 42.86 24.29 41.71Q23.80 40.57 22.94 39.73Q22.08 38.88 20.94 38.39Q19.79 37.90 18.49 37.90L18.49 37.90L14.91 37.90Q13.61 37.90 12.46 38.39Q11.32 38.88 10.48 39.73Q9.63 40.57 9.14 41.71Q8.65 42.86 8.65 44.16L8.65 44.16L8.65 47.36Q8.65 48.66 9.14 49.80Q9.63 50.94 10.48 51.79Q11.32 52.63 12.46 53.12Q13.61 53.61 14.91 53.61L14.91 53.61L18.49 53.61Q19.79 53.61 20.94 53.12Q22.08 52.63 22.94 51.79Q23.80 50.94 24.29 49.80Q24.79 48.66 24.79 47.36L24.79 47.36ZM24.61 75.27L24.61 74.71Q24.61 73.41 24.12 72.37Q23.63 71.33 22.78 70.63Q21.94 69.93 20.79 69.54Q19.65 69.15 18.35 69.15L18.35 69.15L16.14 69.15Q14.84 69.15 13.69 69.54Q12.55 69.93 11.71 70.63Q10.86 71.33 10.37 72.37Q9.88 73.41 9.88 74.71L9.88 74.71L9.88 75.27Q9.88 76.57 10.37 77.59Q10.86 78.61 11.71 79.33Q12.55 80.05 13.69 80.44Q14.84 80.82 16.14 80.82L16.14 80.82L18.35 80.82Q19.65 80.82 20.79 80.44Q21.94 80.05 22.78 79.33Q23.63 78.61 24.12 77.59Q24.61 76.57 24.61 75.27L24.61 75.27Z"/></svg>