<?xml version="1.0" encoding="UTF-8" standalone="no"?>
            <svg
               xmlns="http://www.w3.org/2000/svg"
               xmlns:svg="http://www.w3.org/2000/svg"
               width="100"
               height="100"
               version="1.1"
               id="svg1"
               viewBox="0 0 100 100"
               >
               <path fill="black" d="M50.24 76.62L50.24 76.62Q39.89 76.62 33.57 69.67Q27.25 62.72 27.25 51.26L27.25 51.26Q27.25 38.23 35.15 29.30Q43.05 20.38 54.58 20.38L54.58 20.38Q59.16 20.38 63.07 21.21Q66.98 22.04 68.64 22.91L68.64 22.91L70.22 23.78L65.64 34.76Q63.27 33.18 59.24 31.79Q55.21 30.41 52.13 30.41L52.13 30.41Q45.73 30.41 41.86 34.91Q37.99 39.42 37.99 46.84L37.99 46.84Q37.99 56.87 41.67 62.48Q45.34 68.09 51.90 68.09L51.90 68.09Q56.16 68.09 59.95 66.90L59.95 66.90L59.95 54.66L49.76 54.66L50.55 46.68L69.51 46.68L68.80 59.56L69.35 73.22Q57.74 76.62 50.24 76.62Z"/>
            </svg>