<svg xmlns="http://www.w3.org/2000/svg" xmlns:xlink="http://www.w3.org/1999/xlink" width="45.79200000000001" height="91.15200000000002"><path fill="black" d="M23.11 69.84L23.11 69.84Q13.68 69.84 7.92 63.50Q2.16 57.17 2.16 46.73L2.16 46.73Q2.16 34.85 9.36 26.71Q16.56 18.58 27.07 18.58L27.07 18.58Q31.25 18.58 34.81 19.33Q38.38 20.09 39.89 20.88L39.89 20.88L41.33 21.67L37.15 31.68Q34.99 30.24 31.32 28.98Q27.65 27.72 24.84 27.72L24.84 27.72Q19.01 27.72 15.48 31.82Q11.95 35.93 11.95 42.70L11.95 42.70Q11.95 51.84 15.30 56.95Q18.65 62.06 24.62 62.06L24.62 62.06Q28.51 62.06 31.97 60.98L31.97 60.98L31.97 49.82L22.68 49.82L23.40 42.55L40.68 42.55L40.03 54.29L40.54 66.74Q29.95 69.84 23.11 69.84Z"/></svg>