<?xml version="1.0" encoding="UTF-8" standalone="no"?>
            <svg
               xmlns="http://www.w3.org/2000/svg"
               xmlns:svg="http://www.w3.org/2000/svg"
               width="100"
               height="100"
               version="1.1"
               id="svg1"
               viewBox="0 0 100 100"
               >
               <path fill="black" d="M52.72 76.87L52.72 76.87Q40.49 76.87 33.88 69.78Q27.28 62.69 27.28 50L27.28 50Q27.28 41.94 30.37 35.90Q33.47 29.85 39.07 26.49Q44.66 23.13 52.05 23.13L52.05 23.13Q58.17 23.13 62.76 25.19Q67.35 27.24 69.93 31.08Q72.50 34.93 72.65 40.30L72.65 40.30L65.63 40.30Q65.41 36.12 63.43 33.58Q61.46 31.04 58.43 29.89Q55.41 28.73 52.05 28.73L52.05 28.73Q43.92 28.73 39.22 34.40Q34.51 40.07 34.51 50L34.51 50Q34.51 71.27 53.17 71.27L53.17 71.27Q59.51 71.27 64.59 68.66L64.59 68.66L64.59 55.22L51.75 55.22L51.75 49.70L71.31 49.70L71.31 72.31Q62.50 76.87 52.72 76.87Z"/>
            </svg>