<?xml version="1.0" encoding="UTF-8" standalone="no"?>
            <svg
               xmlns="http://www.w3.org/2000/svg"
               xmlns:svg="http://www.w3.org/2000/svg"
               width="100"
               height="100"
               version="1.1"
               id="svg1"
               viewBox="0 0 100 100"
               >
               <path fill="black" d="M49.32 78.85L49.32 78.85Q42.47 78.85 37.14 75.30Q31.81 71.74 28.76 65.19Q25.72 58.63 25.72 49.75L25.72 49.75Q25.72 40.27 28.93 33.04Q32.15 25.80 38.20 21.70Q44.25 17.60 52.79 17.60L52.79 17.60Q58.29 17.60 62.61 18.95Q66.92 20.30 70.73 22.42L70.73 22.42L67.77 29.10Q64.21 27.16 60.53 25.89Q56.85 24.62 52.37 24.62L52.37 24.62Q47.04 24.62 42.89 27.45Q38.75 30.29 36.34 35.79Q33.93 41.29 33.93 49.24L33.93 49.24Q33.93 56.35 36.13 61.38Q38.32 66.41 42.22 69.12Q46.11 71.83 51.18 71.83L51.18 71.83Q55.92 71.83 59.60 69.84Q63.28 67.85 65.40 65.74L65.40 65.74L65.40 52.79L53.13 52.79L53.13 46.45L73.01 46.45L73.01 77.83L65.91 77.83L65.91 71.91Q62.94 74.53 58.71 76.69Q54.48 78.85 49.32 78.85Z"/>
            </svg>