<?xml version="1.0" encoding="UTF-8" standalone="no"?>
            <svg
               xmlns="http://www.w3.org/2000/svg"
               xmlns:svg="http://www.w3.org/2000/svg"
               width="200"
               height="100"
               version="1.1"
               id="svg1"
               viewBox="0 0 200 100"
               >
               <path d="M41.81 82.97L41.81 82.97Q33.98 82.97 27.89 78.91Q21.80 74.85 18.31 67.35Q14.83 59.86 14.83 49.71L14.83 49.71Q14.83 38.88 18.51 30.62Q22.18 22.35 29.09 17.66Q36.01 12.97 45.77 12.97L45.77 12.97Q52.06 12.97 56.99 14.52Q61.92 16.06 66.27 18.48L66.27 18.48L62.89 26.12Q58.82 23.90 54.62 22.45Q50.41 21.00 45.29 21.00L45.29 21.00Q39.20 21.00 34.46 24.23Q29.72 27.47 26.97 33.76Q24.21 40.04 24.21 49.13L24.21 49.13Q24.21 57.25 26.73 63.00Q29.24 68.76 33.69 71.85Q38.13 74.94 43.94 74.94L43.94 74.94Q49.35 74.94 53.56 72.67Q57.76 70.40 60.18 67.98L60.18 67.98L60.18 53.19L46.16 53.19L46.16 45.94L68.88 45.94L68.88 81.81L60.76 81.81L60.76 75.04Q57.37 78.04 52.54 80.50Q47.71 82.97 41.81 82.97Z"/><path d="M104.14 80.42L104.14 80.42Q92.32 80.42 85.09 72.48Q77.87 64.53 77.87 51.44L77.87 51.44Q77.87 36.55 86.90 26.35Q95.93 16.15 109.11 16.15L109.11 16.15Q114.34 16.15 118.81 17.10Q123.28 18.05 125.17 19.04L125.17 19.04L126.98 20.03L121.74 32.58Q119.03 30.77 114.43 29.19Q109.83 27.61 106.31 27.61L106.31 27.61Q99.00 27.61 94.57 32.76Q90.15 37.90 90.15 46.39L90.15 46.39Q90.15 57.85 94.35 64.26Q98.54 70.67 106.04 70.67L106.04 70.67Q110.91 70.67 115.24 69.32L115.24 69.32L115.24 55.33L103.60 55.33L104.50 46.21L126.17 46.21L125.35 60.92L125.99 76.54Q112.72 80.42 104.14 80.42Z"/><path d="M165.24 17.53Q169.33 17.53 173.76 18.86Q178.19 20.19 182.38 22.67L182.38 22.67L181.81 24.38L181.14 24.38Q172.86 19.43 165.24 19.43L165.24 19.43Q152.67 19.43 145.86 27.05Q139.05 34.67 139.05 48.86L139.05 48.86Q139.05 62.48 144.95 69.81Q150.86 77.14 161.81 77.14L161.81 77.14Q166.29 77.14 170.05 76.52Q173.81 75.90 179.81 74.28L179.81 74.28L179.81 55.14L181.71 54.95L181.71 75.71Q175.43 77.52 171.29 78.24Q167.14 78.95 161.91 79.05L161.91 79.05Q150.00 79.05 143.57 71.19Q137.15 63.33 137.15 48.76L137.15 48.76Q137.15 33.72 144.43 25.62Q151.72 17.53 165.24 17.53L165.24 17.53Z"/>
            </svg>