<svg xmlns="http://www.w3.org/2000/svg" xmlns:xlink="http://www.w3.org/1999/xlink" width="48.528000000000006" height="85.10400000000001"><path fill="black" d="M23.69 67.10L23.69 67.10Q17.86 67.10 13.32 64.08Q8.78 61.06 6.19 55.48Q3.60 49.90 3.60 42.34L3.60 42.34Q3.60 34.27 6.34 28.12Q9.07 21.96 14.22 18.47Q19.37 14.98 26.64 14.98L26.64 14.98Q31.32 14.98 34.99 16.13Q38.66 17.28 41.90 19.08L41.90 19.08L39.38 24.77Q36.36 23.11 33.23 22.03Q30.10 20.95 26.28 20.95L26.28 20.95Q21.74 20.95 18.22 23.36Q14.69 25.78 12.64 30.46Q10.58 35.14 10.58 41.90L10.58 41.90Q10.58 47.95 12.46 52.24Q14.33 56.52 17.64 58.82Q20.95 61.13 25.27 61.13L25.27 61.13Q29.30 61.13 32.44 59.44Q35.57 57.74 37.37 55.94L37.37 55.94L37.37 44.93L26.93 44.93L26.93 39.53L43.85 39.53L43.85 66.24L37.80 66.24L37.80 61.20Q35.28 63.43 31.68 65.27Q28.08 67.10 23.69 67.10Z"/></svg>