<svg xmlns="http://www.w3.org/2000/svg" xmlns:xlink="http://www.w3.org/1999/xlink" width="43.416000000000004" height="86.4"><path fill="black" d="M24.70 18.65Q27.79 18.65 31.14 19.66Q34.49 20.66 37.66 22.54L37.66 22.54L37.22 23.83L36.72 23.83Q30.46 20.09 24.70 20.09L24.70 20.09Q15.19 20.09 10.04 25.85Q4.90 31.61 4.90 42.34L4.90 42.34Q4.90 52.63 9.36 58.18Q13.82 63.72 22.10 63.72L22.10 63.72Q25.49 63.72 28.33 63.25Q31.18 62.78 35.71 61.56L35.71 61.56L35.71 47.09L37.15 46.94L37.15 62.64Q32.40 64.01 29.27 64.55Q26.14 65.09 22.18 65.16L22.18 65.16Q13.18 65.16 8.32 59.22Q3.46 53.28 3.46 42.26L3.46 42.26Q3.46 30.89 8.96 24.77Q14.47 18.65 24.70 18.65L24.70 18.65Z"/></svg>