<?xml version="1.0" encoding="UTF-8" standalone="no"?>
            <svg
               xmlns="http://www.w3.org/2000/svg"
               xmlns:svg="http://www.w3.org/2000/svg"
               width="200"
               height="100"
               version="1.1"
               id="svg1"
               viewBox="0 0 200 100"
               >
               <path d="M109.29 141.65L109.29 141.65Q67.54 141.65 45.01 117.47Q22.48 93.28 22.48 50.00L22.48 50.00Q22.48 22.50 33.04 1.88Q43.61-18.74 62.70-30.20Q81.80-41.65 107.00-41.65L107.00-41.65Q127.88-41.65 143.54-34.65Q159.19-27.65 167.98-14.54Q176.76-1.43 177.27 16.90L177.27 16.90L153.34 16.90Q152.57 2.64 145.83-6.01Q139.08-14.67 128.77-18.61Q118.46-22.56 107.00-22.56L107.00-22.56Q79.25-22.56 63.21-3.21Q47.17 16.14 47.17 50.00L47.17 50.00Q47.17 122.56 110.82 122.56L110.82 122.56Q132.46 122.56 149.77 113.65L149.77 113.65L149.77 67.82L105.98 67.82L105.98 48.98L172.69 48.98L172.69 126.12Q142.64 141.65 109.29 141.65Z"/>
            </svg>