<?xml version="1.0" encoding="UTF-8" standalone="no"?>
            <svg
               xmlns="http://www.w3.org/2000/svg"
               xmlns:svg="http://www.w3.org/2000/svg"
               width="100"
               height="100"
               version="1.1"
               id="svg1"
               viewBox="0 0 100 100"
               >
               <path fill="black" d="M53.46 21.58Q57.04 21.58 60.92 22.75Q64.79 23.92 68.46 26.08L68.46 26.08L67.96 27.58L67.38 27.58Q60.13 23.25 53.46 23.25L53.46 23.25Q42.46 23.25 36.50 29.92Q30.54 36.58 30.54 49L30.54 49Q30.54 60.92 35.71 67.33Q40.88 73.75 50.46 73.75L50.46 73.75Q54.38 73.75 57.67 73.21Q60.96 72.67 66.21 71.25L66.21 71.25L66.21 54.50L67.88 54.33L67.88 72.50Q62.38 74.08 58.75 74.71Q55.13 75.33 50.54 75.42L50.54 75.42Q40.13 75.42 34.50 68.54Q28.87 61.67 28.87 48.92L28.87 48.92Q28.87 35.75 35.25 28.67Q41.63 21.58 53.46 21.58L53.46 21.58Z"/>
            </svg>