<?xml version="1.0" encoding="UTF-8" standalone="no"?>
            <svg
               xmlns="http://www.w3.org/2000/svg"
               xmlns:svg="http://www.w3.org/2000/svg"
               width="200"
               height="100"
               version="1.1"
               id="svg1"
               viewBox="0 0 200 100"
               >
               <path d="M26.74 17.92L18.68 17.92L18.68 8.67L26.74 8.67L26.74 17.92ZM26.18 89.52L19.25 89.52L19.25 31.79L26.18 31.79L26.18 89.52ZM52.17 17.92L44.11 17.92L44.11 8.67L52.17 8.67L52.17 17.92ZM51.61 95.67L51.61 95.67Q51.61 99.16 50.28 102.23Q48.96 105.31 46.65 107.62Q44.33 109.93 41.23 111.28Q38.13 112.64 34.64 112.64L34.64 112.64L34.64 106.04Q36.72 106.04 38.56 105.25Q40.39 104.46 41.74 103.11Q43.09 101.75 43.88 99.92Q44.67 98.09 44.67 96.00L44.67 96.00L44.67 31.79L51.61 31.79L51.61 95.67Z"/><path d="M82.02 90.96L70.81 90.96L70.81 26.22L82.02 26.22L82.02 90.96ZM76.41 15.14L76.41 15.14Q73.18 15.14 70.87 12.78Q68.57 10.41 68.57 7.30L68.57 7.30Q68.57 3.69 70.69 1.57Q72.80-0.54 76.41-0.54L76.41-0.54Q79.65-0.54 81.95 1.76Q84.26 4.06 84.26 7.30L84.26 7.30Q84.26 10.79 82.14 12.96Q80.02 15.14 76.41 15.14ZM94.09 119.84L94.09 119.84Q86.50 119.84 81.39 116.98L81.39 116.98L84.13 107.64Q85.75 108.63 88.05 109.38Q90.36 110.13 92.72 110.13L92.72 110.13Q103.30 110.13 103.30 96.93L103.30 96.93L103.30 26.22L114.51 26.22L114.51 98.05Q114.51 105.65 111.77 110.44Q109.03 115.23 104.42 117.54Q99.82 119.84 94.09 119.84ZM108.66 15.14L108.66 15.14Q105.42 15.14 103.12 12.78Q100.81 10.41 100.81 7.30L100.81 7.30Q100.81 3.69 102.93 1.57Q105.05-0.54 108.66-0.54L108.66-0.54Q111.89-0.54 114.20 1.76Q116.50 4.06 116.50 7.30L116.50 7.30Q116.50 10.79 114.38 12.96Q112.27 15.14 108.66 15.14Z"/><path d="M129.37 19.38L129.37 19.38Q129.37 18.67 129.81 18.11Q130.25 17.56 130.97 16.68L130.97 16.68Q132.51 14.92 134.54 12.97Q136.58 11.01 138.67 9.19L138.67 9.19Q140.00 8.15 140.66 8.15L140.66 8.15Q141.32 8.15 142.70 9.19L142.70 9.19Q147.16 13.05 150.29 16.68L150.29 16.68Q151.01 17.51 151.48 18.09Q151.95 18.67 151.95 19.38L151.95 19.38Q151.95 20.10 151.48 20.65Q151.01 21.20 150.24 22.13L150.24 22.13Q148.75 23.84 146.77 25.80Q144.79 27.75 142.70 29.51L142.70 29.51Q141.92 30.17 141.48 30.37Q141.04 30.56 140.66 30.56L140.66 30.56Q140.27 30.56 139.86 30.37Q139.45 30.17 138.56 29.51L138.56 29.51Q136.36 27.75 134.43 25.80Q132.51 23.84 130.97 22.02L130.97 22.02Q130.25 21.14 129.81 20.62Q129.37 20.10 129.37 19.38ZM149.30 40.80L149.30 91.36Q149.30 93.01 148.62 93.64Q147.93 94.28 146.27 94.28L146.27 94.28L134.93 94.28Q133.28 94.28 132.59 93.64Q131.90 93.01 131.90 91.36L131.90 91.36L131.90 40.80Q131.90 39.15 132.59 38.52Q133.28 37.88 134.93 37.88L134.93 37.88L146.27 37.88Q147.93 37.88 148.62 38.52Q149.30 39.15 149.30 40.80L149.30 40.80ZM162.74 19.60L162.74 19.60Q162.74 18.89 163.15 18.36Q163.57 17.84 164.28 16.96L164.28 16.96Q165.82 15.20 167.83 13.30Q169.84 11.40 171.88 9.63L171.88 9.63Q173.15 8.59 173.81 8.59L173.81 8.59Q174.47 8.59 175.79 9.63L175.79 9.63Q180.09 13.32 183.28 16.96L183.28 16.96Q183.94 17.78 184.41 18.33Q184.88 18.89 184.88 19.60L184.88 19.60Q184.88 20.32 184.41 20.84Q183.94 21.36 183.23 22.30L183.23 22.30Q181.74 24.01 179.78 25.88Q177.83 27.75 175.79 29.51L175.79 29.51Q175.08 30.17 174.64 30.37Q174.19 30.56 173.81 30.56L173.81 30.56Q173.42 30.56 173.01 30.37Q172.60 30.17 171.77 29.51L171.77 29.51Q169.57 27.75 167.70 25.85Q165.82 23.95 164.28 22.19L164.28 22.19Q163.57 21.31 163.15 20.81Q162.74 20.32 162.74 19.60ZM165.05 89.93L165.05 89.93L165.05 40.80Q165.05 39.15 165.74 38.52Q166.43 37.88 168.08 37.88L168.08 37.88L179.43 37.88Q181.08 37.88 181.77 38.52Q182.46 39.15 182.46 40.80L182.46 40.80L182.46 93.28Q182.46 101.82 180.14 107.19Q177.83 112.56 174.31 115.67Q170.78 118.78 167.15 120.60L167.15 120.60Q165.16 121.59 163.68 119.83L163.68 119.83L156.96 111.62Q156.08 110.58 156.08 109.83Q156.08 109.09 157.23 108.32L157.23 108.32Q158.45 107.49 160.29 105.79Q162.13 104.08 163.59 100.36Q165.05 96.64 165.05 89.93Z"/>
            </svg>