<?xml version="1.0" encoding="UTF-8" standalone="no"?>
            <svg
               xmlns="http://www.w3.org/2000/svg"
               xmlns:svg="http://www.w3.org/2000/svg"
               width="200"
               height="100"
               version="1.1"
               id="svg1"
               viewBox="0 0 200 100"
               >
               <path d="M27.17 17.10L18.90 17.10L18.90 7.62L27.17 7.62L27.17 17.10ZM26.59 90.53L19.48 90.53L19.48 31.33L26.59 31.33L26.59 90.53ZM53.24 17.10L44.98 17.10L44.98 7.62L53.24 7.62L53.24 17.10ZM52.67 96.83L52.67 96.83Q52.67 100.41 51.31 103.56Q49.95 106.71 47.58 109.08Q45.21 111.45 42.03 112.84Q38.85 114.23 35.26 114.23L35.26 114.23L35.26 107.47Q37.40 107.47 39.28 106.66Q41.16 105.85 42.55 104.46Q43.94 103.07 44.75 101.19Q45.55 99.31 45.55 97.18L45.55 97.18L45.55 31.33L52.67 31.33L52.67 96.83Z"/><path d="M83.85 92.00L72.36 92.00L72.36 25.62L83.85 25.62L83.85 92.00ZM78.10 14.26L78.10 14.26Q74.79 14.26 72.42 11.83Q70.06 9.40 70.06 6.21L70.06 6.21Q70.06 2.51 72.23 0.34Q74.40-1.83 78.10-1.83L78.10-1.83Q81.42-1.83 83.79 0.53Q86.15 2.89 86.15 6.21L86.15 6.21Q86.15 9.79 83.98 12.02Q81.81 14.26 78.10 14.26ZM96.23 121.62L96.23 121.62Q88.44 121.62 83.21 118.68L83.21 118.68L86.02 109.11Q87.68 110.13 90.04 110.89Q92.40 111.66 94.83 111.66L94.83 111.66Q105.68 111.66 105.68 98.13L105.68 98.13L105.68 25.62L117.17 25.62L117.17 99.28Q117.17 107.06 114.36 111.98Q111.55 116.89 106.83 119.25Q102.10 121.62 96.23 121.62ZM111.17 14.26L111.17 14.26Q107.85 14.26 105.49 11.83Q103.13 9.40 103.13 6.21L103.13 6.21Q103.13 2.51 105.30 0.34Q107.47-1.83 111.17-1.83L111.17-1.83Q114.49-1.83 116.85 0.53Q119.21 2.89 119.21 6.21L119.21 6.21Q119.21 9.79 117.04 12.02Q114.87 14.26 111.17 14.26Z"/><path d="M143.48 25.98L143.48 87.72L140.96 87.72L140.96 25.98L143.48 25.98ZM176.42 25.98L176.42 76.53Q176.42 83.45 173.78 88.16Q171.14 92.88 164.73 97.28L164.73 97.28L163.22 95.90L163.22 95.27Q169.00 91.37 171.45 87.03Q173.90 82.69 173.90 76.66L173.90 76.66L173.90 28.37L161.08 28.37L160.70 28.00L161.08 25.98L176.42 25.98Z"/>
            </svg>