<?xml version="1.0" encoding="UTF-8" standalone="no"?>
            <svg
               xmlns="http://www.w3.org/2000/svg"
               xmlns:svg="http://www.w3.org/2000/svg"
               width="100"
               height="100"
               version="1.1"
               id="svg1"
               viewBox="0 0 100 100"
               >
               <path fill="black" d="M42.77 77.83L35.15 77.83L35.15 33.84L42.77 33.84L42.77 77.83ZM38.96 26.31L38.96 26.31Q36.76 26.31 35.19 24.70Q33.63 23.10 33.63 20.98L33.63 20.98Q33.63 18.53 35.07 17.09Q36.51 15.65 38.96 15.65L38.96 15.65Q41.16 15.65 42.72 17.22Q44.29 18.78 44.29 20.98L44.29 20.98Q44.29 23.35 42.85 24.83Q41.41 26.31 38.96 26.31ZM50.97 97.46L50.97 97.46Q45.81 97.46 42.34 95.52L42.34 95.52L44.20 89.17Q45.30 89.85 46.87 90.36Q48.43 90.86 50.04 90.86L50.04 90.86Q57.23 90.86 57.23 81.90L57.23 81.90L57.23 33.84L64.85 33.84L64.85 82.66Q64.85 87.82 62.99 91.07Q61.13 94.33 57.99 95.90Q54.86 97.46 50.97 97.46ZM60.87 26.31L60.87 26.31Q58.67 26.31 57.11 24.70Q55.54 23.10 55.54 20.98L55.54 20.98Q55.54 18.53 56.98 17.09Q58.42 15.65 60.87 15.65L60.87 15.65Q63.07 15.65 64.64 17.22Q66.20 18.78 66.20 20.98L66.20 20.98Q66.20 23.35 64.76 24.83Q63.32 26.31 60.87 26.31Z"/>
            </svg>