<?xml version="1.0" encoding="UTF-8" standalone="no"?>
            <svg
               xmlns="http://www.w3.org/2000/svg"
               xmlns:svg="http://www.w3.org/2000/svg"
               width="100"
               height="100"
               version="1.1"
               id="svg1"
               viewBox="0 0 100 100"
               >
               <path fill="black" d="M44.10 28.20L38.62 28.20L38.62 21.92L44.10 21.92L44.10 28.20ZM43.72 76.86L39.00 76.86L39.00 37.62L43.72 37.62L43.72 76.86ZM61.38 28.20L55.90 28.20L55.90 21.92L61.38 21.92L61.38 28.20ZM61.00 81.03L61.00 81.03Q61.00 83.41 60.10 85.50Q59.20 87.59 57.62 89.16Q56.05 90.73 53.95 91.65Q51.84 92.57 49.46 92.57L49.46 92.57L49.46 88.08Q50.88 88.08 52.13 87.55Q53.37 87.01 54.29 86.09Q55.21 85.17 55.75 83.93Q56.28 82.68 56.28 81.26L56.28 81.26L56.28 37.62L61.00 37.62L61.00 81.03Z"/>
            </svg>