<svg xmlns="http://www.w3.org/2000/svg" xmlns:xlink="http://www.w3.org/1999/xlink" width="36.792" height="85.10400000000001"><path fill="black" d="M12.24 66.24L5.76 66.24L5.76 28.80L12.24 28.80L12.24 66.24ZM9.00 22.39L9.00 22.39Q7.13 22.39 5.80 21.02Q4.46 19.66 4.46 17.86L4.46 17.86Q4.46 15.77 5.69 14.54Q6.91 13.32 9.00 13.32L9.00 13.32Q10.87 13.32 12.20 14.65Q13.54 15.98 13.54 17.86L13.54 17.86Q13.54 19.87 12.31 21.13Q11.09 22.39 9.00 22.39ZM19.22 82.94L19.22 82.94Q14.83 82.94 11.88 81.29L11.88 81.29L13.46 75.89Q14.40 76.46 15.73 76.90Q17.06 77.33 18.43 77.33L18.43 77.33Q24.55 77.33 24.55 69.70L24.55 69.70L24.55 28.80L31.03 28.80L31.03 70.34Q31.03 74.74 29.45 77.51Q27.86 80.28 25.20 81.61Q22.54 82.94 19.22 82.94ZM27.65 22.39L27.65 22.39Q25.78 22.39 24.44 21.02Q23.11 19.66 23.11 17.86L23.11 17.86Q23.11 15.77 24.34 14.54Q25.56 13.32 27.65 13.32L27.65 13.32Q29.52 13.32 30.85 14.65Q32.18 15.98 32.18 17.86L32.18 17.86Q32.18 19.87 30.96 21.13Q29.74 22.39 27.65 22.39Z"/></svg>