<svg xmlns="http://www.w3.org/2000/svg" xmlns:xlink="http://www.w3.org/1999/xlink" width="31.7109375" height="91.7578125"><path fill="black" d="M10.44 25.88L5.41 25.88L5.41 20.11L10.44 20.11L10.44 25.88ZM10.09 70.52L5.77 70.52L5.77 34.52L10.09 34.52L10.09 70.52ZM26.30 25.88L21.27 25.88L21.27 20.11L26.30 20.11L26.30 25.88ZM25.95 74.36L25.95 74.36Q25.95 76.54 25.12 78.45Q24.29 80.37 22.85 81.81Q21.41 83.25 19.48 84.09Q17.54 84.94 15.36 84.94L15.36 84.94L15.36 80.82Q16.66 80.82 17.81 80.33Q18.95 79.84 19.79 79.00Q20.64 78.15 21.13 77.01Q21.62 75.87 21.62 74.57L21.62 74.57L21.62 34.52L25.95 34.52L25.95 74.36Z"/></svg>