<?xml version="1.0" encoding="UTF-8" standalone="no"?>
            <svg
               xmlns="http://www.w3.org/2000/svg"
               xmlns:svg="http://www.w3.org/2000/svg"
               width="100"
               height="100"
               version="1.1"
               id="svg1"
               viewBox="0 0 100 100"
               >
               <path fill="black" d="M31.06 29.19L31.06 29.19Q31.06 28.71 31.36 28.33Q31.66 27.96 32.15 27.36L32.15 27.36Q33.20 26.16 34.58 24.83Q35.97 23.50 37.39 22.27L37.39 22.27Q38.29 21.56 38.74 21.56L38.74 21.56Q39.18 21.56 40.12 22.27L40.12 22.27Q43.15 24.89 45.28 27.36L45.28 27.36Q45.77 27.92 46.09 28.31Q46.41 28.71 46.41 29.19L46.41 29.19Q46.41 29.68 46.09 30.05Q45.77 30.43 45.25 31.06L45.25 31.06Q44.24 32.22 42.89 33.55Q41.54 34.88 40.12 36.08L40.12 36.08Q39.60 36.53 39.30 36.66Q39.00 36.79 38.74 36.79L38.74 36.79Q38.47 36.79 38.19 36.66Q37.91 36.53 37.31 36.08L37.31 36.08Q35.82 34.88 34.51 33.55Q33.20 32.22 32.15 30.99L32.15 30.99Q31.66 30.39 31.36 30.03Q31.06 29.68 31.06 29.19ZM44.61 43.75L44.61 78.11Q44.61 79.23 44.14 79.66Q43.68 80.09 42.55 80.09L42.55 80.09L34.84 80.09Q33.72 80.09 33.25 79.66Q32.78 79.23 32.78 78.11L32.78 78.11L32.78 43.75Q32.78 42.63 33.25 42.20Q33.72 41.77 34.84 41.77L34.84 41.77L42.55 41.77Q43.68 41.77 44.14 42.20Q44.61 42.63 44.61 43.75L44.61 43.75ZM53.74 29.34L53.74 29.34Q53.74 28.85 54.02 28.50Q54.30 28.14 54.79 27.54L54.79 27.54Q55.84 26.35 57.20 25.06Q58.57 23.76 59.96 22.57L59.96 22.57Q60.82 21.86 61.26 21.86L61.26 21.86Q61.71 21.86 62.61 22.57L62.61 22.57Q65.53 25.07 67.70 27.54L67.70 27.54Q68.15 28.11 68.47 28.48Q68.79 28.85 68.79 29.34L68.79 29.34Q68.79 29.83 68.47 30.18Q68.15 30.54 67.66 31.18L67.66 31.18Q66.65 32.34 65.33 33.61Q64.00 34.88 62.61 36.08L62.61 36.08Q62.13 36.53 61.83 36.66Q61.53 36.79 61.26 36.79L61.26 36.79Q61.00 36.79 60.72 36.66Q60.44 36.53 59.88 36.08L59.88 36.08Q58.38 34.88 57.11 33.59Q55.84 32.30 54.79 31.10L54.79 31.10Q54.30 30.50 54.02 30.16Q53.74 29.83 53.74 29.34ZM55.31 77.13L55.31 77.13L55.31 43.75Q55.31 42.63 55.78 42.20Q56.25 41.77 57.37 41.77L57.37 41.77L65.08 41.77Q66.21 41.77 66.67 42.20Q67.14 42.63 67.14 43.75L67.14 43.75L67.14 79.42Q67.14 85.22 65.57 88.87Q64.00 92.51 61.60 94.63Q59.21 96.74 56.74 97.98L56.74 97.98Q55.39 98.65 54.38 97.46L54.38 97.46L49.81 91.88Q49.21 91.17 49.21 90.66Q49.21 90.16 50 89.63L50 89.63Q50.82 89.07 52.08 87.91Q53.33 86.75 54.32 84.23Q55.31 81.70 55.31 77.13Z"/>
            </svg>