<?xml version="1.0" encoding="UTF-8" standalone="no"?>
            <svg
               xmlns="http://www.w3.org/2000/svg"
               xmlns:svg="http://www.w3.org/2000/svg"
               width="100"
               height="100"
               version="1.1"
               id="svg1"
               viewBox="0 0 100 100"
               >
               <path fill="black" d="M9.88 78.85L3.42 78.85L3.42 25.15L9.88 25.15L9.88 53.69L10.12 53.69L17.81 44.38L34.04 25.15L41.96 25.15L21.96 48.15L43.35 78.85L35.35 78.85L17.50 52.46L9.88 60.92L9.88 78.85ZM75.88 78.85L69.73 78.85L69.73 21.92L75.88 21.92L75.88 58L76.19 58L82.27 51.23L93.50 39.15L100.96 39.15L86.27 54.85L102.42 78.85L94.96 78.85L81.81 58.62L75.88 64.69L75.88 78.85Z"/>
            </svg>