<?xml version="1.0" encoding="UTF-8" standalone="no"?>
            <svg
               xmlns="http://www.w3.org/2000/svg"
               xmlns:svg="http://www.w3.org/2000/svg"
               width="200"
               height="100"
               version="1.1"
               id="svg1"
               viewBox="0 0 200 100"
               >
               <path d="M17.12 65.09L13.74 65.09L13.74 37.00L17.12 37.00L17.12 51.93L17.25 51.93L21.27 47.06L29.76 37.00L33.91 37.00L23.44 49.03L34.63 65.09L30.45 65.09L21.11 51.29L17.12 55.72L17.12 65.09ZM51.66 65.09L48.44 65.09L48.44 35.31L51.66 35.31L51.66 54.19L51.82 54.19L55.00 50.64L60.88 44.32L64.78 44.32L57.09 52.54L65.55 65.09L61.64 65.09L54.76 54.51L51.66 57.69L51.66 65.09Z"/><path d="M92.39 62.09L89.47 65.10L74.42 50.31L74.42 64.56L70.21 64.56L70.21 33.58L74.42 33.58L74.42 47.70L87.61 33.44L90.44 36.06L78.36 48.63L92.39 62.09ZM128.29 62.35L125.55 65.01L113.64 52.74L113.64 64.56L109.66 64.56L109.66 31.81L113.64 31.81L113.64 50.53L124.04 41.10L126.35 43.63L117.45 51.51L128.29 62.35Z"/><path d="M132.44 65.26L132.44 34.74L135.93 34.74L135.93 48.21L137.41 48.21L150.01 34.74L154.51 34.74L140.47 49.74L154.64 65.26L150.01 65.26L137.37 51.26L135.93 51.26L135.93 65.26L132.44 65.26ZM170.77 65.26L170.77 33.87L174.08 33.87L174.08 52.92L176.09 52.92L184.68 43.46L189.30 43.46L179.01 54.36L189.35 65.26L184.68 65.26L176.09 55.76L174.08 55.76L174.08 65.26L170.77 65.26Z"/>
            </svg>