<?xml version="1.0" encoding="UTF-8" standalone="no"?>
            <svg
               xmlns="http://www.w3.org/2000/svg"
               xmlns:svg="http://www.w3.org/2000/svg"
               width="200"
               height="100"
               version="1.1"
               id="svg1"
               viewBox="0 0 200 100"
               >
               <path d="M15.53 65.38L14.19 65.38L14.19 37.72L15.53 37.72L15.53 53.65L15.61 53.65L29.69 37.72L31.37 37.72L22.49 47.86L32.54 65.38L30.95 65.38L21.48 48.87L15.53 55.57L15.53 65.38ZM46.70 65.38L45.45 65.38L45.45 35.13L46.70 35.13L46.70 58.09L46.79 58.09L57.18 45.35L58.69 45.35L52.23 53.23L59.86 65.38L58.44 65.38L51.48 54.23L46.70 59.85L46.70 65.38Z"/><path d="M87.77 62.66L84.71 65.81L68.94 50.32L68.94 65.25L64.54 65.25L64.54 32.80L68.94 32.80L68.94 47.59L82.76 32.66L85.73 35.39L73.07 48.56L87.77 62.66ZM125.37 62.94L122.49 65.72L110.02 52.87L110.02 65.25L105.85 65.25L105.85 30.94L110.02 30.94L110.02 50.56L120.92 40.68L123.33 43.32L114.01 51.58L125.37 62.94Z"/><path d="M129.71 65.98L129.71 34.02L133.37 34.02L133.37 48.13L134.92 48.13L148.12 34.02L152.82 34.02L138.12 49.73L152.96 65.98L148.12 65.98L134.88 51.32L133.37 51.32L133.37 65.98L129.71 65.98ZM169.86 65.98L169.86 33.10L173.33 33.10L173.33 53.06L175.43 53.06L184.43 43.15L189.27 43.15L178.49 54.57L189.31 65.98L184.43 65.98L175.43 56.03L173.33 56.03L173.33 65.98L169.86 65.98Z"/>
            </svg>