<?xml version="1.0" encoding="UTF-8" standalone="no"?>
            <svg
               xmlns="http://www.w3.org/2000/svg"
               xmlns:svg="http://www.w3.org/2000/svg"
               width="200"
               height="100"
               version="1.1"
               id="svg1"
               viewBox="0 0 200 100"
               >
               <path d="M30.98 101.23L21.99 101.23L21.99-3.57L30.98-3.57L30.98 101.23Z"/><path d="M81.37 105.03L81.37 105.03Q73.95 105.03 67.98 102.21Q62.01 99.38 58.54 93.09Q55.07 86.80 55.07 76.79L55.07 76.79L55.07-16.33L69.59-16.33L69.59 75.34Q69.59 84.05 73.22 88.25Q76.85 92.45 83.31 92.45L83.31 92.45Q86.38 92.45 89.36 91.72Q92.35 90.99 94.45 90.02L94.45 90.02L98.00 101.81Q95.09 103.10 90.81 104.06Q86.54 105.03 81.37 105.03Z"/><path d="M144.53 96.84L103.83 96.84L103.83 90.33L119.97 90.33L119.97 5.23L103.98 5.23L103.98-1.28L129.29-1.28L129.29 90.33L144.53 90.33L144.53 96.84Z"/><path d="M186.80 83.51L186.80 83.51L152.67 83.51Q152.26 83.51 152.26 83.00L152.26 83.00L152.36 10.56Q152.36 10.04 152.88 10.04L152.88 10.04L164.63 10.04Q165.15 10.04 165.15 10.56L165.15 10.56L165.05 70.52L186.80 70.52Q187.32 70.52 187.32 71.04L187.32 71.04L187.32 83.00Q187.32 83.51 186.80 83.51Z"/>
            </svg>