<svg xmlns="http://www.w3.org/2000/svg" xmlns:xlink="http://www.w3.org/1999/xlink" width="60.98400000000001" height="97.992"><path fill="black" d="M30.31 74.02L28.58 74.52Q26.28 68.04 23.98 61.56Q21.67 55.08 19.37 48.64Q17.06 42.19 14.76 35.71L14.76 35.71L14.40 35.71Q14.40 35.71 14.22 37.91Q14.04 40.10 13.75 43.60Q13.46 47.09 13.10 51.05Q12.74 55.01 12.46 58.64Q12.17 62.28 11.99 64.76Q11.81 67.25 11.81 67.75L11.81 67.75Q11.81 69.98 14.04 69.98L14.04 69.98Q14.62 69.98 15.80 69.95Q16.99 69.91 16.99 69.91L16.99 69.91L17.14 70.20L16.49 73.44Q16.49 73.44 15.23 73.37Q13.97 73.30 12.35 73.22Q10.73 73.15 9.50 73.15L9.50 73.15Q8.42 73.15 7.34 73.22Q6.26 73.30 5.33 73.44Q4.39 73.58 3.85 73.66Q3.31 73.73 3.31 73.73L3.31 73.73L3.67 70.42Q5.98 70.13 6.98 68.94Q7.99 67.75 8.28 64.87L8.28 64.87Q8.42 63.58 8.71 60.95Q9.00 58.32 9.36 54.97Q9.72 51.62 10.04 48.17Q10.37 44.71 10.69 41.62Q11.02 38.52 11.20 36.40Q11.38 34.27 11.38 33.77L11.38 33.77Q11.38 32.47 10.73 31.68Q10.08 30.89 8.71 30.42Q7.34 29.95 5.18 29.81L5.18 29.81L4.97 29.45L5.54 26.93Q5.54 26.93 7.02 27.00Q8.50 27.07 10.37 27.18Q12.24 27.29 13.39 27.29L13.39 27.29Q14.47 27.29 15.59 27.22Q16.70 27.14 17.50 27.07Q18.29 27.00 18.29 27.00L18.29 27.00Q20.74 34.85 22.93 41.40Q25.13 47.95 26.82 52.70Q28.51 57.46 29.48 60.08Q30.46 62.71 30.46 62.71L30.46 62.71L30.82 62.71Q30.82 62.71 31.79 60.08Q32.76 57.46 34.49 52.67Q36.22 47.88 38.45 41.40Q40.68 34.92 43.27 27.14L43.27 27.14Q43.27 27.07 44.17 27.14Q45.07 27.22 46.19 27.25Q47.30 27.29 48.02 27.29L48.02 27.29Q49.10 27.29 50.98 27.18Q52.85 27.07 54.32 26.96Q55.80 26.86 55.80 26.86L55.80 26.86L55.94 27.14L55.58 29.81Q52.49 30.17 51.19 31.07Q49.90 31.97 49.90 33.77L49.90 33.77Q49.90 34.42 50.00 36.65Q50.11 38.88 50.33 42.12Q50.54 45.36 50.80 49.07Q51.05 52.78 51.30 56.45Q51.55 60.12 51.77 63.14L51.77 63.14Q52.27 67.32 52.92 68.65Q53.57 69.98 55.30 69.98L55.30 69.98Q55.94 69.98 56.63 69.91Q57.31 69.84 57.31 69.84L57.31 69.84L57.46 70.13L56.81 73.37Q56.81 73.37 55.66 73.30Q54.50 73.22 52.88 73.19Q51.26 73.15 49.97 73.15L49.97 73.15Q48.82 73.15 47.52 73.22Q46.22 73.30 45.07 73.44Q43.92 73.58 43.20 73.66Q42.48 73.73 42.48 73.73L42.48 73.73L42.77 70.42Q45.00 70.13 46.01 69.26Q47.02 68.40 47.02 66.82L47.02 66.82Q47.02 66.17 46.84 63.68Q46.66 61.20 46.37 57.67Q46.08 54.14 45.79 50.33Q45.50 46.51 45.22 43.20Q44.93 39.89 44.75 37.80Q44.57 35.71 44.57 35.71L44.57 35.71L44.21 35.71Q42.48 40.46 40.75 45.25Q39.02 50.04 37.26 54.86Q35.50 59.69 33.77 64.48Q32.04 69.26 30.31 74.02L30.31 74.02Z"/></svg>