<?xml version="1.0" encoding="UTF-8" standalone="no"?>
            <svg
               xmlns="http://www.w3.org/2000/svg"
               xmlns:svg="http://www.w3.org/2000/svg"
               width="200"
               height="100"
               version="1.1"
               id="svg1"
               viewBox="0 0 200 100"
               >
               <path d="M76.55 89.67L69.25 89.67L69.25 34.04L68.74 37.49L49.90 89.67L46.05 89.67L27.03 37.49L26.58 34.04L26.58 89.67L19.28 89.67L19.28 8.52L23.07 8.52L47.69 75.07L47.92 78.07L48.14 75.07L72.71 8.52L76.55 8.52L76.55 89.67Z"/><path d="M108.27 91.11L97.03 91.11L97.03 3.64L113.65 3.64L137.89 59.00L161.76 3.64L178.75 3.64L178.75 91.11L166.88 91.11L166.88 18.76L143.51 71.37L131.77 71.37L108.27 18.76L108.27 91.11Z"/>
            </svg>