<?xml version="1.0" encoding="UTF-8" standalone="no"?>
            <svg
               xmlns="http://www.w3.org/2000/svg"
               xmlns:svg="http://www.w3.org/2000/svg"
               width="100"
               height="100"
               version="1.1"
               id="svg1"
               viewBox="0 0 100 100"
               >
               <path fill="black" d="M69.86 80.75L60.16 80.75L49.54 60.35Q49.31 60.35 48.93 60.39Q48.55 60.43 47.75 60.43Q46.94 60.43 45.30 60.43Q43.66 60.43 40.83 60.43L40.83 60.43L40.83 80.75L31.67 80.75L31.67 24.45L47.86 24.45Q51.45 24.45 54.97 25.59Q58.48 26.74 61.27 29.03Q64.06 31.32 65.78 34.57Q67.49 37.82 67.49 41.86L67.49 41.86Q67.49 47.98 64.67 52.25Q61.84 56.53 57.03 58.59L57.03 58.59L69.86 80.75ZM40.83 31.40L40.83 53.71L49.16 53.71Q50.84 53.71 52.52 53.13Q54.20 52.56 55.58 51.26Q56.95 49.96 57.79 47.63Q58.63 45.30 58.63 41.86L58.63 41.86Q58.63 40.49 58.25 38.69Q57.87 36.90 56.68 35.26Q55.50 33.61 53.36 32.51Q51.22 31.40 47.71 31.40L47.71 31.40L40.83 31.40Z"/>
            </svg>