<?xml version="1.0" encoding="UTF-8" standalone="no"?>
            <svg
               xmlns="http://www.w3.org/2000/svg"
               xmlns:svg="http://www.w3.org/2000/svg"
               width="100"
               height="100"
               version="1.1"
               id="svg1"
               viewBox="0 0 100 100"
               >
               <path fill="black" d="M73.56 75.30L66.03 78.85L58.67 62.77Q55.88 56.77 51.65 54.23Q47.42 51.69 40.82 51.69L40.82 51.69L39.55 51.69L39.55 77.83L31.51 77.83L31.51 18.78Q36.00 18.36 40.10 18.15Q44.20 17.94 48.86 17.94L48.86 17.94Q59.69 17.94 65.14 22.34Q70.60 26.73 70.60 33.67L70.60 33.67Q70.60 39.85 66.92 43.61Q63.24 47.38 56.30 49.24L56.30 49.24Q58.59 50.25 60.36 51.65Q62.14 53.05 63.79 55.37Q65.44 57.70 67.13 61.42L67.13 61.42L73.56 75.30ZM39.55 25.04L39.55 44.92L48.86 44.92Q54.95 44.92 58.76 42.22Q62.56 39.51 62.56 34.43L62.56 34.43Q62.56 30.20 59.01 27.45Q55.46 24.70 48.86 24.70L48.86 24.70Q45.98 24.70 43.70 24.79Q41.41 24.87 39.55 25.04L39.55 25.04Z"/>
            </svg>