<?xml version="1.0" encoding="UTF-8" standalone="no"?>
            <svg
               xmlns="http://www.w3.org/2000/svg"
               xmlns:svg="http://www.w3.org/2000/svg"
               width="200"
               height="100"
               version="1.1"
               id="svg1"
               viewBox="0 0 200 100"
               >
               <path d="M24.53 107.64L24.53-7.71L63.26-7.71Q81.07-7.71 91.43-1.18L91.43-1.18Q105.12 7.44 105.12 23.65L105.12 23.65Q105.12 38.18 94.07 46.04L94.07 46.04Q87.67 50.63 73.63 53.27L73.63 53.27L73.63 53.75Q84.61 57.44 92.05 68.98L92.05 68.98Q100.67 82.47 113.19 107.64L113.19 107.64L97.13 107.64Q84.26 77.88 75.71 67.94L75.71 67.94Q66.60 57.44 51.58 57.44L51.58 57.44L37.61 57.44L37.61 107.64L24.53 107.64ZM60.97 3.27L37.61 3.27L37.61 46.87L58.67 46.87Q73.42 46.87 81.90 41.45L81.90 41.45Q91.01 35.68 91.01 24.20L91.01 24.20Q91.01 3.27 60.97 3.27L60.97 3.27Z"/><path d="M182.38 93.79L168.57 93.79L153.45 64.74Q153.12 64.74 152.58 64.80Q152.03 64.85 150.89 64.85Q149.75 64.85 147.41 64.85Q145.07 64.85 141.04 64.85L141.04 64.85L141.04 93.79L127.99 93.79L127.99 13.61L151.05 13.61Q156.17 13.61 161.17 15.24Q166.17 16.87 170.15 20.14Q174.12 23.40 176.56 28.02Q179.01 32.65 179.01 38.41L179.01 38.41Q179.01 47.12 174.99 53.21Q170.96 59.30 164.11 62.24L164.11 62.24L182.38 93.79ZM141.04 23.51L141.04 55.28L152.90 55.28Q155.30 55.28 157.69 54.46Q160.08 53.64 162.04 51.80Q164.00 49.95 165.20 46.63Q166.39 43.31 166.39 38.41L166.39 38.41Q166.39 36.46 165.85 33.90Q165.30 31.34 163.62 29.00Q161.93 26.66 158.89 25.09Q155.84 23.51 150.83 23.51L150.83 23.51L141.04 23.51Z"/>
            </svg>