<?xml version="1.0" encoding="UTF-8" standalone="no"?>
            <svg
               xmlns="http://www.w3.org/2000/svg"
               xmlns:svg="http://www.w3.org/2000/svg"
               width="100"
               height="100"
               version="1.1"
               id="svg1"
               viewBox="0 0 100 100"
               >
               <path fill="black" d="M67.34 76.86L61.63 76.86L46.72 53.41L39.94 53.41L39.94 76.86L35 76.86L35 21.92L52.43 21.92Q55.23 21.92 57.68 22.97Q60.13 24.02 61.97 25.86Q63.81 27.70 64.87 30.17Q65.92 32.64 65.92 35.44L65.92 35.44L65.92 39.89Q65.92 42.68 64.87 45.15Q63.81 47.62 61.97 49.46Q60.13 51.30 57.68 52.36Q55.23 53.41 52.43 53.41L52.43 53.41L67.34 76.86ZM60.98 39.89L60.98 35.44Q60.98 33.60 60.29 32.01Q59.60 30.42 58.41 29.21Q57.22 28.01 55.63 27.32Q54.04 26.63 52.20 26.63L52.20 26.63L39.94 26.63L39.94 48.70L52.20 48.70Q54.04 48.70 55.63 48.01Q57.22 47.32 58.41 46.11Q59.60 44.90 60.29 43.31Q60.98 41.72 60.98 39.89L60.98 39.89Z"/>
            </svg>