<svg xmlns="http://www.w3.org/2000/svg" xmlns:xlink="http://www.w3.org/1999/xlink" width="46.40625" height="92.0390625"><path fill="black" d="M41.48 74.32L32.55 74.32L22.78 55.55Q22.57 55.55 22.22 55.58Q21.87 55.62 21.13 55.62Q20.39 55.62 18.88 55.62Q17.37 55.62 14.77 55.62L14.77 55.62L14.77 74.32L6.33 74.32L6.33 22.50L21.23 22.50Q24.54 22.50 27.77 23.55Q31.01 24.61 33.57 26.72Q36.14 28.83 37.72 31.82Q39.30 34.80 39.30 38.53L39.30 38.53Q39.30 44.16 36.70 48.09Q34.10 52.03 29.67 53.93L29.67 53.93L41.48 74.32ZM14.77 28.90L14.77 49.43L22.43 49.43Q23.98 49.43 25.52 48.90Q27.07 48.38 28.34 47.18Q29.60 45.98 30.38 43.84Q31.15 41.70 31.15 38.53L31.15 38.53Q31.15 37.27 30.80 35.61Q30.45 33.96 29.36 32.45Q28.27 30.94 26.30 29.92Q24.33 28.90 21.09 28.90L21.09 28.90L14.77 28.90Z"/></svg>