<svg xmlns="http://www.w3.org/2000/svg" xmlns:xlink="http://www.w3.org/1999/xlink" width="54.703125" height="72"><path fill="black" d="M7.35 65.14L7.35 6.82L26.93 6.82Q35.93 6.82 41.17 10.13L41.17 10.13Q48.09 14.48 48.09 22.68L48.09 22.68Q48.09 30.02 42.50 34.00L42.50 34.00Q39.27 36.32 32.17 37.65L32.17 37.65L32.17 37.90Q37.72 39.76 41.48 45.60L41.48 45.60Q45.84 52.42 52.17 65.14L52.17 65.14L44.05 65.14Q37.55 50.10 33.22 45.07L33.22 45.07Q28.62 39.76 21.02 39.76L21.02 39.76L13.96 39.76L13.96 65.14L7.35 65.14ZM25.77 12.38L13.96 12.38L13.96 34.42L24.61 34.42Q32.06 34.42 36.35 31.68L36.35 31.68Q40.96 28.76 40.96 22.96L40.96 22.96Q40.96 12.38 25.77 12.38L25.77 12.38Z"/></svg>