<?xml version="1.0" encoding="UTF-8" standalone="no"?>
            <svg
               xmlns="http://www.w3.org/2000/svg"
               xmlns:svg="http://www.w3.org/2000/svg"
               width="200"
               height="100"
               version="1.1"
               id="svg1"
               viewBox="0 0 200 100"
               >
               <path d="M105.96 98.88L91.41 105.74L77.19 74.68Q71.79 63.08 63.62 58.17Q55.44 53.27 42.69 53.27L42.69 53.27L40.24 53.27L40.24 103.78L24.71 103.78L24.71-10.32Q33.38-11.14 41.30-11.55Q49.23-11.95 58.22-11.95L58.22-11.95Q79.15-11.95 89.69-3.45Q100.24 5.05 100.24 18.45L100.24 18.45Q100.24 30.38 93.12 37.66Q86.01 44.93 72.61 48.53L72.61 48.53Q77.02 50.49 80.46 53.19Q83.89 55.88 87.08 60.38Q90.26 64.88 93.53 72.07L93.53 72.07L105.96 98.88ZM40.24 1.78L40.24 40.19L58.22 40.19Q69.99 40.19 77.35 34.96Q84.71 29.73 84.71 19.92L84.71 19.92Q84.71 11.75 77.84 6.44Q70.97 1.12 58.22 1.12L58.22 1.12Q52.67 1.12 48.25 1.29Q43.84 1.45 40.24 1.78L40.24 1.78Z"/><path d="M183.93 101.90L172.90 101.90L144.10 56.59L131.00 56.59L131.00 101.90L121.45 101.90L121.45-4.26L155.13-4.26Q160.54-4.26 165.27-2.23Q170.01-0.19 173.57 3.36Q177.12 6.91 179.15 11.69Q181.19 16.46 181.19 21.87L181.19 21.87L181.19 30.46Q181.19 35.86 179.15 40.64Q177.12 45.41 173.57 48.96Q170.01 52.52 165.27 54.55Q160.54 56.59 155.13 56.59L155.13 56.59L183.93 101.90ZM171.64 30.46L171.64 21.87Q171.64 18.31 170.31 15.24Q168.98 12.17 166.68 9.84Q164.39 7.51 161.31 6.17Q158.24 4.84 154.69 4.84L154.69 4.84L131.00 4.84L131.00 47.48L154.69 47.48Q158.24 47.48 161.31 46.15Q164.39 44.82 166.68 42.49Q168.98 40.15 170.31 37.08Q171.64 34.01 171.64 30.46L171.64 30.46Z"/>
            </svg>