<?xml version="1.0" encoding="UTF-8" standalone="no"?>
            <svg
               xmlns="http://www.w3.org/2000/svg"
               xmlns:svg="http://www.w3.org/2000/svg"
               width="100"
               height="100"
               version="1.1"
               id="svg1"
               viewBox="0 0 100 100"
               >
               <path fill="black" d="M-37.31 24.59L-18.62 24.59L-18.62 25.87L-24.52 25.87L-24.52 72.49L-18.62 72.49L-18.62 73.77L-37.31 73.77L-37.31 72.49L-30.75 72.49L-30.75 50.16L-52.36 50.16L-52.36 72.49L-45.84 72.49L-45.84 73.77L-64.52 73.77L-64.52 72.49L-58.62 72.49L-58.62 25.87L-64.52 25.87L-64.52 24.59L-45.84 24.59L-45.84 25.87L-52.36 25.87L-52.36 48.85L-30.75 48.85L-30.75 25.87L-37.31 25.87L-37.31 24.59ZM-6.62 32.00L-6.62 32.00Q-8.26 32.00-9.41 30.84Q-10.56 29.67-10.56 28.03L-10.56 28.03Q-10.56 26.43-9.41 25.26Q-8.26 24.10-6.62 24.10L-6.62 24.10Q-5.02 24.10-3.85 25.26Q-2.69 26.43-2.69 28.03L-2.69 28.03Q-2.69 29.67-3.84 30.84Q-4.98 32.00-6.62 32.00ZM-13.87 43.61L-3.70 43.61L-3.70 72.49L0.59 72.49L0.59 73.77L-13.87 73.77L-13.87 72.49L-9.61 72.49L-9.61 44.89L-13.87 44.89L-13.87 43.61ZM27.54 74.43L26.13 74.43L11.05 25.87L4.82 25.87L4.82 24.59L51.51 24.59L51.51 25.87L35.51 25.87L47.44 64.52L60.95 25.87L54.82 25.87L54.82 24.59L67.64 24.59L67.64 25.87L62.39 25.87L45.44 74.43L44.03 74.43L28.95 25.87L17.61 25.87L29.61 64.52L36.36 45.57L37.05 47.80L27.54 74.43ZM45.97 25.48L40.16 42.79L39.05 41.77L44.59 25.11L45.97 25.48ZM87.41 74.43L87.41 74.43Q83.21 74.43 79.85 72.54Q76.49 70.66 74.51 67.13Q72.52 63.61 72.52 58.69L72.52 58.69Q72.52 53.77 74.39 50.25Q76.26 46.72 79.52 44.85Q82.79 42.98 87.02 42.98L87.02 42.98Q91.77 42.98 94.61 44.87Q97.44 46.75 98.70 49.84Q99.97 52.92 99.97 56.49L99.97 56.49L76.95 56.49L76.95 55.21L93.02 55.21Q93.02 53.57 92.84 51.67Q92.66 49.77 92.07 48.08Q91.48 46.39 90.28 45.31Q89.08 44.23 87.02 44.23L87.02 44.23Q84.66 44.23 83.15 45.43Q81.64 46.62 80.79 48.66Q79.93 50.69 79.61 53.28Q79.28 55.87 79.28 58.69L79.28 58.69Q79.28 61.51 79.66 64.08Q80.03 66.66 80.97 68.66Q81.90 70.66 83.56 71.84Q85.21 73.02 87.77 73.02L87.77 73.02Q92.16 73.02 94.95 70.80Q97.74 68.59 98.98 65.21L98.98 65.21L100.46 65.21Q99.18 69.18 95.97 71.80Q92.75 74.43 87.41 74.43ZM131.11 74.43L131.11 74.43Q129.57 74.43 128.28 73.89Q126.98 73.34 126.20 72.08Q125.41 70.82 125.41 68.69L125.41 68.69L125.41 53.80Q125.41 51.44 125.02 49.28Q124.62 47.11 123.36 45.74Q122.10 44.36 119.48 44.36L119.48 44.36Q118 44.36 116.41 44.69Q114.82 45.02 113.46 45.69Q112.10 46.36 111.25 47.38Q110.39 48.39 110.39 49.77L110.39 49.77L108.85 49.77Q108.85 48.10 109.95 47.13Q111.05 46.16 112.36 46.16L112.36 46.16Q113.77 46.16 114.93 47.07Q116.10 47.97 116.10 49.64L116.10 49.64Q116.10 51.61 114.90 52.49Q113.70 53.38 112.36 53.38L112.36 53.38Q110.85 53.38 109.82 52.46Q108.79 51.54 108.79 49.77L108.79 49.77Q108.79 48.23 109.79 47.00Q110.79 45.77 112.48 44.90Q114.16 44.03 116.28 43.56Q118.39 43.08 120.62 43.08L120.62 43.08Q125.15 43.08 127.39 44.66Q129.64 46.23 130.39 48.69Q131.15 51.15 131.15 53.80L131.15 53.80L131.15 69.93Q131.15 71.02 131.52 71.77Q131.90 72.52 133.11 72.52L133.11 72.52Q133.97 72.52 135 71.82Q136.03 71.11 136.59 70.03L136.59 70.03L137.21 71.21Q136.36 72.59 134.82 73.51Q133.28 74.43 131.11 74.43ZM115.84 74.43L115.84 74.43Q111.57 74.43 109.03 72.25Q106.49 70.07 106.49 66.33L106.49 66.33Q106.49 61.93 110.26 59.43Q114.03 56.92 121.02 56.92L121.02 56.92L128.46 56.92L128.46 58.03L121.02 58.03Q118.13 58.03 116.36 59.25Q114.59 60.46 113.77 62.26Q112.95 64.07 112.95 65.87L112.95 65.87Q112.95 67.51 113.46 69.02Q113.97 70.52 115.05 71.51Q116.13 72.49 117.87 72.49L117.87 72.49Q119.67 72.49 121.41 71.30Q123.15 70.10 124.28 67.72Q125.41 65.34 125.41 61.77L125.41 61.77L126.16 61.77Q126.16 65.51 124.97 68.36Q123.77 71.21 121.48 72.82Q119.18 74.43 115.84 74.43ZM141.93 74.43L140.82 74.43L140.82 64.85L142.13 64.85Q142.49 67.11 143.92 68.97Q145.34 70.82 147.44 71.93Q149.54 73.05 151.97 73.05L151.97 73.05Q153.80 73.05 155.44 72.46Q157.08 71.87 158.10 70.66Q159.11 69.44 159.11 67.51L159.11 67.51Q159.11 65.44 157.87 64.23Q156.62 63.02 154.64 62.25Q152.66 61.48 150.44 60.74Q148.23 60.00 146.25 58.95Q144.26 57.90 143.00 56.16Q141.74 54.43 141.74 51.54L141.74 51.54Q141.74 49.44 142.69 47.49Q143.64 45.54 145.61 44.28Q147.57 43.02 150.69 43.02L150.69 43.02Q152.92 43.02 154.79 43.75Q156.66 44.49 158.07 45.67L158.07 45.67L160.52 42.98L161.67 42.98L161.67 52.13L160.36 52.13Q160.20 50.20 158.93 48.43Q157.67 46.66 155.57 45.51Q153.48 44.36 150.75 44.36L150.75 44.36Q149.18 44.36 147.90 44.90Q146.62 45.44 145.84 46.46Q145.05 47.48 145.05 48.89L145.05 48.89Q145.05 50.69 146.38 51.82Q147.70 52.95 149.77 53.77Q151.84 54.59 154.16 55.39Q156.49 56.20 158.57 57.33Q160.66 58.46 161.97 60.21Q163.28 61.97 163.28 64.69L163.28 64.69Q163.28 67.61 161.85 69.80Q160.43 72.00 158.00 73.21Q155.57 74.43 152.49 74.43L152.49 74.43Q150.23 74.43 148.20 73.64Q146.16 72.85 144.59 71.51L144.59 71.51L141.93 74.43Z"/>
            </svg>