<?xml version="1.0" encoding="UTF-8" standalone="no"?>
            <svg
               xmlns="http://www.w3.org/2000/svg"
               xmlns:svg="http://www.w3.org/2000/svg"
               width="100"
               height="100"
               version="1.1"
               id="svg1"
               viewBox="0 0 100 100"
               >
               <path fill="black" d="M-16.64 76.87L-16.64 76.87Q-28.88 76.87-35.49 69.78Q-42.09 62.69-42.09 50L-42.09 50Q-42.09 41.94-38.99 35.90Q-35.90 29.85-30.30 26.49Q-24.70 23.13-17.31 23.13L-17.31 23.13Q-11.19 23.13-6.60 25.19Q-2.01 27.24 0.56 31.08Q3.13 34.93 3.28 40.30L3.28 40.30L-3.73 40.30Q-3.96 36.12-5.93 33.58Q-7.91 31.04-10.93 29.89Q-13.96 28.73-17.31 28.73L-17.31 28.73Q-25.45 28.73-30.15 34.40Q-34.85 40.07-34.85 50L-34.85 50Q-34.85 71.27-16.19 71.27L-16.19 71.27Q-9.85 71.27-4.78 68.66L-4.78 68.66L-4.78 55.22L-17.61 55.22L-17.61 49.70L1.94 49.70L1.94 72.31Q-6.87 76.87-16.64 76.87ZM35.37 71.27L35.37 71.27Q43.58 71.27 48.25 65.60Q52.91 59.93 52.91 50L52.91 50Q52.91 40.07 48.25 34.40Q43.58 28.73 35.37 28.73L35.37 28.73Q27.24 28.73 22.54 34.40Q17.84 40.07 17.84 50L17.84 50Q17.84 59.93 22.54 65.60Q27.24 71.27 35.37 71.27ZM35.37 76.87L35.37 76.87Q27.99 76.87 22.39 73.51Q16.79 70.15 13.69 64.10Q10.60 58.06 10.60 50L10.60 50Q10.60 41.94 13.69 35.90Q16.79 29.85 22.39 26.49Q27.99 23.13 35.37 23.13L35.37 23.13Q42.84 23.13 48.40 26.49Q53.96 29.85 57.05 35.90Q60.15 41.94 60.15 50L60.15 50Q60.15 56.72 57.76 62.13Q55.37 67.54 51.04 71.27L51.04 71.27Q52.84 71.12 54.85 71.01Q56.87 70.90 59.40 70.90L59.40 70.90L62.99 70.90L62.99 76.12L58.66 76.12Q52.76 76.12 49.03 76.23Q45.30 76.34 42.91 76.49Q40.52 76.64 38.84 76.75Q37.16 76.87 35.37 76.87ZM80.37 76.87L80.37 76.87Q74.93 76.87 71.57 73.88Q68.21 70.90 68.21 66.04L68.21 66.04Q68.21 60.15 73.92 56.79Q79.63 53.43 92.39 51.94L92.39 51.94L92.39 49.63Q92.39 45.67 90.11 43.73Q87.84 41.79 83.88 41.79L83.88 41.79Q79.78 41.79 77.35 43.77Q74.93 45.75 74.78 48.88L74.78 48.88L68.21 48.88Q68.36 45.30 70.30 42.54Q72.24 39.78 75.71 38.17Q79.18 36.57 83.73 36.57L83.73 36.57Q90.97 36.57 94.85 40.26Q98.73 43.96 98.73 50.82L98.73 50.82L98.73 76.12L92.69 76.12L92.69 70.67Q90.90 73.66 87.69 75.26Q84.48 76.87 80.37 76.87ZM74.78 65.75L74.78 65.75Q74.78 68.51 76.72 70.07Q78.66 71.64 82.09 71.64L82.09 71.64Q86.87 71.64 89.63 68.62Q92.39 65.60 92.39 60.37L92.39 60.37L92.39 56.64Q83.21 57.61 78.99 59.81Q74.78 62.01 74.78 65.75ZM125.97 76.87L125.97 76.87Q120.37 76.87 116.23 74.40Q112.09 71.94 109.85 67.39Q107.61 62.84 107.61 56.72L107.61 56.72Q107.61 50.52 109.85 46.01Q112.09 41.49 116.12 39.03Q120.15 36.57 125.52 36.57L125.52 36.57Q133.51 36.57 137.91 41.57Q142.31 46.57 142.31 55.45L142.31 55.45L142.31 57.91L114.48 57.91Q114.78 64.55 117.72 68.10Q120.67 71.64 125.97 71.64L125.97 71.64Q130 71.64 132.39 69.48Q134.78 67.31 135.07 63.43L135.07 63.43L141.79 63.43Q141.72 67.31 139.59 70.34Q137.46 73.36 133.96 75.11Q130.45 76.87 125.97 76.87ZM125.52 41.79L125.52 41.79Q121.12 41.79 118.32 44.59Q115.52 47.39 114.78 52.69L114.78 52.69L135.60 52.69Q135.30 47.61 132.72 44.70Q130.15 41.79 125.52 41.79Z"/>
            </svg>