<?xml version="1.0" encoding="UTF-8" standalone="no"?>
            <svg
               xmlns="http://www.w3.org/2000/svg"
               xmlns:svg="http://www.w3.org/2000/svg"
               width="100"
               height="100"
               version="1.1"
               id="svg1"
               viewBox="0 0 100 100"
               >
               <path fill="black" d="M-72.63 69.99L-72.63 69.99L-79.04 69.78Q-84.03 69.78-88.45 70.35L-88.45 70.35Q-88.88 69.78-88.88 69.14L-88.88 69.14L-88.74 68.57Q-85.67 67.85-84.60 66.36L-84.60 66.36Q-83.82 65.22-83.39 63.61Q-82.97 62.01-82.97 54.38L-82.97 54.38L-82.97 47.54Q-82.97 43.12-83.36 41.41Q-83.75 39.70-84.53 39.13Q-85.32 38.56-86.60 38.42L-86.60 38.42L-89.24 38.20Q-89.45 37.92-89.45 37.28L-89.45 37.28L-89.24 36.35Q-85.53 35.57-83.21 34.75Q-80.90 33.93-77.76 32.36L-77.76 32.36Q-76.98 32.36-76.69 33.21L-76.69 33.21Q-77.55 38.06-77.55 56.31L-77.55 56.31Q-77.55 59.59-77.30 63.54Q-77.05 67.50-76.62 67.57L-76.62 67.57Q-75.55 67.78-72.63 67.78L-72.63 67.78Q-72.42 68.28-72.42 68.92Q-72.42 69.57-72.63 69.99ZM-79.33 24.23L-79.33 24.23Q-81.90 22.45-82.97 19.53L-82.97 19.53Q-82.11 18.53-80.65 17.43Q-79.19 16.32-78.12 15.89L-78.12 15.89Q-75.41 17.89-74.63 20.67L-74.63 20.67Q-76.62 23.24-79.33 24.23ZM-33.29 69.99L-33.29 69.99L-44.98 69.78Q-52.67 69.78-57.73 70.35L-57.73 70.35Q-58.09 69.92-58.09 69.14L-58.09 69.14L-58.02 68.57Q-53.10 67.78-51.53 66.54Q-49.96 65.29-49.47 62.44L-49.47 62.44Q-48.47 57.16-48.47 44.76Q-48.47 32.36-48.75 27.44Q-49.04 22.52-49.47 21.31L-49.47 21.31Q-51.25 20.96-53.81 20.96L-53.81 20.96Q-59.80 20.96-63.15 22.52L-63.15 22.52L-66.29 30.36Q-67.93 30.36-68.71 29.79L-68.71 29.79L-67.57 18.75Q-67.57 17.96-66.36 17.96L-66.36 17.96L-53.81 18.46L-36.35 18.46L-22.67 17.96Q-21.38 17.96-21.38 18.75L-21.38 18.75Q-22.52 25.02-22.52 30.22L-22.52 30.22Q-23.09 30.51-23.95 30.51Q-24.80 30.51-25.30 30.22L-25.30 30.22Q-26.59 23.16-26.73 22.52L-26.73 22.52Q-30.29 20.96-36.49 20.96L-36.49 20.96Q-39.27 20.96-40.98 21.31L-40.98 21.31Q-41.20 21.95-41.52 27.23Q-41.84 32.50-41.84 40.77L-41.84 40.77L-41.84 53.53Q-41.84 61.44-40.70 67.28L-40.70 67.28Q-37.42 67.78-33.29 67.78L-33.29 67.78Q-33.07 68.35-33.07 69.03Q-33.07 69.71-33.29 69.99ZM-2.78 69.99L-2.78 69.99L-8.77 69.78Q-14.33 69.78-18.82 70.35L-18.82 70.35Q-19.17 69.92-19.17 69.14L-19.17 69.14L-19.10 68.57Q-16.18 67.93-15.15 66.61Q-14.11 65.29-13.58 62.26Q-13.04 59.23-13.04 39.91L-13.04 39.91L-13.04 21.67Q-13.04 15.18-14.54 13.76L-14.54 13.76Q-15.32 12.97-16.54 12.83L-16.54 12.83L-19.10 12.54Q-19.32 12.19-19.32 11.65Q-19.32 11.12-19.10 10.76L-19.10 10.76Q-14.04 9.84-11.26 8.48L-11.26 8.48Q-9.41 7.56-7.06 5.99L-7.06 5.99Q-6.34 5.99-5.92 6.70L-5.92 6.70Q-7.34 15.61-7.34 40.13L-7.34 40.13Q1.71 35.14 7.13 33.50L7.13 33.50Q11.76 33.50 14.11 36.92Q16.46 40.34 16.46 46.12L16.46 46.12L16.32 55.24Q16.32 67.43 17.39 67.61Q18.46 67.78 21.60 67.78L21.60 67.78Q21.88 68.28 21.88 68.71Q21.88 69.14 21.60 69.99L21.60 69.99L15.04 69.78Q9.12 69.78 5.63 70.35L5.63 70.35Q5.20 69.78 5.20 69.14L5.20 69.14L5.35 68.57Q8.27 67.93 9.27 66.64Q10.26 65.36 10.44 63.58Q10.62 61.80 10.62 56.38Q10.62 50.96 10.58 49.64Q10.55 48.33 10.37 46.22Q10.19 44.12 9.73 43.01Q9.27 41.91 8.55 40.70L8.55 40.70Q7.13 38.49 3.49 38.49L3.49 38.49Q-0.14 38.49-4.56 41.41L-4.56 41.41Q-5.20 41.77-6.20 42.44Q-7.20 43.12-7.34 43.19L-7.34 43.19Q-7.41 46.76-7.41 50.75L-7.41 50.75Q-7.41 67.21-6.52 67.50Q-5.63 67.78-2.78 67.78L-2.78 67.78Q-2.57 68.28-2.57 68.92Q-2.57 69.57-2.78 69.99ZM82.47 18.46L89.88 18.53L96.86 18.46Q100.43 18.46 103.14 18.18L103.14 18.18Q103.49 18.60 103.49 19.53L103.49 19.53L103.42 19.96Q101.71 20.53 100.86 21.81L100.86 21.81Q99.43 23.66 91.02 39.06L91.02 39.06L100.36 62.08L108.70 40.98Q114.68 25.94 115.47 20.74L115.47 20.74Q114.11 20.46 110.05 20.46L110.05 20.46Q109.84 20.10 109.84 19.42Q109.84 18.75 110.05 18.25L110.05 18.25Q114.75 18.46 118.00 18.46Q121.24 18.46 124.80 17.89L124.80 17.89Q125.16 18.32 125.16 19.10L125.16 19.10L125.09 19.67Q123.16 20.38 121.77 21.81Q120.38 23.24 118.25 27.23Q116.11 31.22 114.97 33.86L114.97 33.86L98.65 72.56L97.43 72.56L86.60 46.12L73.84 72.56L72.63 72.56L57.66 35.57Q53.46 24.88 50.96 21.95L50.96 21.95Q49.82 20.67 45.97 19.67L45.97 19.67Q45.90 19.39 45.90 18.82Q45.90 18.25 46.26 17.89L46.26 17.89Q50.82 18.46 56.09 18.46Q61.37 18.46 67.21 18.25L67.21 18.25Q67.36 18.53 67.36 19.24L67.36 19.24L67.21 20.46Q63.08 20.46 61.37 20.53L61.37 20.53Q61.80 26.66 67.28 40.98L67.28 40.98L75.55 62.08L85.17 42.69L82.32 35.57Q77.98 24.73 76.05 21.81L76.05 21.81Q75.20 20.60 72.70 19.96L72.70 19.96Q72.63 19.81 72.63 19.24Q72.63 18.67 72.92 18.18L72.92 18.18Q76.34 18.46 82.47 18.46L82.47 18.46ZM90.02 20.46L84.39 20.67Q84.68 25.09 89.45 36.35L89.45 36.35Q95.37 23.09 95.79 20.67L95.79 20.67Q92.59 20.46 90.02 20.46L90.02 20.46ZM141.20 66.07L141.20 66.07Q147.04 66.07 151.53 62.94L151.53 62.94Q152.53 63.29 152.67 64.43L152.67 64.43L144.98 69.85Q143.26 71.20 137.35 71.20Q131.43 71.20 127.30 65.89Q123.16 60.58 123.16 52.46Q123.16 44.33 127.66 39.63Q132.15 34.93 138.35 33.50L138.35 33.50Q143.76 33.50 147.90 37.13L147.90 37.13Q150.39 39.27 151.39 42.69L151.39 42.69Q151.60 43.55 153.39 43.62L153.39 43.62Q153.81 44.12 153.81 44.65Q153.81 45.19 153.67 45.76L153.67 45.76Q141.13 48.68 129.01 49.82L129.01 49.82Q129.01 58.95 134.07 63.51L134.07 63.51Q136.92 66.07 141.20 66.07ZM145.69 44.33L145.69 44.33Q146.04 44.12 146.04 43.80Q146.04 43.48 145.15 41.80Q144.26 40.13 142.05 38.24Q139.84 36.35 137.42 36.35Q135.00 36.35 133.86 37.06L133.86 37.06Q129.86 39.77 129.29 46.90L129.29 46.90Q133.14 46.90 138.06 46.08Q142.98 45.26 145.69 44.33ZM184.82 43.83L184.82 43.83L184.60 61.23Q184.60 66.43 187.95 66.43L187.95 66.43L190.52 66.36Q190.81 66.71 190.81 67.50L190.81 67.50L190.66 68.28Q185.17 69.28 182.82 71.20L182.82 71.20Q181.25 70.78 180.15 69.24Q179.04 67.71 178.90 66.00L178.90 66.00Q173.20 69.49 167.57 71.20L167.57 71.20Q165.15 71.20 162.58 68.46Q160.01 65.72 160.01 61.58L160.01 61.58Q160.01 59.52 160.94 57.84Q161.87 56.17 163.15 55.52L163.15 55.52Q168.42 52.89 178.83 50.89L178.83 50.89L178.83 44.12Q178.83 40.20 177.58 38.28Q176.34 36.35 174.59 36.35Q172.84 36.35 170.85 36.96Q168.85 37.56 168.03 39.27Q167.21 40.98 167.21 44.12L167.21 44.12Q167.21 44.40 166.25 44.73Q165.29 45.05 163.83 45.05Q162.37 45.05 161.83 44.37Q161.30 43.69 161.30 42.34L161.30 42.34Q161.30 39.77 165.00 36.78L165.00 36.78Q165.86 36.21 170.03 34.85Q174.20 33.50 174.84 33.50L174.84 33.50Q179.97 33.50 182.39 36.49Q184.82 39.49 184.82 43.83ZM166.36 61.23Q166.36 62.94 167.71 64.93Q169.07 66.93 170.81 66.93Q172.56 66.93 174.84 65.72Q177.12 64.50 178.62 63.15L178.62 63.15Q178.83 58.95 178.83 53.46L178.83 53.46Q172.84 54.24 168.28 56.88L168.28 56.88Q166.36 57.80 166.36 61.23L166.36 61.23Z"/>
            </svg>