<?xml version="1.0" encoding="UTF-8" standalone="no"?>
            <svg
               xmlns="http://www.w3.org/2000/svg"
               xmlns:svg="http://www.w3.org/2000/svg"
               width="100"
               height="100"
               version="1.1"
               id="svg1"
               viewBox="0 0 100 100"
               >
               <path fill="black" d="M55.04 77.41L55.04 77.41Q51.25 77.41 51.25 73.53L51.25 73.53Q51.25 70.95 52.67 67.16Q54.09 63.36 56.25 59.35Q58.41 55.34 60.56 51.77Q62.72 48.19 64.09 46.03L64.09 46.03Q62.97 45.95 61.85 45.95Q60.73 45.95 59.61 45.95L59.61 45.95Q55.39 45.95 51.16 46.08Q46.94 46.21 42.72 46.55L42.72 46.55Q38.49 52.41 34.01 58.19Q29.53 63.97 24.96 69.57L24.96 69.57L25.56 69.57Q25.73 69.57 26.21 69.61Q26.68 69.66 26.68 70L26.68 70Q26.68 70.34 26.03 70.56Q25.39 70.78 24.70 70.82Q24.01 70.86 23.84 70.86L23.84 70.86Q23.49 71.38 22.76 72.16Q22.03 72.93 21.34 72.93L21.34 72.93Q20.82 72.93 20.82 72.33L20.82 72.33Q20.82 71.90 21.08 71.47Q21.34 71.03 21.59 70.69L21.59 70.69Q19.27 70.34 16.68 69.22Q14.09 68.10 11.77 66.34Q9.44 64.57 8.02 62.28Q6.59 60 6.59 57.33L6.59 57.33Q6.59 54.22 8.49 52.07Q10.39 49.91 13.58 48.49Q16.77 47.07 20.60 46.21Q24.44 45.34 28.32 44.91Q32.20 44.48 35.56 44.31Q38.92 44.14 41.08 44.14L41.08 44.14Q41.94 42.84 43.53 40.56Q45.13 38.28 46.94 35.47Q48.75 32.67 50.39 29.78Q52.03 26.90 53.06 24.44Q54.09 21.98 54.09 20.52L54.09 20.52Q54.09 18.71 52.84 17.80Q51.59 16.90 49.91 16.64Q48.23 16.38 46.85 16.38L46.85 16.38Q43.15 16.38 38.84 17.41Q34.53 18.45 30.39 20.09Q26.25 21.72 23.06 23.62L23.06 23.62Q21.42 24.57 19.31 26.16Q17.20 27.76 15.65 29.74Q14.09 31.72 14.09 33.97L14.09 33.97Q14.09 36.03 15.39 37.33Q16.68 38.62 18.41 39.44Q20.13 40.26 21.42 40.69Q22.72 41.12 22.72 41.55L22.72 41.55Q22.72 41.81 22.37 41.85Q22.03 41.90 21.94 41.90L21.94 41.90Q21.68 41.90 21.42 41.85Q21.16 41.81 20.99 41.81L20.99 41.81Q19.09 41.47 16.55 40.69Q14.01 39.91 12.11 38.45Q10.22 36.98 10.22 34.57L10.22 34.57Q10.22 32.59 11.47 30.65Q12.72 28.71 14.61 27.03Q16.51 25.34 18.49 23.97Q20.47 22.59 22.03 21.72L22.03 21.72Q25.56 19.74 29.91 18.06Q34.27 16.38 38.84 15.34Q43.41 14.31 47.46 14.31L47.46 14.31Q49.70 14.31 52.07 14.83Q54.44 15.34 56.03 16.77Q57.63 18.19 57.63 20.95L57.63 20.95Q57.63 22.33 56.55 24.74Q55.47 27.16 53.79 30Q52.11 32.84 50.30 35.65Q48.49 38.45 46.90 40.69Q45.30 42.93 44.44 44.14L44.44 44.14L46.42 44.14Q51.08 44.14 55.73 44.22Q60.39 44.31 65.04 44.57L65.04 44.57Q68.84 38.71 72.84 32.97Q76.85 27.24 81.08 21.81L81.08 21.81L81.08 21.55Q81.08 20.86 81.51 20.17L81.51 20.17Q82.03 19.40 83.49 17.72Q84.96 16.03 85.65 15.09L85.65 15.09Q85.82 14.83 85.99 14.53Q86.16 14.22 86.42 13.97L86.42 13.97Q87.11 13.28 88.58 12.93Q90.04 12.59 90.99 12.59L90.99 12.59Q91.25 12.59 91.98 12.72Q92.72 12.84 92.72 13.36L92.72 13.36Q92.72 13.45 92.54 13.79L92.54 13.79Q90.73 15.95 88.88 18.02Q87.03 20.09 85.22 22.33L85.22 22.33Q80.91 27.67 76.81 33.28Q72.72 38.88 68.92 44.74L68.92 44.74Q69.18 44.74 70.22 44.83Q71.25 44.91 72.20 45.09Q73.15 45.26 73.15 45.52L73.15 45.52Q73.15 45.86 72.33 46.08Q71.51 46.29 71.25 46.29L71.25 46.29Q70.47 46.29 69.66 46.25Q68.84 46.21 68.06 46.12L68.06 46.12Q66.59 48.45 64.66 51.94Q62.72 55.43 60.86 59.31Q59.01 63.19 57.80 66.85Q56.59 70.52 56.59 73.28L56.59 73.28Q56.59 73.97 56.85 74.87Q57.11 75.78 58.06 75.78L58.06 75.78Q58.84 75.78 59.57 75.56Q60.30 75.34 60.99 75.34L60.99 75.34Q61.08 75.34 61.38 75.34Q61.68 75.34 61.68 75.52L61.68 75.52Q61.68 75.86 60.26 76.34Q58.84 76.81 57.20 77.11Q55.56 77.41 55.04 77.41ZM22.63 69.31L22.63 69.31Q26.68 63.62 30.91 58.02Q35.13 52.41 39.18 46.72L39.18 46.72Q37.20 46.90 33.49 47.28Q29.78 47.67 25.56 48.45Q21.34 49.22 17.46 50.52Q13.58 51.81 11.12 53.71Q8.66 55.60 8.66 58.28L8.66 58.28Q8.66 60.34 10.17 62.20Q11.68 64.05 13.92 65.52Q16.16 66.98 18.53 67.93Q20.91 68.88 22.63 69.31ZM78.92 39.31L78.92 39.31Q78.66 39.31 78.62 38.66Q78.58 38.02 78.58 37.84L78.58 37.84Q78.58 37.59 78.66 36.72Q78.75 35.86 79.18 35.78L79.18 35.78Q80.39 35.60 81.59 35.34Q82.80 35.09 84.01 34.74L84.01 34.74Q84.18 34.66 84.53 34.66L84.53 34.66Q84.96 34.66 84.96 35.09L84.96 35.09Q84.96 36.03 83.79 37.03Q82.63 38.02 81.21 38.66Q79.78 39.31 78.92 39.31ZM71.94 67.24L71.94 67.24Q67.72 67.24 67.72 62.93L67.72 62.93Q67.72 61.12 68.28 59.22Q68.84 57.33 69.53 55.69L69.53 55.69Q70.30 53.79 71.25 51.98Q72.20 50.17 73.15 48.36L73.15 48.36Q73.58 47.59 73.97 46.77Q74.35 45.95 74.78 45.17L74.78 45.17Q75.22 44.57 76.42 44.14Q77.63 43.71 78.32 43.71L78.32 43.71Q78.41 43.71 78.32 43.75Q78.23 43.79 78.23 43.79L78.23 43.79Q78.23 43.79 78.28 43.79Q78.32 43.79 78.32 43.88L78.32 43.88Q78.49 43.71 78.75 43.71L78.75 43.71Q79.09 43.71 79.18 44.01Q79.27 44.31 79.27 44.57L79.27 44.57Q79.27 45.17 78.79 46.38Q78.32 47.59 77.67 48.66Q77.03 49.74 76.42 50L76.42 50Q75.65 51.81 74.40 53.97Q73.15 56.12 72.11 58.32Q71.08 60.52 71.08 62.59L71.08 62.59Q71.08 65 73.66 65L73.66 65Q74.87 65 76.29 64.22Q77.72 63.45 79.09 62.37Q80.47 61.29 81.47 60.52Q82.46 59.74 82.72 59.74L82.72 59.74Q82.80 59.74 82.80 59.78Q82.80 59.83 82.80 59.83L82.80 59.83Q82.80 60.17 82.54 60.56Q82.28 60.95 82.11 61.12L82.11 61.12Q81.08 62.50 79.35 63.92Q77.63 65.34 75.69 66.29Q73.75 67.24 71.94 67.24ZM85.99 67.24L85.99 67.24Q81.77 67.24 81.77 62.93L81.77 62.93Q81.77 60.34 83.02 57.11Q84.27 53.88 85.95 50.69Q87.63 47.50 88.75 45.26L88.75 45.26Q87.54 45.34 85.95 45.65Q84.35 45.95 83.23 45.95L83.23 45.95Q82.89 45.95 82.59 45.82Q82.28 45.69 82.28 45.34L82.28 45.34Q82.28 44.83 82.80 44.66L82.80 44.66Q83.41 44.22 84.05 43.88Q84.70 43.53 85.30 43.19L85.30 43.19Q87.03 42.07 88.62 40.73Q90.22 39.40 91.68 37.93L91.68 37.93Q92.03 37.24 92.33 36.68Q92.63 36.12 93.49 35.86L93.49 35.86Q94.18 35.69 95.47 35.09Q96.77 34.48 97.37 34.48L97.37 34.48Q97.80 34.48 97.80 34.83L97.80 34.83Q97.80 35.09 97.24 36.21Q96.68 37.33 95.91 38.75Q95.13 40.17 94.48 41.34Q93.84 42.50 93.66 42.76L93.66 42.76Q94.18 42.76 95.52 42.76Q96.85 42.76 98.41 42.84Q99.96 42.93 101.08 43.19Q102.20 43.45 102.20 43.88L102.20 43.88Q102.20 44.22 101.72 44.35Q101.25 44.48 100.73 44.48L100.73 44.48Q98.66 44.48 96.64 44.53Q94.61 44.57 92.63 44.83L92.63 44.83Q91.77 46.38 90.60 48.66Q89.44 50.95 88.28 53.49Q87.11 56.03 86.34 58.41Q85.56 60.78 85.56 62.50L85.56 62.50Q85.56 63.62 86.03 64.31Q86.51 65 87.72 65L87.72 65Q88.92 65 90.39 64.22Q91.85 63.45 93.19 62.37Q94.53 61.29 95.52 60.52Q96.51 59.74 96.77 59.74L96.77 59.74Q96.85 59.74 96.85 59.78Q96.85 59.83 96.85 59.83L96.85 59.83Q96.85 60.17 96.64 60.56Q96.42 60.95 96.25 61.12L96.25 61.12Q95.13 62.50 93.41 63.92Q91.68 65.34 89.74 66.29Q87.80 67.24 85.99 67.24ZM86.85 43.28L86.85 43.28Q87.63 43.10 88.36 43.06Q89.09 43.02 89.78 42.93L89.78 42.93Q90.04 42.33 90.22 41.72Q90.39 41.12 90.56 40.52L90.56 40.52Q89.61 41.12 88.71 41.85Q87.80 42.59 86.85 43.28Z"/>
            </svg>