<?xml version="1.0" encoding="UTF-8" standalone="no"?>
            <svg
               xmlns="http://www.w3.org/2000/svg"
               xmlns:svg="http://www.w3.org/2000/svg"
               width="100"
               height="100"
               version="1.1"
               id="svg1"
               viewBox="0 0 100 100"
               >
               <path fill="black" d="M-7.25 70.50L-35.86 70.26L-45.17 70.50Q-45.95 70.50-46.16 70.20Q-46.38 69.91-46.38 69.04Q-46.38 68.18-46.09 67.96Q-45.80 67.75-44.87 67.75L-44.87 67.75L-40.21 67.75Q-39.90 67.75-39.90 62.25L-39.90 62.25L-39.90 54.93L-40.21 32.51Q-40.21 27.28-40.48 24.52Q-40.75 21.75-40.90 21.75L-40.90 21.75L-44.48 21.75Q-45.24 21.75-45.51 21.53Q-45.78 21.30-45.78 20.20Q-45.78 19.09-44.78 19.09L-44.78 19.09L-41.42 19.20Q-38.07 19.31-36.47 19.31L-36.47 19.31L-17.25 19.09Q-13.38 19.09-13.01 18.98L-13.01 18.98Q-12.62 18.86-12.62 18.47L-12.62 18.47Q-12.60 18.38-12.56 18.15Q-12.52 17.91-12.49 17.77Q-12.45 17.64-12.34 17.45L-12.34 17.45Q-12.15 17.17-11.32 17.17Q-10.49 17.17-10.17 17.36Q-9.84 17.56-9.84 18.25L-9.84 18.25L-10.16 28.31Q-10.16 28.85-10.46 29.00Q-10.75 29.16-11.61 29.16L-11.61 29.16Q-12.97 29.16-12.97 28.01L-12.97 28.01L-12.75 22.14Q-12.75 21.94-20.03 21.77Q-27.31 21.60-33.12 21.60L-33.12 21.60Q-33.57 21.60-33.57 27.97Q-33.57 34.34-33.49 38.51Q-33.42 42.68-33.31 42.82Q-33.21 42.96-32.73 42.96L-32.73 42.96L-19.99 42.96Q-16.02 42.96-16.02 41.97L-16.02 41.97L-16.02 38.01Q-16.02 37.24-14.62 37.24Q-13.21 37.24-13.21 37.93L-13.21 37.93L-13.36 44.02L-13.21 50.50Q-13.21 51.19-14.62 51.19Q-16.02 51.19-16.02 50.43L-16.02 50.43L-16.02 46.63Q-16.02 45.47-19.99 45.47L-19.99 45.47Q-26.45 45.47-29.71 45.47Q-32.97 45.47-33.07 45.48Q-33.18 45.49-33.21 45.53Q-33.25 45.57-33.31 45.63Q-33.36 45.70-33.37 45.80Q-33.38 45.90-33.40 46.04Q-33.42 46.18-33.18 56.69Q-32.95 67.21-32.58 67.21L-32.58 67.21L-9.25 66.98Q-8.85 66.98-8.76 66.76Q-8.67 66.54-8.58 65.49Q-8.48 64.45-8.33 58.68L-8.33 58.68Q-8.33 57.99-6.92 57.99Q-5.50 57.99-5.50 58.75L-5.50 58.75L-5.73 69.42Q-5.73 70.50-7.25 70.50L-7.25 70.50ZM28.89 32.89L28.89 32.89L29.13 28.01Q29.13 26.85 27.32 25.29Q25.50 23.72 24.09 22.83L24.09 22.83Q20.81 20.76 17.08 20.76Q13.34 20.76 10.52 23.50Q7.70 26.24 7.70 30.42Q7.70 34.60 11.28 37.28L11.28 37.28Q13.58 39.01 19.16 41.08Q24.74 43.15 26.96 44.30L26.96 44.30Q31.69 46.82 33.49 50.47L33.49 50.47Q34.78 53.07 34.78 56.16Q34.78 59.26 33.80 61.69Q32.82 64.13 31.15 65.89Q29.47 67.65 27.25 68.92L27.25 68.92Q22.84 71.42 17.46 71.42L17.46 71.42Q10.72 71.42 5.17 69.48L5.17 69.48Q2.17 68.44 2.12 67.63Q2.08 66.82 1.85 64.00L1.85 64.00Q1.37 57.52 1.37 56.87Q1.37 56.22 1.39 56.07Q1.41 55.92 1.52 55.74L1.52 55.74Q1.69 55.40 2.50 55.40L2.50 55.40L2.88 55.40Q3.66 55.40 3.98 55.67Q4.29 55.94 4.33 56.67L4.33 56.67L4.80 63.84Q4.87 64.79 7.26 65.88Q9.66 66.98 12.79 67.71Q15.93 68.44 18.35 68.44Q20.77 68.44 23.04 67.27Q25.32 66.11 26.69 64.02Q28.05 61.94 28.05 59.80Q28.05 57.65 27.36 56.16Q26.66 54.67 25.65 53.65Q24.65 52.63 22.90 51.64L22.90 51.64Q20.47 50.24 17.43 49.04Q14.39 47.84 13.55 47.50Q12.71 47.15 11.19 46.46Q9.67 45.77 8.84 45.27Q8.00 44.77 6.74 43.94Q5.48 43.11 4.78 42.36Q4.07 41.60 3.22 40.53Q2.37 39.46 1.95 38.34L1.95 38.34Q0.90 35.62 0.90 33.16Q0.90 30.69 1.55 28.72Q2.21 26.74 3.34 25.15Q4.48 23.56 6.05 22.23Q7.63 20.91 9.45 20.02L9.45 20.02Q13.31 18.18 16.69 18.18Q20.07 18.18 22.52 18.81Q24.98 19.44 26.80 20.72Q28.61 21.99 29.04 21.99L29.04 21.99Q29.25 21.99 29.33 20.86Q29.41 19.72 29.63 19.52Q29.84 19.31 30.85 19.31Q31.85 19.31 32.13 19.52Q32.41 19.72 32.41 20.61L32.41 20.61L31.95 32.74Q31.95 33.54 31.72 33.79Q31.50 34.04 30.53 34.04Q29.56 34.04 29.23 33.78Q28.89 33.52 28.89 32.89ZM62.75 49.59L62.75 49.59L62.30 65.16Q62.30 66.61 63.34 67.11L63.34 67.11Q63.55 67.21 63.79 67.21Q64.03 67.21 65.36 66.26Q66.69 65.31 66.84 65.31Q66.99 65.31 67.47 65.89Q67.94 66.48 67.94 66.69Q67.94 66.91 67.43 67.30Q66.92 67.69 65.77 68.53Q64.63 69.37 63.12 70.47Q61.61 71.56 60.94 71.56Q60.27 71.56 59.80 71.38Q59.32 71.19 59.04 70.94Q58.76 70.69 58.51 70.26Q58.26 69.83 58.15 69.53Q58.04 69.24 57.88 68.73Q57.72 68.23 57.61 67.91L57.61 67.91Q57.44 67.41 56.81 67.82L56.81 67.82Q51.15 71.34 47.46 71.34Q43.77 71.34 41.70 69.51Q39.64 67.67 39.64 64.62L39.64 64.62Q39.64 61.19 42.47 58.79L42.47 58.79Q45.28 56.41 48.22 55.40L48.22 55.40Q52.91 53.82 56.96 53.11L56.96 53.11Q57.33 53.04 57.33 51.92Q57.33 50.80 57.31 50.07Q57.29 49.35 57.22 48.20Q57.14 47.06 56.96 46.40Q56.79 45.74 56.50 44.87Q56.21 44.00 55.73 43.51Q55.24 43.02 54.59 42.55L54.59 42.55Q53.38 41.66 51.51 41.66Q49.64 41.66 48.36 42.19Q47.09 42.72 46.72 43.70Q46.36 44.67 46.36 46.54Q46.36 48.40 45.62 48.90Q44.89 49.40 43.29 50.22Q41.69 51.04 41.39 51.04L41.39 51.04Q40.70 51.04 40.70 49.39Q40.70 47.75 41.44 46.08Q42.19 44.41 43.42 43.21Q44.65 42.01 46.19 41.14L46.19 41.14Q49.26 39.37 52.05 39.37Q54.83 39.37 56.60 39.85Q58.37 40.34 59.53 41.20Q60.68 42.07 61.41 43.37L61.41 43.37Q62.75 45.75 62.75 49.59ZM45.43 62.48L45.43 62.48Q45.43 63.71 45.96 64.83Q46.49 65.96 47.60 66.74Q48.71 67.52 50.11 67.52Q51.52 67.52 53.25 67.09L53.25 67.09Q57.33 66.09 57.33 65.38L57.33 65.38L57.33 55.40Q57.33 54.79 57.15 54.79Q56.97 54.79 56.30 54.92L56.30 54.92Q45.43 57.04 45.43 62.48ZM94.26 53.11L94.26 53.11L77.23 52.72Q77.01 53.28 77.01 55.68Q77.01 58.08 77.94 60.47Q78.87 62.85 80.40 64.38L80.40 64.38Q83.66 67.60 87.92 67.60L87.92 67.60Q93.12 67.60 97.38 63.15L97.38 63.15Q97.89 62.64 98.02 62.64Q98.15 62.64 98.83 63.23Q99.51 63.82 99.51 63.97Q99.51 64.12 98.90 64.89Q98.30 65.66 97.08 66.77Q95.86 67.88 94.29 68.92L94.29 68.92Q90.53 71.42 86.57 71.42Q82.62 71.42 79.79 70.27Q76.96 69.12 75.10 67.07Q73.25 65.01 72.27 62.17Q71.29 59.33 71.29 55.92Q71.29 52.51 72.45 49.52Q73.60 46.52 75.63 44.34L75.63 44.34Q80.05 39.61 86.99 39.61L86.99 39.61Q92.64 39.61 95.71 43.37L95.71 43.37Q98.59 46.91 98.59 51.96L98.59 51.96Q98.59 53.11 94.26 53.11ZM78.07 50.97L91.16 50.63Q92.88 50.63 92.88 50.35L92.88 50.35Q92.88 44.88 89.49 42.76L89.49 42.76Q87.85 41.73 86.09 41.73Q84.33 41.73 82.72 42.59Q81.11 43.45 79.99 44.77L79.99 44.77Q77.61 47.62 77.38 50.60L77.38 50.60Q77.38 50.97 78.07 50.97L78.07 50.97ZM105.39 68.66L105.39 68.66Q103.92 67.50 103.92 66.35Q103.92 65.20 104.92 64.11Q105.91 63.02 106.29 63.02Q106.68 63.02 106.89 63.33Q107.10 63.65 107.42 64.26Q107.74 64.86 108.59 65.92Q109.45 66.98 111.07 67.98Q112.69 68.98 114.86 68.98Q117.03 68.98 118.41 67.77Q119.79 66.57 119.79 64.25L119.79 64.25Q119.79 60.84 115.24 58.60L115.24 58.60Q114.39 58.19 112.05 57.17Q109.71 56.15 108.26 55.23L108.26 55.23Q104.14 52.61 104.14 48.68L104.14 48.68Q104.14 46.15 105.81 44.08Q107.48 42.01 110.03 40.92Q112.58 39.83 114.80 39.83Q117.03 39.83 118.45 40.20Q119.86 40.56 120.77 41.15Q121.69 41.73 122.34 42.48L122.34 42.48Q123.53 43.84 123.53 45.33L123.53 45.33Q123.53 45.94 122.27 46.40Q121.01 46.85 120.36 46.85Q119.71 46.85 119.43 46.58Q119.15 46.31 118.96 45.88Q118.76 45.44 118.56 44.91Q118.35 44.38 118.04 43.85Q117.72 43.31 117.27 42.89L117.27 42.89Q116.30 41.90 114.95 41.90Q113.60 41.90 112.88 42.06Q112.15 42.22 111.44 42.60Q110.74 42.98 110.21 43.56L110.21 43.56Q109.04 44.82 109.04 47.00L109.04 47.00Q109.04 49.11 110.66 50.34L110.66 50.34Q111.83 51.23 112.78 51.71L112.78 51.71Q113.75 52.18 114.26 52.44Q114.78 52.70 114.91 52.76L114.91 52.76Q117.63 53.91 120.14 55.44L120.14 55.44Q124.74 58.27 124.74 61.96L124.74 61.96Q124.74 64.71 123.18 66.85L123.18 66.85Q120.03 71.17 113.75 71.17L113.75 71.17Q108.59 71.17 105.39 68.66ZM132.75 65.53L132.90 48.99Q132.90 44.56 132.06 44.56L132.06 44.56L130.16 44.56Q129.54 44.56 129.54 43.80L129.54 43.80Q129.54 43.41 129.92 43.04L129.92 43.04L136.86 33.35Q137.31 32.66 137.85 32.66L137.85 32.66Q138.69 32.66 138.69 33.58L138.69 33.58L138.24 40.89Q138.24 41.30 138.31 41.37Q138.39 41.43 138.85 41.43L138.85 41.43L146.71 41.43Q147.23 41.43 147.23 41.90L147.23 41.90Q147.23 41.99 147.01 42.95Q146.79 43.91 146.54 44.20Q146.28 44.49 145.78 44.49L145.78 44.49L138.54 44.49Q138.24 44.49 138.24 47.77L138.24 47.77L138.24 62.40Q138.24 65.20 138.82 65.79L138.82 65.79Q139.90 66.91 141.43 66.91Q142.97 66.91 144.36 66.61Q145.74 66.31 146.70 66.01Q147.66 65.70 147.99 65.70Q148.31 65.70 148.31 66.42Q148.31 67.13 148.25 67.25Q148.18 67.37 147.36 67.98Q146.55 68.58 143.43 69.77Q140.31 70.95 138.59 70.95Q136.88 70.95 135.72 70.45Q134.55 69.94 133.92 69.11L133.92 69.11Q132.75 67.54 132.75 65.53L132.75 65.53Z"/>
            </svg>