<?xml version="1.0" encoding="UTF-8" standalone="no"?>
            <svg
               xmlns="http://www.w3.org/2000/svg"
               xmlns:svg="http://www.w3.org/2000/svg"
               width="100"
               height="100"
               version="1.1"
               id="svg1"
               viewBox="0 0 100 100"
               >
               <path fill="black" d="M-40.16 26.71L-46.75 26.71Q-40.90 21.91-39.91 21.91L-39.91 21.91L-10.76 21.91Q-11.15 21.95-13.06 23.59Q-14.96 25.23-15.97 25.97Q-16.97 26.71-17.61 26.71L-17.61 26.71L-33.27 26.71L-33.27 43.82L-16.16 43.82Q-16.55 43.86-17.43 44.62Q-18.31 45.38-19.37 46.26L-19.37 46.26Q-22.16 48.62-23.04 48.62L-23.04 48.62L-33.27 48.62L-33.27 60.13Q-33.27 64.04-34.47 66.55L-34.47 66.55Q-34.93 67.54-35.67 67.89L-35.67 67.89L-16.06 67.89Q-14.04 67.89-11.89 66.97L-11.89 66.97L-9.70 66.06Q-11.50 68.21-17.40 71.35L-17.40 71.35Q-19.94 72.69-20.82 72.69L-20.82 72.69L-43.33 72.69Q-40.16 68.38-40.16 64.26L-40.16 64.26L-40.16 48.62L-45.10 48.62Q-42.03 46.15-40.16 44.78L-40.16 44.78L-40.16 26.71ZM19.05 30.10L19.05 30.10Q20.25 28.90 20.25 28.35Q20.25 27.81 19.74 27.42Q19.23 27.03 18.44 26.75Q17.64 26.46 16.67 26.27Q15.70 26.08 14.78 25.97L14.78 25.97Q12.95 25.76 11.66 25.76Q10.37 25.76 8.70 26.01Q7.02 26.25 5.61 26.96L5.61 26.96Q2.40 28.58 2.40 31.79Q2.40 35.00 3.58 36.93Q4.76 38.85 6.67 40.12Q8.57 41.39 11.03 42.24Q13.48 43.08 16.06 43.82Q18.63 44.57 21.08 45.41Q23.54 46.26 25.44 47.57L25.44 47.57Q29.71 50.49 29.71 55.72L29.71 55.72Q29.71 60.83 25.37 65.21L25.37 65.21Q21.67 68.95 15.53 71.35L15.53 71.35Q9.99 73.54 4.90 73.54L4.90 73.54Q1.76 73.54-0.79 72.79Q-3.35 72.05-4.41 71.49L-4.41 71.49Q-6.88 70.25-6.88 68.56L-6.88 68.56Q-6.88 65.84 1.20 61.43L1.20 61.43Q0.14 62.60 0.14 63.67Q0.14 64.75 0.83 65.51Q1.52 66.27 2.61 66.81Q3.71 67.36 5.06 67.71Q6.42 68.07 7.76 68.28L7.76 68.28Q10.23 68.67 12.24 68.67Q14.26 68.67 16.20 68.30Q18.14 67.93 19.65 67.01L19.65 67.01Q23.08 64.96 23.08 60.55L23.08 60.55Q23.08 53.71 14.40 50.39L14.40 50.39Q11.93 49.47 9.33 48.64Q6.74 47.81 4.27 46.93Q1.80 46.05-0.11 44.81L-0.11 44.81Q-4.41 41.99-4.41 37.37L-4.41 37.37Q-4.41 33.52-0.07 29.43L-0.07 29.43Q3.67 25.90 9.35 23.36L9.35 23.36Q14.75 20.92 18.56 20.92L18.56 20.92Q21.98 20.92 24.06 21.56Q26.15 22.19 26.69 22.53Q27.24 22.87 27.24 23.31Q27.24 23.75 26.75 24.36Q26.25 24.98 25.48 25.69Q24.70 26.39 23.76 27.10Q22.83 27.81 21.91 28.41L21.91 28.41Q19.80 29.78 19.05 30.10ZM58.19 47.88L58.19 62.24L58.12 64.71Q58.12 67.47 59.67 68.21L59.67 68.21Q60.27 68.49 61.04 68.49L61.04 68.49Q62.28 68.49 63.59 67.93L63.59 67.93Q62.24 68.49 61.26 69.41Q60.27 70.32 59.24 71.21L59.24 71.21Q56.70 73.32 54.13 73.32L54.13 73.32Q51.55 73.32 51.38 70.36L51.38 70.36Q51.31 69.58 51.31 68.81L51.31 68.81Q44.95 73.22 39.66 73.22L39.66 73.22Q35.18 73.22 33.45 70.50L33.45 70.50Q32.82 69.51 32.82 67.78Q32.82 66.06 33.87 64.31Q34.93 62.56 36.56 61.12L36.56 61.12Q39.45 58.43 43.54 56.70L43.54 56.70Q46.58 55.40 51.34 55.22L51.34 55.22L51.34 53.67Q51.34 48.06 50.32 46.08Q49.29 44.11 47.67 43.17Q46.05 42.24 43.86 42.24L43.86 42.24Q40.16 42.24 37.33 43.68L37.33 43.68Q41.21 40.47 43.01 39.45L43.01 39.45Q46.72 37.37 49.74 37.37Q52.75 37.37 54.27 38.25Q55.79 39.13 56.67 40.58L56.67 40.58Q58.19 43.12 58.19 47.88L58.19 47.88ZM41.60 67.31Q42.45 67.93 43.58 68.21Q44.71 68.49 46.93 68.49Q49.15 68.49 51.34 67.43L51.34 67.43L51.34 60.02L45.62 60.02Q42.55 60.02 40.26 60.44L40.26 60.44Q39.80 61.96 39.80 63.34Q39.80 64.71 40.28 65.70Q40.76 66.69 41.60 67.31ZM93.86 66.16L93.86 66.16Q89.03 71.56 81.86 72.90L81.86 72.90Q80.20 73.18 77.77 73.18Q75.34 73.18 73.18 71.82Q71.03 70.47 69.65 68.31L69.65 68.31Q67.04 64.15 67.04 58.15L67.04 58.15Q67.04 54.20 70.08 49.40L70.08 49.40Q73.04 44.67 77.31 41.50L77.31 41.50Q81.90 38.11 85.99 38.11L85.99 38.11Q88.11 38.11 89.56 39.66L89.56 39.66Q90.90 41.18 90.90 43.12Q90.90 45.06 90.05 46.70Q89.20 48.34 87.84 49.89Q86.49 51.45 84.74 52.88Q82.99 54.30 81.16 55.54L81.16 55.54Q78.58 57.30 74.66 59.53L74.66 59.53Q75.79 63.80 78.65 66.11Q81.51 68.42 86.03 68.42L86.03 68.42Q89.84 68.42 93.86 66.16ZM83.20 52.01L83.20 52.01Q84.16 50.49 84.16 49.05Q84.16 47.60 83.84 46.59Q83.52 45.59 82.92 44.81L82.92 44.81Q81.55 43.05 79.36 43.05L79.36 43.05Q73.99 43.05 73.99 53.99L73.99 53.99Q73.99 55.93 74.31 57.83L74.31 57.83Q80.52 56.10 83.20 52.01ZM113.34 45.31L113.34 45.31Q114.01 44.81 114.01 44.25Q114.01 43.68 113.34 43.37Q112.67 43.05 111.79 42.87L111.79 42.87Q110.41 42.59 109.23 42.59Q108.05 42.59 107.39 42.71Q106.74 42.84 106.28 43.15L106.28 43.15Q105.29 43.82 105.29 45.52Q105.29 47.21 106.03 48.29Q106.77 49.36 107.99 50.11Q109.21 50.85 110.76 51.34Q112.31 51.83 113.92 52.31Q115.53 52.79 117.08 53.35Q118.63 53.92 119.83 54.83L119.83 54.83Q122.55 56.81 122.55 60.27L122.55 60.27Q122.55 63.69 119.27 66.97L119.27 66.97Q116.48 69.76 111.93 71.70L111.93 71.70Q107.69 73.54 104.38 73.54L104.38 73.54Q100.35 73.54 97.92 71.84L97.92 71.84Q97.04 71.21 97.04 70.20Q97.04 69.20 97.95 68.37Q98.87 67.54 100.11 66.81Q101.34 66.09 102.58 65.44Q103.81 64.78 104.45 64.04L104.45 64.04Q103.81 64.75 103.81 65.63Q103.81 66.51 104.80 67.13Q105.79 67.75 107.13 68.10L107.13 68.10Q109.46 68.67 111.61 68.67Q113.76 68.67 114.73 67.87Q115.70 67.08 115.70 65.21Q115.70 63.34 114.96 62.16Q114.22 60.97 113.02 60.13Q111.82 59.28 110.27 58.70Q108.72 58.12 107.11 57.57Q105.50 57.02 103.95 56.46Q102.40 55.89 101.20 55.08L101.20 55.08Q98.52 53.28 98.52 50.39L98.52 50.39Q98.52 47.64 101.76 44.50L101.76 44.50Q104.59 41.81 107.66 40.30L107.66 40.30Q112.91 37.76 115.60 37.76L115.60 37.76Q118.38 37.76 119.62 38.36Q120.85 38.96 120.85 39.40Q120.85 39.84 120.57 40.19Q120.29 40.54 119.88 40.84Q119.48 41.14 119.05 41.39Q118.63 41.64 117.85 42.13Q117.08 42.63 115.77 43.45Q114.47 44.28 113.34 45.31ZM130.91 42.10L126.32 42.10L130.91 38.50L130.91 33.49Q132.82 32.15 133.63 31.44Q134.44 30.73 135.00 30.42Q135.57 30.10 136.17 29.75L136.17 29.75Q137.69 28.86 137.79 28.69L137.79 28.69L137.79 37.30L149.08 37.30Q148.62 37.33 146.75 38.99L146.75 38.99Q143.19 42.10 142.24 42.10L142.24 42.10L137.79 42.10L137.79 61.01Q137.79 67.50 141.53 68.53L141.53 68.53Q142.66 68.81 143.65 68.81L143.65 68.81Q145.27 68.81 146.40 68.33Q147.53 67.85 148.27 67.47L148.27 67.47Q146.12 70.75 142.24 72.48L142.24 72.48Q140.23 73.36 137.91 73.36Q135.60 73.36 134.33 72.55Q133.06 71.74 132.29 70.43L132.29 70.43Q130.91 68.03 130.91 64.08L130.91 64.08L130.91 42.10Z"/>
            </svg>