<?xml version="1.0" encoding="UTF-8" standalone="no"?>
            <svg
               xmlns="http://www.w3.org/2000/svg"
               xmlns:svg="http://www.w3.org/2000/svg"
               width="200"
               height="100"
               version="1.1"
               id="svg1"
               viewBox="0 0 200 100"
               >
               <path d="M10.81 50.85L10.81 50.85L10.54 50.84Q10.33 50.84 10.14 50.86L10.14 50.86Q10.12 50.84 10.12 50.81L10.12 50.81L10.13 50.79Q10.26 50.76 10.31 50.69L10.31 50.69Q10.34 50.65 10.36 50.58Q10.38 50.51 10.38 50.19L10.38 50.19L10.38 49.90Q10.38 49.71 10.36 49.64Q10.34 49.56 10.31 49.54Q10.28 49.51 10.22 49.51L10.22 49.51L10.11 49.50Q10.10 49.49 10.10 49.46L10.10 49.46L10.11 49.42Q10.27 49.39 10.36 49.35Q10.46 49.32 10.60 49.25L10.60 49.25Q10.63 49.25 10.64 49.29L10.64 49.29Q10.61 49.49 10.61 50.27L10.61 50.27Q10.61 50.41 10.62 50.58Q10.63 50.74 10.64 50.75L10.64 50.75Q10.69 50.76 10.81 50.76L10.81 50.76Q10.82 50.78 10.82 50.80Q10.82 50.83 10.81 50.85ZM10.53 48.91L10.53 48.91Q10.42 48.83 10.38 48.71L10.38 48.71Q10.41 48.66 10.47 48.62Q10.54 48.57 10.58 48.55L10.58 48.55Q10.70 48.64 10.73 48.75L10.73 48.75Q10.64 48.86 10.53 48.91ZM12.48 50.85L12.48 50.85L11.99 50.84Q11.66 50.84 11.45 50.86L11.45 50.86Q11.43 50.85 11.43 50.81L11.43 50.81L11.43 50.79Q11.64 50.76 11.71 50.70Q11.78 50.65 11.80 50.53L11.80 50.53Q11.84 50.30 11.84 49.78Q11.84 49.25 11.83 49.04Q11.82 48.83 11.80 48.78L11.80 48.78Q11.72 48.77 11.61 48.77L11.61 48.77Q11.36 48.77 11.22 48.83L11.22 48.83L11.08 49.17Q11.01 49.17 10.98 49.14L10.98 49.14L11.03 48.67Q11.03 48.64 11.08 48.64L11.08 48.64L11.61 48.66L12.35 48.66L12.94 48.64Q12.99 48.64 12.99 48.67L12.99 48.67Q12.94 48.94 12.94 49.16L12.94 49.16Q12.92 49.17 12.88 49.17Q12.84 49.17 12.82 49.16L12.82 49.16Q12.77 48.86 12.76 48.83L12.76 48.83Q12.61 48.77 12.35 48.77L12.35 48.77Q12.23 48.77 12.16 48.78L12.16 48.78Q12.15 48.81 12.14 49.03Q12.12 49.26 12.12 49.61L12.12 49.61L12.12 50.15Q12.12 50.49 12.17 50.73L12.17 50.73Q12.31 50.76 12.48 50.76L12.48 50.76Q12.49 50.78 12.49 50.81Q12.49 50.84 12.48 50.85ZM13.78 50.85L13.78 50.85L13.53 50.84Q13.29 50.84 13.10 50.86L13.10 50.86Q13.08 50.85 13.08 50.81L13.08 50.81L13.09 50.79Q13.21 50.76 13.25 50.71Q13.30 50.65 13.32 50.52Q13.34 50.39 13.34 49.57L13.34 49.57L13.34 48.80Q13.34 48.52 13.28 48.46L13.28 48.46Q13.25 48.43 13.20 48.42L13.20 48.42L13.09 48.41Q13.08 48.39 13.08 48.37Q13.08 48.35 13.09 48.33L13.09 48.33Q13.30 48.29 13.42 48.24L13.42 48.24Q13.50 48.20 13.60 48.13L13.60 48.13Q13.63 48.13 13.65 48.16L13.65 48.16Q13.59 48.54 13.59 49.58L13.59 49.58Q13.97 49.37 14.20 49.30L14.20 49.30Q14.40 49.30 14.50 49.44Q14.60 49.59 14.60 49.84L14.60 49.84L14.59 50.22Q14.59 50.74 14.64 50.75Q14.68 50.76 14.82 50.76L14.82 50.76Q14.83 50.78 14.83 50.79Q14.83 50.81 14.82 50.85L14.82 50.85L14.54 50.84Q14.29 50.84 14.14 50.86L14.14 50.86Q14.12 50.84 14.12 50.81L14.12 50.81L14.13 50.79Q14.25 50.76 14.29 50.71Q14.33 50.65 14.34 50.58Q14.35 50.50 14.35 50.27Q14.35 50.04 14.35 49.98Q14.35 49.93 14.34 49.84Q14.33 49.75 14.31 49.70Q14.29 49.66 14.26 49.61L14.26 49.61Q14.20 49.51 14.05 49.51L14.05 49.51Q13.89 49.51 13.70 49.64L13.70 49.64Q13.68 49.65 13.63 49.68Q13.59 49.71 13.59 49.71L13.59 49.71Q13.58 49.86 13.58 50.03L13.58 50.03Q13.58 50.73 13.62 50.74Q13.66 50.76 13.78 50.76L13.78 50.76Q13.79 50.78 13.79 50.80Q13.79 50.83 13.78 50.85ZM17.40 48.66L17.71 48.66L18.01 48.66Q18.16 48.66 18.28 48.65L18.28 48.65Q18.29 48.67 18.29 48.71L18.29 48.71L18.29 48.72Q18.22 48.75 18.18 48.80L18.18 48.80Q18.12 48.88 17.76 49.54L17.76 49.54L18.16 50.51L18.51 49.62Q18.77 48.98 18.80 48.76L18.80 48.76Q18.74 48.75 18.57 48.75L18.57 48.75Q18.56 48.73 18.56 48.70Q18.56 48.67 18.57 48.65L18.57 48.65Q18.77 48.66 18.91 48.66Q19.05 48.66 19.20 48.64L19.20 48.64Q19.21 48.65 19.21 48.69L19.21 48.69L19.21 48.71Q19.13 48.74 19.07 48.80Q19.01 48.86 18.92 49.03Q18.83 49.20 18.78 49.31L18.78 49.31L18.09 50.96L18.04 50.96L17.58 49.84L17.03 50.96L16.98 50.96L16.35 49.39Q16.17 48.93 16.06 48.81L16.06 48.81Q16.01 48.75 15.85 48.71L15.85 48.71Q15.85 48.70 15.85 48.68Q15.85 48.65 15.86 48.64L15.86 48.64Q16.06 48.66 16.28 48.66Q16.50 48.66 16.75 48.65L16.75 48.65Q16.76 48.66 16.76 48.69L16.76 48.69L16.75 48.75Q16.58 48.75 16.50 48.75L16.50 48.75Q16.52 49.01 16.76 49.62L16.76 49.62L17.11 50.51L17.51 49.69L17.39 49.39Q17.21 48.93 17.13 48.80L17.13 48.80Q17.09 48.75 16.99 48.72L16.99 48.72Q16.98 48.72 16.98 48.69Q16.98 48.67 16.99 48.65L16.99 48.65Q17.14 48.66 17.40 48.66L17.40 48.66ZM17.72 48.75L17.48 48.75Q17.49 48.94 17.70 49.42L17.70 49.42Q17.95 48.86 17.97 48.75L17.97 48.75Q17.83 48.75 17.72 48.75L17.72 48.75ZM19.89 50.68L19.89 50.68Q20.14 50.68 20.33 50.55L20.33 50.55Q20.37 50.56 20.38 50.61L20.38 50.61L20.05 50.84Q19.98 50.90 19.73 50.90Q19.48 50.90 19.30 50.67Q19.13 50.45 19.13 50.10Q19.13 49.76 19.32 49.56Q19.51 49.36 19.77 49.30L19.77 49.30Q20.00 49.30 20.18 49.45L20.18 49.45Q20.28 49.54 20.33 49.69L20.33 49.69Q20.34 49.73 20.41 49.73L20.41 49.73Q20.43 49.75 20.43 49.77Q20.43 49.80 20.42 49.82L20.42 49.82Q19.89 49.94 19.38 49.99L19.38 49.99Q19.38 50.38 19.59 50.57L19.59 50.57Q19.71 50.68 19.89 50.68ZM20.08 49.76L20.08 49.76Q20.10 49.75 20.10 49.74Q20.10 49.72 20.06 49.65Q20.02 49.58 19.93 49.50Q19.84 49.42 19.73 49.42Q19.63 49.42 19.58 49.45L19.58 49.45Q19.41 49.57 19.39 49.87L19.39 49.87Q19.55 49.87 19.76 49.83Q19.97 49.80 20.08 49.76ZM21.75 49.74L21.75 49.74L21.74 50.48Q21.74 50.70 21.88 50.70L21.88 50.70L21.99 50.69Q22.00 50.71 22.00 50.74L22.00 50.74L21.99 50.78Q21.76 50.82 21.66 50.90L21.66 50.90Q21.59 50.88 21.55 50.82Q21.50 50.75 21.49 50.68L21.49 50.68Q21.25 50.83 21.01 50.90L21.01 50.90Q20.91 50.90 20.80 50.78Q20.69 50.67 20.69 50.49L20.69 50.49Q20.69 50.40 20.73 50.33Q20.77 50.26 20.83 50.23L20.83 50.23Q21.05 50.12 21.49 50.04L21.49 50.04L21.49 49.75Q21.49 49.58 21.44 49.50Q21.39 49.42 21.31 49.42Q21.24 49.42 21.15 49.45Q21.07 49.47 21.03 49.54Q21.00 49.62 21.00 49.75L21.00 49.75Q21.00 49.76 20.96 49.78Q20.92 49.79 20.85 49.79Q20.79 49.79 20.77 49.76Q20.75 49.73 20.75 49.67L20.75 49.67Q20.75 49.57 20.90 49.44L20.90 49.44Q20.94 49.41 21.12 49.36Q21.29 49.30 21.32 49.30L21.32 49.30Q21.54 49.30 21.64 49.43Q21.75 49.55 21.75 49.74ZM20.96 50.48Q20.96 50.55 21.02 50.63Q21.08 50.72 21.15 50.72Q21.23 50.72 21.32 50.67Q21.42 50.62 21.48 50.56L21.48 50.56Q21.49 50.38 21.49 50.15L21.49 50.15Q21.24 50.18 21.04 50.29L21.04 50.29Q20.96 50.33 20.96 50.48L20.96 50.48Z"/><path d="M22.19 51.16L22.19 51.16Q22.16 51.16 22.14 51.16Q22.12 51.15 22.12 51.13L22.12 51.13Q22.12 51.10 22.14 51.09Q22.17 51.08 22.20 51.08L22.20 51.08Q22.26 51.06 22.30 51.03Q22.34 51.01 22.34 50.95L22.34 50.95L22.34 50.25Q22.34 50.16 22.30 50.09Q22.27 50.02 22.19 50.01L22.19 50.01Q22.17 50.00 22.16 50.00Q22.16 49.99 22.16 49.97L22.16 49.97Q22.16 49.93 22.19 49.93L22.19 49.93Q22.32 49.90 22.40 49.85Q22.48 49.80 22.53 49.76L22.53 49.76Q22.56 49.74 22.57 49.74L22.57 49.74Q22.59 49.74 22.59 49.76L22.59 49.76Q22.59 49.78 22.58 49.86Q22.58 49.94 22.57 50.03Q22.56 50.12 22.56 50.20L22.56 50.20L22.56 50.95Q22.56 51.01 22.60 51.03Q22.64 51.06 22.70 51.08L22.70 51.08Q22.73 51.08 22.75 51.09Q22.78 51.10 22.78 51.13L22.78 51.13Q22.78 51.16 22.71 51.16L22.71 51.16Q22.65 51.16 22.61 51.16Q22.58 51.15 22.54 51.15Q22.51 51.15 22.45 51.15L22.45 51.15Q22.39 51.15 22.36 51.15Q22.32 51.15 22.29 51.16Q22.25 51.16 22.19 51.16ZM22.45 49.47L22.45 49.47Q22.38 49.47 22.33 49.43Q22.28 49.38 22.28 49.31L22.28 49.31Q22.28 49.24 22.33 49.19Q22.38 49.15 22.45 49.15L22.45 49.15Q22.52 49.15 22.56 49.19Q22.61 49.24 22.61 49.31L22.61 49.31Q22.61 49.38 22.56 49.43Q22.52 49.47 22.45 49.47ZM23.54 51.17L23.54 51.17Q23.49 51.17 23.47 51.16Q23.44 51.15 23.44 51.13L23.44 51.13Q23.44 51.11 23.47 51.10Q23.49 51.09 23.55 51.08L23.55 51.08Q23.67 51.05 23.74 51.00Q23.80 50.94 23.80 50.82L23.80 50.82L23.80 49.56Q23.80 49.41 23.80 49.33Q23.79 49.25 23.77 49.22Q23.76 49.18 23.73 49.18L23.73 49.18Q23.69 49.17 23.64 49.17Q23.59 49.17 23.50 49.17L23.50 49.17L23.35 49.17Q23.27 49.17 23.20 49.20Q23.12 49.23 23.08 49.30L23.08 49.30Q23.07 49.31 23.05 49.34Q23.03 49.37 23.00 49.40Q22.98 49.42 22.95 49.42L22.95 49.42Q22.94 49.42 22.93 49.41Q22.93 49.39 22.93 49.38L22.93 49.38Q22.93 49.34 22.94 49.31L22.94 49.31Q22.99 49.22 23.01 49.14Q23.03 49.07 23.04 48.97L23.04 48.97Q23.05 48.91 23.07 48.91Q23.09 48.90 23.10 48.90L23.10 48.90Q23.11 48.90 23.14 48.93Q23.17 48.97 23.18 49.00L23.18 49.00Q23.20 49.03 23.27 49.05Q23.34 49.06 23.41 49.06L23.41 49.06L24.55 49.06Q24.67 49.06 24.74 49.05Q24.81 49.04 24.86 49.02L24.86 49.02Q24.90 49.00 24.93 48.97Q24.95 48.95 24.99 48.95L24.99 48.95Q25.00 48.95 25.01 48.98Q25.01 49.00 25.01 49.03L25.01 49.03Q25.01 49.04 25.01 49.07Q25.00 49.10 25.00 49.12L25.00 49.12Q24.99 49.18 24.98 49.20Q24.97 49.23 24.97 49.25Q24.97 49.27 24.97 49.31L24.97 49.31L24.97 49.35Q24.97 49.38 24.95 49.41Q24.94 49.45 24.92 49.45L24.92 49.45Q24.89 49.45 24.88 49.42Q24.87 49.38 24.85 49.32L24.85 49.32Q24.84 49.25 24.78 49.21Q24.71 49.17 24.55 49.17L24.55 49.17L24.23 49.17Q24.15 49.17 24.12 49.19Q24.08 49.21 24.07 49.29Q24.06 49.36 24.06 49.54L24.06 49.54L24.06 50.82Q24.06 50.94 24.13 51.00Q24.20 51.05 24.32 51.08L24.32 51.08Q24.38 51.09 24.40 51.10Q24.43 51.11 24.43 51.13L24.43 51.13Q24.43 51.15 24.40 51.16Q24.38 51.17 24.33 51.17L24.33 51.17Q24.25 51.17 24.19 51.16Q24.13 51.16 24.08 51.16Q24.03 51.15 23.95 51.15L23.95 51.15Q23.87 51.15 23.81 51.16Q23.75 51.16 23.69 51.16Q23.62 51.17 23.54 51.17ZM25.15 51.16L25.15 51.16Q25.08 51.16 25.08 51.13L25.08 51.13Q25.08 51.10 25.16 51.08L25.16 51.08Q25.20 51.06 25.25 51.03Q25.29 51.01 25.30 50.94L25.30 50.94L25.30 49.31Q25.30 49.22 25.27 49.16Q25.24 49.09 25.15 49.08L25.15 49.08Q25.12 49.07 25.12 49.03L25.12 49.03Q25.12 49.00 25.15 48.99L25.15 48.99Q25.20 48.98 25.26 48.96Q25.32 48.94 25.39 48.91Q25.46 48.89 25.51 48.87L25.51 48.87Q25.52 48.86 25.53 48.86L25.53 48.86Q25.54 48.86 25.55 48.87Q25.55 48.87 25.55 48.88L25.55 48.88Q25.55 48.90 25.54 48.94Q25.54 48.97 25.53 49.06Q25.52 49.15 25.52 49.32L25.52 49.32L25.52 49.89Q25.52 49.94 25.53 49.97Q25.53 49.99 25.55 50.01L25.55 50.01Q25.60 49.97 25.68 49.93Q25.75 49.88 25.85 49.84Q25.94 49.81 26.04 49.81L26.04 49.81Q26.20 49.81 26.31 49.93Q26.41 50.06 26.41 50.25L26.41 50.25L26.41 50.93Q26.41 51.00 26.45 51.03Q26.50 51.06 26.55 51.08L26.55 51.08Q26.58 51.09 26.60 51.10Q26.62 51.11 26.62 51.13L26.62 51.13Q26.62 51.16 26.56 51.16L26.56 51.16Q26.49 51.16 26.46 51.16Q26.42 51.15 26.39 51.15Q26.36 51.15 26.30 51.15L26.30 51.15Q26.25 51.15 26.21 51.15Q26.18 51.15 26.15 51.16Q26.11 51.16 26.05 51.16L26.05 51.16Q25.98 51.16 25.98 51.13L25.98 51.13Q25.98 51.10 26.00 51.10Q26.02 51.09 26.06 51.08L26.06 51.08Q26.11 51.06 26.15 51.03Q26.18 51.00 26.18 50.93L26.18 50.93L26.18 50.27Q26.18 50.19 26.14 50.12Q26.09 50.05 26.02 50.01Q25.95 49.98 25.88 49.98L25.88 49.98Q25.82 49.98 25.74 49.99Q25.66 50.01 25.61 50.05L25.61 50.05Q25.56 50.09 25.54 50.14Q25.52 50.18 25.52 50.28L25.52 50.28L25.52 50.94Q25.53 51.01 25.56 51.03Q25.60 51.06 25.65 51.08L25.65 51.08Q25.69 51.09 25.70 51.10Q25.72 51.11 25.72 51.13L25.72 51.13Q25.72 51.16 25.66 51.16L25.66 51.16Q25.59 51.16 25.56 51.16Q25.53 51.15 25.50 51.15Q25.47 51.15 25.41 51.15L25.41 51.15Q25.35 51.15 25.32 51.15Q25.29 51.15 25.25 51.16Q25.21 51.16 25.15 51.16ZM28.44 51.21L28.44 51.21Q28.43 51.21 28.42 51.18Q28.40 51.15 28.39 51.11L28.39 51.11L27.69 49.35Q27.65 49.27 27.59 49.21Q27.54 49.16 27.45 49.14L27.45 49.14Q27.40 49.12 27.37 49.10Q27.35 49.09 27.35 49.06L27.35 49.06Q27.35 49.05 27.37 49.04Q27.40 49.03 27.44 49.03L27.44 49.03Q27.52 49.03 27.58 49.03Q27.65 49.04 27.73 49.04L27.73 49.04Q27.82 49.04 27.90 49.04Q27.98 49.03 28.03 49.03L28.03 49.03Q28.07 49.03 28.10 49.04Q28.13 49.05 28.13 49.07L28.13 49.07Q28.13 49.09 28.10 49.10Q28.07 49.12 28.02 49.13L28.02 49.13Q27.98 49.14 27.97 49.17Q27.95 49.20 27.95 49.24L27.95 49.24Q27.95 49.29 27.97 49.34Q27.98 49.38 27.98 49.38L27.98 49.38Q28.06 49.57 28.12 49.73Q28.18 49.88 28.24 50.03Q28.30 50.17 28.37 50.32Q28.43 50.47 28.51 50.66L28.51 50.66Q28.53 50.69 28.54 50.69Q28.55 50.69 28.56 50.66L28.56 50.66L28.82 50.03Q28.83 50.01 28.83 49.99Q28.84 49.97 28.84 49.96L28.84 49.96Q28.84 49.94 28.83 49.92Q28.82 49.90 28.81 49.86L28.81 49.86L28.62 49.40Q28.58 49.30 28.49 49.23Q28.40 49.16 28.32 49.14L28.32 49.14Q28.26 49.12 28.24 49.10Q28.21 49.09 28.21 49.06L28.21 49.06Q28.21 49.05 28.23 49.04Q28.26 49.03 28.30 49.03L28.30 49.03Q28.35 49.03 28.40 49.03Q28.45 49.04 28.50 49.04Q28.55 49.04 28.61 49.04L28.61 49.04Q28.68 49.04 28.75 49.04Q28.81 49.03 28.86 49.03L28.86 49.03Q28.90 49.03 28.93 49.04Q28.95 49.05 28.95 49.07L28.95 49.07Q28.95 49.09 28.92 49.11Q28.89 49.13 28.85 49.15Q28.82 49.17 28.82 49.20L28.82 49.20Q28.82 49.21 28.82 49.22Q28.82 49.22 28.83 49.23L28.83 49.23Q28.83 49.24 28.85 49.29Q28.87 49.34 28.89 49.41Q28.92 49.47 28.94 49.52Q28.96 49.58 28.97 49.60L28.97 49.60Q28.99 49.64 29.00 49.64Q29.01 49.64 29.03 49.60L29.03 49.60Q29.06 49.54 29.09 49.46Q29.11 49.39 29.13 49.32Q29.16 49.26 29.16 49.23L29.16 49.23Q29.16 49.22 29.16 49.21L29.16 49.21Q29.16 49.17 29.14 49.15Q29.11 49.13 29.08 49.11Q29.04 49.09 29.04 49.07L29.04 49.07Q29.04 49.05 29.07 49.04Q29.10 49.03 29.14 49.03L29.14 49.03Q29.21 49.03 29.24 49.04Q29.26 49.04 29.31 49.04L29.31 49.04Q29.36 49.04 29.40 49.03Q29.44 49.03 29.50 49.03L29.50 49.03Q29.54 49.03 29.57 49.04Q29.59 49.05 29.59 49.06L29.59 49.06Q29.59 49.09 29.57 49.10Q29.54 49.12 29.49 49.13L29.49 49.13Q29.38 49.15 29.35 49.18Q29.31 49.22 29.27 49.29L29.27 49.29Q29.25 49.32 29.22 49.38Q29.19 49.45 29.15 49.53Q29.12 49.61 29.09 49.69L29.09 49.69Q29.08 49.71 29.08 49.75Q29.07 49.79 29.07 49.81L29.07 49.81L29.41 50.67Q29.42 50.69 29.43 50.68Q29.43 50.68 29.44 50.65L29.44 50.65Q29.53 50.44 29.63 50.10Q29.73 49.77 29.84 49.39L29.84 49.39Q29.85 49.36 29.86 49.33Q29.86 49.30 29.86 49.28L29.86 49.28Q29.86 49.23 29.84 49.19Q29.82 49.15 29.76 49.14L29.76 49.14Q29.73 49.13 29.69 49.11Q29.66 49.09 29.66 49.07L29.66 49.07Q29.66 49.05 29.68 49.04Q29.71 49.04 29.75 49.04L29.75 49.04Q29.82 49.04 29.87 49.04Q29.92 49.04 29.98 49.04L29.98 49.04Q30.07 49.04 30.14 49.03Q30.22 49.03 30.28 49.03L30.28 49.03Q30.32 49.03 30.35 49.04Q30.37 49.05 30.37 49.06L30.37 49.06Q30.37 49.09 30.35 49.10Q30.32 49.12 30.26 49.13L30.26 49.13Q30.19 49.15 30.13 49.20Q30.08 49.25 30.05 49.31Q30.02 49.37 30.00 49.42L30.00 49.42L29.42 51.12Q29.42 51.13 29.40 51.16Q29.39 51.19 29.37 51.19L29.37 51.19Q29.36 51.19 29.34 51.17Q29.32 51.15 29.31 51.13L29.31 51.13Q29.23 50.94 29.17 50.78Q29.11 50.63 29.05 50.47Q28.99 50.31 28.91 50.13L28.91 50.13Q28.90 50.10 28.90 50.11Q28.89 50.11 28.88 50.14L28.88 50.14Q28.80 50.33 28.74 50.47Q28.69 50.62 28.63 50.76Q28.58 50.91 28.51 51.10L28.51 51.10Q28.49 51.14 28.47 51.17Q28.46 51.21 28.44 51.21ZM31.02 51.20L31.02 51.20Q30.84 51.20 30.71 51.11Q30.57 51.03 30.50 50.87Q30.42 50.70 30.42 50.49L30.42 50.49Q30.42 50.30 30.51 50.15Q30.60 50.00 30.74 49.90Q30.88 49.81 31.05 49.81L31.05 49.81Q31.18 49.81 31.28 49.86Q31.38 49.91 31.44 50.00Q31.50 50.10 31.50 50.22L31.50 50.22Q31.50 50.32 31.40 50.32L31.40 50.32L30.71 50.32Q30.67 50.32 30.65 50.34Q30.63 50.37 30.63 50.44L30.63 50.44Q30.63 50.59 30.70 50.72Q30.77 50.85 30.88 50.93Q31.00 51.00 31.13 51.00L31.13 51.00Q31.23 51.00 31.31 50.97Q31.39 50.93 31.45 50.86L31.45 50.86Q31.47 50.84 31.47 50.84Q31.48 50.83 31.49 50.83L31.49 50.83Q31.51 50.83 31.51 50.86L31.51 50.86Q31.51 50.93 31.46 51.00L31.46 51.00Q31.41 51.06 31.34 51.11Q31.27 51.15 31.19 51.18Q31.11 51.20 31.02 51.20ZM30.72 50.22L30.72 50.22L31.02 50.22Q31.09 50.22 31.15 50.21Q31.20 50.21 31.26 50.20L31.26 50.20Q31.27 50.20 31.28 50.18Q31.28 50.16 31.28 50.13L31.28 50.13Q31.28 50.03 31.20 49.97Q31.12 49.90 31.00 49.90L31.00 49.90Q30.93 49.90 30.85 49.94Q30.78 49.99 30.73 50.05Q30.68 50.12 30.68 50.18L30.68 50.18Q30.68 50.22 30.72 50.22ZM31.98 51.20L31.98 51.20Q31.92 51.20 31.86 51.15Q31.80 51.11 31.76 51.04Q31.72 50.98 31.72 50.92L31.72 50.92Q31.72 50.82 31.77 50.76Q31.83 50.70 31.95 50.65L31.95 50.65L32.28 50.51Q32.34 50.49 32.36 50.47Q32.37 50.45 32.37 50.38L32.37 50.38L32.38 50.17Q32.38 50.09 32.33 50.03Q32.28 49.97 32.18 49.97L32.18 49.97Q32.14 49.97 32.09 49.98Q32.04 50.00 32.01 50.02L32.01 50.02Q31.99 50.04 31.98 50.06Q31.97 50.09 31.97 50.12L31.97 50.12Q31.97 50.13 31.97 50.15Q31.98 50.16 31.98 50.18L31.98 50.18Q31.98 50.19 31.94 50.22Q31.89 50.25 31.84 50.27Q31.79 50.29 31.76 50.29L31.76 50.29Q31.74 50.29 31.74 50.28Q31.73 50.27 31.73 50.26L31.73 50.26Q31.73 50.21 31.76 50.15Q31.79 50.09 31.86 50.04L31.86 50.04Q31.93 49.97 32.02 49.92Q32.11 49.86 32.19 49.84Q32.28 49.81 32.34 49.81L32.34 49.81Q32.46 49.81 32.53 49.89Q32.61 49.97 32.61 50.10L32.61 50.10L32.59 50.88Q32.59 50.95 32.62 50.99Q32.66 51.03 32.71 51.03L32.71 51.03Q32.79 51.03 32.83 50.99L32.83 50.99Q32.84 50.98 32.85 50.98L32.85 50.98Q32.87 50.98 32.88 50.99Q32.89 51.00 32.89 51.01L32.89 51.01Q32.89 51.05 32.85 51.09L32.85 51.09Q32.80 51.14 32.74 51.17Q32.68 51.20 32.63 51.20L32.63 51.20Q32.48 51.20 32.39 51.03L32.39 51.03L32.38 51.03Q32.28 51.12 32.18 51.16Q32.08 51.20 31.98 51.20ZM32.13 51.04L32.13 51.04Q32.19 51.04 32.24 51.02Q32.29 51.00 32.32 50.96L32.32 50.96Q32.34 50.95 32.35 50.92Q32.36 50.89 32.36 50.83L32.36 50.83L32.37 50.67Q32.37 50.64 32.37 50.62Q32.36 50.60 32.34 50.60L32.34 50.60Q32.33 50.60 32.32 50.61Q32.30 50.61 32.28 50.62L32.28 50.62Q32.10 50.68 32.04 50.75Q31.97 50.82 31.97 50.87L31.97 50.87Q31.97 50.95 32.02 51.00Q32.07 51.04 32.13 51.04Z"/><path d="M33.46 48.49L33.46 48.49Q33.35 48.49 33.28 48.42Q33.21 48.34 33.21 48.24L33.21 48.24Q33.21 48.13 33.28 48.06Q33.35 47.99 33.46 47.99L33.46 47.99Q33.57 47.99 33.64 48.06Q33.72 48.13 33.72 48.24L33.72 48.24Q33.72 48.34 33.64 48.42Q33.57 48.49 33.46 48.49ZM33.61 49.15L33.65 49.15L33.64 49.49L33.64 50.82L33.97 50.92L33.97 51.00L33.00 51.00L33.00 50.92L33.33 50.82L33.33 49.54Q33.30 49.52 33.25 49.49Q33.20 49.45 33.14 49.42Q33.08 49.39 33.01 49.38L33.01 49.38L33.01 49.31L33.61 49.15ZM35.24 50.80L35.24 48.28L35.57 48.28L35.57 50.80L35.91 50.92L35.91 51.00L34.90 51.00L34.90 50.92L35.24 50.80ZM36.31 48.31L36.50 48.35L34.31 48.35L34.50 48.31L34.22 48.92L34.12 48.90L34.20 48.01L34.24 48.01L34.54 48.19L34.36 48.15L36.45 48.15L36.27 48.19L36.57 48.01L36.61 48.01L36.69 48.90L36.59 48.92L36.31 48.31ZM38.06 51.00L38.06 50.92L38.39 50.82L38.39 49.81Q38.39 49.70 38.34 49.61Q38.29 49.53 38.20 49.49Q38.10 49.44 37.96 49.44L37.96 49.44Q37.80 49.44 37.65 49.50Q37.51 49.56 37.45 49.65L37.45 49.65L37.37 49.58Q37.48 49.46 37.58 49.38Q37.69 49.30 37.78 49.24Q37.88 49.19 37.98 49.17Q38.08 49.15 38.19 49.15L38.19 49.15Q38.45 49.15 38.58 49.31Q38.70 49.48 38.70 49.83L38.70 49.83L38.70 50.82L39.03 50.92L39.03 51.00L38.06 51.00ZM37.80 50.92L37.80 51.00L36.84 51.00L36.84 50.92L37.17 50.82L37.17 48.41Q37.14 48.38 37.09 48.34Q37.05 48.31 36.98 48.28Q36.92 48.24 36.84 48.21L36.84 48.21L36.84 48.16L37.45 47.99L37.50 47.99L37.48 48.32L37.48 50.82L37.80 50.92ZM41.93 48.56L42.07 48.49L41.08 51.04L40.98 51.04L40.30 48.35L39.99 48.24L39.99 48.15L41.02 48.15L41.02 48.24L40.65 48.35L41.19 50.52L41.10 50.52L42.01 48.11L42.12 48.11L43.12 50.61L42.95 50.68L43.47 48.35L43.11 48.24L43.11 48.15L43.98 48.15L43.98 48.24L43.67 48.35L43.03 51.04L42.93 51.04L41.93 48.56ZM44.98 49.15L44.98 49.15Q45.19 49.15 45.34 49.24Q45.49 49.33 45.58 49.50Q45.67 49.68 45.69 49.93L45.69 49.93L44.39 49.93L44.40 49.79L45.49 49.74L45.34 49.83Q45.33 49.68 45.28 49.56Q45.24 49.44 45.16 49.38Q45.08 49.31 44.95 49.31L44.95 49.31Q44.80 49.31 44.69 49.40Q44.58 49.48 44.51 49.63Q44.45 49.79 44.45 50.02L44.45 50.02Q44.45 50.25 44.54 50.43Q44.64 50.60 44.80 50.69Q44.97 50.79 45.19 50.79L45.19 50.79Q45.27 50.79 45.35 50.76Q45.42 50.74 45.50 50.70Q45.58 50.66 45.65 50.60L45.65 50.60L45.70 50.65Q45.60 50.79 45.49 50.87Q45.38 50.96 45.25 51.00Q45.13 51.04 44.99 51.04L44.99 51.04Q44.74 51.04 44.55 50.92Q44.36 50.80 44.25 50.59Q44.14 50.38 44.14 50.12L44.14 50.12Q44.14 49.85 44.24 49.63Q44.34 49.41 44.53 49.28Q44.72 49.15 44.98 49.15ZM47.12 49.85L47.12 49.85L47.15 49.99Q46.90 50.05 46.74 50.11Q46.59 50.17 46.50 50.23Q46.41 50.29 46.37 50.36Q46.34 50.43 46.34 50.51L46.34 50.51Q46.34 50.66 46.42 50.73Q46.51 50.81 46.63 50.81L46.63 50.81Q46.73 50.81 46.81 50.76Q46.90 50.71 46.95 50.62Q47.00 50.54 47.00 50.45L47.00 50.45L47.00 49.68Q47.00 49.53 46.92 49.44Q46.84 49.35 46.66 49.35L46.66 49.35Q46.60 49.35 46.51 49.37Q46.43 49.39 46.35 49.43L46.35 49.43L46.46 49.33Q46.45 49.39 46.44 49.45Q46.43 49.51 46.41 49.55Q46.40 49.60 46.38 49.63L46.38 49.63Q46.34 49.66 46.29 49.68Q46.24 49.70 46.19 49.70L46.19 49.70Q46.12 49.70 46.08 49.67Q46.05 49.63 46.05 49.59L46.05 49.59Q46.05 49.52 46.11 49.45Q46.18 49.38 46.28 49.31Q46.39 49.25 46.52 49.21Q46.65 49.17 46.79 49.17L46.79 49.17Q46.97 49.17 47.09 49.22Q47.20 49.28 47.26 49.39Q47.31 49.50 47.31 49.66L47.31 49.66L47.31 50.63Q47.31 50.69 47.33 50.74Q47.35 50.78 47.38 50.80Q47.42 50.82 47.47 50.82L47.47 50.82Q47.52 50.82 47.58 50.80Q47.64 50.79 47.69 50.75L47.69 50.75L47.69 50.85Q47.60 50.95 47.51 50.99Q47.41 51.04 47.33 51.04L47.33 51.04Q47.22 51.04 47.15 50.99Q47.08 50.94 47.04 50.86Q47.00 50.77 47.00 50.66L47.00 50.66L47.01 50.63Q46.99 50.75 46.91 50.84Q46.84 50.94 46.73 50.99Q46.63 51.04 46.51 51.04L46.51 51.04Q46.29 51.04 46.16 50.92Q46.02 50.80 46.02 50.58L46.02 50.58Q46.02 50.46 46.07 50.36Q46.11 50.27 46.23 50.18Q46.36 50.09 46.57 50.01Q46.79 49.93 47.12 49.85Z"/><path d="M48.92 48.92L49.71 48.92L49.71 48.98L49.46 48.98L49.46 50.96L49.71 50.96L49.71 51.01L48.92 51.01L48.92 50.96L49.20 50.96L49.20 50.01L48.28 50.01L48.28 50.96L48.56 50.96L48.56 51.01L47.76 51.01L47.76 50.96L48.01 50.96L48.01 48.98L47.76 48.98L47.76 48.92L48.56 48.92L48.56 48.98L48.28 48.98L48.28 49.95L49.20 49.95L49.20 48.98L48.92 48.98L48.92 48.92ZM50.22 49.24L50.22 49.24Q50.15 49.24 50.10 49.19Q50.05 49.14 50.05 49.07L50.05 49.07Q50.05 49.00 50.10 48.95Q50.15 48.90 50.22 48.90L50.22 48.90Q50.29 48.90 50.34 48.95Q50.39 49.00 50.39 49.07L50.39 49.07Q50.39 49.14 50.34 49.19Q50.29 49.24 50.22 49.24ZM49.91 49.73L50.35 49.73L50.35 50.96L50.53 50.96L50.53 51.01L49.91 51.01L49.91 50.96L50.09 50.96L50.09 49.78L49.91 49.78L49.91 49.73ZM51.67 51.04L51.61 51.04L50.97 48.98L50.71 48.98L50.71 48.92L52.69 48.92L52.69 48.98L52.01 48.98L52.52 50.62L53.09 48.98L52.83 48.98L52.83 48.92L53.37 48.92L53.37 48.98L53.15 48.98L52.43 51.04L52.37 51.04L51.73 48.98L51.25 48.98L51.76 50.62L52.05 49.81L52.08 49.91L51.67 51.04ZM52.45 48.96L52.21 49.69L52.16 49.65L52.40 48.94L52.45 48.96ZM54.21 51.04L54.21 51.04Q54.04 51.04 53.89 50.96Q53.75 50.88 53.67 50.73Q53.58 50.58 53.58 50.37L53.58 50.37Q53.58 50.16 53.66 50.01Q53.74 49.86 53.88 49.78Q54.02 49.70 54.20 49.70L54.20 49.70Q54.40 49.70 54.52 49.78Q54.64 49.86 54.69 49.99Q54.75 50.12 54.75 50.28L54.75 50.28L53.77 50.28L53.77 50.22L54.45 50.22Q54.45 50.15 54.44 50.07Q54.44 49.99 54.41 49.92Q54.39 49.85 54.34 49.80Q54.29 49.75 54.20 49.75L54.20 49.75Q54.10 49.75 54.03 49.81Q53.97 49.86 53.93 49.94Q53.90 50.03 53.88 50.14Q53.87 50.25 53.87 50.37L53.87 50.37Q53.87 50.49 53.88 50.60Q53.90 50.71 53.94 50.79Q53.98 50.88 54.05 50.93Q54.12 50.98 54.23 50.98L54.23 50.98Q54.42 50.98 54.53 50.88Q54.65 50.79 54.71 50.65L54.71 50.65L54.77 50.65Q54.71 50.81 54.58 50.93Q54.44 51.04 54.21 51.04ZM56.07 51.04L56.07 51.04Q56.00 51.04 55.95 51.01Q55.89 50.99 55.86 50.94Q55.83 50.88 55.83 50.79L55.83 50.79L55.83 50.16Q55.83 50.06 55.81 49.97Q55.79 49.88 55.74 49.82Q55.69 49.76 55.58 49.76L55.58 49.76Q55.51 49.76 55.45 49.77Q55.38 49.79 55.32 49.82Q55.26 49.85 55.23 49.89Q55.19 49.93 55.19 49.99L55.19 49.99L55.12 49.99Q55.12 49.92 55.17 49.88Q55.22 49.84 55.27 49.84L55.27 49.84Q55.33 49.84 55.38 49.88Q55.43 49.91 55.43 49.98L55.43 49.98Q55.43 50.07 55.38 50.11Q55.33 50.14 55.27 50.14L55.27 50.14Q55.21 50.14 55.17 50.10Q55.12 50.07 55.12 49.99L55.12 49.99Q55.12 49.92 55.16 49.87Q55.21 49.82 55.28 49.78Q55.35 49.75 55.44 49.73Q55.53 49.71 55.62 49.71L55.62 49.71Q55.82 49.71 55.91 49.77Q56.01 49.84 56.04 49.94Q56.07 50.05 56.07 50.16L56.07 50.16L56.07 50.85Q56.07 50.89 56.09 50.92Q56.10 50.96 56.15 50.96L56.15 50.96Q56.19 50.96 56.23 50.93Q56.28 50.90 56.30 50.85L56.30 50.85L56.33 50.90Q56.29 50.96 56.23 51.00Q56.16 51.04 56.07 51.04ZM55.42 51.04L55.42 51.04Q55.24 51.04 55.13 50.94Q55.02 50.85 55.02 50.69L55.02 50.69Q55.02 50.51 55.18 50.40Q55.34 50.29 55.64 50.29L55.64 50.29L55.96 50.29L55.96 50.34L55.64 50.34Q55.52 50.34 55.44 50.39Q55.37 50.44 55.33 50.52Q55.30 50.60 55.30 50.67L55.30 50.67Q55.30 50.74 55.32 50.81Q55.34 50.87 55.39 50.91Q55.43 50.96 55.51 50.96L55.51 50.96Q55.58 50.96 55.66 50.90Q55.73 50.85 55.78 50.75Q55.83 50.65 55.83 50.50L55.83 50.50L55.86 50.50Q55.86 50.66 55.81 50.78Q55.76 50.90 55.66 50.97Q55.56 51.04 55.42 51.04ZM56.53 51.04L56.48 51.04L56.48 50.63L56.54 50.63Q56.55 50.73 56.61 50.81Q56.67 50.88 56.76 50.93Q56.85 50.98 56.96 50.98L56.96 50.98Q57.03 50.98 57.10 50.95Q57.17 50.93 57.22 50.88Q57.26 50.83 57.26 50.74L57.26 50.74Q57.26 50.66 57.21 50.60Q57.15 50.55 57.07 50.52Q56.98 50.49 56.89 50.46Q56.80 50.42 56.71 50.38Q56.63 50.34 56.57 50.26Q56.52 50.19 56.52 50.07L56.52 50.07Q56.52 49.98 56.56 49.89Q56.60 49.81 56.69 49.76Q56.77 49.70 56.90 49.70L56.90 49.70Q57.00 49.70 57.08 49.73Q57.15 49.77 57.21 49.82L57.21 49.82L57.32 49.70L57.37 49.70L57.37 50.09L57.31 50.09Q57.30 50.01 57.25 49.93Q57.20 49.86 57.11 49.81Q57.02 49.76 56.90 49.76L56.90 49.76Q56.84 49.76 56.78 49.78Q56.73 49.81 56.69 49.85Q56.66 49.89 56.66 49.95L56.66 49.95Q56.66 50.03 56.72 50.08Q56.77 50.13 56.86 50.16Q56.95 50.19 57.05 50.23Q57.15 50.26 57.24 50.31Q57.32 50.36 57.38 50.43Q57.44 50.51 57.44 50.62L57.44 50.62Q57.44 50.75 57.38 50.84Q57.31 50.93 57.21 50.99Q57.11 51.04 56.98 51.04L56.98 51.04Q56.88 51.04 56.80 51.00Q56.71 50.97 56.64 50.91L56.64 50.91L56.53 51.04Z"/><path d="M57.66 49.05L57.66 48.72L58.98 48.72L58.98 49.05L58.74 49.05L59.08 50.12Q59.13 50.29 59.17 50.51L59.17 50.51Q59.21 50.29 59.26 50.12L59.26 50.12L59.61 49.05L59.23 49.05L59.23 48.72L60.56 48.72L60.56 49.05L60.27 49.05L60.61 50.12Q60.66 50.29 60.70 50.51L60.70 50.51Q60.75 50.29 60.80 50.12L60.80 50.12L61.14 49.05L60.81 49.05L60.81 48.72L61.84 48.72L61.84 49.05L61.55 49.05L60.72 51.29L60.32 51.29L59.82 49.97Q59.77 49.82 59.75 49.72L59.75 49.72Q59.74 49.82 59.68 49.97L59.68 49.97L59.18 51.29L58.78 51.29L57.95 49.05L57.66 49.05ZM62.86 49.01L62.86 49.01Q62.86 48.87 62.96 48.78Q63.05 48.68 63.19 48.68L63.19 48.68Q63.24 48.68 63.29 48.70L63.29 48.70Q63.36 48.72 63.41 48.75Q63.45 48.78 63.48 48.82Q63.51 48.86 63.53 48.91Q63.55 48.96 63.56 49.01Q63.57 49.06 63.57 49.12L63.57 49.12Q63.57 49.18 63.54 49.25Q63.52 49.32 63.47 49.38Q63.43 49.45 63.39 49.50Q63.34 49.55 63.29 49.59L63.29 49.59Q63.44 49.74 63.44 49.97L63.44 49.97Q63.44 50.13 63.37 50.26Q63.30 50.39 63.17 50.47Q63.04 50.55 62.88 50.59Q62.72 50.63 62.53 50.63L62.53 50.63Q62.37 50.63 62.23 50.59L62.23 50.59Q62.13 50.61 62.08 50.65Q62.03 50.68 62.03 50.71L62.03 50.71Q62.03 50.74 62.06 50.77Q62.08 50.80 62.11 50.80L62.11 50.80L62.69 50.80Q63.13 50.80 63.33 50.92Q63.52 51.05 63.52 51.33L63.52 51.33Q63.52 51.47 63.49 51.59Q63.46 51.70 63.40 51.78Q63.34 51.86 63.25 51.92Q63.17 51.98 63.07 52.02Q62.98 52.06 62.86 52.08Q62.75 52.10 62.64 52.11Q62.53 52.12 62.40 52.12L62.40 52.12Q62.21 52.12 62.05 52.08Q61.89 52.04 61.79 51.96Q61.69 51.89 61.63 51.79Q61.58 51.69 61.58 51.58L61.58 51.58Q61.58 51.36 61.83 51.23L61.83 51.23Q61.73 51.18 61.67 51.09Q61.62 51.00 61.62 50.88L61.62 50.88Q61.62 50.74 61.70 50.62Q61.78 50.51 61.92 50.46L61.92 50.46Q61.79 50.37 61.73 50.25Q61.66 50.13 61.66 49.97L61.66 49.97Q61.66 49.83 61.71 49.73Q61.75 49.62 61.83 49.55Q61.91 49.48 62.03 49.44Q62.14 49.39 62.26 49.37Q62.39 49.35 62.53 49.35L62.53 49.35Q62.86 49.35 63.09 49.46L63.09 49.46Q63.14 49.40 63.17 49.34L63.17 49.34Q63.04 49.34 62.95 49.24Q62.86 49.14 62.86 49.01ZM62.55 49.68L62.55 49.68Q62.40 49.68 62.32 49.76Q62.24 49.84 62.24 50.00L62.24 50.00Q62.24 50.16 62.32 50.25Q62.40 50.34 62.55 50.34L62.55 50.34Q62.69 50.34 62.78 50.25Q62.86 50.16 62.86 50.00L62.86 50.00Q62.86 49.85 62.78 49.76Q62.69 49.68 62.55 49.68ZM62.82 51.29L62.23 51.29Q62.11 51.38 62.11 51.50L62.11 51.50Q62.11 51.62 62.19 51.67Q62.27 51.71 62.49 51.71L62.49 51.71Q62.98 51.71 62.98 51.46L62.98 51.46Q62.98 51.40 62.93 51.34Q62.88 51.29 62.82 51.29L62.82 51.29ZM65.08 49.34L65.08 49.34Q65.22 49.34 65.33 49.38Q65.44 49.42 65.51 49.49Q65.58 49.56 65.62 49.67Q65.67 49.77 65.68 49.90Q65.70 50.02 65.70 50.17L65.70 50.17L65.70 50.96L65.91 50.96L65.91 51.29L64.91 51.29L64.91 50.96L65.12 50.96L65.12 50.13Q65.12 49.97 65.09 49.88Q65.06 49.79 65.01 49.75Q64.95 49.72 64.85 49.72L64.85 49.72Q64.77 49.72 64.68 49.79Q64.59 49.86 64.50 50.00L64.50 50.00L64.50 50.96L64.71 50.96L64.71 51.29L63.71 51.29L63.71 50.96L63.92 50.96L63.92 49.72L63.71 49.72L63.71 49.39L64.35 49.39L64.50 49.67Q64.54 49.60 64.59 49.54Q64.64 49.49 64.71 49.44Q64.78 49.39 64.87 49.37Q64.97 49.34 65.08 49.34ZM65.92 51.93L65.92 51.93Q65.87 51.85 65.87 51.75L65.87 51.75Q65.87 51.61 65.96 51.51Q66.06 51.42 66.20 51.42Q66.34 51.42 66.43 51.51Q66.53 51.61 66.53 51.75L66.53 51.75Q66.53 51.78 66.52 51.80L66.52 51.80Q66.53 51.81 66.53 51.81L66.53 51.81Q66.61 51.81 66.71 51.56L66.71 51.56L66.79 51.38L66.06 49.72L65.87 49.72L65.87 49.39L67.03 49.39L67.03 49.72L66.69 49.72L67.01 50.46Q67.08 50.61 67.11 50.71L67.11 50.71Q67.13 50.61 67.20 50.46L67.20 50.46L67.52 49.72L67.23 49.72L67.23 49.39L68.10 49.39L68.10 49.72L67.88 49.72L67.19 51.29Q67.14 51.42 67.10 51.50Q67.05 51.59 67.00 51.68Q66.95 51.78 66.90 51.84Q66.85 51.90 66.78 51.96Q66.72 52.02 66.65 52.05Q66.59 52.08 66.50 52.10Q66.42 52.12 66.33 52.12L66.33 52.12Q66.24 52.12 66.17 52.11Q66.11 52.09 66.06 52.07Q66.01 52.04 65.98 52.01Q65.95 51.98 65.92 51.93ZM68.41 49.16Q68.31 49.07 68.31 48.93Q68.31 48.79 68.41 48.70Q68.51 48.60 68.64 48.60Q68.78 48.60 68.88 48.70Q68.98 48.79 68.98 48.93Q68.98 49.07 68.88 49.16Q68.78 49.26 68.64 49.26Q68.51 49.26 68.41 49.16ZM68.15 49.72L68.15 49.39L68.93 49.39L68.93 50.96L69.14 50.96L69.14 51.29L68.15 51.29L68.15 50.96L68.35 50.96L68.35 49.72L68.15 49.72Z"/><path d="M70.74 50.82Q70.74 50.88 70.75 50.92Q70.77 50.96 70.81 51.00Q70.85 51.03 70.94 51.04L70.94 51.04L70.80 51.32Q70.67 51.30 70.59 51.24Q70.52 51.18 70.49 51.08L70.49 51.08Q70.34 51.32 69.95 51.32L69.95 51.32Q69.75 51.32 69.62 51.24Q69.49 51.17 69.44 51.07Q69.39 50.96 69.39 50.87L69.39 50.87Q69.39 50.71 69.48 50.58Q69.58 50.45 69.78 50.40L69.78 50.40Q69.88 50.38 70.00 50.37Q70.12 50.36 70.15 50.35L70.15 50.35Q70.34 50.34 70.45 50.32L70.45 50.32Q70.44 50.16 70.37 50.07Q70.30 49.97 70.12 49.97L70.12 49.97Q70.00 49.97 69.89 50.02Q69.78 50.08 69.74 50.23L69.74 50.23L69.44 50.14Q69.50 49.95 69.67 49.83Q69.84 49.71 70.12 49.71L70.12 49.71Q70.37 49.71 70.54 49.84Q70.72 49.97 70.73 50.22L70.73 50.22Q70.73 50.33 70.74 50.53Q70.74 50.73 70.74 50.82L70.74 50.82ZM70.45 50.57L70.45 50.57L70.45 50.57L70.45 50.57ZM70.00 51.06Q70.09 51.06 70.19 51.02Q70.29 50.98 70.37 50.87Q70.44 50.75 70.44 50.57L70.44 50.57Q70.39 50.57 70.26 50.59L70.26 50.59Q70.08 50.60 69.96 50.62Q69.84 50.65 69.75 50.70Q69.67 50.76 69.67 50.86L69.67 50.86Q69.67 50.98 69.77 51.02Q69.88 51.06 70.00 51.06L70.00 51.06ZM73.23 50.13L73.23 51.28L72.94 51.28L72.94 51.00Q72.70 51.31 72.24 51.31L72.24 51.31Q71.91 51.31 71.67 51.17Q71.43 51.03 71.30 50.78Q71.18 50.52 71.18 50.21L71.18 50.21Q71.18 49.89 71.30 49.63Q71.43 49.38 71.67 49.24Q71.91 49.09 72.24 49.09L72.24 49.09Q72.58 49.09 72.82 49.24Q73.06 49.38 73.19 49.64L73.19 49.64L72.84 49.74Q72.65 49.38 72.24 49.38L72.24 49.38Q72.00 49.38 71.84 49.50Q71.68 49.61 71.61 49.80Q71.54 49.99 71.54 50.21L71.54 50.21Q71.54 50.43 71.61 50.61Q71.68 50.79 71.84 50.91Q72.00 51.02 72.24 51.02L72.24 51.02Q72.52 51.02 72.70 50.86Q72.88 50.70 72.94 50.45L72.94 50.45L72.94 50.41L72.20 50.41L72.20 50.13L73.23 50.13ZM75.85 51.12L75.65 51.38Q75.55 51.34 75.47 51.28Q75.39 51.22 75.29 51.13L75.29 51.13Q75.04 51.31 74.66 51.31L74.66 51.31Q74.33 51.31 74.09 51.17Q73.85 51.03 73.73 50.77Q73.61 50.52 73.61 50.20L73.61 50.20Q73.61 49.88 73.73 49.63Q73.85 49.38 74.09 49.24Q74.33 49.09 74.66 49.09L74.66 49.09Q74.99 49.09 75.23 49.24Q75.47 49.38 75.59 49.63Q75.72 49.88 75.72 50.20L75.72 50.20Q75.72 50.62 75.51 50.91L75.51 50.91Q75.60 50.99 75.68 51.04Q75.75 51.09 75.85 51.12L75.85 51.12ZM73.95 50.20Q73.95 50.42 74.02 50.61Q74.10 50.79 74.26 50.91Q74.42 51.02 74.66 51.02L74.66 51.02Q74.90 51.02 75.07 50.91L75.07 50.91Q74.94 50.81 74.82 50.79L74.82 50.79L75.01 50.55Q75.14 50.59 75.26 50.68L75.26 50.68Q75.38 50.48 75.38 50.20L75.38 50.20Q75.38 49.99 75.30 49.80Q75.23 49.61 75.07 49.50Q74.90 49.38 74.66 49.38L74.66 49.38Q74.42 49.38 74.26 49.50Q74.10 49.61 74.02 49.80Q73.95 49.99 73.95 50.20L73.95 50.20ZM77.57 50.59L76.40 50.59Q76.42 50.79 76.52 50.92Q76.63 51.05 76.83 51.05L76.83 51.05Q76.98 51.05 77.07 50.99Q77.15 50.92 77.22 50.77L77.22 50.77L77.51 50.87Q77.44 51.06 77.27 51.19Q77.10 51.32 76.83 51.32L76.83 51.32Q76.54 51.32 76.38 51.18Q76.21 51.05 76.15 50.87Q76.09 50.68 76.09 50.51L76.09 50.51Q76.09 50.34 76.15 50.15Q76.21 49.97 76.38 49.84Q76.54 49.70 76.83 49.70L76.83 49.70Q77.11 49.70 77.28 49.84Q77.44 49.97 77.51 50.15Q77.57 50.34 77.57 50.51L77.57 50.51Q77.57 50.56 77.57 50.59L77.57 50.59ZM76.83 49.97Q76.65 49.97 76.55 50.08Q76.44 50.18 76.41 50.34L76.41 50.34L77.25 50.34Q77.21 50.18 77.11 50.08Q77.01 49.97 76.83 49.97L76.83 49.97Z"/><path d="M78.93 51.14L78.93 51.14Q78.41 51.14 78.13 50.84Q77.85 50.54 77.85 50L77.85 50Q77.85 49.66 77.98 49.40Q78.11 49.14 78.35 49.00Q78.59 48.86 78.90 48.86L78.90 48.86Q79.16 48.86 79.35 48.95Q79.55 49.03 79.66 49.20Q79.77 49.36 79.77 49.59L79.77 49.59L79.48 49.59Q79.47 49.41 79.38 49.30Q79.30 49.20 79.17 49.15Q79.04 49.10 78.90 49.10L78.90 49.10Q78.55 49.10 78.36 49.34Q78.16 49.58 78.16 50L78.16 50Q78.16 50.90 78.95 50.90L78.95 50.90Q79.22 50.90 79.43 50.79L79.43 50.79L79.43 50.22L78.89 50.22L78.89 49.99L79.72 49.99L79.72 50.95Q79.34 51.14 78.93 51.14ZM81.14 50.90L81.14 50.90Q81.49 50.90 81.68 50.66Q81.88 50.42 81.88 50L81.88 50Q81.88 49.58 81.68 49.34Q81.49 49.10 81.14 49.10L81.14 49.10Q80.79 49.10 80.59 49.34Q80.39 49.58 80.39 50L80.39 50Q80.39 50.42 80.59 50.66Q80.79 50.90 81.14 50.90ZM81.14 51.14L81.14 51.14Q80.82 51.14 80.59 51.00Q80.35 50.86 80.22 50.60Q80.09 50.34 80.09 50L80.09 50Q80.09 49.66 80.22 49.40Q80.35 49.14 80.59 49.00Q80.82 48.86 81.14 48.86L81.14 48.86Q81.45 48.86 81.69 49.00Q81.93 49.14 82.06 49.40Q82.19 49.66 82.19 50L82.19 50Q82.19 50.29 82.09 50.51Q81.99 50.74 81.80 50.90L81.80 50.90Q81.88 50.90 81.96 50.89Q82.05 50.89 82.16 50.89L82.16 50.89L82.31 50.89L82.31 51.11L82.13 51.11Q81.88 51.11 81.72 51.11Q81.56 51.12 81.46 51.12Q81.36 51.13 81.28 51.14Q81.21 51.14 81.14 51.14ZM83.05 51.14L83.05 51.14Q82.82 51.14 82.67 51.01Q82.53 50.89 82.53 50.68L82.53 50.68Q82.53 50.43 82.77 50.29Q83.02 50.15 83.56 50.08L83.56 50.08L83.56 49.98Q83.56 49.82 83.46 49.73Q83.36 49.65 83.20 49.65L83.20 49.65Q83.02 49.65 82.92 49.74Q82.82 49.82 82.81 49.95L82.81 49.95L82.53 49.95Q82.54 49.80 82.62 49.68Q82.70 49.57 82.85 49.50Q83.00 49.43 83.19 49.43L83.19 49.43Q83.50 49.43 83.66 49.59Q83.83 49.74 83.83 50.03L83.83 50.03L83.83 51.11L83.57 51.11L83.57 50.88Q83.49 51.00 83.36 51.07Q83.22 51.14 83.05 51.14ZM82.81 50.67L82.81 50.67Q82.81 50.79 82.89 50.85Q82.98 50.92 83.12 50.92L83.12 50.92Q83.32 50.92 83.44 50.79Q83.56 50.66 83.56 50.44L83.56 50.44L83.56 50.28Q83.17 50.32 82.99 50.42Q82.81 50.51 82.81 50.67ZM84.98 51.14L84.98 51.14Q84.75 51.14 84.57 51.04Q84.39 50.93 84.30 50.74Q84.20 50.55 84.20 50.29L84.20 50.29Q84.20 50.02 84.30 49.83Q84.39 49.64 84.57 49.53Q84.74 49.43 84.97 49.43L84.97 49.43Q85.30 49.43 85.49 49.64Q85.68 49.85 85.68 50.23L85.68 50.23L85.68 50.34L84.50 50.34Q84.51 50.62 84.63 50.77Q84.76 50.92 84.98 50.92L84.98 50.92Q85.16 50.92 85.26 50.83Q85.36 50.74 85.37 50.57L85.37 50.57L85.66 50.57Q85.65 50.74 85.56 50.86Q85.47 50.99 85.32 51.07Q85.17 51.14 84.98 51.14ZM84.97 49.65L84.97 49.65Q84.78 49.65 84.66 49.77Q84.54 49.89 84.51 50.11L84.51 50.11L85.39 50.11Q85.38 49.90 85.27 49.78Q85.16 49.65 84.97 49.65Z"/><path d="M86.80 51.28L86.80 51.28Q86.57 51.28 86.39 51.17Q86.20 51.07 86.10 50.88Q85.99 50.70 85.99 50.47L85.99 50.47Q85.99 50.24 86.10 50.06Q86.20 49.88 86.38 49.77Q86.56 49.66 86.78 49.66L86.78 49.66Q86.99 49.66 87.15 49.76Q87.31 49.85 87.40 50.01Q87.50 50.18 87.50 50.39L87.50 50.39Q87.50 50.41 87.49 50.44Q87.49 50.47 87.49 50.51L87.49 50.51L86.07 50.51L86.07 50.41L87.42 50.41L87.39 50.43Q87.40 50.24 87.33 50.08Q87.25 49.93 87.11 49.85Q86.97 49.76 86.78 49.76L86.78 49.76Q86.58 49.76 86.43 49.85Q86.27 49.94 86.19 50.10Q86.10 50.25 86.10 50.46L86.10 50.46Q86.10 50.68 86.19 50.84Q86.28 51.00 86.44 51.09Q86.60 51.18 86.82 51.18L86.82 51.18Q86.98 51.18 87.12 51.12Q87.25 51.06 87.35 50.94L87.35 50.94L87.42 51.01Q87.31 51.14 87.15 51.21Q86.99 51.28 86.80 51.28ZM88.99 51.28L88.99 51.28Q88.75 51.28 88.55 51.19Q88.34 51.10 88.19 50.94Q88.04 50.78 87.96 50.56Q87.87 50.35 87.87 50.10L87.87 50.10Q87.87 49.86 87.96 49.64Q88.04 49.43 88.19 49.27Q88.34 49.11 88.54 49.02Q88.75 48.94 88.98 48.94L88.98 48.94Q89.22 48.94 89.43 49.02Q89.63 49.11 89.78 49.27Q89.93 49.43 90.02 49.64Q90.10 49.86 90.10 50.11L90.10 50.11Q90.10 50.35 90.02 50.57Q89.94 50.78 89.78 50.94Q89.63 51.10 89.43 51.19Q89.23 51.28 88.99 51.28ZM90.30 51.35L90.23 51.42L89.04 50.23L89.11 50.16L90.30 51.35ZM88.98 51.18L88.98 51.18Q89.27 51.18 89.50 51.03Q89.72 50.89 89.85 50.65Q89.99 50.41 89.99 50.10L89.99 50.10Q89.99 49.88 89.91 49.68Q89.83 49.49 89.70 49.35Q89.56 49.20 89.38 49.12Q89.20 49.04 88.98 49.04L88.98 49.04Q88.70 49.04 88.47 49.18Q88.25 49.32 88.12 49.56Q87.99 49.80 87.99 50.10L87.99 50.10Q87.99 50.33 88.06 50.53Q88.14 50.72 88.27 50.87Q88.41 51.01 88.59 51.10Q88.77 51.18 88.98 51.18ZM91.34 51.28L91.34 51.28Q91.11 51.28 90.93 51.17Q90.75 51.07 90.64 50.89Q90.54 50.70 90.54 50.48L90.54 50.48Q90.54 50.25 90.64 50.06Q90.75 49.88 90.93 49.77Q91.10 49.66 91.33 49.66L91.33 49.66Q91.51 49.66 91.65 49.73Q91.80 49.79 91.89 49.92Q91.99 50.04 92.02 50.21L92.02 50.21L92.02 50.73Q91.98 50.90 91.89 51.03Q91.79 51.15 91.65 51.21Q91.51 51.28 91.34 51.28ZM91.35 51.18L91.35 51.18Q91.64 51.18 91.81 50.99Q91.98 50.80 91.98 50.48L91.98 50.48Q91.98 50.26 91.90 50.10Q91.83 49.94 91.68 49.85Q91.54 49.76 91.34 49.76L91.34 49.76Q91.14 49.76 90.98 49.85Q90.83 49.95 90.74 50.11Q90.65 50.27 90.65 50.47L90.65 50.47Q90.65 50.68 90.74 50.84Q90.83 51.00 90.99 51.09Q91.15 51.18 91.35 51.18ZM92.09 51.25L91.98 51.25L91.98 50.83L92.01 50.45L91.98 50.07L91.98 49.70L92.09 49.70L92.09 51.25ZM92.64 51.25L92.52 51.25L93.45 48.97L93.55 48.97L94.47 51.25L94.35 51.25L93.47 49.06L93.52 49.06L92.64 51.25ZM94.09 50.50L92.91 50.50L92.91 50.40L94.09 50.40L94.09 50.50ZM95.49 51.28L95.49 51.28Q95.26 51.28 95.08 51.17Q94.90 51.07 94.79 50.89Q94.69 50.70 94.69 50.48L94.69 50.48Q94.69 50.25 94.79 50.06Q94.90 49.88 95.08 49.77Q95.26 49.66 95.48 49.66L95.48 49.66Q95.66 49.66 95.80 49.73Q95.95 49.79 96.04 49.92Q96.14 50.04 96.18 50.21L96.18 50.21L96.18 50.73Q96.14 50.90 96.04 51.03Q95.94 51.15 95.80 51.21Q95.66 51.28 95.49 51.28ZM95.50 51.18L95.50 51.18Q95.79 51.18 95.96 50.99Q96.14 50.80 96.14 50.48L96.14 50.48Q96.14 50.26 96.06 50.10Q95.98 49.94 95.83 49.85Q95.69 49.76 95.50 49.76L95.50 49.76Q95.29 49.76 95.14 49.85Q94.98 49.95 94.89 50.11Q94.80 50.27 94.80 50.47L94.80 50.47Q94.80 50.68 94.89 50.84Q94.98 51.00 95.14 51.09Q95.30 51.18 95.50 51.18ZM96.24 51.91L96.13 51.91L96.13 50.83L96.16 50.45L96.13 50.07L96.13 49.70L96.24 49.70L96.24 51.91ZM97.67 51.25L96.89 51.25L96.89 51.15L97.69 51.15Q97.96 51.15 98.13 51.00Q98.30 50.86 98.30 50.62L98.30 50.62Q98.30 50.47 98.22 50.35Q98.15 50.23 98.02 50.16Q97.90 50.09 97.73 50.09L97.73 50.09L96.89 50.09L96.89 50.00L97.71 50.00Q97.93 50.00 98.06 49.88Q98.19 49.75 98.19 49.53L98.19 49.53Q98.19 49.32 98.04 49.19Q97.90 49.07 97.66 49.07L97.66 49.07L96.89 49.07L96.89 48.97L97.66 48.97Q97.85 48.97 97.99 49.04Q98.14 49.10 98.22 49.23Q98.30 49.35 98.30 49.53L98.30 49.53Q98.30 49.73 98.19 49.87Q98.09 50.01 97.90 50.07L97.90 50.07L97.92 50.03Q98.15 50.08 98.28 50.24Q98.41 50.40 98.41 50.62L98.41 50.62Q98.41 50.81 98.32 50.95Q98.23 51.09 98.06 51.17Q97.90 51.25 97.67 51.25L97.67 51.25ZM96.95 51.25L96.84 51.25L96.84 48.97L96.95 48.97L96.95 51.25Z"/><path d="M99.86 51.21L99.47 51.21L98.72 49.13L99.17 49.13L99.85 51.12L99.61 51.12L100.26 49.13L100.65 49.13L99.86 51.21ZM101.37 51.21L101.00 51.21L101.00 49.91L101.37 49.84L101.37 51.21ZM101.18 49.59L101.18 49.59Q101.08 49.59 101.02 49.53Q100.95 49.47 100.95 49.37L100.95 49.37Q100.95 49.26 101.02 49.20Q101.08 49.14 101.18 49.14L101.18 49.14Q101.28 49.14 101.35 49.20Q101.41 49.26 101.41 49.37L101.41 49.37Q101.41 49.47 101.35 49.53Q101.28 49.59 101.18 49.59ZM102.29 51.21L101.92 51.21L101.92 49.88Q101.92 49.58 102.02 49.37Q102.13 49.17 102.31 49.06Q102.49 48.96 102.70 48.96L102.70 48.96Q102.82 48.96 102.92 48.99Q103.02 49.02 103.11 49.09L103.11 49.09L102.94 49.35Q102.86 49.28 102.78 49.25Q102.69 49.22 102.62 49.22L102.62 49.22Q102.53 49.22 102.47 49.25Q102.41 49.28 102.37 49.35Q102.33 49.42 102.31 49.53Q102.29 49.63 102.29 49.78L102.29 49.78L102.29 51.21ZM102.75 50.12L101.68 50.11L101.70 49.90L102.77 49.88L102.75 50.12ZM104.68 50.70L104.68 50.70Q104.68 50.61 104.63 50.55Q104.58 50.49 104.50 50.43Q104.41 50.38 104.31 50.34Q104.22 50.29 104.12 50.24Q104.02 50.18 103.93 50.11Q103.85 50.04 103.80 49.95Q103.75 49.85 103.75 49.72L103.75 49.72Q103.75 49.52 103.84 49.38Q103.94 49.24 104.10 49.16Q104.26 49.09 104.45 49.09L104.45 49.09Q104.57 49.09 104.72 49.12Q104.86 49.14 104.98 49.20L104.98 49.20L104.84 49.56Q104.74 49.48 104.61 49.43Q104.48 49.39 104.38 49.39L104.38 49.39Q104.28 49.39 104.22 49.42Q104.17 49.46 104.14 49.52Q104.12 49.57 104.12 49.62L104.12 49.62Q104.12 49.70 104.17 49.75Q104.22 49.81 104.30 49.86Q104.39 49.91 104.49 49.96Q104.59 50.00 104.69 50.06Q104.79 50.12 104.87 50.19Q104.96 50.27 105.01 50.36Q105.06 50.46 105.06 50.59L105.06 50.59Q105.06 50.81 104.95 50.95Q104.85 51.10 104.68 51.18Q104.51 51.25 104.31 51.25L104.31 51.25Q104.11 51.25 103.93 51.19Q103.76 51.13 103.65 51.05L103.65 51.05L103.84 50.72Q103.96 50.82 104.11 50.88Q104.25 50.95 104.40 50.95L104.40 50.95Q104.52 50.95 104.60 50.88Q104.68 50.81 104.68 50.70ZM106.00 51.25L106.00 51.25Q105.80 51.25 105.64 51.16Q105.49 51.07 105.40 50.92Q105.31 50.77 105.31 50.57L105.31 50.57Q105.31 50.36 105.41 50.19Q105.51 50.03 105.68 49.93Q105.85 49.84 106.07 49.84L106.07 49.84Q106.21 49.84 106.32 49.88Q106.43 49.92 106.52 50.00L106.52 50.00L106.37 50.28Q106.28 50.20 106.20 50.15Q106.12 50.10 106.02 50.10L106.02 50.10Q105.91 50.10 105.84 50.16Q105.77 50.22 105.74 50.32Q105.70 50.41 105.70 50.53L105.70 50.53Q105.70 50.67 105.76 50.77Q105.81 50.86 105.90 50.92Q105.99 50.97 106.10 50.97L106.10 50.97Q106.18 50.97 106.26 50.93Q106.34 50.90 106.42 50.83L106.42 50.83L106.53 51.04Q106.44 51.12 106.35 51.17Q106.26 51.21 106.17 51.23Q106.08 51.25 106.00 51.25ZM108.14 51.21L107.77 51.21L107.77 50.47Q107.77 50.31 107.70 50.22Q107.63 50.12 107.50 50.12L107.50 50.12Q107.43 50.12 107.36 50.15Q107.28 50.18 107.22 50.22Q107.15 50.27 107.11 50.34L107.11 50.34L107.00 50.26Q107.09 50.13 107.19 50.04Q107.30 49.95 107.42 49.90Q107.54 49.86 107.67 49.86L107.67 49.86Q107.86 49.86 108.00 49.98Q108.14 50.11 108.14 50.34L108.14 50.34L108.14 51.21ZM107.21 51.21L106.85 51.21L106.85 49.00L107.21 48.93L107.21 51.21ZM109.10 51.25L109.10 51.25Q108.91 51.25 108.77 51.17Q108.62 51.10 108.53 50.95Q108.45 50.80 108.45 50.59L108.45 50.59Q108.45 50.37 108.54 50.20Q108.64 50.03 108.80 49.93Q108.96 49.84 109.16 49.84L109.16 49.84Q109.42 49.84 109.55 49.99Q109.68 50.15 109.68 50.41L109.68 50.41Q109.68 50.44 109.68 50.49Q109.68 50.54 109.67 50.58L109.67 50.58L109.36 50.58L109.36 50.40Q109.36 50.25 109.31 50.17Q109.26 50.09 109.13 50.09L109.13 50.09Q109.02 50.09 108.95 50.15Q108.87 50.20 108.83 50.30Q108.79 50.40 108.79 50.53L108.79 50.53Q108.79 50.74 108.90 50.85Q109.01 50.97 109.18 50.97L109.18 50.97Q109.28 50.97 109.37 50.93Q109.47 50.90 109.55 50.82L109.55 50.82L109.67 51.01Q109.58 51.11 109.48 51.16Q109.38 51.21 109.29 51.23Q109.19 51.25 109.10 51.25ZM109.63 50.58L108.63 50.58L108.67 50.36L109.63 50.36L109.63 50.58ZM110.97 51.23L110.97 51.23Q110.83 51.23 110.74 51.14Q110.66 51.04 110.66 50.84L110.66 50.84L110.68 50.31Q110.68 50.22 110.66 50.17Q110.65 50.12 110.61 50.10Q110.58 50.08 110.54 50.08L110.54 50.08Q110.49 50.08 110.43 50.10Q110.38 50.12 110.34 50.17Q110.30 50.23 110.30 50.32L110.30 50.32L109.94 50.28Q109.96 50.18 110.02 50.10Q110.08 50.02 110.17 49.97Q110.26 49.91 110.37 49.88Q110.48 49.84 110.60 49.84L110.60 49.84Q110.82 49.84 110.92 49.96Q111.01 50.07 111.01 50.25L111.01 50.25L111.00 50.91Q111.00 50.95 111.02 50.96Q111.04 50.98 111.06 50.98L111.06 50.98Q111.09 50.98 111.11 50.97Q111.14 50.96 111.16 50.95L111.16 50.95L111.26 51.12Q111.21 51.17 111.14 51.20Q111.06 51.23 110.97 51.23ZM110.27 51.23L110.27 51.23Q110.11 51.23 110.01 51.14Q109.91 51.05 109.91 50.91L109.91 50.91Q109.91 50.83 109.95 50.76Q109.99 50.68 110.08 50.62Q110.18 50.56 110.35 50.52L110.35 50.52L110.86 50.41L110.88 50.57L110.43 50.70Q110.34 50.73 110.31 50.77Q110.28 50.81 110.28 50.86L110.28 50.86Q110.28 50.91 110.31 50.94Q110.35 50.97 110.41 50.97L110.41 50.97Q110.49 50.97 110.61 50.91Q110.72 50.86 110.87 50.78L110.87 50.78L110.87 50.90Q110.74 51.04 110.59 51.14Q110.44 51.23 110.27 51.23Z"/><path d="M111.10 49.36L111.07 49.37Q110.98 49.26 110.98 49.14Q110.98 49.03 111.03 48.94Q111.08 48.86 111.20 48.80Q111.32 48.74 111.47 48.74L111.47 48.74L112.77 48.74Q112.86 48.74 112.98 48.72Q113.10 48.71 113.15 48.69L113.15 48.69L113.15 49.08L113.12 49.08L113.12 49.03Q113.12 48.95 113.06 48.90Q113.01 48.84 112.94 48.84L112.94 48.84L112.34 48.84L112.34 50.72Q112.34 50.84 112.44 50.89L112.44 50.89Q112.49 50.92 112.54 50.92L112.54 50.92L112.58 50.92L112.58 50.95L111.89 50.95L111.89 50.92L111.93 50.92Q112.01 50.92 112.07 50.86Q112.13 50.81 112.13 50.73L112.13 50.73L112.13 48.84L111.47 48.84Q111.22 48.84 111.11 49.00L111.11 49.00Q111.05 49.08 111.05 49.17Q111.05 49.26 111.10 49.36L111.10 49.36ZM115.50 50.92L115.50 50.92L115.54 50.92L115.54 50.95L114.85 50.95L114.85 50.92L114.89 50.92Q114.97 50.92 115.03 50.86Q115.09 50.81 115.10 50.73L115.10 50.73L115.10 49.91L113.88 49.91L113.88 50.73Q113.88 51.17 113.66 51.32L113.66 51.32Q113.57 51.39 113.41 51.43L113.41 51.43L113.40 51.40Q113.54 51.32 113.61 51.17Q113.67 51.01 113.67 50.73L113.67 50.73L113.67 48.97Q113.67 48.89 113.61 48.83Q113.55 48.78 113.47 48.78L113.47 48.78L113.43 48.78L113.43 48.75L114.12 48.75L114.12 48.78L114.08 48.78Q114.00 48.78 113.94 48.83Q113.88 48.89 113.88 48.97L113.88 48.97L113.88 49.81L115.10 49.81L115.10 49.03Q115.10 48.63 115.28 48.47L115.28 48.47Q115.38 48.37 115.57 48.33L115.57 48.33L115.58 48.36Q115.44 48.44 115.37 48.60Q115.30 48.75 115.30 49.03L115.30 49.03L115.30 50.72Q115.30 50.80 115.36 50.86Q115.42 50.92 115.50 50.92ZM117.46 49.47L117.43 49.48Q117.41 49.44 117.41 49.41Q117.41 49.38 117.42 49.34Q117.42 49.30 117.43 49.24Q117.44 49.17 117.47 49.11Q117.51 49.04 117.55 48.98Q117.59 48.92 117.65 48.87Q117.72 48.82 117.80 48.78L117.80 48.78Q117.96 48.70 118.20 48.70L118.20 48.70Q118.68 48.70 118.99 49.02Q119.29 49.34 119.29 49.84Q119.29 50.34 118.93 50.67Q118.57 51.00 118.02 51.00Q117.47 51.00 117.11 50.67Q116.74 50.34 116.74 49.82L116.74 49.82Q116.74 49.48 116.90 49.22Q117.06 48.96 117.35 48.81L117.35 48.81L117.37 48.84Q117.17 48.97 117.08 49.23Q116.99 49.48 116.99 49.77L116.99 49.77Q116.99 50.30 117.28 50.60Q117.57 50.90 118.02 50.90Q118.47 50.90 118.76 50.60Q119.05 50.30 119.05 49.81L119.05 49.81Q119.05 49.38 118.82 49.09Q118.59 48.80 118.18 48.80L118.18 48.80Q117.99 48.80 117.84 48.86L117.84 48.86Q117.57 48.98 117.48 49.25L117.48 49.25Q117.45 49.33 117.45 49.38Q117.45 49.44 117.46 49.47L117.46 49.47ZM122.90 51.46L122.90 51.46Q122.92 51.46 122.94 51.46L122.94 51.46L122.94 51.49Q122.85 51.51 122.74 51.51Q122.63 51.51 122.47 51.46Q122.31 51.41 122.18 51.28L122.18 51.28Q121.92 51.02 121.86 50.60L121.86 50.60L121.67 49.19L121.02 50.67Q120.93 50.87 120.91 51.00L120.91 51.00L120.88 51.00L120.06 49.22L119.92 50.79Q119.92 50.84 119.96 50.88Q119.99 50.92 120.04 50.92L120.04 50.92Q120.04 50.92 120.04 50.92L120.04 50.92L120.09 50.92L120.09 50.95L119.48 50.95L119.48 50.92L119.53 50.92Q119.62 50.92 119.68 50.87Q119.75 50.82 119.76 50.73L119.76 50.73L119.96 49.01Q119.68 48.47 119.30 48.47L119.30 48.47Q119.26 48.47 119.22 48.47L119.22 48.47L119.22 48.44Q119.31 48.42 119.36 48.42Q119.42 48.42 119.48 48.42Q119.54 48.43 119.63 48.45Q119.71 48.48 119.79 48.52Q119.86 48.57 119.92 48.63Q119.98 48.68 120.03 48.74L120.03 48.74Q120.11 48.85 120.16 48.96L120.16 48.96L120.92 50.60L121.77 48.70L121.80 48.70L122.09 50.57Q122.16 51.01 122.37 51.23Q122.59 51.46 122.90 51.46Z"/><path d="M124.48 51.16L124.48 51.16Q124.31 51.16 124.31 51.00L124.31 51.00Q124.31 50.89 124.37 50.73Q124.43 50.57 124.53 50.40Q124.62 50.23 124.71 50.08Q124.80 49.92 124.86 49.83L124.86 49.83Q124.81 49.83 124.76 49.83Q124.72 49.83 124.67 49.83L124.67 49.83Q124.49 49.83 124.31 49.83Q124.13 49.84 123.95 49.85L123.95 49.85Q123.77 50.10 123.58 50.35Q123.39 50.59 123.20 50.83L123.20 50.83L123.22 50.83Q123.23 50.83 123.25 50.83Q123.27 50.83 123.27 50.85L123.27 50.85Q123.27 50.86 123.24 50.87Q123.22 50.88 123.19 50.88Q123.16 50.89 123.15 50.89L123.15 50.89Q123.14 50.91 123.10 50.94Q123.07 50.97 123.04 50.97L123.04 50.97Q123.02 50.97 123.02 50.95L123.02 50.95Q123.02 50.93 123.03 50.91Q123.04 50.89 123.05 50.88L123.05 50.88Q122.96 50.86 122.85 50.82Q122.74 50.77 122.64 50.69Q122.54 50.62 122.48 50.52Q122.42 50.42 122.42 50.31L122.42 50.31Q122.42 50.18 122.50 50.09Q122.58 50.00 122.71 49.94Q122.85 49.88 123.01 49.84Q123.18 49.80 123.34 49.78Q123.51 49.77 123.65 49.76Q123.79 49.75 123.88 49.75L123.88 49.75Q123.92 49.70 123.99 49.60Q124.05 49.50 124.13 49.38Q124.21 49.26 124.28 49.14Q124.35 49.02 124.39 48.91Q124.43 48.81 124.43 48.75L124.43 48.75Q124.43 48.67 124.38 48.63Q124.33 48.59 124.26 48.58Q124.19 48.57 124.13 48.57L124.13 48.57Q123.97 48.57 123.79 48.62Q123.60 48.66 123.43 48.73Q123.25 48.80 123.12 48.88L123.12 48.88Q123.05 48.92 122.96 48.99Q122.87 49.06 122.80 49.14Q122.74 49.22 122.74 49.32L122.74 49.32Q122.74 49.41 122.79 49.46Q122.85 49.52 122.92 49.55Q122.99 49.59 123.05 49.60Q123.10 49.62 123.10 49.64L123.10 49.64Q123.10 49.65 123.09 49.65Q123.07 49.66 123.07 49.66L123.07 49.66Q123.06 49.66 123.05 49.65Q123.04 49.65 123.03 49.65L123.03 49.65Q122.95 49.64 122.84 49.60Q122.73 49.57 122.65 49.51Q122.57 49.45 122.57 49.34L122.57 49.34Q122.57 49.26 122.62 49.18Q122.68 49.10 122.76 49.02Q122.84 48.95 122.92 48.89Q123.01 48.84 123.07 48.80L123.07 48.80Q123.22 48.72 123.41 48.64Q123.59 48.57 123.79 48.53Q123.98 48.48 124.15 48.48L124.15 48.48Q124.25 48.48 124.35 48.51Q124.45 48.53 124.52 48.59Q124.58 48.65 124.58 48.77L124.58 48.77Q124.58 48.82 124.54 48.93Q124.49 49.03 124.42 49.15Q124.35 49.27 124.27 49.39Q124.20 49.51 124.13 49.60Q124.06 49.70 124.02 49.75L124.02 49.75L124.11 49.75Q124.31 49.75 124.50 49.75Q124.70 49.76 124.90 49.77L124.90 49.77Q125.06 49.52 125.23 49.28Q125.40 49.03 125.58 48.80L125.58 48.80L125.58 48.79Q125.58 48.76 125.60 48.73L125.60 48.73Q125.62 48.70 125.68 48.63Q125.75 48.56 125.77 48.52L125.77 48.52Q125.78 48.51 125.79 48.49Q125.80 48.48 125.81 48.47L125.81 48.47Q125.84 48.44 125.90 48.43Q125.96 48.41 126.00 48.41L126.00 48.41Q126.01 48.41 126.04 48.42Q126.07 48.42 126.07 48.44L126.07 48.44Q126.07 48.45 126.07 48.46L126.07 48.46Q125.99 48.55 125.91 48.64Q125.83 48.73 125.76 48.82L125.76 48.82Q125.57 49.05 125.40 49.29Q125.23 49.53 125.06 49.78L125.06 49.78Q125.08 49.78 125.12 49.78Q125.16 49.78 125.20 49.79Q125.24 49.80 125.24 49.81L125.24 49.81Q125.24 49.82 125.21 49.83Q125.17 49.84 125.16 49.84L125.16 49.84Q125.13 49.84 125.10 49.84Q125.06 49.84 125.03 49.84L125.03 49.84Q124.97 49.93 124.88 50.08Q124.80 50.23 124.72 50.40Q124.64 50.56 124.59 50.72Q124.54 50.87 124.54 50.99L124.54 50.99Q124.54 51.02 124.55 51.06Q124.56 51.09 124.60 51.09L124.60 51.09Q124.64 51.09 124.67 51.09Q124.70 51.08 124.73 51.08L124.73 51.08Q124.73 51.08 124.74 51.08Q124.76 51.08 124.76 51.08L124.76 51.08Q124.76 51.10 124.70 51.12Q124.64 51.14 124.57 51.15Q124.50 51.16 124.48 51.16ZM123.10 50.82L123.10 50.82Q123.27 50.58 123.45 50.34Q123.63 50.10 123.80 49.86L123.80 49.86Q123.72 49.87 123.56 49.88Q123.40 49.90 123.22 49.93Q123.04 49.97 122.88 50.02Q122.71 50.08 122.61 50.16Q122.51 50.24 122.51 50.35L122.51 50.35Q122.51 50.44 122.57 50.52Q122.63 50.60 122.73 50.66Q122.82 50.72 122.92 50.76Q123.03 50.80 123.10 50.82ZM125.49 49.55L125.49 49.55Q125.48 49.55 125.48 49.52Q125.47 49.49 125.47 49.48L125.47 49.48Q125.47 49.47 125.48 49.44Q125.48 49.40 125.50 49.40L125.50 49.40Q125.55 49.39 125.60 49.38Q125.65 49.37 125.71 49.35L125.71 49.35Q125.71 49.35 125.73 49.35L125.73 49.35Q125.75 49.35 125.75 49.37L125.75 49.37Q125.75 49.41 125.70 49.45Q125.65 49.49 125.59 49.52Q125.53 49.55 125.49 49.55ZM125.19 50.73L125.19 50.73Q125.01 50.73 125.01 50.55L125.01 50.55Q125.01 50.47 125.04 50.39Q125.06 50.31 125.09 50.24L125.09 50.24Q125.12 50.16 125.16 50.08Q125.20 50.01 125.24 49.93L125.24 49.93Q125.26 49.90 125.28 49.86Q125.30 49.83 125.31 49.80L125.31 49.80Q125.33 49.77 125.38 49.75Q125.43 49.73 125.46 49.73L125.46 49.73Q125.47 49.73 125.46 49.73Q125.46 49.74 125.46 49.74L125.46 49.74Q125.46 49.74 125.46 49.74Q125.46 49.74 125.46 49.74L125.46 49.74Q125.47 49.73 125.48 49.73L125.48 49.73Q125.50 49.73 125.50 49.75Q125.50 49.76 125.50 49.77L125.50 49.77Q125.50 49.80 125.48 49.85Q125.46 49.90 125.44 49.94Q125.41 49.99 125.38 50.00L125.38 50.00Q125.35 50.08 125.30 50.17Q125.24 50.26 125.20 50.35Q125.16 50.45 125.16 50.53L125.16 50.53Q125.16 50.64 125.27 50.64L125.27 50.64Q125.32 50.64 125.38 50.60Q125.44 50.57 125.50 50.53Q125.55 50.48 125.60 50.45Q125.64 50.41 125.65 50.41L125.65 50.41Q125.65 50.41 125.65 50.42Q125.65 50.42 125.65 50.42L125.65 50.42Q125.65 50.43 125.64 50.45Q125.63 50.46 125.62 50.47L125.62 50.47Q125.58 50.53 125.51 50.59Q125.43 50.65 125.35 50.69Q125.27 50.73 125.19 50.73ZM125.79 50.73L125.79 50.73Q125.61 50.73 125.61 50.55L125.61 50.55Q125.61 50.44 125.66 50.30Q125.72 50.16 125.79 50.03Q125.86 49.89 125.91 49.80L125.91 49.80Q125.86 49.80 125.79 49.82Q125.72 49.83 125.67 49.83L125.67 49.83Q125.66 49.83 125.64 49.82Q125.63 49.82 125.63 49.80L125.63 49.80Q125.63 49.78 125.65 49.77L125.65 49.77Q125.68 49.75 125.71 49.74Q125.73 49.73 125.76 49.71L125.76 49.71Q125.83 49.66 125.90 49.61Q125.97 49.55 126.03 49.49L126.03 49.49Q126.05 49.46 126.06 49.43Q126.07 49.41 126.11 49.40L126.11 49.40Q126.14 49.39 126.19 49.37Q126.25 49.34 126.27 49.34L126.27 49.34Q126.29 49.34 126.29 49.36L126.29 49.36Q126.29 49.37 126.27 49.41Q126.24 49.46 126.21 49.52Q126.18 49.58 126.15 49.63Q126.12 49.68 126.11 49.69L126.11 49.69Q126.14 49.69 126.19 49.69Q126.25 49.69 126.32 49.70Q126.38 49.70 126.43 49.71Q126.48 49.72 126.48 49.74L126.48 49.74Q126.48 49.75 126.46 49.76Q126.44 49.77 126.42 49.77L126.42 49.77Q126.33 49.77 126.24 49.77Q126.16 49.77 126.07 49.78L126.07 49.78Q126.03 49.85 125.99 49.94Q125.94 50.04 125.89 50.15Q125.84 50.26 125.80 50.36Q125.77 50.46 125.77 50.53L125.77 50.53Q125.77 50.58 125.79 50.61Q125.81 50.64 125.86 50.64L125.86 50.64Q125.91 50.64 125.98 50.60Q126.04 50.57 126.09 50.53Q126.15 50.48 126.19 50.45Q126.24 50.41 126.25 50.41L126.25 50.41Q126.25 50.41 126.25 50.42Q126.25 50.42 126.25 50.42L126.25 50.42Q126.25 50.43 126.24 50.45Q126.23 50.46 126.22 50.47L126.22 50.47Q126.18 50.53 126.10 50.59Q126.03 50.65 125.95 50.69Q125.87 50.73 125.79 50.73ZM125.83 49.71L125.83 49.71Q125.86 49.71 125.89 49.71Q125.92 49.70 125.95 49.70L125.95 49.70Q125.96 49.67 125.97 49.65Q125.98 49.62 125.98 49.60L125.98 49.60Q125.94 49.62 125.90 49.65Q125.87 49.69 125.83 49.71Z"/><path d="M127.05 51.50L127.05 51.50Q126.90 51.50 126.76 51.43Q126.63 51.37 126.53 51.24L126.53 51.24Q126.43 51.11 126.38 50.91Q126.32 50.72 126.32 50.45L126.32 50.45Q126.32 49.94 126.47 49.56Q126.62 49.17 126.85 48.92L126.85 48.92Q127.07 48.66 127.33 48.54Q127.58 48.42 127.81 48.42L127.81 48.42Q128.02 48.42 128.16 48.51Q128.29 48.60 128.36 48.76Q128.42 48.91 128.42 49.11L128.42 49.11L127.88 49.21Q127.84 49.05 127.78 48.98Q127.72 48.91 127.64 48.91L127.64 48.91Q127.56 48.91 127.46 49.01Q127.37 49.11 127.28 49.27Q127.19 49.43 127.12 49.63Q127.05 49.83 127.00 50.04Q126.95 50.25 126.95 50.44L126.95 50.44Q126.95 50.69 127.02 50.79Q127.09 50.90 127.21 50.90L127.21 50.90Q127.32 50.90 127.43 50.83Q127.54 50.75 127.61 50.63Q127.69 50.51 127.69 50.36L127.69 50.36L127.26 50.42L127.34 50.03L127.71 49.98Q127.86 49.96 128.03 49.93Q128.20 49.90 128.33 49.88L128.33 49.88Q128.30 50.29 128.17 50.59Q128.04 50.90 127.85 51.10Q127.66 51.30 127.45 51.40Q127.24 51.50 127.05 51.50ZM128.81 51.24L128.16 51.40L128.37 50.37Q128.42 50.08 128.47 49.78Q128.53 49.47 128.58 49.18Q128.63 48.88 128.66 48.62L128.66 48.62Q128.88 48.55 129.15 48.52Q129.41 48.48 129.67 48.48L129.67 48.48Q129.97 48.48 130.08 48.62Q130.19 48.75 130.19 48.97L130.19 48.97Q130.19 49.17 130.10 49.38Q130.00 49.58 129.85 49.75Q129.70 49.92 129.51 50.01L129.51 50.01Q129.58 50.17 129.67 50.36Q129.75 50.55 129.82 50.72L129.82 50.72Q129.86 50.82 129.90 50.92Q129.94 51.02 129.98 51.12L129.98 51.12L129.36 51.34L129.22 50.86Q129.16 50.66 129.11 50.47Q129.06 50.29 129.05 50.21L129.05 50.21L129.00 50.23Q128.99 50.29 128.97 50.37Q128.96 50.44 128.94 50.53L128.94 50.53Q128.93 50.61 128.91 50.70Q128.90 50.78 128.88 50.86L128.88 50.86L128.81 51.24ZM129.23 49.04L129.10 49.67Q129.17 49.66 129.28 49.61Q129.38 49.56 129.49 49.48Q129.60 49.40 129.67 49.31Q129.74 49.23 129.74 49.17L129.74 49.17Q129.74 49.09 129.65 49.06Q129.55 49.03 129.40 49.03L129.40 49.03L129.31 49.03Q129.29 49.04 129.27 49.04Q129.25 49.04 129.23 49.04L129.23 49.04ZM130.58 51.24L129.93 51.40L130.14 50.37Q130.19 50.08 130.25 49.78Q130.30 49.47 130.35 49.18Q130.40 48.88 130.43 48.62L130.43 48.62Q130.66 48.55 130.92 48.52Q131.18 48.48 131.44 48.48L131.44 48.48Q131.75 48.48 131.86 48.62Q131.97 48.75 131.97 48.97L131.97 48.97Q131.97 49.17 131.87 49.38Q131.77 49.58 131.62 49.75Q131.47 49.92 131.28 50.01L131.28 50.01Q131.36 50.17 131.44 50.36Q131.52 50.55 131.59 50.72L131.59 50.72Q131.63 50.82 131.67 50.92Q131.71 51.02 131.75 51.12L131.75 51.12L131.14 51.34L130.99 50.86Q130.93 50.66 130.88 50.47Q130.83 50.29 130.82 50.21L130.82 50.21L130.77 50.23Q130.76 50.29 130.75 50.37Q130.73 50.44 130.72 50.53L130.72 50.53Q130.70 50.61 130.68 50.70Q130.67 50.78 130.65 50.86L130.65 50.86L130.58 51.24ZM131.00 49.04L130.87 49.67Q130.94 49.66 131.05 49.61Q131.16 49.56 131.26 49.48Q131.37 49.40 131.44 49.31Q131.51 49.23 131.51 49.17L131.51 49.17Q131.51 49.09 131.42 49.06Q131.32 49.03 131.17 49.03L131.17 49.03L131.08 49.03Q131.06 49.04 131.04 49.04Q131.02 49.04 131.00 49.04L131.00 49.04ZM132.35 51.24L131.71 51.40L131.91 50.37Q131.96 50.08 132.02 49.78Q132.07 49.47 132.12 49.18Q132.17 48.88 132.20 48.62L132.20 48.62Q132.43 48.55 132.69 48.52Q132.96 48.48 133.21 48.48L133.21 48.48Q133.52 48.48 133.63 48.62Q133.74 48.75 133.74 48.97L133.74 48.97Q133.74 49.17 133.64 49.38Q133.55 49.58 133.39 49.75Q133.24 49.92 133.06 50.01L133.06 50.01Q133.13 50.17 133.21 50.36Q133.29 50.55 133.36 50.72L133.36 50.72Q133.40 50.82 133.44 50.92Q133.49 51.02 133.53 51.12L133.53 51.12L132.91 51.34L132.76 50.86Q132.70 50.66 132.65 50.47Q132.60 50.29 132.60 50.21L132.60 50.21L132.54 50.23Q132.53 50.29 132.52 50.37Q132.50 50.44 132.49 50.53L132.49 50.53Q132.47 50.61 132.46 50.70Q132.44 50.78 132.42 50.86L132.42 50.86L132.35 51.24ZM132.77 49.04L132.64 49.67Q132.72 49.66 132.82 49.61Q132.93 49.56 133.03 49.48Q133.14 49.40 133.21 49.31Q133.28 49.23 133.28 49.17L133.28 49.17Q133.28 49.09 133.19 49.06Q133.10 49.03 132.94 49.03L132.94 49.03L132.86 49.03Q132.83 49.04 132.81 49.04Q132.79 49.04 132.77 49.04L132.77 49.04ZM134.12 51.24L133.48 51.40L133.69 50.37Q133.73 50.08 133.79 49.78Q133.85 49.47 133.90 49.18Q133.95 48.88 133.97 48.62L133.97 48.62Q134.20 48.55 134.46 48.52Q134.73 48.48 134.99 48.48L134.99 48.48Q135.29 48.48 135.40 48.62Q135.51 48.75 135.51 48.97L135.51 48.97Q135.51 49.17 135.41 49.38Q135.32 49.58 135.16 49.75Q135.01 49.92 134.83 50.01L134.83 50.01Q134.90 50.17 134.98 50.36Q135.06 50.55 135.13 50.72L135.13 50.72Q135.17 50.82 135.22 50.92Q135.26 51.02 135.30 51.12L135.30 51.12L134.68 51.34L134.54 50.86Q134.48 50.66 134.43 50.47Q134.38 50.29 134.37 50.21L134.37 50.21L134.32 50.23Q134.30 50.29 134.29 50.37Q134.28 50.44 134.26 50.53L134.26 50.53Q134.24 50.61 134.23 50.70Q134.21 50.78 134.20 50.86L134.20 50.86L134.12 51.24ZM134.54 49.04L134.42 49.67Q134.49 49.66 134.59 49.61Q134.70 49.56 134.81 49.48Q134.91 49.40 134.98 49.31Q135.05 49.23 135.05 49.17L135.05 49.17Q135.05 49.09 134.96 49.06Q134.87 49.03 134.72 49.03L134.72 49.03L134.63 49.03Q134.60 49.04 134.58 49.04Q134.56 49.04 134.54 49.04L134.54 49.04ZM135.90 51.24L135.25 51.40L135.46 50.37Q135.51 50.08 135.56 49.78Q135.62 49.47 135.67 49.18Q135.72 48.88 135.74 48.62L135.74 48.62Q135.97 48.55 136.24 48.52Q136.50 48.48 136.76 48.48L136.76 48.48Q137.06 48.48 137.17 48.62Q137.28 48.75 137.28 48.97L137.28 48.97Q137.28 49.17 137.19 49.38Q137.09 49.58 136.94 49.75Q136.78 49.92 136.60 50.01L136.60 50.01Q136.67 50.17 136.75 50.36Q136.83 50.55 136.91 50.72L136.91 50.72Q136.95 50.82 136.99 50.92Q137.03 51.02 137.07 51.12L137.07 51.12L136.45 51.34L136.31 50.86Q136.25 50.66 136.20 50.47Q136.15 50.29 136.14 50.21L136.14 50.21L136.09 50.23Q136.08 50.29 136.06 50.37Q136.05 50.44 136.03 50.53L136.03 50.53Q136.02 50.61 136.00 50.70Q135.98 50.78 135.97 50.86L135.97 50.86L135.90 51.24ZM136.32 49.04L136.19 49.67Q136.26 49.66 136.37 49.61Q136.47 49.56 136.58 49.48Q136.68 49.40 136.75 49.31Q136.83 49.23 136.83 49.17L136.83 49.17Q136.83 49.09 136.73 49.06Q136.64 49.03 136.49 49.03L136.49 49.03L136.40 49.03Q136.38 49.04 136.36 49.04Q136.34 49.04 136.32 49.04L136.32 49.04ZM137.35 50.48L137.35 50.48Q137.41 50.23 137.47 49.99Q137.53 49.74 137.59 49.50L137.59 49.50Q137.65 49.26 137.71 49.01Q137.77 48.77 137.84 48.52L137.84 48.52Q138.06 48.49 138.25 48.46Q138.44 48.44 138.56 48.42L138.56 48.42Q138.34 48.92 138.17 49.43Q137.99 49.94 137.81 50.45L137.81 50.45Q137.70 50.45 137.58 50.46Q137.46 50.47 137.35 50.48ZM137.34 51.49L137.34 51.49Q137.22 51.49 137.14 51.43Q137.07 51.38 137.03 51.29Q136.99 51.21 136.99 51.12L136.99 51.12Q136.99 50.96 137.10 50.84Q137.20 50.72 137.39 50.72L137.39 50.72Q137.62 50.72 137.74 50.83Q137.85 50.94 137.85 51.08L137.85 51.08Q137.85 51.24 137.72 51.37Q137.59 51.49 137.34 51.49ZM138.40 50.48L138.40 50.48Q138.46 50.23 138.52 49.99Q138.58 49.74 138.64 49.50L138.64 49.50Q138.70 49.26 138.76 49.01Q138.82 48.77 138.89 48.52L138.89 48.52Q139.11 48.49 139.30 48.46Q139.49 48.44 139.61 48.42L139.61 48.42Q139.39 48.92 139.21 49.43Q139.04 49.94 138.86 50.45L138.86 50.45Q138.75 50.45 138.63 50.46Q138.51 50.47 138.40 50.48ZM138.39 51.49L138.39 51.49Q138.27 51.49 138.19 51.43Q138.12 51.38 138.08 51.29Q138.04 51.21 138.04 51.12L138.04 51.12Q138.04 50.96 138.15 50.84Q138.25 50.72 138.44 50.72L138.44 50.72Q138.67 50.72 138.79 50.83Q138.90 50.94 138.90 51.08L138.90 51.08Q138.90 51.24 138.77 51.37Q138.64 51.49 138.39 51.49ZM140.53 51.28L139.92 51.41Q139.97 51.13 140.02 50.86Q140.07 50.59 140.12 50.33L140.12 50.33Q140.18 50.00 140.23 49.70Q140.28 49.41 140.33 49.13Q140.38 48.84 140.43 48.52L140.43 48.52L141.07 48.48Q141.00 48.76 140.94 49.06Q140.87 49.37 140.82 49.65L140.82 49.65L141.21 49.61Q141.24 49.47 141.27 49.33Q141.29 49.19 141.31 49.06L141.31 49.06Q141.33 48.93 141.36 48.79Q141.39 48.65 141.43 48.51L141.43 48.51Q141.57 48.49 141.72 48.47Q141.87 48.46 141.97 48.45Q142.07 48.45 142.07 48.45L142.07 48.45Q142.01 48.61 141.96 48.82Q141.91 49.04 141.86 49.28Q141.81 49.52 141.77 49.75Q141.73 49.99 141.69 50.20L141.69 50.20Q141.65 50.45 141.61 50.71Q141.57 50.97 141.53 51.23L141.53 51.23L140.91 51.30Q140.93 51.19 140.95 51.07Q140.98 50.95 141.00 50.84L141.00 50.84Q141.04 50.65 141.08 50.44Q141.12 50.23 141.14 50.08L141.14 50.08L140.76 50.12Q140.74 50.20 140.73 50.28Q140.71 50.37 140.69 50.47L140.69 50.47Q140.67 50.57 140.66 50.66Q140.64 50.76 140.62 50.85L140.62 50.85Q140.60 50.96 140.58 51.07Q140.55 51.17 140.53 51.28L140.53 51.28ZM142.68 51.39L142.68 51.39Q142.69 51.32 142.70 51.26Q142.70 51.20 142.71 51.13L142.71 51.13L142.74 50.91Q142.74 50.85 142.74 50.81Q142.75 50.76 142.75 50.72L142.75 50.72L142.41 50.72L142.25 51.29Q142.16 51.30 142.04 51.32Q141.92 51.33 141.81 51.34L141.81 51.34Q141.75 51.35 141.69 51.36Q141.63 51.37 141.56 51.38L141.56 51.38L141.88 50.33Q141.93 50.14 142.01 49.90Q142.08 49.66 142.15 49.41Q142.23 49.16 142.29 48.94Q142.36 48.72 142.40 48.57L142.40 48.57Q142.67 48.55 142.95 48.52Q143.23 48.49 143.50 48.44L143.50 48.44Q143.48 48.67 143.46 48.95Q143.44 49.23 143.43 49.53Q143.42 49.83 143.40 50.12L143.40 50.12Q143.39 50.40 143.38 50.69Q143.37 50.98 143.36 51.29L143.36 51.29Q143.30 51.30 143.24 51.30Q143.18 51.31 143.12 51.32L143.12 51.32Q143.02 51.34 142.90 51.36Q142.78 51.38 142.68 51.39ZM142.75 49.32L142.50 50.32Q142.53 50.32 142.59 50.32Q142.66 50.31 142.72 50.31Q142.78 50.30 142.79 50.30L142.79 50.30Q142.79 50.25 142.80 50.09Q142.82 49.93 142.84 49.76L142.84 49.76Q142.84 49.65 142.85 49.54Q142.86 49.43 142.88 49.32L142.88 49.32L142.90 48.97L142.84 48.97L142.75 49.32ZM144.04 51.24L143.39 51.40L143.60 50.37Q143.65 50.08 143.70 49.78Q143.76 49.47 143.81 49.18Q143.86 48.88 143.89 48.62L143.89 48.62Q144.11 48.55 144.38 48.52Q144.64 48.48 144.90 48.48L144.90 48.48Q145.20 48.48 145.31 48.62Q145.42 48.75 145.42 48.97L145.42 48.97Q145.42 49.17 145.33 49.38Q145.23 49.58 145.08 49.75Q144.92 49.92 144.74 50.01L144.74 50.01Q144.81 50.17 144.89 50.36Q144.98 50.55 145.05 50.72L145.05 50.72Q145.09 50.82 145.13 50.92Q145.17 51.02 145.21 51.12L145.21 51.12L144.59 51.34L144.45 50.86Q144.39 50.66 144.34 50.47Q144.29 50.29 144.28 50.21L144.28 50.21L144.23 50.23Q144.22 50.29 144.20 50.37Q144.19 50.44 144.17 50.53L144.17 50.53Q144.16 50.61 144.14 50.70Q144.13 50.78 144.11 50.86L144.11 50.86L144.04 51.24ZM144.46 49.04L144.33 49.67Q144.40 49.66 144.51 49.61Q144.61 49.56 144.72 49.48Q144.82 49.40 144.90 49.31Q144.97 49.23 144.97 49.17L144.97 49.17Q144.97 49.09 144.87 49.06Q144.78 49.03 144.63 49.03L144.63 49.03L144.54 49.03Q144.52 49.04 144.50 49.04Q144.48 49.04 144.46 49.04L144.46 49.04ZM145.81 51.24L145.16 51.40L145.37 50.37Q145.42 50.08 145.47 49.78Q145.53 49.47 145.58 49.18Q145.63 48.88 145.66 48.62L145.66 48.62Q145.89 48.55 146.15 48.52Q146.41 48.48 146.67 48.48L146.67 48.48Q146.97 48.48 147.08 48.62Q147.19 48.75 147.19 48.97L147.19 48.97Q147.19 49.17 147.10 49.38Q147.00 49.58 146.85 49.75Q146.70 49.92 146.51 50.01L146.51 50.01Q146.58 50.17 146.67 50.36Q146.75 50.55 146.82 50.72L146.82 50.72Q146.86 50.82 146.90 50.92Q146.94 51.02 146.98 51.12L146.98 51.12L146.36 51.34L146.22 50.86Q146.16 50.66 146.11 50.47Q146.06 50.29 146.05 50.21L146.05 50.21L146.00 50.23Q145.99 50.29 145.98 50.37Q145.96 50.44 145.95 50.53L145.95 50.53Q145.93 50.61 145.91 50.70Q145.90 50.78 145.88 50.86L145.88 50.86L145.81 51.24ZM146.23 49.04L146.10 49.67Q146.17 49.66 146.28 49.61Q146.38 49.56 146.49 49.48Q146.60 49.40 146.67 49.31Q146.74 49.23 146.74 49.17L146.74 49.17Q146.74 49.09 146.65 49.06Q146.55 49.03 146.40 49.03L146.40 49.03L146.31 49.03Q146.29 49.04 146.27 49.04Q146.25 49.04 146.23 49.04L146.23 49.04ZM147.57 51.28L146.95 51.41Q147.07 50.85 147.17 50.32L147.17 50.32Q147.22 50.00 147.28 49.66Q147.34 49.33 147.39 49.03Q147.43 48.73 147.46 48.49L147.46 48.49Q147.57 48.49 147.64 48.50Q147.71 48.50 147.77 48.51Q147.83 48.51 147.91 48.51Q147.98 48.52 148.10 48.52L148.10 48.52Q148.04 48.80 147.97 49.08Q147.90 49.37 147.85 49.65L147.85 49.65L148.24 49.61Q148.27 49.47 148.30 49.33Q148.32 49.19 148.34 49.06L148.34 49.06Q148.36 48.93 148.39 48.79Q148.42 48.65 148.46 48.51L148.46 48.51Q148.60 48.49 148.75 48.47Q148.90 48.46 149.00 48.45Q149.10 48.45 149.10 48.45L149.10 48.45Q149.05 48.61 148.99 48.82Q148.94 49.04 148.89 49.28Q148.85 49.52 148.80 49.75Q148.76 49.99 148.72 50.20L148.72 50.20Q148.68 50.45 148.64 50.71Q148.60 50.97 148.56 51.23L148.56 51.23L147.94 51.30Q147.96 51.19 147.99 51.07Q148.01 50.95 148.03 50.84L148.03 50.84Q148.07 50.65 148.11 50.44Q148.15 50.23 148.18 50.08L148.18 50.08L147.79 50.12Q147.77 50.20 147.76 50.28Q147.75 50.37 147.73 50.47L147.73 50.47Q147.71 50.57 147.69 50.66Q147.67 50.76 147.65 50.85L147.65 50.85Q147.63 50.96 147.61 51.07Q147.59 51.17 147.57 51.28L147.57 51.28ZM149.71 51.39L149.71 51.39Q149.72 51.32 149.73 51.26Q149.74 51.20 149.74 51.13L149.74 51.13L149.77 50.91Q149.77 50.85 149.78 50.81Q149.78 50.76 149.78 50.72L149.78 50.72L149.44 50.72L149.28 51.29Q149.19 51.30 149.07 51.32Q148.95 51.33 148.85 51.34L148.85 51.34Q148.78 51.35 148.72 51.36Q148.66 51.37 148.60 51.38L148.60 51.38L148.91 50.33Q148.97 50.14 149.04 49.90Q149.11 49.66 149.18 49.41Q149.26 49.16 149.32 48.94Q149.39 48.72 149.43 48.57L149.43 48.57Q149.70 48.55 149.98 48.52Q150.26 48.49 150.53 48.44L150.53 48.44Q150.51 48.67 150.49 48.95Q150.47 49.23 150.46 49.53Q150.45 49.83 150.43 50.12L150.43 50.12Q150.42 50.40 150.41 50.69Q150.40 50.98 150.39 51.29L150.39 51.29Q150.33 51.30 150.27 51.30Q150.21 51.31 150.15 51.32L150.15 51.32Q150.05 51.34 149.93 51.36Q149.81 51.38 149.71 51.39ZM149.78 49.32L149.53 50.32Q149.56 50.32 149.62 50.32Q149.69 50.31 149.75 50.31Q149.81 50.30 149.82 50.30L149.82 50.30Q149.82 50.25 149.84 50.09Q149.85 49.93 149.87 49.76L149.87 49.76Q149.88 49.65 149.89 49.54Q149.90 49.43 149.91 49.32L149.91 49.32L149.93 48.97L149.87 48.97L149.78 49.32ZM151.07 51.24L150.42 51.40L150.63 50.37Q150.68 50.08 150.73 49.78Q150.79 49.47 150.84 49.18Q150.89 48.88 150.92 48.62L150.92 48.62Q151.15 48.55 151.41 48.52Q151.67 48.48 151.93 48.48L151.93 48.48Q152.23 48.48 152.34 48.62Q152.45 48.75 152.45 48.97L152.45 48.97Q152.45 49.17 152.36 49.38Q152.26 49.58 152.11 49.75Q151.96 49.92 151.77 50.01L151.77 50.01Q151.84 50.17 151.93 50.36Q152.01 50.55 152.08 50.72L152.08 50.72Q152.12 50.82 152.16 50.92Q152.20 51.02 152.24 51.12L152.24 51.12L151.62 51.34L151.48 50.86Q151.42 50.66 151.37 50.47Q151.32 50.29 151.31 50.21L151.31 50.21L151.26 50.23Q151.25 50.29 151.24 50.37Q151.22 50.44 151.21 50.53L151.21 50.53Q151.19 50.61 151.17 50.70Q151.16 50.78 151.14 50.86L151.14 50.86L151.07 51.24ZM151.49 49.04L151.36 49.67Q151.43 49.66 151.54 49.61Q151.64 49.56 151.75 49.48Q151.86 49.40 151.93 49.31Q152.00 49.23 152.00 49.17L152.00 49.17Q152.00 49.09 151.91 49.06Q151.81 49.03 151.66 49.03L151.66 49.03L151.57 49.03Q151.55 49.04 151.53 49.04Q151.51 49.04 151.49 49.04L151.49 49.04ZM152.84 51.24L152.19 51.40L152.40 50.37Q152.45 50.08 152.51 49.78Q152.56 49.47 152.61 49.18Q152.66 48.88 152.69 48.62L152.69 48.62Q152.92 48.55 153.18 48.52Q153.44 48.48 153.70 48.48L153.70 48.48Q154.01 48.48 154.12 48.62Q154.23 48.75 154.23 48.97L154.23 48.97Q154.23 49.17 154.13 49.38Q154.03 49.58 153.88 49.75Q153.73 49.92 153.54 50.01L153.54 50.01Q153.62 50.17 153.70 50.36Q153.78 50.55 153.85 50.72L153.85 50.72Q153.89 50.82 153.93 50.92Q153.97 51.02 154.01 51.12L154.01 51.12L153.40 51.34L153.25 50.86Q153.19 50.66 153.14 50.47Q153.09 50.29 153.08 50.21L153.08 50.21L153.03 50.23Q153.02 50.29 153.01 50.37Q152.99 50.44 152.98 50.53L152.98 50.53Q152.96 50.61 152.95 50.70Q152.93 50.78 152.91 50.86L152.91 50.86L152.84 51.24ZM153.26 49.04L153.13 49.67Q153.20 49.66 153.31 49.61Q153.42 49.56 153.52 49.48Q153.63 49.40 153.70 49.31Q153.77 49.23 153.77 49.17L153.77 49.17Q153.77 49.09 153.68 49.06Q153.58 49.03 153.43 49.03L153.43 49.03L153.34 49.03Q153.32 49.04 153.30 49.04Q153.28 49.04 153.26 49.04L153.26 49.04ZM154.29 50.48L154.29 50.48Q154.36 50.23 154.42 49.99Q154.48 49.74 154.54 49.50L154.54 49.50Q154.59 49.26 154.66 49.01Q154.72 48.77 154.78 48.52L154.78 48.52Q155.01 48.49 155.20 48.46Q155.38 48.44 155.50 48.42L155.50 48.42Q155.29 48.92 155.11 49.43Q154.93 49.94 154.76 50.45L154.76 50.45Q154.64 50.45 154.53 50.46Q154.41 50.47 154.29 50.48ZM154.29 51.49L154.29 51.49Q154.17 51.49 154.09 51.43Q154.01 51.38 153.97 51.29Q153.93 51.21 153.93 51.12L153.93 51.12Q153.93 50.96 154.04 50.84Q154.15 50.72 154.33 50.72L154.33 50.72Q154.57 50.72 154.68 50.83Q154.80 50.94 154.80 51.08L154.80 51.08Q154.80 51.24 154.67 51.37Q154.53 51.49 154.29 51.49ZM155.34 50.48L155.34 50.48Q155.41 50.23 155.47 49.99Q155.53 49.74 155.59 49.50L155.59 49.50Q155.64 49.26 155.70 49.01Q155.77 48.77 155.83 48.52L155.83 48.52Q156.06 48.49 156.25 48.46Q156.43 48.44 156.55 48.42L156.55 48.42Q156.34 48.92 156.16 49.43Q155.98 49.94 155.81 50.45L155.81 50.45Q155.69 50.45 155.57 50.46Q155.46 50.47 155.34 50.48ZM155.34 51.49L155.34 51.49Q155.22 51.49 155.14 51.43Q155.06 51.38 155.02 51.29Q154.98 51.21 154.98 51.12L154.98 51.12Q154.98 50.96 155.09 50.84Q155.20 50.72 155.38 50.72L155.38 50.72Q155.61 50.72 155.73 50.83Q155.85 50.94 155.85 51.08L155.85 51.08Q155.85 51.24 155.71 51.37Q155.58 51.49 155.34 51.49ZM156.39 50.48L156.39 50.48Q156.46 50.23 156.52 49.99Q156.58 49.74 156.64 49.50L156.64 49.50Q156.69 49.26 156.75 49.01Q156.82 48.77 156.88 48.52L156.88 48.52Q157.11 48.49 157.29 48.46Q157.48 48.44 157.60 48.42L157.60 48.42Q157.39 48.92 157.21 49.43Q157.03 49.94 156.86 50.45L156.86 50.45Q156.74 50.45 156.62 50.46Q156.51 50.47 156.39 50.48ZM156.39 51.49L156.39 51.49Q156.27 51.49 156.19 51.43Q156.11 51.38 156.07 51.29Q156.03 51.21 156.03 51.12L156.03 51.12Q156.03 50.96 156.14 50.84Q156.25 50.72 156.43 50.72L156.43 50.72Q156.66 50.72 156.78 50.83Q156.90 50.94 156.90 51.08L156.90 51.08Q156.90 51.24 156.76 51.37Q156.63 51.49 156.39 51.49ZM158.53 51.28L157.91 51.41Q157.97 51.13 158.02 50.86Q158.07 50.59 158.12 50.33L158.12 50.33Q158.17 50.00 158.22 49.70Q158.27 49.41 158.32 49.13Q158.37 48.84 158.42 48.52L158.42 48.52L159.07 48.48Q159.00 48.76 158.93 49.06Q158.87 49.37 158.81 49.65L158.81 49.65L159.21 49.61Q159.23 49.47 159.26 49.33Q159.29 49.19 159.31 49.06L159.31 49.06Q159.33 48.93 159.36 48.79Q159.39 48.65 159.42 48.51L159.42 48.51Q159.57 48.49 159.71 48.47Q159.86 48.46 159.96 48.45Q160.06 48.45 160.06 48.45L160.06 48.45Q160.01 48.61 159.96 48.82Q159.90 49.04 159.86 49.28Q159.81 49.52 159.77 49.75Q159.72 49.99 159.69 50.20L159.69 50.20Q159.64 50.45 159.60 50.71Q159.56 50.97 159.52 51.23L159.52 51.23L158.90 51.30Q158.93 51.19 158.95 51.07Q158.97 50.95 158.99 50.84L158.99 50.84Q159.03 50.65 159.07 50.44Q159.11 50.23 159.14 50.08L159.14 50.08L158.75 50.12Q158.74 50.20 158.72 50.28Q158.71 50.37 158.69 50.47L158.69 50.47Q158.67 50.57 158.65 50.66Q158.63 50.76 158.62 50.85L158.62 50.85Q158.60 50.96 158.57 51.07Q158.55 51.17 158.53 51.28L158.53 51.28ZM160.18 51.33L159.52 51.38Q159.70 50.84 159.86 50.34L159.86 50.34Q159.92 50.13 160.00 49.89Q160.07 49.66 160.14 49.42Q160.21 49.18 160.28 48.96Q160.34 48.74 160.38 48.57L160.38 48.57Q160.60 48.57 160.80 48.55L160.80 48.55Q160.90 48.54 161.00 48.52Q161.11 48.51 161.22 48.50L161.22 48.50L161.20 48.70Q161.19 48.75 161.18 48.81Q161.17 48.87 161.17 48.93L161.17 48.93Q161.16 48.99 161.15 49.05Q161.13 49.11 161.13 49.18L161.13 49.18Q161.11 49.30 161.08 49.52Q161.05 49.74 161.00 50.00L161.00 50.00L161.05 50.00Q161.17 49.70 161.25 49.50Q161.32 49.30 161.37 49.17L161.37 49.17Q161.44 48.98 161.52 48.79Q161.60 48.60 161.65 48.50L161.65 48.50Q161.74 48.49 161.88 48.47Q162.01 48.45 162.15 48.43Q162.29 48.40 162.39 48.39L162.39 48.39Q162.33 48.72 162.29 49.06Q162.24 49.41 162.21 49.71Q162.17 50.02 162.15 50.27L162.15 50.27Q162.12 50.52 162.10 50.76Q162.08 51.00 162.06 51.24L162.06 51.24L161.37 51.36Q161.37 51.35 161.38 51.18Q161.39 51.01 161.42 50.75L161.42 50.75Q161.45 50.50 161.48 50.27Q161.51 50.04 161.53 49.89L161.53 49.89L161.50 49.89Q161.40 50.20 161.26 50.55Q161.11 50.91 160.98 51.35L160.98 51.35Q160.84 51.35 160.74 51.36Q160.64 51.36 160.51 51.37L160.51 51.37L160.64 49.89L160.58 49.89Q160.57 49.94 160.54 50.06Q160.51 50.19 160.46 50.35Q160.42 50.51 160.37 50.67L160.37 50.67Q160.19 51.30 160.18 51.33L160.18 51.33ZM162.79 51.27L162.10 51.40Q162.22 50.87 162.33 50.35L162.33 50.35Q162.37 50.14 162.42 49.91Q162.46 49.67 162.51 49.43Q162.56 49.18 162.60 48.96Q162.64 48.75 162.66 48.58L162.66 48.58Q162.82 48.54 163.01 48.50Q163.19 48.46 163.34 48.46L163.34 48.46Q163.58 48.46 163.72 48.56Q163.86 48.66 163.92 48.83Q163.98 49.00 163.98 49.21L163.98 49.21Q163.98 49.43 163.90 49.63Q163.82 49.84 163.68 50.00Q163.54 50.17 163.36 50.26Q163.19 50.36 162.99 50.36L162.99 50.36L162.95 50.36Q162.92 50.49 162.89 50.65Q162.86 50.81 162.84 50.95L162.84 50.95Q162.83 51.03 162.81 51.11Q162.80 51.19 162.79 51.27L162.79 51.27ZM163.03 49.94L163.03 49.94Q163.12 49.92 163.21 49.82Q163.30 49.72 163.36 49.57Q163.42 49.42 163.42 49.24L163.42 49.24Q163.42 49.09 163.36 49.01Q163.29 48.94 163.21 48.94L163.21 48.94Q163.17 49.20 163.13 49.44Q163.08 49.67 163.03 49.94ZM163.64 51.40L163.64 51.40Q163.70 51.21 163.75 50.97Q163.80 50.72 163.85 50.47Q163.89 50.21 163.93 49.99Q163.97 49.77 164.00 49.63L164.00 49.63Q164.04 49.36 164.08 49.09Q164.12 48.81 164.16 48.53L164.16 48.53L165.50 48.46L165.38 48.95L164.76 48.95L164.63 49.66Q164.70 49.66 164.76 49.66Q164.81 49.66 164.87 49.66L164.87 49.66L165.06 49.66Q165.10 49.66 165.14 49.66Q165.18 49.66 165.20 49.66L165.20 49.66Q165.20 49.71 165.19 49.77Q165.18 49.82 165.18 49.88L165.18 49.88L165.14 50.09Q165.06 50.09 164.90 50.09Q164.74 50.08 164.57 50.08L164.57 50.08L164.38 51.25Q164.31 51.27 164.25 51.28Q164.18 51.29 164.12 51.30L164.12 51.30Q164.00 51.32 163.87 51.35Q163.74 51.38 163.64 51.40ZM165.33 50.48L165.33 50.48Q165.39 50.23 165.45 49.99Q165.51 49.74 165.57 49.50L165.57 49.50Q165.63 49.26 165.69 49.01Q165.75 48.77 165.82 48.52L165.82 48.52Q166.04 48.49 166.23 48.46Q166.42 48.44 166.54 48.42L166.54 48.42Q166.32 48.92 166.14 49.43Q165.97 49.94 165.79 50.45L165.79 50.45Q165.68 50.45 165.56 50.46Q165.44 50.47 165.33 50.48ZM165.32 51.49L165.32 51.49Q165.20 51.49 165.12 51.43Q165.04 51.38 165.01 51.29Q164.97 51.21 164.97 51.12L164.97 51.12Q164.97 50.96 165.07 50.84Q165.18 50.72 165.37 50.72L165.37 50.72Q165.60 50.72 165.72 50.83Q165.83 50.94 165.83 51.08L165.83 51.08Q165.83 51.24 165.70 51.37Q165.57 51.49 165.32 51.49ZM167.46 51.28L166.85 51.41Q166.90 51.13 166.95 50.86Q167.00 50.59 167.05 50.33L167.05 50.33Q167.11 50.00 167.16 49.70Q167.21 49.41 167.26 49.13Q167.31 48.84 167.36 48.52L167.36 48.52L168.00 48.48Q167.93 48.76 167.87 49.06Q167.80 49.37 167.75 49.65L167.75 49.65L168.14 49.61Q168.17 49.47 168.20 49.33Q168.22 49.19 168.24 49.06L168.24 49.06Q168.26 48.93 168.29 48.79Q168.32 48.65 168.36 48.51L168.36 48.51Q168.50 48.49 168.65 48.47Q168.80 48.46 168.90 48.45Q169.00 48.45 169.00 48.45L169.00 48.45Q168.94 48.61 168.89 48.82Q168.84 49.04 168.79 49.28Q168.74 49.52 168.70 49.75Q168.66 49.99 168.62 50.20L168.62 50.20Q168.58 50.45 168.54 50.71Q168.50 50.97 168.46 51.23L168.46 51.23L167.83 51.30Q167.86 51.19 167.88 51.07Q167.91 50.95 167.93 50.84L167.93 50.84Q167.97 50.65 168.01 50.44Q168.05 50.23 168.07 50.08L168.07 50.08L167.69 50.12Q167.67 50.20 167.66 50.28Q167.64 50.37 167.62 50.47L167.62 50.47Q167.60 50.57 167.59 50.66Q167.57 50.76 167.55 50.85L167.55 50.85Q167.53 50.96 167.51 51.07Q167.48 51.17 167.46 51.28L167.46 51.28ZM169.61 51.39L169.61 51.39Q169.62 51.32 169.63 51.26Q169.63 51.20 169.64 51.13L169.64 51.13L169.67 50.91Q169.67 50.85 169.67 50.81Q169.68 50.76 169.68 50.72L169.68 50.72L169.33 50.72L169.18 51.29Q169.09 51.30 168.97 51.32Q168.85 51.33 168.74 51.34L168.74 51.34Q168.68 51.35 168.62 51.36Q168.56 51.37 168.49 51.38L168.49 51.38L168.81 50.33Q168.86 50.14 168.94 49.90Q169.01 49.66 169.08 49.41Q169.16 49.16 169.22 48.94Q169.29 48.72 169.33 48.57L169.33 48.57Q169.60 48.55 169.88 48.52Q170.16 48.49 170.43 48.44L170.43 48.44Q170.41 48.67 170.39 48.95Q170.37 49.23 170.36 49.53Q170.34 49.83 170.33 50.12L170.33 50.12Q170.32 50.40 170.31 50.69Q170.30 50.98 170.28 51.29L170.28 51.29Q170.22 51.30 170.17 51.30Q170.11 51.31 170.05 51.32L170.05 51.32Q169.95 51.34 169.83 51.36Q169.71 51.38 169.61 51.39ZM169.68 49.32L169.43 50.32Q169.45 50.32 169.52 50.32Q169.59 50.31 169.65 50.31Q169.71 50.30 169.72 50.30L169.72 50.30Q169.72 50.25 169.73 50.09Q169.75 49.93 169.77 49.76L169.77 49.76Q169.77 49.65 169.78 49.54Q169.79 49.43 169.81 49.32L169.81 49.32L169.83 48.97L169.77 48.97L169.68 49.32ZM170.25 48.04L170.25 48.04Q170.09 48.04 170.01 47.93Q169.93 47.83 169.93 47.69L169.93 47.69Q169.93 47.55 170.02 47.45Q170.12 47.34 170.29 47.34L170.29 47.34Q170.48 47.34 170.58 47.44Q170.68 47.54 170.68 47.66L170.68 47.66Q170.68 47.80 170.57 47.92Q170.46 48.04 170.25 48.04ZM169.32 48.04L169.32 48.04Q169.16 48.04 169.08 47.93Q169.00 47.83 169.00 47.69L169.00 47.69Q169.00 47.56 169.09 47.45Q169.18 47.34 169.36 47.34L169.36 47.34Q169.56 47.34 169.65 47.44Q169.75 47.54 169.75 47.66L169.75 47.66Q169.75 47.82 169.63 47.93Q169.51 48.04 169.32 48.04ZM171.37 50.41L170.90 50.46Q170.90 50.24 170.96 50.07Q171.02 49.90 171.12 49.77Q171.21 49.64 171.31 49.55L171.31 49.55Q171.47 49.40 171.59 49.29Q171.72 49.17 171.72 49.09L171.72 49.09Q171.72 49.06 171.69 49.02Q171.66 48.98 171.59 48.98L171.59 48.98Q171.52 48.98 171.41 49.04Q171.29 49.10 171.17 49.19Q171.05 49.28 170.95 49.37L170.95 49.37L170.74 48.88Q170.94 48.70 171.20 48.59Q171.45 48.49 171.72 48.49L171.72 48.49Q171.88 48.49 172.02 48.54Q172.17 48.58 172.26 48.70Q172.35 48.81 172.35 49.00L172.35 49.00Q172.35 49.27 172.22 49.46Q172.09 49.64 171.92 49.76L171.92 49.76Q171.74 49.90 171.58 50.05Q171.42 50.20 171.37 50.41L171.37 50.41ZM171.00 51.49L171.00 51.49Q170.84 51.49 170.76 51.39Q170.69 51.30 170.69 51.16L170.69 51.16Q170.69 51.06 170.74 50.96Q170.79 50.86 170.89 50.79Q170.99 50.72 171.13 50.72L171.13 50.72Q171.35 50.72 171.46 50.82Q171.56 50.91 171.56 51.04L171.56 51.04Q171.56 51.15 171.49 51.26Q171.43 51.36 171.30 51.43Q171.17 51.49 171.00 51.49ZM173.12 50.41L172.65 50.46Q172.65 50.24 172.71 50.07Q172.77 49.90 172.87 49.77Q172.96 49.64 173.06 49.55L173.06 49.55Q173.21 49.40 173.34 49.29Q173.47 49.17 173.47 49.09L173.47 49.09Q173.47 49.06 173.44 49.02Q173.41 48.98 173.34 48.98L173.34 48.98Q173.27 48.98 173.15 49.04Q173.04 49.10 172.92 49.19Q172.80 49.28 172.70 49.37L172.70 49.37L172.49 48.88Q172.69 48.70 172.95 48.59Q173.20 48.49 173.47 48.49L173.47 48.49Q173.63 48.49 173.77 48.54Q173.92 48.58 174.01 48.70Q174.10 48.81 174.10 49.00L174.10 49.00Q174.10 49.27 173.97 49.46Q173.84 49.64 173.66 49.76L173.66 49.76Q173.49 49.90 173.33 50.05Q173.17 50.20 173.12 50.41L173.12 50.41ZM172.75 51.49L172.75 51.49Q172.59 51.49 172.51 51.39Q172.44 51.30 172.44 51.16L172.44 51.16Q172.44 51.06 172.49 50.96Q172.54 50.86 172.64 50.79Q172.74 50.72 172.88 50.72L172.88 50.72Q173.10 50.72 173.20 50.82Q173.31 50.91 173.31 51.04L173.31 51.04Q173.31 51.15 173.24 51.26Q173.17 51.36 173.05 51.43Q172.92 51.49 172.75 51.49Z"/><path d="M176.73 49.69L176.52 49.95Q176.50 49.97 176.48 49.97L176.48 49.97Q176.45 49.97 176.43 49.93Q176.40 49.89 176.38 49.87L176.38 49.87Q176.22 49.71 176.09 49.81L176.09 49.81Q176.07 49.82 176.09 49.85L176.09 49.85Q176.17 49.98 176.23 50.10L176.23 50.10Q176.35 50.36 176.31 50.63Q176.28 50.89 176.13 51.11Q175.98 51.32 175.75 51.45Q175.52 51.59 175.24 51.59L175.24 51.59Q174.89 51.59 174.63 51.42Q174.37 51.25 174.35 50.94L174.35 50.94L174.39 50.78Q174.41 50.70 174.43 50.61L174.43 50.61Q174.50 50.41 174.41 50.34L174.41 50.34Q174.36 50.30 174.30 50.30L174.30 50.30Q174.24 50.29 174.24 50.25Q174.24 50.20 174.30 50.20L174.30 50.20Q174.35 50.20 174.41 50.21Q174.47 50.22 174.52 50.23L174.52 50.23Q174.73 50.28 174.85 50.40Q174.97 50.53 174.88 50.82L174.88 50.82Q174.81 51.09 174.86 51.27Q174.92 51.45 175.23 51.47L175.23 51.47Q175.51 51.48 175.66 51.32Q175.81 51.15 175.85 50.88L175.85 50.88Q175.88 50.69 175.77 50.46Q175.66 50.23 175.48 49.99L175.48 49.99Q175.06 49.47 175.14 49.24Q175.23 49.02 175.53 48.75L175.53 48.75L175.53 48.75Q175.54 48.74 175.57 48.74L175.57 48.74Q175.62 48.74 175.62 48.79L175.62 48.79Q175.62 48.81 175.60 48.83L175.60 48.83Q175.43 49.01 175.58 49.19L175.58 49.19Q175.69 49.32 175.79 49.45Q175.90 49.58 175.99 49.71L175.99 49.71Q176.01 49.74 176.04 49.71L176.04 49.71Q176.13 49.60 176.21 49.50Q176.30 49.39 176.39 49.28L176.39 49.28Q176.42 49.24 176.46 49.27L176.46 49.27Q176.54 49.33 176.61 49.39Q176.67 49.46 176.75 49.52L176.75 49.52Q176.76 49.53 176.79 49.55Q176.81 49.57 176.81 49.59L176.81 49.59Q176.81 49.61 176.78 49.64Q176.75 49.67 176.73 49.69L176.73 49.69ZM175.16 49.93L175.16 49.93Q174.76 50.11 174.38 49.95L174.38 49.95Q174.00 49.79 173.93 49.33Q173.87 48.87 174.21 48.48Q174.55 48.09 175.15 48.09L175.15 48.09Q175.44 48.09 175.73 48.18Q176.01 48.27 176.31 48.43L176.31 48.43Q176.50 48.53 176.69 48.47L176.69 48.47Q176.73 48.45 176.75 48.45L176.75 48.45Q176.79 48.44 176.80 48.47Q176.81 48.50 176.77 48.54L176.77 48.54Q176.62 48.64 176.48 48.75Q176.33 48.85 176.19 48.95L176.19 48.95Q176.14 48.99 176.08 48.96L176.08 48.96Q175.90 48.82 175.58 48.68Q175.26 48.54 174.94 48.54L174.94 48.54Q174.56 48.54 174.32 48.75Q174.08 48.97 174.09 49.30Q174.10 49.64 174.38 49.83Q174.66 50.01 175.10 49.84L175.10 49.84Q175.14 49.83 175.16 49.83Q175.19 49.84 175.20 49.86Q175.21 49.87 175.20 49.89Q175.19 49.92 175.16 49.93ZM177.70 49.58L177.70 50.37Q177.70 50.70 177.82 50.75L177.82 50.75Q177.83 50.76 177.83 50.77Q177.83 50.79 177.82 50.80L177.82 50.80Q177.64 50.93 177.53 51.16L177.53 51.16Q177.51 51.18 177.50 51.18Q177.48 51.18 177.47 51.16L177.47 51.16Q177.35 50.93 177.16 50.80L177.16 50.80Q177.15 50.79 177.15 50.77Q177.15 50.76 177.16 50.75L177.16 50.75Q177.29 50.70 177.29 50.37L177.29 50.37L177.29 49.71Q177.29 49.50 177.22 49.46L177.22 49.46Q177.13 49.40 177.07 49.50L177.07 49.50Q177.05 49.54 177.02 49.52Q177.00 49.50 177.03 49.45L177.03 49.45Q177.08 49.36 177.14 49.26Q177.19 49.16 177.25 49.07L177.25 49.07Q177.28 49.01 177.34 49.04L177.34 49.04L177.34 49.05Q177.63 49.19 177.69 49.41L177.69 49.41Q177.69 49.43 177.71 49.44Q177.73 49.44 177.74 49.43L177.74 49.43Q177.85 49.34 177.97 49.23Q178.08 49.13 178.13 49.04L178.13 49.04Q178.15 48.99 178.20 49.05L178.20 49.05Q178.32 49.17 178.40 49.25Q178.49 49.32 178.69 49.36L178.69 49.36Q178.73 49.37 178.73 49.39Q178.73 49.41 178.71 49.42L178.71 49.42Q178.65 49.44 178.61 49.49Q178.57 49.54 178.57 49.65L178.57 49.65L178.57 50.50Q178.57 50.70 178.65 50.75L178.65 50.75Q178.74 50.80 178.79 50.71L178.79 50.71Q178.81 50.67 178.84 50.69Q178.87 50.71 178.84 50.76L178.84 50.76Q178.78 50.85 178.73 50.95Q178.68 51.04 178.62 51.14L178.62 51.14Q178.59 51.19 178.53 51.16L178.53 51.16Q178.17 50.99 178.17 50.64L178.17 50.64L178.17 49.61Q178.17 49.55 178.14 49.54L178.14 49.54L178.14 49.54L178.14 49.53L177.97 49.39Q177.94 49.38 177.92 49.39L177.92 49.39L177.71 49.55Q177.70 49.56 177.70 49.58L177.70 49.58ZM179.05 49.39L179.05 49.39Q179.05 49.36 179.09 49.36L179.09 49.36Q179.21 49.33 179.26 49.25Q179.31 49.18 179.30 49.00L179.30 49.00Q179.28 48.80 179.23 48.68Q179.17 48.56 179.08 48.47L179.08 48.47Q179.05 48.44 179.07 48.41Q179.10 48.39 179.14 48.43L179.14 48.43Q179.19 48.48 179.24 48.55Q179.28 48.61 179.32 48.68L179.32 48.68Q179.33 48.70 179.35 48.70Q179.37 48.70 179.38 48.68L179.38 48.68Q179.50 48.48 179.71 48.36Q179.92 48.24 180.16 48.24L180.16 48.24Q180.20 48.25 180.21 48.28Q180.21 48.32 180.16 48.32L180.16 48.32Q179.96 48.32 179.84 48.43Q179.72 48.55 179.72 48.87L179.72 48.87Q179.72 48.90 179.75 48.91Q179.77 48.91 179.79 48.89L179.79 48.89Q179.91 48.62 180.16 48.55L180.16 48.55Q180.20 48.55 180.20 48.58L180.20 48.58L180.20 48.94Q180.20 48.98 180.16 48.97L180.16 48.97Q179.95 48.94 179.79 49.09L179.79 49.09Q179.76 49.14 179.76 49.18Q179.76 49.22 179.81 49.22L179.81 49.22L180.16 49.22Q180.19 49.22 180.19 49.26L180.19 49.26L180.19 49.39Q180.19 49.42 180.16 49.42L180.16 49.42L179.75 49.42Q179.72 49.42 179.72 49.46L179.72 49.46L179.72 50.58Q179.72 50.65 179.75 50.67L179.75 50.67L179.90 50.75Q179.94 50.77 180.03 50.65L180.03 50.65Q180.05 50.63 180.08 50.65Q180.11 50.67 180.09 50.69L180.09 50.69Q179.88 50.93 179.76 51.15L179.76 51.15Q179.74 51.20 179.69 51.15L179.69 51.15Q179.59 51.02 179.49 50.95Q179.40 50.88 179.20 50.84L179.20 50.84Q179.16 50.84 179.16 50.81Q179.16 50.79 179.18 50.78L179.18 50.78Q179.23 50.76 179.28 50.71Q179.32 50.66 179.32 50.55L179.32 50.55L179.31 49.46Q179.31 49.42 179.27 49.42L179.27 49.42L179.09 49.42Q179.05 49.42 179.05 49.39ZM180.95 49.07L180.95 49.07L181.30 49.07Q181.33 49.07 181.33 49.10L181.33 49.10L181.33 49.23Q181.33 49.26 181.30 49.26L181.30 49.26L181.06 49.26Q181.04 49.26 181.03 49.27Q181.02 49.28 181.03 49.29L181.03 49.29Q181.04 49.41 181.02 49.61L181.02 49.61L180.82 51.71Q180.81 51.78 180.78 51.78Q180.74 51.78 180.74 51.71L180.74 51.71Q180.69 51.10 180.63 50.49Q180.58 49.88 180.52 49.26L180.52 49.26L180.29 49.26Q180.26 49.26 180.26 49.23Q180.26 49.20 180.28 49.20L180.28 49.20Q180.41 49.18 180.50 49.07Q180.59 48.95 180.57 48.77L180.57 48.77Q180.56 48.49 180.65 48.30Q180.74 48.10 181.00 48.19L181.00 48.19Q181.15 48.24 181.27 48.28Q181.39 48.31 181.44 48.24L181.44 48.24Q181.46 48.19 181.48 48.20Q181.50 48.21 181.48 48.28L181.48 48.28Q181.41 48.51 181.29 48.58Q181.18 48.66 180.93 48.55L180.93 48.55Q180.70 48.44 180.66 48.66Q180.62 48.87 180.74 48.94L180.74 48.94Q180.87 49.00 180.91 49.05L180.91 49.05Q180.93 49.07 180.95 49.07ZM182.08 49.59L182.08 49.59L182.08 50.56Q182.08 50.63 182.11 50.65L182.11 50.65L182.26 50.73Q182.30 50.76 182.40 50.63L182.40 50.63Q182.42 50.61 182.45 50.62Q182.48 50.64 182.45 50.67L182.45 50.67Q182.24 50.91 182.13 51.13L182.13 51.13Q182.09 51.18 182.05 51.13L182.05 51.13Q181.94 51.00 181.84 50.94Q181.75 50.87 181.56 50.82L181.56 50.82Q181.52 50.81 181.52 50.79Q181.52 50.77 181.55 50.76L181.55 50.76Q181.68 50.74 181.68 50.53L181.68 50.53L181.68 49.68Q181.68 49.48 181.60 49.43L181.60 49.43Q181.52 49.37 181.46 49.47L181.46 49.47Q181.44 49.52 181.41 49.49Q181.38 49.47 181.41 49.42L181.41 49.42Q181.47 49.33 181.52 49.23Q181.58 49.14 181.63 49.04L181.63 49.04Q181.67 48.98 181.72 49.02L181.72 49.02Q182.02 49.16 182.07 49.38L182.07 49.38Q182.08 49.40 182.10 49.41Q182.12 49.41 182.13 49.39L182.13 49.39L182.44 49.04Q182.45 49.03 182.47 49.03Q182.48 49.03 182.49 49.04L182.49 49.04L182.70 49.45Q182.71 49.47 182.70 49.48L182.70 49.48L182.46 49.77Q182.45 49.78 182.43 49.78Q182.41 49.78 182.41 49.76L182.41 49.76L182.24 49.46Q182.23 49.45 182.22 49.45Q182.20 49.45 182.19 49.46L182.19 49.46L182.09 49.57Q182.08 49.58 182.08 49.59ZM183.55 49.46L183.55 49.46L183.55 50.58Q183.55 50.65 183.58 50.67L183.58 50.67L183.73 50.75Q183.77 50.79 183.87 50.65L183.87 50.65Q183.89 50.63 183.92 50.64Q183.95 50.66 183.92 50.69L183.92 50.69Q183.70 50.93 183.60 51.15L183.60 51.15Q183.56 51.20 183.52 51.15L183.52 51.15Q183.41 51.02 183.31 50.96Q183.22 50.89 183.03 50.84L183.03 50.84Q183.00 50.84 182.99 50.81Q182.99 50.79 183.02 50.78L183.02 50.78Q183.15 50.75 183.15 50.55L183.15 50.55L183.15 49.47Q183.15 49.43 183.12 49.43L183.12 49.43L182.88 49.43Q182.85 49.43 182.85 49.41L182.85 49.41Q182.84 49.39 182.86 49.37L182.86 49.37Q183.10 49.20 183.35 48.96Q183.60 48.72 183.81 48.50L183.81 48.50Q183.83 48.47 183.86 48.49Q183.88 48.51 183.86 48.54L183.86 48.54Q183.77 48.65 183.67 48.84Q183.58 49.02 183.56 49.17L183.56 49.17Q183.56 49.19 183.56 49.20L183.56 49.20Q183.57 49.21 183.59 49.21L183.59 49.21L183.94 49.21Q183.95 49.21 183.96 49.22L183.96 49.22Q183.97 49.23 183.97 49.25L183.97 49.25L183.96 49.40Q183.96 49.43 183.93 49.43L183.93 49.43L183.58 49.43Q183.55 49.43 183.55 49.46Z"/><path d="M184.23 52.11L184.17 52.11Q184.24 51.90 184.31 51.69L184.31 51.69L184.11 51.69L184.11 51.65L184.38 51.65L184.38 51.68Q184.29 51.91 184.23 52.11L184.23 52.11ZM184.69 51.86L184.64 51.86L184.64 47.92L184.69 47.92L184.69 51.86ZM184.80 51.86L184.75 51.86L184.75 47.92L184.80 47.92L184.80 51.86ZM184.99 52.11L184.99 52.11Q184.92 52.11 184.89 52.06L184.89 52.06Q184.85 52.00 184.85 51.90L184.85 51.90Q184.85 51.81 184.87 51.76L184.87 51.76Q184.89 51.70 184.93 51.67L184.93 51.67Q184.96 51.64 185.01 51.64L185.01 51.64Q185.07 51.64 185.11 51.68L185.11 51.68L185.08 51.72L185.07 51.72Q185.07 51.72 185.07 51.71L185.07 51.71Q185.06 51.70 185.06 51.70L185.06 51.70Q185.04 51.69 185.02 51.69L185.02 51.69Q184.99 51.69 184.96 51.70L184.96 51.70Q184.94 51.72 184.92 51.76L184.92 51.76Q184.90 51.80 184.90 51.87L184.90 51.87Q184.91 51.84 184.94 51.82L184.94 51.82Q184.97 51.81 185.00 51.81L185.00 51.81Q185.03 51.81 185.06 51.83L185.06 51.83Q185.09 51.85 185.11 51.88L185.11 51.88Q185.13 51.92 185.13 51.96L185.13 51.96Q185.13 52.01 185.11 52.04L185.11 52.04Q185.09 52.07 185.06 52.10L185.06 52.10Q185.03 52.11 184.99 52.11ZM184.99 52.07L184.99 52.07Q185.03 52.07 185.05 52.04L185.05 52.04Q185.07 52.01 185.07 51.96L185.07 51.96Q185.07 51.93 185.06 51.90L185.06 51.90Q185.05 51.88 185.03 51.87L185.03 51.87Q185.02 51.85 184.99 51.85L184.99 51.85Q184.97 51.85 184.94 51.87L184.94 51.87Q184.92 51.89 184.90 51.92L184.90 51.92Q184.90 51.93 184.90 51.94L184.90 51.94Q184.90 51.97 184.91 52.00L184.91 52.00Q184.92 52.03 184.94 52.05L184.94 52.05Q184.97 52.07 184.99 52.07ZM185.44 51.86L185.38 51.86L185.38 47.92L185.44 47.92L185.44 51.86ZM185.54 51.86L185.49 51.86L185.49 47.92L185.54 47.92L185.54 51.86ZM185.71 52.11L185.71 51.71L185.62 51.74L185.61 51.71L185.73 51.65L185.76 51.65L185.76 52.11L185.71 52.11ZM186.18 51.86L186.13 51.86L186.13 47.92L186.18 47.92L186.18 51.86ZM186.28 51.86L186.23 51.86L186.23 47.92L186.28 47.92L186.28 51.86ZM186.46 52.11L186.46 51.71L186.36 51.74L186.35 51.71L186.47 51.65L186.51 51.65L186.51 52.11L186.46 52.11ZM186.92 51.86L186.87 51.86L186.87 47.92L186.92 47.92L186.92 51.86ZM187.03 51.86L186.97 51.86L186.97 47.92L187.03 47.92L187.03 51.86ZM187.20 52.11L187.20 51.71L187.10 51.74L187.09 51.71L187.21 51.65L187.25 51.65L187.25 52.11L187.20 52.11ZM187.66 51.86L187.61 51.86L187.61 47.92L187.66 47.92L187.66 51.86ZM187.77 51.86L187.72 51.86L187.72 47.92L187.77 47.92L187.77 51.86ZM187.96 51.64L187.96 51.64Q188.02 51.64 188.06 51.71L188.06 51.71Q188.10 51.77 188.10 51.88L188.10 51.88Q188.10 51.99 188.06 52.06L188.06 52.06Q188.03 52.12 187.96 52.12L187.96 52.12Q187.89 52.12 187.85 52.06L187.85 52.06Q187.82 51.99 187.82 51.88L187.82 51.88Q187.82 51.77 187.85 51.71L187.85 51.71Q187.89 51.64 187.96 51.64ZM187.96 51.69L187.96 51.69Q187.91 51.69 187.89 51.74L187.89 51.74Q187.87 51.79 187.87 51.88L187.87 51.88Q187.87 51.93 187.87 51.96L187.87 51.96L188.03 51.76Q188.02 51.72 188.00 51.71L188.00 51.71Q187.98 51.69 187.96 51.69ZM187.96 52.07L187.96 52.07Q188.00 52.07 188.02 52.02L188.02 52.02Q188.05 51.97 188.05 51.88L188.05 51.88Q188.05 51.84 188.04 51.80L188.04 51.80L187.89 52.00Q187.91 52.07 187.96 52.07ZM188.41 51.86L188.35 51.86L188.35 47.92L188.41 47.92L188.41 51.86ZM188.51 51.86L188.46 51.86L188.46 47.92L188.51 47.92L188.51 51.86ZM188.70 51.64L188.70 51.64Q188.77 51.64 188.81 51.71L188.81 51.71Q188.84 51.77 188.84 51.88L188.84 51.88Q188.84 51.99 188.81 52.06L188.81 52.06Q188.77 52.12 188.70 52.12L188.70 52.12Q188.63 52.12 188.59 52.06L188.59 52.06Q188.56 51.99 188.56 51.88L188.56 51.88Q188.56 51.77 188.59 51.71L188.59 51.71Q188.63 51.64 188.70 51.64ZM188.70 51.69L188.70 51.69Q188.66 51.69 188.63 51.74L188.63 51.74Q188.61 51.79 188.61 51.88L188.61 51.88Q188.61 51.93 188.62 51.96L188.62 51.96L188.77 51.76Q188.76 51.72 188.74 51.71L188.74 51.71Q188.73 51.69 188.70 51.69ZM188.70 52.07L188.70 52.07Q188.74 52.07 188.77 52.02L188.77 52.02Q188.79 51.97 188.79 51.88L188.79 51.88Q188.79 51.84 188.78 51.80L188.78 51.80L188.63 52.00Q188.65 52.07 188.70 52.07ZM189.15 51.86L189.10 51.86L189.10 47.92L189.15 47.92L189.15 51.86ZM189.26 51.86L189.20 51.86L189.20 47.92L189.26 47.92L189.26 51.86ZM189.43 52.12L189.43 52.12Q189.40 52.12 189.36 52.10L189.36 52.10Q189.33 52.09 189.31 52.07L189.31 52.07L189.34 52.02L189.35 52.02L189.35 52.02Q189.35 52.03 189.35 52.03L189.35 52.03Q189.36 52.04 189.36 52.05L189.36 52.05Q189.38 52.06 189.39 52.07L189.39 52.07Q189.41 52.07 189.43 52.07L189.43 52.07Q189.48 52.07 189.50 52.05L189.50 52.05Q189.52 52.02 189.52 51.98L189.52 51.98Q189.52 51.93 189.49 51.91L189.49 51.91Q189.46 51.89 189.42 51.89L189.42 51.89Q189.41 51.89 189.39 51.89L189.39 51.89L189.39 51.85Q189.46 51.85 189.48 51.82L189.48 51.82Q189.50 51.80 189.50 51.76L189.50 51.76Q189.50 51.72 189.49 51.71L189.49 51.71Q189.47 51.69 189.44 51.69L189.44 51.69Q189.39 51.69 189.35 51.72L189.35 51.72L189.32 51.69Q189.37 51.64 189.44 51.64L189.44 51.64Q189.50 51.64 189.53 51.67L189.53 51.67Q189.56 51.71 189.56 51.76L189.56 51.76Q189.56 51.80 189.54 51.82L189.54 51.82Q189.52 51.85 189.49 51.86L189.49 51.86Q189.53 51.88 189.55 51.91L189.55 51.91Q189.58 51.94 189.58 51.98L189.58 51.98Q189.58 52.02 189.56 52.05L189.56 52.05Q189.54 52.08 189.51 52.10L189.51 52.10Q189.48 52.12 189.43 52.12ZM189.89 51.86L189.84 51.86L189.84 47.92L189.89 47.92L189.89 51.86ZM190.00 51.86L189.95 51.86L189.95 47.92L190.00 47.92L190.00 51.86Z"/>
            </svg>