<?xml version="1.0" encoding="UTF-8" standalone="no"?>
            <svg
               xmlns="http://www.w3.org/2000/svg"
               xmlns:svg="http://www.w3.org/2000/svg"
               width="100"
               height="100"
               version="1.1"
               id="svg1"
               viewBox="0 0 100 100"
               >
               <path fill="black" d="M-85.22 27.73L-85.22 19.92L-53.98 19.92L-53.98 27.73L-59.84 27.73L-51.78 52.94Q-50.56 56.72-49.59 61.90L-49.59 61.90Q-48.61 56.75-47.39 52.94L-47.39 52.94L-39.33 27.73L-48.12 27.73L-48.12 19.92L-16.88 19.92L-16.88 27.73L-23.71 27.73L-15.66 52.94Q-14.44 56.72-13.46 61.90L-13.46 61.90Q-12.48 56.75-11.26 52.94L-11.26 52.94L-3.21 27.73L-11.02 27.73L-11.02 19.92L13.39 19.92L13.39 27.73L6.55 27.73L-13.14 80.45L-22.57 80.45L-34.23 49.21Q-35.55 45.67-35.92 43.35L-35.92 43.35Q-36.28 45.67-37.60 49.21L-37.60 49.21L-49.27 80.45L-58.69 80.45L-78.39 27.73L-85.22 27.73ZM37.31 26.75L37.31 26.75Q37.31 23.51 39.59 21.22Q41.87 18.94 45.12 18.94L45.12 18.94Q46.34 18.94 47.51 19.31L47.51 19.31Q49.02 19.77 50.16 20.53Q51.29 21.28 52.00 22.19Q52.71 23.09 53.15 24.27Q53.59 25.46 53.75 26.64Q53.91 27.83 53.91 29.27L53.91 29.27Q53.91 30.75 53.32 32.39Q52.73 34.02 51.77 35.48Q50.81 36.93 49.67 38.19Q48.54 39.44 47.34 40.40L47.34 40.40Q50.98 43.98 50.98 49.21L50.98 49.21Q50.98 53.11 49.28 56.15Q47.58 59.19 44.61 61.06Q41.63 62.92 37.81 63.88Q33.99 64.83 29.50 64.83L29.50 64.83Q25.79 64.83 22.39 64.00L22.39 64.00Q20.17 64.34 18.98 65.19Q17.78 66.05 17.78 66.78L17.78 66.78Q17.78 67.51 18.39 68.12Q19.00 68.73 19.73 68.73L19.73 68.73L33.40 68.73Q43.73 68.73 48.33 71.69Q52.93 74.64 52.93 81.43L52.93 81.43Q52.93 84.70 52.12 87.37Q51.32 90.04 49.94 91.93Q48.56 93.82 46.53 95.28Q44.51 96.73 42.29 97.61Q40.07 98.49 37.33 99.02Q34.60 99.56 32.04 99.77Q29.47 99.98 26.57 99.98L26.57 99.98Q21.93 99.98 18.18 98.96Q14.44 97.95 12.03 96.19Q9.63 94.43 8.34 92.15Q7.04 89.87 7.04 87.28L7.04 87.28Q7.04 81.99 13.12 79.01L13.12 79.01Q10.75 77.81 9.38 75.73Q8.02 73.64 8.02 70.69L8.02 70.69Q8.02 67.39 9.92 64.71Q11.83 62.02 15.05 60.80L15.05 60.80Q12.19 58.77 10.59 55.87Q8.99 52.97 8.99 49.21L8.99 49.21Q8.99 46.08 10.10 43.59Q11.22 41.10 13.11 39.46Q15.00 37.81 17.65 36.72Q20.30 35.64 23.22 35.17Q26.15 34.71 29.50 34.71L29.50 34.71Q37.21 34.71 42.65 37.25L42.65 37.25Q43.90 35.81 44.58 34.54L44.58 34.54Q41.53 34.34 39.42 32.10Q37.31 29.85 37.31 26.75ZM29.99 42.37L29.99 42.37Q26.54 42.37 24.60 44.35Q22.66 46.33 22.66 50.06L22.66 50.06Q22.66 53.82 24.62 55.91Q26.57 57.99 29.99 57.99L29.99 57.99Q33.38 57.99 35.34 55.88Q37.31 53.77 37.31 50.06L37.31 50.06Q37.31 46.38 35.36 44.37Q33.40 42.37 29.99 42.37ZM36.33 80.45L22.54 80.45Q19.73 82.45 19.73 85.33L19.73 85.33Q19.73 88.24 21.54 89.22Q23.35 90.21 28.52 90.21L28.52 90.21Q40.24 90.21 40.24 84.35L40.24 84.35Q40.24 82.89 39.02 81.67Q37.80 80.45 36.33 80.45L36.33 80.45ZM89.54 34.56L89.54 34.56Q92.96 34.56 95.52 35.49Q98.08 36.42 99.72 38.04Q101.35 39.66 102.37 42.16Q103.38 44.67 103.78 47.53Q104.19 50.40 104.19 54.09L104.19 54.09L104.19 72.64L109.07 72.64L109.07 80.45L85.64 80.45L85.64 72.64L90.52 72.64L90.52 53.11Q90.52 49.26 89.82 47.11Q89.13 44.96 87.82 44.15Q86.51 43.35 84.27 43.35L84.27 43.35Q82.22 43.35 80.07 45.08Q77.92 46.81 75.99 49.91L75.99 49.91L75.87 72.64L80.75 72.64L80.75 80.45L57.32 80.45L57.32 72.64L62.20 72.64L62.20 43.35L57.32 43.35L57.32 35.54L72.48 35.54L75.90 42.15Q76.80 40.52 77.98 39.21Q79.17 37.91 80.82 36.82Q82.46 35.73 84.68 35.15Q86.91 34.56 89.54 34.56ZM109.38 95.51L109.38 95.51Q108.09 93.56 108.09 91.19L108.09 91.19Q108.09 87.94 110.37 85.66Q112.66 83.38 115.90 83.38Q119.15 83.38 121.43 85.66Q123.71 87.94 123.71 91.19L123.71 91.19Q123.71 91.87 123.59 92.51L123.59 92.51Q123.69 92.53 123.76 92.53L123.76 92.53Q125.52 92.53 128.06 86.72L128.06 86.72L129.89 82.52L112.68 43.35L108.09 43.35L108.09 35.54L135.43 35.54L135.43 43.35L127.40 43.35L135.14 60.92Q136.62 64.39 137.28 66.78L137.28 66.78Q137.94 64.39 139.43 60.92L139.43 60.92L147.14 43.35L140.31 43.35L140.31 35.54L160.81 35.54L160.81 43.35L155.64 43.35L139.33 80.45Q138.06 83.33 137.05 85.42Q136.04 87.50 134.78 89.66Q133.52 91.82 132.35 93.31Q131.18 94.80 129.70 96.14Q128.23 97.49 126.64 98.28Q125.05 99.07 123.13 99.52Q121.20 99.98 118.98 99.98L118.98 99.98Q116.90 99.98 115.32 99.65Q113.73 99.32 112.62 98.67Q111.51 98.02 110.78 97.28Q110.04 96.53 109.38 95.51ZM167.98 30.33Q165.69 28.04 165.69 24.80Q165.69 21.55 167.98 19.27Q170.26 16.99 173.51 16.99Q176.75 16.99 179.03 19.27Q181.32 21.55 181.32 24.80Q181.32 28.04 179.03 30.33Q176.75 32.61 173.51 32.61Q170.26 32.61 167.98 30.33ZM161.79 43.35L161.79 35.54L180.34 35.54L180.34 72.64L185.22 72.64L185.22 80.45L161.79 80.45L161.79 72.64L166.67 72.64L166.67 43.35L161.79 43.35Z"/>
            </svg>