<?xml version="1.0" encoding="UTF-8" standalone="no"?>
            <svg
               xmlns="http://www.w3.org/2000/svg"
               xmlns:svg="http://www.w3.org/2000/svg"
               width="100"
               height="100"
               version="1.1"
               id="svg1"
               viewBox="0 0 100 100"
               >
               <path fill="black" d="M-26.42 75.58L-26.42 75.58Q-26.67 75.58-26.96 75.58Q-27.25 75.58-27.58 75.50L-27.58 75.50Q-36.92 74.83-42.21 74.50Q-47.50 74.17-48.67 74.17L-48.67 74.17Q-50.00 74.17-51.17 74.21Q-52.33 74.25-53.42 74.33L-53.42 74.33Q-54.42 74.42-57.50 74.63Q-60.58 74.83-65.83 75.25L-65.83 75.25L-65.08 73.50Q-64.83 73.58-64.50 73.63Q-64.17 73.67-63.83 73.67L-63.83 73.67Q-61.42 73.67-59.17 72.75L-59.17 72.75Q-56.33 71.67-55.83 69.50L-55.83 69.50Q-55.00 66.25-55.00 52L-55.00 52Q-55.00 45-55.00 41.12Q-55.00 37.25-55.08 36.50L-55.08 36.50Q-55.33 23.75-56.83 22.25L-56.83 22.25Q-58.58 20.67-62.00 20.67L-62.00 20.67Q-62.42 20.67-62.92 20.71Q-63.42 20.75-63.92 20.75L-63.92 20.75L-63.08 19.17Q-59.00 19.75-51.92 19.92L-51.92 19.92L-28.17 19.67Q-27.33 19.75-27.33 20.92L-27.33 20.92Q-27.33 21.33-27.46 22.00Q-27.58 22.67-27.75 23.58L-27.75 23.58L-28.50 26.33L-29.33 31.25L-31.00 30.83Q-29.67 27.33-29.67 26.17L-29.67 26.17Q-29.67 23.58-34.58 22.92L-34.58 22.92Q-35.42 22.83-36.75 22.79Q-38.08 22.75-39.83 22.75L-39.83 22.75L-41.17 22.75Q-43.42 22.75-45.08 22.83Q-46.75 22.92-47.75 23.08L-47.75 23.08Q-49.00 27.58-49.00 44.67L-49.00 44.67L-31.33 44.50Q-30.50 44.50-30.50 45.50L-30.50 45.50Q-30.50 45.83-30.58 46.38Q-30.67 46.92-30.92 47.83L-30.92 47.83Q-31.08 48.67-31.21 49.38Q-31.33 50.08-31.33 50.50L-31.33 50.50Q-31.33 50.67-31.29 51.17Q-31.25 51.67-31.25 52.50L-31.25 52.50L-32.92 52.92L-32.42 51.08Q-32.42 47.50-37.50 47.42L-37.50 47.42Q-42.50 47.17-45.83 47.17L-45.83 47.17Q-46.67 47.17-47.50 47.17Q-48.33 47.17-49.00 47.25L-49.00 47.25Q-48.92 65-48.00 69.50L-48.00 69.50Q-47.75 71.08-46.42 71.58L-46.42 71.58Q-45.42 72-41.17 72.50L-41.17 72.50Q-39.25 72.75-37.17 72.75L-37.17 72.75Q-28.75 72.75-26.00 70.75L-26.00 70.75Q-24.50 69.67-23.00 67.08L-23.00 67.08Q-21.50 64.67-21.25 63.08L-21.25 63.08L-20.08 63.50Q-20.92 65.33-21.42 67.29Q-21.92 69.25-22.33 71.42L-22.33 71.42Q-22.58 73.75-23.42 74.58L-23.42 74.58Q-24.25 75.58-26.42 75.58ZM-4.33 76.58L-4.33 76.58Q-10.75 76.58-13.92 74.92L-13.92 74.92Q-14.50 74.58-14.50 73.83L-14.50 73.83Q-14.25 69.08-14.25 65.58L-14.25 65.58L-14.25 62.58L-12.42 61.92Q-12.42 67.50-12.17 68.50L-12.17 68.50Q-11.67 70.83-8.33 72.50L-8.33 72.50Q-5.00 74.17-1.33 74.17L-1.33 74.17Q1.83 74.17 4.33 72.83L4.33 72.83Q8.92 70.33 8.92 63.58L8.92 63.58Q8.92 60.25 7.67 57.42L7.67 57.42Q5.75 53.17-0.00 49.75L-0.00 49.75Q-4.33 47.17-6.63 45.79Q-8.92 44.42-9.08 44.25L-9.08 44.25Q-13.50 40.58-13.50 34.92L-13.50 34.92Q-13.50 28.25-8.33 23.58L-8.33 23.58Q-3.42 19.00 4.25 19.00L4.25 19.00L4.33 19.00Q9.08 19.00 12.17 20.42L12.17 20.42Q14.08 21.42 14.08 22.25L14.08 22.25L14.08 22.58Q12.33 27.17 12.33 32.58L12.33 32.58L10.58 31.83Q11.08 30.58 11.08 28.42L11.08 28.42Q11.08 25.17 9.25 23.67L9.25 23.67Q6.17 21.33 2.08 21.33L2.08 21.33Q-2.08 21.33-4.75 23.75L-4.75 23.75Q-7.83 26.50-7.83 31.33L-7.83 31.33Q-7.83 36.42-3.42 40.08L-3.42 40.08Q-2.67 40.75-0.38 42.21Q1.92 43.67 5.75 46L5.75 46Q11.67 49.50 13.67 52.75L13.67 52.75Q15.83 56.42 15.83 60.58L15.83 60.58Q15.83 64.83 13.75 68.42L13.75 68.42Q11.42 72.25 7.67 74.08L7.67 74.08Q2.83 76.58-4.33 76.58ZM51.58 75.58L51.58 75.58Q47.75 75.58 47.75 69.42L47.75 69.42Q47.75 69.17 47.75 68.88Q47.75 68.58 47.83 68.25L47.83 68.25Q47.25 68.58 46.71 69.04Q46.17 69.50 45.58 69.92L45.58 69.92Q38.58 75.25 32.67 75.25L32.67 75.25Q29.75 75.25 27.71 73.63Q25.67 72 24.62 69.42Q23.58 66.83 23.58 63.92L23.58 63.92Q23.58 61.92 24.42 60.75Q25.25 59.58 26.42 58.83Q27.58 58.08 28.50 57.33L28.50 57.33Q30.67 55.58 32.04 54.54Q33.42 53.50 34.75 52.92L34.75 52.92Q35.92 52.42 38.33 52.13Q40.75 51.83 43.42 51.67Q46.08 51.50 47.92 51.50L47.92 51.50L47.92 50.42Q47.92 44.58 47.08 42.17L47.08 42.17Q45.58 37.83 41 37.83L41 37.83Q35.17 37.83 31.83 40.92L31.83 40.92Q28.17 44.33 28.17 49.83L28.17 49.83Q28.17 50.17 28.21 50.46Q28.25 50.75 28.25 50.92L28.25 50.92L26.92 51.92L27.00 51.50Q27.00 49.25 25.92 45.25L25.92 45.25Q25.17 42.75 25.17 42.50L25.17 42.50Q25.17 41.75 25.92 40.75L25.92 40.75Q28.08 37.92 33.83 36.42L33.83 36.42Q36 35.83 38.29 35.58Q40.58 35.33 43 35.33L43 35.33Q53.92 35.33 53.92 45.50L53.92 45.50Q53.92 46.42 53.88 47.83Q53.83 49.25 53.75 51.17L53.75 51.17Q53.67 53 53.63 54.42Q53.58 55.83 53.58 56.75L53.58 56.75Q53.58 66.67 54.33 70.33L54.33 70.33Q55 73 58.75 73.33L58.75 73.33Q59.25 73.42 59.71 73.42Q60.17 73.42 60.50 73.42L60.50 73.42Q61.83 73.42 62.42 73.17L62.42 73.17L61.42 75.25Q60.58 75.17 59.33 75.21Q58.08 75.25 56.50 75.33L56.50 75.33Q53.17 75.58 51.58 75.58ZM36.58 70.50L36.58 70.50Q38.42 70.50 40.50 69.79Q42.58 69.08 44 68.17L44 68.17Q47.17 66 47.67 62.75L47.67 62.75Q47.75 61.33 47.75 59.21Q47.75 57.08 47.83 54.50L47.83 54.50Q43 54.67 39.63 55.08Q36.25 55.50 34.17 56.25L34.17 56.25Q31.58 57.25 30.29 59.17Q29.00 61.08 29.00 63.17L29.00 63.17Q29.00 65.92 31.00 68.21Q33 70.50 36.58 70.50ZM82.25 75.67L82.25 75.67Q73.08 75.67 69.33 70.50L69.33 70.50Q66.17 65.92 66.17 56.08L66.17 56.08Q66.17 48 68.75 42.92L68.75 42.92Q72.92 34.67 85.58 34.67L85.58 34.67Q92.92 34.67 96.67 38.17L96.67 38.17Q100.17 41.42 100.17 47.08L100.17 47.08L97.75 50.25Q95.75 53.08 95.17 53L95.17 53Q93.33 52.75 91.25 52.75L91.25 52.75Q90.92 52.75 90.46 52.79Q90 52.83 89.58 52.83L89.58 52.83L83.42 53Q80.08 53 77.38 53.13Q74.67 53.25 72.42 53.42L72.42 53.42L72.42 54.75Q72.42 63.17 73.92 66.83L73.92 66.83Q76.50 73 84.67 73L84.67 73Q96.08 73 98.08 62.67L98.08 62.67Q98.17 62.33 98.17 62.04Q98.17 61.75 98.17 61.58L98.17 61.58L99.92 60.75Q99.75 62.42 99.67 66.42L99.67 66.42Q99.75 67.25 99.79 68.25Q99.83 69.25 99.83 70.50L99.83 70.50Q99.75 71.33 98.75 72.17L98.75 72.17Q95.25 75.67 82.25 75.67ZM79.08 50.33L79.08 50.33Q80 50.33 80.92 50.33Q81.83 50.33 82.92 50.25L82.92 50.25Q86.42 50.17 88.96 50Q91.50 49.83 93.08 49.67L93.08 49.67Q94.75 49.42 94.75 46.92L94.75 46.92Q94.75 46.25 94.67 45.58Q94.58 44.92 94.33 44.17L94.33 44.17Q92.25 37.17 84.58 37.17L84.58 37.17Q74.33 37.17 72.83 47.50L72.83 47.50Q72.75 47.75 72.75 48.38Q72.75 49 72.58 49.92L72.58 49.92Q73.50 50.08 75.13 50.21Q76.75 50.33 79.08 50.33ZM116.83 75.92L116.83 75.92Q113.00 75.92 107.83 74.17L107.83 74.17Q107.17 73.92 107.17 73.50L107.17 73.50L107.17 73.33Q108.42 68.17 108.42 63.33L108.42 63.33L108.42 61.92L109.83 61.42Q109.83 66.92 110.08 67.67L110.08 67.67Q110.75 70.33 113.67 72.08L113.67 72.08Q116.58 73.83 119.75 73.83L119.75 73.83Q121.83 73.83 123.42 73.08L123.42 73.08Q127.83 70.83 127.83 66L127.83 66Q127.83 64.08 127.08 62.75L127.08 62.75Q125.67 59.75 120.67 57.33L120.67 57.33Q117.08 55.67 115.17 54.67Q113.25 53.67 112.83 53.42L112.83 53.42Q109.08 50.75 109.08 46.33L109.08 46.33Q109.08 41.58 113.42 38.25L113.42 38.25Q117.75 35.08 123.58 35.08L123.58 35.08Q128.42 35.08 130.83 36.17L130.83 36.17Q132.25 36.75 132.25 37.83L132.25 37.83L132.25 38.08Q131.92 39.50 131.92 42.25L131.92 42.25Q131.92 43.08 131.96 44.17Q132 45.25 132.08 46.42L132.08 46.42L130.25 47.33Q130.42 46.83 130.42 45.33L130.42 45.33L130.42 43.42Q130.33 40.25 127.75 38.33L127.75 38.33Q125.75 37.00 123.25 37.00L123.25 37.00Q119.83 37.00 117.08 39.00L117.08 39.00Q114.17 41.17 114.17 44.25L114.17 44.25Q114.17 47.25 118.00 49.83L118.00 49.83Q118.42 50.08 120.33 51.13Q122.25 52.17 125.83 54.08L125.83 54.08Q130.67 56.58 132.33 59L132.33 59Q133.92 61.17 133.92 64L133.92 64Q133.92 67 132 69.92L132 69.92Q130 72.67 126.67 74.17L126.67 74.17Q122.83 75.92 116.83 75.92ZM154.17 75.50L154.17 75.50Q148.17 75.50 146.17 73L146.17 73Q144.50 70.83 144.25 65.92L144.25 65.92Q144.17 65.50 144.17 64.79Q144.17 64.08 144.17 63.08L144.17 63.08Q144.17 62.17 144.17 60.96Q144.17 59.75 144.25 58.25L144.25 58.25Q144.25 57.33 144.29 54.96Q144.33 52.58 144.33 48.58L144.33 48.58Q144.33 47.17 144.29 45.54Q144.25 43.92 144.25 42.08L144.25 42.08L144.25 38.50L138.92 38.50L140.33 36.67L144.25 36.67L144.25 28.08Q144.25 27.50 147.17 25.25L147.17 25.25Q150.08 23.00 151.08 23.00L151.08 23.00Q151.42 23.00 151.42 23.33L151.42 23.33L151.42 23.50Q150.17 29.08 149.67 36.67L149.67 36.67L162.67 36.75Q162.83 36.75 162.83 36.83L162.83 36.83Q162.83 37.25 161.50 38.42L161.50 38.42Q160.08 39.58 159.25 39.33L159.25 39.33Q157.50 39.00 155.08 38.79Q152.67 38.58 149.50 38.50L149.50 38.50L149.42 41.25Q149.33 45.25 149.17 48.71Q149.00 52.17 149.00 55.08L149.00 55.08Q149.00 58.83 149.13 61.71Q149.25 64.58 149.58 66.67L149.58 66.67Q150.50 72.67 155.42 72.67L155.42 72.67Q157.92 72.67 159.58 71.50L159.58 71.50Q161.83 70 162.50 66.17L162.50 66.17Q162.75 64.33 163.00 61.58L163.00 61.58L165.00 60.75Q164.92 61.08 164.79 62.25Q164.67 63.42 164.50 65.58L164.50 65.58L164.25 70.83Q164.17 72.92 160.50 74.33L160.50 74.33Q158.92 74.92 157.33 75.21Q155.75 75.50 154.17 75.50Z"/>
            </svg>