<?xml version="1.0" encoding="UTF-8" standalone="no"?>
            <svg
               xmlns="http://www.w3.org/2000/svg"
               xmlns:svg="http://www.w3.org/2000/svg"
               width="100"
               height="100"
               version="1.1"
               id="svg1"
               viewBox="0 0 100 100"
               >
               <path fill="black" d="M-50.45 27.84L-50.45 27.84L-50.45 47.18Q-41.94 47.18-33.17 46.37L-33.17 46.37L-30.30 46.11L-29.32 47.18L-30.30 52.19Q-40.96 51.57-50.45 51.57L-50.45 51.57L-50.45 74.04L-31.02 73.68L-26.72 65.80L-24.04 66.43L-24.04 78.69L-65.22 78.69L-65.76 76.72L-60.83 74.66Q-59.22 74.04-58.64 73.32Q-58.06 72.61-58.06 71.26L-58.06 71.26L-58.06 25.60L-65.76 22.47L-65.22 20.50L-24.49 20.50L-24.49 32.77L-27.17 33.39L-31.47 25.51L-48.03 25.16Q-50.45 25.16-50.45 27.84ZM12.94 35.36L12.49 26.95Q9.53 25.34 3.31 25.34Q-2.91 25.34-6.85 28.65L-6.85 28.65Q-7.92 30.35-7.92 33.57L-7.92 33.57Q-7.92 40.47-0.58 43.24L-0.58 43.24L11.06 47.72Q22.52 52.10 22.52 63.56L22.52 63.56Q22.52 71.35 17.05 75.38Q11.59 79.41 2.91 79.41L2.91 79.41Q-9.09 79.41-16.88 72.07L-16.88 72.07L-11.15 62.31L-9.00 62.94L-7.65 71.53Q-4.34 73.86 1.92 73.86L1.92 73.86Q15.26 73.86 15.26 64.82L15.26 64.82Q15.26 61.15 12.94 58.82Q10.61 56.49 5.68 54.61L5.68 54.61L-4.61 50.67Q-15.09 46.64-15.09 36.17L-15.09 36.17Q-15.09 28.29-9.53 24.04Q-3.98 19.79 4.61 19.79L4.61 19.79Q15.09 19.79 21.44 27.13L21.44 27.13L15.09 35.99L12.94 35.36ZM36.57 66.79Q36.57 70.55 38.63 72.07Q40.69 73.59 43.42 73.59Q46.15 73.59 50.72 72.07L50.72 72.07L50.90 61.68Q39.44 62.31 36.66 65.62L36.66 65.62Q36.57 66.07 36.57 66.79L36.57 66.79ZM51.25 76.19L50.81 76.01Q44.99 79.41 40.15 79.41Q35.32 79.41 32.50 76.32Q29.68 73.23 29.68 68.44Q29.68 63.65 34.38 61.06Q39.08 58.46 50.90 57.74L50.90 57.74L50.98 51.92Q51.07 47.90 49.06 45.43Q47.05 42.97 43.55 42.97Q40.06 42.97 37.47 43.78L37.47 43.78L36.75 50.58L34.60 51.21L29.68 44.23Q31.65 41.99 35.59 39.84Q39.53 37.69 44.99 37.69L44.99 37.69Q58.33 37.69 58.33 53.89L58.33 53.89L57.88 73.86L64.06 76.01L63.52 77.98L55.91 79.41L54.12 78.69L51.25 76.19ZM68.26 58.55Q68.26 48.70 73.90 43.20Q79.54 37.69 87.06 37.69Q94.58 37.69 98.43 42.12Q102.28 46.55 102.28 54.25L102.28 54.25L102.28 57.21L100.94 58.55L75.87 58.55Q76.05 65.44 79.72 69.56Q83.39 73.68 89.17 73.68Q94.94 73.68 100.22 71.35L100.22 71.35L101.48 73.68Q100.40 74.75 98.88 75.87Q97.36 76.99 94.00 78.20Q90.64 79.41 86.97 79.41L86.97 79.41Q78.65 79.41 73.46 73.90Q68.26 68.40 68.26 58.55ZM86.08 43.42L86.08 43.42Q81.87 43.42 79.19 44.76L79.19 44.76Q78.11 46.11 77.08 49.06Q76.05 52.01 75.96 54.70L75.96 54.70L95.12 54.16Q95.12 43.42 86.08 43.42ZM130.21 49.69L129.50 43.42Q127.44 42.52 123.19 42.52Q118.93 42.52 116.79 44.67L116.79 44.67Q115.98 45.93 115.98 47.63L115.98 47.63Q115.98 51.39 120.55 53.09L120.55 53.09L129.68 56.31Q133.53 57.65 135.85 60.65Q138.18 63.65 138.18 67.68L138.18 67.68Q138.18 73.32 133.89 76.37Q129.59 79.41 123.81 79.41Q118.04 79.41 114.15 77.48Q110.25 75.56 108.46 73.41L108.46 73.41L113.03 65.98L115.26 66.61L115.62 72.61Q118.76 74.40 123.59 74.40L123.59 74.40Q131.74 74.40 131.74 68.85L131.74 68.85Q131.74 66.61 130.30 65.26Q128.87 63.92 125.65 62.85L125.65 62.85L117.41 60.16Q113.74 58.91 111.77 56.04Q109.80 53.18 109.80 49.60L109.80 49.60Q109.80 43.96 114.28 40.82Q118.76 37.69 124.66 37.69L124.66 37.69Q128.25 37.69 131.38 39.12L131.38 39.12Q135.77 41.00 137.29 43.33L137.29 43.33L132.36 50.31L130.21 49.69ZM149.19 70.73L149.19 70.73L149.19 42.70L142.93 42.70L142.39 40.73L149.19 37.69L153.13 29.36L156.45 29.99L156.45 38.41L167.10 38.41L168.08 39.48L167.19 42.88L156.45 42.52L156.45 68.67Q156.45 71.98 157.79 73.55Q159.13 75.11 162.53 75.11L162.53 75.11L167.64 75.11L168.08 77.62Q162.44 79.41 158.15 79.41Q153.85 79.41 151.52 76.99Q149.19 74.57 149.19 70.73Z"/>
            </svg>