<?xml version="1.0" encoding="UTF-8" standalone="no"?>
            <svg
               xmlns="http://www.w3.org/2000/svg"
               xmlns:svg="http://www.w3.org/2000/svg"
               width="100"
               height="100"
               version="1.1"
               id="svg1"
               viewBox="0 0 100 100"
               >
               <path fill="black" d="M-78.31 77.54L-78.31 23.69L-35.54 23.69L-35.54 26.62L-73.69 26.62L-73.69 47.23L-40.00 47.23L-40.00 50L-73.69 50L-73.69 74.62L-35.54 74.62L-35.54 77.54L-78.31 77.54ZM-4.38 78.31Q-15.38 78.31-21.62 73.96Q-27.85 69.62-28.62 61.31L-28.62 61.31L-24.00 61.31Q-23.38 68.46-18.62 71.92Q-13.85 75.38-4.54 75.38L-4.54 75.38Q4.15 75.38 8.96 72.35Q13.77 69.31 13.77 63.77L13.77 63.77Q13.77 60.38 11.88 58.08Q10.00 55.77 5.73 54.12Q1.46 52.46-5.92 51.08L-5.92 51.08Q-13.92 49.62-18.54 47.77Q-23.15 45.92-25.19 43.27Q-27.23 40.62-27.23 36.69L-27.23 36.69Q-27.23 32.46-24.54 29.38Q-21.85 26.31-16.88 24.62Q-11.92 22.92-5.15 22.92L-5.15 22.92Q4.38 22.92 10.08 26.50Q15.77 30.08 16.92 36.85L16.92 36.85L12.31 36.85Q11.15 31.23 6.69 28.54Q2.23 25.85-5.77 25.85L-5.77 25.85Q-13.85 25.85-18.23 28.46Q-22.62 31.08-22.62 35.92L-22.62 35.92Q-22.62 39-20.88 41.04Q-19.15 43.08-15.15 44.58Q-11.15 46.08-4.08 47.46L-4.08 47.46Q4.23 49.08 9.12 51.12Q14.00 53.15 16.19 56.08Q18.38 59 18.38 63.31L18.38 63.31Q18.38 70.31 12.35 74.31Q6.31 78.31-4.38 78.31L-4.38 78.31ZM41.92 78.31Q34.92 78.31 31.19 75.35Q27.46 72.38 27.46 66.85L27.46 66.85Q27.46 60.85 32.08 57.73Q36.69 54.62 45.54 54.62L45.54 54.62L57.54 54.62L57.54 51.77Q57.54 46.85 54.38 44.27Q51.23 41.69 45.23 41.69L45.23 41.69Q39.69 41.69 36.31 44.08Q32.92 46.46 32.38 50.77L32.38 50.77L28.77 50.77Q29.54 45.15 33.85 42.12Q38.15 39.08 45.23 39.08L45.23 39.08Q53.15 39.08 57.42 42.58Q61.69 46.08 61.69 52.62L61.69 52.62L61.69 65.23Q61.69 71.54 62.77 77.54L62.77 77.54L58.85 77.54Q58.00 74.08 57.77 70L57.77 70Q52.85 78.31 41.92 78.31L41.92 78.31ZM43.23 75.85Q47.00 75.85 50.31 73.92Q53.62 72 55.58 68.77Q57.54 65.54 57.54 61.77L57.54 61.77L57.54 57.23L46.62 57.23Q38.85 57.23 35.23 59.50Q31.62 61.77 31.62 66.69L31.62 66.69Q31.62 71.23 34.58 73.54Q37.54 75.85 43.23 75.85L43.23 75.85ZM91.08 75.69Q96.38 75.69 100.46 73.00Q104.54 70.31 105.62 66.08L105.62 66.08L109.62 66.08Q108.08 71.69 103.15 75.00Q98.23 78.31 91.38 78.31L91.38 78.31Q85.46 78.31 81 75.88Q76.54 73.46 74.08 69.04Q71.62 64.62 71.62 58.85L71.62 58.85Q71.62 52.92 74.08 48.46Q76.54 44 80.96 41.54Q85.38 39.08 91.23 39.08L91.23 39.08Q99.69 39.08 104.77 44.15Q109.85 49.23 110.15 58.15L110.15 58.15L75.77 58.15L75.77 58.54Q75.77 66.31 79.92 71Q84.08 75.69 91.08 75.69L91.08 75.69ZM91.15 41.69Q84.69 41.69 80.69 45.35Q76.69 49 75.92 55.54L75.92 55.54L106.38 55.54Q105.38 48.85 101.46 45.27Q97.54 41.69 91.15 41.69L91.15 41.69ZM137.69 78.31Q130 78.31 125.08 75.12Q120.15 71.92 119.38 66.54L119.38 66.54L123.46 66.54Q124.00 70.69 127.92 73.19Q131.85 75.69 137.85 75.69L137.85 75.69Q143.69 75.69 147.31 73.35Q150.92 71 150.92 67.15L150.92 67.15Q150.92 64.85 149.69 63.42Q148.46 62.00 145.58 61.04Q142.69 60.08 137.38 59.23L137.38 59.23Q131.08 58.23 127.46 57Q123.85 55.77 122.27 53.92Q120.69 52.08 120.69 49.23L120.69 49.23Q120.69 44.62 125.15 41.85Q129.62 39.08 137.08 39.08L137.08 39.08Q144.54 39.08 149.27 42.23Q154.00 45.38 154.85 50.85L154.85 50.85L150.77 50.85Q150.15 46.69 146.42 44.19Q142.69 41.69 137.08 41.69L137.08 41.69Q131.69 41.69 128.27 43.73Q124.85 45.77 124.85 48.92L124.85 48.92Q124.85 50.92 126.00 52.12Q127.15 53.31 130.12 54.19Q133.08 55.08 139.08 56.08L139.08 56.08Q147.69 57.54 151.38 60.04Q155.08 62.54 155.08 67.08L155.08 67.08Q155.08 72.15 150.31 75.23Q145.54 78.31 137.69 78.31L137.69 78.31ZM175.69 78.31Q171.15 78.31 169.08 75.62Q167 72.92 167 67L167 67L167 42.46L160.15 42.46L161.08 39.85L167 39.85L169.77 29.23L171.15 29.23L171.15 39.85L181.85 39.85L181.00 42.46L171.15 42.46L171.15 68.31Q171.15 72.08 172.46 73.88Q173.77 75.69 176.54 75.69L176.54 75.69Q179.15 75.69 181.77 74.23L181.77 74.23L181.77 77.00Q178.92 78.31 175.69 78.31L175.69 78.31Z"/>
            </svg>