<?xml version="1.0" encoding="UTF-8" standalone="no"?>
            <svg
               xmlns="http://www.w3.org/2000/svg"
               xmlns:svg="http://www.w3.org/2000/svg"
               width="100"
               height="100"
               version="1.1"
               id="svg1"
               viewBox="0 0 100 100"
               >
               <path fill="black" d="M-92.29 84.48L-132.08 84.48L-121.73 25.68L-82.41 25.68L-87.30 40.73L-106.59 40.73L-107.90 48.64L-90.03 48.64L-92.47 62.28L-110.35 62.28L-111.57 69.43L-89.65 69.43L-92.29 84.48ZM-124.65 25.68L-125.40 29.92L-165.19 25.68L-124.65 25.68ZM-126.25 34.71L-126.90 38.95L-166.79 34.71L-126.25 34.71ZM-127.75 43.74L-128.50 47.98L-168.39 43.74L-127.75 43.74ZM-129.35 52.78L-130.10 57.01L-169.99 52.78L-129.35 52.78ZM-130.95 61.81L-131.70 66.04L-171.59 61.81L-130.95 61.81ZM-132.55 70.84L-133.30 75.07L-173.19 70.84L-132.55 70.84ZM-134.15 79.96L-134.90 84.20L-174.79 79.96L-134.15 79.96ZM-41.77 85.89L-41.77 85.89Q-47.32 85.89-52.63 85.28Q-57.95 84.67-62.94 83.44L-62.94 83.44L-57.67 67.92Q-54.09 68.86-49.95 69.47Q-45.81 70.08-42.14 70.08L-42.14 70.08Q-39.13 70.08-36.88 69.94Q-34.62 69.80-32.55 69.52L-32.55 69.52L-31.80 64.82L-39.60 64.06Q-48.82 63.12-52.40 59.88Q-55.97 56.63-55.97 50.99L-55.97 50.99Q-55.97 48.45-55.41 45.34L-55.41 45.34Q-53.90 37.35-51.03 32.74Q-48.17 28.13-42.80 26.20Q-37.44 24.27-28.60 24.27L-28.60 24.27Q-23.42 24.27-18.44 24.84Q-13.45 25.40-8.84 26.62L-8.84 26.62L-13.73 41.67Q-17.40 41.02-20.70 40.64Q-23.99 40.26-28.03 40.26L-28.03 40.26Q-30.20 40.26-31.70 40.36Q-33.21 40.45-35.37 40.73L-35.37 40.73L-36.12 45.34L-29.82 46.00Q-23.05 46.66-19.19 48.59Q-15.33 50.52-13.73 53.39Q-12.14 56.26-12.14 60.02L-12.14 60.02Q-12.14 61.15-12.28 62.32Q-12.42 63.50-12.61 64.82L-12.61 64.82Q-13.92 72.44-16.84 76.76Q-19.76 81.09-23.71 83.02Q-27.66 84.95-32.31 85.42Q-36.97 85.89-41.77 85.89ZM-52.59 29.54L-52.59 29.54L-88.90 25.68L-48.45 25.68Q-49.67 26.43-50.66 27.42Q-51.65 28.41-52.59 29.54ZM-55.50 34.71L-56.91 38.85L-95.95 34.71L-55.50 34.71ZM-58.70 47.98L-58.70 47.98L-98.59 43.74L-58.04 43.74Q-58.14 44.03-58.18 44.31Q-58.23 44.59-58.23 44.87L-58.23 44.87Q-58.33 45.53-58.47 46.28Q-58.61 47.04-58.70 47.98ZM-57.95 57.01L-57.95 57.01L-97.74 52.78L-58.70 52.78Q-58.61 54.00-58.47 54.99Q-58.33 55.97-57.95 57.01ZM-45.53 66.04L-45.53 66.04L-95.30 61.81L-54.75 61.81Q-51.65 64.82-45.53 66.04ZM-61.71 70.84L-63.12 74.98L-96.90 70.84L-61.71 70.84ZM-64.72 79.96L-66.13 84.10L-98.49 79.96L-64.72 79.96ZM26.43 84.48L10.16 84.48L31.04 34.71L54.37 34.71L58.04 84.48L41.58 84.48L41.20 76.86L29.35 76.86L26.43 84.48ZM27.94 34.71L26.25 38.76L-12.14 34.71L27.94 34.71ZM24.18 43.74L22.48 47.88L-15.99 43.74L24.18 43.74ZM39.89 49.11L34.34 63.41L41.20 63.41L41.20 49.11L39.89 49.11ZM20.41 52.78L18.63 56.91L-19.85 52.78L20.41 52.78ZM16.56 61.81L14.86 65.95L-23.71 61.81L16.56 61.81ZM12.79 70.84L11.01 74.98L-27.56 70.84L12.79 70.84ZM8.94 79.96L7.15 84.10L-31.42 79.96L8.94 79.96ZM115.80 84.48L82.60 84.48L91.25 34.71L124.37 34.71L119.94 48.82L104.61 48.82L103.48 55.22L117.59 55.22L115.99 64.25L101.98 64.25L100.85 70.65L118.25 70.65L115.80 84.48ZM88.15 34.71L87.49 38.95L47.60 34.71L88.15 34.71ZM86.64 43.74L85.89 47.98L46.00 43.74L86.64 43.74ZM85.04 52.78L84.29 57.01L44.40 52.78L85.04 52.78ZM83.44 61.81L82.69 66.04L42.80 61.81L83.44 61.81ZM81.84 70.84L81.09 75.07L41.20 70.84L81.84 70.84ZM80.24 79.96L79.49 84.20L39.60 79.96L80.24 79.96ZM163.22 85.61L163.22 85.61Q158.80 85.61 154.23 85.14Q149.67 84.67 145.25 83.44L145.25 83.44L149.86 69.52Q157.20 71.59 163.97 71.59L163.97 71.59Q165.66 71.59 167.22 71.54Q168.77 71.50 170.46 71.31L170.46 71.31L170.93 68.30L165.00 67.64Q157.20 66.79 154.09 63.97Q150.99 61.15 150.99 56.26L150.99 56.26Q150.99 55.22 151.13 54.00Q151.27 52.78 151.46 51.55L151.46 51.55Q152.68 44.78 155.17 40.92Q157.67 37.06 162.23 35.42Q166.79 33.77 174.22 33.77L174.22 33.77Q183.16 33.77 191.06 35.75L191.06 35.75L186.55 49.48Q183.25 48.73 180.53 48.35Q177.80 47.98 174.60 47.98L174.60 47.98Q172.81 47.98 171.68 48.02Q170.56 48.07 168.96 48.26L168.96 48.26L168.49 50.99L173.19 51.55Q181.47 52.49 184.90 55.79Q188.33 59.08 188.33 64.06L188.33 64.06Q188.33 64.91 188.24 65.85Q188.15 66.79 187.96 67.73L187.96 67.73Q186.83 74.22 184.38 77.89Q181.94 81.56 178.55 83.21Q175.16 84.85 171.21 85.23Q167.26 85.61 163.22 85.61ZM153.15 38.66L153.15 38.66L116.46 34.71L157.01 34.71Q155.88 35.56 154.89 36.50Q153.90 37.44 153.15 38.66ZM149.29 47.98L149.29 47.98L109.97 43.74L150.52 43.74Q150.14 44.68 149.86 45.77Q149.58 46.85 149.29 47.98ZM148.17 56.26L148.17 57.01L108.28 52.78L148.35 52.78Q148.26 53.62 148.21 54.52Q148.17 55.41 148.17 56.26L148.17 56.26ZM151.74 66.04L151.74 66.04L111.95 61.81L149.01 61.81Q149.86 64.25 151.74 66.04ZM146.38 70.84L145.06 74.98L105.83 70.84L146.38 70.84ZM143.37 79.96L142.05 84.20L102.73 79.96L143.37 79.96ZM235.28 84.48L218.72 84.48L224.93 48.82L214.49 48.82L217.03 34.71L254.19 34.71L251.65 48.82L241.49 48.82L235.28 84.48ZM213.92 34.71L213.26 38.95L173.38 34.71L213.92 34.71ZM212.42 43.74L211.67 47.98L171.78 43.74L212.42 43.74ZM221.45 52.78L220.70 57.01L180.81 52.78L221.45 52.78ZM219.85 61.81L219.10 66.04L179.21 61.81L219.85 61.81ZM218.25 70.84L217.50 75.07L177.61 70.84L218.25 70.84ZM216.65 79.96L215.90 84.20L176.01 79.96L216.65 79.96Z"/>
            </svg>