<?xml version="1.0" encoding="UTF-8" standalone="no"?>
            <svg
               xmlns="http://www.w3.org/2000/svg"
               xmlns:svg="http://www.w3.org/2000/svg"
               width="100"
               height="100"
               version="1.1"
               id="svg1"
               viewBox="0 0 100 100"
               >
               <path fill="black" d="M-38.90 80.24L-75.49 80.24L-75.49 76.02L-70.45 75.45L-70.45 25.77L-75.49 25.12L-75.49 20.89L-39.63 20.89Q-37.20 20.89-37.20 23.41L-37.20 23.41L-37.20 34.23L-41.42 34.23L-41.99 25.37L-63.94 25.37L-63.94 47.89L-40.85 47.89L-40.85 52.36L-63.94 52.36L-63.94 75.85L-41.26 75.85L-40.61 67.24L-36.38 67.24L-36.38 77.72Q-36.38 80.24-38.90 80.24L-38.90 80.24ZM-8.01 81.38L-8.01 81.38Q-15.49 81.38-20.57 77.07Q-25.65 72.76-27.36 64.88L-27.36 64.88L-21.67 63.50Q-18.50 76.42-8.01 76.42L-8.01 76.42Q-2.15 76.42 1.06 73.62Q4.27 70.81 4.27 65.61L4.27 65.61Q4.27 62.44 2.64 60.28Q1.02 58.13-1.63 56.59Q-4.27 55.04-7.44 53.70Q-10.61 52.36-13.82 50.81Q-17.03 49.27-19.67 47.20Q-22.32 45.12-23.94 42.15Q-25.57 39.19-25.57 34.80L-25.57 34.80Q-25.57 27.89-20.69 23.82Q-15.81 19.76-7.60 19.76L-7.60 19.76Q-3.54 19.76 0.49 20.69Q4.51 21.63 9.07 23.74L9.07 23.74L7.03 28.62Q-0.77 24.72-7.60 24.72L-7.60 24.72Q-12.89 24.72-15.98 27.44Q-19.07 30.16-19.07 34.80L-19.07 34.80Q-19.07 38.13-17.44 40.37Q-15.81 42.60-13.17 44.23Q-10.53 45.85-7.32 47.20Q-4.11 48.54-0.93 50.00Q2.24 51.46 4.88 53.50Q7.52 55.53 9.15 58.46Q10.77 61.38 10.77 65.61L10.77 65.61Q10.77 72.85 5.73 77.11Q0.69 81.38-8.01 81.38ZM30.04 81.38L30.04 81.38Q24.59 81.38 21.34 78.01Q18.09 74.63 18.09 68.94L18.09 68.94Q18.09 60.73 24.96 56.91Q31.83 53.09 46.63 53.09L46.63 53.09L46.63 50.00Q46.63 43.33 44.27 40.41Q41.91 37.48 36.54 37.48L36.54 37.48Q33.54 37.48 30.00 38.50Q26.46 39.51 23.29 41.38L23.29 41.38L21.18 36.50Q25.00 34.72 29.31 33.66Q33.62 32.60 37.11 32.60L37.11 32.60Q45.24 32.60 49.15 36.67Q53.05 40.73 53.05 49.19L53.05 49.19L53.05 71.46Q53.05 75.93 56.46 75.93L56.46 75.93Q58.25 75.93 59.80 75.45L59.80 75.45L60.53 80.33Q57.36 81.38 54.35 81.38L54.35 81.38Q46.63 81.38 46.63 72.20L46.63 72.20L46.63 70.73Q44.02 75.85 39.67 78.62Q35.33 81.38 30.04 81.38ZM32.07 76.42L32.07 76.42Q36.46 76.42 39.72 74.02Q42.97 71.63 44.80 67.28Q46.63 62.93 46.63 57.24L46.63 57.24Q35.24 57.32 29.72 60.08Q24.19 62.85 24.19 68.54L24.19 68.54Q24.19 72.20 26.30 74.31Q28.41 76.42 32.07 76.42ZM89.23 81.38L89.23 81.38Q83.05 81.38 78.41 78.41Q73.78 75.45 71.22 70.12Q68.66 64.80 68.66 57.72L68.66 57.72Q68.66 45.85 73.90 39.23Q79.15 32.60 88.50 32.60L88.50 32.60Q94.19 32.60 98.33 35.24Q102.48 37.89 104.76 42.76Q107.03 47.64 107.03 54.39L107.03 54.39L107.03 58.37L75.00 58.37Q75.08 66.75 78.94 71.59Q82.80 76.42 89.47 76.42L89.47 76.42Q95.49 76.42 102.72 72.76L102.72 72.76L104.76 77.48Q100.77 79.35 96.79 80.37Q92.80 81.38 89.23 81.38ZM75.16 53.82L75.16 53.82L100.61 53.82Q100.61 46.34 97.32 41.95Q94.02 37.56 88.50 37.56L88.50 37.56Q82.72 37.56 79.27 41.75Q75.81 45.93 75.16 53.82ZM132.40 81.38L132.40 81.38Q125.73 81.38 121.34 77.93Q116.95 74.47 115.49 68.13L115.49 68.13L121.10 66.83Q123.94 76.59 132.48 76.59L132.48 76.59Q137.28 76.59 139.88 74.55Q142.48 72.52 142.48 68.78L142.48 68.78Q142.48 66.02 140.65 64.23Q138.82 62.44 135.93 61.18Q133.05 59.92 129.80 58.62Q126.54 57.32 123.66 55.65Q120.77 53.98 118.94 51.38Q117.11 48.78 117.11 44.80L117.11 44.80Q117.11 39.19 121.38 35.89Q125.65 32.60 133.05 32.60L133.05 32.60Q136.71 32.60 140.24 33.41Q143.78 34.23 147.60 35.85L147.60 35.85L145.57 40.57Q139.15 37.56 132.97 37.56L132.97 37.56Q128.50 37.56 126.02 39.47Q123.54 41.38 123.54 44.72L123.54 44.72Q123.54 47.56 125.37 49.39Q127.20 51.22 130.08 52.56Q132.97 53.90 136.18 55.16Q139.39 56.42 142.28 58.09Q145.16 59.76 146.99 62.28Q148.82 64.80 148.82 68.78L148.82 68.78Q148.82 74.72 144.47 78.05Q140.12 81.38 132.40 81.38ZM170.77 81.38L170.77 81.38Q166.79 81.38 164.88 79.15Q162.97 76.91 162.97 72.03L162.97 72.03L162.97 38.21L155.89 38.21L155.89 33.74L162.97 33.74L162.97 23.17L169.39 21.71L169.39 33.74L178.25 33.74L178.25 38.21L169.39 38.21L169.39 71.46Q169.39 75.85 172.97 75.85L172.97 75.85Q175.24 75.85 177.52 74.96L177.52 74.96L178.25 79.92Q174.27 81.38 170.77 81.38Z"/>
            </svg>