<?xml version="1.0" encoding="UTF-8" standalone="no"?>
            <svg
               xmlns="http://www.w3.org/2000/svg"
               xmlns:svg="http://www.w3.org/2000/svg"
               width="100"
               height="100"
               version="1.1"
               id="svg1"
               viewBox="0 0 100 100"
               >
               <path fill="black" d="M-490.08 85.24L-490.08 85.24Q-493.56 85.24-496.71 83.74Q-499.86 82.24-502.11 79.14L-502.11 79.14Q-504.46 76.13-505.78 71.52Q-507.10 66.92-507.10 60.71L-507.10 60.71Q-507.10 48.59-503.62 39.57Q-500.14 30.55-494.78 24.53L-494.78 24.53Q-489.52 18.52-483.46 15.60Q-477.40 12.69-472.13 12.69L-472.13 12.69Q-467.06 12.69-463.86 14.90Q-460.67 17.11-459.16 20.77Q-457.66 24.44-457.66 28.95L-457.66 28.95L-470.54 31.39Q-471.38 27.63-472.79 26.03Q-474.20 24.44-475.99 24.44L-475.99 24.44Q-478.05 24.44-480.26 26.69Q-482.47 28.95-484.59 32.75Q-486.70 36.56-488.39 41.26Q-490.08 45.96-491.17 50.94Q-492.25 55.92-492.43 60.34L-492.43 60.34Q-492.43 66.17-490.70 68.66Q-488.96 71.15-486.23 71.15L-486.23 71.15Q-483.60 71.15-481.02 69.45Q-478.43 67.76-476.69 64.90Q-474.95 62.03-474.86 58.46L-474.86 58.46L-484.92 59.96L-483.13 50.66L-474.48 49.53Q-470.91 49.06-466.92 48.40Q-462.92 47.74-459.92 47.18L-459.92 47.18Q-460.57 56.77-463.63 63.96Q-466.68 71.15-471.19 75.85Q-475.70 80.55-480.64 82.89Q-485.57 85.24-490.08 85.24ZM-448.54 79.14L-463.77 83.08L-458.88 58.65Q-457.75 51.88-456.44 44.74Q-455.12 37.59-453.95 30.64Q-452.77 23.68-452.11 17.58L-452.11 17.58Q-446.76 15.88-440.55 15.08Q-434.35 14.29-428.24 14.29L-428.24 14.29Q-421.10 14.29-418.52 17.39Q-415.93 20.49-415.93 25.75L-415.93 25.75Q-415.93 30.55-418.19 35.39Q-420.44 40.23-424.06 44.13Q-427.68 48.03-432.00 50.28L-432.00 50.28Q-430.31 54.04-428.38 58.51Q-426.46 62.97-424.77 67.01L-424.77 67.01Q-423.83 69.36-422.84 71.71Q-421.85 74.06-420.91 76.41L-420.91 76.41L-435.48 81.48L-438.86 70.21Q-440.27 65.51-441.45 61.14Q-442.62 56.77-442.81 54.98L-442.81 54.98L-444.03 55.36Q-444.31 56.86-444.64 58.60Q-444.97 60.34-445.35 62.41L-445.35 62.41Q-445.72 64.47-446.10 66.40Q-446.48 68.33-446.85 70.21L-446.85 70.21L-448.54 79.14ZM-438.67 27.35L-441.68 42.29Q-439.99 42.11-437.50 40.84Q-435.01 39.57-432.52 37.69Q-430.03 35.81-428.34 33.83Q-426.64 31.86-426.64 30.36L-426.64 30.36Q-426.64 28.48-428.85 27.87Q-431.06 27.26-434.63 27.26L-434.63 27.26L-436.70 27.26Q-437.27 27.35-437.73 27.35Q-438.20 27.35-438.67 27.35L-438.67 27.35ZM-406.81 79.14L-422.04 83.08L-417.15 58.65Q-416.02 51.88-414.71 44.74Q-413.39 37.59-412.22 30.64Q-411.04 23.68-410.39 17.58L-410.39 17.58Q-405.03 15.88-398.83 15.08Q-392.62 14.29-386.51 14.29L-386.51 14.29Q-379.37 14.29-376.79 17.39Q-374.20 20.49-374.20 25.75L-374.20 25.75Q-374.20 30.55-376.46 35.39Q-378.71 40.23-382.33 44.13Q-385.95 48.03-390.27 50.28L-390.27 50.28Q-388.58 54.04-386.65 58.51Q-384.73 62.97-383.04 67.01L-383.04 67.01Q-382.10 69.36-381.11 71.71Q-380.12 74.06-379.18 76.41L-379.18 76.41L-393.75 81.48L-397.13 70.21Q-398.54 65.51-399.72 61.14Q-400.89 56.77-401.08 54.98L-401.08 54.98L-402.30 55.36Q-402.58 56.86-402.91 58.60Q-403.24 60.34-403.62 62.41L-403.62 62.41Q-403.99 64.47-404.37 66.40Q-404.75 68.33-405.12 70.21L-405.12 70.21L-406.81 79.14ZM-396.95 27.35L-399.95 42.29Q-398.26 42.11-395.77 40.84Q-393.28 39.57-390.79 37.69Q-388.30 35.81-386.61 33.83Q-384.92 31.86-384.92 30.36L-384.92 30.36Q-384.92 28.48-387.12 27.87Q-389.33 27.26-392.90 27.26L-392.90 27.26L-394.97 27.26Q-395.54 27.35-396.01 27.35Q-396.48 27.35-396.95 27.35L-396.95 27.35ZM-365.08 79.14L-380.31 83.08L-375.42 58.65Q-374.30 51.88-372.98 44.74Q-371.66 37.59-370.49 30.64Q-369.31 23.68-368.66 17.58L-368.66 17.58Q-363.30 15.88-357.10 15.08Q-350.89 14.29-344.78 14.29L-344.78 14.29Q-337.64 14.29-335.06 17.39Q-332.47 20.49-332.47 25.75L-332.47 25.75Q-332.47 30.55-334.73 35.39Q-336.98 40.23-340.60 44.13Q-344.22 48.03-348.54 50.28L-348.54 50.28Q-346.85 54.04-344.92 58.51Q-343.00 62.97-341.31 67.01L-341.31 67.01Q-340.37 69.36-339.38 71.71Q-338.39 74.06-337.45 76.41L-337.45 76.41L-352.02 81.48L-355.40 70.21Q-356.81 65.51-357.99 61.14Q-359.16 56.77-359.35 54.98L-359.35 54.98L-360.57 55.36Q-360.86 56.86-361.18 58.60Q-361.51 60.34-361.89 62.41L-361.89 62.41Q-362.27 64.47-362.64 66.40Q-363.02 68.33-363.39 70.21L-363.39 70.21L-365.08 79.14ZM-355.22 27.35L-358.22 42.29Q-356.53 42.11-354.04 40.84Q-351.55 39.57-349.06 37.69Q-346.57 35.81-344.88 33.83Q-343.19 31.86-343.19 30.36L-343.19 30.36Q-343.19 28.48-345.39 27.87Q-347.60 27.26-351.17 27.26L-351.17 27.26L-353.24 27.26Q-353.81 27.35-354.28 27.35Q-354.75 27.35-355.22 27.35L-355.22 27.35ZM-323.36 79.14L-338.58 83.08L-333.69 58.65Q-332.57 51.88-331.25 44.74Q-329.93 37.59-328.76 30.64Q-327.58 23.68-326.93 17.58L-326.93 17.58Q-321.57 15.88-315.37 15.08Q-309.16 14.29-303.05 14.29L-303.05 14.29Q-295.91 14.29-293.33 17.39Q-290.74 20.49-290.74 25.75L-290.74 25.75Q-290.74 30.55-293.00 35.39Q-295.25 40.23-298.87 44.13Q-302.49 48.03-306.81 50.28L-306.81 50.28Q-305.12 54.04-303.20 58.51Q-301.27 62.97-299.58 67.01L-299.58 67.01Q-298.64 69.36-297.65 71.71Q-296.66 74.06-295.72 76.41L-295.72 76.41L-310.29 81.48L-313.67 70.21Q-315.08 65.51-316.26 61.14Q-317.43 56.77-317.62 54.98L-317.62 54.98L-318.84 55.36Q-319.13 56.86-319.45 58.60Q-319.78 60.34-320.16 62.41L-320.16 62.41Q-320.54 64.47-320.91 66.40Q-321.29 68.33-321.66 70.21L-321.66 70.21L-323.36 79.14ZM-313.49 27.35L-316.49 42.29Q-314.80 42.11-312.31 40.84Q-309.82 39.57-307.33 37.69Q-304.84 35.81-303.15 33.83Q-301.46 31.86-301.46 30.36L-301.46 30.36Q-301.46 28.48-303.67 27.87Q-305.87 27.26-309.45 27.26L-309.45 27.26L-311.51 27.26Q-312.08 27.35-312.55 27.35Q-313.02 27.35-313.49 27.35L-313.49 27.35ZM-281.63 79.14L-296.85 83.08L-291.96 58.65Q-290.84 51.88-289.52 44.74Q-288.20 37.59-287.03 30.64Q-285.86 23.68-285.20 17.58L-285.20 17.58Q-279.84 15.88-273.64 15.08Q-267.43 14.29-261.33 14.29L-261.33 14.29Q-254.18 14.29-251.60 17.39Q-249.01 20.49-249.01 25.75L-249.01 25.75Q-249.01 30.55-251.27 35.39Q-253.52 40.23-257.14 44.13Q-260.76 48.03-265.08 50.28L-265.08 50.28Q-263.39 54.04-261.47 58.51Q-259.54 62.97-257.85 67.01L-257.85 67.01Q-256.91 69.36-255.92 71.71Q-254.93 74.06-253.99 76.41L-253.99 76.41L-268.56 81.48L-271.95 70.21Q-273.36 65.51-274.53 61.14Q-275.70 56.77-275.89 54.98L-275.89 54.98L-277.11 55.36Q-277.40 56.86-277.73 58.60Q-278.05 60.34-278.43 62.41L-278.43 62.41Q-278.81 64.47-279.18 66.40Q-279.56 68.33-279.93 70.21L-279.93 70.21L-281.63 79.14ZM-271.76 27.35L-274.77 42.29Q-273.07 42.11-270.58 40.84Q-268.09 39.57-265.60 37.69Q-263.11 35.81-261.42 33.83Q-259.73 31.86-259.73 30.36L-259.73 30.36Q-259.73 28.48-261.94 27.87Q-264.14 27.26-267.72 27.26L-267.72 27.26L-269.78 27.26Q-270.35 27.35-270.82 27.35Q-271.29 27.35-271.76 27.35L-271.76 27.35ZM-247.42 61.28L-247.42 61.28Q-245.91 55.45-244.50 49.72Q-243.09 43.98-241.68 38.25L-241.68 38.25Q-240.37 32.52-238.91 26.74Q-237.45 20.96-235.95 15.23L-235.95 15.23Q-230.59 14.38-226.17 13.82Q-221.76 13.25-218.94 12.78L-218.94 12.78Q-224.01 24.62-228.20 36.61Q-232.38 48.59-236.51 60.71L-236.51 60.71Q-239.24 60.71-241.96 60.90Q-244.69 61.09-247.42 61.28ZM-247.60 85.15L-247.60 85.15Q-250.42 85.15-252.26 83.79Q-254.09 82.42-254.98 80.40Q-255.87 78.38-255.87 76.32L-255.87 76.32Q-255.87 72.56-253.38 69.78Q-250.89 67.01-246.48 67.01L-246.48 67.01Q-241.02 67.01-238.30 69.60Q-235.57 72.18-235.57 75.47L-235.57 75.47Q-235.57 79.23-238.67 82.19Q-241.78 85.15-247.60 85.15ZM-222.70 61.28L-222.70 61.28Q-221.19 55.45-219.78 49.72Q-218.37 43.98-216.96 38.25L-216.96 38.25Q-215.65 32.52-214.19 26.74Q-212.73 20.96-211.23 15.23L-211.23 15.23Q-205.87 14.38-201.46 13.82Q-197.04 13.25-194.22 12.78L-194.22 12.78Q-199.30 24.62-203.48 36.61Q-207.66 48.59-211.80 60.71L-211.80 60.71Q-214.52 60.71-217.25 60.90Q-219.97 61.09-222.70 61.28ZM-222.89 85.15L-222.89 85.15Q-225.70 85.15-227.54 83.79Q-229.37 82.42-230.26 80.40Q-231.16 78.38-231.16 76.32L-231.16 76.32Q-231.16 72.56-228.67 69.78Q-226.17 67.01-221.76 67.01L-221.76 67.01Q-216.31 67.01-213.58 69.60Q-210.86 72.18-210.86 75.47L-210.86 75.47Q-210.86 79.23-213.96 82.19Q-217.06 85.15-222.89 85.15ZM-172.42 80.17L-186.89 83.18Q-185.67 76.69-184.49 70.35Q-183.32 64.00-182.10 57.71L-182.10 57.71Q-180.78 49.91-179.61 43.05Q-178.43 36.18-177.26 29.42Q-176.08 22.65-174.95 15.23L-174.95 15.23L-159.73 14.19Q-161.33 20.77-162.88 27.91Q-164.43 35.06-165.74 41.82L-165.74 41.82L-156.44 40.79Q-155.78 37.50-155.17 34.26Q-154.56 31.02-154.09 27.82L-154.09 27.82Q-153.62 24.72-152.91 21.48Q-152.21 18.23-151.36 14.94L-151.36 14.94Q-147.98 14.38-144.50 14.05Q-141.02 13.72-138.67 13.58Q-136.33 13.44-136.33 13.44L-136.33 13.44Q-137.55 17.20-138.77 22.27Q-139.99 27.35-141.12 32.99Q-142.25 38.63-143.28 44.22Q-144.31 49.81-145.16 54.61L-145.16 54.61Q-146.19 60.62-147.13 66.68Q-148.07 72.74-149.01 79.04L-149.01 79.04L-163.67 80.73Q-163.02 77.91-162.50 75.14Q-161.98 72.37-161.51 69.74L-161.51 69.74Q-160.57 65.23-159.59 60.34Q-158.60 55.45-158.04 51.97L-158.04 51.97L-167.15 52.82Q-167.53 54.61-167.86 56.67Q-168.19 58.74-168.66 61.09L-168.66 61.09Q-169.13 63.44-169.55 65.65Q-169.97 67.86-170.35 70.02L-170.35 70.02Q-170.82 72.56-171.38 75.09Q-171.95 77.63-172.42 80.17L-172.42 80.17ZM-121.85 82.80L-121.85 82.80Q-121.66 81.20-121.48 79.70Q-121.29 78.20-121.10 76.69L-121.10 76.69L-120.54 71.43Q-120.44 70.11-120.35 68.98Q-120.25 67.86-120.16 66.92L-120.16 66.92L-128.34 66.92L-132.10 80.45Q-134.16 80.73-136.98 81.06Q-139.80 81.39-142.25 81.67L-142.25 81.67Q-143.75 81.86-145.21 82.05Q-146.66 82.24-148.17 82.42L-148.17 82.42L-140.74 57.80Q-139.43 53.38-137.73 47.74Q-136.04 42.11-134.30 36.18Q-132.57 30.26-131.02 25.05Q-129.46 19.83-128.52 16.26L-128.52 16.26Q-122.13 15.79-115.51 15.13Q-108.88 14.47-102.58 13.35L-102.58 13.35Q-103.05 18.61-103.48 25.23Q-103.90 31.86-104.23 38.91Q-104.56 45.96-104.93 52.82L-104.93 52.82Q-105.12 59.30-105.40 66.21Q-105.69 73.12-105.97 80.36L-105.97 80.36Q-107.38 80.55-108.79 80.73Q-110.20 80.92-111.61 81.11L-111.61 81.11Q-113.96 81.48-116.78 81.95Q-119.60 82.42-121.85 82.80ZM-120.25 33.93L-126.08 57.52Q-125.52 57.52-123.97 57.42Q-122.42 57.33-121.01 57.24Q-119.60 57.14-119.31 57.14L-119.31 57.14Q-119.31 55.92-118.94 52.16Q-118.56 48.40-118.19 44.27L-118.19 44.27Q-118.00 41.82-117.76 39.24Q-117.53 36.65-117.25 33.93L-117.25 33.93L-116.68 25.75L-118.09 25.85L-120.25 33.93ZM-89.90 79.14L-105.12 83.08L-100.23 58.65Q-99.11 51.88-97.79 44.74Q-96.48 37.59-95.30 30.64Q-94.13 23.68-93.47 17.58L-93.47 17.58Q-88.11 15.88-81.91 15.08Q-75.70 14.29-69.60 14.29L-69.60 14.29Q-62.45 14.29-59.87 17.39Q-57.28 20.49-57.28 25.75L-57.28 25.75Q-57.28 30.55-59.54 35.39Q-61.80 40.23-65.41 44.13Q-69.03 48.03-73.36 50.28L-73.36 50.28Q-71.66 54.04-69.74 58.51Q-67.81 62.97-66.12 67.01L-66.12 67.01Q-65.18 69.36-64.19 71.71Q-63.20 74.06-62.27 76.41L-62.27 76.41L-76.83 81.48L-80.22 70.21Q-81.63 65.51-82.80 61.14Q-83.98 56.77-84.16 54.98L-84.16 54.98L-85.39 55.36Q-85.67 56.86-86.00 58.60Q-86.33 60.34-86.70 62.41L-86.70 62.41Q-87.08 64.47-87.45 66.40Q-87.83 68.33-88.20 70.21L-88.20 70.21L-89.90 79.14ZM-80.03 27.35L-83.04 42.29Q-81.34 42.11-78.85 40.84Q-76.36 39.57-73.87 37.69Q-71.38 35.81-69.69 33.83Q-68.00 31.86-68.00 30.36L-68.00 30.36Q-68.00 28.48-70.21 27.87Q-72.42 27.26-75.99 27.26L-75.99 27.26L-78.05 27.26Q-78.62 27.35-79.09 27.35Q-79.56 27.35-80.03 27.35L-80.03 27.35ZM-48.17 79.14L-63.39 83.08L-58.51 58.65Q-57.38 51.88-56.06 44.74Q-54.75 37.59-53.57 30.64Q-52.40 23.68-51.74 17.58L-51.74 17.58Q-46.38 15.88-40.18 15.08Q-33.98 14.29-27.87 14.29L-27.87 14.29Q-20.72 14.29-18.14 17.39Q-15.55 20.49-15.55 25.75L-15.55 25.75Q-15.55 30.55-17.81 35.39Q-20.07 40.23-23.68 44.13Q-27.30 48.03-31.63 50.28L-31.63 50.28Q-29.93 54.04-28.01 58.51Q-26.08 62.97-24.39 67.01L-24.39 67.01Q-23.45 69.36-22.46 71.71Q-21.48 74.06-20.54 76.41L-20.54 76.41L-35.10 81.48L-38.49 70.21Q-39.90 65.51-41.07 61.14Q-42.25 56.77-42.43 54.98L-42.43 54.98L-43.66 55.36Q-43.94 56.86-44.27 58.60Q-44.60 60.34-44.97 62.41L-44.97 62.41Q-45.35 64.47-45.72 66.40Q-46.10 68.33-46.48 70.21L-46.48 70.21L-48.17 79.14ZM-38.30 27.35L-41.31 42.29Q-39.61 42.11-37.12 40.84Q-34.63 39.57-32.14 37.69Q-29.65 35.81-27.96 33.83Q-26.27 31.86-26.27 30.36L-26.27 30.36Q-26.27 28.48-28.48 27.87Q-30.69 27.26-34.26 27.26L-34.26 27.26L-36.33 27.26Q-36.89 27.35-37.36 27.35Q-37.83 27.35-38.30 27.35L-38.30 27.35ZM-6.81 80.17L-21.29 83.18Q-18.56 70.02-16.21 57.52L-16.21 57.52Q-14.90 49.91-13.53 42.11Q-12.17 34.30-11.04 27.16Q-9.92 20.02-9.35 14.38L-9.35 14.38Q-6.81 14.47-5.17 14.61Q-3.52 14.76-2.07 14.85Q-0.61 14.94 1.22 14.99Q3.05 15.04 5.87 15.04L5.87 15.04Q4.28 21.71 2.73 28.38Q1.17 35.06-0.14 41.82L-0.14 41.82L9.16 40.79Q9.82 37.50 10.43 34.26Q11.04 31.02 11.51 27.82L11.51 27.82Q11.98 24.72 12.69 21.48Q13.39 18.23 14.24 14.94L14.24 14.94Q17.62 14.38 21.10 14.05Q24.58 13.72 26.93 13.58Q29.28 13.44 29.28 13.44L29.28 13.44Q28.05 17.20 26.83 22.27Q25.61 27.35 24.48 32.99Q23.36 38.63 22.32 44.22Q21.29 49.81 20.44 54.61L20.44 54.61Q19.41 60.62 18.47 66.68Q17.53 72.74 16.59 79.04L16.59 79.04L1.93 80.73Q2.58 77.91 3.10 75.14Q3.62 72.37 4.09 69.74L4.09 69.74Q5.03 65.23 6.02 60.34Q7.00 55.45 7.57 51.97L7.57 51.97L-1.55 52.82Q-1.93 54.61-2.26 56.67Q-2.58 58.74-3.05 61.09L-3.05 61.09Q-3.52 63.44-3.95 65.65Q-4.37 67.86-4.75 70.02L-4.75 70.02Q-5.22 72.56-5.78 75.09Q-6.34 77.63-6.81 80.17L-6.81 80.17ZM43.75 82.80L43.75 82.80Q43.94 81.20 44.13 79.70Q44.31 78.20 44.50 76.69L44.50 76.69L45.07 71.43Q45.16 70.11 45.25 68.98Q45.35 67.86 45.44 66.92L45.44 66.92L37.27 66.92L33.51 80.45Q31.44 80.73 28.62 81.06Q25.80 81.39 23.36 81.67L23.36 81.67Q21.85 81.86 20.39 82.05Q18.94 82.24 17.43 82.42L17.43 82.42L24.86 57.80Q26.17 53.38 27.87 47.74Q29.56 42.11 31.30 36.18Q33.04 30.26 34.59 25.05Q36.14 19.83 37.08 16.26L37.08 16.26Q43.47 15.79 50.09 15.13Q56.72 14.47 63.02 13.35L63.02 13.35Q62.55 18.61 62.12 25.23Q61.70 31.86 61.37 38.91Q61.04 45.96 60.67 52.82L60.67 52.82Q60.48 59.30 60.20 66.21Q59.92 73.12 59.63 80.36L59.63 80.36Q58.22 80.55 56.81 80.73Q55.40 80.92 53.99 81.11L53.99 81.11Q51.64 81.48 48.83 81.95Q46.01 82.42 43.75 82.80ZM45.35 33.93L39.52 57.52Q40.08 57.52 41.64 57.42Q43.19 57.33 44.60 57.24Q46.01 57.14 46.29 57.14L46.29 57.14Q46.29 55.92 46.66 52.16Q47.04 48.40 47.42 44.27L47.42 44.27Q47.60 41.82 47.84 39.24Q48.07 36.65 48.36 33.93L48.36 33.93L48.92 25.75L47.51 25.85L45.35 33.93ZM75.70 79.14L60.48 83.08L65.37 58.65Q66.49 51.88 67.81 44.74Q69.13 37.59 70.30 30.64Q71.48 23.68 72.13 17.58L72.13 17.58Q77.49 15.88 83.69 15.08Q89.90 14.29 96.01 14.29L96.01 14.29Q103.15 14.29 105.73 17.39Q108.32 20.49 108.32 25.75L108.32 25.75Q108.32 30.55 106.06 35.39Q103.81 40.23 100.19 44.13Q96.57 48.03 92.25 50.28L92.25 50.28Q93.94 54.04 95.86 58.51Q97.79 62.97 99.48 67.01L99.48 67.01Q100.42 69.36 101.41 71.71Q102.40 74.06 103.34 76.41L103.34 76.41L88.77 81.48L85.39 70.21Q83.98 65.51 82.80 61.14Q81.63 56.77 81.44 54.98L81.44 54.98L80.22 55.36Q79.93 56.86 79.61 58.60Q79.28 60.34 78.90 62.41L78.90 62.41Q78.52 64.47 78.15 66.40Q77.77 68.33 77.40 70.21L77.40 70.21L75.70 79.14ZM85.57 27.35L82.57 42.29Q84.26 42.11 86.75 40.84Q89.24 39.57 91.73 37.69Q94.22 35.81 95.91 33.83Q97.60 31.86 97.60 30.36L97.60 30.36Q97.60 28.48 95.39 27.87Q93.19 27.26 89.61 27.26L89.61 27.26L87.55 27.26Q86.98 27.35 86.51 27.35Q86.04 27.35 85.57 27.35L85.57 27.35ZM117.43 79.14L102.21 83.08L107.10 58.65Q108.22 51.88 109.54 44.74Q110.86 37.59 112.03 30.64Q113.20 23.68 113.86 17.58L113.86 17.58Q119.22 15.88 125.42 15.08Q131.63 14.29 137.73 14.29L137.73 14.29Q144.88 14.29 147.46 17.39Q150.05 20.49 150.05 25.75L150.05 25.75Q150.05 30.55 147.79 35.39Q145.54 40.23 141.92 44.13Q138.30 48.03 133.98 50.28L133.98 50.28Q135.67 54.04 137.59 58.51Q139.52 62.97 141.21 67.01L141.21 67.01Q142.15 69.36 143.14 71.71Q144.13 74.06 145.07 76.41L145.07 76.41L130.50 81.48L127.11 70.21Q125.70 65.51 124.53 61.14Q123.36 56.77 123.17 54.98L123.17 54.98L121.95 55.36Q121.66 56.86 121.33 58.60Q121.01 60.34 120.63 62.41L120.63 62.41Q120.25 64.47 119.88 66.40Q119.50 68.33 119.13 70.21L119.13 70.21L117.43 79.14ZM127.30 27.35L124.30 42.29Q125.99 42.11 128.48 40.84Q130.97 39.57 133.46 37.69Q135.95 35.81 137.64 33.83Q139.33 31.86 139.33 30.36L139.33 30.36Q139.33 28.48 137.12 27.87Q134.92 27.26 131.34 27.26L131.34 27.26L129.28 27.26Q128.71 27.35 128.24 27.35Q127.77 27.35 127.30 27.35L127.30 27.35ZM151.64 61.28L151.64 61.28Q153.15 55.45 154.56 49.72Q155.97 43.98 157.38 38.25L157.38 38.25Q158.69 32.52 160.15 26.74Q161.61 20.96 163.11 15.23L163.11 15.23Q168.47 14.38 172.89 13.82Q177.30 13.25 180.12 12.78L180.12 12.78Q175.05 24.62 170.86 36.61Q166.68 48.59 162.55 60.71L162.55 60.71Q159.82 60.71 157.10 60.90Q154.37 61.09 151.64 61.28ZM151.46 85.15L151.46 85.15Q148.64 85.15 146.80 83.79Q144.97 82.42 144.08 80.40Q143.19 78.38 143.19 76.32L143.19 76.32Q143.19 72.56 145.68 69.78Q148.17 67.01 152.58 67.01L152.58 67.01Q158.04 67.01 160.76 69.60Q163.49 72.18 163.49 75.47L163.49 75.47Q163.49 79.23 160.39 82.19Q157.28 85.15 151.46 85.15ZM176.36 61.28L176.36 61.28Q177.87 55.45 179.28 49.72Q180.69 43.98 182.10 38.25L182.10 38.25Q183.41 32.52 184.87 26.74Q186.33 20.96 187.83 15.23L187.83 15.23Q193.19 14.38 197.60 13.82Q202.02 13.25 204.84 12.78L204.84 12.78Q199.77 24.62 195.58 36.61Q191.40 48.59 187.27 60.71L187.27 60.71Q184.54 60.71 181.81 60.90Q179.09 61.09 176.36 61.28ZM176.17 85.15L176.17 85.15Q173.36 85.15 171.52 83.79Q169.69 82.42 168.80 80.40Q167.90 78.38 167.90 76.32L167.90 76.32Q167.90 72.56 170.39 69.78Q172.89 67.01 177.30 67.01L177.30 67.01Q182.75 67.01 185.48 69.60Q188.20 72.18 188.20 75.47L188.20 75.47Q188.20 79.23 185.10 82.19Q182.00 85.15 176.17 85.15ZM201.08 61.28L201.08 61.28Q202.58 55.45 203.99 49.72Q205.40 43.98 206.81 38.25L206.81 38.25Q208.13 32.52 209.59 26.74Q211.04 20.96 212.55 15.23L212.55 15.23Q217.90 14.38 222.32 13.82Q226.74 13.25 229.56 12.78L229.56 12.78Q224.48 24.62 220.30 36.61Q216.12 48.59 211.98 60.71L211.98 60.71Q209.26 60.71 206.53 60.90Q203.81 61.09 201.08 61.28ZM200.89 85.15L200.89 85.15Q198.07 85.15 196.24 83.79Q194.41 82.42 193.52 80.40Q192.62 78.38 192.62 76.32L192.62 76.32Q192.62 72.56 195.11 69.78Q197.60 67.01 202.02 67.01L202.02 67.01Q207.47 67.01 210.20 69.60Q212.92 72.18 212.92 75.47L212.92 75.47Q212.92 79.23 209.82 82.19Q206.72 85.15 200.89 85.15ZM251.36 80.17L236.89 83.18Q238.11 76.69 239.29 70.35Q240.46 64.00 241.68 57.71L241.68 57.71Q243.00 49.91 244.17 43.05Q245.35 36.18 246.52 29.42Q247.70 22.65 248.83 15.23L248.83 15.23L264.05 14.19Q262.45 20.77 260.90 27.91Q259.35 35.06 258.04 41.82L258.04 41.82L267.34 40.79Q268.00 37.50 268.61 34.26Q269.22 31.02 269.69 27.82L269.69 27.82Q270.16 24.72 270.86 21.48Q271.57 18.23 272.42 14.94L272.42 14.94Q275.80 14.38 279.28 14.05Q282.75 13.72 285.10 13.58Q287.45 13.44 287.45 13.44L287.45 13.44Q286.23 17.20 285.01 22.27Q283.79 27.35 282.66 32.99Q281.53 38.63 280.50 44.22Q279.46 49.81 278.62 54.61L278.62 54.61Q277.58 60.62 276.64 66.68Q275.70 72.74 274.77 79.04L274.77 79.04L260.10 80.73Q260.76 77.91 261.28 75.14Q261.80 72.37 262.27 69.74L262.27 69.74Q263.20 65.23 264.19 60.34Q265.18 55.45 265.74 51.97L265.74 51.97L256.63 52.82Q256.25 54.61 255.92 56.67Q255.59 58.74 255.12 61.09L255.12 61.09Q254.65 63.44 254.23 65.65Q253.81 67.86 253.43 70.02L253.43 70.02Q252.96 72.56 252.40 75.09Q251.83 77.63 251.36 80.17L251.36 80.17ZM290.27 81.39L274.77 82.42Q278.90 69.83 282.66 57.89L282.66 57.89Q284.26 53.01 285.95 47.46Q287.64 41.92 289.33 36.33Q291.02 30.73 292.53 25.56Q294.03 20.39 295.07 16.35L295.07 16.35Q300.23 16.35 304.84 15.79L304.84 15.79Q307.19 15.51 309.68 15.23Q312.17 14.94 314.80 14.76L314.80 14.76L314.24 19.36Q314.05 20.68 313.86 22.04Q313.67 23.40 313.49 24.81L313.49 24.81Q313.30 26.22 313.02 27.68Q312.73 29.14 312.55 30.64L312.55 30.64Q312.17 33.55 311.42 38.77Q310.67 43.98 309.63 50.09L309.63 50.09L310.86 50.09Q313.58 42.95 315.37 38.20Q317.15 33.46 318.28 30.45L318.28 30.45Q319.88 26.03 321.76 21.52Q323.64 17.01 324.86 14.57L324.86 14.57Q327.11 14.38 330.26 13.96Q333.41 13.53 336.65 12.97Q339.90 12.41 342.25 12.03L342.25 12.03Q340.93 19.92 339.85 27.96Q338.77 36.00 337.97 43.28Q337.17 50.56 336.61 56.39L336.61 56.39Q336.04 62.22 335.57 67.90Q335.10 73.59 334.63 79.14L334.63 79.14L318.28 82.05Q318.28 81.86 318.56 77.82Q318.84 73.78 319.50 67.76L319.50 67.76Q320.16 61.75 320.82 56.34Q321.48 50.94 322.13 47.46L322.13 47.46L321.29 47.46Q318.94 54.61 315.60 63.06Q312.27 71.52 309.07 81.77L309.07 81.77Q305.78 81.86 303.43 82.00Q301.08 82.14 297.98 82.33L297.98 82.33L300.99 47.46L299.58 47.46Q299.48 48.50 298.73 51.46Q297.98 54.42 296.95 58.22Q295.91 62.03 294.78 65.79L294.78 65.79Q290.55 80.55 290.27 81.39L290.27 81.39ZM351.74 79.89L335.48 83.08Q338.30 70.39 340.84 58.27L340.84 58.27Q341.87 53.38 342.95 47.79Q344.03 42.20 345.16 36.47Q346.29 30.73 347.23 25.61Q348.17 20.49 348.73 16.64L348.73 16.64Q352.49 15.51 356.86 14.57Q361.23 13.63 364.71 13.63L364.71 13.63Q370.35 13.63 373.64 16.02Q376.93 18.42 378.34 22.46Q379.75 26.50 379.75 31.30L379.75 31.30Q379.75 36.56 377.82 41.40Q375.89 46.24 372.65 50.09Q369.41 53.95 365.23 56.20Q361.04 58.46 356.53 58.46L356.53 58.46L355.50 58.46Q354.75 61.65 354.09 65.41Q353.43 69.17 352.96 72.37L352.96 72.37Q352.58 74.25 352.30 76.13Q352.02 78.01 351.74 79.89L351.74 79.89ZM357.38 48.59L357.38 48.59Q359.54 48.03 361.70 45.72Q363.86 43.42 365.27 39.85Q366.68 36.28 366.68 32.05L366.68 32.05Q366.68 28.57 365.13 26.79Q363.58 25.00 361.70 25.00L361.70 25.00Q360.67 31.20 359.63 36.75Q358.60 42.29 357.38 48.59ZM371.76 83.08L371.76 83.08Q373.07 78.57 374.30 72.79Q375.52 67.01 376.60 61.00Q377.68 54.98 378.62 49.81Q379.56 44.64 380.12 41.26L380.12 41.26Q381.16 34.96 382.14 28.52Q383.13 22.09 384.07 15.41L384.07 15.41L415.55 13.82L412.83 25.38L398.07 25.38L395.16 42.11Q396.66 42.01 398.03 42.01Q399.39 42.01 400.70 42.01L400.70 42.01L405.12 42.01Q406.25 42.01 407.10 42.01Q407.94 42.01 408.60 41.92L408.60 41.92Q408.51 43.23 408.32 44.50Q408.13 45.77 407.94 47.09L407.94 47.09L407.10 52.16Q405.12 52.16 401.41 52.02Q397.70 51.88 393.56 51.79L393.56 51.79L389.24 79.51Q387.64 79.79 386.09 80.08Q384.54 80.36 382.94 80.73L382.94 80.73Q380.31 81.20 377.21 81.86Q374.11 82.52 371.76 83.08ZM411.51 61.28L411.51 61.28Q413.02 55.45 414.43 49.72Q415.84 43.98 417.25 38.25L417.25 38.25Q418.56 32.52 420.02 26.74Q421.48 20.96 422.98 15.23L422.98 15.23Q428.34 14.38 432.75 13.82Q437.17 13.25 439.99 12.78L439.99 12.78Q434.92 24.62 430.73 36.61Q426.55 48.59 422.42 60.71L422.42 60.71Q419.69 60.71 416.96 60.90Q414.24 61.09 411.51 61.28ZM411.33 85.15L411.33 85.15Q408.51 85.15 406.67 83.79Q404.84 82.42 403.95 80.40Q403.05 78.38 403.05 76.32L403.05 76.32Q403.05 72.56 405.55 69.78Q408.04 67.01 412.45 67.01L412.45 67.01Q417.90 67.01 420.63 69.60Q423.36 72.18 423.36 75.47L423.36 75.47Q423.36 79.23 420.25 82.19Q417.15 85.15 411.33 85.15ZM461.80 80.17L447.32 83.18Q448.54 76.69 449.72 70.35Q450.89 64.00 452.11 57.71L452.11 57.71Q453.43 49.91 454.61 43.05Q455.78 36.18 456.95 29.42Q458.13 22.65 459.26 15.23L459.26 15.23L474.48 14.19Q472.89 20.77 471.33 27.91Q469.78 35.06 468.47 41.82L468.47 41.82L477.77 40.79Q478.43 37.50 479.04 34.26Q479.65 31.02 480.12 27.82L480.12 27.82Q480.59 24.72 481.30 21.48Q482.00 18.23 482.85 14.94L482.85 14.94Q486.23 14.38 489.71 14.05Q493.19 13.72 495.54 13.58Q497.89 13.44 497.89 13.44L497.89 13.44Q496.66 17.20 495.44 22.27Q494.22 27.35 493.09 32.99Q491.96 38.63 490.93 44.22Q489.90 49.81 489.05 54.61L489.05 54.61Q488.02 60.62 487.08 66.68Q486.14 72.74 485.20 79.04L485.20 79.04L470.54 80.73Q471.19 77.91 471.71 75.14Q472.23 72.37 472.70 69.74L472.70 69.74Q473.64 65.23 474.62 60.34Q475.61 55.45 476.17 51.97L476.17 51.97L467.06 52.82Q466.68 54.61 466.35 56.67Q466.02 58.74 465.55 61.09L465.55 61.09Q465.08 63.44 464.66 65.65Q464.24 67.86 463.86 70.02L463.86 70.02Q463.39 72.56 462.83 75.09Q462.27 77.63 461.80 80.17L461.80 80.17ZM512.36 82.80L512.36 82.80Q512.55 81.20 512.73 79.70Q512.92 78.20 513.11 76.69L513.11 76.69L513.67 71.43Q513.77 70.11 513.86 68.98Q513.96 67.86 514.05 66.92L514.05 66.92L505.87 66.92L502.11 80.45Q500.05 80.73 497.23 81.06Q494.41 81.39 491.96 81.67L491.96 81.67Q490.46 81.86 489.00 82.05Q487.55 82.24 486.04 82.42L486.04 82.42L493.47 57.80Q494.78 53.38 496.48 47.74Q498.17 42.11 499.91 36.18Q501.64 30.26 503.20 25.05Q504.75 19.83 505.69 16.26L505.69 16.26Q512.08 15.79 518.70 15.13Q525.33 14.47 531.63 13.35L531.63 13.35Q531.16 18.61 530.73 25.23Q530.31 31.86 529.98 38.91Q529.65 45.96 529.28 52.82L529.28 52.82Q529.09 59.30 528.81 66.21Q528.52 73.12 528.24 80.36L528.24 80.36Q526.83 80.55 525.42 80.73Q524.01 80.92 522.60 81.11L522.60 81.11Q520.25 81.48 517.43 81.95Q514.61 82.42 512.36 82.80ZM513.96 33.93L508.13 57.52Q508.69 57.52 510.24 57.42Q511.80 57.33 513.20 57.24Q514.61 57.14 514.90 57.14L514.90 57.14Q514.90 55.92 515.27 52.16Q515.65 48.40 516.02 44.27L516.02 44.27Q516.21 41.82 516.45 39.24Q516.68 36.65 516.96 33.93L516.96 33.93L517.53 25.75L516.12 25.85L513.96 33.93ZM527.40 3.76L527.40 3.76Q523.64 3.76 521.76 1.27Q519.88-1.22 519.88-4.32L519.88-4.32Q519.88-7.61 522.09-10.15Q524.30-12.69 528.43-12.69L528.43-12.69Q532.94-12.69 535.20-10.34Q537.45-7.99 537.45-5.08L537.45-5.08Q537.45-1.88 534.87 0.94Q532.28 3.76 527.40 3.76ZM505.59 3.76L505.59 3.76Q501.83 3.76 499.95 1.27Q498.07-1.22 498.07-4.32L498.07-4.32Q498.07-7.52 500.19-10.10Q502.30-12.69 506.53-12.69L506.53-12.69Q511.14-12.69 513.35-10.34Q515.55-7.99 515.55-5.08L515.55-5.08Q515.55-1.41 512.78 1.17Q510.01 3.76 505.59 3.76ZM553.81 59.68L542.72 60.81Q542.72 55.73 544.17 51.74Q545.63 47.74 547.89 44.64Q550.14 41.54 552.49 39.29L552.49 39.29Q556.06 35.81 559.07 33.18Q562.08 30.55 562.08 28.48L562.08 28.48Q562.08 27.91 561.33 26.93Q560.57 25.94 558.98 25.94L558.98 25.94Q557.28 25.94 554.65 27.35Q552.02 28.76 549.20 30.87Q546.38 32.99 543.94 35.24L543.94 35.24L538.96 23.68Q543.75 19.36 549.77 16.87Q555.78 14.38 561.98 14.38L561.98 14.38Q565.84 14.38 569.22 15.51Q572.60 16.64 574.72 19.27Q576.83 21.90 576.83 26.41L576.83 26.41Q576.83 32.89 573.78 37.17Q570.72 41.45 566.68 44.45L566.68 44.45Q562.45 47.56 558.74 51.13Q555.03 54.70 553.81 59.68L553.81 59.68ZM545.07 85.15L545.07 85.15Q541.31 85.15 539.52 82.85Q537.73 80.55 537.73 77.35L537.73 77.35Q537.73 74.91 538.96 72.56Q540.18 70.21 542.53 68.61Q544.88 67.01 548.26 67.01L548.26 67.01Q553.43 67.01 555.83 69.27Q558.22 71.52 558.22 74.44L558.22 74.44Q558.22 77.07 556.67 79.56Q555.12 82.05 552.16 83.60Q549.20 85.15 545.07 85.15ZM594.97 59.68L583.88 60.81Q583.88 55.73 585.34 51.74Q586.80 47.74 589.05 44.64Q591.31 41.54 593.66 39.29L593.66 39.29Q597.23 35.81 600.23 33.18Q603.24 30.55 603.24 28.48L603.24 28.48Q603.24 27.91 602.49 26.93Q601.74 25.94 600.14 25.94L600.14 25.94Q598.45 25.94 595.82 27.35Q593.19 28.76 590.37 30.87Q587.55 32.99 585.10 35.24L585.10 35.24L580.12 23.68Q584.92 19.36 590.93 16.87Q596.95 14.38 603.15 14.38L603.15 14.38Q607.00 14.38 610.39 15.51Q613.77 16.64 615.88 19.27Q618.00 21.90 618.00 26.41L618.00 26.41Q618.00 32.89 614.94 37.17Q611.89 41.45 607.85 44.45L607.85 44.45Q603.62 47.56 599.91 51.13Q596.19 54.70 594.97 59.68L594.97 59.68ZM586.23 85.15L586.23 85.15Q582.47 85.15 580.69 82.85Q578.90 80.55 578.90 77.35L578.90 77.35Q578.90 74.91 580.12 72.56Q581.34 70.21 583.69 68.61Q586.04 67.01 589.43 67.01L589.43 67.01Q594.60 67.01 596.99 69.27Q599.39 71.52 599.39 74.44L599.39 74.44Q599.39 77.07 597.84 79.56Q596.29 82.05 593.33 83.60Q590.37 85.15 586.23 85.15Z"/>
            </svg>