<?xml version="1.0" encoding="UTF-8" standalone="no"?>
            <svg
               xmlns="http://www.w3.org/2000/svg"
               xmlns:svg="http://www.w3.org/2000/svg"
               width="100"
               height="100"
               version="1.1"
               id="svg1"
               viewBox="0 0 100 100"
               >
               <path fill="black" d="M-1.70 42.74L-6.70 48.82Q-7.12 49.25-7.59 49.25L-7.59 49.25Q-8.30 49.25-8.89 48.37Q-9.48 47.50-9.91 47.03L-9.91 47.03Q-13.87 43.07-16.75 45.42L-16.75 45.42Q-17.31 45.80-16.93 46.46L-16.93 46.46Q-14.95 49.53-13.63 52.31L-13.63 52.31Q-10.80 58.49-11.63 64.76Q-12.45 71.04-15.90 76.04Q-19.34 81.04-24.83 84.22Q-30.33 87.41-36.84 87.41L-36.84 87.41Q-45.19 87.41-51.23 83.47Q-57.26 79.53-57.78 72.17L-57.78 72.17L-56.93 68.30Q-56.51 66.37-55.90 64.48L-55.90 64.48Q-54.20 59.62-56.32 57.92L-56.32 57.92Q-57.50 56.98-59.01 56.98L-59.01 56.98Q-60.42 56.93-60.42 55.83Q-60.42 54.72-59.01 54.67L-59.01 54.67Q-57.83 54.67-56.46 54.95Q-55.09 55.24-53.92 55.42L-53.92 55.42Q-48.87 56.51-46.08 59.50Q-43.30 62.50-45.24 69.29L-45.24 69.29Q-47.08 75.57-45.73 79.91Q-44.39 84.25-37.03 84.67L-37.03 84.67Q-30.57 84.95-26.98 81.04Q-23.40 77.12-22.45 70.75L-22.45 70.75Q-21.79 66.32-24.39 60.85Q-26.98 55.38-31.32 49.86L-31.32 49.86Q-41.18 37.41-39.10 32.15Q-37.03 26.89-29.95 20.61L-29.95 20.61L-29.95 20.57Q-29.72 20.33-29.20 20.33L-29.20 20.33Q-28.02 20.33-28.02 21.46L-28.02 21.46Q-28.02 21.93-28.44 22.36L-28.44 22.36Q-32.45 26.60-28.87 30.90L-28.87 30.90Q-26.32 34.01-23.84 37.05Q-21.37 40.09-19.25 43.07L-19.25 43.07Q-18.63 43.82-17.97 43.11L-17.97 43.11Q-15.99 40.61-13.96 38.14Q-11.93 35.66-9.86 33.11L-9.86 33.11Q-9.01 32.08-8.02 32.88L-8.02 32.88Q-6.32 34.29-4.69 35.73Q-3.07 37.17-1.37 38.58L-1.37 38.58Q-0.94 38.92-0.42 39.39Q0.09 39.86 0.09 40.38L0.09 40.38Q0.09 40.80-0.54 41.49Q-1.18 42.17-1.70 42.74L-1.70 42.74ZM-38.77 48.30L-38.77 48.30Q-48.16 52.50-57.08 48.77L-57.08 48.77Q-66.08 45.00-67.59 34.15Q-69.10 23.30-61.13 14.10Q-53.16 4.91-38.92 4.91L-38.92 4.91Q-32.22 4.91-25.42 7.12Q-18.63 9.34-11.70 13.02L-11.70 13.02Q-7.12 15.42-2.74 13.92L-2.74 13.92Q-1.79 13.54-1.32 13.40L-1.32 13.40Q-0.28 13.21-0.02 13.96Q0.24 14.72-0.90 15.61L-0.90 15.61Q-4.29 18.07-7.74 20.45Q-11.18 22.83-14.48 25.38L-14.48 25.38Q-15.66 26.32-17.08 25.42L-17.08 25.42Q-21.32 22.31-28.80 18.92Q-36.27 15.52-43.92 15.52L-43.92 15.52Q-52.88 15.52-58.56 20.61Q-64.25 25.71-63.99 33.61Q-63.73 41.51-57.08 45.90Q-50.42 50.28-40.05 46.23L-40.05 46.23Q-39.20 45.90-38.63 46.06Q-38.07 46.23-37.85 46.63Q-37.64 47.03-37.85 47.52Q-38.07 48.02-38.77 48.30ZM21.04 40.00L21.04 58.77Q20.99 66.37 23.87 67.55L23.87 67.55Q24.20 67.78 24.20 68.18Q24.20 68.58 23.87 68.77L23.87 68.77Q19.62 71.98 16.98 77.31L16.98 77.31Q16.70 77.69 16.27 77.69Q15.85 77.69 15.57 77.31L15.57 77.31Q12.92 71.98 8.40 68.82L8.40 68.82Q8.11 68.63 8.11 68.21Q8.11 67.78 8.44 67.55L8.44 67.55Q11.51 66.37 11.51 58.77L11.51 58.77L11.51 43.11Q11.51 38.30 9.72 37.22L9.72 37.22Q7.64 35.85 6.32 38.21L6.32 38.21Q5.80 39.20 5.14 38.68Q4.48 38.16 5.19 37.03L5.19 37.03Q6.56 34.86 7.81 32.59Q9.06 30.33 10.38 28.07L10.38 28.07Q11.13 26.70 12.50 27.50L12.50 27.50L12.55 27.55Q19.48 31.04 20.85 36.08L20.85 36.08Q20.94 36.60 21.32 36.70Q21.70 36.79 22.08 36.51L22.08 36.51Q24.67 34.34 27.41 31.93Q30.14 29.53 31.13 27.50L31.13 27.50Q31.65 26.27 32.83 27.55L32.83 27.55Q35.66 30.52 37.67 32.26Q39.67 34.01 44.48 34.86L44.48 34.86Q45.33 35.05 45.35 35.59Q45.38 36.13 44.76 36.32L44.76 36.32Q43.54 36.79 42.59 37.95Q41.65 39.10 41.65 41.79L41.65 41.79L41.65 61.75Q41.65 66.56 43.44 67.64L43.44 67.64Q45.52 68.92 46.79 66.60L46.79 66.60Q47.31 65.71 48.00 66.20Q48.68 66.70 47.97 67.83L47.97 67.83Q46.56 70.05 45.31 72.29Q44.06 74.53 42.78 76.75L42.78 76.75Q41.93 78.07 40.66 77.36L40.66 77.36Q32.08 73.21 32.08 65.05L32.08 65.05L32.12 40.90Q32.12 39.48 31.42 39.06L31.42 39.06L31.37 39.06L31.37 38.96L27.36 35.66Q26.84 35.28 26.27 35.61L26.27 35.61L21.37 39.43Q21.04 39.67 21.04 40.00L21.04 40.00ZM52.83 35.66L52.83 35.66Q52.92 35.00 53.82 34.81L53.82 34.81Q56.70 34.10 57.85 32.38Q59.01 30.66 58.87 26.37L58.87 26.37Q58.35 21.84 57.00 18.96Q55.66 16.08 53.58 13.96L53.58 13.96Q52.78 13.16 53.44 12.59Q54.10 12.03 55.00 12.92L55.00 12.92Q56.08 14.25 57.24 15.75Q58.40 17.26 59.20 18.87L59.20 18.87Q59.43 19.34 59.88 19.34Q60.33 19.34 60.57 18.96L60.57 18.96Q63.40 14.25 68.33 11.34Q73.25 8.44 79.01 8.63L79.01 8.63Q80.00 8.68 80.09 9.55Q80.19 10.42 79.01 10.42L79.01 10.42Q74.34 10.42 71.53 13.11Q68.73 15.80 68.73 23.44L68.73 23.44Q68.73 24.06 69.32 24.22Q69.91 24.39 70.24 23.77L70.24 23.77Q73.11 17.50 78.96 15.85L78.96 15.85Q79.95 15.80 79.95 16.60L79.95 16.60L79.95 24.95Q80.00 25.94 79.10 25.71L79.10 25.71Q73.96 25.05 70.19 28.68L70.19 28.68Q69.48 29.67 69.58 30.71Q69.67 31.75 70.80 31.75L70.80 31.75L78.92 31.75Q79.67 31.75 79.67 32.50L79.67 32.50L79.67 35.52Q79.67 36.32 78.92 36.32L78.92 36.32L69.39 36.32Q68.73 36.32 68.73 37.17L68.73 37.17L68.68 63.77Q68.68 65.28 69.39 65.71L69.39 65.71L72.78 67.64Q73.87 68.16 76.04 65.38L76.04 65.38Q76.51 64.81 77.17 65.28Q77.83 65.75 77.26 66.32L77.26 66.32Q72.31 71.84 69.67 77.17L69.67 77.17Q69.10 78.16 67.97 77.17L67.97 77.17Q65.57 74.01 63.33 72.38Q61.08 70.75 56.32 69.86L56.32 69.86Q55.57 69.76 55.54 69.17Q55.52 68.58 56.04 68.35L56.04 68.35Q57.22 67.92 58.18 66.77Q59.15 65.61 59.15 62.92L59.15 62.92L59.10 37.26Q59.10 36.32 58.16 36.32L58.16 36.32L53.87 36.32Q52.78 36.32 52.83 35.66ZM97.69 28.11L97.69 28.11L105.85 28.11Q106.60 28.11 106.60 28.87L106.60 28.87L106.60 31.79Q106.60 32.55 105.85 32.55L105.85 32.55L100.14 32.55Q99.81 32.55 99.55 32.83Q99.29 33.11 99.39 33.40L99.39 33.40Q99.67 36.04 99.25 40.75L99.25 40.75L94.48 90.38Q94.29 91.98 93.54 92.00Q92.78 92.03 92.59 90.28L92.59 90.28Q91.42 75.85 90.19 61.46Q88.96 47.08 87.59 32.64L87.59 32.64L82.12 32.64Q81.42 32.64 81.39 31.96Q81.37 31.27 81.93 31.18L81.93 31.18Q85 30.66 87.03 28.02Q89.06 25.38 88.77 21.13L88.77 21.13Q88.44 14.43 90.52 9.88Q92.59 5.33 98.82 7.36L98.82 7.36Q102.26 8.54 105.12 9.41Q107.97 10.28 109.15 8.44L109.15 8.44Q109.72 7.45 110.19 7.59Q110.66 7.74 110.05 9.43L110.05 9.43Q108.35 14.81 105.64 16.67Q102.92 18.54 97.22 15.80L97.22 15.80Q91.70 13.25 90.73 18.33Q89.76 23.40 92.78 24.95L92.78 24.95Q95.71 26.56 96.60 27.59L96.60 27.59Q97.12 28.11 97.69 28.11ZM124.34 40.42L124.34 40.42L124.29 63.30Q124.29 64.81 125.05 65.24L125.05 65.24L128.44 67.22Q129.53 67.88 131.75 64.91L131.75 64.91Q132.22 64.29 132.92 64.65Q133.63 65.00 132.92 65.85L132.92 65.85Q127.97 71.37 125.33 76.70L125.33 76.70Q124.53 77.78 123.58 76.70L123.58 76.70Q120.94 73.63 118.66 72.03Q116.37 70.42 111.93 69.39L111.93 69.39Q111.08 69.15 111.08 68.63Q111.08 68.11 111.70 67.88L111.70 67.88Q114.86 67.36 114.81 62.45L114.81 62.45L114.81 42.50Q114.81 37.69 113.02 36.60L113.02 36.60Q110.94 35.24 109.62 37.59L109.62 37.59Q109.10 38.58 108.44 38.07Q107.78 37.55 108.49 36.42L108.49 36.42Q109.86 34.25 111.11 31.98Q112.36 29.72 113.68 27.45L113.68 27.45Q114.48 26.04 115.80 26.93L115.80 26.93Q122.74 30.28 124.10 35.42L124.10 35.42Q124.25 35.90 124.67 36.01Q125.09 36.13 125.42 35.71L125.42 35.71L132.69 27.36Q132.97 27.08 133.35 27.10Q133.73 27.12 133.96 27.50L133.96 27.50L138.92 36.98Q139.10 37.41 138.82 37.78L138.82 37.78L133.16 44.58Q132.83 44.91 132.43 44.86Q132.03 44.81 131.89 44.43L131.89 44.43L128.07 37.36Q127.88 37.08 127.48 37.00Q127.08 36.93 126.75 37.26L126.75 37.26L124.53 39.95Q124.34 40.14 124.34 40.42ZM158.96 37.36L158.96 37.36L158.92 63.77Q158.92 65.24 159.62 65.71L159.62 65.71L163.02 67.64Q164.01 68.49 166.32 65.38L166.32 65.38Q166.75 64.76 167.48 65.19Q168.21 65.61 167.55 66.32L167.55 66.32Q162.50 71.84 159.95 77.17L159.95 77.17Q159.15 78.16 158.21 77.17L158.21 77.17Q155.57 74.06 153.30 72.50Q151.04 70.94 146.56 69.86L146.56 69.86Q145.80 69.72 145.75 69.15Q145.71 68.58 146.32 68.35L146.32 68.35Q149.48 67.59 149.43 62.92L149.43 62.92L149.39 37.41Q149.43 36.56 148.68 36.56L148.68 36.56L143.11 36.56Q142.45 36.56 142.26 36.04L142.26 36.04Q142.08 35.52 142.69 35.14L142.69 35.14Q148.35 31.13 154.22 25.47Q160.09 19.81 164.91 14.72L164.91 14.72Q165.52 14.06 166.11 14.46Q166.70 14.86 166.13 15.61L166.13 15.61Q163.96 18.30 161.77 22.59Q159.58 26.89 159.10 30.42L159.10 30.42Q159.01 30.90 159.15 31.13L159.15 31.13Q159.43 31.42 159.81 31.42L159.81 31.42L167.97 31.42Q168.30 31.42 168.54 31.65L168.54 31.65Q168.77 31.98 168.77 32.26L168.77 32.26L168.58 35.80Q168.49 36.56 167.78 36.56L167.78 36.56L159.62 36.56Q158.96 36.56 158.96 37.36Z"/>
            </svg>