<?xml version="1.0" encoding="UTF-8" standalone="no"?>
            <svg
               xmlns="http://www.w3.org/2000/svg"
               xmlns:svg="http://www.w3.org/2000/svg"
               width="100"
               height="100"
               version="1.1"
               id="svg1"
               viewBox="0 0 100 100"
               >
               <path fill="black" d="M-64.32 60.42L-64.32 74.90Q-64.32 77.72-62.87 78.60L-62.87 78.60L-64.32 80.77Q-66.41 80.77-68.70 79.73Q-71.00 78.68-72.28 77.47L-72.28 77.47Q-73.65 78.68-76.91 79.73Q-80.17 80.77-83.07 80.77L-83.07 80.77Q-88.94 80.77-92.64 77.63L-92.64 77.63Q-95.94 80.77-100.16 80.77Q-104.38 80.77-107.96 76.71Q-111.54 72.65-112.11 68.30L-112.11 68.30L-109.86 66.85Q-109.45 67.50-108.25 67.50L-108.25 67.50Q-105.03 67.50-105.03 61.54L-105.03 61.54L-105.83 61.54L-109.86 56.72L-109.86 50.84Q-106.48 50.84-105.11 51.09L-105.11 51.09L-105.11 35.80L-107.36 35.80L-111.38 30.97L-111.38 19.63L-68.18 19.63L-64.16 24.46L-64.16 44.09L-73.49 44.09L-77.51 39.26L-77.51 35.80L-86.12 35.80L-86.12 40.47L-80.41 40.47L-76.39 45.29L-76.39 54.63L-82.42 54.63L-81.54 55.67L-81.54 61.54Q-82.82 61.63-83.63 61.75Q-84.43 61.87-85.32 62.59Q-86.20 63.31-86.20 64.68L-86.20 64.68L-86.20 65.00Q-85.08 65.41-82.98 65.41Q-80.89 65.41-79.04 64.12Q-77.19 62.83-77.19 60.50L-77.19 60.50Q-77.19 60.10-77.67 58.17L-77.67 58.17L-77.67 55.59L-68.34 55.59L-64.32 60.42ZM-100.68 53.50L-100.68 53.50Q-99.88 53.02-98.75 51.57L-98.75 51.57L-96.58 51.57Q-95.53 53.02-94.73 53.50L-94.73 53.50Q-93.85 52.37-92.56 51.73L-92.56 51.73L-92.56 47.55L-82.66 47.55L-82.66 42.72L-92.56 42.72L-92.56 28.72L-75.26 28.72L-75.26 37.01L-70.43 37.01L-70.43 21.88L-109.13 21.88L-109.13 28.72L-102.70 28.72L-102.70 51.81Q-101.65 52.37-100.68 53.50ZM-75.02 60.82L-75.02 60.82Q-75.02 64.04-77.47 65.89Q-79.93 67.74-83.47 67.74Q-87.01 67.74-89.78 65.69Q-92.56 63.64-92.56 59.45L-92.56 59.45Q-92.56 58.00-91.39 56.44Q-90.23 54.87-87.65 54.87L-87.65 54.87L-87.65 52.94Q-89.10 52.94-89.86 53.06Q-90.63 53.18-91.83 54.02Q-93.04 54.87-94.01 56.56L-94.01 56.56Q-95.94 56.15-97.71 53.82L-97.71 53.82Q-99.16 55.91-101.33 56.56L-101.33 56.56Q-102.37 54.87-103.58 54.02Q-104.79 53.18-105.55 53.06Q-106.32 52.94-107.76 52.94L-107.76 52.94L-107.76 54.87Q-105.03 54.87-103.78 56.76Q-102.53 58.65-102.53 62.03Q-102.53 65.41-103.62 67.58Q-104.71 69.75-108.17 69.75L-108.17 69.75L-109.29 69.59Q-107.84 73.69-104.22 73.69Q-100.60 73.69-97.14 70.07L-97.14 70.07L-96.42 70.07L-96.10 70.39Q-92.24 73.61-86.73 73.61Q-81.21 73.61-76.31 69.83L-76.31 69.83Q-75.58 70.56-73.33 71.88Q-71.08 73.21-69.79 73.45L-69.79 73.45Q-70.51 72.65-70.51 69.27L-70.51 69.27L-70.51 58.00L-75.42 58.00Q-75.02 59.37-75.02 60.82ZM-12.75 62.99L-12.75 62.99L-12.59 66.37Q-12.59 73.93-17.78 77.84Q-22.97 81.74-30.05 81.74L-30.05 81.74Q-32.22 81.74-34.39 81.17Q-36.56 80.61-37.69 80.01Q-38.82 79.40-40.39 78.48Q-41.95 77.55-42.12 77.47L-42.12 77.47L-44.05 76.35Q-45.74 78.04-48.51 79.40Q-51.29 80.77-53.46 80.77L-53.46 80.77L-57.48 75.95L-58.93 73.69Q-57.48 72.89-57.48 70.15L-57.48 70.15L-57.48 55.67L-48.15 55.67L-44.13 60.50L-44.13 62.99L-43.81 65.33Q-42.12 66.37-38.54 66.37Q-34.96 66.37-34.15 62.99L-34.15 62.99Q-35.44 63.72-35.92 64.20L-35.92 64.20L-43.72 54.87L-42.36 53.66Q-45.82 51.49-47.87 49.96Q-49.92 48.43-52.74 45.70L-52.74 45.70Q-58.37 40.39-58.37 33.27Q-58.37 26.15-52.94 22.41Q-47.51 18.66-40.35 18.66L-40.35 18.66Q-36.48 18.66-33.43 19.83Q-30.37 21.00-29.24 22.20L-29.24 22.20L-28.12 23.33L-28.12 19.63L-18.14 19.63L-14.12 24.46L-14.12 42.48L-23.53 42.48L-27.55 37.65L-28.68 33.95Q-30.05 33.23-31.90 33.23Q-33.75 33.23-35.00 34.51Q-36.24 35.80-36.24 38.05L-36.24 38.05L-36.16 38.78Q-35.92 39.02-31.70 40.99Q-27.47 42.96-23.61 45.66Q-19.75 48.35-18.79 51.01L-18.79 51.01Q-17.58 50.84-14.44 50.84L-14.44 50.84L-10.42 55.67L-10.42 61.54Q-12.75 61.54-12.75 62.99ZM-55.95 32.66L-55.95 32.66Q-55.95 36.60-53.90 39.70Q-51.85 42.80-49.44 44.37Q-47.02 45.94-43.24 48.03Q-39.46 50.12-37.93 51.25L-37.93 51.25Q-36.48 50.84-35.04 50.84L-35.04 50.84Q-31.90 50.84-29.00 53.26L-29.00 53.26L-27.55 51.65L-25.54 51.65Q-24.50 53.02-23.69 53.50L-23.69 53.50Q-22.73 52.29-21.28 51.65L-21.28 51.65Q-22.97 48.67-26.75 46.22Q-30.53 43.77-33.95 42.40Q-37.37 41.03-40.06 38.66Q-42.76 36.28-42.76 33.23L-42.76 33.23Q-42.76 31.21-41.87 29.53L-41.87 29.53Q-40.02 26.15-35.76 26.15L-35.76 26.15Q-28.68 26.15-25.70 35.40L-25.70 35.40L-19.99 35.40L-19.99 21.88L-26.11 21.88L-26.11 27.51L-26.59 27.51Q-31.82 21.00-40.27 21.00L-40.27 21.00Q-46.62 21.00-51.29 24.18Q-55.95 27.35-55.95 32.66ZM-18.95 61.71L-18.95 61.71L-19.11 58.17Q-19.11 54.79-16.45 54.79L-16.45 54.79L-16.45 52.78Q-17.98 52.78-18.74 52.90Q-19.51 53.02-20.72 53.90Q-21.92 54.79-22.97 56.56L-22.97 56.56Q-24.90 56.23-26.51 53.82L-26.51 53.82Q-28.04 55.67-29.73 56.15L-29.73 56.15Q-31.98 52.78-35.84 52.78L-35.84 52.78Q-38.33 52.78-40.75 55.03L-40.75 55.03L-39.54 56.56Q-38.01 55.35-36.40 55.35Q-34.79 55.35-33.55 56.32Q-32.30 57.28-32.02 58.57Q-31.74 59.86-31.74 61.42Q-31.74 62.99-32.18 64.44Q-32.62 65.89-34.31 67.30Q-36.00 68.70-38.74 68.70L-38.74 68.70Q-43.32 68.70-46.62 65.97Q-49.92 63.23-50.40 58.00L-50.40 58.00L-55.15 58.00L-55.15 69.35Q-55.15 72.65-55.95 73.37L-55.95 73.37Q-54.42 73.13-51.81 71.52Q-49.20 69.91-48.55 68.70L-48.55 68.70Q-47.43 69.43-45.33 70.72L-45.33 70.72Q-38.98 74.66-34.23 74.66L-34.23 74.66Q-27.80 74.66-23.37 71.32Q-18.95 67.98-18.95 61.71ZM2.29 30.81L2.29 19.63L41.71 19.63L45.74 24.46L45.74 35.64L41.55 35.64L44.53 50.93Q45.25 50.84 46.78 50.84L46.78 50.84L50.80 55.67L51.77 61.46Q47.43 61.46 47.43 65.33L47.43 65.33Q47.43 67.66 47.99 67.66L47.99 67.66Q49.36 67.66 49.52 66.85L49.52 66.85L52.09 68.38L56.11 73.21Q56.11 77.07 54.22 78.92Q52.33 80.77 49.40 80.77Q46.46 80.77 42.68 78.76L42.68 78.76Q39.70 80.77 36.89 80.77L36.89 80.77Q32.46 80.77 28.56 76.83Q24.66 72.89 23.29 68.38L23.29 68.38L25.22 66.85Q25.86 67.66 27.07 67.66L27.07 67.66Q29.73 67.66 29.73 64.52L29.73 64.52L29.49 62.67Q27.96 61.87 25.74 61.87Q23.53 61.87 21.52 63.15Q19.51 64.44 18.79 66.85L18.79 66.85L20.72 68.38L24.74 73.21Q23.61 76.99 21.00 78.88Q18.38 80.77 15.45 80.77Q12.51 80.77 9.29 78.76L9.29 78.76Q5.67 80.77 2.61 80.77L2.61 80.77Q-1.57 80.77-4.75 76.75Q-7.92 72.73-7.92 68.38L-7.92 68.38L-5.43 66.85Q-5.27 67.66-3.86 67.66Q-2.45 67.66-1.13 65.73Q0.20 63.80 0.52 61.46L0.52 61.46L-3.74 56.64L-2.78 50.84Q0.68 50.84 2.45 51.33L2.45 51.33L5.67 34.92L2.29 30.81ZM32.14 53.58L32.14 53.58Q32.86 53.02 33.75 51.57L33.75 51.57L35.84 51.57Q37.13 53.10 38.17 53.58L38.17 53.58Q38.50 53.02 39.46 52.21L39.46 52.21L34.88 28.48L39.46 28.48L39.46 21.88L4.55 21.88L4.55 28.48L9.13 28.48L4.47 52.21Q5.43 52.94 5.91 53.58L5.91 53.58Q6.88 53.02 8.17 51.57L8.17 51.57L10.26 51.57Q10.90 53.10 11.63 53.58L11.63 53.58Q14.68 50.52 21.96 50.52Q29.24 50.52 32.14 53.58ZM37.93 71.04L38.42 71.04Q41.95 73.77 45.21 73.77Q48.47 73.77 49.52 69.59L49.52 69.59Q49.12 69.91 48.39 69.91L48.39 69.91Q45.33 69.91 43.20 66.89Q41.07 63.88 41.07 61.14L41.07 61.14Q41.07 55.43 45.49 54.79L45.49 54.79L45.17 52.86Q43.64 52.86 42.88 52.98Q42.12 53.10 41.07 53.94Q40.02 54.79 39.30 56.56L39.30 56.56Q37.45 56.23 35.12 53.82L35.12 53.82Q34.55 54.87 33.79 55.55Q33.02 56.23 32.06 56.56L32.06 56.56Q28.92 52.70 21.92 52.70Q14.92 52.70 11.95 56.56L11.95 56.56Q10.10 56.23 8.81 53.82L8.81 53.82Q6.88 55.91 4.79 56.56L4.79 56.56Q4.06 54.79 2.98 53.94Q1.89 53.10 1.09 52.98Q0.28 52.86-1.17 52.86L-1.17 52.86L-1.49 54.79Q0.76 55.11 1.85 56.68Q2.94 58.25 2.94 61.06Q2.94 63.88 0.80 66.89Q-1.33 69.91-4.30 69.91L-4.30 69.91L-5.43 69.59Q-4.38 73.77-1.21 73.77Q1.97 73.77 5.59 71.04L5.59 71.04L6.07 71.04Q8.81 73.77 11.54 73.77L11.54 73.77Q15.16 73.77 17.82 69.59L17.82 69.59Q17.18 69.91 16.37 69.91L16.37 69.91Q11.87 69.91 11.87 65.25Q11.87 60.58 14.92 57.88Q17.98 55.19 22.00 55.19Q26.03 55.19 29.08 57.88Q32.14 60.58 32.14 65.25Q32.14 69.91 27.63 69.91L27.63 69.91L26.11 69.59Q28.68 73.77 32.46 73.77L32.46 73.77Q35.28 73.77 37.93 71.04L37.93 71.04ZM29.49 48.59L14.68 48.59L19.03 28.48L24.98 28.48L29.49 48.59ZM26.75 46.50L24.58 36.93L22.49 46.50L26.75 46.50ZM106.15 60.42L106.15 74.90Q106.15 77.72 107.60 78.60L107.60 78.60L106.15 80.77Q104.06 80.77 101.77 79.73Q99.48 78.68 98.19 77.47L98.19 77.47Q96.82 78.68 93.56 79.73Q90.31 80.77 87.41 80.77L87.41 80.77Q81.54 80.77 77.84 77.63L77.84 77.63Q74.54 80.77 70.31 80.77Q66.09 80.77 62.51 76.71Q58.93 72.65 58.37 68.30L58.37 68.30L60.62 66.85Q61.02 67.50 62.23 67.50L62.23 67.50Q65.45 67.50 65.45 61.54L65.45 61.54L64.64 61.54L60.62 56.72L60.62 50.84Q64.00 50.84 65.37 51.09L65.37 51.09L65.37 35.80L63.11 35.80L59.09 30.97L59.09 19.63L102.29 19.63L106.32 24.46L106.32 44.09L96.98 44.09L92.96 39.26L92.96 35.80L84.35 35.80L84.35 40.47L90.06 40.47L94.09 45.29L94.09 54.63L88.05 54.63L88.94 55.67L88.94 61.54Q87.65 61.63 86.85 61.75Q86.04 61.87 85.16 62.59Q84.27 63.31 84.27 64.68L84.27 64.68L84.27 65.00Q85.40 65.41 87.49 65.41Q89.58 65.41 91.43 64.12Q93.28 62.83 93.28 60.50L93.28 60.50Q93.28 60.10 92.80 58.17L92.80 58.17L92.80 55.59L102.13 55.59L106.15 60.42ZM69.79 53.50L69.79 53.50Q70.60 53.02 71.72 51.57L71.72 51.57L73.89 51.57Q74.94 53.02 75.74 53.50L75.74 53.50Q76.63 52.37 77.92 51.73L77.92 51.73L77.92 47.55L87.81 47.55L87.81 42.72L77.92 42.72L77.92 28.72L95.21 28.72L95.21 37.01L100.04 37.01L100.04 21.88L61.34 21.88L61.34 28.72L67.78 28.72L67.78 51.81Q68.83 52.37 69.79 53.50ZM95.45 60.82L95.45 60.82Q95.45 64.04 93.00 65.89Q90.55 67.74 87.01 67.74Q83.47 67.74 80.69 65.69Q77.92 63.64 77.92 59.45L77.92 59.45Q77.92 58.00 79.08 56.44Q80.25 54.87 82.82 54.87L82.82 54.87L82.82 52.94Q81.38 52.94 80.61 53.06Q79.85 53.18 78.64 54.02Q77.43 54.87 76.47 56.56L76.47 56.56Q74.54 56.15 72.77 53.82L72.77 53.82Q71.32 55.91 69.15 56.56L69.15 56.56Q68.10 54.87 66.89 54.02Q65.69 53.18 64.92 53.06Q64.16 52.94 62.71 52.94L62.71 52.94L62.71 54.87Q65.45 54.87 66.69 56.76Q67.94 58.65 67.94 62.03Q67.94 65.41 66.85 67.58Q65.77 69.75 62.31 69.75L62.31 69.75L61.18 69.59Q62.63 73.69 66.25 73.69Q69.87 73.69 73.33 70.07L73.33 70.07L74.05 70.07L74.38 70.39Q78.24 73.61 83.75 73.61Q89.26 73.61 94.17 69.83L94.17 69.83Q94.89 70.56 97.14 71.88Q99.40 73.21 100.68 73.45L100.68 73.45Q99.96 72.65 99.96 69.27L99.96 69.27L99.96 58.00L95.05 58.00Q95.45 59.37 95.45 60.82ZM157.64 62.99L157.64 62.99L157.80 66.37Q157.80 73.93 152.61 77.84Q147.43 81.74 140.35 81.74L140.35 81.74Q138.17 81.74 136.00 81.17Q133.83 80.61 132.70 80.01Q131.58 79.40 130.01 78.48Q128.44 77.55 128.28 77.47L128.28 77.47L126.35 76.35Q124.66 78.04 121.88 79.40Q119.11 80.77 116.93 80.77L116.93 80.77L112.91 75.95L111.46 73.69Q112.91 72.89 112.91 70.15L112.91 70.15L112.91 55.67L122.24 55.67L126.27 60.50L126.27 62.99L126.59 65.33Q128.28 66.37 131.86 66.37Q135.44 66.37 136.24 62.99L136.24 62.99Q134.96 63.72 134.47 64.20L134.47 64.20L126.67 54.87L128.12 53.66Q124.58 51.49 122.53 50.00Q120.47 48.51 117.66 45.86L117.66 45.86Q112.03 40.39 112.03 33.27Q112.03 26.15 117.46 22.41Q122.89 18.66 130.05 18.66L130.05 18.66Q133.91 18.66 136.97 19.83Q140.02 21.00 141.15 22.20L141.15 22.20L142.28 23.33L142.28 19.63L152.25 19.63L156.28 24.46L156.28 42.48L146.86 42.48L142.84 37.65L141.71 33.95Q140.35 33.23 138.50 33.23Q136.65 33.23 135.40 34.51Q134.15 35.80 134.15 38.05L134.15 38.05L134.23 38.78Q134.47 39.02 138.70 40.99Q142.92 42.96 146.78 45.66Q150.64 48.35 151.61 51.01L151.61 51.01Q152.82 50.84 155.95 50.84L155.95 50.84L159.98 55.67L159.98 61.54Q157.64 61.54 157.64 62.99ZM114.44 32.66L114.44 32.66Q114.44 36.60 116.49 39.70Q118.54 42.80 120.96 44.37Q123.37 45.94 127.15 48.03Q130.93 50.12 132.46 51.25L132.46 51.25Q133.91 50.84 135.36 50.84L135.36 50.84Q138.50 50.84 141.39 53.26L141.39 53.26L142.84 51.65L144.85 51.65Q145.90 53.02 146.70 53.50L146.70 53.50Q147.67 52.29 149.12 51.65L149.12 51.65Q147.43 48.67 143.64 46.22Q139.86 43.77 136.44 42.40Q133.02 41.03 130.33 38.66Q127.63 36.28 127.63 33.23L127.63 33.23Q127.63 31.21 128.52 29.53L128.52 29.53Q130.37 26.15 134.63 26.15L134.63 26.15Q141.71 26.15 144.69 35.40L144.69 35.40L150.40 35.40L150.40 21.88L144.29 21.88L144.29 27.51L143.81 27.51Q138.58 21.00 130.13 21.00L130.13 21.00Q123.77 21.00 119.11 24.18Q114.44 27.35 114.44 32.66ZM151.45 61.71L151.45 61.71L151.29 58.17Q151.29 54.79 153.94 54.79L153.94 54.79L153.94 52.78Q152.41 52.78 151.65 52.90Q150.88 53.02 149.68 53.90Q148.47 54.79 147.43 56.56L147.43 56.56Q145.49 56.23 143.89 53.82L143.89 53.82Q142.36 55.67 140.67 56.15L140.67 56.15Q138.42 52.78 134.55 52.78L134.55 52.78Q132.06 52.78 129.65 55.03L129.65 55.03L130.85 56.56Q132.38 55.35 133.99 55.35Q135.60 55.35 136.85 56.32Q138.09 57.28 138.37 58.57Q138.66 59.86 138.66 61.42Q138.66 62.99 138.21 64.44Q137.77 65.89 136.08 67.30Q134.39 68.70 131.66 68.70L131.66 68.70Q127.07 68.70 123.77 65.97Q120.47 63.23 119.99 58.00L119.99 58.00L115.25 58.00L115.25 69.35Q115.25 72.65 114.44 73.37L114.44 73.37Q115.97 73.13 118.58 71.52Q121.20 69.91 121.84 68.70L121.84 68.70Q122.97 69.43 125.06 70.72L125.06 70.72Q131.42 74.66 136.16 74.66L136.16 74.66Q142.60 74.66 147.02 71.32Q151.45 67.98 151.45 61.71ZM200.28 35.80L197.47 35.80L197.47 50.84L198.11 50.84L202.13 55.67L202.13 61.54Q198.99 61.54 198.07 62.67Q197.14 63.80 197.14 66.29L197.14 66.29L197.14 67.50Q197.71 67.50 198.11 66.85L198.11 66.85L200.36 68.30L204.38 73.13Q203.90 76.91 201.65 78.84Q199.40 80.77 196.22 80.77Q193.04 80.77 189.98 78.60L189.98 78.60Q186.93 80.77 183.67 80.77Q180.41 80.77 176.23 76.91Q172.04 73.05 171.56 68.30L171.56 68.30L173.81 66.85Q174.14 67.58 175.34 67.58L175.34 67.58Q178.80 67.58 178.80 61.54L178.80 61.54L177.84 61.54L173.81 56.72L173.81 50.84Q177.11 50.84 178.48 51.09L178.48 51.09L178.48 35.80L176.15 35.80L176.15 44.09L166.81 44.09L162.79 39.26L162.79 19.63L209.13 19.63L213.15 24.46L213.15 44.09L204.30 44.09L200.28 39.26L200.28 35.80ZM182.98 53.50L182.98 53.50Q183.79 53.02 184.92 51.57L184.92 51.57L187.01 51.57Q188.05 53.02 188.94 53.50L188.94 53.50Q189.74 52.37 191.03 51.73L191.03 51.73L191.03 28.72L202.29 28.72L202.29 37.01L206.88 37.01L206.88 21.88L165.04 21.88L165.04 37.01L169.87 37.01L169.87 28.72L180.89 28.72L180.89 51.73Q182.02 52.29 182.98 53.50ZM185.72 71.04L186.20 71.04Q189.10 73.53 192.60 73.53Q196.10 73.53 197.71 69.51L197.71 69.51Q197.14 69.83 196.42 69.83L196.42 69.83Q190.79 69.83 190.79 61.54L190.79 61.54Q190.79 54.79 196.10 54.79L196.10 54.79L196.10 52.78Q194.57 52.78 193.77 52.90Q192.96 53.02 191.75 53.90Q190.55 54.79 189.58 56.56L189.58 56.56Q187.65 56.15 185.96 53.74L185.96 53.74Q184.27 55.91 182.34 56.56L182.34 56.56Q181.30 54.79 180.09 53.90Q178.88 53.02 178.08 52.90Q177.27 52.78 175.82 52.78L175.82 52.78L175.82 54.79Q181.13 54.79 181.13 61.54L181.13 61.54Q181.13 67.66 178.56 69.19L178.56 69.19Q177.35 69.83 175.50 69.83L175.50 69.83L174.22 69.51Q175.82 73.53 179.32 73.53Q182.82 73.53 185.72 71.04L185.72 71.04Z"/>
            </svg>