<?xml version="1.0" encoding="UTF-8" standalone="no"?>
            <svg
               xmlns="http://www.w3.org/2000/svg"
               xmlns:svg="http://www.w3.org/2000/svg"
               width="100"
               height="100"
               version="1.1"
               id="svg1"
               viewBox="0 0 100 100"
               >
               <path fill="black" d="M-77.58 80.16L-77.58 80.16Q-83.06 80.16-87.38 77.66Q-91.71 75.16-94.21 70.83Q-96.71 66.51-96.71 61.03L-96.71 61.03Q-96.71 55.63-94.29 51.35Q-91.87 47.06-87.62 44.56Q-83.37 42.06-78.06 42.06L-78.06 42.06Q-73.13 42.06-69.37 44.25Q-65.60 46.43-63.45 50.32Q-61.31 54.21-61.31 59.29L-61.31 59.29Q-61.31 59.60-61.35 60.28Q-61.39 60.95-61.55 61.98L-61.55 61.98L-94.96 61.98L-94.96 59.68L-63.13 59.68L-63.85 60.24Q-63.53 55.56-65.28 51.98Q-67.02 48.41-70.32 46.39Q-73.61 44.37-78.13 44.37L-78.13 44.37Q-82.90 44.37-86.51 46.47Q-90.12 48.57-92.14 52.26Q-94.17 55.95-94.17 60.87L-94.17 60.87Q-94.17 65.95-92.06 69.76Q-89.96 73.57-86.15 75.71Q-82.34 77.86-77.26 77.86L-77.26 77.86Q-73.45 77.86-70.24 76.43Q-67.02 75-64.80 72.14L-64.80 72.14L-63.13 73.81Q-65.60 76.75-69.37 78.45Q-73.13 80.16-77.58 80.16ZM-26.07 80.16L-26.07 80.16Q-31.71 80.16-36.51 78.06Q-41.31 75.95-44.88 72.14Q-48.45 68.33-50.44 63.29Q-52.42 58.25-52.42 52.46L-52.42 52.46Q-52.42 46.59-50.48 41.59Q-48.53 36.59-44.96 32.86Q-41.39 29.13-36.63 27.02Q-31.87 24.92-26.23 24.92L-26.23 24.92Q-20.60 24.92-15.79 27.02Q-10.99 29.13-7.46 32.86Q-3.93 36.59-1.94 41.63Q0.04 46.67 0.04 52.54L0.04 52.54Q0.04 58.33-1.90 63.37Q-3.85 68.41-7.42 72.18Q-10.99 75.95-15.71 78.06Q-20.44 80.16-26.07 80.16ZM4.72 81.83L3.13 83.41L-24.96 55.32L-23.37 53.73L4.72 81.83ZM-26.23 77.70L-26.23 77.70Q-19.48 77.70-14.17 74.37Q-8.85 71.03-5.75 65.32Q-2.66 59.60-2.66 52.46L-2.66 52.46Q-2.66 47.14-4.44 42.58Q-6.23 38.02-9.40 34.60Q-12.58 31.19-16.87 29.29Q-21.15 27.38-26.23 27.38L-26.23 27.38Q-32.98 27.38-38.29 30.67Q-43.61 33.97-46.67 39.64Q-49.72 45.32-49.72 52.46L-49.72 52.46Q-49.72 57.78-47.94 62.38Q-46.15 66.98-42.98 70.44Q-39.80 73.89-35.52 75.79Q-31.23 77.70-26.23 77.70ZM29.17 80.16L29.17 80.16Q23.77 80.16 19.52 77.66Q15.28 75.16 12.82 70.87Q10.36 66.59 10.36 61.19L10.36 61.19Q10.36 55.79 12.82 51.47Q15.28 47.14 19.48 44.60Q23.69 42.06 29.01 42.06L29.01 42.06Q33.21 42.06 36.59 43.61Q39.96 45.16 42.22 48.02Q44.48 50.87 45.36 54.84L45.36 54.84L45.36 67.30Q44.40 71.27 42.14 74.17Q39.88 77.06 36.59 78.61Q33.29 80.16 29.17 80.16ZM29.48 77.86L29.48 77.86Q36.31 77.86 40.36 73.29Q44.40 68.73 44.40 61.19L44.40 61.19Q44.40 56.11 42.54 52.34Q40.67 48.57 37.26 46.47Q33.85 44.37 29.33 44.37L29.33 44.37Q24.56 44.37 20.87 46.55Q17.18 48.73 15.04 52.50Q12.90 56.27 12.90 61.11L12.90 61.11Q12.90 65.95 15.04 69.72Q17.18 73.49 20.95 75.67Q24.72 77.86 29.48 77.86ZM46.79 79.37L44.33 79.37L44.33 69.60L45.04 60.56L44.33 51.75L44.33 42.86L46.79 42.86L46.79 79.37ZM59.80 79.37L57.10 79.37L78.93 25.71L81.31 25.71L102.98 79.37L100.20 79.37L79.48 27.94L80.67 27.94L59.80 79.37ZM93.93 61.67L66.23 61.67L66.23 59.37L93.93 59.37L93.93 61.67ZM126.94 80.16L126.94 80.16Q121.55 80.16 117.30 77.66Q113.06 75.16 110.60 70.87Q108.13 66.59 108.13 61.19L108.13 61.19Q108.13 55.79 110.60 51.47Q113.06 47.14 117.26 44.60Q121.47 42.06 126.79 42.06L126.79 42.06Q130.99 42.06 134.37 43.61Q137.74 45.16 140 48.02Q142.26 50.87 143.13 54.84L143.13 54.84L143.13 67.30Q142.18 71.27 139.92 74.17Q137.66 77.06 134.37 78.61Q131.07 80.16 126.94 80.16ZM127.26 77.86L127.26 77.86Q134.09 77.86 138.13 73.29Q142.18 68.73 142.18 61.19L142.18 61.19Q142.18 56.11 140.32 52.34Q138.45 48.57 135.04 46.47Q131.63 44.37 127.10 44.37L127.10 44.37Q122.34 44.37 118.65 46.55Q114.96 48.73 112.82 52.50Q110.67 56.27 110.67 61.11L110.67 61.11Q110.67 65.95 112.82 69.72Q114.96 73.49 118.73 75.67Q122.50 77.86 127.26 77.86ZM144.56 94.92L142.10 94.92L142.10 69.60L142.82 60.56L142.10 51.75L142.10 42.86L144.56 42.86L144.56 94.92ZM178.29 79.37L160.04 79.37L160.04 77.06L178.69 77.06Q185.20 77.06 189.13 73.65Q193.06 70.24 193.06 64.60L193.06 64.60Q193.06 60.95 191.35 58.17Q189.64 55.40 186.63 53.81Q183.61 52.22 179.64 52.22L179.64 52.22L160.04 52.22L160.04 50.08L179.25 50.08Q184.48 50.08 187.50 47.10Q190.52 44.13 190.52 39.05L190.52 39.05Q190.52 33.89 187.10 30.95Q183.69 28.02 177.98 28.02L177.98 28.02L160.04 28.02L160.04 25.71L177.98 25.71Q182.58 25.71 185.95 27.30Q189.33 28.89 191.19 31.83Q193.06 34.76 193.06 38.89L193.06 38.89Q193.06 43.65 190.67 46.94Q188.29 50.24 183.77 51.59L183.77 51.59L184.17 50.63Q189.56 51.90 192.62 55.63Q195.67 59.37 195.67 64.60L195.67 64.60Q195.67 69.05 193.53 72.38Q191.39 75.71 187.50 77.54Q183.61 79.37 178.29 79.37L178.29 79.37ZM161.31 79.37L158.77 79.37L158.77 25.71L161.31 25.71L161.31 79.37Z"/>
            </svg>