<?xml version="1.0" encoding="UTF-8" standalone="no"?>
            <svg
               xmlns="http://www.w3.org/2000/svg"
               xmlns:svg="http://www.w3.org/2000/svg"
               width="100"
               height="100"
               version="1.1"
               id="svg1"
               viewBox="0 0 100 100"
               >
               <path fill="black" d="M-110.72 14.45L-110.72 14.45Q-113.37 14.45-115.05 12.72Q-116.72 11-116.72 8.50L-116.72 8.50Q-116.72 6-115.05 4.27Q-113.37 2.55-110.72 2.55L-110.72 2.55Q-108.07 2.55-106.40 4.27Q-104.72 6-104.72 8.50L-104.72 8.50Q-104.72 11-106.40 12.72Q-108.07 14.45-110.72 14.45ZM-107.17 29.90L-106.27 29.90L-106.57 38L-106.57 69.25L-98.82 71.65L-98.82 73.50L-121.47 73.50L-121.47 71.65L-113.87 69.25L-113.87 39.20Q-114.42 38.60-115.60 37.88Q-116.77 37.15-118.25 36.45Q-119.72 35.75-121.27 35.30L-121.27 35.30L-121.27 33.75L-107.17 29.90ZM-68.92 68.95L-68.92 9.55L-60.92 9.55L-60.92 68.95L-53.02 71.55L-53.02 73.50L-76.82 73.50L-76.82 71.55L-68.92 68.95ZM-43.67 10.25L-39.07 11.20L-90.77 11.20L-86.17 10.25L-92.92 24.55L-95.22 24.10L-93.22 3.10L-92.32 3.10L-85.27 7.30L-89.62 6.50L-40.22 6.50L-44.57 7.30L-37.52 3.10L-36.62 3.10L-34.62 24.10L-36.92 24.55L-43.67 10.25ZM-2.37 73.50L-2.37 71.65L5.38 69.25L5.38 45.60Q5.38 42.90 4.23 40.92Q3.08 38.95 0.83 37.88Q-1.42 36.80-4.67 36.80L-4.67 36.80Q-8.62 36.80-12.00 38.27Q-15.37 39.75-16.67 41.80L-16.67 41.80L-18.62 40.20Q-15.97 37.35-13.60 35.38Q-11.22 33.40-8.95 32.20Q-6.67 31-4.27 30.45Q-1.87 29.90 0.78 29.90L0.78 29.90Q6.83 29.90 9.75 33.77Q12.68 37.65 12.68 46.05L12.68 46.05L12.68 69.25L20.38 71.65L20.38 73.50L-2.37 73.50ZM-8.42 71.65L-8.42 73.50L-31.07 73.50L-31.07 71.65L-23.47 69.25L-23.47 12.60Q-24.12 11.80-25.17 11Q-26.22 10.20-27.72 9.38Q-29.22 8.55-31.17 7.75L-31.17 7.75L-31.17 6.75L-16.67 2.55L-15.67 2.55L-16.17 10.55L-16.17 69.25L-8.42 71.65ZM88.78 16.10L91.98 14.40L68.63 74.50L66.28 74.50L50.38 11.15L42.98 8.45L42.98 6.50L67.23 6.50L67.23 8.45L58.58 11.05L71.23 62.25L69.28 62.25L90.73 5.50L93.18 5.50L116.68 64.25L112.68 66.10L125.08 11.05L116.53 8.45L116.53 6.50L137.08 6.50L137.08 8.45L129.83 11.05L114.63 74.50L112.28 74.50L88.78 16.10ZM160.63 29.90L160.63 29.90Q165.48 29.90 169.03 32.05Q172.58 34.20 174.70 38.32Q176.83 42.45 177.33 48.40L177.33 48.40L146.73 48.40L146.83 45.05L172.53 43.85L169.13 45.95Q168.78 42.35 167.70 39.63Q166.63 36.90 164.73 35.38Q162.83 33.85 159.88 33.85L159.88 33.85Q156.38 33.85 153.73 35.77Q151.08 37.70 149.60 41.40Q148.13 45.10 148.13 50.45L148.13 50.45Q148.13 56 150.30 60.05Q152.48 64.10 156.38 66.30Q160.28 68.50 165.48 68.50L165.48 68.50Q167.38 68.50 169.20 68Q171.03 67.50 172.83 66.50Q174.63 65.50 176.33 64.05L176.33 64.05L177.58 65.40Q175.08 68.50 172.48 70.53Q169.88 72.55 166.98 73.53Q164.08 74.50 160.73 74.50L160.73 74.50Q154.93 74.50 150.40 71.67Q145.88 68.85 143.28 63.95Q140.68 59.05 140.68 52.80L140.68 52.80Q140.68 46.50 143.08 41.30Q145.48 36.10 149.95 33Q154.43 29.90 160.63 29.90ZM210.98 46.35L210.98 46.35L211.78 49.85Q205.88 51.20 202.13 52.58Q198.38 53.95 196.28 55.40Q194.18 56.85 193.35 58.48Q192.53 60.10 192.53 62.05L192.53 62.05Q192.53 65.45 194.55 67.25Q196.58 69.05 199.48 69.05L199.48 69.05Q201.83 69.05 203.78 67.85Q205.73 66.65 206.90 64.70Q208.08 62.75 208.08 60.50L208.08 60.50L208.08 42.50Q208.08 38.90 206.23 36.75Q204.38 34.60 200.13 34.60L200.13 34.60Q198.63 34.60 196.68 35.07Q194.73 35.55 192.88 36.50L192.88 36.50L195.43 34.20Q195.28 35.60 195.00 37Q194.73 38.40 194.35 39.50Q193.98 40.60 193.43 41.20L193.43 41.20Q192.63 42.05 191.43 42.45Q190.23 42.85 189.03 42.85L189.03 42.85Q187.48 42.85 186.58 42.13Q185.68 41.40 185.68 40.30L185.68 40.30Q185.68 38.75 187.20 37.02Q188.73 35.30 191.25 33.77Q193.78 32.25 196.88 31.30Q199.98 30.35 203.18 30.35L203.18 30.35Q207.53 30.35 210.23 31.67Q212.93 33 214.15 35.57Q215.38 38.15 215.38 41.90L215.38 41.90L215.38 64.75Q215.38 66.30 215.83 67.33Q216.28 68.35 217.15 68.88Q218.03 69.40 219.33 69.40L219.33 69.40Q220.48 69.40 221.80 68.95Q223.13 68.50 224.38 67.75L224.38 67.75L224.38 70.05Q222.33 72.30 220.05 73.35Q217.78 74.40 215.83 74.40L215.83 74.40Q213.43 74.40 211.70 73.33Q209.98 72.25 209.08 70.22Q208.18 68.20 208.18 65.45L208.18 65.45L208.48 64.95Q207.83 67.75 206.05 69.90Q204.28 72.05 201.80 73.28Q199.33 74.50 196.53 74.50L196.53 74.50Q191.53 74.50 188.28 71.70Q185.03 68.90 185.03 63.65L185.03 63.65Q185.03 60.85 186.15 58.55Q187.28 56.25 190.13 54.22Q192.98 52.20 198.05 50.27Q203.13 48.35 210.98 46.35Z"/>
            </svg>