<?xml version="1.0" encoding="UTF-8" standalone="no"?>
            <svg
               xmlns="http://www.w3.org/2000/svg"
               xmlns:svg="http://www.w3.org/2000/svg"
               width="100"
               height="100"
               version="1.1"
               id="svg1"
               viewBox="0 0 100 100"
               >
               <path fill="black" d="M-15.94 99.69L-17.29 99.69Q-15.73 94.69-13.96 89.90L-13.96 89.90L-18.65 89.90L-18.65 88.75L-12.40 88.75L-12.40 89.48Q-14.58 94.90-15.94 99.69L-15.94 99.69ZM-5 93.75L-6.25 93.75L-6.25 0.94L-5 0.94L-5 93.75ZM-2.50 93.75L-3.75 93.75L-3.75 0.94L-2.50 0.94L-2.50 93.75ZM2.08 99.79L2.08 99.79Q0.42 99.79-0.42 98.44L-0.42 98.44Q-1.35 97.08-1.35 94.69L-1.35 94.69Q-1.35 92.71-0.83 91.35L-0.83 91.35Q-0.42 90 0.52 89.38L0.52 89.38Q1.35 88.65 2.50 88.65L2.50 88.65Q3.85 88.65 4.90 89.58L4.90 89.58L4.06 90.63L3.96 90.52Q3.96 90.42 3.85 90.21L3.85 90.21Q3.75 90.10 3.54 90L3.54 90Q3.23 89.69 2.60 89.69L2.60 89.69Q1.98 89.69 1.35 90.10L1.35 90.10Q0.83 90.42 0.31 91.35L0.31 91.35Q-0.10 92.29-0.10 93.96L-0.10 93.96Q0.21 93.33 0.83 92.92L0.83 92.92Q1.46 92.60 2.19 92.60L2.19 92.60Q3.02 92.60 3.65 93.02L3.65 93.02Q4.38 93.54 4.79 94.38L4.79 94.38Q5.21 95.10 5.21 96.15L5.21 96.15Q5.21 97.29 4.79 98.13L4.79 98.13Q4.38 98.85 3.65 99.38L3.65 99.38Q2.92 99.79 2.08 99.79ZM2.08 98.75L2.08 98.75Q2.92 98.75 3.44 98.02L3.44 98.02Q3.96 97.40 3.96 96.25L3.96 96.25Q3.96 95.42 3.75 94.79L3.75 94.79Q3.44 94.27 3.02 93.96L3.02 93.96Q2.60 93.65 2.08 93.65L2.08 93.65Q1.46 93.65 0.94 94.06L0.94 94.06Q0.31 94.48 0 95.10L0 95.10Q-0.10 95.42-0.10 95.63L-0.10 95.63Q-0.10 96.35 0.21 97.08L0.21 97.08Q0.42 97.81 0.94 98.23L0.94 98.23Q1.46 98.75 2.08 98.75ZM12.50 93.75L11.25 93.75L11.25 0.94L12.50 0.94L12.50 93.75ZM15 93.75L13.75 93.75L13.75 0.94L15 0.94L15 93.75ZM19.06 99.69L19.06 90.21L16.77 90.94L16.56 90.21L19.38 88.75L20.21 88.75L20.21 99.69L19.06 99.69ZM30 93.75L28.75 93.75L28.75 0.94L30 0.94L30 93.75ZM32.50 93.75L31.25 93.75L31.25 0.94L32.50 0.94L32.50 93.75ZM36.56 99.69L36.56 90.21L34.27 90.94L34.06 90.21L36.88 88.75L37.71 88.75L37.71 99.69L36.56 99.69ZM47.50 93.75L46.25 93.75L46.25 0.94L47.50 0.94L47.50 93.75ZM50 93.75L48.75 93.75L48.75 0.94L50 0.94L50 93.75ZM54.06 99.69L54.06 90.21L51.77 90.94L51.56 90.21L54.38 88.75L55.21 88.75L55.21 99.69L54.06 99.69ZM65 93.75L63.75 93.75L63.75 0.94L65 0.94L65 93.75ZM67.50 93.75L66.25 93.75L66.25 0.94L67.50 0.94L67.50 93.75ZM71.88 88.65L71.88 88.65Q73.44 88.65 74.38 90.21L74.38 90.21Q75.21 91.67 75.21 94.27L75.21 94.27Q75.21 96.98 74.38 98.44L74.38 98.44Q73.54 99.90 71.88 99.90L71.88 99.90Q70.21 99.90 69.38 98.44L69.38 98.44Q68.54 96.98 68.54 94.27L68.54 94.27Q68.54 91.67 69.38 90.21L69.38 90.21Q70.31 88.65 71.88 88.65ZM71.88 89.79L71.88 89.79Q70.83 89.79 70.31 90.94L70.31 90.94Q69.79 92.19 69.79 94.27L69.79 94.27Q69.79 95.42 69.90 96.25L69.90 96.25L73.65 91.46Q73.33 90.63 72.92 90.21L72.92 90.21Q72.50 89.79 71.88 89.79ZM71.88 98.75L71.88 98.75Q72.92 98.75 73.44 97.60L73.44 97.60Q73.96 96.46 73.96 94.27L73.96 94.27Q73.96 93.23 73.85 92.50L73.85 92.50L70.21 97.19Q70.73 98.75 71.88 98.75ZM82.50 93.75L81.25 93.75L81.25 0.94L82.50 0.94L82.50 93.75ZM85 93.75L83.75 93.75L83.75 0.94L85 0.94L85 93.75ZM89.38 88.65L89.38 88.65Q90.94 88.65 91.88 90.21L91.88 90.21Q92.71 91.67 92.71 94.27L92.71 94.27Q92.71 96.98 91.88 98.44L91.88 98.44Q91.04 99.90 89.38 99.90L89.38 99.90Q87.71 99.90 86.88 98.44L86.88 98.44Q86.04 96.98 86.04 94.27L86.04 94.27Q86.04 91.67 86.88 90.21L86.88 90.21Q87.81 88.65 89.38 88.65ZM89.38 89.79L89.38 89.79Q88.33 89.79 87.81 90.94L87.81 90.94Q87.29 92.19 87.29 94.27L87.29 94.27Q87.29 95.42 87.40 96.25L87.40 96.25L91.15 91.46Q90.83 90.63 90.42 90.21L90.42 90.21Q90 89.79 89.38 89.79ZM89.38 98.75L89.38 98.75Q90.42 98.75 90.94 97.60L90.94 97.60Q91.46 96.46 91.46 94.27L91.46 94.27Q91.46 93.23 91.35 92.50L91.35 92.50L87.71 97.19Q88.23 98.75 89.38 98.75ZM100 93.75L98.75 93.75L98.75 0.94L100 0.94L100 93.75ZM102.50 93.75L101.25 93.75L101.25 0.94L102.50 0.94L102.50 93.75ZM106.67 99.90L106.67 99.90Q105.83 99.90 105 99.48L105 99.48Q104.27 99.17 103.75 98.65L103.75 98.65L104.48 97.60L104.58 97.50L104.69 97.60Q104.79 97.81 104.79 97.92L104.79 97.92Q104.90 98.02 105 98.23L105 98.23Q105.42 98.44 105.73 98.65L105.73 98.65Q106.15 98.75 106.67 98.75L106.67 98.75Q107.71 98.75 108.23 98.23L108.23 98.23Q108.75 97.60 108.75 96.56L108.75 96.56Q108.75 95.52 108.02 95L108.02 95Q107.40 94.48 106.25 94.48L106.25 94.48Q106.04 94.48 105.63 94.48L105.63 94.48L105.63 93.54Q107.19 93.54 107.81 92.92L107.81 92.92Q108.33 92.29 108.33 91.35L108.33 91.35Q108.33 90.63 107.92 90.21L107.92 90.21Q107.50 89.69 106.77 89.69L106.77 89.69Q105.63 89.69 104.79 90.52L104.79 90.52L104.06 89.79Q105.10 88.65 106.77 88.65L106.77 88.65Q108.13 88.65 108.85 89.38L108.85 89.38Q109.58 90.21 109.58 91.35L109.58 91.35Q109.58 92.29 109.17 92.92L109.17 92.92Q108.75 93.65 107.92 93.85L107.92 93.85Q108.85 94.17 109.38 94.90L109.38 94.90Q110 95.63 110 96.67L110 96.67Q110 97.50 109.58 98.23L109.58 98.23Q109.17 98.96 108.44 99.38L108.44 99.38Q107.71 99.90 106.67 99.90ZM117.50 93.75L116.25 93.75L116.25 0.94L117.50 0.94L117.50 93.75ZM120 93.75L118.75 93.75L118.75 0.94L120 0.94L120 93.75Z"/>
            </svg>