<?xml version="1.0" encoding="UTF-8" standalone="no"?>
            <svg
               xmlns="http://www.w3.org/2000/svg"
               xmlns:svg="http://www.w3.org/2000/svg"
               width="100"
               height="100"
               version="1.1"
               id="svg1"
               viewBox="0 0 100 100"
               >
               <path fill="black" d="M-14.09 69.20Q-14.02 70.79-13.71 71.75Q-13.40 72.72-12.40 73.48Q-11.40 74.24-9.39 74.59L-9.39 74.59L-12.64 81.01Q-15.75 80.59-17.51 79.18Q-19.27 77.76-19.96 75.41L-19.96 75.41Q-23.34 81.01-32.53 81.01L-32.53 81.01Q-37.43 81.01-40.44 79.28Q-43.44 77.56-44.68 75.10Q-45.93 72.65-45.93 70.37L-45.93 70.37Q-45.93 66.64-43.61 63.67Q-41.30 60.70-36.67 59.53L-36.67 59.53Q-34.32 58.91-31.46 58.67Q-28.59 58.43-27.97 58.36L-27.97 58.36Q-23.48 58.08-20.93 57.53L-20.93 57.53Q-21.06 53.87-22.69 51.55Q-24.31 49.24-28.66 49.24L-28.66 49.24Q-31.56 49.24-34.08 50.59Q-36.60 51.93-37.57 55.32L-37.57 55.32L-44.54 53.31Q-43.16 48.76-39.23 45.96Q-35.29 43.16-28.73 43.16L-28.73 43.16Q-22.79 43.16-18.65 46.24Q-14.50 49.31-14.23 55.11L-14.23 55.11Q-14.16 57.87-14.12 62.50Q-14.09 67.13-14.09 69.20L-14.09 69.20ZM-20.79 63.40L-20.79 63.33L-20.93 63.33L-20.79 63.40ZM-31.35 75.07Q-29.28 75.07-26.93 74.03Q-24.59 73.00-22.79 70.37Q-20.99 67.75-20.99 63.33L-20.99 63.33Q-22.38 63.54-25.28 63.81L-25.28 63.81Q-29.63 64.16-32.46 64.68Q-35.29 65.19-37.29 66.51Q-39.30 67.82-39.30 70.17L-39.30 70.17Q-39.30 73.00-36.81 74.03Q-34.32 75.07-31.35 75.07L-31.35 75.07ZM44.68 52.97L44.68 80.11L37.78 80.11L37.78 73.62Q32.11 80.94 21.41 80.94L21.41 80.94Q13.54 80.94 7.87 77.56Q2.21 74.17-0.73 68.27Q-3.66 62.36-3.66 54.83L-3.66 54.83Q-3.66 47.31-0.73 41.37Q2.21 35.43 7.87 32.04Q13.54 28.66 21.41 28.66L21.41 28.66Q29.28 28.66 34.94 32.04Q40.61 35.43 43.58 41.44L43.58 41.44L35.36 43.78Q31.01 35.50 21.41 35.50L21.41 35.50Q15.68 35.50 11.95 38.19Q8.22 40.88 6.49 45.27Q4.77 49.65 4.77 54.83L4.77 54.83Q4.77 60.01 6.49 64.36Q8.22 68.72 11.95 71.41Q15.68 74.10 21.41 74.10L21.41 74.10Q27.90 74.10 32.15 70.34Q36.40 66.57 37.78 60.64L37.78 60.64L37.78 59.60L20.44 59.60L20.44 52.97L44.68 52.97ZM106.35 76.45L101.66 82.46Q99.31 81.63 97.38 80.18Q95.44 78.73 93.23 76.59L93.23 76.59Q87.15 80.94 78.38 80.94L78.38 80.94Q70.51 80.94 64.92 77.56Q59.32 74.17 56.42 68.23Q53.52 62.29 53.52 54.77L53.52 54.77Q53.52 47.24 56.42 41.33Q59.32 35.43 64.95 32.04Q70.58 28.66 78.38 28.66L78.38 28.66Q86.19 28.66 91.78 32.04Q97.38 35.43 100.28 41.33Q103.18 47.24 103.18 54.77L103.18 54.77Q103.18 64.50 98.41 71.41L98.41 71.41Q100.35 73.20 102.21 74.48Q104.07 75.76 106.35 76.45L106.35 76.45ZM61.53 54.77Q61.53 59.94 63.33 64.33Q65.12 68.72 68.89 71.41Q72.65 74.10 78.38 74.10L78.38 74.10Q83.84 74.10 87.85 71.41L87.85 71.41Q84.94 69.06 81.98 68.51L81.98 68.51L86.46 63.05Q89.64 63.88 92.54 66.09L92.54 66.09Q95.17 61.26 95.17 54.77L95.17 54.77Q95.17 49.65 93.40 45.27Q91.64 40.88 87.85 38.19Q84.05 35.50 78.38 35.50L78.38 35.50Q72.65 35.50 68.89 38.19Q65.12 40.88 63.33 45.27Q61.53 49.65 61.53 54.77L61.53 54.77ZM146.75 63.88L119.20 63.88Q119.68 68.58 122.17 71.62Q124.65 74.65 129.35 74.65L129.35 74.65Q132.94 74.65 134.94 73.20Q136.95 71.75 138.54 68.23L138.54 68.23L145.44 70.44Q143.72 75.07 139.78 78.04Q135.84 81.01 129.35 81.01L129.35 81.01Q122.65 81.01 118.78 77.87Q114.92 74.72 113.43 70.41Q111.95 66.09 111.95 62.02L111.95 62.02Q111.95 57.94 113.43 53.63Q114.92 49.31 118.78 46.17Q122.65 43.02 129.35 43.02L129.35 43.02Q136.05 43.02 139.95 46.17Q143.85 49.31 145.34 53.63Q146.82 57.94 146.82 62.02L146.82 62.02Q146.82 63.19 146.75 63.88L146.75 63.88ZM129.35 49.38Q125.21 49.38 122.76 51.80Q120.30 54.21 119.54 58.08L119.54 58.08L139.23 58.08Q138.47 54.21 136.02 51.80Q133.56 49.38 129.35 49.38L129.35 49.38Z"/>
            </svg>