<?xml version="1.0" encoding="UTF-8" standalone="no"?>
            <svg
               xmlns="http://www.w3.org/2000/svg"
               xmlns:svg="http://www.w3.org/2000/svg"
               width="100"
               height="100"
               version="1.1"
               id="svg1"
               viewBox="0 0 100 100"
               >
               <path fill="black" d="M-74.41 77.39L-74.41 77.39Q-75.10 77.39-75.52 77.20Q-75.94 77.01-75.94 76.55L-75.94 76.55Q-75.94 75.94-75.36 75.71Q-74.79 75.48-74.18 75.33L-74.18 75.33Q-72.57 74.94-71.72 74.37Q-70.88 73.79-70.88 72.41L-70.88 72.41L-70.88 55.79Q-70.88 53.72-71.61 52.11Q-72.34 50.50-74.33 50.19L-74.33 50.19Q-74.71 50.11-74.90 49.89Q-75.10 49.66-75.10 49.20L-75.10 49.20Q-75.10 48.35-74.41 48.28L-74.41 48.28Q-71.34 47.59-69.35 46.40Q-67.36 45.21-66.36 44.44L-66.36 44.44Q-65.67 43.91-65.29 43.91L-65.29 43.91Q-64.83 43.91-64.83 44.29L-64.83 44.29Q-64.83 44.90-65.02 46.70Q-65.21 48.51-65.36 50.69Q-65.52 52.87-65.52 54.64L-65.52 54.64L-65.52 72.41Q-65.52 73.72-64.64 74.33Q-63.75 74.94-62.22 75.33L-62.22 75.33Q-61.61 75.48-61.03 75.71Q-60.46 75.94-60.46 76.55L-60.46 76.55Q-60.46 77.39-61.99 77.39L-61.99 77.39Q-63.45 77.39-64.33 77.28Q-65.21 77.16-66.02 77.09Q-66.82 77.01-68.20 77.01L-68.20 77.01Q-69.50 77.01-70.34 77.09Q-71.19 77.16-72.03 77.28Q-72.87 77.39-74.41 77.39ZM-68.28 37.62L-68.28 37.62Q-69.89 37.62-71.00 36.51Q-72.11 35.40-72.11 33.79L-72.11 33.79Q-72.11 32.11-71.00 31.00Q-69.89 29.89-68.28 29.89L-68.28 29.89Q-66.59 29.89-65.48 31.00Q-64.37 32.11-64.37 33.79L-64.37 33.79Q-64.37 35.40-65.48 36.51Q-66.59 37.62-68.28 37.62ZM-42.61 77.55L-42.61 77.55Q-43.60 77.55-44.21 77.36Q-44.83 77.16-44.83 76.70L-44.83 76.70Q-44.83 76.17-44.21 75.86Q-43.60 75.56-42.30 75.33L-42.30 75.33Q-39.39 74.79-37.85 73.45Q-36.32 72.11-36.32 69.35L-36.32 69.35L-36.32 39.62Q-36.32 36.09-36.48 34.21Q-36.63 32.34-36.97 31.57Q-37.32 30.80-37.93 30.73L-37.93 30.73Q-39.00 30.50-40.19 30.46Q-41.38 30.42-43.37 30.42L-43.37 30.42L-46.97 30.42Q-48.81 30.42-50.61 31.15Q-52.41 31.88-53.26 33.41L-53.26 33.41Q-53.49 33.79-54.02 34.52Q-54.56 35.25-55.17 35.79Q-55.79 36.32-56.40 36.32L-56.40 36.32Q-56.70 36.32-56.82 36.02Q-56.93 35.71-56.93 35.33L-56.93 35.33Q-56.93 34.56-56.55 33.79L-56.55 33.79Q-55.48 31.57-54.98 29.85Q-54.48 28.12-54.18 25.75L-54.18 25.75Q-54.02 24.44-53.60 24.21Q-53.18 23.98-52.87 23.98L-52.87 23.98Q-52.57 23.98-51.92 24.90Q-51.26 25.82-50.96 26.44L-50.96 26.44Q-50.50 27.20-48.85 27.59Q-47.20 27.97-45.59 27.97L-45.59 27.97L-18.62 27.97Q-15.94 27.97-14.25 27.66Q-12.57 27.36-11.34 26.82L-11.34 26.82Q-10.42 26.36-9.85 25.82Q-9.27 25.29-8.35 25.29L-8.35 25.29Q-8.12 25.29-7.97 25.86Q-7.82 26.44-7.82 27.05L-7.82 27.05Q-7.82 27.43-7.93 28.12Q-8.05 28.81-8.12 29.20L-8.12 29.20Q-8.35 30.57-8.54 31.19Q-8.74 31.80-8.81 32.26Q-8.89 32.72-8.89 33.72L-8.89 33.72L-8.89 34.64Q-8.89 35.33-9.20 36.21Q-9.50 37.09-10.11 37.09L-10.11 37.09Q-10.65 37.09-10.96 36.25Q-11.26 35.40-11.57 33.95L-11.57 33.95Q-11.88 32.34-13.41 31.38Q-14.94 30.42-18.62 30.42L-18.62 30.42L-26.36 30.42Q-28.05 30.42-28.89 30.88Q-29.73 31.34-29.96 33.18Q-30.19 35.02-30.19 39.23L-30.19 39.23L-30.19 69.35Q-30.19 72.11-28.58 73.45Q-26.97 74.79-24.14 75.33L-24.14 75.33Q-22.84 75.56-22.22 75.86Q-21.61 76.17-21.61 76.70L-21.61 76.70Q-21.61 77.16-22.22 77.36Q-22.84 77.55-23.83 77.55L-23.83 77.55Q-25.90 77.55-27.24 77.43Q-28.58 77.32-29.81 77.24Q-31.03 77.16-32.80 77.16L-32.80 77.16Q-34.71 77.16-36.13 77.24Q-37.55 77.32-39.04 77.43Q-40.54 77.55-42.61 77.55ZM-4.67 77.39L-4.67 77.39Q-6.21 77.39-6.21 76.55L-6.21 76.55Q-6.21 75.86-4.44 75.33L-4.44 75.33Q-3.30 74.94-2.26 74.33Q-1.23 73.72-1.15 72.18L-1.15 72.18L-1.15 33.79Q-1.15 31.72-1.84 30.15Q-2.53 28.58-4.52 28.28L-4.52 28.28Q-5.21 28.12-5.21 27.20L-5.21 27.20Q-5.21 26.51-4.60 26.28L-4.60 26.28Q-3.52 25.90-2.03 25.44Q-0.54 24.98 1.07 24.41Q2.68 23.83 3.91 23.30L3.91 23.30Q4.21 23.14 4.37 23.14L4.37 23.14Q4.60 23.14 4.75 23.30Q4.90 23.45 4.90 23.68L4.90 23.68Q4.90 24.14 4.71 24.98Q4.52 25.82 4.37 27.89Q4.21 29.96 4.21 34.10L4.21 34.10L4.21 47.43Q4.21 48.66 4.33 49.20Q4.44 49.73 4.75 50.27L4.75 50.27Q5.98 49.35 7.78 48.24Q9.58 47.13 11.80 46.28Q14.02 45.44 16.40 45.44L16.40 45.44Q20.15 45.44 22.64 48.39Q25.13 51.34 25.13 55.86L25.13 55.86L25.13 71.95Q25.13 73.49 26.13 74.21Q27.13 74.94 28.28 75.33L28.28 75.33Q29.12 75.56 29.58 75.82Q30.04 76.09 30.04 76.55L30.04 76.55Q30.04 77.39 28.51 77.39L28.51 77.39Q26.97 77.39 26.17 77.28Q25.36 77.16 24.64 77.09Q23.91 77.01 22.53 77.01L22.53 77.01Q21.23 77.01 20.46 77.09Q19.69 77.16 18.89 77.28Q18.08 77.39 16.55 77.39L16.55 77.39Q15.02 77.39 15.02 76.55L15.02 76.55Q15.02 76.02 15.48 75.82Q15.94 75.63 16.78 75.33L16.78 75.33Q17.93 74.94 18.85 74.21Q19.77 73.49 19.77 71.95L19.77 71.95L19.77 56.32Q19.77 54.41 18.66 52.84Q17.55 51.26 15.94 50.34Q14.33 49.43 12.64 49.43L12.64 49.43Q11.19 49.43 9.27 49.85Q7.36 50.27 6.28 51.11L6.28 51.11Q5.06 52.11 4.64 53.18Q4.21 54.25 4.21 56.63L4.21 56.63L4.21 72.18Q4.29 73.72 5.17 74.33Q6.05 74.94 7.20 75.33L7.20 75.33Q8.05 75.56 8.47 75.82Q8.89 76.09 8.89 76.55L8.89 76.55Q8.89 77.39 7.36 77.39L7.36 77.39Q5.82 77.39 5.06 77.28Q4.29 77.16 3.60 77.09Q2.91 77.01 1.53 77.01L1.53 77.01Q0.23 77.01-0.57 77.09Q-1.38 77.16-2.26 77.28Q-3.14 77.39-4.67 77.39ZM72.80 78.39L72.80 78.39Q72.64 78.39 72.34 77.70Q72.03 77.01 71.72 76.25L71.72 76.25L55.17 34.71Q54.25 32.72 52.95 31.46Q51.65 30.19 49.66 29.66L49.66 29.66Q48.43 29.27 47.78 28.89Q47.13 28.51 47.13 27.97L47.13 27.97Q47.13 27.51 47.74 27.32Q48.35 27.13 49.35 27.13L49.35 27.13Q51.11 27.13 52.68 27.24Q54.25 27.36 56.17 27.36L56.17 27.36Q58.31 27.36 60.23 27.28Q62.15 27.20 63.30 27.20L63.30 27.20Q64.29 27.20 64.90 27.39Q65.52 27.59 65.52 28.05L65.52 28.05Q65.52 28.58 64.90 28.89Q64.29 29.20 62.99 29.58L62.99 29.58Q62.07 29.81 61.76 30.54Q61.46 31.26 61.46 32.11L61.46 32.11Q61.46 33.33 61.76 34.37Q62.07 35.40 62.07 35.40L62.07 35.40Q63.83 39.85 65.29 43.52Q66.74 47.20 68.16 50.61Q69.58 54.02 71.15 57.59Q72.72 61.15 74.64 65.52L74.64 65.52Q75.02 66.36 75.29 66.28Q75.56 66.21 75.79 65.59L75.79 65.59L81.76 50.80Q81.99 50.19 82.11 49.77Q82.22 49.35 82.22 49.04L82.22 49.04Q82.22 48.58 82.07 48.08Q81.92 47.59 81.61 46.82L81.61 46.82L77.24 35.94Q76.25 33.49 74.10 31.84Q71.95 30.19 69.96 29.66L69.96 29.66Q68.74 29.27 68.08 28.89Q67.43 28.51 67.43 27.97L67.43 27.97Q67.43 27.51 68.05 27.32Q68.66 27.13 69.66 27.13L69.66 27.13Q70.88 27.13 71.99 27.20Q73.10 27.28 74.29 27.32Q75.48 27.36 76.86 27.36L76.86 27.36Q78.62 27.36 80.11 27.28Q81.61 27.20 82.76 27.20L82.76 27.20Q83.75 27.20 84.37 27.39Q84.98 27.59 84.98 28.05L84.98 28.05Q84.98 28.66 84.21 29.04Q83.45 29.43 82.64 29.89Q81.84 30.34 81.84 31.26L81.84 31.26Q81.84 31.42 81.88 31.57Q81.92 31.72 81.99 31.88L81.99 31.88Q82.15 32.18 82.57 33.37Q82.99 34.56 83.56 36.02Q84.14 37.47 84.67 38.74Q85.21 40 85.44 40.54L85.44 40.54Q85.82 41.46 86.09 41.49Q86.36 41.53 86.82 40.54L86.82 40.54Q87.43 39.16 88.08 37.39Q88.74 35.63 89.23 34.06Q89.73 32.49 89.89 31.88L89.89 31.88Q89.96 31.65 89.96 31.34L89.96 31.34Q89.96 30.42 89.27 29.96Q88.58 29.50 87.85 29.08Q87.13 28.66 87.13 28.05L87.13 28.05Q87.13 27.59 87.74 27.39Q88.35 27.20 89.35 27.20L89.35 27.20Q91.03 27.20 91.65 27.28Q92.26 27.36 93.33 27.36L93.33 27.36Q94.64 27.36 95.56 27.24Q96.48 27.13 97.85 27.13L97.85 27.13Q98.85 27.13 99.46 27.32Q100.08 27.51 100.08 27.97L100.08 27.97Q100.08 28.51 99.46 28.85Q98.85 29.20 97.55 29.50L97.55 29.50Q95.10 30.04 94.21 30.80Q93.33 31.57 92.34 33.18L92.34 33.18Q91.95 33.87 91.23 35.48Q90.50 37.09 89.69 39.00Q88.89 40.92 88.28 42.61L88.28 42.61Q88.05 43.14 87.85 44.14Q87.66 45.13 87.82 45.52L87.82 45.52L95.71 65.82Q95.86 66.21 96.09 66.05Q96.32 65.90 96.55 65.36L96.55 65.36Q98.47 60.31 100.88 52.41Q103.30 44.52 105.90 35.71L105.90 35.71Q106.13 35.02 106.25 34.29Q106.36 33.56 106.36 32.95L106.36 32.95Q106.36 31.80 105.86 30.88Q105.36 29.96 104.06 29.66L104.06 29.66Q103.30 29.43 102.41 29.04Q101.53 28.66 101.53 28.12L101.53 28.12Q101.53 27.66 102.15 27.47Q102.76 27.28 103.75 27.28L103.75 27.28Q105.29 27.28 106.55 27.32Q107.82 27.36 109.27 27.36L109.27 27.36Q111.19 27.36 112.95 27.24Q114.71 27.13 116.17 27.13L116.17 27.13Q117.16 27.13 117.78 27.32Q118.39 27.51 118.39 27.97L118.39 27.97Q118.39 28.51 117.78 28.85Q117.16 29.20 115.86 29.50L115.86 29.50Q114.02 29.89 112.76 31.07Q111.49 32.26 110.77 33.68Q110.04 35.10 109.58 36.25L109.58 36.25L96.02 76.32Q95.94 76.63 95.56 77.36Q95.17 78.08 94.79 78.08L94.79 78.08Q94.48 78.08 94.10 77.62Q93.72 77.16 93.49 76.63L93.49 76.63Q91.49 72.03 90.04 68.39Q88.58 64.75 87.24 61.07Q85.90 57.39 84.06 52.95L84.06 52.95Q83.83 52.41 83.68 52.53Q83.52 52.64 83.22 53.41L83.22 53.41Q81.38 57.78 80.04 61.15Q78.70 64.52 77.39 68.01Q76.09 71.49 74.48 76.02L74.48 76.02Q74.18 76.78 73.72 77.59Q73.26 78.39 72.80 78.39ZM133.64 78.31L133.64 78.31Q129.43 78.31 126.28 76.25Q123.14 74.18 121.38 70.38Q119.62 66.59 119.62 61.61L119.62 61.61Q119.62 57.16 121.65 53.52Q123.68 49.89 127.05 47.66Q130.42 45.44 134.41 45.44L134.41 45.44Q137.47 45.44 139.85 46.67Q142.22 47.89 143.56 50.08Q144.90 52.26 144.90 55.10L144.90 55.10Q144.90 57.47 142.61 57.47L142.61 57.47L126.44 57.47Q125.36 57.47 124.94 58.05Q124.52 58.62 124.52 60.31L124.52 60.31Q124.52 63.98 126.13 67.01Q127.74 70.04 130.42 71.84Q133.10 73.64 136.32 73.64L136.32 73.64Q138.62 73.64 140.50 72.76Q142.38 71.88 143.83 70.19L143.83 70.19Q144.14 69.81 144.29 69.69Q144.44 69.58 144.67 69.58L144.67 69.58Q145.29 69.58 145.29 70.34L145.29 70.34Q145.29 71.80 143.91 73.56L143.91 73.56Q142.76 75.02 141.15 76.09Q139.54 77.16 137.62 77.74Q135.71 78.31 133.64 78.31ZM126.59 55.10L126.59 55.10L133.56 55.10Q135.40 55.10 136.70 55.02Q138.01 54.94 139.23 54.71L139.23 54.71Q139.62 54.64 139.73 54.21Q139.85 53.79 139.85 53.03L139.85 53.03Q139.85 50.80 137.89 49.23Q135.94 47.66 133.26 47.66L133.26 47.66Q131.49 47.66 129.73 48.70Q127.97 49.73 126.82 51.26Q125.67 52.80 125.67 54.33L125.67 54.33Q125.67 55.10 126.59 55.10ZM156.17 78.24L156.17 78.24Q154.79 78.24 153.37 77.16Q151.95 76.09 151.00 74.56Q150.04 73.03 150.04 71.65L150.04 71.65Q150.04 69.20 151.34 67.82Q152.64 66.44 155.48 65.29L155.48 65.29L163.30 62.07Q164.83 61.46 165.10 61.00Q165.36 60.54 165.44 59.00L165.44 59.00L165.59 54.10Q165.67 52.11 164.48 50.65Q163.30 49.20 161.07 49.20L161.07 49.20Q159.92 49.20 158.77 49.58Q157.62 49.96 156.86 50.57L156.86 50.57Q156.40 50.88 156.25 51.49Q156.09 52.11 156.09 52.80L156.09 52.80Q156.09 53.10 156.13 53.49Q156.17 53.87 156.17 54.18L156.17 54.18Q156.17 54.56 155.21 55.21Q154.25 55.86 153.07 56.36Q151.88 56.86 151.11 56.86L151.11 56.86Q150.73 56.86 150.50 56.67Q150.27 56.48 150.27 56.17L150.27 56.17Q150.27 54.94 151.07 53.52Q151.88 52.11 153.33 50.88L153.33 50.88Q155.10 49.27 157.16 48.05Q159.23 46.82 161.23 46.13Q163.22 45.44 164.75 45.44L164.75 45.44Q167.51 45.44 169.31 47.39Q171.11 49.35 171.03 52.26L171.03 52.26L170.65 70.65Q170.57 72.26 171.38 73.26Q172.18 74.25 173.41 74.25L173.41 74.25Q175.33 74.25 176.25 73.41L176.25 73.41Q176.63 73.03 176.86 73.03L176.86 73.03Q177.24 73.03 177.47 73.26Q177.70 73.49 177.70 73.87L177.70 73.87Q177.70 74.71 176.86 75.56L176.86 75.56Q175.63 76.78 174.21 77.51Q172.80 78.24 171.57 78.24L171.57 78.24Q168.05 78.24 165.98 74.25L165.98 74.25L165.75 74.25Q163.22 76.32 160.92 77.28Q158.62 78.24 156.17 78.24ZM159.77 74.56L159.77 74.56Q161.30 74.56 162.38 74.06Q163.45 73.56 164.29 72.72L164.29 72.72Q164.67 72.34 164.94 71.69Q165.21 71.03 165.29 69.58L165.29 69.58L165.44 65.82Q165.52 64.98 165.36 64.60Q165.21 64.21 164.75 64.21L164.75 64.21Q164.60 64.21 164.21 64.29Q163.83 64.37 163.22 64.60L163.22 64.60Q159.16 66.05 157.59 67.62Q156.02 69.20 156.02 70.50L156.02 70.50Q156.02 72.49 157.20 73.52Q158.39 74.56 159.77 74.56Z"/>
            </svg>