<?xml version="1.0" encoding="UTF-8" standalone="no"?>
            <svg
               xmlns="http://www.w3.org/2000/svg"
               xmlns:svg="http://www.w3.org/2000/svg"
               width="100"
               height="100"
               version="1.1"
               id="svg1"
               viewBox="0 0 100 100"
               >
               <path fill="black" d="M13.70 29.59Q13.70 26.31 15.90 24.15Q18.09 21.99 21.26 21.99Q24.42 21.99 26.47 23.03Q28.51 24.07 29.98 26.16L29.98 26.16Q32.45 29.71 34.30 35.65L34.30 35.65L39.00 50.31Q44.17 66.51 44.17 71.45L44.17 71.45L44.17 72.22L45.56 69.83Q45.72 68.75 45.72 67.90L45.72 67.90Q45.72 64.43 40.47 47.45L40.47 47.45L37.15 36.57Q35.53 31.25 34.10 28.32Q32.68 25.39 30.59 23.46L30.59 23.46L31.29 22.84Q33.53 24.69 34.99 27.70Q36.46 30.71 38.23 36.42L38.23 36.42L41.55 47.15Q46.72 63.35 46.72 67.67L46.72 67.67L46.72 67.90Q53.97 55.17 56.37 47.30L56.37 47.30L52.04 31.40Q51.50 29.55 51.50 27.28Q51.50 25.00 52.47 23.61Q53.43 22.22 55.29 22.22L55.29 22.22Q59.92 22.22 59.92 31.40L59.92 31.40Q59.92 38.12 57.45 47.15L57.45 47.15L64.31 72.61Q79.67 50.62 79.67 31.40L79.67 31.40Q79.67 27.08 78.28 25.08Q76.89 23.07 73.03 23.07L73.03 23.07Q71.64 23.07 69.95 23.46L69.95 23.46L69.79 22.69Q71.18 22.22 73.26 22.22L73.26 22.22Q79.21 22.22 80.21 27.31L80.21 27.31Q81.13 22.22 87.15 22.22L87.15 22.22Q89.24 22.22 90.63 22.69L90.63 22.69L90.47 23.46Q88.77 23.07 87.38 23.07L87.38 23.07Q83.60 23.07 82.18 25.00Q80.75 26.93 80.75 31.40L80.75 31.40Q80.75 50.93 64.62 74.00L64.62 74.00L63.62 74.23L56.98 49.69L56.98 48.07L56.83 48.07Q56.83 48.77 56.60 49.92L56.60 49.92Q54.21 57.41 44.25 74.00L44.25 74.00L42.94 74.31Q43.17 73.30 43.17 71.68L43.17 71.68Q43.17 67.05 37.92 50.62L37.92 50.62L33.22 35.80Q31.06 29.01 28.47 25.96Q25.89 22.92 22.18 22.92Q18.48 22.92 16.63 24.81Q14.78 26.70 14.78 29.59Q14.78 32.48 16.09 34.18Q17.40 35.88 19.64 35.88Q21.88 35.88 23.15 34.57Q24.42 33.26 24.42 31.10L24.42 31.10Q24.42 30.32 24.19 29.55L24.19 29.55L25.04 29.24Q25.42 30.17 25.42 31.10L25.42 31.10Q25.42 33.64 23.88 35.22Q22.34 36.81 19.68 36.81Q17.01 36.81 15.35 34.84Q13.70 32.87 13.70 29.59ZM55.29 23.15L55.29 23.15Q53.97 23.15 53.28 24.31Q52.58 25.46 52.58 27.31Q52.58 29.17 53.20 31.40L53.20 31.40L56.91 45.22Q58.83 37.65 58.83 31.40L58.83 31.40Q58.83 23.15 55.29 23.15Z"/>
            </svg>