<?xml version="1.0" encoding="UTF-8" standalone="no"?>
            <svg
               xmlns="http://www.w3.org/2000/svg"
               xmlns:svg="http://www.w3.org/2000/svg"
               width="200"
               height="100"
               version="1.1"
               id="svg1"
               viewBox="0 0 200 100"
               >
               <path d="M31.88 72.28L23.88 72.28L11.02 26.43L17.38 24.40L28.08 65.44L38.18 29.82L46.24 29.82L56.26 65.44L66.89 24.60L72.85 26.43L60.05 72.28L52.06 72.28L42.04 36.66L31.88 72.28Z"/><path d="M73.62 33.66Q73.62 31.04 75.38 29.31Q77.14 27.58 79.68 27.58Q82.21 27.58 83.85 28.41Q85.48 29.24 86.66 30.91L86.66 30.91Q88.63 33.75 90.12 38.51L90.12 38.51L93.89 50.25Q98.02 63.22 98.02 67.17L98.02 67.17L98.02 67.79L99.14 65.88Q99.26 65.01 99.26 64.33L99.26 64.33Q99.26 61.55 95.06 47.96L95.06 47.96L92.40 39.25Q91.11 34.99 89.96 32.64Q88.82 30.29 87.15 28.75L87.15 28.75L87.71 28.26Q89.50 29.74 90.67 32.15Q91.85 34.56 93.27 39.13L93.27 39.13L95.92 47.71Q100.06 60.69 100.06 64.15L100.06 64.15L100.06 64.33Q105.87 54.14 107.78 47.84L107.78 47.84L104.33 35.11Q103.89 33.63 103.89 31.81Q103.89 29.99 104.66 28.87Q105.44 27.76 106.92 27.76L106.92 27.76Q110.63 27.76 110.63 35.11L110.63 35.11Q110.63 40.49 108.65 47.71L108.65 47.71L114.15 68.10Q126.44 50.49 126.44 35.11L126.44 35.11Q126.44 31.65 125.33 30.05Q124.22 28.44 121.13 28.44L121.13 28.44Q120.02 28.44 118.66 28.75L118.66 28.75L118.53 28.13Q119.64 27.76 121.31 27.76L121.31 27.76Q126.07 27.76 126.87 31.84L126.87 31.84Q127.61 27.76 132.43 27.76L132.43 27.76Q134.10 27.76 135.21 28.13L135.21 28.13L135.09 28.75Q133.73 28.44 132.62 28.44L132.62 28.44Q129.59 28.44 128.45 29.99Q127.30 31.53 127.30 35.11L127.30 35.11Q127.30 50.74 114.39 69.21L114.39 69.21L113.59 69.40L108.28 49.75L108.28 48.46L108.16 48.46Q108.16 49.01 107.97 49.94L107.97 49.94Q106.05 55.93 98.09 69.21L98.09 69.21L97.04 69.46Q97.22 68.66 97.22 67.36L97.22 67.36Q97.22 63.65 93.02 50.49L93.02 50.49L89.25 38.63Q87.52 33.20 85.45 30.76Q83.38 28.32 80.42 28.32Q77.45 28.32 75.97 29.83Q74.49 31.34 74.49 33.66Q74.49 35.98 75.54 37.34Q76.59 38.70 78.38 38.70Q80.17 38.70 81.19 37.65Q82.21 36.60 82.21 34.87L82.21 34.87Q82.21 34.25 82.02 33.63L82.02 33.63L82.70 33.38Q83.01 34.12 83.01 34.87L83.01 34.87Q83.01 36.90 81.78 38.17Q80.54 39.44 78.41 39.44Q76.28 39.44 74.95 37.86Q73.62 36.29 73.62 33.66ZM106.92 28.50L106.92 28.50Q105.87 28.50 105.31 29.43Q104.76 30.36 104.76 31.84Q104.76 33.32 105.25 35.11L105.25 35.11L108.22 46.17Q109.76 40.12 109.76 35.11L109.76 35.11Q109.76 28.50 106.92 28.50Z"/><path d="M169.32 51.01L172.04 62.71L172.74 62.71L175.71 51.83L181.78 26.60L188.92 27.74L182.03 52.85L177.80 70.11L166.22 70.93L162.62 54.05L160.47 45.70L158.57 52.85L154.33 70.11L142.95 70.93L139.16 54.05L132.58 28.18L140.80 26.60L145.92 51.01L148.77 62.71L149.46 62.71L152.82 51.01L157.43 33.94L155.98 28.18L164.33 26.60L169.32 51.01Z"/>
            </svg>