<?xml version="1.0" encoding="UTF-8" standalone="no"?>
            <svg
               xmlns="http://www.w3.org/2000/svg"
               xmlns:svg="http://www.w3.org/2000/svg"
               width="200"
               height="100"
               version="1.1"
               id="svg1"
               viewBox="0 0 200 100"
               >
               <path d="M29.47 69.83L22.36 69.83L10.90 29.02L16.57 27.21L26.10 63.74L35.08 32.04L42.25 32.04L51.17 63.74L60.64 27.39L65.94 29.02L54.55 69.83L47.44 69.83L38.51 38.12L29.47 69.83Z"/><path d="M86.61 70.88L67.40 27.37L77.04 27.37L88.84 55.46L91.56 62.25L93.71 55.46L98.05 45.21L90.23 27.37L99.30 27.37L102.50 35.86L105.48 27.37L114.56 27.37L106.73 45.21L111.16 55.68L113.83 62.25L115.89 55.57L127.75 27.37L137.38 27.37L118.17 70.88L109.43 70.88L105.57 62.25L102.42 53.87L99.28 62.25L95.35 70.88L86.61 70.88Z"/><path d="M171.60 50.90L174.02 61.31L174.63 61.31L177.28 51.63L182.68 29.17L189.04 30.19L182.91 52.53L179.14 67.90L168.84 68.63L165.63 53.60L163.72 46.17L162.03 52.53L158.26 67.90L148.12 68.63L144.75 53.60L138.89 30.58L146.21 29.17L150.77 50.90L153.30 61.31L153.92 61.31L156.90 50.90L161.01 35.70L159.72 30.58L167.15 29.17L171.60 50.90Z"/>
            </svg>