<?xml version="1.0" encoding="UTF-8" standalone="no"?>
            <svg
               xmlns="http://www.w3.org/2000/svg"
               xmlns:svg="http://www.w3.org/2000/svg"
               width="200"
               height="100"
               version="1.1"
               id="svg1"
               viewBox="0 0 200 100"
               >
               <path d="M84.55 13.60L65.72 84.82L62.40 84.82L48.54 31.23L48.34 28.45L48.04 31.23L34.29 84.82L30.96 84.82L12.04 13.60L18.44 13.60L32.40 67.73L32.60 70.36L32.80 67.73L46.50 13.60L50.08 13.60L63.79 67.73L63.99 70.36L64.23 67.73L78.14 13.60L84.55 13.60Z"/><path d="M122.01 86.08L109.07 86.08L88.23 11.84L98.54 8.55L115.87 75.00L132.21 17.32L145.26 17.32L161.49 75.00L178.70 8.87L188.35 11.84L167.63 86.08L154.69 86.08L138.46 28.40L122.01 86.08Z"/>
            </svg>