<?xml version="1.0" encoding="UTF-8" standalone="no"?>
            <svg
               xmlns="http://www.w3.org/2000/svg"
               xmlns:svg="http://www.w3.org/2000/svg"
               width="100"
               height="100"
               version="1.1"
               id="svg1"
               viewBox="0 0 100 100"
               >
               <path fill="black" d="M-58.76 77.83L-94.29 77.83L-94.29 18.61L-58.76 18.61L-58.76 25.55L-86.25 25.55L-86.25 43.57L-62.56 43.57L-62.56 50.34L-86.25 50.34L-86.25 70.90L-58.76 70.90L-58.76 77.83ZM0.72 75.72L-6.64 78.68L-13.24 61.76L-40.65 61.76L-47.25 78.51L-54.10 75.72L-30.92 18.61L-22.12 18.61L0.72 75.72ZM-26.95 26.57L-38.11 54.99L-15.86 54.99L-26.95 26.57ZM51.23 75.30L43.70 78.85L36.34 62.77Q33.54 56.77 29.31 54.23Q25.08 51.69 18.49 51.69L18.49 51.69L17.22 51.69L17.22 77.83L9.18 77.83L9.18 18.78Q13.66 18.36 17.77 18.15Q21.87 17.94 26.52 17.94L26.52 17.94Q37.35 17.94 42.81 22.34Q48.27 26.73 48.27 33.67L48.27 33.67Q48.27 39.85 44.59 43.61Q40.91 47.38 33.97 49.24L33.97 49.24Q36.25 50.25 38.03 51.65Q39.81 53.05 41.46 55.37Q43.10 57.70 44.80 61.42L44.80 61.42L51.23 75.30ZM17.22 25.04L17.22 44.92L26.52 44.92Q32.61 44.92 36.42 42.22Q40.23 39.51 40.23 34.43L40.23 34.43Q40.23 30.20 36.68 27.45Q33.12 24.70 26.52 24.70L26.52 24.70Q23.65 24.70 21.36 24.79Q19.08 24.87 17.22 25.04L17.22 25.04ZM95.56 77.83L62.73 77.83L62.73 18.61L95.56 18.61L95.56 77.83ZM68.49 24.37L68.49 72.08L89.81 72.08L89.81 24.37L68.49 24.37ZM128.13 78.85L128.13 78.85Q122.63 78.85 118.15 76.06Q113.66 73.27 111.00 68.15Q108.33 63.03 108.33 56.09L108.33 56.09Q108.33 49.49 111.00 44.25Q113.66 39.00 118.36 35.91Q123.05 32.83 129.15 32.83L129.15 32.83Q132.95 32.83 136.04 34.14Q139.13 35.45 141.41 37.39L141.41 37.39L141.41 33.84L148.35 33.84L148.35 67.17Q148.35 70.39 149.92 71.36Q151.48 72.34 153.34 72.34L153.34 72.34L151.73 78.26Q143.61 78.26 141.92 71.66L141.92 71.66Q139.97 74.37 136.63 76.61Q133.29 78.85 128.13 78.85ZM129.82 72.08L129.82 72.08Q133.04 72.08 135.91 70.52Q138.79 68.95 140.74 66.58L140.74 66.58L140.74 42.98Q138.45 41.37 135.70 40.40Q132.95 39.42 129.91 39.42L129.91 39.42Q125.85 39.42 122.76 41.50Q119.67 43.57 117.89 47.25Q116.12 50.93 116.12 55.84L116.12 55.84Q116.12 60.58 117.89 64.26Q119.67 67.94 122.80 70.01Q125.93 72.08 129.82 72.08ZM180.25 78.85L180.25 78.85Q170.77 78.85 165.23 72.80Q159.69 66.75 159.69 55.84L159.69 55.84Q159.69 49.24 162.18 44.04Q164.68 38.83 169.16 35.83Q173.65 32.83 179.57 32.83L179.57 32.83Q185.91 32.83 190.10 35.58Q194.29 38.32 196.40 42.98Q198.52 47.63 198.52 53.21L198.52 53.21Q198.52 56.18 198.27 58.97L198.27 58.97L167.47 58.97Q168.23 65.14 171.79 68.61Q175.34 72.08 181.18 72.08L181.18 72.08Q184.98 72.08 188.03 71.28Q191.07 70.47 193.87 69.20L193.87 69.20L195.64 75.72Q192.60 77.07 188.79 77.96Q184.98 78.85 180.25 78.85ZM167.39 52.79L167.39 52.79L191.50 52.79Q191.50 46.36 188.28 42.89Q185.07 39.42 179.40 39.42L179.40 39.42Q174.49 39.42 171.28 42.85Q168.06 46.28 167.39 52.79Z"/>
            </svg>