<svg xmlns="http://www.w3.org/2000/svg" xmlns:xlink="http://www.w3.org/1999/xlink" width="207.50400000000005" height="86.11200000000001"><path fill="black" d="M2.95 19.01L2.95 69.41L26.86 69.41L26.86 65.81L7.06 65.81L7.06 43.70L19.44 43.70L20.74 39.74L7.06 39.74L7.06 22.75L27.00 22.75L27.00 19.01L2.95 19.01ZM64.30 69.41L68.54 69.41L52.13 19.01L48.31 19.01L32.11 69.41L36.43 69.41L42.12 51.77L58.46 51.77L64.30 69.41ZM57.38 47.81L43.20 47.81L50.18 25.20L57.38 47.81ZM91.15 19.01L91.15 19.01L74.16 19.01L74.16 69.41L78.26 69.41L78.26 51.77L91.15 51.77Q91.87 51.77 92.56 51.73Q93.24 51.70 93.89 51.62Q94.54 51.55 95.11 51.41L95.11 51.41L101.66 69.41L105.77 69.41L98.78 50.33Q101.09 49.18 102.56 47.23Q104.04 45.29 104.76 42.34Q105.48 39.38 105.48 35.28L105.48 35.28Q105.48 30.67 104.54 27.54Q103.61 24.41 101.77 22.54Q99.94 20.66 97.27 19.84Q94.61 19.01 91.15 19.01ZM91.51 47.81L91.51 47.81L78.26 47.81L78.26 22.82L91.51 22.82Q93.60 22.82 95.40 23.36Q97.20 23.90 98.53 25.24Q99.86 26.57 100.62 29.02Q101.38 31.46 101.38 35.28L101.38 35.28Q101.38 39.38 100.62 41.90Q99.86 44.42 98.50 45.68Q97.13 46.94 95.36 47.38Q93.60 47.81 91.51 47.81ZM140.33 86.11L111.53 86.11L111.53 0.14L140.33 0.14L140.33 86.11ZM115.13 3.74L115.13 82.51L136.73 82.51L136.73 3.74L115.13 3.74ZM169.49 44.21L169.49 44.21Q167.83 43.20 165.78 42.34Q163.73 41.47 161.50 40.93Q159.26 40.39 156.89 40.39L156.89 40.39Q154.73 40.39 152.75 40.97Q150.77 41.54 149.18 42.80Q147.60 44.06 146.70 46.15Q145.80 48.24 145.80 51.26L145.80 51.26L145.80 57.24Q145.80 61.20 147.06 63.79Q148.32 66.38 150.52 67.79Q152.71 69.19 155.70 69.70Q158.69 70.20 162.14 70.13L162.14 70.13Q163.22 70.13 164.70 70.06Q166.18 69.98 167.72 69.88Q169.27 69.77 170.60 69.66Q171.94 69.55 172.76 69.48Q173.59 69.41 173.52 69.41L173.52 69.41L173.52 48.67Q173.52 44.21 172.80 41.15Q172.08 38.09 170.39 36.25Q168.70 34.42 165.82 33.59Q162.94 32.76 158.54 32.76L158.54 32.76L158.40 35.86Q160.56 35.86 162.58 36.18Q164.59 36.50 166.14 37.37Q167.69 38.23 168.59 39.89Q169.49 41.54 169.49 44.21ZM169.49 47.59L169.49 47.59L169.49 66.10Q169.49 66.10 169.16 66.13Q168.84 66.17 168.19 66.20Q167.54 66.24 166.61 66.35Q165.67 66.46 164.48 66.53Q163.30 66.60 161.86 66.67L161.86 66.67Q158.26 66.82 155.88 66.28Q153.50 65.74 152.17 64.48Q150.84 63.22 150.30 61.27Q149.76 59.33 149.76 56.74L149.76 56.74L149.76 51.41Q149.76 48.96 150.44 47.45Q151.13 45.94 152.21 45.18Q153.29 44.42 154.44 44.14Q155.59 43.85 156.53 43.85L156.53 43.85Q158.83 43.85 161.06 44.35Q163.30 44.86 165.46 45.72Q167.62 46.58 169.49 47.59ZM183.38 59.76L183.38 59.76L183.38 55.30L205.34 54.14L205.34 44.78Q205.34 40.75 203.80 38.09Q202.25 35.42 199.40 34.06Q196.56 32.69 192.67 32.69L192.67 32.69Q188.86 32.69 185.83 34.06Q182.81 35.42 181.08 38.16Q179.35 40.90 179.35 45L179.35 45L179.35 59.76Q179.35 62.78 180.25 64.80Q181.15 66.82 182.81 68.04Q184.46 69.26 186.77 69.77Q189.07 70.27 191.81 70.27L191.81 70.27Q194.54 70.27 197.71 69.37Q200.88 68.47 203.54 66.89L203.54 66.89L201.96 63.79Q199.30 65.16 196.70 65.99Q194.11 66.82 191.45 66.82L191.45 66.82Q189.72 66.82 188.24 66.42Q186.77 66.02 185.69 65.20Q184.61 64.37 184.00 63.04Q183.38 61.70 183.38 59.76ZM201.31 44.28L201.31 44.28L201.31 50.54L183.38 51.34L183.38 45.07Q183.38 42.19 184.50 40.18Q185.62 38.16 187.70 37.12Q189.79 36.07 192.60 36.07L192.60 36.07Q195.12 36.07 197.06 37.08Q199.01 38.09 200.16 39.92Q201.31 41.76 201.31 44.28Z"/></svg>