<?xml version="1.0" encoding="UTF-8" standalone="no"?>
            <svg
               xmlns="http://www.w3.org/2000/svg"
               xmlns:svg="http://www.w3.org/2000/svg"
               width="100"
               height="100"
               version="1.1"
               id="svg1"
               viewBox="0 0 100 100"
               >
               <path fill="black" d="M-67.06 22.07L-67.06 80.60L-39.30 80.60L-39.30 76.42L-62.29 76.42L-62.29 50.75L-47.91 50.75L-46.40 46.15L-62.29 46.15L-62.29 26.42L-39.13 26.42L-39.13 22.07L-67.06 22.07ZM4.18 80.60L9.11 80.60L-9.95 22.07L-14.38 22.07L-33.19 80.60L-28.18 80.60L-21.57 60.12L-2.59 60.12L4.18 80.60ZM-3.85 55.52L-20.32 55.52L-12.21 29.26L-3.85 55.52ZM35.37 22.07L35.37 22.07L15.64 22.07L15.64 80.60L20.40 80.60L20.40 60.12L35.37 60.12Q36.20 60.12 37.00 60.08Q37.79 60.03 38.55 59.95Q39.30 59.87 39.97 59.70L39.97 59.70L47.58 80.60L52.34 80.60L44.23 58.44Q46.91 57.11 48.62 54.85Q50.33 52.59 51.17 49.16Q52.01 45.74 52.01 40.97L52.01 40.97Q52.01 35.62 50.92 31.98Q49.83 28.34 47.70 26.17Q45.57 24.00 42.47 23.04Q39.38 22.07 35.37 22.07ZM35.79 55.52L35.79 55.52L20.40 55.52L20.40 26.51L35.79 26.51Q38.21 26.51 40.30 27.13Q42.39 27.76 43.94 29.31Q45.48 30.85 46.36 33.70Q47.24 36.54 47.24 40.97L47.24 40.97Q47.24 45.74 46.36 48.66Q45.48 51.59 43.90 53.05Q42.31 54.52 40.26 55.02Q38.21 55.52 35.79 55.52ZM92.47 100L59.03 100L59.03 0.17L92.47 0.17L92.47 100ZM63.21 4.35L63.21 95.82L88.29 95.82L88.29 4.35L63.21 4.35ZM126.34 51.34L126.34 51.34Q124.41 50.17 122.03 49.16Q119.65 48.16 117.06 47.53Q114.46 46.91 111.71 46.91L111.71 46.91Q109.20 46.91 106.90 47.58Q104.60 48.24 102.76 49.71Q100.92 51.17 99.87 53.60Q98.83 56.02 98.83 59.53L98.83 59.53L98.83 66.47Q98.83 71.07 100.29 74.08Q101.76 77.09 104.31 78.72Q106.86 80.35 110.33 80.94Q113.80 81.52 117.81 81.44L117.81 81.44Q119.06 81.44 120.78 81.35Q122.49 81.27 124.29 81.15Q126.09 81.02 127.63 80.89Q129.18 80.77 130.14 80.69Q131.10 80.60 131.02 80.60L131.02 80.60L131.02 56.52Q131.02 51.34 130.18 47.78Q129.35 44.23 127.38 42.10Q125.42 39.97 122.07 39.01Q118.73 38.04 113.63 38.04L113.63 38.04L113.46 41.64Q115.97 41.64 118.31 42.02Q120.65 42.39 122.45 43.39Q124.25 44.40 125.29 46.32Q126.34 48.24 126.34 51.34ZM126.34 55.27L126.34 55.27L126.34 76.76Q126.34 76.76 125.96 76.80Q125.59 76.84 124.83 76.88Q124.08 76.92 122.99 77.05Q121.91 77.17 120.53 77.26Q119.15 77.34 117.47 77.42L117.47 77.42Q113.29 77.59 110.54 76.96Q107.78 76.34 106.23 74.87Q104.68 73.41 104.06 71.15Q103.43 68.90 103.43 65.89L103.43 65.89L103.43 59.70Q103.43 56.86 104.22 55.10Q105.02 53.34 106.27 52.47Q107.53 51.59 108.86 51.25Q110.20 50.92 111.29 50.92L111.29 50.92Q113.96 50.92 116.56 51.51Q119.15 52.09 121.66 53.09Q124.16 54.10 126.34 55.27ZM142.47 69.40L142.47 69.40L142.47 64.21L167.98 62.88L167.98 52.01Q167.98 47.32 166.18 44.23Q164.38 41.14 161.08 39.55Q157.78 37.96 153.26 37.96L153.26 37.96Q148.83 37.96 145.32 39.55Q141.81 41.14 139.80 44.31Q137.79 47.49 137.79 52.26L137.79 52.26L137.79 69.40Q137.79 72.91 138.84 75.25Q139.88 77.59 141.81 79.01Q143.73 80.43 146.40 81.02Q149.08 81.61 152.26 81.61L152.26 81.61Q155.43 81.61 159.11 80.56Q162.79 79.52 165.89 77.68L165.89 77.68L164.05 74.08Q160.95 75.67 157.94 76.63Q154.93 77.59 151.84 77.59L151.84 77.59Q149.83 77.59 148.12 77.13Q146.40 76.67 145.15 75.71Q143.90 74.75 143.19 73.20Q142.47 71.66 142.47 69.40ZM163.29 51.42L163.29 51.42L163.29 58.70L142.47 59.62L142.47 52.34Q142.47 49.00 143.77 46.66Q145.07 44.31 147.49 43.10Q149.92 41.89 153.18 41.89L153.18 41.89Q156.10 41.89 158.36 43.06Q160.62 44.23 161.96 46.36Q163.29 48.49 163.29 51.42Z"/>
            </svg>