<?xml version="1.0" encoding="UTF-8" standalone="no"?>
            <svg
               xmlns="http://www.w3.org/2000/svg"
               xmlns:svg="http://www.w3.org/2000/svg"
               width="200"
               height="100"
               version="1.1"
               id="svg1"
               viewBox="0 0 200 100"
               >
               <path d="M11.13 40.77L11.13 60.11L20.30 60.11L20.30 58.73L12.71 58.73L12.71 50.25L17.46 50.25L17.96 48.73L12.71 48.73L12.71 42.21L20.36 42.21L20.36 40.77L11.13 40.77ZM34.67 60.11L36.30 60.11L30.00 40.77L28.54 40.77L22.32 60.11L23.98 60.11L26.16 53.34L32.43 53.34L34.67 60.11ZM32.02 51.82L26.58 51.82L29.26 43.15L32.02 51.82ZM44.97 40.77L44.97 40.77L38.46 40.77L38.46 60.11L40.03 60.11L40.03 53.34L44.97 53.34Q45.25 53.34 45.51 53.33Q45.78 53.32 46.02 53.29Q46.27 53.26 46.49 53.20L46.49 53.20L49.01 60.11L50.58 60.11L47.90 52.79Q48.79 52.35 49.35 51.60Q49.92 50.86 50.20 49.72Q50.47 48.59 50.47 47.02L50.47 47.02Q50.47 45.25 50.11 44.05Q49.75 42.84 49.05 42.13Q48.35 41.41 47.32 41.09Q46.30 40.77 44.97 40.77ZM45.11 51.82L45.11 51.82L40.03 51.82L40.03 42.24L45.11 42.24Q45.91 42.24 46.60 42.44Q47.30 42.65 47.81 43.16Q48.32 43.67 48.61 44.61Q48.90 45.55 48.90 47.02L48.90 47.02Q48.90 48.59 48.61 49.56Q48.32 50.52 47.79 51.01Q47.27 51.49 46.59 51.66Q45.91 51.82 45.11 51.82ZM63.84 66.52L52.79 66.52L52.79 33.53L63.84 33.53L63.84 66.52ZM54.17 34.92L54.17 65.14L62.46 65.14L62.46 34.92L54.17 34.92ZM75.03 50.44L75.03 50.44Q74.40 50.06 73.61 49.72Q72.82 49.39 71.97 49.19Q71.11 48.98 70.20 48.98L70.20 48.98Q69.37 48.98 68.61 49.20Q67.85 49.42 67.24 49.90Q66.63 50.39 66.29 51.19Q65.94 51.99 65.94 53.15L65.94 53.15L65.94 55.44Q65.94 56.96 66.43 57.96Q66.91 58.95 67.75 59.49Q68.60 60.03 69.74 60.22Q70.89 60.42 72.21 60.39L72.21 60.39Q72.63 60.39 73.20 60.36Q73.76 60.33 74.36 60.29Q74.95 60.25 75.46 60.21Q75.97 60.17 76.29 60.14Q76.61 60.11 76.58 60.11L76.58 60.11L76.58 52.15Q76.58 50.44 76.30 49.27Q76.03 48.09 75.38 47.39Q74.73 46.68 73.62 46.37Q72.52 46.05 70.83 46.05L70.83 46.05L70.78 47.24Q71.61 47.24 72.38 47.36Q73.15 47.49 73.75 47.82Q74.34 48.15 74.69 48.78Q75.03 49.42 75.03 50.44ZM75.03 51.74L75.03 51.74L75.03 58.84Q75.03 58.84 74.91 58.85Q74.78 58.87 74.54 58.88Q74.29 58.90 73.93 58.94Q73.57 58.98 73.11 59.01Q72.66 59.03 72.10 59.06L72.10 59.06Q70.72 59.12 69.81 58.91Q68.90 58.70 68.39 58.22Q67.88 57.74 67.67 56.99Q67.46 56.24 67.46 55.25L67.46 55.25L67.46 53.20Q67.46 52.27 67.73 51.69Q67.99 51.11 68.40 50.81Q68.82 50.52 69.26 50.41Q69.70 50.30 70.06 50.30L70.06 50.30Q70.94 50.30 71.80 50.50Q72.66 50.69 73.49 51.02Q74.31 51.35 75.03 51.74ZM80.36 56.41L80.36 56.41L80.36 54.70L88.79 54.25L88.79 50.66Q88.79 49.12 88.20 48.09Q87.60 47.07 86.51 46.55Q85.42 46.02 83.93 46.02L83.93 46.02Q82.46 46.02 81.30 46.55Q80.14 47.07 79.48 48.12Q78.82 49.17 78.82 50.75L78.82 50.75L78.82 56.41Q78.82 57.57 79.16 58.34Q79.51 59.12 80.14 59.59Q80.78 60.06 81.66 60.25Q82.55 60.44 83.60 60.44L83.60 60.44Q84.65 60.44 85.86 60.10Q87.08 59.75 88.10 59.14L88.10 59.14L87.49 57.96Q86.47 58.48 85.48 58.80Q84.48 59.12 83.46 59.12L83.46 59.12Q82.80 59.12 82.23 58.96Q81.66 58.81 81.25 58.50Q80.83 58.18 80.60 57.67Q80.36 57.16 80.36 56.41ZM87.24 50.47L87.24 50.47L87.24 52.87L80.36 53.18L80.36 50.77Q80.36 49.67 80.79 48.89Q81.22 48.12 82.02 47.72Q82.82 47.32 83.90 47.32L83.90 47.32Q84.87 47.32 85.61 47.71Q86.36 48.09 86.80 48.80Q87.24 49.50 87.24 50.47Z"/><path d="M103.88 59.20L92.13 59.20L92.13 39.63L103.88 39.63L103.88 41.92L94.79 41.92L94.79 47.88L102.62 47.88L102.62 50.11L94.79 50.11L94.79 56.90L103.88 56.90L103.88 59.20ZM123.53 58.50L121.09 59.48L118.91 53.89L109.86 53.89L107.68 59.42L105.41 58.50L113.07 39.63L115.98 39.63L123.53 58.50ZM114.39 42.26L110.70 51.65L118.05 51.65L114.39 42.26ZM140.21 58.36L137.73 59.53L135.29 54.22Q134.37 52.24 132.97 51.40Q131.58 50.56 129.40 50.56L129.40 50.56L128.98 50.56L128.98 59.20L126.32 59.20L126.32 39.69Q127.80 39.55 129.16 39.48Q130.51 39.41 132.05 39.41L132.05 39.41Q135.63 39.41 137.43 40.86Q139.24 42.31 139.24 44.60L139.24 44.60Q139.24 46.65 138.02 47.89Q136.80 49.13 134.51 49.75L134.51 49.75Q135.27 50.08 135.85 50.55Q136.44 51.01 136.99 51.78Q137.53 52.54 138.09 53.77L138.09 53.77L140.21 58.36ZM128.98 41.75L128.98 48.32L132.05 48.32Q134.07 48.32 135.32 47.43Q136.58 46.53 136.58 44.86L136.58 44.86Q136.58 43.46 135.41 42.55Q134.23 41.64 132.05 41.64L132.05 41.64Q131.10 41.64 130.35 41.67Q129.59 41.70 128.98 41.75L128.98 41.75ZM154.86 59.20L144.02 59.20L144.02 39.63L154.86 39.63L154.86 59.20ZM145.92 41.53L145.92 57.30L152.96 57.30L152.96 41.53L145.92 41.53ZM165.62 59.53L165.62 59.53Q163.81 59.53 162.33 58.61Q160.84 57.69 159.96 56.00Q159.08 54.30 159.08 52.01L159.08 52.01Q159.08 49.83 159.96 48.10Q160.84 46.37 162.40 45.35Q163.95 44.33 165.96 44.33L165.96 44.33Q167.22 44.33 168.24 44.76Q169.26 45.19 170.01 45.83L170.01 45.83L170.01 44.66L172.31 44.66L172.31 55.67Q172.31 56.74 172.82 57.06Q173.34 57.38 173.95 57.38L173.95 57.38L173.42 59.34Q170.74 59.34 170.18 57.16L170.18 57.16Q169.54 58.05 168.43 58.79Q167.33 59.53 165.62 59.53ZM166.18 57.30L166.18 57.30Q167.25 57.30 168.20 56.78Q169.15 56.26 169.79 55.48L169.79 55.48L169.79 47.68Q169.03 47.15 168.13 46.83Q167.22 46.51 166.21 46.51L166.21 46.51Q164.87 46.51 163.85 47.19Q162.83 47.88 162.24 49.09Q161.66 50.31 161.66 51.93L161.66 51.93Q161.66 53.49 162.24 54.71Q162.83 55.93 163.86 56.61Q164.90 57.30 166.18 57.30ZM182.84 59.53L182.84 59.53Q179.71 59.53 177.88 57.53Q176.05 55.53 176.05 51.93L176.05 51.93Q176.05 49.75 176.88 48.03Q177.70 46.31 179.18 45.32Q180.66 44.33 182.62 44.33L182.62 44.33Q184.72 44.33 186.10 45.23Q187.48 46.14 188.18 47.68Q188.88 49.22 188.88 51.06L188.88 51.06Q188.88 52.04 188.80 52.96L188.80 52.96L178.62 52.96Q178.87 55.00 180.05 56.15Q181.22 57.30 183.15 57.30L183.15 57.30Q184.41 57.30 185.42 57.03Q186.42 56.76 187.34 56.35L187.34 56.35L187.93 58.50Q186.93 58.95 185.67 59.24Q184.41 59.53 182.84 59.53ZM178.59 50.92L178.59 50.92L186.56 50.92Q186.56 48.80 185.50 47.65Q184.44 46.51 182.56 46.51L182.56 46.51Q180.94 46.51 179.88 47.64Q178.82 48.77 178.59 50.92Z"/>
            </svg>