<svg xmlns="http://www.w3.org/2000/svg" xmlns:xlink="http://www.w3.org/1999/xlink" width="258.552" height="85.10400000000001"><path fill="black" d="M36.72 66.24L6.48 66.24L6.48 15.84L36.72 15.84L36.72 21.74L13.32 21.74L13.32 37.08L33.48 37.08L33.48 42.84L13.32 42.84L13.32 60.34L36.72 60.34L36.72 66.24ZM87.34 64.44L81.07 66.96L75.46 52.56L52.13 52.56L46.51 66.82L40.68 64.44L60.41 15.84L67.90 15.84L87.34 64.44ZM63.79 22.61L54.29 46.80L73.22 46.80L63.79 22.61ZM130.32 64.08L123.91 67.10L117.65 53.42Q115.27 48.31 111.67 46.15Q108.07 43.99 102.46 43.99L102.46 43.99L101.38 43.99L101.38 66.24L94.54 66.24L94.54 15.98Q98.35 15.62 101.84 15.44Q105.34 15.26 109.30 15.26L109.30 15.26Q118.51 15.26 123.16 19.01Q127.80 22.75 127.80 28.66L127.80 28.66Q127.80 33.91 124.67 37.12Q121.54 40.32 115.63 41.90L115.63 41.90Q117.58 42.77 119.09 43.96Q120.60 45.14 122.00 47.12Q123.41 49.10 124.85 52.27L124.85 52.27L130.32 64.08ZM101.38 21.31L101.38 38.23L109.30 38.23Q114.48 38.23 117.72 35.93Q120.96 33.62 120.96 29.30L120.96 29.30Q120.96 25.70 117.94 23.36Q114.91 21.02 109.30 21.02L109.30 21.02Q106.85 21.02 104.90 21.10Q102.96 21.17 101.38 21.31L101.38 21.31ZM168.05 66.24L140.11 66.24L140.11 15.84L168.05 15.84L168.05 66.24ZM145.01 20.74L145.01 61.34L163.15 61.34L163.15 20.74L145.01 20.74ZM195.77 67.10L195.77 67.10Q191.09 67.10 187.27 64.73Q183.46 62.35 181.19 58.00Q178.92 53.64 178.92 47.74L178.92 47.74Q178.92 42.12 181.19 37.66Q183.46 33.19 187.45 30.56Q191.45 27.94 196.63 27.94L196.63 27.94Q199.87 27.94 202.50 29.05Q205.13 30.17 207.07 31.82L207.07 31.82L207.07 28.80L212.98 28.80L212.98 57.17Q212.98 59.90 214.31 60.73Q215.64 61.56 217.22 61.56L217.22 61.56L215.86 66.60Q208.94 66.60 207.50 60.98L207.50 60.98Q205.85 63.29 203.00 65.20Q200.16 67.10 195.77 67.10ZM197.21 61.34L197.21 61.34Q199.94 61.34 202.39 60.01Q204.84 58.68 206.50 56.66L206.50 56.66L206.50 36.58Q204.55 35.21 202.21 34.38Q199.87 33.55 197.28 33.55L197.28 33.55Q193.82 33.55 191.20 35.32Q188.57 37.08 187.06 40.21Q185.54 43.34 185.54 47.52L185.54 47.52Q185.54 51.55 187.06 54.68Q188.57 57.82 191.23 59.58Q193.90 61.34 197.21 61.34ZM240.12 67.10L240.12 67.10Q232.06 67.10 227.34 61.96Q222.62 56.81 222.62 47.52L222.62 47.52Q222.62 41.90 224.75 37.48Q226.87 33.05 230.69 30.49Q234.50 27.94 239.54 27.94L239.54 27.94Q244.94 27.94 248.51 30.28Q252.07 32.62 253.87 36.58Q255.67 40.54 255.67 45.29L255.67 45.29Q255.67 47.81 255.46 50.18L255.46 50.18L229.25 50.18Q229.90 55.44 232.92 58.39Q235.94 61.34 240.91 61.34L240.91 61.34Q244.15 61.34 246.74 60.66Q249.34 59.98 251.71 58.90L251.71 58.90L253.22 64.44Q250.63 65.59 247.39 66.35Q244.15 67.10 240.12 67.10ZM229.18 44.93L229.18 44.93L249.70 44.93Q249.70 39.46 246.96 36.50Q244.22 33.55 239.40 33.55L239.40 33.55Q235.22 33.55 232.49 36.47Q229.75 39.38 229.18 44.93Z"/></svg>